  0
SECTION
  2
BLOCKS
  0
ENDSEC
  0
SECTION
  2
ENTITIES
  0
LINE
  8
0
 10
39.1861
 20
14.0148
 11
39.0161
 21
14.2175
  0
LINE
  8
0
 10
39.0161
 20
14.2175
 11
38.6499
 21
14.6098
  0
LINE
  8
0
 10
38.6499
 20
14.6098
 11
38.5441
 21
14.7109
  0
LINE
  8
0
 10
38.5441
 20
14.7109
 11
38.2749
 21
14.9684
  0
LINE
  8
0
 10
38.2749
 20
14.9684
 11
38.2134
 21
15.0204
  0
LINE
  8
0
 10
38.2134
 20
15.0204
 11
37.8915
 21
15.2931
  0
LINE
  8
0
 10
37.8915
 20
15.2931
 11
37.6677
 21
15.4591
  0
LINE
  8
0
 10
37.6677
 20
15.4591
 11
37.5277
 21
15.5587
  0
LINE
  8
0
 10
37.5277
 20
15.5587
 11
37.5078
 21
15.5728
  0
LINE
  8
0
 10
37.5078
 20
15.5728
 11
37.2101
 21
15.755
  0
LINE
  8
0
 10
37.2101
 20
15.755
 11
37.1094
 21
15.8167
  0
LINE
  8
0
 10
37.1094
 20
15.8167
 11
36.8892
 21
15.93
  0
LINE
  8
0
 10
36.8892
 20
15.93
 11
36.7057
 21
16.0246
  0
LINE
  8
0
 10
36.7057
 20
16.0246
 11
36.5654
 21
16.0834
  0
LINE
  8
0
 10
36.5654
 20
16.0834
 11
36.297
 21
16.1963
  0
LINE
  8
0
 10
36.297
 20
16.1963
 11
36.2392
 21
16.2151
  0
LINE
  8
0
 10
36.2392
 20
16.2151
 11
35.8968
 21
16.3271
  0
LINE
  8
0
 10
35.8968
 20
16.3271
 11
35.8916
 21
16.3287
  0
LINE
  8
0
 10
35.8916
 20
16.3287
 11
35.5054
 21
16.4128
  0
LINE
  8
0
 10
35.5054
 20
16.4128
 11
35.4794
 21
16.4178
  0
LINE
  8
0
 10
35.4794
 20
16.4178
 11
35.0633
 21
16.4738
  0
LINE
  8
0
 10
35.0633
 20
16.4738
 11
35.0381
 21
16.4772
  0
LINE
  8
0
 10
35.0381
 20
16.4772
 11
34.2611
 21
16.559
  0
LINE
  8
0
 10
34.2611
 20
16.559
 11
33.8795
 21
16.5941
  0
LINE
  8
0
 10
33.8795
 20
16.5941
 11
32.9989
 21
16.6697
  0
LINE
  8
0
 10
32.9989
 20
16.6697
 11
32.8241
 21
16.6853
  0
LINE
  8
0
 10
32.8241
 20
16.6853
 11
32.5937
 21
16.702
  0
LINE
  8
0
 10
32.5937
 20
16.702
 11
31.5403
 21
16.7714
  0
LINE
  8
0
 10
31.5403
 20
16.7714
 11
30.9171
 21
16.8075
  0
LINE
  8
0
 10
30.9171
 20
16.8075
 11
30.0535
 21
16.8505
  0
LINE
  8
0
 10
30.0535
 20
16.8505
 11
29.8809
 21
16.8587
  0
LINE
  8
0
 10
29.8809
 20
16.8587
 11
29.5048
 21
16.8741
  0
LINE
  8
0
 10
29.5048
 20
16.8741
 11
28.3456
 21
16.9192
  0
LINE
  8
0
 10
28.3456
 20
16.9192
 11
27.6625
 21
16.9417
  0
LINE
  8
0
 10
27.6625
 20
16.9417
 11
26.3185
 21
16.9778
  0
LINE
  8
0
 10
26.3185
 20
16.9778
 11
24.2927
 21
17.0211
  0
LINE
  8
0
 10
24.2927
 20
17.0211
 11
24.0928
 21
17.0258
  0
LINE
  8
0
 10
24.0928
 20
17.0258
 11
23.7257
 21
17.0316
  0
LINE
  8
0
 10
23.7257
 20
17.0316
 11
21.3313
 21
17.0633
  0
LINE
  8
0
 10
21.3313
 20
17.0633
 11
18.1893
 21
17.0903
  0
LINE
  8
0
 10
18.1893
 20
17.0903
 11
17.7848
 21
17.0919
  0
LINE
  8
0
 10
17.7848
 20
17.0919
 11
1.18297
 21
0.490005
  0
LINE
  8
0
 10
1.18297
 20
0.490005
 11
43.1652
 21
0.490005
  0
LINE
  8
0
 10
43.1652
 20
0.490005
 11
43.158
 21
0.808075
  0
LINE
  8
0
 10
43.158
 20
0.808075
 11
43.1421
 21
1.51347
  0
LINE
  8
0
 10
43.1421
 20
1.51347
 11
43.0822
 21
2.39586
  0
LINE
  8
0
 10
43.0822
 20
2.39586
 11
43.0407
 21
3.01375
  0
LINE
  8
0
 10
43.0407
 20
3.01375
 11
42.922
 21
4.05003
  0
LINE
  8
0
 10
42.922
 20
4.05003
 11
42.872
 21
4.49065
  0
LINE
  8
0
 10
42.872
 20
4.49065
 11
42.6645
 21
5.75752
  0
LINE
  8
0
 10
42.6645
 20
5.75752
 11
42.6357
 21
5.93469
  0
LINE
  8
0
 10
42.6357
 20
5.93469
 11
42.4653
 21
6.7206
  0
LINE
  8
0
 10
42.4653
 20
6.7206
 11
42.3271
 21
7.334
  0
LINE
  8
0
 10
42.3271
 20
7.334
 11
42.2924
 21
7.45502
  0
LINE
  8
0
 10
42.2924
 20
7.45502
 11
41.9405
 21
8.68861
  0
LINE
  8
0
 10
41.9405
 20
8.68861
 11
41.774
 21
9.15996
  0
LINE
  8
0
 10
41.774
 20
9.15996
 11
41.4836
 21
9.98589
  0
LINE
  8
0
 10
41.4836
 20
9.98589
 11
41.1218
 21
10.8284
  0
LINE
  8
0
 10
41.1218
 20
10.8284
 11
40.9573
 21
11.213
  0
LINE
  8
0
 10
40.9573
 20
11.213
 11
40.7047
 21
11.7221
  0
LINE
  8
0
 10
40.7047
 20
11.7221
 11
40.6466
 21
11.8352
  0
LINE
  8
0
 10
40.6466
 20
11.8352
 11
40.441
 21
12.2119
  0
LINE
  8
0
 10
40.441
 20
12.2119
 11
40.3725
 21
12.3341
  0
LINE
  8
0
 10
40.3725
 20
12.3341
 11
40.0525
 21
12.8534
  0
LINE
  8
0
 10
40.0525
 20
12.8534
 11
39.875
 21
13.115
  0
LINE
  8
0
 10
39.875
 20
13.115
 11
39.7205
 21
13.3321
  0
LINE
  8
0
 10
39.7205
 20
13.3321
 11
39.4964
 21
13.6286
  0
LINE
  8
0
 10
39.4964
 20
13.6286
 11
39.3722
 21
13.7925
  0
LINE
  8
0
 10
39.3722
 20
13.7925
 11
39.1861
 21
14.0148
  0
ENDSEC
  0
SECTION
  2
OBJECTS
  0
DICTIONARY
  0
ENDSEC
  0
EOF
