  0
SECTION
  2
BLOCKS
  0
ENDSEC
  0
SECTION
  2
ENTITIES
  0
LINE
  8
0
 10
-40.1179
 20
0.564774
 11
-40.1171
 21
0.579132
  0
LINE
  8
0
 10
-40.1171
 20
0.579132
 11
-40.0387
 21
2.41061
  0
LINE
  8
0
 10
-40.0387
 20
2.41061
 11
-40.0309
 21
2.47923
  0
LINE
  8
0
 10
-40.0309
 20
2.47923
 11
-39.8921
 21
3.22569
  0
LINE
  8
0
 10
-39.8921
 20
3.22569
 11
-39.8861
 21
3.26289
  0
LINE
  8
0
 10
-39.8861
 20
3.26289
 11
-39.6643
 21
4.8951
  0
LINE
  8
0
 10
-39.6643
 20
4.8951
 11
-39.6446
 21
4.9809
  0
LINE
  8
0
 10
-39.6446
 20
4.9809
 11
-39.1658
 21
6.45087
  0
LINE
  8
0
 10
-39.1658
 20
6.45087
 11
-39.1513
 21
6.50108
  0
LINE
  8
0
 10
-39.1513
 20
6.50108
 11
-38.9008
 21
7.49611
  0
LINE
  8
0
 10
-38.9008
 20
7.49611
 11
-38.8637
 21
7.59607
  0
LINE
  8
0
 10
-38.8637
 20
7.59607
 11
-37.9772
 21
9.36479
  0
LINE
  8
0
 10
-37.9772
 20
9.36479
 11
-37.9626
 21
9.39182
  0
LINE
  8
0
 10
-37.9626
 20
9.39182
 11
-37.4295
 21
10.3072
  0
LINE
  8
0
 10
-37.4295
 20
10.3072
 11
-37.3651
 21
10.3941
  0
LINE
  8
0
 10
-37.3651
 20
10.3941
 11
-35.2685
 21
12.6519
  0
LINE
  8
0
 10
-35.2685
 20
12.6519
 11
-35.2237
 21
12.6944
  0
LINE
  8
0
 10
-35.2237
 20
12.6944
 11
-34.0509
 21
13.675
  0
LINE
  8
0
 10
-34.0509
 20
13.675
 11
-34.0071
 21
13.7077
  0
LINE
  8
0
 10
-34.0071
 20
13.7077
 11
-33.919
 21
13.766
  0
LINE
  8
0
 10
-33.919
 20
13.766
 11
-33.9075
 21
13.7734
  0
LINE
  8
0
 10
-33.9075
 20
13.7734
 11
-33.1014
 21
14.2753
  0
LINE
  8
0
 10
-33.1014
 20
14.2753
 11
-33.0623
 21
14.2972
  0
LINE
  8
0
 10
-33.0623
 20
14.2972
 11
-32.5674
 21
14.5456
  0
LINE
  8
0
 10
-32.5674
 20
14.5456
 11
-32.5507
 21
14.5536
  0
LINE
  8
0
 10
-32.5507
 20
14.5536
 11
-31.2584
 21
15.1424
  0
LINE
  8
0
 10
-31.2584
 20
15.1424
 11
-31.1898
 21
15.1675
  0
LINE
  8
0
 10
-31.1898
 20
15.1675
 11
-31.1899
 21
15.1677
  0
LINE
  8
0
 10
-31.1899
 20
15.1677
 11
-29.8546
 21
15.5578
  0
LINE
  8
0
 10
-29.8546
 20
15.5578
 11
-29.8184
 21
15.5668
  0
LINE
  8
0
 10
-29.8184
 20
15.5668
 11
-28.8243
 21
15.7767
  0
LINE
  8
0
 10
-28.8243
 20
15.7767
 11
-28.8106
 21
15.7797
  0
LINE
  8
0
 10
-28.8106
 20
15.7797
 11
-28.4659
 21
15.8592
  0
LINE
  8
0
 10
-28.4659
 20
15.8592
 11
-28.4384
 21
15.8647
  0
LINE
  8
0
 10
-28.4384
 20
15.8647
 11
-27.9542
 21
15.9474
  0
LINE
  8
0
 10
-27.9542
 20
15.9474
 11
-27.9321
 21
15.9507
  0
LINE
  8
0
 10
-27.9321
 20
15.9507
 11
-27.0907
 21
16.0551
  0
LINE
  8
0
 10
-27.0907
 20
16.0551
 11
-27.0812
 21
16.0562
  0
LINE
  8
0
 10
-27.0812
 20
16.0562
 11
-26.4743
 21
16.1196
  0
LINE
  8
0
 10
-26.4743
 20
16.1196
 11
-26.4665
 21
16.1204
  0
LINE
  8
0
 10
-26.4665
 20
16.1204
 11
-25.9749
 21
16.1637
  0
LINE
  8
0
 10
-25.9749
 20
16.1637
 11
-25.9685
 21
16.1643
  0
LINE
  8
0
 10
-25.9685
 20
16.1643
 11
-25.262
 21
16.2172
  0
LINE
  8
0
 10
-25.262
 20
16.2172
 11
-25.2567
 21
16.2176
  0
LINE
  8
0
 10
-25.2567
 20
16.2176
 11
-24.2959
 21
16.2792
  0
LINE
  8
0
 10
-24.2959
 20
16.2792
 11
-24.285
 21
16.28
  0
LINE
  8
0
 10
-24.285
 20
16.28
 11
-23.9265
 21
16.3087
  0
LINE
  8
0
 10
-23.9265
 20
16.3087
 11
-23.9203
 21
16.3091
  0
LINE
  8
0
 10
-23.9203
 20
16.3091
 11
-23.5393
 21
16.3348
  0
LINE
  8
0
 10
-23.5393
 20
16.3348
 11
-23.5341
 21
16.3351
  0
LINE
  8
0
 10
-23.5341
 20
16.3351
 11
-22.6276
 21
16.3866
  0
LINE
  8
0
 10
-22.6276
 20
16.3866
 11
-22.0068
 21
16.4258
  0
LINE
  8
0
 10
-22.0068
 20
16.4258
 11
-21.9999
 21
16.4261
  0
LINE
  8
0
 10
-21.9999
 20
16.4261
 11
-21.9106
 21
16.4305
  0
LINE
  8
0
 10
-21.9106
 20
16.4305
 11
-21.4902
 21
16.4477
  0
LINE
  8
0
 10
-21.4902
 20
16.4477
 11
-21.4761
 21
16.4484
  0
LINE
  8
0
 10
-21.4761
 20
16.4484
 11
-20.1704
 21
16.5247
  0
LINE
  8
0
 10
-20.1704
 20
16.5247
 11
-19.5485
 21
16.5577
  0
LINE
  8
0
 10
-19.5485
 20
16.5577
 11
-18.6583
 21
16.5985
  0
LINE
  8
0
 10
-18.6583
 20
16.5985
 11
-18.271
 21
16.6186
  0
LINE
  8
0
 10
-18.271
 20
16.6186
 11
-17.8947
 21
16.6355
  0
LINE
  8
0
 10
-17.8947
 20
16.6355
 11
-17.3525
 21
16.6595
  0
LINE
  8
0
 10
-17.3525
 20
16.6595
 11
-17.3717
 21
16.6787
  0
LINE
  8
0
 10
-17.3717
 20
16.6787
 11
-17.8956
 21
16.6555
  0
LINE
  8
0
 10
-17.8956
 20
16.6555
 11
-18.2752
 21
16.6384
  0
LINE
  8
0
 10
-18.2752
 20
16.6384
 11
-18.665
 21
16.6182
  0
LINE
  8
0
 10
-18.665
 20
16.6182
 11
-19.5504
 21
16.5776
  0
LINE
  8
0
 10
-19.5504
 20
16.5776
 11
-20.1733
 21
16.5446
  0
LINE
  8
0
 10
-20.1733
 20
16.5446
 11
-21.48
 21
16.4682
  0
LINE
  8
0
 10
-21.48
 20
16.4682
 11
-21.4884
 21
16.4678
  0
LINE
  8
0
 10
-21.4884
 20
16.4678
 11
-21.9147
 21
16.4503
  0
LINE
  8
0
 10
-21.9147
 20
16.4503
 11
-22.0044
 21
16.4459
  0
LINE
  8
0
 10
-22.0044
 20
16.4459
 11
-22.6271
 21
16.4067
  0
LINE
  8
0
 10
-22.6271
 20
16.4067
 11
-23.5367
 21
16.355
  0
LINE
  8
0
 10
-23.5367
 20
16.355
 11
-23.9259
 21
16.3288
  0
LINE
  8
0
 10
-23.9259
 20
16.3288
 11
-24.2883
 21
16.2998
  0
LINE
  8
0
 10
-24.2883
 20
16.2998
 11
-24.2961
 21
16.2992
  0
LINE
  8
0
 10
-24.2961
 20
16.2992
 11
-25.2606
 21
16.2374
  0
LINE
  8
0
 10
-25.2606
 20
16.2374
 11
-25.9737
 21
16.1839
  0
LINE
  8
0
 10
-25.9737
 20
16.1839
 11
-26.4716
 21
16.14
  0
LINE
  8
0
 10
-26.4716
 20
16.14
 11
-27.0888
 21
16.0755
  0
LINE
  8
0
 10
-27.0888
 20
16.0755
 11
-27.9459
 21
15.9691
  0
LINE
  8
0
 10
-27.9459
 20
15.9691
 11
-28.4563
 21
15.8819
  0
LINE
  8
0
 10
-28.4563
 20
15.8819
 11
-28.8167
 21
15.7989
  0
LINE
  8
0
 10
-28.8167
 20
15.7989
 11
-28.8256
 21
15.7969
  0
LINE
  8
0
 10
-28.8256
 20
15.7969
 11
-29.8415
 21
15.5824
  0
LINE
  8
0
 10
-29.8415
 20
15.5824
 11
-31.1955
 21
15.1869
  0
LINE
  8
0
 10
-31.1955
 20
15.1869
 11
-31.2072
 21
15.1836
  0
LINE
  8
0
 10
-31.2072
 20
15.1836
 11
-31.2216
 21
15.1798
  0
LINE
  8
0
 10
-31.2216
 20
15.1798
 11
-31.2385
 21
15.1735
  0
LINE
  8
0
 10
-31.2385
 20
15.1735
 11
-32.5676
 21
14.5679
  0
LINE
  8
0
 10
-32.5676
 20
14.5679
 11
-33.0921
 21
14.3046
  0
LINE
  8
0
 10
-33.0921
 20
14.3046
 11
-33.9242
 21
13.7866
  0
LINE
  8
0
 10
-33.9242
 20
13.7866
 11
-34.0419
 21
13.7087
  0
LINE
  8
0
 10
-34.0419
 20
13.7087
 11
-35.2613
 21
12.6891
  0
LINE
  8
0
 10
-35.2613
 20
12.6891
 11
-37.4183
 21
10.3662
  0
LINE
  8
0
 10
-37.4183
 20
10.3662
 11
-37.9879
 21
9.388
  0
LINE
  8
0
 10
-37.9879
 20
9.388
 11
-38.9066
 21
7.55516
  0
LINE
  8
0
 10
-38.9066
 20
7.55516
 11
-39.1728
 21
6.4975
  0
LINE
  8
0
 10
-39.1728
 20
6.4975
 11
-39.1821
 21
6.46532
  0
LINE
  8
0
 10
-39.1821
 20
6.46532
 11
-39.6779
 21
4.94339
  0
LINE
  8
0
 10
-39.6779
 20
4.94339
 11
-39.9068
 21
3.25926
  0
LINE
  8
0
 10
-39.9068
 20
3.25926
 11
-39.9106
 21
3.23569
  0
LINE
  8
0
 10
-39.9106
 20
3.23569
 11
-40.0571
 21
2.44734
  0
LINE
  8
0
 10
-40.0571
 20
2.44734
 11
-40.1373
 21
0.576828
  0
LINE
  8
0
 10
-40.1373
 20
0.576828
 11
-40.1377
 21
0.567856
  0
LINE
  8
0
 10
-40.1377
 20
0.567856
 11
-40.1425
 21
0.490005
  0
LINE
  8
0
 10
-40.1425
 20
0.490005
 11
-40.1225
 21
0.490005
  0
LINE
  8
0
 10
-40.1225
 20
0.490005
 11
-40.1179
 21
0.564774
  0
ENDSEC
  0
SECTION
  2
OBJECTS
  0
DICTIONARY
  0
ENDSEC
  0
EOF
