  0
SECTION
  2
BLOCKS
  0
ENDSEC
  0
SECTION
  2
ENTITIES
  0
LINE
  8
0
 10
-28.4579
 20
-15.8782
 11
-28.3204
 21
-15.9052
  0
LINE
  8
0
 10
-28.3204
 20
-15.9052
 11
-27.9482
 21
-15.9652
  0
LINE
  8
0
 10
-27.9482
 20
-15.9652
 11
-27.0904
 21
-16.0716
  0
LINE
  8
0
 10
-27.0904
 20
-16.0716
 11
-25.9722
 21
-16.1803
  0
LINE
  8
0
 10
-25.9722
 20
-16.1803
 11
-24.2915
 21
-16.2959
  0
LINE
  8
0
 10
-24.2915
 20
-16.2959
 11
-23.5361
 21
-16.3515
  0
LINE
  8
0
 10
-23.5361
 20
-16.3515
 11
-21.4825
 21
-16.4609
  0
LINE
  8
0
 10
-21.4825
 20
-16.4609
 11
-21.4751
 21
-16.4614
  0
LINE
  8
0
 10
-21.4751
 20
-16.4614
 11
-20.9577
 21
-16.4969
  0
LINE
  8
0
 10
-20.9577
 20
-16.4969
 11
-20.1749
 21
-16.5409
  0
LINE
  8
0
 10
-20.1749
 20
-16.5409
 11
-18.6636
 21
-16.6146
  0
LINE
  8
0
 10
-18.6636
 20
-16.6146
 11
-17.8958
 21
-16.6518
  0
LINE
  8
0
 10
-17.8958
 20
-16.6518
 11
-17.3665
 21
-16.6735
  0
LINE
  8
0
 10
-17.3665
 20
-16.6735
 11
-17.3473
 21
-16.6543
  0
LINE
  8
0
 10
-17.3473
 20
-16.6543
 11
-17.896
 21
-16.6318
  0
LINE
  8
0
 10
-17.896
 20
-16.6318
 11
-18.6629
 21
-16.5946
  0
LINE
  8
0
 10
-18.6629
 20
-16.5946
 11
-20.1735
 21
-16.521
  0
LINE
  8
0
 10
-20.1735
 20
-16.521
 11
-20.9528
 21
-16.4771
  0
LINE
  8
0
 10
-20.9528
 20
-16.4771
 11
-20.9588
 21
-16.4768
  0
LINE
  8
0
 10
-20.9588
 20
-16.4768
 11
-21.4707
 21
-16.4417
  0
LINE
  8
0
 10
-21.4707
 20
-16.4417
 11
-21.4835
 21
-16.4409
  0
LINE
  8
0
 10
-21.4835
 20
-16.4409
 11
-23.5295
 21
-16.3318
  0
LINE
  8
0
 10
-23.5295
 20
-16.3318
 11
-23.5394
 21
-16.3311
  0
LINE
  8
0
 10
-23.5394
 20
-16.3311
 11
-24.288
 21
-16.2761
  0
LINE
  8
0
 10
-24.288
 20
-16.2761
 11
-25.9635
 21
-16.1609
  0
LINE
  8
0
 10
-25.9635
 20
-16.1609
 11
-25.9773
 21
-16.1597
  0
LINE
  8
0
 10
-25.9773
 20
-16.1597
 11
-27.0817
 21
-16.0524
  0
LINE
  8
0
 10
-27.0817
 20
-16.0524
 11
-27.0946
 21
-16.0509
  0
LINE
  8
0
 10
-27.0946
 20
-16.0509
 11
-27.9367
 21
-15.9465
  0
LINE
  8
0
 10
-27.9367
 20
-15.9465
 11
-27.9544
 21
-15.944
  0
LINE
  8
0
 10
-27.9544
 20
-15.944
 11
-28.3087
 21
-15.8869
  0
LINE
  8
0
 10
-28.3087
 20
-15.8869
 11
-28.3253
 21
-15.8839
  0
LINE
  8
0
 10
-28.3253
 20
-15.8839
 11
-28.4549
 21
-15.8584
  0
LINE
  8
0
 10
-28.4549
 20
-15.8584
 11
-29.3031
 21
-15.6903
  0
LINE
  8
0
 10
-29.3031
 20
-15.6903
 11
-29.3246
 21
-15.6855
  0
LINE
  8
0
 10
-29.3246
 20
-15.6855
 11
-29.8396
 21
-15.5591
  0
LINE
  8
0
 10
-29.8396
 20
-15.5591
 11
-30.2683
 21
-15.4524
  0
LINE
  8
0
 10
-30.2683
 20
-15.4524
 11
-30.2961
 21
-15.4447
  0
LINE
  8
0
 10
-30.2961
 20
-15.4447
 11
-31.1966
 21
-15.1637
  0
LINE
  8
0
 10
-31.1966
 20
-15.1637
 11
-31.243
 21
-15.1466
  0
LINE
  8
0
 10
-31.243
 20
-15.1466
 11
-32.1368
 21
-14.7651
  0
LINE
  8
0
 10
-32.1368
 20
-14.7651
 11
-32.1717
 21
-14.7486
  0
LINE
  8
0
 10
-32.1717
 20
-14.7486
 11
-32.5235
 21
-14.5644
  0
LINE
  8
0
 10
-32.5235
 20
-14.5644
 11
-32.542
 21
-14.5543
  0
LINE
  8
0
 10
-32.542
 20
-14.5543
 11
-33.7928
 21
-13.8295
  0
LINE
  8
0
 10
-33.7928
 20
-13.8295
 11
-33.8127
 21
-13.8183
  0
LINE
  8
0
 10
-33.8127
 20
-13.8183
 11
-33.9072
 21
-13.7676
  0
LINE
  8
0
 10
-33.9072
 20
-13.7676
 11
-33.946
 21
-13.7445
  0
LINE
  8
0
 10
-33.946
 20
-13.7445
 11
-34.0225
 21
-13.6938
  0
LINE
  8
0
 10
-34.0225
 20
-13.6938
 11
-34.0522
 21
-13.6725
  0
LINE
  8
0
 10
-34.0522
 20
-13.6725
 11
-34.945
 21
-12.9805
  0
LINE
  8
0
 10
-34.945
 20
-12.9805
 11
-34.9993
 21
-12.9315
  0
LINE
  8
0
 10
-34.9993
 20
-12.9315
 11
-35.2221
 21
-12.6981
  0
LINE
  8
0
 10
-35.2221
 20
-12.6981
 11
-35.275
 21
-12.6477
  0
LINE
  8
0
 10
-35.275
 20
-12.6477
 11
-36.4063
 21
-11.6705
  0
LINE
  8
0
 10
-36.4063
 20
-11.6705
 11
-36.4787
 21
-11.5928
  0
LINE
  8
0
 10
-36.4787
 20
-11.5928
 11
-37.4011
 21
-10.3571
  0
LINE
  8
0
 10
-37.4011
 20
-10.3571
 11
-37.4056
 21
-10.3511
  0
LINE
  8
0
 10
-37.4056
 20
-10.3511
 11
-37.6384
 21
-10.029
  0
LINE
  8
0
 10
-37.6384
 20
-10.029
 11
-37.6803
 21
-9.95961
  0
LINE
  8
0
 10
-37.6803
 20
-9.95961
 11
-37.9588
 21
-9.39781
  0
LINE
  8
0
 10
-37.9588
 20
-9.39781
 11
-37.9816
 21
-9.35547
  0
LINE
  8
0
 10
-37.9816
 20
-9.35547
 11
-38.4474
 21
-8.55061
  0
LINE
  8
0
 10
-38.4474
 20
-8.55061
 11
-38.4891
 21
-8.45737
  0
LINE
  8
0
 10
-38.4891
 20
-8.45737
 11
-39.3401
 21
-5.85364
  0
LINE
  8
0
 10
-39.3401
 20
-5.85364
 11
-39.3634
 21
-5.79153
  0
LINE
  8
0
 10
-39.3634
 20
-5.79153
 11
-39.4983
 21
-5.47595
  0
LINE
  8
0
 10
-39.4983
 20
-5.47595
 11
-39.5198
 21
-5.41464
  0
LINE
  8
0
 10
-39.5198
 20
-5.41464
 11
-39.6443
 21
-4.96632
  0
LINE
  8
0
 10
-39.6443
 20
-4.96632
 11
-39.6579
 21
-4.90027
  0
LINE
  8
0
 10
-39.6579
 20
-4.90027
 11
-39.8719
 21
-3.30438
  0
LINE
  8
0
 10
-39.8719
 20
-3.30438
 11
-39.8745
 21
-3.28047
  0
LINE
  8
0
 10
-39.8745
 20
-3.28047
 11
-40.11
 21
-0.490005
  0
LINE
  8
0
 10
-40.11
 20
-0.490005
 11
-40.13
 21
-0.490005
  0
LINE
  8
0
 10
-40.13
 20
-0.490005
 11
-39.8934
 21
-3.2946
  0
LINE
  8
0
 10
-39.8934
 20
-3.2946
 11
-39.673
 21
-4.93779
  0
LINE
  8
0
 10
-39.673
 20
-4.93779
 11
-39.53
 21
-5.45262
  0
LINE
  8
0
 10
-39.53
 20
-5.45262
 11
-39.3776
 21
-5.80939
  0
LINE
  8
0
 10
-39.3776
 20
-5.80939
 11
-39.3625
 21
-5.84961
  0
LINE
  8
0
 10
-39.3625
 20
-5.84961
 11
-38.4915
 21
-8.51436
  0
LINE
  8
0
 10
-38.4915
 20
-8.51436
 11
-37.995
 21
-9.37216
  0
LINE
  8
0
 10
-37.995
 20
-9.37216
 11
-37.9801
 21
-9.39993
  0
LINE
  8
0
 10
-37.9801
 20
-9.39993
 11
-37.6794
 21
-10.0064
  0
LINE
  8
0
 10
-37.6794
 20
-10.0064
 11
-37.4192
 21
-10.3663
  0
LINE
  8
0
 10
-37.4192
 20
-10.3663
 11
-36.4614
 21
-11.6492
  0
LINE
  8
0
 10
-36.4614
 20
-11.6492
 11
-35.279
 21
-12.6707
  0
LINE
  8
0
 10
-35.279
 20
-12.6707
 11
-35.2447
 21
-12.7032
  0
LINE
  8
0
 10
-35.2447
 20
-12.7032
 11
-34.9875
 21
-12.9729
  0
LINE
  8
0
 10
-34.9875
 20
-12.9729
 11
-34.0493
 21
-13.7
  0
LINE
  8
0
 10
-34.0493
 20
-13.7
 11
-33.9374
 21
-13.7741
  0
LINE
  8
0
 10
-33.9374
 20
-13.7741
 11
-33.8193
 21
-13.8375
  0
LINE
  8
0
 10
-33.8193
 20
-13.8375
 11
-33.8055
 21
-13.8452
  0
LINE
  8
0
 10
-33.8055
 20
-13.8452
 11
-32.5426
 21
-14.577
  0
LINE
  8
0
 10
-32.5426
 20
-14.577
 11
-32.1631
 21
-14.7756
  0
LINE
  8
0
 10
-32.1631
 20
-14.7756
 11
-31.2388
 21
-15.1701
  0
LINE
  8
0
 10
-31.2388
 20
-15.1701
 11
-31.2236
 21
-15.1761
  0
LINE
  8
0
 10
-31.2236
 20
-15.1761
 11
-30.2876
 21
-15.4683
  0
LINE
  8
0
 10
-30.2876
 20
-15.4683
 11
-29.8441
 21
-15.5785
  0
LINE
  8
0
 10
-29.8441
 20
-15.5785
 11
-29.3182
 21
-15.7077
  0
LINE
  8
0
 10
-29.3182
 20
-15.7077
 11
-28.4579
 21
-15.8782
  0
ENDSEC
  0
SECTION
  2
OBJECTS
  0
DICTIONARY
  0
ENDSEC
  0
EOF
