  0
SECTION
  2
BLOCKS
  0
ENDSEC
  0
SECTION
  2
ENTITIES
  0
LINE
  8
0
 10
17.3932
 20
-16.7003
 11
18.1551
 21
-16.6768
  0
LINE
  8
0
 10
18.1551
 20
-16.6768
 11
18.1841
 21
-16.6757
  0
LINE
  8
0
 10
18.1841
 20
-16.6757
 11
20.4422
 21
-16.5779
  0
LINE
  8
0
 10
20.4422
 20
-16.5779
 11
20.9808
 21
-16.5495
  0
LINE
  8
0
 10
20.9808
 20
-16.5495
 11
22.2282
 21
-16.4733
  0
LINE
  8
0
 10
22.2282
 20
-16.4733
 11
23.7145
 21
-16.3845
  0
LINE
  8
0
 10
23.7145
 20
-16.3845
 11
24.226
 21
-16.3489
  0
LINE
  8
0
 10
24.226
 20
-16.3489
 11
26.4873
 21
-16.1492
  0
LINE
  8
0
 10
26.4873
 20
-16.1492
 11
27.1556
 21
-16.0807
  0
LINE
  8
0
 10
27.1556
 20
-16.0807
 11
29.4699
 21
-15.7803
  0
LINE
  8
0
 10
29.4699
 20
-15.7803
 11
29.5093
 21
-15.7745
  0
LINE
  8
0
 10
29.5093
 20
-15.7745
 11
30.7119
 21
-15.5703
  0
LINE
  8
0
 10
30.7119
 20
-15.5703
 11
31.4111
 21
-15.4301
  0
LINE
  8
0
 10
31.4111
 20
-15.4301
 11
31.8285
 21
-15.3445
  0
LINE
  8
0
 10
31.8285
 20
-15.3445
 11
32.5226
 21
-15.1773
  0
LINE
  8
0
 10
32.5226
 20
-15.1773
 11
33.0085
 21
-15.0507
  0
LINE
  8
0
 10
33.0085
 20
-15.0507
 11
33.0792
 21
-15.0315
  0
LINE
  8
0
 10
33.0792
 20
-15.0315
 11
33.6827
 21
-14.8133
  0
LINE
  8
0
 10
33.6827
 20
-14.8133
 11
33.6942
 21
-14.8093
  0
LINE
  8
0
 10
33.6942
 20
-14.8093
 11
34.6044
 21
-14.5057
  0
LINE
  8
0
 10
34.6044
 20
-14.5057
 11
34.9114
 21
-14.3703
  0
LINE
  8
0
 10
34.9114
 20
-14.3703
 11
34.9847
 21
-14.3447
  0
LINE
  8
0
 10
34.9847
 20
-14.3447
 11
35.2471
 21
-14.2759
  0
LINE
  8
0
 10
35.2471
 20
-14.2759
 11
35.7309
 21
-14.1302
  0
LINE
  8
0
 10
35.7309
 20
-14.1302
 11
36.0348
 21
-13.9582
  0
LINE
  8
0
 10
36.0348
 20
-13.9582
 11
36.0415
 21
-13.9544
  0
LINE
  8
0
 10
36.0415
 20
-13.9544
 11
36.4296
 21
-13.7426
  0
LINE
  8
0
 10
36.4296
 20
-13.7426
 11
36.9485
 21
-13.3405
  0
LINE
  8
0
 10
36.9485
 20
-13.3405
 11
36.954
 21
-13.3363
  0
LINE
  8
0
 10
36.954
 20
-13.3363
 11
37.1044
 21
-13.2231
  0
LINE
  8
0
 10
37.1044
 20
-13.2231
 11
37.6096
 21
-12.7195
  0
LINE
  8
0
 10
37.6096
 20
-12.7195
 11
37.719
 21
-12.598
  0
LINE
  8
0
 10
37.719
 20
-12.598
 11
37.7472
 21
-12.5587
  0
LINE
  8
0
 10
37.7472
 20
-12.5587
 11
37.7505
 21
-12.5541
  0
LINE
  8
0
 10
37.7505
 20
-12.5541
 11
38.3028
 21
-11.8017
  0
LINE
  8
0
 10
38.3028
 20
-11.8017
 11
38.5193
 21
-11.4374
  0
LINE
  8
0
 10
38.5193
 20
-11.4374
 11
38.8362
 21
-10.916
  0
LINE
  8
0
 10
38.8362
 20
-10.916
 11
39.1973
 21
-10.1902
  0
LINE
  8
0
 10
39.1973
 20
-10.1902
 11
39.3161
 21
-9.95636
  0
LINE
  8
0
 10
39.3161
 20
-9.95636
 11
39.6652
 21
-9.11847
  0
LINE
  8
0
 10
39.6652
 20
-9.11847
 11
39.7317
 21
-8.94614
  0
LINE
  8
0
 10
39.7317
 20
-8.94614
 11
39.7448
 21
-8.9044
  0
LINE
  8
0
 10
39.7448
 20
-8.9044
 11
40.0553
 21
-7.81725
  0
LINE
  8
0
 10
40.0553
 20
-7.81725
 11
40.2683
 21
-7.03499
  0
LINE
  8
0
 10
40.2683
 20
-7.03499
 11
40.3602
 21
-6.71143
  0
LINE
  8
0
 10
40.3602
 20
-6.71143
 11
40.5599
 21
-5.81163
  0
LINE
  8
0
 10
40.5599
 20
-5.81163
 11
40.6076
 21
-5.60553
  0
LINE
  8
0
 10
40.6076
 20
-5.60553
 11
40.7837
 21
-4.60214
  0
LINE
  8
0
 10
40.7837
 20
-4.60214
 11
40.8034
 21
-4.49448
  0
LINE
  8
0
 10
40.8034
 20
-4.49448
 11
40.9479
 21
-3.40584
  0
LINE
  8
0
 10
40.9479
 20
-3.40584
 11
40.9517
 21
-3.37831
  0
LINE
  8
0
 10
40.9517
 20
-3.37831
 11
41.0184
 21
-2.65779
  0
LINE
  8
0
 10
41.0184
 20
-2.65779
 11
41.0502
 21
-2.25937
  0
LINE
  8
0
 10
41.0502
 20
-2.25937
 11
41.1017
 21
-1.16833
  0
LINE
  8
0
 10
41.1017
 20
-1.16833
 11
41.1041
 21
-1.086
  0
LINE
  8
0
 10
41.1041
 20
-1.086
 11
41.1134
 21
-0.490005
  0
LINE
  8
0
 10
41.1134
 20
-0.490005
 11
41.0934
 21
-0.490005
  0
LINE
  8
0
 10
41.0934
 20
-0.490005
 11
41.0842
 21
-1.08168
  0
LINE
  8
0
 10
41.0842
 20
-1.08168
 11
41.084
 21
-1.08856
  0
LINE
  8
0
 10
41.084
 20
-1.08856
 11
41.0818
 21
-1.16374
  0
LINE
  8
0
 10
41.0818
 20
-1.16374
 11
41.0815
 21
-1.17232
  0
LINE
  8
0
 10
41.0815
 20
-1.17232
 11
41.0306
 21
-2.24988
  0
LINE
  8
0
 10
41.0306
 20
-2.24988
 11
41.0296
 21
-2.2657
  0
LINE
  8
0
 10
41.0296
 20
-2.2657
 11
40.9987
 21
-2.65315
  0
LINE
  8
0
 10
40.9987
 20
-2.65315
 11
40.9982
 21
-2.65945
  0
LINE
  8
0
 10
40.9982
 20
-2.65945
 11
40.9328
 21
-3.36545
  0
LINE
  8
0
 10
40.9328
 20
-3.36545
 11
40.9303
 21
-3.38693
  0
LINE
  8
0
 10
40.9303
 20
-3.38693
 11
40.9274
 21
-3.40804
  0
LINE
  8
0
 10
40.9274
 20
-3.40804
 11
40.7851
 21
-4.47978
  0
LINE
  8
0
 10
40.7851
 20
-4.47978
 11
40.7814
 21
-4.50331
  0
LINE
  8
0
 10
40.7814
 20
-4.50331
 11
40.7643
 21
-4.59677
  0
LINE
  8
0
 10
40.7643
 20
-4.59677
 11
40.5902
 21
-5.58879
  0
LINE
  8
0
 10
40.5902
 20
-5.58879
 11
40.585
 21
-5.61447
  0
LINE
  8
0
 10
40.585
 20
-5.61447
 11
40.5404
 21
-5.80721
  0
LINE
  8
0
 10
40.5404
 20
-5.80721
 11
40.5388
 21
-5.81433
  0
LINE
  8
0
 10
40.5388
 20
-5.81433
 11
40.3439
 21
-6.6925
  0
LINE
  8
0
 10
40.3439
 20
-6.6925
 11
40.3369
 21
-6.72028
  0
LINE
  8
0
 10
40.3369
 20
-6.72028
 11
40.2505
 21
-7.02434
  0
LINE
  8
0
 10
40.2505
 20
-7.02434
 11
40.2489
 21
-7.03003
  0
LINE
  8
0
 10
40.2489
 20
-7.03003
 11
40.0368
 21
-7.80911
  0
LINE
  8
0
 10
40.0368
 20
-7.80911
 11
40.0352
 21
-7.81499
  0
LINE
  8
0
 10
40.0352
 20
-7.81499
 11
39.7276
 21
-8.89192
  0
LINE
  8
0
 10
39.7276
 20
-8.89192
 11
39.7237
 21
-8.90492
  0
LINE
  8
0
 10
39.7237
 20
-8.90492
 11
39.7172
 21
-8.92531
  0
LINE
  8
0
 10
39.7172
 20
-8.92531
 11
39.7072
 21
-8.95389
  0
LINE
  8
0
 10
39.7072
 20
-8.95389
 11
39.6489
 21
-9.10526
  0
LINE
  8
0
 10
39.6489
 20
-9.10526
 11
39.644
 21
-9.11755
  0
LINE
  8
0
 10
39.644
 20
-9.11755
 11
39.3051
 21
-9.93077
  0
LINE
  8
0
 10
39.3051
 20
-9.93077
 11
39.2897
 21
-9.96425
  0
LINE
  8
0
 10
39.2897
 20
-9.96425
 11
39.1795
 21
-10.1811
  0
LINE
  8
0
 10
39.1795
 20
-10.1811
 11
39.1764
 21
-10.1872
  0
LINE
  8
0
 10
39.1764
 20
-10.1872
 11
38.8278
 21
-10.8879
  0
LINE
  8
0
 10
38.8278
 20
-10.8879
 11
38.8079
 21
-10.9241
  0
LINE
  8
0
 10
38.8079
 20
-10.9241
 11
38.5057
 21
-11.4214
  0
LINE
  8
0
 10
38.5057
 20
-11.4214
 11
38.5011
 21
-11.429
  0
LINE
  8
0
 10
38.5011
 20
-11.429
 11
38.2983
 21
-11.7701
  0
LINE
  8
0
 10
38.2983
 20
-11.7701
 11
38.2721
 21
-11.8097
  0
LINE
  8
0
 10
38.2721
 20
-11.8097
 11
37.7357
 21
-12.5404
  0
LINE
  8
0
 10
37.7357
 20
-12.5404
 11
37.7289
 21
-12.5497
  0
LINE
  8
0
 10
37.7289
 20
-12.5497
 11
37.7194
 21
-12.563
  0
LINE
  8
0
 10
37.7194
 20
-12.563
 11
37.6847
 21
-12.6062
  0
LINE
  8
0
 10
37.6847
 20
-12.6062
 11
37.6039
 21
-12.6959
  0
LINE
  8
0
 10
37.6039
 20
-12.6959
 11
37.5859
 21
-12.7148
  0
LINE
  8
0
 10
37.5859
 20
-12.7148
 11
37.1154
 21
-13.1839
  0
LINE
  8
0
 10
37.1154
 20
-13.1839
 11
37.0641
 21
-13.2285
  0
LINE
  8
0
 10
37.0641
 20
-13.2285
 11
36.9433
 21
-13.3194
  0
LINE
  8
0
 10
36.9433
 20
-13.3194
 11
36.9336
 21
-13.3268
  0
LINE
  8
0
 10
36.9336
 20
-13.3268
 11
36.4495
 21
-13.7018
  0
LINE
  8
0
 10
36.4495
 20
-13.7018
 11
36.3842
 21
-13.7446
  0
LINE
  8
0
 10
36.3842
 20
-13.7446
 11
36.0336
 21
-13.936
  0
LINE
  8
0
 10
36.0336
 20
-13.936
 11
36.0237
 21
-13.9414
  0
LINE
  8
0
 10
36.0237
 20
-13.9414
 11
35.7709
 21
-14.0847
  0
LINE
  8
0
 10
35.7709
 20
-14.0847
 11
35.6705
 21
-14.1276
  0
LINE
  8
0
 10
35.6705
 20
-14.1276
 11
35.2498
 21
-14.2541
  0
LINE
  8
0
 10
35.2498
 20
-14.2541
 11
35.2331
 21
-14.2588
  0
LINE
  8
0
 10
35.2331
 20
-14.2588
 11
34.9984
 21
-14.3204
  0
LINE
  8
0
 10
34.9984
 20
-14.3204
 11
34.8855
 21
-14.3598
  0
LINE
  8
0
 10
34.8855
 20
-14.3598
 11
34.6181
 21
-14.4778
  0
LINE
  8
0
 10
34.6181
 20
-14.4778
 11
34.5754
 21
-14.4943
  0
LINE
  8
0
 10
34.5754
 20
-14.4943
 11
33.6911
 21
-14.7892
  0
LINE
  8
0
 10
33.6911
 20
-14.7892
 11
33.6729
 21
-14.7955
  0
LINE
  8
0
 10
33.6729
 20
-14.7955
 11
33.0918
 21
-15.0057
  0
LINE
  8
0
 10
33.0918
 20
-15.0057
 11
33.0541
 21
-15.0176
  0
LINE
  8
0
 10
33.0541
 20
-15.0176
 11
33.0056
 21
-15.0308
  0
LINE
  8
0
 10
33.0056
 20
-15.0308
 11
33.0001
 21
-15.0323
  0
LINE
  8
0
 10
33.0001
 20
-15.0323
 11
32.5213
 21
-15.1569
  0
LINE
  8
0
 10
32.5213
 20
-15.1569
 11
32.5127
 21
-15.1591
  0
LINE
  8
0
 10
32.5127
 20
-15.1591
 11
31.8326
 21
-15.323
  0
LINE
  8
0
 10
31.8326
 20
-15.323
 11
31.8163
 21
-15.3266
  0
LINE
  8
0
 10
31.8163
 20
-15.3266
 11
31.4072
 21
-15.4105
  0
LINE
  8
0
 10
31.4072
 20
-15.4105
 11
30.7155
 21
-15.5492
  0
LINE
  8
0
 10
30.7155
 20
-15.5492
 11
30.7012
 21
-15.5518
  0
LINE
  8
0
 10
30.7012
 20
-15.5518
 11
29.5112
 21
-15.7538
  0
LINE
  8
0
 10
29.5112
 20
-15.7538
 11
29.5009
 21
-15.7555
  0
LINE
  8
0
 10
29.5009
 20
-15.7555
 11
29.4722
 21
-15.7597
  0
LINE
  8
0
 10
29.4722
 20
-15.7597
 11
29.4635
 21
-15.7609
  0
LINE
  8
0
 10
29.4635
 20
-15.7609
 11
27.1598
 21
-16.06
  0
LINE
  8
0
 10
27.1598
 20
-16.06
 11
27.1466
 21
-16.0615
  0
LINE
  8
0
 10
27.1466
 20
-16.0615
 11
26.4885
 21
-16.1289
  0
LINE
  8
0
 10
26.4885
 20
-16.1289
 11
26.4817
 21
-16.1296
  0
LINE
  8
0
 10
26.4817
 20
-16.1296
 11
24.2287
 21
-16.3286
  0
LINE
  8
0
 10
24.2287
 20
-16.3286
 11
24.2195
 21
-16.3293
  0
LINE
  8
0
 10
24.2195
 20
-16.3293
 11
23.7118
 21
-16.3645
  0
LINE
  8
0
 10
23.7118
 20
-16.3645
 11
22.2276
 21
-16.4534
  0
LINE
  8
0
 10
22.2276
 20
-16.4534
 11
20.9787
 21
-16.5296
  0
LINE
  8
0
 10
20.9787
 20
-16.5296
 11
20.4386
 21
-16.5581
  0
LINE
  8
0
 10
20.4386
 20
-16.5581
 11
18.1832
 21
-16.6558
  0
LINE
  8
0
 10
18.1832
 20
-16.6558
 11
18.1495
 21
-16.657
  0
LINE
  8
0
 10
18.1495
 20
-16.657
 11
17.3738
 21
-16.6808
  0
LINE
  8
0
 10
17.3738
 20
-16.6808
 11
17.3932
 21
-16.7003
  0
ENDSEC
  0
SECTION
  2
OBJECTS
  0
DICTIONARY
  0
ENDSEC
  0
EOF
