  0
SECTION
  2
BLOCKS
  0
ENDSEC
  0
SECTION
  2
ENTITIES
  0
LINE
  8
0
 10
27.0231
 20
14.3195
 11
27.632
 21
14.1568
  0
LINE
  8
0
 10
27.632
 20
14.1568
 11
27.6488
 21
14.1519
  0
LINE
  8
0
 10
27.6488
 20
14.1519
 11
28.265
 21
13.9634
  0
LINE
  8
0
 10
28.265
 20
13.9634
 11
28.2813
 21
13.9581
  0
LINE
  8
0
 10
28.2813
 20
13.9581
 11
29.365
 21
13.5844
  0
LINE
  8
0
 10
29.365
 20
13.5844
 11
29.3842
 21
13.5773
  0
LINE
  8
0
 10
29.3842
 20
13.5773
 11
30.2972
 21
13.2191
  0
LINE
  8
0
 10
30.2972
 20
13.2191
 11
30.3618
 21
13.1882
  0
LINE
  8
0
 10
30.3618
 20
13.1882
 11
30.7783
 21
12.9496
  0
LINE
  8
0
 10
30.7783
 20
12.9496
 11
30.8067
 21
12.9341
  0
LINE
  8
0
 10
30.8067
 20
12.9341
 11
32.2633
 21
12.1798
  0
LINE
  8
0
 10
32.2633
 20
12.1798
 11
32.2914
 21
12.1641
  0
LINE
  8
0
 10
32.2914
 20
12.1641
 11
32.4773
 21
12.0518
  0
LINE
  8
0
 10
32.4773
 20
12.0518
 11
32.5501
 21
11.9981
  0
LINE
  8
0
 10
32.5501
 20
11.9981
 11
33.1131
 21
11.496
  0
LINE
  8
0
 10
33.1131
 20
11.496
 11
33.1905
 21
11.4355
  0
LINE
  8
0
 10
33.1905
 20
11.4355
 11
33.6053
 21
11.1528
  0
LINE
  8
0
 10
33.6053
 20
11.1528
 11
33.6729
 21
11.0973
  0
LINE
  8
0
 10
33.6729
 20
11.0973
 11
33.9873
 21
10.7882
  0
LINE
  8
0
 10
33.9873
 20
10.7882
 11
34.7386
 21
10.0498
  0
LINE
  8
0
 10
34.7386
 20
10.0498
 11
34.9191
 21
9.91869
  0
LINE
  8
0
 10
34.9191
 20
9.91869
 11
34.9645
 21
9.89507
  0
LINE
  8
0
 10
34.9645
 20
9.89507
 11
35.0638
 21
9.82668
  0
LINE
  8
0
 10
35.0638
 20
9.82668
 11
35.3143
 21
9.60414
  0
LINE
  8
0
 10
35.3143
 20
9.60414
 11
35.3391
 21
9.58047
  0
LINE
  8
0
 10
35.3391
 20
9.58047
 11
35.438
 21
9.47935
  0
LINE
  8
0
 10
35.438
 20
9.47935
 11
35.467
 21
9.44699
  0
LINE
  8
0
 10
35.467
 20
9.44699
 11
35.7785
 21
9.06622
  0
LINE
  8
0
 10
35.7785
 20
9.06622
 11
35.7839
 21
9.05956
  0
LINE
  8
0
 10
35.7839
 20
9.05956
 11
35.8132
 21
9.02238
  0
LINE
  8
0
 10
35.8132
 20
9.02238
 11
35.8342
 21
8.9938
  0
LINE
  8
0
 10
35.8342
 20
8.9938
 11
36.0319
 21
8.70224
  0
LINE
  8
0
 10
36.0319
 20
8.70224
 11
36.0569
 21
8.66113
  0
LINE
  8
0
 10
36.0569
 20
8.66113
 11
36.13
 21
8.52669
  0
LINE
  8
0
 10
36.13
 20
8.52669
 11
36.147
 21
8.49226
  0
LINE
  8
0
 10
36.147
 20
8.49226
 11
36.1489
 21
8.48788
  0
LINE
  8
0
 10
36.1489
 20
8.48788
 11
36.1536
 21
8.47749
  0
LINE
  8
0
 10
36.1536
 20
8.47749
 11
36.434
 21
7.87355
  0
LINE
  8
0
 10
36.434
 20
7.87355
 11
36.4463
 21
7.84457
  0
LINE
  8
0
 10
36.4463
 20
7.84457
 11
36.4994
 21
7.70775
  0
LINE
  8
0
 10
36.4994
 20
7.70775
 11
36.5031
 21
7.69833
  0
LINE
  8
0
 10
36.5031
 20
7.69833
 11
36.6935
 21
7.22241
  0
LINE
  8
0
 10
36.6935
 20
7.22241
 11
36.7054
 21
7.18918
  0
LINE
  8
0
 10
36.7054
 20
7.18918
 11
36.9269
 21
6.49374
  0
LINE
  8
0
 10
36.9269
 20
6.49374
 11
36.9317
 21
6.47902
  0
LINE
  8
0
 10
36.9317
 20
6.47902
 11
37.0448
 21
6.14565
  0
LINE
  8
0
 10
37.0448
 20
6.14565
 11
37.0503
 21
6.12822
  0
LINE
  8
0
 10
37.0503
 20
6.12822
 11
37.1134
 21
5.91658
  0
LINE
  8
0
 10
37.1134
 20
5.91658
 11
37.1201
 21
5.89151
  0
LINE
  8
0
 10
37.1201
 20
5.89151
 11
37.4133
 21
4.67574
  0
LINE
  8
0
 10
37.4133
 20
4.67574
 11
37.4196
 21
4.64532
  0
LINE
  8
0
 10
37.4196
 20
4.64532
 11
37.4249
 21
4.61488
  0
LINE
  8
0
 10
37.4249
 20
4.61488
 11
37.4272
 21
4.60072
  0
LINE
  8
0
 10
37.4272
 20
4.60072
 11
37.5864
 21
3.50253
  0
LINE
  8
0
 10
37.5864
 20
3.50253
 11
37.588
 21
3.48967
  0
LINE
  8
0
 10
37.588
 20
3.48967
 11
37.6097
 21
3.30632
  0
LINE
  8
0
 10
37.6097
 20
3.30632
 11
37.6108
 21
3.29636
  0
LINE
  8
0
 10
37.6108
 20
3.29636
 11
37.6949
 21
2.43123
  0
LINE
  8
0
 10
37.6949
 20
2.43123
 11
37.6956
 21
2.42331
  0
LINE
  8
0
 10
37.6956
 20
2.42331
 11
37.722
 21
2.09764
  0
LINE
  8
0
 10
37.722
 20
2.09764
 11
37.7229
 21
2.08492
  0
LINE
  8
0
 10
37.7229
 20
2.08492
 11
37.7583
 21
1.4377
  0
LINE
  8
0
 10
37.7583
 20
1.4377
 11
37.778
 21
1.02045
  0
LINE
  8
0
 10
37.778
 20
1.02045
 11
37.7784
 21
1.00609
  0
LINE
  8
0
 10
37.7784
 20
1.00609
 11
37.7876
 21
0.490005
  0
LINE
  8
0
 10
37.7876
 20
0.490005
 11
37.8076
 21
0.490005
  0
LINE
  8
0
 10
37.8076
 20
0.490005
 11
37.7983
 21
1.01418
  0
LINE
  8
0
 10
37.7983
 20
1.01418
 11
37.7785
 21
1.43466
  0
LINE
  8
0
 10
37.7785
 20
1.43466
 11
37.7424
 21
2.09262
  0
LINE
  8
0
 10
37.7424
 20
2.09262
 11
37.7152
 21
2.42909
  0
LINE
  8
0
 10
37.7152
 20
2.42909
 11
37.6301
 21
3.30365
  0
LINE
  8
0
 10
37.6301
 20
3.30365
 11
37.6071
 21
3.49889
  0
LINE
  8
0
 10
37.6071
 20
3.49889
 11
37.446
 21
4.61055
  0
LINE
  8
0
 10
37.446
 20
4.61055
 11
37.4363
 21
4.66597
  0
LINE
  8
0
 10
37.4363
 20
4.66597
 11
37.4338
 21
4.67581
  0
LINE
  8
0
 10
37.4338
 20
4.67581
 11
37.1365
 21
5.90927
  0
LINE
  8
0
 10
37.1365
 20
5.90927
 11
37.0668
 21
6.14265
  0
LINE
  8
0
 10
37.0668
 20
6.14265
 11
36.9497
 21
6.48824
  0
LINE
  8
0
 10
36.9497
 20
6.48824
 11
36.9469
 21
6.49677
  0
LINE
  8
0
 10
36.9469
 20
6.49677
 11
36.7189
 21
7.2126
  0
LINE
  8
0
 10
36.7189
 20
7.2126
 11
36.5207
 21
7.70818
  0
LINE
  8
0
 10
36.5207
 20
7.70818
 11
36.459
 21
7.86697
  0
LINE
  8
0
 10
36.459
 20
7.86697
 11
36.1708
 21
8.48793
  0
LINE
  8
0
 10
36.1708
 20
8.48793
 11
36.1679
 21
8.49428
  0
LINE
  8
0
 10
36.1679
 20
8.49428
 11
36.1569
 21
8.51891
  0
LINE
  8
0
 10
36.1569
 20
8.51891
 11
36.0625
 21
8.69272
  0
LINE
  8
0
 10
36.0625
 20
8.69272
 11
35.8402
 21
9.02051
  0
LINE
  8
0
 10
35.8402
 20
9.02051
 11
35.7968
 21
9.07555
  0
LINE
  8
0
 10
35.7968
 20
9.07555
 11
35.4683
 21
9.47705
  0
LINE
  8
0
 10
35.4683
 20
9.47705
 11
35.341
 21
9.60715
  0
LINE
  8
0
 10
35.341
 20
9.60715
 11
35.0299
 21
9.88362
  0
LINE
  8
0
 10
35.0299
 20
9.88362
 11
34.896
 21
9.9532
  0
LINE
  8
0
 10
34.896
 20
9.9532
 11
34.7785
 21
10.0385
  0
LINE
  8
0
 10
34.7785
 20
10.0385
 11
33.6543
 21
11.1436
  0
LINE
  8
0
 10
33.6543
 20
11.1436
 11
33.1885
 21
11.4611
  0
LINE
  8
0
 10
33.1885
 20
11.4611
 11
33.1384
 21
11.5003
  0
LINE
  8
0
 10
33.1384
 20
11.5003
 11
32.5282
 21
12.0444
  0
LINE
  8
0
 10
32.5282
 20
12.0444
 11
32.2873
 21
12.1899
  0
LINE
  8
0
 10
32.2873
 20
12.1899
 11
30.8111
 21
12.9544
  0
LINE
  8
0
 10
30.8111
 20
12.9544
 11
30.7929
 21
12.9643
  0
LINE
  8
0
 10
30.7929
 20
12.9643
 11
30.3392
 21
13.2241
  0
LINE
  8
0
 10
30.3392
 20
13.2241
 11
29.3813
 21
13.5999
  0
LINE
  8
0
 10
29.3813
 20
13.5999
 11
28.2793
 21
13.9799
  0
LINE
  8
0
 10
28.2793
 20
13.9799
 11
27.6461
 21
14.1737
  0
LINE
  8
0
 10
27.6461
 20
14.1737
 11
27.0179
 21
14.3416
  0
LINE
  8
0
 10
27.0179
 20
14.3416
 11
26.439
 21
14.4704
  0
LINE
  8
0
 10
26.439
 20
14.4704
 11
25.376
 21
14.7094
  0
LINE
  8
0
 10
25.376
 20
14.7094
 11
23.6724
 21
15.0357
  0
LINE
  8
0
 10
23.6724
 20
15.0357
 11
23.6256
 21
15.0436
  0
LINE
  8
0
 10
23.6256
 20
15.0436
 11
23.5594
 21
15.0521
  0
LINE
  8
0
 10
23.5594
 20
15.0521
 11
20.7676
 21
15.4278
  0
LINE
  8
0
 10
20.7676
 20
15.4278
 11
18.1719
 21
15.707
  0
LINE
  8
0
 10
18.1719
 20
15.707
 11
17.3656
 21
15.7734
  0
LINE
  8
0
 10
17.3656
 20
15.7734
 11
16.5228
 21
15.8298
  0
LINE
  8
0
 10
16.5228
 20
15.8298
 11
16.504
 21
15.811
  0
LINE
  8
0
 10
16.504
 20
15.811
 11
17.3604
 21
15.7537
  0
LINE
  8
0
 10
17.3604
 20
15.7537
 11
17.3678
 21
15.7531
  0
LINE
  8
0
 10
17.3678
 20
15.7531
 11
18.1639
 21
15.6877
  0
LINE
  8
0
 10
18.1639
 20
15.6877
 11
18.1761
 21
15.6865
  0
LINE
  8
0
 10
18.1761
 20
15.6865
 11
20.7588
 21
15.4087
  0
LINE
  8
0
 10
20.7588
 20
15.4087
 11
20.7718
 21
15.4071
  0
LINE
  8
0
 10
20.7718
 20
15.4071
 11
23.5567
 21
15.0323
  0
LINE
  8
0
 10
23.5567
 20
15.0323
 11
23.6128
 21
15.0251
  0
LINE
  8
0
 10
23.6128
 20
15.0251
 11
23.6316
 21
15.0223
  0
LINE
  8
0
 10
23.6316
 20
15.0223
 11
23.6628
 21
15.017
  0
LINE
  8
0
 10
23.6628
 20
15.017
 11
23.6735
 21
15.0151
  0
LINE
  8
0
 10
23.6735
 20
15.0151
 11
25.3645
 21
14.6912
  0
LINE
  8
0
 10
25.3645
 20
14.6912
 11
25.3798
 21
14.688
  0
LINE
  8
0
 10
25.3798
 20
14.688
 11
26.4337
 21
14.4511
  0
LINE
  8
0
 10
26.4337
 20
14.4511
 11
27.0031
 21
14.3244
  0
LINE
  8
0
 10
27.0031
 20
14.3244
 11
27.0231
 21
14.3195
  0
ENDSEC
  0
SECTION
  2
OBJECTS
  0
DICTIONARY
  0
ENDSEC
  0
EOF
