  0
SECTION
  2
BLOCKS
  0
ENDSEC
  0
SECTION
  2
ENTITIES
  0
LINE
  8
0
 10
-34.0876
 20
1.15237
 11
-34.0869
 21
1.1609
  0
LINE
  8
0
 10
-34.0869
 20
1.1609
 11
-33.9371
 21
3.11188
  0
LINE
  8
0
 10
-33.9371
 20
3.11188
 11
-33.9236
 21
3.19469
  0
LINE
  8
0
 10
-33.9236
 20
3.19469
 11
-33.3337
 21
5.52379
  0
LINE
  8
0
 10
-33.3337
 20
5.52379
 11
-33.3295
 21
5.53926
  0
LINE
  8
0
 10
-33.3295
 20
5.53926
 11
-33.1124
 21
6.29211
  0
LINE
  8
0
 10
-33.1124
 20
6.29211
 11
-33.0819
 21
6.37125
  0
LINE
  8
0
 10
-33.0819
 20
6.37125
 11
-32.3173
 21
7.93796
  0
LINE
  8
0
 10
-32.3173
 20
7.93796
 11
-32.3076
 21
7.95667
  0
LINE
  8
0
 10
-32.3076
 20
7.95667
 11
-31.4975
 21
9.45024
  0
LINE
  8
0
 10
-31.4975
 20
9.45024
 11
-31.4394
 21
9.53482
  0
LINE
  8
0
 10
-31.4394
 20
9.53482
 11
-30.9982
 21
10.0515
  0
LINE
  8
0
 10
-30.9982
 20
10.0515
 11
-30.9681
 21
10.0837
  0
LINE
  8
0
 10
-30.9681
 20
10.0837
 11
-30.4639
 21
10.5766
  0
LINE
  8
0
 10
-30.4639
 20
10.5766
 11
-30.4451
 21
10.5957
  0
LINE
  8
0
 10
-30.4451
 20
10.5957
 11
-29.61
 21
11.4696
  0
LINE
  8
0
 10
-29.61
 20
11.4696
 11
-29.5786
 21
11.4997
  0
LINE
  8
0
 10
-29.5786
 20
11.4997
 11
-28.7361
 21
12.2376
  0
LINE
  8
0
 10
-28.7361
 20
12.2376
 11
-28.6501
 21
12.298
  0
LINE
  8
0
 10
-28.6501
 20
12.298
 11
-28.3382
 21
12.4702
  0
LINE
  8
0
 10
-28.3382
 20
12.4702
 11
-28.2929
 21
12.4923
  0
LINE
  8
0
 10
-28.2929
 20
12.4923
 11
-28.1249
 21
12.5636
  0
LINE
  8
0
 10
-28.1249
 20
12.5636
 11
-28.091
 21
12.579
  0
LINE
  8
0
 10
-28.091
 20
12.579
 11
-26.9506
 21
13.1315
  0
LINE
  8
0
 10
-26.9506
 20
13.1315
 11
-26.909
 21
13.1493
  0
LINE
  8
0
 10
-26.909
 20
13.1493
 11
-24.1829
 21
14.1713
  0
LINE
  8
0
 10
-24.1829
 20
14.1713
 11
-24.1138
 21
14.1915
  0
LINE
  8
0
 10
-24.1138
 20
14.1915
 11
-21.3948
 21
14.7758
  0
LINE
  8
0
 10
-21.3948
 20
14.7758
 11
-21.3891
 21
14.777
  0
LINE
  8
0
 10
-21.3891
 20
14.777
 11
-20.4643
 21
14.9644
  0
LINE
  8
0
 10
-20.4643
 20
14.9644
 11
-20.4432
 21
14.9682
  0
LINE
  8
0
 10
-20.4432
 20
14.9682
 11
-18.595
 21
15.2591
  0
LINE
  8
0
 10
-18.595
 20
15.2591
 11
-18.257
 21
15.3122
  0
LINE
  8
0
 10
-18.257
 20
15.3122
 11
-18.2471
 21
15.3136
  0
LINE
  8
0
 10
-18.2471
 20
15.3136
 11
-17.8626
 21
15.366
  0
LINE
  8
0
 10
-17.8626
 20
15.366
 11
-16.7999
 21
15.5046
  0
LINE
  8
0
 10
-16.7999
 20
15.5046
 11
-16.791
 21
15.5057
  0
LINE
  8
0
 10
-16.791
 20
15.5057
 11
-16.2583
 21
15.5653
  0
LINE
  8
0
 10
-16.2583
 20
15.5653
 11
-16.2763
 21
15.5834
  0
LINE
  8
0
 10
-16.2763
 20
15.5834
 11
-16.798
 21
15.525
  0
LINE
  8
0
 10
-16.798
 20
15.525
 11
-17.8694
 21
15.3852
  0
LINE
  8
0
 10
-17.8694
 20
15.3852
 11
-18.2539
 21
15.3329
  0
LINE
  8
0
 10
-18.2539
 20
15.3329
 11
-18.5985
 21
15.2788
  0
LINE
  8
0
 10
-18.5985
 20
15.2788
 11
-20.4573
 21
14.9862
  0
LINE
  8
0
 10
-20.4573
 20
14.9862
 11
-21.3953
 21
14.7962
  0
LINE
  8
0
 10
-21.3953
 20
14.7962
 11
-24.1561
 21
14.2029
  0
LINE
  8
0
 10
-24.1561
 20
14.2029
 11
-24.1676
 21
14.1984
  0
LINE
  8
0
 10
-24.1676
 20
14.1984
 11
-26.9381
 21
13.1597
  0
LINE
  8
0
 10
-26.9381
 20
13.1597
 11
-28.1051
 21
12.5944
  0
LINE
  8
0
 10
-28.1051
 20
12.5944
 11
-28.1272
 21
12.5844
  0
LINE
  8
0
 10
-28.1272
 20
12.5844
 11
-28.3249
 21
12.5005
  0
LINE
  8
0
 10
-28.3249
 20
12.5005
 11
-28.7079
 21
12.2889
  0
LINE
  8
0
 10
-28.7079
 20
12.2889
 11
-29.6088
 21
11.4998
  0
LINE
  8
0
 10
-29.6088
 20
11.4998
 11
-30.4628
 21
10.6061
  0
LINE
  8
0
 10
-30.4628
 20
10.6061
 11
-30.4745
 21
10.5942
  0
LINE
  8
0
 10
-30.4745
 20
10.5942
 11
-30.9986
 21
10.0818
  0
LINE
  8
0
 10
-30.9986
 20
10.0818
 11
-31.4895
 21
9.507
  0
LINE
  8
0
 10
-31.4895
 20
9.507
 11
-32.3306
 21
7.95631
  0
LINE
  8
0
 10
-32.3306
 20
7.95631
 11
-33.1193
 21
6.34026
  0
LINE
  8
0
 10
-33.1193
 20
6.34026
 11
-33.3511
 21
5.53664
  0
LINE
  8
0
 10
-33.3511
 20
5.53664
 11
-33.9538
 21
3.15704
  0
LINE
  8
0
 10
-33.9538
 20
3.15704
 11
-34.1071
 21
1.16046
  0
LINE
  8
0
 10
-34.1071
 20
1.16046
 11
-34.1076
 21
1.15421
  0
LINE
  8
0
 10
-34.1076
 20
1.15421
 11
-34.1672
 21
0.490005
  0
LINE
  8
0
 10
-34.1672
 20
0.490005
 11
-34.1471
 21
0.490005
  0
LINE
  8
0
 10
-34.1471
 20
0.490005
 11
-34.0876
 21
1.15237
  0
ENDSEC
  0
SECTION
  2
OBJECTS
  0
DICTIONARY
  0
ENDSEC
  0
EOF
