  0
SECTION
  2
BLOCKS
  0
ENDSEC
  0
SECTION
  2
ENTITIES
  0
LINE
  8
0
 10
-16.251
 20
-15.558
 11
-17.8599
 21
-15.3626
  0
LINE
  8
0
 10
-17.8599
 20
-15.3626
 11
-17.8716
 21
-15.3611
  0
LINE
  8
0
 10
-17.8716
 20
-15.3611
 11
-18.5944
 21
-15.2556
  0
LINE
  8
0
 10
-18.5944
 20
-15.2556
 11
-18.5998
 21
-15.2548
  0
LINE
  8
0
 10
-18.5998
 20
-15.2548
 11
-20.4509
 21
-14.9634
  0
LINE
  8
0
 10
-20.4509
 20
-14.9634
 11
-20.4646
 21
-14.961
  0
LINE
  8
0
 10
-20.4646
 20
-14.961
 11
-21.0295
 21
-14.8556
  0
LINE
  8
0
 10
-21.0295
 20
-14.8556
 11
-21.0494
 21
-14.8514
  0
LINE
  8
0
 10
-21.0494
 20
-14.8514
 11
-21.3803
 21
-14.7753
  0
LINE
  8
0
 10
-21.3803
 20
-14.7753
 11
-21.3905
 21
-14.773
  0
LINE
  8
0
 10
-21.3905
 20
-14.773
 11
-24.1309
 21
-14.1842
  0
LINE
  8
0
 10
-24.1309
 20
-14.1842
 11
-24.1833
 21
-14.1699
  0
LINE
  8
0
 10
-24.1833
 20
-14.1699
 11
-25.9662
 21
-13.5738
  0
LINE
  8
0
 10
-25.9662
 20
-13.5738
 11
-26.0137
 21
-13.5551
  0
LINE
  8
0
 10
-26.0137
 20
-13.5551
 11
-26.9145
 21
-13.1452
  0
LINE
  8
0
 10
-26.9145
 20
-13.1452
 11
-26.9475
 21
-13.1311
  0
LINE
  8
0
 10
-26.9475
 20
-13.1311
 11
-27.3797
 21
-12.9584
  0
LINE
  8
0
 10
-27.3797
 20
-12.9584
 11
-27.422
 21
-12.9391
  0
LINE
  8
0
 10
-27.422
 20
-12.9391
 11
-28.3013
 21
-12.487
  0
LINE
  8
0
 10
-28.3013
 20
-12.487
 11
-28.3336
 21
-12.4713
  0
LINE
  8
0
 10
-28.3336
 20
-12.4713
 11
-28.4023
 21
-12.44
  0
LINE
  8
0
 10
-28.4023
 20
-12.44
 11
-28.4473
 21
-12.4166
  0
LINE
  8
0
 10
-28.4473
 20
-12.4166
 11
-28.6646
 21
-12.2888
  0
LINE
  8
0
 10
-28.6646
 20
-12.2888
 11
-28.7278
 21
-12.2447
  0
LINE
  8
0
 10
-28.7278
 20
-12.2447
 11
-29.3031
 21
-11.771
  0
LINE
  8
0
 10
-29.3031
 20
-11.771
 11
-29.3383
 21
-11.7391
  0
LINE
  8
0
 10
-29.3383
 20
-11.7391
 11
-29.5837
 21
-11.4935
  0
LINE
  8
0
 10
-29.5837
 20
-11.4935
 11
-29.6068
 21
-11.4714
  0
LINE
  8
0
 10
-29.6068
 20
-11.4714
 11
-30.2505
 21
-10.881
  0
LINE
  8
0
 10
-30.2505
 20
-10.881
 11
-30.2845
 21
-10.8466
  0
LINE
  8
0
 10
-30.2845
 20
-10.8466
 11
-30.9734
 21
-10.0768
  0
LINE
  8
0
 10
-30.9734
 20
-10.0768
 11
-30.9953
 21
-10.0534
  0
LINE
  8
0
 10
-30.9953
 20
-10.0534
 11
-31.1553
 21
-9.8894
  0
LINE
  8
0
 10
-31.1553
 20
-9.8894
 11
-31.1879
 21
-9.85245
  0
LINE
  8
0
 10
-31.1879
 20
-9.85245
 11
-31.4511
 21
-9.52185
  0
LINE
  8
0
 10
-31.4511
 20
-9.52185
 11
-31.4914
 21
-9.46288
  0
LINE
  8
0
 10
-31.4914
 20
-9.46288
 11
-31.9433
 21
-8.68536
  0
LINE
  8
0
 10
-31.9433
 20
-8.68536
 11
-31.9585
 21
-8.65707
  0
LINE
  8
0
 10
-31.9585
 20
-8.65707
 11
-32.3078
 21
-7.95369
  0
LINE
  8
0
 10
-32.3078
 20
-7.95369
 11
-32.3177
 21
-7.9344
  0
LINE
  8
0
 10
-32.3177
 20
-7.9344
 11
-32.7047
 21
-7.20782
  0
LINE
  8
0
 10
-32.7047
 20
-7.20782
 11
-32.719
 21
-7.17879
  0
LINE
  8
0
 10
-32.719
 20
-7.17879
 11
-33.084
 21
-6.36879
  0
LINE
  8
0
 10
-33.084
 20
-6.36879
 11
-33.1081
 21
-6.30325
  0
LINE
  8
0
 10
-33.1081
 20
-6.30325
 11
-33.3295
 21
-5.53561
  0
LINE
  8
0
 10
-33.3295
 20
-5.53561
 11
-33.3337
 21
-5.52014
  0
LINE
  8
0
 10
-33.3337
 20
-5.52014
 11
-33.9254
 21
-3.18402
  0
LINE
  8
0
 10
-33.9254
 20
-3.18402
 11
-33.9384
 21
-3.10818
  0
LINE
  8
0
 10
-33.9384
 20
-3.10818
 11
-34.0452
 21
-1.93637
  0
LINE
  8
0
 10
-34.0452
 20
-1.93637
 11
-34.0458
 21
-1.92877
  0
LINE
  8
0
 10
-34.0458
 20
-1.92877
 11
-34.1544
 21
-0.490005
  0
LINE
  8
0
 10
-34.1544
 20
-0.490005
 11
-34.1744
 21
-0.490005
  0
LINE
  8
0
 10
-34.1744
 20
-0.490005
 11
-34.0654
 21
-1.9344
  0
LINE
  8
0
 10
-34.0654
 20
-1.9344
 11
-33.9546
 21
-3.15002
  0
LINE
  8
0
 10
-33.9546
 20
-3.15002
 11
-33.3511
 21
-5.53285
  0
LINE
  8
0
 10
-33.3511
 20
-5.53285
 11
-33.1172
 21
-6.34392
  0
LINE
  8
0
 10
-33.1172
 20
-6.34392
 11
-32.7304
 21
-7.20213
  0
LINE
  8
0
 10
-32.7304
 20
-7.20213
 11
-32.3337
 21
-7.94684
  0
LINE
  8
0
 10
-32.3337
 20
-7.94684
 11
-32.3274
 21
-7.95923
  0
LINE
  8
0
 10
-32.3274
 20
-7.95923
 11
-31.9688
 21
-8.68109
  0
LINE
  8
0
 10
-31.9688
 20
-8.68109
 11
-31.49
 21
-9.50517
  0
LINE
  8
0
 10
-31.49
 20
-9.50517
 11
-31.1877
 21
-9.88483
  0
LINE
  8
0
 10
-31.1877
 20
-9.88483
 11
-31.006
 21
-10.0711
  0
LINE
  8
0
 10
-31.006
 20
-10.0711
 11
-30.9917
 21
-10.0864
  0
LINE
  8
0
 10
-30.9917
 20
-10.0864
 11
-30.2824
 21
-10.8789
  0
LINE
  8
0
 10
-30.2824
 20
-10.8789
 11
-29.6168
 21
-11.4894
  0
LINE
  8
0
 10
-29.6168
 20
-11.4894
 11
-29.6015
 21
-11.5041
  0
LINE
  8
0
 10
-29.6015
 20
-11.5041
 11
-29.3349
 21
-11.7708
  0
LINE
  8
0
 10
-29.3349
 20
-11.7708
 11
-28.7094
 21
-12.2857
  0
LINE
  8
0
 10
-28.7094
 20
-12.2857
 11
-28.4347
 21
-12.4472
  0
LINE
  8
0
 10
-28.4347
 20
-12.4472
 11
-28.3363
 21
-12.4921
  0
LINE
  8
0
 10
-28.3363
 20
-12.4921
 11
-28.3156
 21
-12.5021
  0
LINE
  8
0
 10
-28.3156
 20
-12.5021
 11
-27.4096
 21
-12.968
  0
LINE
  8
0
 10
-27.4096
 20
-12.968
 11
-26.9495
 21
-13.1519
  0
LINE
  8
0
 10
-26.9495
 20
-13.1519
 11
-26.9284
 21
-13.1609
  0
LINE
  8
0
 10
-26.9284
 20
-13.1609
 11
-25.9977
 21
-13.5844
  0
LINE
  8
0
 10
-25.9977
 20
-13.5844
 11
-24.1632
 21
-14.1978
  0
LINE
  8
0
 10
-24.1632
 20
-14.1978
 11
-21.3927
 21
-14.7931
  0
LINE
  8
0
 10
-21.3927
 20
-14.7931
 11
-21.3859
 21
-14.7946
  0
LINE
  8
0
 10
-21.3859
 20
-14.7946
 11
-21.0435
 21
-14.8733
  0
LINE
  8
0
 10
-21.0435
 20
-14.8733
 11
-20.4612
 21
-14.9819
  0
LINE
  8
0
 10
-20.4612
 20
-14.9819
 11
-18.6003
 21
-15.2749
  0
LINE
  8
0
 10
-18.6003
 20
-15.2749
 11
-17.868
 21
-15.3818
  0
LINE
  8
0
 10
-17.868
 20
-15.3818
 11
-16.269
 21
-15.576
  0
LINE
  8
0
 10
-16.269
 20
-15.576
 11
-16.251
 21
-15.558
  0
ENDSEC
  0
SECTION
  2
OBJECTS
  0
DICTIONARY
  0
ENDSEC
  0
EOF
