  0
SECTION
  2
BLOCKS
  0
ENDSEC
  0
SECTION
  2
ENTITIES
  0
LINE
  8
0
 10
17.3647
 20
-15.7699
 11
17.7219
 21
-15.7424
  0
LINE
  8
0
 10
17.7219
 20
-15.7424
 11
18.1723
 21
-15.7034
  0
LINE
  8
0
 10
18.1723
 20
-15.7034
 11
19.8707
 21
-15.5306
  0
LINE
  8
0
 10
19.8707
 20
-15.5306
 11
20.7678
 21
-15.4242
  0
LINE
  8
0
 10
20.7678
 20
-15.4242
 11
21.8279
 21
-15.2948
  0
LINE
  8
0
 10
21.8279
 20
-15.2948
 11
23.6268
 21
-15.0398
  0
LINE
  8
0
 10
23.6268
 20
-15.0398
 11
23.6471
 21
-15.0367
  0
LINE
  8
0
 10
23.6471
 20
-15.0367
 11
23.664
 21
-15.0336
  0
LINE
  8
0
 10
23.664
 20
-15.0336
 11
23.759
 21
-15.0135
  0
LINE
  8
0
 10
23.759
 20
-15.0135
 11
26.4391
 21
-14.4666
  0
LINE
  8
0
 10
26.4391
 20
-14.4666
 11
27.6454
 21
-14.1699
  0
LINE
  8
0
 10
27.6454
 20
-14.1699
 11
29.385
 21
-13.5948
  0
LINE
  8
0
 10
29.385
 20
-13.5948
 11
30.3701
 21
-13.2119
  0
LINE
  8
0
 10
30.3701
 20
-13.2119
 11
30.7392
 21
-12.977
  0
LINE
  8
0
 10
30.7392
 20
-12.977
 11
30.7739
 21
-12.9568
  0
LINE
  8
0
 10
30.7739
 20
-12.9568
 11
32.2276
 21
-12.1908
  0
LINE
  8
0
 10
32.2276
 20
-12.1908
 11
33.2942
 21
-11.4464
  0
LINE
  8
0
 10
33.2942
 20
-11.4464
 11
33.3029
 21
-11.4405
  0
LINE
  8
0
 10
33.3029
 20
-11.4405
 11
33.7743
 21
-11.1262
  0
LINE
  8
0
 10
33.7743
 20
-11.1262
 11
33.8642
 21
-11.0622
  0
LINE
  8
0
 10
33.8642
 20
-11.0622
 11
34.0835
 21
-10.8212
  0
LINE
  8
0
 10
34.0835
 20
-10.8212
 11
34.1298
 21
-10.7766
  0
LINE
  8
0
 10
34.1298
 20
-10.7766
 11
34.2532
 21
-10.6723
  0
LINE
  8
0
 10
34.2532
 20
-10.6723
 11
34.7491
 21
-10.0903
  0
LINE
  8
0
 10
34.7491
 20
-10.0903
 11
34.7959
 21
-10.0424
  0
LINE
  8
0
 10
34.7959
 20
-10.0424
 11
34.9715
 21
-9.88582
  0
LINE
  8
0
 10
34.9715
 20
-9.88582
 11
34.9992
 21
-9.86288
  0
LINE
  8
0
 10
34.9992
 20
-9.86288
 11
35.3389
 21
-9.60205
  0
LINE
  8
0
 10
35.3389
 20
-9.60205
 11
35.7174
 21
-9.15398
  0
LINE
  8
0
 10
35.7174
 20
-9.15398
 11
35.737
 21
-9.13205
  0
LINE
  8
0
 10
35.737
 20
-9.13205
 11
35.7984
 21
-9.06764
  0
LINE
  8
0
 10
35.7984
 20
-9.06764
 11
36.0624
 21
-8.68875
  0
LINE
  8
0
 10
36.0624
 20
-8.68875
 11
36.1701
 21
-8.48444
  0
LINE
  8
0
 10
36.1701
 20
-8.48444
 11
36.1876
 21
-8.44092
  0
LINE
  8
0
 10
36.1876
 20
-8.44092
 11
36.1957
 21
-8.42192
  0
LINE
  8
0
 10
36.1957
 20
-8.42192
 11
36.5248
 21
-7.69434
  0
LINE
  8
0
 10
36.5248
 20
-7.69434
 11
36.7188
 21
-7.20924
  0
LINE
  8
0
 10
36.7188
 20
-7.20924
 11
36.9469
 21
-6.49315
  0
LINE
  8
0
 10
36.9469
 20
-6.49315
 11
36.9497
 21
-6.48465
  0
LINE
  8
0
 10
36.9497
 20
-6.48465
 11
37.0668
 21
-6.13893
  0
LINE
  8
0
 10
37.0668
 20
-6.13893
 11
37.1364
 21
-5.90569
  0
LINE
  8
0
 10
37.1364
 20
-5.90569
 11
37.4338
 21
-4.67223
  0
LINE
  8
0
 10
37.4338
 20
-4.67223
 11
37.4363
 21
-4.66231
  0
LINE
  8
0
 10
37.4363
 20
-4.66231
 11
37.4458
 21
-4.60815
  0
LINE
  8
0
 10
37.4458
 20
-4.60815
 11
37.6303
 21
-3.29741
  0
LINE
  8
0
 10
37.6303
 20
-3.29741
 11
37.6548
 21
-3.00627
  0
LINE
  8
0
 10
37.6548
 20
-3.00627
 11
37.7425
 21
-2.08656
  0
LINE
  8
0
 10
37.7425
 20
-2.08656
 11
37.7635
 21
-1.65163
  0
LINE
  8
0
 10
37.7635
 20
-1.65163
 11
37.7983
 21
-1.00941
  0
LINE
  8
0
 10
37.7983
 20
-1.00941
 11
37.8058
 21
-0.528061
  0
LINE
  8
0
 10
37.8058
 20
-0.528061
 11
37.8064
 21
-0.490005
  0
LINE
  8
0
 10
37.8064
 20
-0.490005
 11
37.7864
 21
-0.490005
  0
LINE
  8
0
 10
37.7864
 20
-0.490005
 11
37.7858
 21
-0.527664
  0
LINE
  8
0
 10
37.7858
 20
-0.527664
 11
37.7785
 21
-0.999054
  0
LINE
  8
0
 10
37.7785
 20
-0.999054
 11
37.7778
 21
-1.01794
  0
LINE
  8
0
 10
37.7778
 20
-1.01794
 11
37.7435
 21
-1.6506
  0
LINE
  8
0
 10
37.7435
 20
-1.6506
 11
37.7231
 21
-2.07388
  0
LINE
  8
0
 10
37.7231
 20
-2.07388
 11
37.7215
 21
-2.0968
  0
LINE
  8
0
 10
37.7215
 20
-2.0968
 11
37.6349
 21
-3.00436
  0
LINE
  8
0
 10
37.6349
 20
-3.00436
 11
37.6342
 21
-3.01265
  0
LINE
  8
0
 10
37.6342
 20
-3.01265
 11
37.6115
 21
-3.28151
  0
LINE
  8
0
 10
37.6115
 20
-3.28151
 11
37.6085
 21
-3.30867
  0
LINE
  8
0
 10
37.6085
 20
-3.30867
 11
37.4272
 21
-4.5968
  0
LINE
  8
0
 10
37.4272
 20
-4.5968
 11
37.4246
 21
-4.61357
  0
LINE
  8
0
 10
37.4246
 20
-4.61357
 11
37.4196
 21
-4.64206
  0
LINE
  8
0
 10
37.4196
 20
-4.64206
 11
37.4133
 21
-4.67186
  0
LINE
  8
0
 10
37.4133
 20
-4.67186
 11
37.1202
 21
-5.88786
  0
LINE
  8
0
 10
37.1202
 20
-5.88786
 11
37.1134
 21
-5.91312
  0
LINE
  8
0
 10
37.1134
 20
-5.91312
 11
37.0504
 21
-6.12439
  0
LINE
  8
0
 10
37.0504
 20
-6.12439
 11
37.0449
 21
-6.14163
  0
LINE
  8
0
 10
37.0449
 20
-6.14163
 11
36.9316
 21
-6.47583
  0
LINE
  8
0
 10
36.9316
 20
-6.47583
 11
36.9272
 21
-6.48915
  0
LINE
  8
0
 10
36.9272
 20
-6.48915
 11
36.7054
 21
-7.18559
  0
LINE
  8
0
 10
36.7054
 20
-7.18559
 11
36.6935
 21
-7.21883
  0
LINE
  8
0
 10
36.6935
 20
-7.21883
 11
36.5104
 21
-7.67657
  0
LINE
  8
0
 10
36.5104
 20
-7.67657
 11
36.5019
 21
-7.69656
  0
LINE
  8
0
 10
36.5019
 20
-7.69656
 11
36.1797
 21
-8.40889
  0
LINE
  8
0
 10
36.1797
 20
-8.40889
 11
36.1671
 21
-8.4384
  0
LINE
  8
0
 10
36.1671
 20
-8.4384
 11
36.1614
 21
-8.45256
  0
LINE
  8
0
 10
36.1614
 20
-8.45256
 11
36.1403
 21
-8.49805
  0
LINE
  8
0
 10
36.1403
 20
-8.49805
 11
36.0594
 21
-8.6515
  0
LINE
  8
0
 10
36.0594
 20
-8.6515
 11
36.028
 21
-8.70309
  0
LINE
  8
0
 10
36.028
 20
-8.70309
 11
35.8042
 21
-9.02432
  0
LINE
  8
0
 10
35.8042
 20
-9.02432
 11
35.7569
 21
-9.08221
  0
LINE
  8
0
 10
35.7569
 20
-9.08221
 11
35.7274
 21
-9.11316
  0
LINE
  8
0
 10
35.7274
 20
-9.11316
 11
35.6973
 21
-9.1467
  0
LINE
  8
0
 10
35.6973
 20
-9.1467
 11
35.3591
 21
-9.54716
  0
LINE
  8
0
 10
35.3591
 20
-9.54716
 11
35.2832
 21
-9.6196
  0
LINE
  8
0
 10
35.2832
 20
-9.6196
 11
34.9942
 21
-9.84157
  0
LINE
  8
0
 10
34.9942
 20
-9.84157
 11
34.9517
 21
-9.87675
  0
LINE
  8
0
 10
34.9517
 20
-9.87675
 11
34.7952
 21
-10.0162
  0
LINE
  8
0
 10
34.7952
 20
-10.0162
 11
34.7228
 21
-10.0902
  0
LINE
  8
0
 10
34.7228
 20
-10.0902
 11
34.2652
 21
-10.6275
  0
LINE
  8
0
 10
34.2652
 20
-10.6275
 11
34.2083
 21
-10.6842
  0
LINE
  8
0
 10
34.2083
 20
-10.6842
 11
34.1291
 21
-10.751
  0
LINE
  8
0
 10
34.1291
 20
-10.751
 11
34.0579
 21
-10.8196
  0
LINE
  8
0
 10
34.0579
 20
-10.8196
 11
33.8861
 21
-11.0083
  0
LINE
  8
0
 10
33.8861
 20
-11.0083
 11
33.8082
 21
-11.0775
  0
LINE
  8
0
 10
33.8082
 20
-11.0775
 11
33.769
 21
-11.1054
  0
LINE
  8
0
 10
33.769
 20
-11.1054
 11
33.7565
 21
-11.114
  0
LINE
  8
0
 10
33.7565
 20
-11.114
 11
33.2943
 21
-11.4222
  0
LINE
  8
0
 10
33.2943
 20
-11.4222
 11
33.2803
 21
-11.4317
  0
LINE
  8
0
 10
33.2803
 20
-11.4317
 11
32.2423
 21
-12.1561
  0
LINE
  8
0
 10
32.2423
 20
-12.1561
 11
32.1903
 21
-12.1878
  0
LINE
  8
0
 10
32.1903
 20
-12.1878
 11
30.7734
 21
-12.9344
  0
LINE
  8
0
 10
30.7734
 20
-12.9344
 11
30.72
 21
-12.9654
  0
LINE
  8
0
 10
30.72
 20
-12.9654
 11
30.402
 21
-13.1679
  0
LINE
  8
0
 10
30.402
 20
-13.1679
 11
30.3163
 21
-13.2113
  0
LINE
  8
0
 10
30.3163
 20
-13.2113
 11
29.3898
 21
-13.5714
  0
LINE
  8
0
 10
29.3898
 20
-13.5714
 11
29.3661
 21
-13.58
  0
LINE
  8
0
 10
29.3661
 20
-13.58
 11
27.6581
 21
-14.1446
  0
LINE
  8
0
 10
27.6581
 20
-14.1446
 11
27.6214
 21
-14.1552
  0
LINE
  8
0
 10
27.6214
 20
-14.1552
 11
26.444
 21
-14.4448
  0
LINE
  8
0
 10
26.444
 20
-14.4448
 11
26.4249
 21
-14.4491
  0
LINE
  8
0
 10
26.4249
 20
-14.4491
 11
23.7501
 21
-14.995
  0
LINE
  8
0
 10
23.7501
 20
-14.995
 11
23.6655
 21
-15.0128
  0
LINE
  8
0
 10
23.6655
 20
-15.0128
 11
23.6539
 21
-15.0151
  0
LINE
  8
0
 10
23.6539
 20
-15.0151
 11
23.6516
 21
-15.0155
  0
LINE
  8
0
 10
23.6516
 20
-15.0155
 11
23.6359
 21
-15.0182
  0
LINE
  8
0
 10
23.6359
 20
-15.0182
 11
23.6205
 21
-15.0205
  0
LINE
  8
0
 10
23.6205
 20
-15.0205
 11
21.8306
 21
-15.2742
  0
LINE
  8
0
 10
21.8306
 20
-15.2742
 11
21.8212
 21
-15.2755
  0
LINE
  8
0
 10
21.8212
 20
-15.2755
 11
20.7655
 21
-15.4044
  0
LINE
  8
0
 10
20.7655
 20
-15.4044
 11
19.8717
 21
-15.5103
  0
LINE
  8
0
 10
19.8717
 20
-15.5103
 11
19.8637
 21
-15.5112
  0
LINE
  8
0
 10
19.8637
 20
-15.5112
 11
18.174
 21
-15.6832
  0
LINE
  8
0
 10
18.174
 20
-15.6832
 11
18.1665
 21
-15.6839
  0
LINE
  8
0
 10
18.1665
 20
-15.6839
 11
17.7201
 21
-15.7225
  0
LINE
  8
0
 10
17.7201
 20
-15.7225
 11
17.3603
 21
-15.7501
  0
LINE
  8
0
 10
17.3603
 20
-15.7501
 11
16.5044
 21
-15.8115
  0
LINE
  8
0
 10
16.5044
 20
-15.8115
 11
16.5231
 21
-15.8302
  0
LINE
  8
0
 10
16.5231
 20
-15.8302
 11
17.3647
 21
-15.7699
  0
ENDSEC
  0
SECTION
  2
OBJECTS
  0
DICTIONARY
  0
ENDSEC
  0
EOF
