  0
SECTION
  2
BLOCKS
  0
ENDSEC
  0
SECTION
  2
ENTITIES
  0
LINE
  8
0
 10
33.2939
 20
1.33673
 11
33.1495
 21
2.51715
  0
LINE
  8
0
 10
33.1495
 20
2.51715
 11
32.9867
 21
3.3578
  0
LINE
  8
0
 10
32.9867
 20
3.3578
 11
32.9245
 21
3.67882
  0
LINE
  8
0
 10
32.9245
 20
3.67882
 11
32.2094
 21
5.62753
  0
LINE
  8
0
 10
32.2094
 20
5.62753
 11
31.9254
 21
6.38177
  0
LINE
  8
0
 10
31.9254
 20
6.38177
 11
31.8468
 21
6.42625
  0
LINE
  8
0
 10
31.8468
 20
6.42625
 11
31.6787
 21
6.5834
  0
LINE
  8
0
 10
31.6787
 20
6.5834
 11
31.0188
 21
7.58611
  0
LINE
  8
0
 10
31.0188
 20
7.58611
 11
30.9951
 21
7.62593
  0
LINE
  8
0
 10
30.9951
 20
7.62593
 11
30.7911
 21
8.01071
  0
LINE
  8
0
 10
30.7911
 20
8.01071
 11
29.66
 21
9.3223
  0
LINE
  8
0
 10
29.66
 20
9.3223
 11
29.6075
 21
9.39603
  0
LINE
  8
0
 10
29.6075
 20
9.39603
 11
29.5931
 21
9.42087
  0
LINE
  8
0
 10
29.5931
 20
9.42087
 11
29.2566
 21
9.72139
  0
LINE
  8
0
 10
29.2566
 20
9.72139
 11
27.8464
 21
10.7362
  0
LINE
  8
0
 10
27.8464
 20
10.7362
 11
26.7381
 21
11.2995
  0
LINE
  8
0
 10
26.7381
 20
11.2995
 11
26.7229
 21
11.3075
  0
LINE
  8
0
 10
26.7229
 20
11.3075
 11
25.4665
 21
12.0025
  0
LINE
  8
0
 10
25.4665
 20
12.0025
 11
23.6111
 21
12.7298
  0
LINE
  8
0
 10
23.6111
 20
12.7298
 11
22.2525
 21
13.1419
  0
LINE
  8
0
 10
22.2525
 20
13.1419
 11
18.1374
 21
14.0673
  0
LINE
  8
0
 10
18.1374
 20
14.0673
 11
17.5785
 21
14.1598
  0
LINE
  8
0
 10
17.5785
 20
14.1598
 11
15.1553
 21
14.4623
  0
LINE
  8
0
 10
15.1553
 20
14.4623
 11
15.1373
 21
14.4444
  0
LINE
  8
0
 10
15.1373
 20
14.4444
 11
17.5662
 21
14.1412
  0
LINE
  8
0
 10
17.5662
 20
14.1412
 11
17.5855
 21
14.1384
  0
LINE
  8
0
 10
17.5855
 20
14.1384
 11
18.1195
 21
14.05
  0
LINE
  8
0
 10
18.1195
 20
14.05
 11
18.1471
 21
14.0447
  0
LINE
  8
0
 10
18.1471
 20
14.0447
 11
22.2298
 21
13.1265
  0
LINE
  8
0
 10
22.2298
 20
13.1265
 11
22.2646
 21
13.1173
  0
LINE
  8
0
 10
22.2646
 20
13.1173
 11
23.5861
 21
12.7164
  0
LINE
  8
0
 10
23.5861
 20
12.7164
 11
23.6227
 21
12.7038
  0
LINE
  8
0
 10
23.6227
 20
12.7038
 11
25.4279
 21
11.9962
  0
LINE
  8
0
 10
25.4279
 20
11.9962
 11
25.4862
 21
11.9687
  0
LINE
  8
0
 10
25.4862
 20
11.9687
 11
26.7094
 21
11.2921
  0
LINE
  8
0
 10
26.7094
 20
11.2921
 11
26.7323
 21
11.28
  0
LINE
  8
0
 10
26.7323
 20
11.28
 11
27.8023
 21
10.7362
  0
LINE
  8
0
 10
27.8023
 20
10.7362
 11
27.8665
 21
10.6971
  0
LINE
  8
0
 10
27.8665
 20
10.6971
 11
29.2232
 21
9.72079
  0
LINE
  8
0
 10
29.2232
 20
9.72079
 11
29.2634
 21
9.68852
  0
LINE
  8
0
 10
29.2634
 20
9.68852
 11
29.5356
 21
9.44537
  0
LINE
  8
0
 10
29.5356
 20
9.44537
 11
29.6082
 21
9.3643
  0
LINE
  8
0
 10
29.6082
 20
9.3643
 11
29.6596
 21
9.29211
  0
LINE
  8
0
 10
29.6596
 20
9.29211
 11
30.7386
 21
8.04103
  0
LINE
  8
0
 10
30.7386
 20
8.04103
 11
30.8004
 21
7.95061
  0
LINE
  8
0
 10
30.8004
 20
7.95061
 11
30.9722
 21
7.62662
  0
LINE
  8
0
 10
30.9722
 20
7.62662
 11
31.0085
 21
7.56537
  0
LINE
  8
0
 10
31.0085
 20
7.56537
 11
31.6299
 21
6.6212
  0
LINE
  8
0
 10
31.6299
 20
6.6212
 11
31.8303
 21
6.43385
  0
LINE
  8
0
 10
31.8303
 20
6.43385
 11
31.9542
 21
6.2485
  0
LINE
  8
0
 10
31.9542
 20
6.2485
 11
32.1914
 21
5.61826
  0
LINE
  8
0
 10
32.1914
 20
5.61826
 11
32.8915
 21
3.71045
  0
LINE
  8
0
 10
32.8915
 20
3.71045
 11
32.9126
 21
3.63487
  0
LINE
  8
0
 10
32.9126
 20
3.63487
 11
33.1266
 21
2.53062
  0
LINE
  8
0
 10
33.1266
 20
2.53062
 11
33.1319
 21
2.49689
  0
LINE
  8
0
 10
33.1319
 20
2.49689
 11
33.2716
 21
1.35512
  0
LINE
  8
0
 10
33.2716
 20
1.35512
 11
33.2748
 21
1.31488
  0
LINE
  8
0
 10
33.2748
 20
1.31488
 11
33.3073
 21
0.490005
  0
LINE
  8
0
 10
33.3073
 20
0.490005
 11
33.3273
 21
0.490005
  0
LINE
  8
0
 10
33.3273
 20
0.490005
 11
33.2939
 21
1.33673
  0
ENDSEC
  0
SECTION
  2
OBJECTS
  0
DICTIONARY
  0
ENDSEC
  0
EOF
