  0
SECTION
  2
BLOCKS
  0
ENDSEC
  0
SECTION
  2
ENTITIES
  0
LINE
  8
0
 10
-28.1754
 20
1.50668
 11
-28.1741
 21
1.51801
  0
LINE
  8
0
 10
-28.1741
 20
1.51801
 11
-27.9812
 21
3.35023
  0
LINE
  8
0
 10
-27.9812
 20
3.35023
 11
-27.9541
 21
3.46732
  0
LINE
  8
0
 10
-27.9541
 20
3.46732
 11
-26.8771
 21
6.41017
  0
LINE
  8
0
 10
-26.8771
 20
6.41017
 11
-26.8717
 21
6.42555
  0
LINE
  8
0
 10
-26.8717
 20
6.42555
 11
-26.8155
 21
6.59032
  0
LINE
  8
0
 10
-26.8155
 20
6.59032
 11
-26.7434
 21
6.72647
  0
LINE
  8
0
 10
-26.7434
 20
6.72647
 11
-26.7156
 21
6.76349
  0
LINE
  8
0
 10
-26.7156
 20
6.76349
 11
-26.7114
 21
6.76903
  0
LINE
  8
0
 10
-26.7114
 20
6.76903
 11
-24.6705
 21
9.40611
  0
LINE
  8
0
 10
-24.6705
 20
9.40611
 11
-24.5724
 21
9.50163
  0
LINE
  8
0
 10
-24.5724
 20
9.50163
 11
-24.0007
 21
9.91998
  0
LINE
  8
0
 10
-24.0007
 20
9.91998
 11
-22.3017
 21
11.1538
  0
LINE
  8
0
 10
-22.3017
 20
11.1538
 11
-22.2373
 21
11.1933
  0
LINE
  8
0
 10
-22.2373
 20
11.1933
 11
-21.253
 21
11.6978
  0
LINE
  8
0
 10
-21.253
 20
11.6978
 11
-21.2389
 21
11.7053
  0
LINE
  8
0
 10
-21.2389
 20
11.7053
 11
-20.9795
 21
11.8448
  0
LINE
  8
0
 10
-20.9795
 20
11.8448
 11
-20.9406
 21
11.8635
  0
LINE
  8
0
 10
-20.9406
 20
11.8635
 11
-20.8247
 21
11.9132
  0
LINE
  8
0
 10
-20.8247
 20
11.9132
 11
-20.818
 21
11.916
  0
LINE
  8
0
 10
-20.818
 20
11.916
 11
-19.102
 21
12.6224
  0
LINE
  8
0
 10
-19.102
 20
12.6224
 11
-19.0662
 21
12.6355
  0
LINE
  8
0
 10
-19.0662
 20
12.6355
 11
-17.6638
 21
13.089
  0
LINE
  8
0
 10
-17.6638
 20
13.089
 11
-17.639
 21
13.0963
  0
LINE
  8
0
 10
-17.639
 20
13.0963
 11
-15.7313
 21
13.6039
  0
LINE
  8
0
 10
-15.7313
 20
13.6039
 11
-15.7071
 21
13.6097
  0
LINE
  8
0
 10
-15.7071
 20
13.6097
 11
-14.5486
 21
13.8557
  0
LINE
  8
0
 10
-14.5486
 20
13.8557
 11
-14.5655
 21
13.8725
  0
LINE
  8
0
 10
-14.5655
 20
13.8725
 11
-15.7238
 21
13.6266
  0
LINE
  8
0
 10
-15.7238
 20
13.6266
 11
-17.6572
 21
13.1121
  0
LINE
  8
0
 10
-17.6572
 20
13.1121
 11
-19.0913
 21
12.6485
  0
LINE
  8
0
 10
-19.0913
 20
12.6485
 11
-20.829
 21
11.9331
  0
LINE
  8
0
 10
-20.829
 20
11.9331
 11
-20.9693
 21
11.873
  0
LINE
  8
0
 10
-20.9693
 20
11.873
 11
-21.2507
 21
11.7216
  0
LINE
  8
0
 10
-21.2507
 20
11.7216
 11
-21.2592
 21
11.7172
  0
LINE
  8
0
 10
-21.2592
 20
11.7172
 11
-22.2816
 21
11.1931
  0
LINE
  8
0
 10
-22.2816
 20
11.1931
 11
-24.0122
 21
9.93639
  0
LINE
  8
0
 10
-24.0122
 20
9.93639
 11
-24.6423
 21
9.4752
  0
LINE
  8
0
 10
-24.6423
 20
9.4752
 11
-26.7282
 21
6.78004
  0
LINE
  8
0
 10
-26.7282
 20
6.78004
 11
-26.774
 21
6.7191
  0
LINE
  8
0
 10
-26.774
 20
6.7191
 11
-26.8143
 21
6.65572
  0
LINE
  8
0
 10
-26.8143
 20
6.65572
 11
-26.8914
 21
6.42958
  0
LINE
  8
0
 10
-26.8914
 20
6.42958
 11
-26.8951
 21
6.41936
  0
LINE
  8
0
 10
-26.8951
 20
6.41936
 11
-27.9945
 21
3.41496
  0
LINE
  8
0
 10
-27.9945
 20
3.41496
 11
-28.1943
 21
1.51694
  0
LINE
  8
0
 10
-28.1943
 20
1.51694
 11
-28.195
 21
1.51135
  0
LINE
  8
0
 10
-28.195
 20
1.51135
 11
-28.3143
 21
0.490005
  0
LINE
  8
0
 10
-28.3143
 20
0.490005
 11
-28.2942
 21
0.490005
  0
LINE
  8
0
 10
-28.2942
 20
0.490005
 11
-28.1754
 21
1.50668
  0
ENDSEC
  0
SECTION
  2
OBJECTS
  0
DICTIONARY
  0
ENDSEC
  0
EOF
