  0
SECTION
  2
BLOCKS
  0
ENDSEC
  0
SECTION
  2
ENTITIES
  0
LINE
  8
0
 10
-14.5456
 20
-13.8527
 11
-15.7205
 21
-13.6032
  0
LINE
  8
0
 10
-15.7205
 20
-13.6032
 11
-15.7316
 21
-13.6007
  0
LINE
  8
0
 10
-15.7316
 20
-13.6007
 11
-16.5562
 21
-13.4056
  0
LINE
  8
0
 10
-16.5562
 20
-13.4056
 11
-16.5794
 21
-13.3995
  0
LINE
  8
0
 10
-16.5794
 20
-13.3995
 11
-17.6306
 21
-13.0956
  0
LINE
  8
0
 10
-17.6306
 20
-13.0956
 11
-17.6531
 21
-13.0885
  0
LINE
  8
0
 10
-17.6531
 20
-13.0885
 11
-19.6574
 21
-12.4027
  0
LINE
  8
0
 10
-19.6574
 20
-12.4027
 11
-19.6886
 21
-12.3908
  0
LINE
  8
0
 10
-19.6886
 20
-12.3908
 11
-20.8009
 21
-11.9234
  0
LINE
  8
0
 10
-20.8009
 20
-11.9234
 11
-20.8369
 21
-11.9065
  0
LINE
  8
0
 10
-20.8369
 20
-11.9065
 11
-21.0479
 21
-11.797
  0
LINE
  8
0
 10
-21.0479
 20
-11.797
 11
-21.088
 21
-11.7737
  0
LINE
  8
0
 10
-21.088
 20
-11.7737
 11
-21.2003
 21
-11.7012
  0
LINE
  8
0
 10
-21.2003
 20
-11.7012
 11
-21.2363
 21
-11.6793
  0
LINE
  8
0
 10
-21.2363
 20
-11.6793
 11
-22.7434
 21
-10.821
  0
LINE
  8
0
 10
-22.7434
 20
-10.821
 11
-22.7879
 21
-10.7924
  0
LINE
  8
0
 10
-22.7879
 20
-10.7924
 11
-23.9972
 21
-9.91884
  0
LINE
  8
0
 10
-23.9972
 20
-9.91884
 11
-24.034
 21
-9.89386
  0
LINE
  8
0
 10
-24.034
 20
-9.89386
 11
-24.3036
 21
-9.72232
  0
LINE
  8
0
 10
-24.3036
 20
-9.72232
 11
-24.351
 21
-9.68803
  0
LINE
  8
0
 10
-24.351
 20
-9.68803
 11
-24.5982
 21
-9.48567
  0
LINE
  8
0
 10
-24.5982
 20
-9.48567
 11
-24.658
 21
-9.42751
  0
LINE
  8
0
 10
-24.658
 20
-9.42751
 11
-25.5748
 21
-8.37001
  0
LINE
  8
0
 10
-25.5748
 20
-8.37001
 11
-25.6048
 21
-8.33174
  0
LINE
  8
0
 10
-25.6048
 20
-8.33174
 11
-26.6996
 21
-6.78166
  0
LINE
  8
0
 10
-26.6996
 20
-6.78166
 11
-26.7128
 21
-6.76369
  0
LINE
  8
0
 10
-26.7128
 20
-6.76369
 11
-26.7458
 21
-6.71971
  0
LINE
  8
0
 10
-26.7458
 20
-6.71971
 11
-26.7676
 21
-6.68823
  0
LINE
  8
0
 10
-26.7676
 20
-6.68823
 11
-26.7753
 21
-6.67604
  0
LINE
  8
0
 10
-26.7753
 20
-6.67604
 11
-26.8191
 21
-6.58923
  0
LINE
  8
0
 10
-26.8191
 20
-6.58923
 11
-27.6121
 21
-4.5302
  0
LINE
  8
0
 10
-27.6121
 20
-4.5302
 11
-27.621
 21
-4.50519
  0
LINE
  8
0
 10
-27.621
 20
-4.50519
 11
-27.9602
 21
-3.45872
  0
LINE
  8
0
 10
-27.9602
 20
-3.45872
 11
-27.9806
 21
-3.36546
  0
LINE
  8
0
 10
-27.9806
 20
-3.36546
 11
-28.1569
 21
-1.88269
  0
LINE
  8
0
 10
-28.1569
 20
-1.88269
 11
-28.1577
 21
-1.87531
  0
LINE
  8
0
 10
-28.1577
 20
-1.87531
 11
-28.3011
 21
-0.490005
  0
LINE
  8
0
 10
-28.3011
 20
-0.490005
 11
-28.3212
 21
-0.490005
  0
LINE
  8
0
 10
-28.3212
 20
-0.490005
 11
-28.1772
 21
-1.88133
  0
LINE
  8
0
 10
-28.1772
 20
-1.88133
 11
-27.9946
 21
-3.41742
  0
LINE
  8
0
 10
-27.9946
 20
-3.41742
 11
-27.6358
 21
-4.52441
  0
LINE
  8
0
 10
-27.6358
 20
-4.52441
 11
-26.8195
 21
-6.64392
  0
LINE
  8
0
 10
-26.8195
 20
-6.64392
 11
-26.774
 21
-6.71547
  0
LINE
  8
0
 10
-26.774
 20
-6.71547
 11
-26.7268
 21
-6.77827
  0
LINE
  8
0
 10
-26.7268
 20
-6.77827
 11
-26.7181
 21
-6.79013
  0
LINE
  8
0
 10
-26.7181
 20
-6.79013
 11
-25.6065
 21
-8.36398
  0
LINE
  8
0
 10
-25.6065
 20
-8.36398
 11
-24.6446
 21
-9.47353
  0
LINE
  8
0
 10
-24.6446
 20
-9.47353
 11
-24.3401
 21
-9.72284
  0
LINE
  8
0
 10
-24.3401
 20
-9.72284
 11
-24.0386
 21
-9.91466
  0
LINE
  8
0
 10
-24.0386
 20
-9.91466
 11
-24.0146
 21
-9.93089
  0
LINE
  8
0
 10
-24.0146
 20
-9.93089
 11
-22.7772
 21
-10.8248
  0
LINE
  8
0
 10
-22.7772
 20
-10.8248
 11
-21.2402
 21
-11.7001
  0
LINE
  8
0
 10
-21.2402
 20
-11.7001
 11
-21.2168
 21
-11.7143
  0
LINE
  8
0
 10
-21.2168
 20
-11.7143
 11
-21.0785
 21
-11.8037
  0
LINE
  8
0
 10
-21.0785
 20
-11.8037
 11
-20.8276
 21
-11.9339
  0
LINE
  8
0
 10
-20.8276
 20
-11.9339
 11
-19.6802
 21
-12.416
  0
LINE
  8
0
 10
-19.6802
 20
-12.416
 11
-17.6482
 21
-13.1113
  0
LINE
  8
0
 10
-17.6482
 20
-13.1113
 11
-16.573
 21
-13.4222
  0
LINE
  8
0
 10
-16.573
 20
-13.4222
 11
-15.7301
 21
-13.6216
  0
LINE
  8
0
 10
-15.7301
 20
-13.6216
 11
-14.5625
 21
-13.8695
  0
LINE
  8
0
 10
-14.5625
 20
-13.8695
 11
-14.5456
 21
-13.8527
  0
ENDSEC
  0
SECTION
  2
OBJECTS
  0
DICTIONARY
  0
ENDSEC
  0
EOF
