  0
SECTION
  2
BLOCKS
  0
ENDSEC
  0
SECTION
  2
ENTITIES
  0
LINE
  8
0
 10
-17.7997
 20
17.1067
 11
-19.2385
 21
17.1053
  0
LINE
  8
0
 10
-19.2385
 20
17.1053
 11
-20.3094
 21
17.1036
  0
LINE
  8
0
 10
-20.3094
 20
17.1036
 11
-21.5201
 21
17.0989
  0
LINE
  8
0
 10
-21.5201
 20
17.0989
 11
-22.0986
 21
17.0972
  0
LINE
  8
0
 10
-22.0986
 20
17.0972
 11
-22.4417
 21
17.097
  0
LINE
  8
0
 10
-22.4417
 20
17.097
 11
-23.2002
 21
17.0943
  0
LINE
  8
0
 10
-23.2002
 20
17.0943
 11
-24.1319
 21
17.0928
  0
LINE
  8
0
 10
-24.1319
 20
17.0928
 11
-24.3399
 21
17.0921
  0
LINE
  8
0
 10
-24.3399
 20
17.0921
 11
-24.9519
 21
17.0916
  0
LINE
  8
0
 10
-24.9519
 20
17.0916
 11
-25.4852
 21
17.093
  0
LINE
  8
0
 10
-25.4852
 20
17.093
 11
-25.6134
 21
17.0928
  0
LINE
  8
0
 10
-25.6134
 20
17.0928
 11
-25.7497
 21
17.0931
  0
LINE
  8
0
 10
-25.7497
 20
17.0931
 11
-26.2641
 21
17.093
  0
LINE
  8
0
 10
-26.2641
 20
17.093
 11
-26.6539
 21
17.0942
  0
LINE
  8
0
 10
-26.6539
 20
17.0942
 11
-26.8818
 21
17.0939
  0
LINE
  8
0
 10
-26.8818
 20
17.0939
 11
-27.1563
 21
17.0945
  0
LINE
  8
0
 10
-27.1563
 20
17.0945
 11
-27.598
 21
17.0913
  0
LINE
  8
0
 10
-27.598
 20
17.0913
 11
-27.7538
 21
17.0901
  0
LINE
  8
0
 10
-27.7538
 20
17.0901
 11
-28.3853
 21
17.0839
  0
LINE
  8
0
 10
-28.3853
 20
17.0839
 11
-28.7988
 21
17.0794
  0
LINE
  8
0
 10
-28.7988
 20
17.0794
 11
-29.1212
 21
17.0753
  0
LINE
  8
0
 10
-29.1212
 20
17.0753
 11
-29.7524
 21
17.0663
  0
LINE
  8
0
 10
-29.7524
 20
17.0663
 11
-29.8085
 21
17.0655
  0
LINE
  8
0
 10
-29.8085
 20
17.0655
 11
-29.962
 21
17.0627
  0
LINE
  8
0
 10
-29.962
 20
17.0627
 11
-30.2816
 21
17.0519
  0
LINE
  8
0
 10
-30.2816
 20
17.0519
 11
-30.6581
 21
17.0374
  0
LINE
  8
0
 10
-30.6581
 20
17.0374
 11
-30.694
 21
17.0358
  0
LINE
  8
0
 10
-30.694
 20
17.0358
 11
-31.1272
 21
17.0137
  0
LINE
  8
0
 10
-31.1272
 20
17.0137
 11
-31.3527
 21
17.0007
  0
LINE
  8
0
 10
-31.3527
 20
17.0007
 11
-31.5573
 21
16.9875
  0
LINE
  8
0
 10
-31.5573
 20
16.9875
 11
-31.9139
 21
16.9616
  0
LINE
  8
0
 10
-31.9139
 20
16.9616
 11
-31.9993
 21
16.9554
  0
LINE
  8
0
 10
-31.9993
 20
16.9554
 11
-32.0466
 21
16.9516
  0
LINE
  8
0
 10
-32.0466
 20
16.9516
 11
-32.4649
 21
16.9151
  0
LINE
  8
0
 10
-32.4649
 20
16.9151
 11
-32.7428
 21
16.8879
  0
LINE
  8
0
 10
-32.7428
 20
16.8879
 11
-32.9398
 21
16.868
  0
LINE
  8
0
 10
-32.9398
 20
16.868
 11
-33.4087
 21
16.815
  0
LINE
  8
0
 10
-33.4087
 20
16.815
 11
-33.4286
 21
16.8127
  0
LINE
  8
0
 10
-33.4286
 20
16.8127
 11
-34.0267
 21
16.7381
  0
LINE
  8
0
 10
-34.0267
 20
16.7381
 11
-34.1277
 21
16.7231
  0
LINE
  8
0
 10
-34.1277
 20
16.7231
 11
-34.2827
 21
16.6987
  0
LINE
  8
0
 10
-34.2827
 20
16.6987
 11
-34.2915
 21
16.6974
  0
LINE
  8
0
 10
-34.2915
 20
16.6974
 11
-34.8327
 21
16.6224
  0
LINE
  8
0
 10
-34.8327
 20
16.6224
 11
-35.1016
 21
16.5772
  0
LINE
  8
0
 10
-35.1016
 20
16.5772
 11
-35.1114
 21
16.5757
  0
LINE
  8
0
 10
-35.1114
 20
16.5757
 11
-35.5397
 21
16.5125
  0
LINE
  8
0
 10
-35.5397
 20
16.5125
 11
-35.8706
 21
16.462
  0
LINE
  8
0
 10
-35.8706
 20
16.462
 11
-36.7066
 21
16.3084
  0
LINE
  8
0
 10
-36.7066
 20
16.3084
 11
-36.7166
 21
16.3066
  0
LINE
  8
0
 10
-36.7166
 20
16.3066
 11
-36.9418
 21
16.2701
  0
LINE
  8
0
 10
-36.9418
 20
16.2701
 11
-37.2539
 21
16.2173
  0
LINE
  8
0
 10
-37.2539
 20
16.2173
 11
-38.3221
 21
15.9911
  0
LINE
  8
0
 10
-38.3221
 20
15.9911
 11
-39.3072
 21
15.7459
  0
LINE
  8
0
 10
-39.3072
 20
15.7459
 11
-39.3279
 21
15.7412
  0
LINE
  8
0
 10
-39.3279
 20
15.7412
 11
-39.7248
 21
15.6605
  0
LINE
  8
0
 10
-39.7248
 20
15.6605
 11
-40.4973
 21
15.4394
  0
LINE
  8
0
 10
-40.4973
 20
15.4394
 11
-41.0222
 21
15.2478
  0
LINE
  8
0
 10
-41.0222
 20
15.2478
 11
-41.0979
 21
15.1954
  0
LINE
  8
0
 10
-41.0979
 20
15.1954
 11
-41.1617
 21
15.1581
  0
LINE
  8
0
 10
-41.1617
 20
15.1581
 11
-42.3853
 21
14.5608
  0
LINE
  8
0
 10
-42.3853
 20
14.5608
 11
-43.1378
 21
13.9186
  0
LINE
  8
0
 10
-43.1378
 20
13.9186
 11
-43.1776
 21
13.888
  0
LINE
  8
0
 10
-43.1776
 20
13.888
 11
-43.738
 21
13.5014
  0
LINE
  8
0
 10
-43.738
 20
13.5014
 11
-44.2464
 21
12.9495
  0
LINE
  8
0
 10
-44.2464
 20
12.9495
 11
-44.6113
 21
12.3649
  0
LINE
  8
0
 10
-44.6113
 20
12.3649
 11
-45.0022
 21
11.2217
  0
LINE
  8
0
 10
-45.0022
 20
11.2217
 11
-45.8761
 21
8.64494
  0
LINE
  8
0
 10
-45.8761
 20
8.64494
 11
-46.3876
 21
4.89224
  0
LINE
  8
0
 10
-46.3876
 20
4.89224
 11
-46.4625
 21
4.33055
  0
LINE
  8
0
 10
-46.4625
 20
4.33055
 11
-46.4653
 21
4.22891
  0
LINE
  8
0
 10
-46.4653
 20
4.22891
 11
-46.4655
 21
4.22301
  0
LINE
  8
0
 10
-46.4655
 20
4.22301
 11
-46.6143
 21
0.490005
  0
LINE
  8
0
 10
-46.6143
 20
0.490005
 11
-1.18297
 21
0.490005
  0
LINE
  8
0
 10
-1.18297
 20
0.490005
 11
-17.7997
 21
17.1067
  0
ENDSEC
  0
SECTION
  2
OBJECTS
  0
DICTIONARY
  0
ENDSEC
  0
EOF
