  0
SECTION
  2
BLOCKS
  0
ENDSEC
  0
SECTION
  2
ENTITIES
  0
LINE
  8
0
 10
17.5792
 20
-14.1562
 11
17.8819
 21
-14.1094
  0
LINE
  8
0
 10
17.8819
 20
-14.1094
 11
18.1383
 21
-14.0637
  0
LINE
  8
0
 10
18.1383
 20
-14.0637
 11
20.4932
 21
-13.5747
  0
LINE
  8
0
 10
20.4932
 20
-13.5747
 11
22.2536
 21
-13.1383
  0
LINE
  8
0
 10
22.2536
 20
-13.1383
 11
22.8421
 21
-12.9764
  0
LINE
  8
0
 10
22.8421
 20
-12.9764
 11
23.6122
 21
-12.7261
  0
LINE
  8
0
 10
23.6122
 20
-12.7261
 11
24.9038
 21
-12.2552
  0
LINE
  8
0
 10
24.9038
 20
-12.2552
 11
25.4688
 21
-11.9989
  0
LINE
  8
0
 10
25.4688
 20
-11.9989
 11
26.6817
 21
-11.4193
  0
LINE
  8
0
 10
26.6817
 20
-11.4193
 11
27.8485
 21
-10.7329
  0
LINE
  8
0
 10
27.8485
 20
-10.7329
 11
28.2311
 21
-10.495
  0
LINE
  8
0
 10
28.2311
 20
-10.495
 11
29.2577
 21
-9.71754
  0
LINE
  8
0
 10
29.2577
 20
-9.71754
 11
29.5257
 21
-9.49121
  0
LINE
  8
0
 10
29.5257
 20
-9.49121
 11
29.5931
 21
-9.41214
  0
LINE
  8
0
 10
29.5931
 20
-9.41214
 11
29.6004
 21
-9.4037
  0
LINE
  8
0
 10
29.6004
 20
-9.4037
 11
30.6464
 21
-8.23184
  0
LINE
  8
0
 10
30.6464
 20
-8.23184
 11
30.7724
 21
-8.08231
  0
LINE
  8
0
 10
30.7724
 20
-8.08231
 11
30.9892
 21
-7.63699
  0
LINE
  8
0
 10
30.9892
 20
-7.63699
 11
31.0206
 21
-7.582
  0
LINE
  8
0
 10
31.0206
 20
-7.582
 11
31.6604
 21
-6.61066
  0
LINE
  8
0
 10
31.6604
 20
-6.61066
 11
31.6989
 21
-6.52715
  0
LINE
  8
0
 10
31.6989
 20
-6.52715
 11
31.7047
 21
-6.515
  0
LINE
  8
0
 10
31.7047
 20
-6.515
 11
32.0768
 21
-5.76283
  0
LINE
  8
0
 10
32.0768
 20
-5.76283
 11
32.5661
 21
-4.69083
  0
LINE
  8
0
 10
32.5661
 20
-4.69083
 11
32.5703
 21
-4.67403
  0
LINE
  8
0
 10
32.5703
 20
-4.67403
 11
32.758
 21
-4.13222
  0
LINE
  8
0
 10
32.758
 20
-4.13222
 11
32.8691
 21
-3.37601
  0
LINE
  8
0
 10
32.8691
 20
-3.37601
 11
32.8732
 21
-3.35234
  0
LINE
  8
0
 10
32.8732
 20
-3.35234
 11
32.9725
 21
-2.84921
  0
LINE
  8
0
 10
32.9725
 20
-2.84921
 11
33.3138
 21
-0.490005
  0
LINE
  8
0
 10
33.3138
 20
-0.490005
 11
33.2936
 21
-0.490005
  0
LINE
  8
0
 10
33.2936
 20
-0.490005
 11
32.9546
 21
-2.83353
  0
LINE
  8
0
 10
32.9546
 20
-2.83353
 11
32.9503
 21
-2.85829
  0
LINE
  8
0
 10
32.9503
 20
-2.85829
 11
32.8548
 21
-3.34215
  0
LINE
  8
0
 10
32.8548
 20
-3.34215
 11
32.8484
 21
-3.37903
  0
LINE
  8
0
 10
32.8484
 20
-3.37903
 11
32.7452
 21
-4.08185
  0
LINE
  8
0
 10
32.7452
 20
-4.08185
 11
32.7234
 21
-4.17102
  0
LINE
  8
0
 10
32.7234
 20
-4.17102
 11
32.5514
 21
-4.6675
  0
LINE
  8
0
 10
32.5514
 20
-4.6675
 11
32.5499
 21
-4.66696
  0
LINE
  8
0
 10
32.5499
 20
-4.66696
 11
32.533
 21
-4.71536
  0
LINE
  8
0
 10
32.533
 20
-4.71536
 11
32.0619
 21
-5.74731
  0
LINE
  8
0
 10
32.0619
 20
-5.74731
 11
32.0553
 21
-5.76108
  0
LINE
  8
0
 10
32.0553
 20
-5.76108
 11
31.6887
 21
-6.50221
  0
LINE
  8
0
 10
31.6887
 20
-6.50221
 11
31.6791
 21
-6.52226
  0
LINE
  8
0
 10
31.6791
 20
-6.52226
 11
31.6583
 21
-6.56743
  0
LINE
  8
0
 10
31.6583
 20
-6.56743
 11
31.6226
 21
-6.6317
  0
LINE
  8
0
 10
31.6226
 20
-6.6317
 11
31.0126
 21
-7.55785
  0
LINE
  8
0
 10
31.0126
 20
-7.55785
 11
30.9644
 21
-7.6423
  0
LINE
  8
0
 10
30.9644
 20
-7.6423
 11
30.782
 21
-8.01683
  0
LINE
  8
0
 10
30.782
 20
-8.01683
 11
30.7163
 21
-8.11778
  0
LINE
  8
0
 10
30.7163
 20
-8.11778
 11
30.6358
 21
-8.21349
  0
LINE
  8
0
 10
30.6358
 20
-8.21349
 11
30.6264
 21
-8.22421
  0
LINE
  8
0
 10
30.6264
 20
-8.22421
 11
29.5875
 21
-9.38811
  0
LINE
  8
0
 10
29.5875
 20
-9.38811
 11
29.5763
 21
-9.40102
  0
LINE
  8
0
 10
29.5763
 20
-9.40102
 11
29.5373
 21
-9.44672
  0
LINE
  8
0
 10
29.5373
 20
-9.44672
 11
29.4806
 21
-9.5031
  0
LINE
  8
0
 10
29.4806
 20
-9.5031
 11
29.255
 21
-9.69362
  0
LINE
  8
0
 10
29.255
 20
-9.69362
 11
29.2347
 21
-9.70987
  0
LINE
  8
0
 10
29.2347
 20
-9.70987
 11
28.2378
 21
-10.4648
  0
LINE
  8
0
 10
28.2378
 20
-10.4648
 11
28.2007
 21
-10.4903
  0
LINE
  8
0
 10
28.2007
 20
-10.4903
 11
27.8431
 21
-10.7128
  0
LINE
  8
0
 10
27.8431
 20
-10.7128
 11
27.8327
 21
-10.719
  0
LINE
  8
0
 10
27.8327
 20
-10.719
 11
26.6906
 21
-11.3908
  0
LINE
  8
0
 10
26.6906
 20
-11.3908
 11
26.6534
 21
-11.4106
  0
LINE
  8
0
 10
26.6534
 20
-11.4106
 11
25.4642
 21
-11.9789
  0
LINE
  8
0
 10
25.4642
 20
-11.9789
 11
25.4553
 21
-11.983
  0
LINE
  8
0
 10
25.4553
 20
-11.983
 11
24.9134
 21
-12.2289
  0
LINE
  8
0
 10
24.9134
 20
-12.2289
 11
24.8788
 21
-12.243
  0
LINE
  8
0
 10
24.8788
 20
-12.243
 11
23.6141
 21
-12.7041
  0
LINE
  8
0
 10
23.6141
 20
-12.7041
 11
23.5977
 21
-12.7098
  0
LINE
  8
0
 10
23.5977
 20
-12.7098
 11
22.8469
 21
-12.9538
  0
LINE
  8
0
 10
22.8469
 20
-12.9538
 11
22.8254
 21
-12.9603
  0
LINE
  8
0
 10
22.8254
 20
-12.9603
 11
22.2545
 21
-13.1173
  0
LINE
  8
0
 10
22.2545
 20
-13.1173
 11
22.2424
 21
-13.1204
  0
LINE
  8
0
 10
22.2424
 20
-13.1204
 11
20.498
 21
-13.553
  0
LINE
  8
0
 10
20.498
 20
-13.553
 11
20.4796
 21
-13.5571
  0
LINE
  8
0
 10
20.4796
 20
-13.5571
 11
18.1412
 21
-14.0426
  0
LINE
  8
0
 10
18.1412
 20
-14.0426
 11
18.1277
 21
-14.0452
  0
LINE
  8
0
 10
18.1277
 20
-14.0452
 11
17.8841
 21
-14.0887
  0
LINE
  8
0
 10
17.8841
 20
-14.0887
 11
17.8728
 21
-14.0906
  0
LINE
  8
0
 10
17.8728
 20
-14.0906
 11
17.5815
 21
-14.1356
  0
LINE
  8
0
 10
17.5815
 20
-14.1356
 11
17.5716
 21
-14.137
  0
LINE
  8
0
 10
17.5716
 20
-14.137
 11
15.1533
 21
-14.4604
  0
LINE
  8
0
 10
15.1533
 20
-14.4604
 11
15.1712
 21
-14.4782
  0
LINE
  8
0
 10
15.1712
 20
-14.4782
 11
17.5792
 21
-14.1562
  0
ENDSEC
  0
SECTION
  2
OBJECTS
  0
DICTIONARY
  0
ENDSEC
  0
EOF
