  0
SECTION
  2
BLOCKS
  0
ENDSEC
  0
SECTION
  2
ENTITIES
  0
LINE
  8
0
 10
27.9687
 20
1.65775
 11
27.8833
 21
1.97375
  0
LINE
  8
0
 10
27.8833
 20
1.97375
 11
27.8794
 21
1.98903
  0
LINE
  8
0
 10
27.8794
 20
1.98903
 11
27.5719
 21
3.29106
  0
LINE
  8
0
 10
27.5719
 20
3.29106
 11
27.3569
 21
3.75789
  0
LINE
  8
0
 10
27.3569
 20
3.75789
 11
27.3479
 21
3.77881
  0
LINE
  8
0
 10
27.3479
 20
3.77881
 11
26.8977
 21
4.88998
  0
LINE
  8
0
 10
26.8977
 20
4.88998
 11
26.4112
 21
5.61803
  0
LINE
  8
0
 10
26.4112
 20
5.61803
 11
26.397
 21
5.64055
  0
LINE
  8
0
 10
26.397
 20
5.64055
 11
25.9206
 21
6.44489
  0
LINE
  8
0
 10
25.9206
 20
6.44489
 11
24.9103
 21
7.56166
  0
LINE
  8
0
 10
24.9103
 20
7.56166
 11
24.8926
 21
7.58235
  0
LINE
  8
0
 10
24.8926
 20
7.58235
 11
24.5993
 21
7.94518
  0
LINE
  8
0
 10
24.5993
 20
7.94518
 11
23.4897
 21
8.88213
  0
LINE
  8
0
 10
23.4897
 20
8.88213
 11
22.803
 21
9.34059
  0
LINE
  8
0
 10
22.803
 20
9.34059
 11
22.0579
 21
9.70528
  0
LINE
  8
0
 10
22.0579
 20
9.70528
 11
22.0493
 21
9.70958
  0
LINE
  8
0
 10
22.0493
 20
9.70958
 11
20.1071
 21
10.7078
  0
LINE
  8
0
 10
20.1071
 20
10.7078
 11
18.0898
 21
11.4764
  0
LINE
  8
0
 10
18.0898
 20
11.4764
 11
16.3456
 21
11.9714
  0
LINE
  8
0
 10
16.3456
 20
11.9714
 11
13.3214
 21
12.6284
  0
LINE
  8
0
 10
13.3214
 20
12.6284
 11
13.3045
 21
12.6116
  0
LINE
  8
0
 10
13.3045
 20
12.6116
 11
16.3256
 21
11.9553
  0
LINE
  8
0
 10
16.3256
 20
11.9553
 11
16.3553
 21
11.9479
  0
LINE
  8
0
 10
16.3553
 20
11.9479
 11
18.0628
 21
11.4633
  0
LINE
  8
0
 10
18.0628
 20
11.4633
 11
18.1035
 21
11.4498
  0
LINE
  8
0
 10
18.1035
 20
11.4498
 11
20.0735
 21
10.6991
  0
LINE
  8
0
 10
20.0735
 20
10.6991
 11
20.123
 21
10.6771
  0
LINE
  8
0
 10
20.123
 20
10.6771
 11
22.0381
 21
9.69281
  0
LINE
  8
0
 10
22.0381
 20
9.69281
 11
22.0501
 21
9.68683
  0
LINE
  8
0
 10
22.0501
 20
9.68683
 11
22.7636
 21
9.33766
  0
LINE
  8
0
 10
22.7636
 20
9.33766
 11
22.8203
 21
9.30504
  0
LINE
  8
0
 10
22.8203
 20
9.30504
 11
23.4547
 21
8.88139
  0
LINE
  8
0
 10
23.4547
 20
8.88139
 11
23.4987
 21
8.84828
  0
LINE
  8
0
 10
23.4987
 20
8.84828
 11
24.5493
 21
7.96124
  0
LINE
  8
0
 10
24.5493
 20
7.96124
 11
24.6143
 21
7.89488
  0
LINE
  8
0
 10
24.6143
 20
7.89488
 11
24.8727
 21
7.57512
  0
LINE
  8
0
 10
24.8727
 20
7.57512
 11
24.8999
 21
7.54337
  0
LINE
  8
0
 10
24.8999
 20
7.54337
 11
25.8714
 21
6.46951
  0
LINE
  8
0
 10
25.8714
 20
6.46951
 11
25.9296
 21
6.39047
  0
LINE
  8
0
 10
25.9296
 20
6.39047
 11
26.3764
 21
5.63614
  0
LINE
  8
0
 10
26.3764
 20
5.63614
 11
26.3982
 21
5.60149
  0
LINE
  8
0
 10
26.3982
 20
5.60149
 11
26.852
 21
4.9223
  0
LINE
  8
0
 10
26.852
 20
4.9223
 11
26.8988
 21
4.83405
  0
LINE
  8
0
 10
26.8988
 20
4.83405
 11
27.3271
 21
3.77664
  0
LINE
  8
0
 10
27.3271
 20
3.77664
 11
27.3413
 21
3.74387
  0
LINE
  8
0
 10
27.3413
 20
3.74387
 11
27.5324
 21
3.32901
  0
LINE
  8
0
 10
27.5324
 20
3.32901
 11
27.5642
 21
3.23669
  0
LINE
  8
0
 10
27.5642
 20
3.23669
 11
27.8592
 21
1.98763
  0
LINE
  8
0
 10
27.8592
 20
1.98763
 11
27.865
 21
1.96486
  0
LINE
  8
0
 10
27.865
 20
1.96486
 11
27.9369
 21
1.69856
  0
LINE
  8
0
 10
27.9369
 20
1.69856
 11
27.9525
 21
1.60858
  0
LINE
  8
0
 10
27.9525
 20
1.60858
 11
28.0392
 21
0.490005
  0
LINE
  8
0
 10
28.0392
 20
0.490005
 11
28.0593
 21
0.490005
  0
LINE
  8
0
 10
28.0593
 20
0.490005
 11
27.9687
 21
1.65775
  0
ENDSEC
  0
SECTION
  2
OBJECTS
  0
DICTIONARY
  0
ENDSEC
  0
EOF
