  0
SECTION
  2
BLOCKS
  0
ENDSEC
  0
SECTION
  2
ENTITIES
  0
LINE
  8
0
 10
-21.8894
 20
2.78886
 11
-21.8869
 21
2.80745
  0
LINE
  8
0
 10
-21.8869
 20
2.80745
 11
-21.8357
 21
3.22139
  0
LINE
  8
0
 10
-21.8357
 20
3.22139
 11
-21.7927
 21
3.37004
  0
LINE
  8
0
 10
-21.7927
 20
3.37004
 11
-21.0158
 21
5.01944
  0
LINE
  8
0
 10
-21.0158
 20
5.01944
 11
-21.0084
 21
5.03452
  0
LINE
  8
0
 10
-21.0084
 20
5.03452
 11
-20.4068
 21
6.20595
  0
LINE
  8
0
 10
-20.4068
 20
6.20595
 11
-20.3637
 21
6.27493
  0
LINE
  8
0
 10
-20.3637
 20
6.27493
 11
-20.2927
 21
6.37024
  0
LINE
  8
0
 10
-20.2927
 20
6.37024
 11
-20.2745
 21
6.39322
  0
LINE
  8
0
 10
-20.2745
 20
6.39322
 11
-19.4105
 21
7.41801
  0
LINE
  8
0
 10
-19.4105
 20
7.41801
 11
-19.3786
 21
7.45236
  0
LINE
  8
0
 10
-19.3786
 20
7.45236
 11
-18.9467
 21
7.87518
  0
LINE
  8
0
 10
-18.9467
 20
7.87518
 11
-18.9323
 21
7.88872
  0
LINE
  8
0
 10
-18.9323
 20
7.88872
 11
-18.2039
 21
8.5463
  0
LINE
  8
0
 10
-18.2039
 20
8.5463
 11
-18.1664
 21
8.57692
  0
LINE
  8
0
 10
-18.1664
 20
8.57692
 11
-17.1566
 21
9.32169
  0
LINE
  8
0
 10
-17.1566
 20
9.32169
 11
-17.1458
 21
9.3295
  0
LINE
  8
0
 10
-17.1458
 20
9.3295
 11
-16.7701
 21
9.59105
  0
LINE
  8
0
 10
-16.7701
 20
9.59105
 11
-16.7304
 21
9.61595
  0
LINE
  8
0
 10
-16.7304
 20
9.61595
 11
-15.5967
 21
10.2538
  0
LINE
  8
0
 10
-15.5967
 20
10.2538
 11
-15.575
 21
10.2653
  0
LINE
  8
0
 10
-15.575
 20
10.2653
 11
-15.0454
 21
10.5292
  0
LINE
  8
0
 10
-15.0454
 20
10.5292
 11
-15.0159
 21
10.5427
  0
LINE
  8
0
 10
-15.0159
 20
10.5427
 11
-14.7157
 21
10.6682
  0
LINE
  8
0
 10
-14.7157
 20
10.6682
 11
-14.7022
 21
10.6736
  0
LINE
  8
0
 10
-14.7022
 20
10.6736
 11
-12.9693
 21
11.3385
  0
LINE
  8
0
 10
-12.9693
 20
11.3385
 11
-12.942
 21
11.3481
  0
LINE
  8
0
 10
-12.942
 20
11.3481
 11
-12.2582
 21
11.5653
  0
LINE
  8
0
 10
-12.2582
 20
11.5653
 11
-12.2741
 21
11.5812
  0
LINE
  8
0
 10
-12.2741
 20
11.5812
 11
-12.9624
 21
11.3625
  0
LINE
  8
0
 10
-12.9624
 20
11.3625
 11
-14.7164
 21
10.6896
  0
LINE
  8
0
 10
-14.7164
 20
10.6896
 11
-15.0392
 21
10.5546
  0
LINE
  8
0
 10
-15.0392
 20
10.5546
 11
-15.5953
 21
10.2775
  0
LINE
  8
0
 10
-15.5953
 20
10.2775
 11
-16.7614
 21
9.62149
  0
LINE
  8
0
 10
-16.7614
 20
9.62149
 11
-17.163
 21
9.34184
  0
LINE
  8
0
 10
-17.163
 20
9.34184
 11
-18.1986
 21
8.57803
  0
LINE
  8
0
 10
-18.1986
 20
8.57803
 11
-18.9535
 21
7.89651
  0
LINE
  8
0
 10
-18.9535
 20
7.89651
 11
-19.41
 21
7.4496
  0
LINE
  8
0
 10
-19.41
 20
7.4496
 11
-20.2997
 21
6.39432
  0
LINE
  8
0
 10
-20.2997
 20
6.39432
 11
-20.4052
 21
6.25288
  0
LINE
  8
0
 10
-20.4052
 20
6.25288
 11
-21.0301
 21
5.03601
  0
LINE
  8
0
 10
-21.0301
 20
5.03601
 11
-21.8455
 21
3.30476
  0
LINE
  8
0
 10
-21.8455
 20
3.30476
 11
-21.9071
 21
2.80681
  0
LINE
  8
0
 10
-21.9071
 20
2.80681
 11
-21.9088
 21
2.79428
  0
LINE
  8
0
 10
-21.9088
 20
2.79428
 11
-22.2543
 21
0.490005
  0
LINE
  8
0
 10
-22.2543
 20
0.490005
 11
-22.2341
 21
0.490005
  0
LINE
  8
0
 10
-22.2341
 20
0.490005
 11
-21.8894
 21
2.78886
  0
ENDSEC
  0
SECTION
  2
OBJECTS
  0
DICTIONARY
  0
ENDSEC
  0
EOF
