  0
SECTION
  2
BLOCKS
  0
ENDSEC
  0
SECTION
  2
ENTITIES
  0
LINE
  8
0
 10
-12.22
 20
-11.527
 11
-12.8111
 21
-11.3166
  0
LINE
  8
0
 10
-12.8111
 20
-11.3166
 11
-12.8176
 21
-11.3143
  0
LINE
  8
0
 10
-12.8176
 20
-11.3143
 11
-14.6821
 21
-10.6759
  0
LINE
  8
0
 10
-14.6821
 20
-10.6759
 11
-14.7312
 21
-10.6561
  0
LINE
  8
0
 10
-14.7312
 20
-10.6561
 11
-15.5679
 21
-10.2641
  0
LINE
  8
0
 10
-15.5679
 20
-10.2641
 11
-15.6068
 21
-10.2437
  0
LINE
  8
0
 10
-15.6068
 20
-10.2437
 11
-17.2113
 21
-9.30876
  0
LINE
  8
0
 10
-17.2113
 20
-9.30876
 11
-17.2502
 21
-9.28354
  0
LINE
  8
0
 10
-17.2502
 20
-9.28354
 11
-17.6379
 21
-9.00542
  0
LINE
  8
0
 10
-17.6379
 20
-9.00542
 11
-17.6928
 21
-8.95959
  0
LINE
  8
0
 10
-17.6928
 20
-8.95959
 11
-18.2919
 21
-8.38057
  0
LINE
  8
0
 10
-18.2919
 20
-8.38057
 11
-18.3079
 21
-8.36551
  0
LINE
  8
0
 10
-18.3079
 20
-8.36551
 11
-19.31
 21
-7.45244
  0
LINE
  8
0
 10
-19.31
 20
-7.45244
 11
-19.3399
 21
-7.42279
  0
LINE
  8
0
 10
-19.3399
 20
-7.42279
 11
-20.2462
 21
-6.44203
  0
LINE
  8
0
 10
-20.2462
 20
-6.44203
 11
-20.3199
 21
-6.33781
  0
LINE
  8
0
 10
-20.3199
 20
-6.33781
 11
-21.0148
 21
-5.0183
  0
LINE
  8
0
 10
-21.0148
 20
-5.0183
 11
-21.0187
 21
-5.01076
  0
LINE
  8
0
 10
-21.0187
 20
-5.01076
 11
-21.5742
 21
-3.91005
  0
LINE
  8
0
 10
-21.5742
 20
-3.91005
 11
-21.5897
 21
-3.87637
  0
LINE
  8
0
 10
-21.5897
 20
-3.87637
 11
-21.7992
 21
-3.36919
  0
LINE
  8
0
 10
-21.7992
 20
-3.36919
 11
-21.8327
 21
-3.2422
  0
LINE
  8
0
 10
-21.8327
 20
-3.2422
 11
-21.8869
 21
-2.8033
  0
LINE
  8
0
 10
-21.8869
 20
-2.8033
 11
-21.8894
 21
-2.78548
  0
LINE
  8
0
 10
-21.8894
 20
-2.78548
 11
-22.2336
 21
-0.490005
  0
LINE
  8
0
 10
-22.2336
 20
-0.490005
 11
-22.2538
 21
-0.490005
  0
LINE
  8
0
 10
-22.2538
 20
-0.490005
 11
-21.9088
 21
-2.79065
  0
LINE
  8
0
 10
-21.9088
 20
-2.79065
 11
-21.9071
 21
-2.80318
  0
LINE
  8
0
 10
-21.9071
 20
-2.80318
 11
-21.8441
 21
-3.31313
  0
LINE
  8
0
 10
-21.8441
 20
-3.31313
 11
-21.6009
 21
-3.90173
  0
LINE
  8
0
 10
-21.6009
 20
-3.90173
 11
-21.0341
 21
-5.02444
  0
LINE
  8
0
 10
-21.0341
 20
-5.02444
 11
-20.3063
 21
-6.40639
  0
LINE
  8
0
 10
-20.3063
 20
-6.40639
 11
-19.3397
 21
-7.45248
  0
LINE
  8
0
 10
-19.3397
 20
-7.45248
 11
-18.3187
 21
-8.38277
  0
LINE
  8
0
 10
-18.3187
 20
-8.38277
 11
-18.3082
 21
-8.39264
  0
LINE
  8
0
 10
-18.3082
 20
-8.39264
 11
-17.6799
 21
-8.99988
  0
LINE
  8
0
 10
-17.6799
 20
-8.99988
 11
-17.2422
 21
-9.31389
  0
LINE
  8
0
 10
-17.2422
 20
-9.31389
 11
-15.5972
 21
-10.2725
  0
LINE
  8
0
 10
-15.5972
 20
-10.2725
 11
-14.7146
 21
-10.6859
  0
LINE
  8
0
 10
-14.7146
 20
-10.6859
 11
-12.8234
 21
-11.3335
  0
LINE
  8
0
 10
-12.8234
 20
-11.3335
 11
-12.8178
 21
-11.3354
  0
LINE
  8
0
 10
-12.8178
 20
-11.3354
 11
-12.2356
 21
-11.5426
  0
LINE
  8
0
 10
-12.2356
 20
-11.5426
 11
-12.22
 21
-11.527
  0
ENDSEC
  0
SECTION
  2
OBJECTS
  0
DICTIONARY
  0
ENDSEC
  0
EOF
