  0
SECTION
  2
BLOCKS
  0
ENDSEC
  0
SECTION
  2
ENTITIES
  0
LINE
  8
0
 10
14.52
 20
-12.3927
 11
16.3464
 21
-11.9677
  0
LINE
  8
0
 10
16.3464
 20
-11.9677
 11
17.1505
 21
-11.7547
  0
LINE
  8
0
 10
17.1505
 20
-11.7547
 11
18.0908
 21
-11.4727
  0
LINE
  8
0
 10
18.0908
 20
-11.4727
 11
19.3931
 21
-11.0047
  0
LINE
  8
0
 10
19.3931
 20
-11.0047
 11
20.1086
 21
-10.7042
  0
LINE
  8
0
 10
20.1086
 20
-10.7042
 11
21.3036
 21
-10.1472
  0
LINE
  8
0
 10
21.3036
 20
-10.1472
 11
22.8045
 21
-9.33723
  0
LINE
  8
0
 10
22.8045
 20
-9.33723
 11
23.0061
 21
-9.21512
  0
LINE
  8
0
 10
23.0061
 20
-9.21512
 11
23.4903
 21
-8.87859
  0
LINE
  8
0
 10
23.4903
 20
-8.87859
 11
24.3837
 21
-8.15526
  0
LINE
  8
0
 10
24.3837
 20
-8.15526
 11
24.6007
 21
-7.94312
  0
LINE
  8
0
 10
24.6007
 20
-7.94312
 11
25.5058
 21
-6.9756
  0
LINE
  8
0
 10
25.5058
 20
-6.9756
 11
25.9215
 21
-6.44382
  0
LINE
  8
0
 10
25.9215
 20
-6.44382
 11
26.4258
 21
-5.7083
  0
LINE
  8
0
 10
26.4258
 20
-5.7083
 11
26.8981
 21
-4.88995
  0
LINE
  8
0
 10
26.8981
 20
-4.88995
 11
27.1502
 21
-4.35239
  0
LINE
  8
0
 10
27.1502
 20
-4.35239
 11
27.5721
 21
-3.29214
  0
LINE
  8
0
 10
27.5721
 20
-3.29214
 11
27.6773
 21
-2.90706
  0
LINE
  8
0
 10
27.6773
 20
-2.90706
 11
27.9688
 21
-1.65959
  0
LINE
  8
0
 10
27.9688
 20
-1.65959
 11
27.9949
 21
-1.36855
  0
LINE
  8
0
 10
27.9949
 20
-1.36855
 11
28.0627
 21
-0.490005
  0
LINE
  8
0
 10
28.0627
 20
-0.490005
 11
28.0427
 21
-0.490005
  0
LINE
  8
0
 10
28.0427
 20
-0.490005
 11
27.9752
 21
-1.36377
  0
LINE
  8
0
 10
27.9752
 20
-1.36377
 11
27.9747
 21
-1.36983
  0
LINE
  8
0
 10
27.9747
 20
-1.36983
 11
27.952
 21
-1.62227
  0
LINE
  8
0
 10
27.952
 20
-1.62227
 11
27.9411
 21
-1.68991
  0
LINE
  8
0
 10
27.9411
 20
-1.68991
 11
27.6602
 21
-2.89273
  0
LINE
  8
0
 10
27.6602
 20
-2.89273
 11
27.6557
 21
-2.91052
  0
LINE
  8
0
 10
27.6557
 20
-2.91052
 11
27.5603
 21
-3.25932
  0
LINE
  8
0
 10
27.5603
 20
-3.25932
 11
27.5429
 21
-3.31125
  0
LINE
  8
0
 10
27.5429
 20
-3.31125
 11
27.1372
 21
-4.33089
  0
LINE
  8
0
 10
27.1372
 20
-4.33089
 11
27.1256
 21
-4.35776
  0
LINE
  8
0
 10
27.1256
 20
-4.35776
 11
26.8892
 21
-4.86176
  0
LINE
  8
0
 10
26.8892
 20
-4.86176
 11
26.8699
 21
-4.89867
  0
LINE
  8
0
 10
26.8699
 20
-4.89867
 11
26.4183
 21
-5.68123
  0
LINE
  8
0
 10
26.4183
 20
-5.68123
 11
26.398
 21
-5.71335
  0
LINE
  8
0
 10
26.398
 20
-5.71335
 11
25.9141
 21
-6.41925
  0
LINE
  8
0
 10
25.9141
 20
-6.41925
 11
25.896
 21
-6.44395
  0
LINE
  8
0
 10
25.896
 20
-6.44395
 11
25.5039
 21
-6.94559
  0
LINE
  8
0
 10
25.5039
 20
-6.94559
 11
25.4756
 21
-6.97856
  0
LINE
  8
0
 10
25.4756
 20
-6.97856
 11
24.5939
 21
-7.92117
  0
LINE
  8
0
 10
24.5939
 20
-7.92117
 11
24.5786
 21
-7.93681
  0
LINE
  8
0
 10
24.5786
 20
-7.93681
 11
24.3868
 21
-8.12425
  0
LINE
  8
0
 10
24.3868
 20
-8.12425
 11
24.3526
 21
-8.15471
  0
LINE
  8
0
 10
24.3526
 20
-8.15471
 11
23.4922
 21
-8.85124
  0
LINE
  8
0
 10
23.4922
 20
-8.85124
 11
23.4636
 21
-8.87274
  0
LINE
  8
0
 10
23.4636
 20
-8.87274
 11
23.0079
 21
-9.18954
  0
LINE
  8
0
 10
23.0079
 20
-9.18954
 11
22.982
 21
-9.20634
  0
LINE
  8
0
 10
22.982
 20
-9.20634
 11
22.8048
 21
-9.31364
  0
LINE
  8
0
 10
22.8048
 20
-9.31364
 11
22.7837
 21
-9.32571
  0
LINE
  8
0
 10
22.7837
 20
-9.32571
 11
21.3074
 21
-10.1224
  0
LINE
  8
0
 10
21.3074
 20
-10.1224
 11
21.2817
 21
-10.1353
  0
LINE
  8
0
 10
21.2817
 20
-10.1353
 11
20.1087
 21
-10.6821
  0
LINE
  8
0
 10
20.1087
 20
-10.6821
 11
20.0914
 21
-10.6897
  0
LINE
  8
0
 10
20.0914
 20
-10.6897
 11
19.3981
 21
-10.981
  0
LINE
  8
0
 10
19.3981
 20
-10.981
 11
19.374
 21
-10.9903
  0
LINE
  8
0
 10
19.374
 20
-10.9903
 11
18.0967
 21
-11.4494
  0
LINE
  8
0
 10
18.0967
 20
-11.4494
 11
18.0717
 21
-11.4576
  0
LINE
  8
0
 10
18.0717
 20
-11.4576
 11
17.153
 21
-11.7331
  0
LINE
  8
0
 10
17.153
 20
-11.7331
 11
17.1378
 21
-11.7374
  0
LINE
  8
0
 10
17.1378
 20
-11.7374
 11
16.3488
 21
-11.9464
  0
LINE
  8
0
 10
16.3488
 20
-11.9464
 11
16.3343
 21
-11.95
  0
LINE
  8
0
 10
16.3343
 20
-11.95
 11
14.5222
 21
-12.3716
  0
LINE
  8
0
 10
14.5222
 20
-12.3716
 11
14.5089
 21
-12.3745
  0
LINE
  8
0
 10
14.5089
 20
-12.3745
 11
13.3114
 21
-12.6184
  0
LINE
  8
0
 10
13.3114
 20
-12.6184
 11
13.3284
 21
-12.6354
  0
LINE
  8
0
 10
13.3284
 20
-12.6354
 11
14.52
 21
-12.3927
  0
ENDSEC
  0
SECTION
  2
OBJECTS
  0
DICTIONARY
  0
ENDSEC
  0
EOF
