  0
SECTION
  2
BLOCKS
  0
ENDSEC
  0
SECTION
  2
ENTITIES
  0
LINE
  8
0
 10
-33.1221
 20
-16.8443
 11
-33.098
 21
-16.8466
  0
LINE
  8
0
 10
-33.098
 20
-16.8466
 11
-33.092
 21
-16.8472
  0
LINE
  8
0
 10
-33.092
 20
-16.8472
 11
-32.8066
 21
-16.878
  0
LINE
  8
0
 10
-32.8066
 20
-16.878
 11
-32.7485
 21
-16.8832
  0
LINE
  8
0
 10
-32.7485
 20
-16.8832
 11
-32.7433
 21
-16.8837
  0
LINE
  8
0
 10
-32.7433
 20
-16.8837
 11
-32.4949
 21
-16.9085
  0
LINE
  8
0
 10
-32.4949
 20
-16.9085
 11
-32.3989
 21
-16.9165
  0
LINE
  8
0
 10
-32.3989
 20
-16.9165
 11
-32.1862
 21
-16.936
  0
LINE
  8
0
 10
-32.1862
 20
-16.936
 11
-32.0467
 21
-16.9467
  0
LINE
  8
0
 10
-32.0467
 20
-16.9467
 11
-31.879
 21
-16.9607
  0
LINE
  8
0
 10
-31.879
 20
-16.9607
 11
-31.6992
 21
-16.9731
  0
LINE
  8
0
 10
-31.6992
 20
-16.9731
 11
-31.4747
 21
-16.9896
  0
LINE
  8
0
 10
-31.4747
 20
-16.9896
 11
-31.3557
 21
-16.9969
  0
LINE
  8
0
 10
-31.3557
 20
-16.9969
 11
-30.7554
 21
-17.029
  0
LINE
  8
0
 10
-30.7554
 20
-17.029
 11
-30.6569
 21
-17.0338
  0
LINE
  8
0
 10
-30.6569
 20
-17.0338
 11
-30.4706
 21
-17.0405
  0
LINE
  8
0
 10
-30.4706
 20
-17.0405
 11
-29.9608
 21
-17.0592
  0
LINE
  8
0
 10
-29.9608
 20
-17.0592
 11
-29.7525
 21
-17.0627
  0
LINE
  8
0
 10
-29.7525
 20
-17.0627
 11
-29.6303
 21
-17.0643
  0
LINE
  8
0
 10
-29.6303
 20
-17.0643
 11
-28.7974
 21
-17.0757
  0
LINE
  8
0
 10
-28.7974
 20
-17.0757
 11
-28.0773
 21
-17.0831
  0
LINE
  8
0
 10
-28.0773
 20
-17.0831
 11
-27.7533
 21
-17.0865
  0
LINE
  8
0
 10
-27.7533
 20
-17.0865
 11
-27.1558
 21
-17.0909
  0
LINE
  8
0
 10
-27.1558
 20
-17.0909
 11
-26.655
 21
-17.0906
  0
LINE
  8
0
 10
-26.655
 20
-17.0906
 11
-25.7491
 21
-17.0895
  0
LINE
  8
0
 10
-25.7491
 20
-17.0895
 11
-25.4849
 21
-17.0894
  0
LINE
  8
0
 10
-25.4849
 20
-17.0894
 11
-24.3387
 21
-17.0885
  0
LINE
  8
0
 10
-24.3387
 20
-17.0885
 11
-24.1311
 21
-17.0892
  0
LINE
  8
0
 10
-24.1311
 20
-17.0892
 11
-23.7899
 21
-17.0902
  0
LINE
  8
0
 10
-23.7899
 20
-17.0902
 11
-22.4409
 21
-17.0933
  0
LINE
  8
0
 10
-22.4409
 20
-17.0933
 11
-21.5196
 21
-17.0952
  0
LINE
  8
0
 10
-21.5196
 20
-17.0952
 11
-20.3093
 21
-17.0999
  0
LINE
  8
0
 10
-20.3093
 20
-17.0999
 11
-19.2314
 21
-17.1016
  0
LINE
  8
0
 10
-19.2314
 20
-17.1016
 11
-18.0779
 21
-17.1034
  0
LINE
  8
0
 10
-18.0779
 20
-17.1034
 11
-17.7969
 21
-17.1039
  0
LINE
  8
0
 10
-17.7969
 20
-17.1039
 11
-1.18297
 21
-0.490005
  0
LINE
  8
0
 10
-1.18297
 20
-0.490005
 11
-46.6188
 21
-0.490005
  0
LINE
  8
0
 10
-46.6188
 20
-0.490005
 11
-46.4626
 21
-4.33437
  0
LINE
  8
0
 10
-46.4626
 20
-4.33437
 11
-46.4552
 21
-4.4167
  0
LINE
  8
0
 10
-46.4552
 20
-4.4167
 11
-46.3881
 21
-4.88641
  0
LINE
  8
0
 10
-46.3881
 20
-4.88641
 11
-46.3869
 21
-4.89484
  0
LINE
  8
0
 10
-46.3869
 20
-4.89484
 11
-46.0458
 21
-7.6162
  0
LINE
  8
0
 10
-46.0458
 20
-7.6162
 11
-45.8762
 21
-8.64758
  0
LINE
  8
0
 10
-45.8762
 20
-8.64758
 11
-45.4736
 21
-10.0777
  0
LINE
  8
0
 10
-45.4736
 20
-10.0777
 11
-45.0131
 21
-11.1891
  0
LINE
  8
0
 10
-45.0131
 20
-11.1891
 11
-45.0022
 21
-11.2181
  0
LINE
  8
0
 10
-45.0022
 20
-11.2181
 11
-44.6113
 21
-12.3611
  0
LINE
  8
0
 10
-44.6113
 20
-12.3611
 11
-44.2354
 21
-12.9633
  0
LINE
  8
0
 10
-44.2354
 20
-12.9633
 11
-43.958
 21
-13.3199
  0
LINE
  8
0
 10
-43.958
 20
-13.3199
 11
-43.7493
 21
-13.4922
  0
LINE
  8
0
 10
-43.7493
 20
-13.4922
 11
-43.7155
 21
-13.5228
  0
LINE
  8
0
 10
-43.7155
 20
-13.5228
 11
-43.0905
 21
-14.1454
  0
LINE
  8
0
 10
-43.0905
 20
-14.1454
 11
-42.4073
 21
-14.548
  0
LINE
  8
0
 10
-42.4073
 20
-14.548
 11
-42.3675
 21
-14.5742
  0
LINE
  8
0
 10
-42.3675
 20
-14.5742
 11
-41.9192
 21
-14.9009
  0
LINE
  8
0
 10
-41.9192
 20
-14.9009
 11
-41.0683
 21
-15.2392
  0
LINE
  8
0
 10
-41.0683
 20
-15.2392
 11
-41.0405
 21
-15.2513
  0
LINE
  8
0
 10
-41.0405
 20
-15.2513
 11
-40.8878
 21
-15.3232
  0
LINE
  8
0
 10
-40.8878
 20
-15.3232
 11
-40.5129
 21
-15.4312
  0
LINE
  8
0
 10
-40.5129
 20
-15.4312
 11
-39.7246
 21
-15.6568
  0
LINE
  8
0
 10
-39.7246
 20
-15.6568
 11
-39.3283
 21
-15.7374
  0
LINE
  8
0
 10
-39.3283
 20
-15.7374
 11
-39.3075
 21
-15.7421
  0
LINE
  8
0
 10
-39.3075
 20
-15.7421
 11
-38.3292
 21
-15.9856
  0
LINE
  8
0
 10
-38.3292
 20
-15.9856
 11
-37.9805
 21
-16.0486
  0
LINE
  8
0
 10
-37.9805
 20
-16.0486
 11
-37.9572
 21
-16.0534
  0
LINE
  8
0
 10
-37.9572
 20
-16.0534
 11
-37.3506
 21
-16.1937
  0
LINE
  8
0
 10
-37.3506
 20
-16.1937
 11
-36.9412
 21
-16.2623
  0
LINE
  8
0
 10
-36.9412
 20
-16.2623
 11
-36.9179
 21
-16.2668
  0
LINE
  8
0
 10
-36.9179
 20
-16.2668
 11
-36.695
 21
-16.3154
  0
LINE
  8
0
 10
-36.695
 20
-16.3154
 11
-36.2397
 21
-16.3884
  0
LINE
  8
0
 10
-36.2397
 20
-16.3884
 11
-36.2175
 21
-16.3925
  0
LINE
  8
0
 10
-36.2175
 20
-16.3925
 11
-36.0359
 21
-16.4303
  0
LINE
  8
0
 10
-36.0359
 20
-16.4303
 11
-35.538
 21
-16.5065
  0
LINE
  8
0
 10
-35.538
 20
-16.5065
 11
-35.5251
 21
-16.5087
  0
LINE
  8
0
 10
-35.5251
 20
-16.5087
 11
-35.2471
 21
-16.5589
  0
LINE
  8
0
 10
-35.2471
 20
-16.5589
 11
-34.8378
 21
-16.6181
  0
LINE
  8
0
 10
-34.8378
 20
-16.6181
 11
-34.2915
 21
-16.6938
  0
LINE
  8
0
 10
-34.2915
 20
-16.6938
 11
-34.2827
 21
-16.6951
  0
LINE
  8
0
 10
-34.2827
 20
-16.6951
 11
-34.1321
 21
-16.7188
  0
LINE
  8
0
 10
-34.1321
 20
-16.7188
 11
-33.8257
 21
-16.7587
  0
LINE
  8
0
 10
-33.8257
 20
-16.7587
 11
-33.8181
 21
-16.7597
  0
LINE
  8
0
 10
-33.8181
 20
-16.7597
 11
-33.7513
 21
-16.7695
  0
LINE
  8
0
 10
-33.7513
 20
-16.7695
 11
-33.4394
 21
-16.8077
  0
LINE
  8
0
 10
-33.4394
 20
-16.8077
 11
-33.4034
 21
-16.8119
  0
LINE
  8
0
 10
-33.4034
 20
-16.8119
 11
-33.1221
 21
-16.8443
  0
ENDSEC
  0
SECTION
  2
OBJECTS
  0
DICTIONARY
  0
ENDSEC
  0
EOF
