  0
SECTION
  2
BLOCKS
  0
ENDSEC
  0
SECTION
  2
ENTITIES
  0
LINE
  8
0
 10
21.6295
 20
0.940582
 11
21.6194
 21
0.997284
  0
LINE
  8
0
 10
21.6194
 20
0.997284
 11
21.4764
 21
2.20201
  0
LINE
  8
0
 10
21.4764
 20
2.20201
 11
21.1299
 21
3.24222
  0
LINE
  8
0
 10
21.1299
 20
3.24222
 11
20.6512
 21
4.01596
  0
LINE
  8
0
 10
20.6512
 20
4.01596
 11
20.6424
 21
4.03076
  0
LINE
  8
0
 10
20.6424
 20
4.03076
 11
20.1848
 21
4.83221
  0
LINE
  8
0
 10
20.1848
 20
4.83221
 11
19.0803
 21
6.06325
  0
LINE
  8
0
 10
19.0803
 20
6.06325
 11
19.0687
 21
6.07661
  0
LINE
  8
0
 10
19.0687
 20
6.07661
 11
18.8089
 21
6.38806
  0
LINE
  8
0
 10
18.8089
 20
6.38806
 11
17.9862
 21
7.06612
  0
LINE
  8
0
 10
17.9862
 20
7.06612
 11
16.6827
 21
7.73596
  0
LINE
  8
0
 10
16.6827
 20
7.73596
 11
16.6561
 21
7.75072
  0
LINE
  8
0
 10
16.6561
 20
7.75072
 11
15.17
 21
8.63522
  0
LINE
  8
0
 10
15.17
 20
8.63522
 11
14.7449
 21
8.84898
  0
LINE
  8
0
 10
14.7449
 20
8.84898
 11
13.7358
 21
9.30934
  0
LINE
  8
0
 10
13.7358
 20
9.30934
 11
12.4069
 21
9.74654
  0
LINE
  8
0
 10
12.4069
 20
9.74654
 11
11.1785
 21
10.0623
  0
LINE
  8
0
 10
11.1785
 20
10.0623
 11
10.822
 21
10.1291
  0
LINE
  8
0
 10
10.822
 20
10.1291
 11
10.8049
 21
10.112
  0
LINE
  8
0
 10
10.8049
 20
10.112
 11
11.1582
 21
10.0457
  0
LINE
  8
0
 10
11.1582
 20
10.0457
 11
11.1899
 21
10.0387
  0
LINE
  8
0
 10
11.1899
 20
10.0387
 11
12.3854
 21
9.73137
  0
LINE
  8
0
 10
12.3854
 20
9.73137
 11
12.4165
 21
9.72227
  0
LINE
  8
0
 10
12.4165
 20
9.72227
 11
13.7029
 21
9.29915
  0
LINE
  8
0
 10
13.7029
 20
9.29915
 11
13.7531
 21
9.27948
  0
LINE
  8
0
 10
13.7531
 20
9.27948
 11
14.7277
 21
8.83485
  0
LINE
  8
0
 10
14.7277
 20
8.83485
 11
14.7445
 21
8.82683
  0
LINE
  8
0
 10
14.7445
 20
8.82683
 11
15.145
 21
8.62543
  0
LINE
  8
0
 10
15.145
 20
8.62543
 11
15.1755
 21
8.60872
  0
LINE
  8
0
 10
15.1755
 20
8.60872
 11
16.6396
 21
7.73724
  0
LINE
  8
0
 10
16.6396
 20
7.73724
 11
16.6802
 21
7.71475
  0
LINE
  8
0
 10
16.6802
 20
7.71475
 11
17.9282
 21
7.07344
  0
LINE
  8
0
 10
17.9282
 20
7.07344
 11
18.0159
 21
7.01575
  0
LINE
  8
0
 10
18.0159
 20
7.01575
 11
18.7594
 21
6.40292
  0
LINE
  8
0
 10
18.7594
 20
6.40292
 11
18.8241
 21
6.33865
  0
LINE
  8
0
 10
18.8241
 20
6.33865
 11
19.0503
 21
6.0675
  0
LINE
  8
0
 10
19.0503
 20
6.0675
 11
19.0686
 21
6.04625
  0
LINE
  8
0
 10
19.0686
 20
6.04625
 11
20.1336
 21
4.85928
  0
LINE
  8
0
 10
20.1336
 20
4.85928
 11
20.1944
 21
4.77502
  0
LINE
  8
0
 10
20.1944
 20
4.77502
 11
20.6229
 21
4.02455
  0
LINE
  8
0
 10
20.6229
 20
4.02455
 11
20.6363
 21
4.00194
  0
LINE
  8
0
 10
20.6363
 20
4.00194
 11
21.0815
 21
3.28235
  0
LINE
  8
0
 10
21.0815
 20
3.28235
 11
21.1296
 21
3.17946
  0
LINE
  8
0
 10
21.1296
 20
3.17946
 11
21.441
 21
2.24501
  0
LINE
  8
0
 10
21.441
 20
2.24501
 11
21.4627
 21
2.14787
  0
LINE
  8
0
 10
21.4627
 20
2.14787
 11
21.5979
 21
1.00922
  0
LINE
  8
0
 10
21.5979
 20
1.00922
 11
21.6135
 21
0.92186
  0
LINE
  8
0
 10
21.6135
 20
0.92186
 11
21.7172
 21
0.490005
  0
LINE
  8
0
 10
21.7172
 20
0.490005
 11
21.7377
 21
0.490005
  0
LINE
  8
0
 10
21.7377
 20
0.490005
 11
21.6295
 21
0.940582
  0
ENDSEC
  0
SECTION
  2
OBJECTS
  0
DICTIONARY
  0
ENDSEC
  0
EOF
