solid OpenSCAD_Model
  facet normal 0.183635 0.0382816 0.982249
    outer loop
      vertex 29.5744 1.74133 0.813109
      vertex 32.671 3.4514 0.16754
      vertex 29.5735 3.4514 0.74663
    endloop
  endfacet
  facet normal 0.177467 0.0941236 0.979615
    outer loop
      vertex 31.4281 7.8555 0
      vertex 31.1982 8.28897 0
      vertex 29.5676 8.2895 0.295349
    endloop
  endfacet
  facet normal 0.143114 0.152716 0.977853
    outer loop
      vertex 29.5676 8.2895 0.295349
      vertex 29.5647 9.76633 0.0651293
      vertex 23.7836 9.76631 0.911229
    endloop
  endfacet
  facet normal 0.167842 0.164788 0.971943
    outer loop
      vertex 29.9733 9.7343 0
      vertex 29.942 9.76618 0
      vertex 29.5647 9.76633 0.0651293
    endloop
  endfacet
  facet normal -0.0752121 -0.432609 0.898439
    outer loop
      vertex -13.0932 -14.6764 0
      vertex -13.0114 -14.6516 0.0187893
      vertex -13.2485 -14.6494 0
    endloop
  endfacet
  facet normal -0.161448 0.0242073 0.986584
    outer loop
      vertex -22.823 0.00178242 1
      vertex -22.3934 2.86695 1
      vertex -27.1146 0.00178242 0.297709
    endloop
  endfacet
  facet normal -0.103682 0.208079 0.972601
    outer loop
      vertex -15.8249 10.7106 1
      vertex -15.2433 11.0004 1
      vertex -15.8261 11.1412 0.907749
    endloop
  endfacet
  facet normal -0.116883 0.207737 0.971176
    outer loop
      vertex -15.8261 11.1412 0.907749
      vertex -17.0221 10.037 1
      vertex -15.8249 10.7106 1
    endloop
  endfacet
  facet normal -0.116859 0.207712 0.971185
    outer loop
      vertex -17.0221 10.037 1
      vertex -15.8261 11.1412 0.907749
      vertex -21.4797 11.0932 0.23774
    endloop
  endfacet
  facet normal -0.124513 0.178858 0.975964
    outer loop
      vertex -21.4797 11.0932 0.23774
      vertex -17.4486 9.74009 1
      vertex -17.0221 10.037 1
    endloop
  endfacet
  facet normal -0.124529 0.178813 0.975971
    outer loop
      vertex -17.4486 9.74009 1
      vertex -21.4797 11.0932 0.23774
      vertex -21.4764 9.70872 0.491819
    endloop
  endfacet
  facet normal -0.13011 0.178671 0.975268
    outer loop
      vertex -21.4764 9.70872 0.491819
      vertex -21.4797 11.0932 0.23774
      vertex -24.3003 9.79313 0.0996199
    endloop
  endfacet
  facet normal -0.116698 0.217032 0.969164
    outer loop
      vertex -21.1822 12.3148 0
      vertex -21.4797 11.0932 0.23774
      vertex -15.8261 11.1412 0.907749
    endloop
  endfacet
  facet normal -0.116716 0.217036 0.969161
    outer loop
      vertex -21.4797 11.0932 0.23774
      vertex -21.1822 12.3148 0
      vertex -21.4827 12.1532 0
    endloop
  endfacet
  facet normal -0.111318 0.217186 0.969762
    outer loop
      vertex -21.4797 11.0932 0.23774
      vertex -21.4827 12.1532 0
      vertex -22.5388 11.6119 0
    endloop
  endfacet
  facet normal -0.130701 0.179986 0.974947
    outer loop
      vertex -22.5388 11.6119 0
      vertex -24.3003 9.79313 0.0996199
      vertex -21.4797 11.0932 0.23774
    endloop
  endfacet
  facet normal -0.130703 0.179988 0.974947
    outer loop
      vertex -24.3003 9.79313 0.0996199
      vertex -22.5388 11.6119 0
      vertex -24.3016 10.3318 0
    endloop
  endfacet
  facet normal -0.131706 0.179962 0.974817
    outer loop
      vertex -24.3003 9.79313 0.0996199
      vertex -24.3016 10.3318 0
      vertex -24.9875 9.82982 0
    endloop
  endfacet
  facet normal -0.137105 0.106109 0.984857
    outer loop
      vertex -27.1184 7.07646 0
      vertex -24.3003 9.79313 0.0996199
      vertex -24.9875 9.82982 0
    endloop
  endfacet
  facet normal -0.137107 0.106111 0.984856
    outer loop
      vertex -24.3003 9.79313 0.0996199
      vertex -27.1184 7.07646 0
      vertex -27.1181 6.8683 0.0224695
    endloop
  endfacet
  facet normal -0.13131 0.134147 0.982223
    outer loop
      vertex -19.7696 7.78335 1
      vertex -19.2891 8.25369 1
      vertex -21.4736 8.23869 0.71001
    endloop
  endfacet
  facet normal -0.136656 0.115208 0.983896
    outer loop
      vertex -21.4736 8.23869 0.71001
      vertex -20.6838 6.69896 1
      vertex -19.7696 7.78335 1
    endloop
  endfacet
  facet normal -0.136652 0.11521 0.983897
    outer loop
      vertex -20.6838 6.69896 1
      vertex -21.4736 8.23869 0.71001
      vertex -21.4712 6.69443 0.89117
    endloop
  endfacet
  facet normal -0.145733 0.115046 0.982612
    outer loop
      vertex -21.4712 6.69443 0.89117
      vertex -21.4736 8.23869 0.71001
      vertex -24.2956 6.75686 0.46497
    endloop
  endfacet
  facet normal -0.147756 0.0563328 0.987418
    outer loop
      vertex -21.4712 6.69443 0.89117
      vertex -24.2956 6.75686 0.46497
      vertex -27.1155 3.52175 0.22757
    endloop
  endfacet
  facet normal -0.124671 0.169024 0.977695
    outer loop
      vertex -18.5089 8.95802 1
      vertex -17.4486 9.74009 1
      vertex -21.4764 9.70872 0.491819
    endloop
  endfacet
  facet normal -0.131177 0.145307 0.980652
    outer loop
      vertex -21.4764 9.70872 0.491819
      vertex -19.2891 8.25369 1
      vertex -18.5089 8.95802 1
    endloop
  endfacet
  facet normal -0.131178 0.145305 0.980652
    outer loop
      vertex -19.2891 8.25369 1
      vertex -21.4764 9.70872 0.491819
      vertex -21.4736 8.23869 0.71001
    endloop
  endfacet
  facet normal -0.131843 0.14529 0.980565
    outer loop
      vertex -21.4736 8.23869 0.71001
      vertex -21.4764 9.70872 0.491819
      vertex -24.3003 9.79313 0.0996199
    endloop
  endfacet
  facet normal -0.147204 0.117941 0.982049
    outer loop
      vertex -24.2956 6.75686 0.46497
      vertex -21.4736 8.23869 0.71001
      vertex -24.3003 9.79313 0.0996199
    endloop
  endfacet
  facet normal -0.149259 0.117901 0.981744
    outer loop
      vertex -24.2956 6.75686 0.46497
      vertex -24.3003 9.79313 0.0996199
      vertex -27.1181 6.8683 0.0224695
    endloop
  endfacet
  facet normal -0.152276 0.0603411 0.986494
    outer loop
      vertex -27.1155 3.52175 0.22757
      vertex -24.2956 6.75686 0.46497
      vertex -27.1181 6.8683 0.0224695
    endloop
  endfacet
  facet normal -0.164542 0.0602112 0.984531
    outer loop
      vertex -27.3552 6.58777 0
      vertex -27.1155 3.52175 0.22757
      vertex -27.1181 6.8683 0.0224695
    endloop
  endfacet
  facet normal -0.164531 0.0602122 0.984532
    outer loop
      vertex -27.1155 3.52175 0.22757
      vertex -27.3552 6.58777 0
      vertex -28.4755 3.52653 0
    endloop
  endfacet
  facet normal -0.164952 0.0173688 0.986149
    outer loop
      vertex -27.1155 3.52175 0.22757
      vertex -28.4755 3.52653 0
      vertex -28.6817 1.56824 0
    endloop
  endfacet
  facet normal -0.141146 0.106045 0.984293
    outer loop
      vertex -27.1181 6.8683 0.0224695
      vertex -27.1184 7.07646 0
      vertex -27.1771 6.99833 0
    endloop
  endfacet
  facet normal -0.155852 0.0991128 0.982795
    outer loop
      vertex -27.1181 6.8683 0.0224695
      vertex -27.1771 6.99833 0
      vertex -27.2592 6.86923 0
    endloop
  endfacet
  facet normal -0.156695 0.0534454 0.9862
    outer loop
      vertex -27.1181 6.8683 0.0224695
      vertex -27.2592 6.86923 0
      vertex -27.3552 6.58777 0
    endloop
  endfacet
  facet normal -0.156566 -0.0602966 0.985825
    outer loop
      vertex -28.0978 -4.68814 0
      vertex -27.1181 -6.86466 0.0224695
      vertex -27.1155 -3.5181 0.22757
    endloop
  endfacet
  facet normal -0.15659 -0.0603073 0.985821
    outer loop
      vertex -27.1181 -6.86466 0.0224695
      vertex -28.0978 -4.68814 0
      vertex -27.2592 -6.86559 0
    endloop
  endfacet
  facet normal -0.152276 -0.0603409 0.986494
    outer loop
      vertex -24.2956 -6.75321 0.46497
      vertex -27.1155 -3.5181 0.22757
      vertex -27.1181 -6.86466 0.0224695
    endloop
  endfacet
  facet normal -0.157708 -0.0651629 0.985333
    outer loop
      vertex -22.3222 -3.43902 1
      vertex -24.2956 -6.75321 0.46497
      vertex -22.0466 -4.10603 1
    endloop
  endfacet
  facet normal -0.157709 -0.065162 0.985333
    outer loop
      vertex -24.2956 -6.75321 0.46497
      vertex -22.3222 -3.43902 1
      vertex -27.1155 -3.5181 0.22757
    endloop
  endfacet
  facet normal -0.147195 -0.0742924 0.986313
    outer loop
      vertex -24.2956 -6.75321 0.46497
      vertex -21.4698 -5.24884 1
      vertex -22.0466 -4.10603 1
    endloop
  endfacet
  facet normal -0.147192 -0.0742983 0.986313
    outer loop
      vertex -21.4698 -5.24884 1
      vertex -24.2956 -6.75321 0.46497
      vertex -21.4712 -6.69079 0.89117
    endloop
  endfacet
  facet normal -0.141208 -0.0743697 0.987183
    outer loop
      vertex -20.7099 -6.69169 1
      vertex -21.4698 -5.24884 1
      vertex -21.4712 -6.69079 0.89117
    endloop
  endfacet
  facet normal -0.136775 0.101958 0.985341
    outer loop
      vertex -20.8224 6.51303 1
      vertex -20.6838 6.69896 1
      vertex -21.4712 6.69443 0.89117
    endloop
  endfacet
  facet normal -0.144724 0.0743281 0.986676
    outer loop
      vertex -21.4698 5.25248 1
      vertex -20.8224 6.51303 1
      vertex -21.4712 6.69443 0.89117
    endloop
  endfacet
  facet normal -0.157466 0.0741692 0.984735
    outer loop
      vertex -27.1155 3.52175 0.22757
      vertex -21.4698 5.25248 1
      vertex -21.4712 6.69443 0.89117
    endloop
  endfacet
  facet normal -0.157464 0.0741635 0.984736
    outer loop
      vertex -21.4698 5.25248 1
      vertex -27.1155 3.52175 0.22757
      vertex -22.3222 3.44266 1
    endloop
  endfacet
  facet normal -0.158749 0.019633 0.987124
    outer loop
      vertex -27.1155 3.52175 0.22757
      vertex -22.3934 2.86695 1
      vertex -22.3222 3.44266 1
    endloop
  endfacet
  facet normal -0.15875 0.0196289 0.987124
    outer loop
      vertex -22.3934 2.86695 1
      vertex -27.1155 3.52175 0.22757
      vertex -27.1146 0.00178242 0.297709
    endloop
  endfacet
  facet normal -0.167659 0.0195972 0.98565
    outer loop
      vertex -28.6817 1.56824 0
      vertex -27.1146 0.00178242 0.297709
      vertex -27.1155 3.52175 0.22757
    endloop
  endfacet
  facet normal -0.167659 0.0195973 0.98565
    outer loop
      vertex -27.1146 0.00178242 0.297709
      vertex -28.6817 1.56824 0
      vertex -28.8648 0.00178242 0
    endloop
  endfacet
  facet normal -0.167666 -0.0173629 0.985691
    outer loop
      vertex -28.6642 -1.93532 0
      vertex -27.1146 0.00178242 0.297709
      vertex -28.8648 0.00178242 0
    endloop
  endfacet
  facet normal -0.109852 -0.261428 0.958951
    outer loop
      vertex -19.8547 -12.8742 0
      vertex -18.6581 -12.3824 0.27115
      vertex -21.0358 -12.3779 0
    endloop
  endfacet
  facet normal -0.111081 -0.21392 0.970515
    outer loop
      vertex -18.6505 -9.70963 0.86115
      vertex -21.0358 -12.3779 0
      vertex -18.6581 -12.3824 0.27115
    endloop
  endfacet
  facet normal -0.111071 -0.213929 0.970514
    outer loop
      vertex -21.0358 -12.3779 0
      vertex -18.6505 -9.70963 0.86115
      vertex -21.3249 -12.2278 0
    endloop
  endfacet
  facet normal -0.0809839 -0.3029 0.949575
    outer loop
      vertex -10.1741 -13.6188 0.67217
      vertex -15.8305 -12.4277 0.56971
      vertex -15.8353 -13.5966 0.19644
    endloop
  endfacet
  facet normal -0.0856815 -0.362009 0.928228
    outer loop
      vertex -15.8378 -14.0997 0
      vertex -15.8353 -13.5966 0.19644
      vertex -16.6976 -13.8962 0
    endloop
  endfacet
  facet normal -0.0769691 -0.362427 0.928829
    outer loop
      vertex -15.8353 -13.5966 0.19644
      vertex -13.2485 -14.6494 0
      vertex -13.0114 -14.6516 0.0187893
    endloop
  endfacet
  facet normal -0.0769167 -0.362307 0.92888
    outer loop
      vertex -13.2485 -14.6494 0
      vertex -15.8353 -13.5966 0.19644
      vertex -15.8378 -14.0997 0
    endloop
  endfacet
  facet normal -0.0792885 -0.368218 0.926352
    outer loop
      vertex -13.0114 -14.6516 0.0187893
      vertex -10.1741 -13.6188 0.67217
      vertex -15.8353 -13.5966 0.19644
    endloop
  endfacet
  facet normal -0.130041 -0.180005 0.975032
    outer loop
      vertex -24.3003 -9.78949 0.0996094
      vertex -23.0428 -11.2375 0
      vertex -21.4764 -9.70508 0.491819
    endloop
  endfacet
  facet normal -0.130043 -0.180006 0.975032
    outer loop
      vertex -23.0428 -11.2375 0
      vertex -24.3003 -9.78949 0.0996094
      vertex -24.3016 -10.3281 0
    endloop
  endfacet
  facet normal -0.114765 -0.180385 0.976878
    outer loop
      vertex -24.3016 -10.3281 0
      vertex -24.3003 -9.78949 0.0996094
      vertex -24.6279 -10.1205 0
    endloop
  endfacet
  facet normal -0.133058 -0.162525 0.977692
    outer loop
      vertex -24.6279 -10.1205 0
      vertex -24.3003 -9.78949 0.0996094
      vertex -24.9874 -9.82618 0
    endloop
  endfacet
  facet normal -0.155852 -0.0991128 0.982795
    outer loop
      vertex -27.1771 -6.99469 0
      vertex -27.1181 -6.86466 0.0224695
      vertex -27.2592 -6.86559 0
    endloop
  endfacet
  facet normal -0.141146 -0.106045 0.984293
    outer loop
      vertex -27.1184 -7.07282 0
      vertex -27.1181 -6.86466 0.0224695
      vertex -27.1771 -6.99469 0
    endloop
  endfacet
  facet normal -0.149931 -0.105893 0.983009
    outer loop
      vertex -27.1184 -7.07282 0
      vertex -24.2956 -6.75321 0.46497
      vertex -27.1181 -6.86466 0.0224695
    endloop
  endfacet
  facet normal -0.14993 -0.1059 0.983009
    outer loop
      vertex -24.2956 -6.75321 0.46497
      vertex -27.1184 -7.07282 0
      vertex -25.9927 -8.66655 0
    endloop
  endfacet
  facet normal -0.136285 -0.118147 0.983599
    outer loop
      vertex -25.9927 -8.66655 0
      vertex -24.3003 -9.78949 0.0996094
      vertex -24.2956 -6.75321 0.46497
    endloop
  endfacet
  facet normal -0.136284 -0.118147 0.983599
    outer loop
      vertex -24.3003 -9.78949 0.0996094
      vertex -25.9927 -8.66655 0
      vertex -24.9874 -9.82618 0
    endloop
  endfacet
  facet normal -0.145618 -0.117974 0.982282
    outer loop
      vertex -21.4712 -6.69079 0.89117
      vertex -24.2956 -6.75321 0.46497
      vertex -24.3003 -9.78949 0.0996094
    endloop
  endfacet
  facet normal -0.13259 -0.129954 0.982615
    outer loop
      vertex -21.4764 -9.70508 0.491819
      vertex -21.4712 -6.69079 0.89117
      vertex -24.3003 -9.78949 0.0996094
    endloop
  endfacet
  facet normal -0.140467 -0.129802 0.98154
    outer loop
      vertex -21.4712 -6.69079 0.89117
      vertex -19.6853 -7.80048 1
      vertex -20.7099 -6.69169 1
    endloop
  endfacet
  facet normal -0.140465 -0.129798 0.981541
    outer loop
      vertex -19.6853 -7.80048 1
      vertex -21.4712 -6.69079 0.89117
      vertex -21.4764 -9.70508 0.491819
    endloop
  endfacet
  facet normal 0.196572 -0.0284357 0.980077
    outer loop
      vertex 33.4557 -2.93175 0
      vertex 33.8207 -0.408558 0
      vertex 29.5744 -1.73769 0.813109
    endloop
  endfacet
  facet normal 0.193618 -0.0382123 0.980333
    outer loop
      vertex 29.5735 -3.44776 0.74663
      vertex 33.4557 -2.93175 0
      vertex 29.5744 -1.73769 0.813109
    endloop
  endfacet
  facet normal 0.193621 -0.0382374 0.980331
    outer loop
      vertex 33.4557 -2.93175 0
      vertex 29.5735 -3.44776 0.74663
      vertex 33.3539 -3.44723 0
    endloop
  endfacet
  facet normal 0.193683 -0.0284302 0.980652
    outer loop
      vertex 33.2362 -4.24907 0
      vertex 33.3539 -3.44723 0
      vertex 29.5735 -3.44776 0.74663
    endloop
  endfacet
  facet normal 0.18578 -0.0643926 0.980479
    outer loop
      vertex 29.5735 -3.44776 0.74663
      vertex 33.0333 -4.83446 0
      vertex 33.2362 -4.24907 0
    endloop
  endfacet
  facet normal 0.185787 -0.064374 0.980479
    outer loop
      vertex 33.0333 -4.83446 0
      vertex 29.5735 -3.44776 0.74663
      vertex 29.572 -5.11685 0.637329
    endloop
  endfacet
  facet normal 0.183229 -0.0280739 0.982669
    outer loop
      vertex 33.0303 -4.85404 0
      vertex 33.0333 -4.83446 0
      vertex 29.572 -5.11685 0.637329
    endloop
  endfacet
  facet normal 0.186843 -0.0852957 0.97868
    outer loop
      vertex 32.5194 -5.97318 0
      vertex 33.0303 -4.85404 0
      vertex 29.572 -5.11685 0.637329
    endloop
  endfacet
  facet normal 0.184992 -0.091509 0.97847
    outer loop
      vertex 29.572 -5.11685 0.637329
      vertex 32.1439 -6.73228 0
      vertex 32.5194 -5.97318 0
    endloop
  endfacet
  facet normal 0.18499 -0.0915122 0.97847
    outer loop
      vertex 32.1439 -6.73228 0
      vertex 29.572 -5.11685 0.637329
      vertex 29.5701 -6.73339 0.4865
    endloop
  endfacet
  facet normal 0.185089 -0.0853672 0.979007
    outer loop
      vertex 32.0899 -6.84936 0
      vertex 32.1439 -6.73228 0
      vertex 29.5701 -6.73339 0.4865
    endloop
  endfacet
  facet normal 0.182844 -0.120432 0.975738
    outer loop
      vertex 29.5701 -6.73339 0.4865
      vertex 31.4298 -7.85155 0
      vertex 32.0899 -6.84936 0
    endloop
  endfacet
  facet normal 0.182839 -0.12044 0.975738
    outer loop
      vertex 31.4298 -7.85155 0
      vertex 29.5701 -6.73339 0.4865
      vertex 29.5676 -8.28586 0.29534
    endloop
  endfacet
  facet normal 0.175485 -0.085491 0.980763
    outer loop
      vertex 31.2183 -8.28569 0
      vertex 31.4298 -7.85155 0
      vertex 29.5676 -8.28586 0.29534
    endloop
  endfacet
  facet normal 0.170395 -0.152096 0.973567
    outer loop
      vertex 29.5676 -8.28586 0.29534
      vertex 29.966 -9.73 0
      vertex 31.0167 -8.55289 0
    endloop
  endfacet
  facet normal 0.170396 -0.152096 0.973567
    outer loop
      vertex 29.966 -9.73 0
      vertex 29.5676 -8.28586 0.29534
      vertex 29.5647 -9.76269 0.0651293
    endloop
  endfacet
  facet normal 0.171922 -0.144748 0.974418
    outer loop
      vertex 31.0167 -8.55289 0
      vertex 31.1863 -8.35145 0
      vertex 29.5676 -8.28586 0.29534
    endloop
  endfacet
  facet normal 0.175486 -0.0853949 0.980771
    outer loop
      vertex 31.1863 -8.35145 0
      vertex 31.2183 -8.28569 0
      vertex 29.5676 -8.28586 0.29534
    endloop
  endfacet
  facet normal 0.158247 -0.187387 0.969456
    outer loop
      vertex 29.8726 -9.83962 0
      vertex 29.5647 -9.76269 0.0651293
      vertex 29.5638 -10.1004 0
    endloop
  endfacet
  facet normal 0.170016 -0.144765 0.97475
    outer loop
      vertex 29.8726 -9.83962 0
      vertex 29.9383 -9.76246 0
      vertex 29.5647 -9.76269 0.0651293
    endloop
  endfacet
  facet normal 0.170009 -0.145078 0.974705
    outer loop
      vertex 29.9383 -9.76246 0
      vertex 29.966 -9.73 0
      vertex 29.5647 -9.76269 0.0651293
    endloop
  endfacet
  facet normal -0.112495 -0.19755 0.973817
    outer loop
      vertex -21.4827 -12.1259 0
      vertex -21.4764 -9.70508 0.491819
      vertex -23.0428 -11.2375 0
    endloop
  endfacet
  facet normal -0.127361 -0.197158 0.972064
    outer loop
      vertex -21.4764 -9.70508 0.491819
      vertex -21.3249 -12.2278 0
      vertex -18.6505 -9.70963 0.86115
    endloop
  endfacet
  facet normal -0.127315 -0.197157 0.97207
    outer loop
      vertex -21.3249 -12.2278 0
      vertex -21.4764 -9.70508 0.491819
      vertex -21.4827 -12.1259 0
    endloop
  endfacet
  facet normal -0.128518 -0.141052 0.981625
    outer loop
      vertex -19.6853 -7.80048 1
      vertex -18.6505 -9.70963 0.86115
      vertex -18.6487 -8.74497 1
    endloop
  endfacet
  facet normal -0.128521 -0.141053 0.981624
    outer loop
      vertex -18.6505 -9.70963 0.86115
      vertex -19.6853 -7.80048 1
      vertex -21.4764 -9.70508 0.491819
    endloop
  endfacet
  facet normal -0.136181 -0.140892 0.980614
    outer loop
      vertex -17.9947 -9.3771 1
      vertex -18.6487 -8.74497 1
      vertex -18.6505 -9.70963 0.86115
    endloop
  endfacet
  facet normal -0.0975392 -0.208226 0.973205
    outer loop
      vertex -14.8984 -11.1409 1
      vertex -15.8249 -10.7069 1
      vertex -15.8261 -11.1375 0.907749
    endloop
  endfacet
  facet normal -0.121336 -0.169119 0.978098
    outer loop
      vertex -17.509 -9.72557 1
      vertex -17.9947 -9.3771 1
      vertex -18.6505 -9.70963 0.86115
    endloop
  endfacet
  facet normal -0.120983 -0.207624 0.970698
    outer loop
      vertex -17.509 -9.72557 1
      vertex -15.8261 -11.1375 0.907749
      vertex -15.8249 -10.7069 1
    endloop
  endfacet
  facet normal -0.120974 -0.207613 0.970702
    outer loop
      vertex -15.8261 -11.1375 0.907749
      vertex -17.509 -9.72557 1
      vertex -18.6505 -9.70963 0.86115
    endloop
  endfacet
  facet normal -0.123951 -0.213557 0.969035
    outer loop
      vertex -15.8261 -11.1375 0.907749
      vertex -18.6505 -9.70963 0.86115
      vertex -18.6581 -12.3824 0.27115
    endloop
  endfacet
  facet normal 0.0811351 -0.306294 0.948473
    outer loop
      vertex 18.2422 -12.4433 0.847939
      vertex 17.2838 -12.2263 1
      vertex 16.4646 -12.4433 1
    endloop
  endfacet
  facet normal 0.0862329 -0.287563 0.953872
    outer loop
      vertex 18.2422 -12.4433 0.847939
      vertex 18.2442 -11.9383 1
      vertex 17.2838 -12.2263 1
    endloop
  endfacet
  facet normal 0.0730275 -0.408954 0.909628
    outer loop
      vertex 18.2367 -13.6124 0.41875
      vertex 17.9624 -14.5928 0
      vertex 18.2312 -14.5448 0
    endloop
  endfacet
  facet normal 0.0729231 -0.408932 0.909646
    outer loop
      vertex 17.9624 -14.5928 0
      vertex 18.2367 -13.6124 0.41875
      vertex 12.5299 -13.6123 0.876289
    endloop
  endfacet
  facet normal -0.0876819 -0.335763 0.937856
    outer loop
      vertex -11.1594 -12.4458 1
      vertex -10.1741 -13.6188 0.67217
      vertex -10.1699 -12.7042 1
    endloop
  endfacet
  facet normal -0.0876937 -0.335772 0.937852
    outer loop
      vertex -10.1741 -13.6188 0.67217
      vertex -11.1594 -12.4458 1
      vertex -15.8305 -12.4277 0.56971
    endloop
  endfacet
  facet normal -0.0574308 -0.336629 0.939884
    outer loop
      vertex -4.85706 -13.6106 1
      vertex -10.1699 -12.7042 1
      vertex -10.1741 -13.6188 0.67217
    endloop
  endfacet
  facet normal 0.0456277 -0.37644 0.925317
    outer loop
      vertex 12.5299 -13.6123 0.876289
      vertex 11.601 -13.4208 1
      vertex 10.0219 -13.6122 1
    endloop
  endfacet
  facet normal 0.0483853 -0.36574 0.929459
    outer loop
      vertex 12.5299 -13.6123 0.876289
      vertex 12.5315 -13.2977 1
      vertex 11.601 -13.4208 1
    endloop
  endfacet
  facet normal 0.0743837 -0.365269 0.927925
    outer loop
      vertex 12.5299 -13.6123 0.876289
      vertex 14.6244 -12.8715 1
      vertex 12.5315 -13.2977 1
    endloop
  endfacet
  facet normal 0.074389 -0.365283 0.92792
    outer loop
      vertex 14.6244 -12.8715 1
      vertex 12.5299 -13.6123 0.876289
      vertex 18.2367 -13.6124 0.41875
    endloop
  endfacet
  facet normal 0.0800346 -0.343848 0.935608
    outer loop
      vertex 16.4646 -12.4433 1
      vertex 18.2367 -13.6124 0.41875
      vertex 18.2422 -12.4433 0.847939
    endloop
  endfacet
  facet normal 0.0800164 -0.343872 0.935601
    outer loop
      vertex 18.2367 -13.6124 0.41875
      vertex 16.4646 -12.4433 1
      vertex 14.6244 -12.8715 1
    endloop
  endfacet
  facet normal 0.0668619 -0.432944 0.898938
    outer loop
      vertex 12.5299 -13.6123 0.876289
      vertex 17.649 -14.6412 0
      vertex 17.9624 -14.5928 0
    endloop
  endfacet
  facet normal 0.0668765 -0.432892 0.898962
    outer loop
      vertex 17.649 -14.6412 0
      vertex 12.5299 -13.6123 0.876289
      vertex 12.5235 -14.6411 0.38135
    endloop
  endfacet
  facet normal 0.0443838 -0.433322 0.900146
    outer loop
      vertex 10.0219 -13.6122 1
      vertex 12.5235 -14.6411 0.38135
      vertex 12.5299 -13.6123 0.876289
    endloop
  endfacet
  facet normal 0.044378 -0.433333 0.900141
    outer loop
      vertex 12.5235 -14.6411 0.38135
      vertex 10.0219 -13.6122 1
      vertex 7.99575 -13.8197 1
    endloop
  endfacet
  facet normal 0.0414248 -0.445179 0.894483
    outer loop
      vertex 6.84448 -14.6408 0.64466
      vertex 7.99575 -13.8197 1
      vertex 6.84908 -13.9264 1
    endloop
  endfacet
  facet normal 0.0414488 -0.445207 0.894468
    outer loop
      vertex 7.99575 -13.8197 1
      vertex 6.84448 -14.6408 0.64466
      vertex 12.5235 -14.6411 0.38135
    endloop
  endfacet
  facet normal 0.0072347 -0.445373 0.895316
    outer loop
      vertex 6.84448 -14.6408 0.64466
      vertex 6.84908 -13.9264 1
      vertex 3.22931 -13.9852 1
    endloop
  endfacet
  facet normal 0.00762379 -0.443659 0.896163
    outer loop
      vertex 1.17109 -14.6419 0.6924
      vertex 3.22931 -13.9852 1
      vertex 1.17506 -14.0205 1
    endloop
  endfacet
  facet normal 0.00762695 -0.443668 0.896159
    outer loop
      vertex 3.22931 -13.9852 1
      vertex 1.17109 -14.6419 0.6924
      vertex 6.84448 -14.6408 0.64466
    endloop
  endfacet
  facet normal -0.0286027 -0.443305 0.895914
    outer loop
      vertex 1.17109 -14.6419 0.6924
      vertex 1.17506 -14.0205 1
      vertex -4.1286 -13.6783 1
    endloop
  endfacet
  facet normal -0.0254296 -0.428209 0.903322
    outer loop
      vertex -4.51012 -14.6389 0.533899
      vertex -4.1286 -13.6783 1
      vertex -4.50411 -13.656 1
    endloop
  endfacet
  facet normal -0.025428 -0.428209 0.903322
    outer loop
      vertex -4.1286 -13.6783 1
      vertex -4.51012 -14.6389 0.533899
      vertex 1.17109 -14.6419 0.6924
    endloop
  endfacet
  facet normal -0.054996 -0.427551 0.902317
    outer loop
      vertex -4.85706 -13.6106 1
      vertex -4.51012 -14.6389 0.533899
      vertex -4.50411 -13.656 1
    endloop
  endfacet
  facet normal -0.0549745 -0.427546 0.902321
    outer loop
      vertex -4.51012 -14.6389 0.533899
      vertex -4.85706 -13.6106 1
      vertex -10.1741 -13.6188 0.67217
    endloop
  endfacet
  facet normal -0.0498724 -0.400903 0.914762
    outer loop
      vertex -4.51012 -14.6389 0.533899
      vertex -10.1741 -13.6188 0.67217
      vertex -10.1799 -14.6474 0.22106
    endloop
  endfacet
  facet normal -0.0646993 -0.400491 0.914014
    outer loop
      vertex -10.1799 -14.6474 0.22106
      vertex -10.1741 -13.6188 0.67217
      vertex -13.0114 -14.6516 0.0187893
    endloop
  endfacet
  facet normal -0.062713 -0.456761 0.887376
    outer loop
      vertex -13.0114 -14.6516 0.0187893
      vertex -11.1345 -14.9458 0
      vertex -10.1799 -14.6474 0.22106
    endloop
  endfacet
  facet normal -0.062674 -0.456521 0.887502
    outer loop
      vertex -11.1345 -14.9458 0
      vertex -13.0114 -14.6516 0.0187893
      vertex -13.0116 -14.6881 0
    endloop
  endfacet
  facet normal -0.0654437 -0.456428 0.887351
    outer loop
      vertex -13.0116 -14.6881 0
      vertex -13.0114 -14.6516 0.0187893
      vertex -13.0932 -14.6764 0
    endloop
  endfacet
  facet normal 0.0334826 -0.590663 0.806224
    outer loop
      vertex 7.94048 -15.5995 0
      vertex 6.83746 -15.5244 0.100829
      vertex 6.83616 -15.6621 0
    endloop
  endfacet
  facet normal 0.0352255 -0.577599 0.81556
    outer loop
      vertex 7.94048 -15.5995 0
      vertex 9.17027 -15.5245 0
      vertex 6.83746 -15.5244 0.100829
    endloop
  endfacet
  facet normal 0.00747756 -0.589051 0.808061
    outer loop
      vertex 3.73811 -15.7001 0
      vertex 1.1641 -15.5254 0.15117
      vertex 1.16214 -15.7328 0
    endloop
  endfacet
  facet normal 0.00724683 -0.590817 0.806773
    outer loop
      vertex 6.83746 -15.5244 0.100829
      vertex 3.73811 -15.7001 0
      vertex 6.83616 -15.6621 0
    endloop
  endfacet
  facet normal 0.00726165 -0.591001 0.806638
    outer loop
      vertex 3.73811 -15.7001 0
      vertex 6.83746 -15.5244 0.100829
      vertex 1.1641 -15.5254 0.15117
    endloop
  endfacet
  facet normal -0.0195978 -0.588788 0.80805
    outer loop
      vertex 1.1641 -15.5254 0.15117
      vertex -3.91523 -15.5638 0
      vertex 1.16214 -15.7328 0
    endloop
  endfacet
  facet normal -0.0196011 -0.588672 0.808134
    outer loop
      vertex -3.91523 -15.5638 0
      vertex 1.1641 -15.5254 0.15117
      vertex -4.51682 -15.5226 0.01542
    endloop
  endfacet
  facet normal -0.0181549 -0.572012 0.820045
    outer loop
      vertex -3.91523 -15.5638 0
      vertex -4.51682 -15.5226 0.01542
      vertex -4.51702 -15.5447 0
    endloop
  endfacet
  facet normal -0.038685 -0.571553 0.819653
    outer loop
      vertex -4.51702 -15.5447 0
      vertex -4.51682 -15.5226 0.01542
      vertex -4.83615 -15.5231 0
    endloop
  endfacet
  facet normal -0.0969546 -0.33537 0.937084
    outer loop
      vertex -16.6976 -13.8962 0
      vertex -15.8353 -13.5966 0.19644
      vertex -17.7955 -13.5788 0
    endloop
  endfacet
  facet normal -0.0981057 -0.286715 0.952979
    outer loop
      vertex -18.6581 -12.3824 0.27115
      vertex -17.7955 -13.5788 0
      vertex -15.8353 -13.5966 0.19644
    endloop
  endfacet
  facet normal -0.098106 -0.286716 0.952979
    outer loop
      vertex -17.7955 -13.5788 0
      vertex -18.6581 -12.3824 0.27115
      vertex -19.8547 -12.8742 0
    endloop
  endfacet
  facet normal -0.104883 -0.302132 0.947479
    outer loop
      vertex -15.8353 -13.5966 0.19644
      vertex -15.8305 -12.4277 0.56971
      vertex -18.6581 -12.3824 0.27115
    endloop
  endfacet
  facet normal -0.105611 -0.251696 0.962027
    outer loop
      vertex -15.8305 -12.4277 0.56971
      vertex -15.8261 -11.1375 0.907749
      vertex -18.6581 -12.3824 0.27115
    endloop
  endfacet
  facet normal -0.0897322 -0.252141 0.963521
    outer loop
      vertex -15.8305 -12.4277 0.56971
      vertex -12.9821 -11.7971 1
      vertex -15.8261 -11.1375 0.907749
    endloop
  endfacet
  facet normal -0.0897343 -0.252133 0.963523
    outer loop
      vertex -12.9821 -11.7971 1
      vertex -15.8305 -12.4277 0.56971
      vertex -11.1594 -12.4458 1
    endloop
  endfacet
  facet normal -0.0960016 -0.280353 0.955084
    outer loop
      vertex -12.9821 -11.7971 1
      vertex -14.8984 -11.1409 1
      vertex -15.8261 -11.1375 0.907749
    endloop
  endfacet
  facet normal 0.0918507 0.408408 0.908166
    outer loop
      vertex 18.2367 13.6161 0.41875
      vertex 22.3775 13.616 0
      vertex 18.2312 14.5485 0
    endloop
  endfacet
  facet normal 0.0720378 0.432796 0.898609
    outer loop
      vertex 12.5299 13.616 0.876289
      vertex 18.2367 13.6161 0.41875
      vertex 12.5235 14.6447 0.38135
    endloop
  endfacet
  facet normal 0.0676651 0.409082 0.909985
    outer loop
      vertex 17.649 14.6448 0
      vertex 18.2367 13.6161 0.41875
      vertex 18.2312 14.5485 0
    endloop
  endfacet
  facet normal 0.0676965 0.409097 0.909976
    outer loop
      vertex 18.2367 13.6161 0.41875
      vertex 17.649 14.6448 0
      vertex 12.5235 14.6447 0.38135
    endloop
  endfacet
  facet normal 0.0637757 0.510843 0.857305
    outer loop
      vertex 12.5235 14.6447 0.38135
      vertex 17.649 14.6448 0
      vertex 12.5186 15.2853 0
    endloop
  endfacet
  facet normal 0.176207 0.151958 0.972553
    outer loop
      vertex 30.0311 9.64231 0
      vertex 29.5676 8.2895 0.295349
      vertex 31.1982 8.28897 0
    endloop
  endfacet
  facet normal 0.176216 0.151955 0.972552
    outer loop
      vertex 29.5676 8.2895 0.295349
      vertex 30.0311 9.64231 0
      vertex 29.5647 9.76633 0.0651293
    endloop
  endfacet
  facet normal 0.162258 0.0943852 0.982224
    outer loop
      vertex 30.0311 9.64231 0
      vertex 29.9908 9.71159 0
      vertex 29.5647 9.76633 0.0651293
    endloop
  endfacet
  facet normal 0.165882 0.127826 0.977826
    outer loop
      vertex 29.9908 9.71159 0
      vertex 29.9733 9.7343 0
      vertex 29.5647 9.76633 0.0651293
    endloop
  endfacet
  facet normal 0.183389 0.0643949 0.980929
    outer loop
      vertex 29.5735 3.4514 0.74663
      vertex 32.671 3.4514 0.16754
      vertex 29.572 5.12049 0.63734
    endloop
  endfacet
  facet normal 0.186343 0.0701403 0.979978
    outer loop
      vertex 29.572 5.12049 0.63734
      vertex 32.6687 5.79814 0
      vertex 32.3732 6.5832 0
    endloop
  endfacet
  facet normal 0.186342 0.0701458 0.979978
    outer loop
      vertex 32.6687 5.79814 0
      vertex 29.572 5.12049 0.63734
      vertex 32.671 3.4514 0.16754
    endloop
  endfacet
  facet normal 0.17517 0.0916614 0.980262
    outer loop
      vertex 32.2927 6.73704 0
      vertex 29.572 5.12049 0.63734
      vertex 32.3732 6.5832 0
    endloop
  endfacet
  facet normal 0.175163 0.091674 0.980262
    outer loop
      vertex 29.572 5.12049 0.63734
      vertex 32.2927 6.73704 0
      vertex 29.5701 6.73704 0.4865
    endloop
  endfacet
  facet normal 0.190996 0.0700867 0.979086
    outer loop
      vertex 32.671 3.4514 0.16754
      vertex 33.398 3.8107 0
      vertex 32.6687 5.79814 0
    endloop
  endfacet
  facet normal 0.205644 0.0398548 0.977815
    outer loop
      vertex 33.4677 3.45106 0
      vertex 33.398 3.8107 0
      vertex 32.671 3.4514 0.16754
    endloop
  endfacet
  facet normal 0.205644 0.0398563 0.977815
    outer loop
      vertex 33.5445 3.0548 0
      vertex 33.4677 3.45106 0
      vertex 32.671 3.4514 0.16754
    endloop
  endfacet
  facet normal 0.205644 0.0398555 0.977815
    outer loop
      vertex 33.6339 2.59352 0
      vertex 33.5445 3.0548 0
      vertex 32.671 3.4514 0.16754
    endloop
  endfacet
  facet normal 0.191602 0.023435 0.981193
    outer loop
      vertex 32.671 3.4514 0.16754
      vertex 33.7828 1.37613 0
      vertex 33.6339 2.59352 0
    endloop
  endfacet
  facet normal 0.191611 0.02344 0.981191
    outer loop
      vertex 33.7828 1.37613 0
      vertex 32.671 3.4514 0.16754
      vertex 29.5744 1.74133 0.813109
    endloop
  endfacet
  facet normal 0.190323 0.00748271 0.981693
    outer loop
      vertex 33.8207 0.412141 0
      vertex 33.7828 1.37613 0
      vertex 29.5744 1.74133 0.813109
    endloop
  endfacet
  facet normal 0.191883 0.0127187 0.981335
    outer loop
      vertex 33.8207 0.412141 0
      vertex 29.5747 0.00178242 0.835549
      vertex 33.8479 0.00178242 0
    endloop
  endfacet
  facet normal 0.191885 0.0126922 0.981335
    outer loop
      vertex 29.5747 0.00178242 0.835549
      vertex 33.8207 0.412141 0
      vertex 29.5744 1.74133 0.813109
    endloop
  endfacet
  facet normal 0.191883 -0.0127192 0.981335
    outer loop
      vertex 29.5747 0.00178242 0.835549
      vertex 33.8207 -0.408558 0
      vertex 33.8479 0.00178242 0
    endloop
  endfacet
  facet normal 0.191885 -0.0126928 0.981335
    outer loop
      vertex 33.8207 -0.408558 0
      vertex 29.5747 0.00178242 0.835549
      vertex 29.5744 -1.73769 0.813109
    endloop
  endfacet
  facet normal 0.111425 0.216814 0.969833
    outer loop
      vertex 23.7797 11.156 0.601
      vertex 22.2733 10.1454 1
      vertex 23.7836 9.76631 0.911229
    endloop
  endfacet
  facet normal 0.111427 0.216812 0.969833
    outer loop
      vertex 22.2733 10.1454 1
      vertex 23.7797 11.156 0.601
      vertex 20.3069 11.156 1
    endloop
  endfacet
  facet normal 0.141392 0.216062 0.966088
    outer loop
      vertex 23.7836 9.76631 0.911229
      vertex 29.5647 9.76633 0.0651293
      vertex 23.7797 11.156 0.601
    endloop
  endfacet
  facet normal 0.135292 0.187994 0.972807
    outer loop
      vertex 28.102 11.156 0
      vertex 29.5647 9.76633 0.0651293
      vertex 29.5638 10.104 0
    endloop
  endfacet
  facet normal 0.135267 0.187968 0.972816
    outer loop
      vertex 29.5647 9.76633 0.0651293
      vertex 28.102 11.156 0
      vertex 23.7797 11.156 0.601
    endloop
  endfacet
  facet normal 0.16717 0.187152 0.968002
    outer loop
      vertex 29.5647 9.76633 0.0651293
      vertex 29.942 9.76618 0
      vertex 29.5638 10.104 0
    endloop
  endfacet
  facet normal 0.126218 0.228191 0.9654
    outer loop
      vertex 26.9601 11.7363 0
      vertex 25.6754 12.4469 0
      vertex 23.7751 12.4469 0.248449
    endloop
  endfacet
  facet normal 0.132927 0.26157 0.955987
    outer loop
      vertex 26.9601 11.7363 0
      vertex 23.7797 11.156 0.601
      vertex 28.102 11.156 0
    endloop
  endfacet
  facet normal 0.132929 0.261559 0.95599
    outer loop
      vertex 23.7797 11.156 0.601
      vertex 26.9601 11.7363 0
      vertex 23.7751 12.4469 0.248449
    endloop
  endfacet
  facet normal 0.10395 0.262374 0.959351
    outer loop
      vertex 23.7797 11.156 0.601
      vertex 23.7751 12.4469 0.248449
      vertex 18.2422 12.447 0.847939
    endloop
  endfacet
  facet normal 0.109341 0.286964 0.951681
    outer loop
      vertex 18.2422 12.447 0.847939
      vertex 20.3069 11.156 1
      vertex 23.7797 11.156 0.601
    endloop
  endfacet
  facet normal 0.109359 0.286991 0.95167
    outer loop
      vertex 20.3069 11.156 1
      vertex 18.2422 12.447 0.847939
      vertex 18.2442 11.942 1
    endloop
  endfacet
  facet normal 0.0816291 0.287658 0.954248
    outer loop
      vertex 18.2442 11.942 1
      vertex 18.2422 12.447 0.847939
      vertex 16.4646 12.447 1
    endloop
  endfacet
  facet normal 0.0848315 -0.408629 0.90875
    outer loop
      vertex 20.6021 -14.0526 0
      vertex 18.2367 -13.6124 0.41875
      vertex 18.2312 -14.5448 0
    endloop
  endfacet
  facet normal 0.0932309 -0.376016 0.921911
    outer loop
      vertex 20.6021 -14.0526 0
      vertex 22.3775 -13.6124 0
      vertex 18.2367 -13.6124 0.41875
    endloop
  endfacet
  facet normal 0.0944853 -0.343495 0.934389
    outer loop
      vertex 18.2422 -12.4433 0.847939
      vertex 22.3775 -13.6124 0
      vertex 22.9828 -13.4459 0
    endloop
  endfacet
  facet normal 0.0944935 -0.343472 0.934397
    outer loop
      vertex 22.3775 -13.6124 0
      vertex 18.2422 -12.4433 0.847939
      vertex 18.2367 -13.6124 0.41875
    endloop
  endfacet
  facet normal 0.102258 -0.314629 0.943691
    outer loop
      vertex 23.7751 -12.4432 0.248449
      vertex 22.9828 -13.4459 0
      vertex 23.772 -13.1894 0
    endloop
  endfacet
  facet normal 0.102255 -0.314626 0.943692
    outer loop
      vertex 22.9828 -13.4459 0
      vertex 23.7751 -12.4432 0.248449
      vertex 18.2422 -12.4433 0.847939
    endloop
  endfacet
  facet normal 0.103194 -0.287159 0.952308
    outer loop
      vertex 18.2422 -12.4433 0.847939
      vertex 19.571 -11.4615 1
      vertex 18.2442 -11.9383 1
    endloop
  endfacet
  facet normal 0.103188 -0.287152 0.952311
    outer loop
      vertex 19.571 -11.4615 1
      vertex 18.2422 -12.4433 0.847939
      vertex 23.7751 -12.4432 0.248449
    endloop
  endfacet
  facet normal 0.110155 -0.262218 0.958701
    outer loop
      vertex 20.3069 -11.1524 1
      vertex 23.7751 -12.4432 0.248449
      vertex 23.7797 -11.1523 0.601
    endloop
  endfacet
  facet normal 0.110147 -0.262237 0.958697
    outer loop
      vertex 23.7751 -12.4432 0.248449
      vertex 20.3069 -11.1524 1
      vertex 19.571 -11.4615 1
    endloop
  endfacet
  facet normal 0.110873 -0.237853 0.964952
    outer loop
      vertex 23.7797 -11.1523 0.601
      vertex 21.5237 -10.5852 1
      vertex 20.3069 -11.1524 1
    endloop
  endfacet
  facet normal 0.116949 -0.2167 0.969208
    outer loop
      vertex 23.0479 -9.76268 1
      vertex 23.7797 -11.1523 0.601
      vertex 23.7836 -9.76267 0.911229
    endloop
  endfacet
  facet normal 0.116942 -0.216704 0.969208
    outer loop
      vertex 23.7797 -11.1523 0.601
      vertex 23.0479 -9.76268 1
      vertex 21.5237 -10.5852 1
    endloop
  endfacet
  facet normal 0.117519 -0.194041 0.973929
    outer loop
      vertex 23.7836 -9.76267 0.911229
      vertex 23.2731 -9.62629 1
      vertex 23.0479 -9.76268 1
    endloop
  endfacet
  facet normal 0.122678 -0.176486 0.976628
    outer loop
      vertex 23.7836 -9.76267 0.911229
      vertex 23.7847 -9.27067 1
      vertex 23.2731 -9.62629 1
    endloop
  endfacet
  facet normal -0.0544681 -0.476008 0.877753
    outer loop
      vertex -10.1828 -15.0547 0
      vertex -10.1799 -14.6474 0.22106
      vertex -11.1345 -14.9458 0
    endloop
  endfacet
  facet normal -0.0416728 -0.476048 0.878431
    outer loop
      vertex -10.1799 -14.6474 0.22106
      vertex -4.83615 -15.5231 0
      vertex -4.51682 -15.5226 0.01542
    endloop
  endfacet
  facet normal -0.041733 -0.476371 0.878254
    outer loop
      vertex -4.83615 -15.5231 0
      vertex -10.1799 -14.6474 0.22106
      vertex -10.1828 -15.0547 0
    endloop
  endfacet
  facet normal -0.0467892 -0.505227 0.861717
    outer loop
      vertex -4.51682 -15.5226 0.01542
      vertex -4.51012 -14.6389 0.533899
      vertex -10.1799 -14.6474 0.22106
    endloop
  endfacet
  facet normal -0.0208568 -0.505817 0.862389
    outer loop
      vertex 1.1641 -15.5254 0.15117
      vertex -4.51012 -14.6389 0.533899
      vertex -4.51682 -15.5226 0.01542
    endloop
  endfacet
  facet normal -0.0240613 -0.522083 0.852555
    outer loop
      vertex 1.1641 -15.5254 0.15117
      vertex 1.17109 -14.6419 0.6924
      vertex -4.51012 -14.6389 0.533899
    endloop
  endfacet
  facet normal 0.00765797 -0.522401 0.852665
    outer loop
      vertex 6.83746 -15.5244 0.100829
      vertex 1.17109 -14.6419 0.6924
      vertex 1.1641 -15.5254 0.15117
    endloop
  endfacet
  facet normal 0.00726741 -0.524179 0.851577
    outer loop
      vertex 6.83746 -15.5244 0.100829
      vertex 6.84448 -14.6408 0.64466
      vertex 1.17109 -14.6419 0.6924
    endloop
  endfacet
  facet normal 0.0367512 -0.524018 0.850914
    outer loop
      vertex 6.84448 -14.6408 0.64466
      vertex 9.17027 -15.5245 0
      vertex 11.4773 -15.3627 0
    endloop
  endfacet
  facet normal 0.0367561 -0.524009 0.850919
    outer loop
      vertex 9.17027 -15.5245 0
      vertex 6.84448 -14.6408 0.64466
      vertex 6.83746 -15.5244 0.100829
    endloop
  endfacet
  facet normal 0.0397761 -0.511344 0.858455
    outer loop
      vertex 12.5235 -14.6411 0.38135
      vertex 11.4773 -15.3627 0
      vertex 12.5186 -15.2817 0
    endloop
  endfacet
  facet normal 0.0397756 -0.511343 0.858456
    outer loop
      vertex 11.4773 -15.3627 0
      vertex 12.5235 -14.6411 0.38135
      vertex 6.84448 -14.6408 0.64466
    endloop
  endfacet
  facet normal 0.0585459 -0.510977 0.857598
    outer loop
      vertex 14.8978 -15.0091 0
      vertex 12.5235 -14.6411 0.38135
      vertex 12.5186 -15.2817 0
    endloop
  endfacet
  facet normal 0.0648722 -0.485122 0.872037
    outer loop
      vertex 14.8978 -15.0091 0
      vertex 17.649 -14.6412 0
      vertex 12.5235 -14.6411 0.38135
    endloop
  endfacet
  facet normal 0.114579 -0.31425 0.9424
    outer loop
      vertex 25.0893 -12.7091 0
      vertex 23.7751 -12.4432 0.248449
      vertex 23.772 -13.1894 0
    endloop
  endfacet
  facet normal 0.124649 -0.274754 0.953401
    outer loop
      vertex 25.0893 -12.7091 0
      vertex 25.6754 -12.4432 0
      vertex 23.7751 -12.4432 0.248449
    endloop
  endfacet
  facet normal 0.125113 -0.261806 0.956977
    outer loop
      vertex 23.7797 -11.1523 0.601
      vertex 25.6754 -12.4432 0
      vertex 26.9121 -11.8522 0
    endloop
  endfacet
  facet normal 0.125117 -0.261801 0.956978
    outer loop
      vertex 25.6754 -12.4432 0
      vertex 23.7797 -11.1523 0.601
      vertex 23.7751 -12.4432 0.248449
    endloop
  endfacet
  facet normal 0.134095 -0.227975 0.964389
    outer loop
      vertex 26.9121 -11.8522 0
      vertex 28.102 -11.1523 0
      vertex 23.7797 -11.1523 0.601
    endloop
  endfacet
  facet normal 0.134471 -0.216238 0.967036
    outer loop
      vertex 23.7836 -9.76267 0.911229
      vertex 28.102 -11.1523 0
      vertex 28.509 -10.8992 0
    endloop
  endfacet
  facet normal 0.134462 -0.216263 0.967032
    outer loop
      vertex 28.102 -11.1523 0
      vertex 23.7836 -9.76267 0.911229
      vertex 23.7797 -11.1523 0.601
    endloop
  endfacet
  facet normal 0.142226 -0.187807 0.971854
    outer loop
      vertex 29.5647 -9.76269 0.0651293
      vertex 28.509 -10.8992 0
      vertex 29.5638 -10.1004 0
    endloop
  endfacet
  facet normal 0.142236 -0.187816 0.971851
    outer loop
      vertex 28.509 -10.8992 0
      vertex 29.5647 -9.76269 0.0651293
      vertex 23.7836 -9.76267 0.911229
    endloop
  endfacet
  facet normal 0.142536 -0.176057 0.974006
    outer loop
      vertex 23.7836 -9.76267 0.911229
      vertex 24.7098 -8.52171 1
      vertex 23.7847 -9.27067 1
    endloop
  endfacet
  facet normal 0.142551 -0.176068 0.974002
    outer loop
      vertex 24.7098 -8.52171 1
      vertex 23.7836 -9.76267 0.911229
      vertex 29.5647 -9.76269 0.0651293
    endloop
  endfacet
  facet normal 0.149124 -0.152585 0.976975
    outer loop
      vertex 24.9511 -8.28584 1
      vertex 29.5647 -9.76269 0.0651293
      vertex 29.5676 -8.28586 0.29534
    endloop
  endfacet
  facet normal 0.149131 -0.152564 0.976977
    outer loop
      vertex 29.5647 -9.76269 0.0651293
      vertex 24.9511 -8.28584 1
      vertex 24.7098 -8.52171 1
    endloop
  endfacet
  facet normal 0.14941 -0.13977 0.978847
    outer loop
      vertex 29.5676 -8.28586 0.29534
      vertex 25.8784 -7.29458 1
      vertex 24.9511 -8.28584 1
    endloop
  endfacet
  facet normal 0.154778 -0.120983 0.980514
    outer loop
      vertex 26.3171 -6.73338 1
      vertex 29.5676 -8.28586 0.29534
      vertex 29.5701 -6.73339 0.4865
    endloop
  endfacet
  facet normal 0.154774 -0.12099 0.980513
    outer loop
      vertex 29.5676 -8.28586 0.29534
      vertex 26.3171 -6.73338 1
      vertex 25.8784 -7.29458 1
    endloop
  endfacet
  facet normal 0.15504 -0.106286 0.982174
    outer loop
      vertex 29.5701 -6.73339 0.4865
      vertex 26.8406 -5.96975 1
      vertex 26.3171 -6.73338 1
    endloop
  endfacet
  facet normal 0.159211 -0.0919006 0.982958
    outer loop
      vertex 27.3329 -5.11684 1
      vertex 29.5701 -6.73339 0.4865
      vertex 29.572 -5.11685 0.637329
    endloop
  endfacet
  facet normal 0.159213 -0.0918978 0.982958
    outer loop
      vertex 29.5701 -6.73339 0.4865
      vertex 27.3329 -5.11684 1
      vertex 26.8406 -5.96975 1
    endloop
  endfacet
  facet normal 0.15944 -0.0747643 0.984372
    outer loop
      vertex 29.572 -5.11685 0.637329
      vertex 27.6 -4.54723 1
      vertex 27.3329 -5.11684 1
    endloop
  endfacet
  facet normal 0.162415 -0.0646231 0.984604
    outer loop
      vertex 28.0375 -3.44776 1
      vertex 29.572 -5.11685 0.637329
      vertex 29.5735 -3.44776 0.74663
    endloop
  endfacet
  facet normal 0.162411 -0.0646265 0.984604
    outer loop
      vertex 29.572 -5.11685 0.637329
      vertex 28.0375 -3.44776 1
      vertex 27.6 -4.54723 1
    endloop
  endfacet
  facet normal 0.162594 -0.0444647 0.985691
    outer loop
      vertex 29.5735 -3.44776 0.74663
      vertex 28.1525 -3.02724 1
      vertex 28.0375 -3.44776 1
    endloop
  endfacet
  facet normal 0.16437 -0.0383919 0.985651
    outer loop
      vertex 28.1525 -3.02724 1
      vertex 29.5744 -1.73769 0.813109
      vertex 28.4537 -1.73769 1
    endloop
  endfacet
  facet normal 0.16438 -0.0384036 0.985649
    outer loop
      vertex 29.5744 -1.73769 0.813109
      vertex 28.1525 -3.02724 1
      vertex 29.5735 -3.44776 0.74663
    endloop
  endfacet
  facet normal 0.164473 -0.0147732 0.986271
    outer loop
      vertex 29.5744 -1.73769 0.813109
      vertex 28.4832 -1.40926 1
      vertex 28.4537 -1.73769 1
    endloop
  endfacet
  facet normal 0.16507 -0.0127513 0.986199
    outer loop
      vertex 28.4832 -1.40926 1
      vertex 29.5747 0.00178242 0.835549
      vertex 28.5922 0.00178242 1
    endloop
  endfacet
  facet normal 0.16507 -0.0127509 0.986199
    outer loop
      vertex 29.5747 0.00178242 0.835549
      vertex 28.4832 -1.40926 1
      vertex 29.5744 -1.73769 0.813109
    endloop
  endfacet
  facet normal 0.165066 0.0147755 0.986172
    outer loop
      vertex 28.5922 0.00178242 1
      vertex 29.5747 0.00178242 0.835549
      vertex 28.565 0.305649 1
    endloop
  endfacet
  facet normal 0.164477 0.0127515 0.986298
    outer loop
      vertex 29.5744 1.74133 0.813109
      vertex 28.565 0.305649 1
      vertex 29.5747 0.00178242 0.835549
    endloop
  endfacet
  facet normal 0.164478 0.012751 0.986298
    outer loop
      vertex 28.565 0.305649 1
      vertex 29.5744 1.74133 0.813109
      vertex 28.4537 1.74133 1
    endloop
  endfacet
  facet normal 0.164329 0.0444181 0.985405
    outer loop
      vertex 28.4537 1.74133 1
      vertex 29.5744 1.74133 0.813109
      vertex 28.3563 2.10167 1
    endloop
  endfacet
  facet normal 0.162635 0.038414 0.985938
    outer loop
      vertex 29.5735 3.4514 0.74663
      vertex 28.3563 2.10167 1
      vertex 29.5744 1.74133 0.813109
    endloop
  endfacet
  facet normal 0.162635 0.0384136 0.985938
    outer loop
      vertex 28.3563 2.10167 1
      vertex 29.5735 3.4514 0.74663
      vertex 28.0375 3.4514 1
    endloop
  endfacet
  facet normal 0.1623 0.0747362 0.983907
    outer loop
      vertex 28.0375 3.4514 1
      vertex 29.5735 3.4514 0.74663
      vertex 27.802 3.96282 1
    endloop
  endfacet
  facet normal 0.159553 0.0646446 0.985071
    outer loop
      vertex 29.572 5.12049 0.63734
      vertex 27.802 3.96282 1
      vertex 29.5735 3.4514 0.74663
    endloop
  endfacet
  facet normal 0.159556 0.0646399 0.98507
    outer loop
      vertex 27.802 3.96282 1
      vertex 29.572 5.12049 0.63734
      vertex 27.333 5.12049 1
    endloop
  endfacet
  facet normal 0.158985 0.106242 0.981548
    outer loop
      vertex 27.333 5.12049 1
      vertex 29.572 5.12049 0.63734
      vertex 26.8186 5.89026 1
    endloop
  endfacet
  facet normal 0.155261 0.0919605 0.983584
    outer loop
      vertex 29.5701 6.73704 0.4865
      vertex 26.8186 5.89026 1
      vertex 29.572 5.12049 0.63734
    endloop
  endfacet
  facet normal 0.155263 0.0919544 0.983584
    outer loop
      vertex 26.8186 5.89026 1
      vertex 29.5701 6.73704 0.4865
      vertex 26.3171 6.73703 1
    endloop
  endfacet
  facet normal 0.154395 0.139676 0.978086
    outer loop
      vertex 26.3171 6.73703 1
      vertex 29.5701 6.73704 0.4865
      vertex 25.2737 7.89038 1
    endloop
  endfacet
  facet normal 0.0440967 0.445218 0.894336
    outer loop
      vertex 6.84448 14.6444 0.64466
      vertex 10.0219 13.6159 1
      vertex 12.5299 13.616 0.876289
    endloop
  endfacet
  facet normal 0.0440868 0.445192 0.894349
    outer loop
      vertex 10.0219 13.6159 1
      vertex 6.84448 14.6444 0.64466
      vertex 6.84908 13.9301 1
    endloop
  endfacet
  facet normal 0.0417171 0.433392 0.900239
    outer loop
      vertex 12.5299 13.616 0.876289
      vertex 12.5235 14.6447 0.38135
      vertex 6.84448 14.6444 0.64466
    endloop
  endfacet
  facet normal 0.0394223 0.523928 0.85085
    outer loop
      vertex 6.84448 14.6444 0.64466
      vertex 12.5235 14.6447 0.38135
      vertex 6.83746 15.5281 0.100829
    endloop
  endfacet
  facet normal 0.0370975 0.511381 0.858553
    outer loop
      vertex 9.17027 15.5282 0
      vertex 12.5235 14.6447 0.38135
      vertex 12.5186 15.2853 0
    endloop
  endfacet
  facet normal 0.0370874 0.511351 0.858571
    outer loop
      vertex 12.5235 14.6447 0.38135
      vertex 9.17027 15.5282 0
      vertex 6.83746 15.5281 0.100829
    endloop
  endfacet
  facet normal 0.0348107 0.590923 0.805976
    outer loop
      vertex 6.83746 15.5281 0.100829
      vertex 9.17027 15.5282 0
      vertex 6.83616 15.6657 0
    endloop
  endfacet
  facet normal -0.0178977 0.588817 0.808068
    outer loop
      vertex 1.1641 15.5291 0.15117
      vertex 1.16214 15.7365 0
      vertex -0.956555 15.6721 0
    endloop
  endfacet
  facet normal -0.0198757 0.572063 0.819969
    outer loop
      vertex -0.956555 15.6721 0
      vertex -4.51682 15.5263 0.01542
      vertex 1.1641 15.5291 0.15117
    endloop
  endfacet
  facet normal -0.0198722 0.571982 0.820025
    outer loop
      vertex -4.51682 15.5263 0.01542
      vertex -0.956555 15.6721 0
      vertex -4.51702 15.5484 0
    endloop
  endfacet
  facet normal -0.0206317 0.5221 0.852635
    outer loop
      vertex 1.17109 14.6455 0.6924
      vertex 1.1641 15.5291 0.15117
      vertex -4.51682 15.5263 0.01542
    endloop
  endfacet
  facet normal -0.0243243 0.505723 0.862353
    outer loop
      vertex -4.51012 14.6425 0.53391
      vertex 1.17109 14.6455 0.6924
      vertex -4.51682 15.5263 0.01542
    endloop
  endfacet
  facet normal -0.0252326 0.44342 0.895959
    outer loop
      vertex 1.17109 14.6455 0.6924
      vertex -0.540096 13.9266 1
      vertex 1.17506 14.0242 1
    endloop
  endfacet
  facet normal -0.025229 0.443413 0.895962
    outer loop
      vertex -0.540096 13.9266 1
      vertex 1.17109 14.6455 0.6924
      vertex -4.51012 14.6425 0.53391
    endloop
  endfacet
  facet normal -0.028838 0.428144 0.90325
    outer loop
      vertex -4.50411 13.6596 1
      vertex -0.540096 13.9266 1
      vertex -4.51012 14.6425 0.53391
    endloop
  endfacet
  facet normal -0.0359235 0.571628 0.819726
    outer loop
      vertex -4.51682 15.5263 0.01542
      vertex -4.51702 15.5484 0
      vertex -4.6841 15.5379 0
    endloop
  endfacet
  facet normal -0.0398767 0.541362 0.839843
    outer loop
      vertex -4.51682 15.5263 0.01542
      vertex -4.6841 15.5379 0
      vertex -4.83615 15.5267 0
    endloop
  endfacet
  facet normal -0.0409888 0.505354 0.861938
    outer loop
      vertex -4.83615 15.5267 0
      vertex -4.51012 14.6425 0.53391
      vertex -4.51682 15.5263 0.01542
    endloop
  endfacet
  facet normal -0.040917 0.505375 0.861929
    outer loop
      vertex -4.51012 14.6425 0.53391
      vertex -4.83615 15.5267 0
      vertex -8.33525 15.2434 0
    endloop
  endfacet
  facet normal -0.0477329 0.476269 0.878003
    outer loop
      vertex -8.33525 15.2434 0
      vertex -10.1799 14.651 0.22106
      vertex -4.51012 14.6425 0.53391
    endloop
  endfacet
  facet normal -0.0477099 0.47621 0.878036
    outer loop
      vertex -10.1799 14.651 0.22106
      vertex -8.33525 15.2434 0
      vertex -10.1828 15.0583 0
    endloop
  endfacet
  facet normal -0.049123 0.427704 0.902583
    outer loop
      vertex -4.51012 14.6425 0.53391
      vertex -4.65822 13.6419 1
      vertex -4.50411 13.6596 1
    endloop
  endfacet
  facet normal -0.0491618 0.427707 0.902579
    outer loop
      vertex -4.65822 13.6419 1
      vertex -4.51012 14.6425 0.53391
      vertex -10.1799 14.651 0.22106
    endloop
  endfacet
  facet normal 0.00724292 0.443716 0.896138
    outer loop
      vertex 1.17506 14.0242 1
      vertex 4.93655 13.9628 1
      vertex 1.17109 14.6455 0.6924
    endloop
  endfacet
  facet normal 0.00761576 0.445424 0.895287
    outer loop
      vertex 6.84448 14.6444 0.64466
      vertex 4.93655 13.9628 1
      vertex 6.84908 13.9301 1
    endloop
  endfacet
  facet normal 0.00761999 0.445415 0.895292
    outer loop
      vertex 4.93655 13.9628 1
      vertex 6.84448 14.6444 0.64466
      vertex 1.17109 14.6455 0.6924
    endloop
  endfacet
  facet normal 0.00727647 0.522358 0.852695
    outer loop
      vertex 1.17109 14.6455 0.6924
      vertex 6.84448 14.6444 0.64466
      vertex 1.1641 15.5291 0.15117
    endloop
  endfacet
  facet normal 0.00764882 0.524137 0.8516
    outer loop
      vertex 6.84448 14.6444 0.64466
      vertex 6.83746 15.5281 0.100829
      vertex 1.1641 15.5291 0.15117
    endloop
  endfacet
  facet normal 0.00727356 0.589114 0.808017
    outer loop
      vertex 4.35864 15.697 0
      vertex 1.1641 15.5291 0.15117
      vertex 6.83746 15.5281 0.100829
    endloop
  endfacet
  facet normal 0.00727906 0.589051 0.808063
    outer loop
      vertex 1.1641 15.5291 0.15117
      vertex 4.35864 15.697 0
      vertex 1.16214 15.7365 0
    endloop
  endfacet
  facet normal 0.00746768 0.591097 0.806566
    outer loop
      vertex 6.83746 15.5281 0.100829
      vertex 6.83616 15.6657 0
      vertex 4.35864 15.697 0
    endloop
  endfacet
  facet normal 0.123082 0.313999 0.941412
    outer loop
      vertex 23.7751 12.4469 0.248449
      vertex 25.6754 12.4469 0
      vertex 23.772 13.193 0
    endloop
  endfacet
  facet normal 0.0955059 0.314853 0.944323
    outer loop
      vertex 22.3775 13.616 0
      vertex 23.7751 12.4469 0.248449
      vertex 23.772 13.193 0
    endloop
  endfacet
  facet normal 0.095505 0.314852 0.944323
    outer loop
      vertex 23.7751 12.4469 0.248449
      vertex 22.3775 13.616 0
      vertex 18.2367 13.6161 0.41875
    endloop
  endfacet
  facet normal 0.10118 0.343273 0.93377
    outer loop
      vertex 18.2422 12.447 0.847939
      vertex 23.7751 12.4469 0.248449
      vertex 18.2367 13.6161 0.41875
    endloop
  endfacet
  facet normal 0.0750356 0.343961 0.935981
    outer loop
      vertex 18.2422 12.447 0.847939
      vertex 18.2367 13.6161 0.41875
      vertex 12.5299 13.616 0.876289
    endloop
  endfacet
  facet normal 0.0793439 0.365219 0.927534
    outer loop
      vertex 12.5299 13.616 0.876289
      vertex 16.4646 12.447 1
      vertex 18.2422 12.447 0.847939
    endloop
  endfacet
  facet normal 0.079323 0.365151 0.927563
    outer loop
      vertex 16.4646 12.447 1
      vertex 12.5299 13.616 0.876289
      vertex 12.5315 13.3014 1
    endloop
  endfacet
  facet normal 0.0458381 0.365772 0.929575
    outer loop
      vertex 12.5315 13.3014 1
      vertex 12.5299 13.616 0.876289
      vertex 10.0219 13.6159 1
    endloop
  endfacet
  facet normal 0.167965 0.297015 0.939984
    outer loop
      vertex 32.2927 6.73704 0
      vertex 32.088 6.8528 0
      vertex 29.5701 6.73704 0.4865
    endloop
  endfacet
  facet normal 0.182987 0.120428 0.975711
    outer loop
      vertex 31.4281 7.8555 0
      vertex 29.5701 6.73704 0.4865
      vertex 32.088 6.8528 0
    endloop
  endfacet
  facet normal 0.182985 0.120432 0.975711
    outer loop
      vertex 29.5701 6.73704 0.4865
      vertex 31.4281 7.8555 0
      vertex 29.5676 8.2895 0.295349
    endloop
  endfacet
  facet normal 0.14978 0.121064 0.981279
    outer loop
      vertex 29.5676 8.2895 0.295349
      vertex 25.2737 7.89038 1
      vertex 29.5701 6.73704 0.4865
    endloop
  endfacet
  facet normal 0.149779 0.12107 0.981279
    outer loop
      vertex 25.2737 7.89038 1
      vertex 29.5676 8.2895 0.295349
      vertex 24.9511 8.28948 1
    endloop
  endfacet
  facet normal 0.148536 0.175919 0.973134
    outer loop
      vertex 23.7836 9.76631 0.911229
      vertex 24.9511 8.28948 1
      vertex 29.5676 8.2895 0.295349
    endloop
  endfacet
  facet normal 0.14853 0.175914 0.973136
    outer loop
      vertex 24.9511 8.28948 1
      vertex 23.7836 9.76631 0.911229
      vertex 23.7847 9.27431 1
    endloop
  endfacet
  facet normal 0.117913 0.176578 0.977198
    outer loop
      vertex 23.7847 9.27431 1
      vertex 23.7836 9.76631 0.911229
      vertex 23.0479 9.76632 1
    endloop
  endfacet
  facet normal 0.116361 0.237768 0.964327
    outer loop
      vertex 23.0479 9.76632 1
      vertex 23.7836 9.76631 0.911229
      vertex 22.2733 10.1454 1
    endloop
  endfacet
  facet normal -0.0962163 0.361629 0.927344
    outer loop
      vertex -15.8353 13.6002 0.196449
      vertex -15.8378 14.1033 0
      vertex -17.7956 13.5824 0
    endloop
  endfacet
  facet normal -0.0977644 0.302379 0.948161
    outer loop
      vertex -17.7956 13.5824 0
      vertex -15.8305 12.4313 0.569719
      vertex -15.8353 13.6002 0.196449
    endloop
  endfacet
  facet normal -0.097774 0.302364 0.948165
    outer loop
      vertex -15.8305 12.4313 0.569719
      vertex -17.7956 13.5824 0
      vertex -19.2602 13.1088 0
    endloop
  endfacet
  facet normal -0.0885804 0.302699 0.948961
    outer loop
      vertex -15.8353 13.6002 0.196449
      vertex -11.1594 12.4494 1
      vertex -10.7466 12.5702 1
    endloop
  endfacet
  facet normal -0.0885876 0.302674 0.948968
    outer loop
      vertex -11.1594 12.4494 1
      vertex -15.8353 13.6002 0.196449
      vertex -15.8305 12.4313 0.569719
    endloop
  endfacet
  facet normal -0.0891205 0.280583 0.955683
    outer loop
      vertex -13.1246 11.8252 1
      vertex -11.1594 12.4494 1
      vertex -15.8305 12.4313 0.569719
    endloop
  endfacet
  facet normal -0.0970902 0.232222 0.967805
    outer loop
      vertex -15.2433 11.0004 1
      vertex -14.8984 11.1446 1
      vertex -15.8261 11.1412 0.907749
    endloop
  endfacet
  facet normal -0.0966777 0.251964 0.962895
    outer loop
      vertex -15.8305 12.4313 0.569719
      vertex -14.8984 11.1446 1
      vertex -13.1246 11.8252 1
    endloop
  endfacet
  facet normal -0.0966743 0.251967 0.962895
    outer loop
      vertex -14.8984 11.1446 1
      vertex -15.8305 12.4313 0.569719
      vertex -15.8261 11.1412 0.907749
    endloop
  endfacet
  facet normal -0.107863 0.251639 0.961792
    outer loop
      vertex -21.0186 12.385 0
      vertex -15.8261 11.1412 0.907749
      vertex -15.8305 12.4313 0.569719
    endloop
  endfacet
  facet normal -0.107908 0.251478 0.961829
    outer loop
      vertex -15.8261 11.1412 0.907749
      vertex -21.0186 12.385 0
      vertex -21.1822 12.3148 0
    endloop
  endfacet
  facet normal -0.107663 0.261556 0.959165
    outer loop
      vertex -15.8305 12.4313 0.569719
      vertex -19.2602 13.1088 0
      vertex -21.0186 12.385 0
    endloop
  endfacet
  facet normal -0.055007 0.456963 0.887783
    outer loop
      vertex -13.0114 14.6553 0.0187998
      vertex -12.8197 14.7149 0
      vertex -13.0116 14.6918 0
    endloop
  endfacet
  facet normal -0.0619574 0.475758 0.877391
    outer loop
      vertex -12.8197 14.7149 0
      vertex -10.1799 14.651 0.22106
      vertex -10.1828 15.0583 0
    endloop
  endfacet
  facet normal -0.0619434 0.475961 0.877282
    outer loop
      vertex -10.1799 14.651 0.22106
      vertex -12.8197 14.7149 0
      vertex -13.0114 14.6553 0.0187998
    endloop
  endfacet
  facet normal -0.0646818 0.400492 0.914015
    outer loop
      vertex -10.1741 13.6224 0.67217
      vertex -10.1799 14.651 0.22106
      vertex -13.0114 14.6553 0.0187998
    endloop
  endfacet
  facet normal -0.055806 0.400595 0.914554
    outer loop
      vertex -10.1799 14.651 0.22106
      vertex -4.85706 13.6142 1
      vertex -4.65822 13.6419 1
    endloop
  endfacet
  facet normal -0.0557661 0.40075 0.914489
    outer loop
      vertex -4.85706 13.6142 1
      vertex -10.1799 14.651 0.22106
      vertex -10.1741 13.6224 0.67217
    endloop
  endfacet
  facet normal -0.0568436 0.360666 0.930961
    outer loop
      vertex -7.85629 13.1415 1
      vertex -4.85706 13.6142 1
      vertex -10.1741 13.6224 0.67217
    endloop
  endfacet
  facet normal -0.0745096 0.456299 0.886702
    outer loop
      vertex -13.0114 14.6553 0.0187998
      vertex -13.0116 14.6918 0
      vertex -13.2486 14.6531 0
    endloop
  endfacet
  facet normal -0.076978 0.362415 0.928832
    outer loop
      vertex -13.2486 14.6531 0
      vertex -15.8353 13.6002 0.196449
      vertex -13.0114 14.6553 0.0187998
    endloop
  endfacet
  facet normal -0.0769366 0.362321 0.928873
    outer loop
      vertex -15.8353 13.6002 0.196449
      vertex -13.2486 14.6531 0
      vertex -15.8378 14.1033 0
    endloop
  endfacet
  facet normal -0.0792881 0.368183 0.926366
    outer loop
      vertex -10.1741 13.6224 0.67217
      vertex -13.0114 14.6553 0.0187998
      vertex -15.8353 13.6002 0.196449
    endloop
  endfacet
  facet normal -0.080171 0.336007 0.938441
    outer loop
      vertex -10.1741 13.6224 0.67217
      vertex -10.7466 12.5702 1
      vertex -10.1699 12.7078 1
    endloop
  endfacet
  facet normal -0.0801764 0.33601 0.93844
    outer loop
      vertex -10.7466 12.5702 1
      vertex -10.1741 13.6224 0.67217
      vertex -15.8353 13.6002 0.196449
    endloop
  endfacet
  facet normal -0.0630773 0.336491 0.939572
    outer loop
      vertex -10.1699 12.7078 1
      vertex -7.85629 13.1415 1
      vertex -10.1741 13.6224 0.67217
    endloop
  endfacet
  facet normal -0.161448 -0.0242078 0.986584
    outer loop
      vertex -22.3934 -2.86333 1
      vertex -22.823 0.00178242 1
      vertex -27.1146 0.00178242 0.297709
    endloop
  endfacet
  facet normal -0.15875 -0.0196293 0.987124
    outer loop
      vertex -27.1155 -3.5181 0.22757
      vertex -22.3934 -2.86333 1
      vertex -27.1146 0.00178242 0.297709
    endloop
  endfacet
  facet normal -0.158749 -0.0196337 0.987124
    outer loop
      vertex -22.3934 -2.86333 1
      vertex -27.1155 -3.5181 0.22757
      vertex -22.3222 -3.43902 1
    endloop
  endfacet
  facet normal -0.16494 -0.0196075 0.986109
    outer loop
      vertex -28.6642 -1.93532 0
      vertex -27.1155 -3.5181 0.22757
      vertex -27.1146 0.00178242 0.297709
    endloop
  endfacet
  facet normal -0.164938 -0.0196048 0.986109
    outer loop
      vertex -27.1155 -3.5181 0.22757
      vertex -28.6642 -1.93532 0
      vertex -28.4755 -3.52288 0
    endloop
  endfacet
  facet normal -0.164619 -0.0533585 0.984913
    outer loop
      vertex -28.0978 -4.68814 0
      vertex -27.1155 -3.5181 0.22757
      vertex -28.4755 -3.52288 0
    endloop
  endfacet
  facet normal 0 0 1
    outer loop
      vertex 28.565 0.305649 1
      vertex 28.4832 -1.40926 1
      vertex 28.5922 0.00178242 1
    endloop
  endfacet
  facet normal 0 0 1
    outer loop
      vertex 28.3563 2.10167 1
      vertex 28.565 0.305649 1
      vertex 28.4537 1.74133 1
    endloop
  endfacet
  facet normal 0 0 1
    outer loop
      vertex 28.565 0.305649 1
      vertex 28.3563 2.10167 1
      vertex 28.4832 -1.40926 1
    endloop
  endfacet
  facet normal 0 0 1
    outer loop
      vertex 28.1525 -3.02724 1
      vertex 28.4832 -1.40926 1
      vertex 28.3563 2.10167 1
    endloop
  endfacet
  facet normal 0 0 1
    outer loop
      vertex 28.4832 -1.40926 1
      vertex 28.1525 -3.02724 1
      vertex 28.4537 -1.73769 1
    endloop
  endfacet
  facet normal 0 0 1
    outer loop
      vertex 27.802 3.96282 1
      vertex 28.3563 2.10167 1
      vertex 28.0375 3.4514 1
    endloop
  endfacet
  facet normal 0 0 1
    outer loop
      vertex 28.3563 2.10167 1
      vertex 27.802 3.96282 1
      vertex 28.1525 -3.02724 1
    endloop
  endfacet
  facet normal 0 0 1
    outer loop
      vertex 27.6 -4.54723 1
      vertex 28.1525 -3.02724 1
      vertex 27.802 3.96282 1
    endloop
  endfacet
  facet normal 0 0 1
    outer loop
      vertex 28.1525 -3.02724 1
      vertex 27.6 -4.54723 1
      vertex 28.0375 -3.44776 1
    endloop
  endfacet
  facet normal 0 0 1
    outer loop
      vertex 26.8186 5.89026 1
      vertex 27.802 3.96282 1
      vertex 27.333 5.12049 1
    endloop
  endfacet
  facet normal 0 0 1
    outer loop
      vertex 27.802 3.96282 1
      vertex 26.8186 5.89026 1
      vertex 27.6 -4.54723 1
    endloop
  endfacet
  facet normal 0 -0 1
    outer loop
      vertex 26.8406 -5.96975 1
      vertex 27.6 -4.54723 1
      vertex 26.8186 5.89026 1
    endloop
  endfacet
  facet normal 0 0 1
    outer loop
      vertex 27.6 -4.54723 1
      vertex 26.8406 -5.96975 1
      vertex 27.3329 -5.11684 1
    endloop
  endfacet
  facet normal 0 0 1
    outer loop
      vertex 25.2737 7.89038 1
      vertex 26.8186 5.89026 1
      vertex 26.3171 6.73703 1
    endloop
  endfacet
  facet normal 0 -0 1
    outer loop
      vertex 26.3171 -6.73338 1
      vertex 26.8186 5.89026 1
      vertex 25.2737 7.89038 1
    endloop
  endfacet
  facet normal 0 0 1
    outer loop
      vertex 26.8186 5.89026 1
      vertex 26.3171 -6.73338 1
      vertex 26.8406 -5.96975 1
    endloop
  endfacet
  facet normal 0 0 1
    outer loop
      vertex 26.3171 -6.73338 1
      vertex 25.2737 7.89038 1
      vertex 25.8784 -7.29458 1
    endloop
  endfacet
  facet normal 0 0 1
    outer loop
      vertex 23.7847 9.27431 1
      vertex 25.2737 7.89038 1
      vertex 24.9511 8.28948 1
    endloop
  endfacet
  facet normal 0 0 1
    outer loop
      vertex 25.2737 7.89038 1
      vertex 24.9511 -8.28584 1
      vertex 25.8784 -7.29458 1
    endloop
  endfacet
  facet normal 0 0 1
    outer loop
      vertex 25.2737 7.89038 1
      vertex 22.2733 10.1454 1
      vertex 24.9511 -8.28584 1
    endloop
  endfacet
  facet normal 0 0 1
    outer loop
      vertex 25.2737 7.89038 1
      vertex 23.7847 9.27431 1
      vertex 22.2733 10.1454 1
    endloop
  endfacet
  facet normal 0 -0 1
    outer loop
      vertex 23.7847 -9.27067 1
      vertex 24.9511 -8.28584 1
      vertex 22.2733 10.1454 1
    endloop
  endfacet
  facet normal 0 0 1
    outer loop
      vertex 24.9511 -8.28584 1
      vertex 23.7847 -9.27067 1
      vertex 24.7098 -8.52171 1
    endloop
  endfacet
  facet normal 0 0 1
    outer loop
      vertex 22.2733 10.1454 1
      vertex 23.7847 9.27431 1
      vertex 23.0479 9.76632 1
    endloop
  endfacet
  facet normal 0 -0 1
    outer loop
      vertex 23.0479 -9.76268 1
      vertex 23.7847 -9.27067 1
      vertex 22.2733 10.1454 1
    endloop
  endfacet
  facet normal 0 0 1
    outer loop
      vertex 23.7847 -9.27067 1
      vertex 23.0479 -9.76268 1
      vertex 23.2731 -9.62629 1
    endloop
  endfacet
  facet normal 0 0 1
    outer loop
      vertex 22.2733 10.1454 1
      vertex 21.5237 -10.5852 1
      vertex 23.0479 -9.76268 1
    endloop
  endfacet
  facet normal 0 0 1
    outer loop
      vertex 20.3069 11.156 1
      vertex 21.5237 -10.5852 1
      vertex 22.2733 10.1454 1
    endloop
  endfacet
  facet normal 0 0 1
    outer loop
      vertex 20.3069 11.156 1
      vertex 20.3069 -11.1524 1
      vertex 21.5237 -10.5852 1
    endloop
  endfacet
  facet normal 0 0 1
    outer loop
      vertex 20.3069 11.156 1
      vertex 19.571 -11.4615 1
      vertex 20.3069 -11.1524 1
    endloop
  endfacet
  facet normal 0 0 1
    outer loop
      vertex 18.2442 11.942 1
      vertex 19.571 -11.4615 1
      vertex 20.3069 11.156 1
    endloop
  endfacet
  facet normal 0 0 1
    outer loop
      vertex 18.2442 11.942 1
      vertex 18.2442 -11.9383 1
      vertex 19.571 -11.4615 1
    endloop
  endfacet
  facet normal 0 0 1
    outer loop
      vertex 18.2442 11.942 1
      vertex 17.2838 -12.2263 1
      vertex 18.2442 -11.9383 1
    endloop
  endfacet
  facet normal 0 0 1
    outer loop
      vertex 16.4646 12.447 1
      vertex 17.2838 -12.2263 1
      vertex 18.2442 11.942 1
    endloop
  endfacet
  facet normal 0 0 1
    outer loop
      vertex 16.4646 12.447 1
      vertex 16.4646 -12.4433 1
      vertex 17.2838 -12.2263 1
    endloop
  endfacet
  facet normal 0 0 1
    outer loop
      vertex 16.4646 12.447 1
      vertex 14.6244 -12.8715 1
      vertex 16.4646 -12.4433 1
    endloop
  endfacet
  facet normal 0 0 1
    outer loop
      vertex 12.5315 13.3014 1
      vertex 14.6244 -12.8715 1
      vertex 16.4646 12.447 1
    endloop
  endfacet
  facet normal 0 0 1
    outer loop
      vertex 12.5315 13.3014 1
      vertex 12.5315 -13.2977 1
      vertex 14.6244 -12.8715 1
    endloop
  endfacet
  facet normal 0 0 1
    outer loop
      vertex 12.5315 13.3014 1
      vertex 11.601 -13.4208 1
      vertex 12.5315 -13.2977 1
    endloop
  endfacet
  facet normal 0 0 1
    outer loop
      vertex 10.0219 13.6159 1
      vertex 11.601 -13.4208 1
      vertex 12.5315 13.3014 1
    endloop
  endfacet
  facet normal 0 0 1
    outer loop
      vertex 10.0219 13.6159 1
      vertex 10.0219 -13.6122 1
      vertex 11.601 -13.4208 1
    endloop
  endfacet
  facet normal 0 0 1
    outer loop
      vertex 10.0219 13.6159 1
      vertex 7.99575 -13.8197 1
      vertex 10.0219 -13.6122 1
    endloop
  endfacet
  facet normal 0 0 1
    outer loop
      vertex 6.84908 13.9301 1
      vertex 7.99575 -13.8197 1
      vertex 10.0219 13.6159 1
    endloop
  endfacet
  facet normal 0 0 1
    outer loop
      vertex 6.84908 13.9301 1
      vertex 6.84908 -13.9264 1
      vertex 7.99575 -13.8197 1
    endloop
  endfacet
  facet normal 0 0 1
    outer loop
      vertex 4.93655 13.9628 1
      vertex 6.84908 -13.9264 1
      vertex 6.84908 13.9301 1
    endloop
  endfacet
  facet normal 0 0 1
    outer loop
      vertex 4.93655 13.9628 1
      vertex 3.22931 -13.9852 1
      vertex 6.84908 -13.9264 1
    endloop
  endfacet
  facet normal 0 0 1
    outer loop
      vertex 1.17506 14.0242 1
      vertex 3.22931 -13.9852 1
      vertex 4.93655 13.9628 1
    endloop
  endfacet
  facet normal 0 0 1
    outer loop
      vertex 3.22931 -13.9852 1
      vertex 1.17506 14.0242 1
      vertex 1.17506 -14.0205 1
    endloop
  endfacet
  facet normal -0 0 1
    outer loop
      vertex -0.540096 13.9266 1
      vertex 1.17506 -14.0205 1
      vertex 1.17506 14.0242 1
    endloop
  endfacet
  facet normal 0 0 1
    outer loop
      vertex -0.540096 13.9266 1
      vertex -4.1286 -13.6783 1
      vertex 1.17506 -14.0205 1
    endloop
  endfacet
  facet normal -0 0 1
    outer loop
      vertex -4.50411 13.6596 1
      vertex -4.1286 -13.6783 1
      vertex -0.540096 13.9266 1
    endloop
  endfacet
  facet normal -0 0 1
    outer loop
      vertex -4.85706 13.6142 1
      vertex -4.1286 -13.6783 1
      vertex -4.50411 13.6596 1
    endloop
  endfacet
  facet normal 0 0 1
    outer loop
      vertex -4.85706 13.6142 1
      vertex -4.50411 13.6596 1
      vertex -4.65822 13.6419 1
    endloop
  endfacet
  facet normal -0 0 1
    outer loop
      vertex -4.85706 -13.6106 1
      vertex -4.1286 -13.6783 1
      vertex -4.85706 13.6142 1
    endloop
  endfacet
  facet normal 0 0 1
    outer loop
      vertex -4.1286 -13.6783 1
      vertex -4.85706 -13.6106 1
      vertex -4.50411 -13.656 1
    endloop
  endfacet
  facet normal -0 0 1
    outer loop
      vertex -7.85629 13.1415 1
      vertex -4.85706 -13.6106 1
      vertex -4.85706 13.6142 1
    endloop
  endfacet
  facet normal 0 0 1
    outer loop
      vertex -10.1699 -12.7042 1
      vertex -7.85629 13.1415 1
      vertex -10.1699 12.7078 1
    endloop
  endfacet
  facet normal 0 0 1
    outer loop
      vertex -7.85629 13.1415 1
      vertex -10.1699 -12.7042 1
      vertex -4.85706 -13.6106 1
    endloop
  endfacet
  facet normal -0 0 1
    outer loop
      vertex -10.7466 12.5702 1
      vertex -10.1699 -12.7042 1
      vertex -10.1699 12.7078 1
    endloop
  endfacet
  facet normal 0 0 1
    outer loop
      vertex -10.7466 12.5702 1
      vertex -11.1594 -12.4458 1
      vertex -10.1699 -12.7042 1
    endloop
  endfacet
  facet normal -0 0 1
    outer loop
      vertex -11.1594 12.4494 1
      vertex -11.1594 -12.4458 1
      vertex -10.7466 12.5702 1
    endloop
  endfacet
  facet normal 0 0 1
    outer loop
      vertex -11.1594 12.4494 1
      vertex -12.9821 -11.7971 1
      vertex -11.1594 -12.4458 1
    endloop
  endfacet
  facet normal -0 0 1
    outer loop
      vertex -13.1246 11.8252 1
      vertex -12.9821 -11.7971 1
      vertex -11.1594 12.4494 1
    endloop
  endfacet
  facet normal -0 0 1
    outer loop
      vertex -14.8984 11.1446 1
      vertex -12.9821 -11.7971 1
      vertex -13.1246 11.8252 1
    endloop
  endfacet
  facet normal 0 0 1
    outer loop
      vertex -14.8984 11.1446 1
      vertex -14.8984 -11.1409 1
      vertex -12.9821 -11.7971 1
    endloop
  endfacet
  facet normal 0 0 1
    outer loop
      vertex -15.8249 10.7106 1
      vertex -14.8984 11.1446 1
      vertex -15.2433 11.0004 1
    endloop
  endfacet
  facet normal 0 0 1
    outer loop
      vertex -14.8984 11.1446 1
      vertex -15.8249 10.7106 1
      vertex -14.8984 -11.1409 1
    endloop
  endfacet
  facet normal 0 0 1
    outer loop
      vertex -15.8249 10.7106 1
      vertex -15.8249 -10.7069 1
      vertex -14.8984 -11.1409 1
    endloop
  endfacet
  facet normal 0 0 1
    outer loop
      vertex -17.4486 9.74009 1
      vertex -15.8249 10.7106 1
      vertex -17.0221 10.037 1
    endloop
  endfacet
  facet normal 0 0 1
    outer loop
      vertex -15.8249 10.7106 1
      vertex -17.4486 9.74009 1
      vertex -15.8249 -10.7069 1
    endloop
  endfacet
  facet normal -0 0 1
    outer loop
      vertex -18.6487 -8.74497 1
      vertex -15.8249 -10.7069 1
      vertex -17.4486 9.74009 1
    endloop
  endfacet
  facet normal 0 0 1
    outer loop
      vertex -15.8249 -10.7069 1
      vertex -18.6487 -8.74497 1
      vertex -17.509 -9.72557 1
    endloop
  endfacet
  facet normal 0 0 1
    outer loop
      vertex -18.6487 -8.74497 1
      vertex -17.4486 9.74009 1
      vertex -18.5089 8.95802 1
    endloop
  endfacet
  facet normal 0 0 1
    outer loop
      vertex -17.509 -9.72557 1
      vertex -18.6487 -8.74497 1
      vertex -17.9947 -9.3771 1
    endloop
  endfacet
  facet normal -0 0 1
    outer loop
      vertex -19.2891 8.25369 1
      vertex -18.6487 -8.74497 1
      vertex -18.5089 8.95802 1
    endloop
  endfacet
  facet normal -0 0 1
    outer loop
      vertex -21.4698 5.25248 1
      vertex -18.6487 -8.74497 1
      vertex -19.2891 8.25369 1
    endloop
  endfacet
  facet normal 0 0 1
    outer loop
      vertex -21.4698 5.25248 1
      vertex -19.2891 8.25369 1
      vertex -19.7696 7.78335 1
    endloop
  endfacet
  facet normal 0 0 1
    outer loop
      vertex -21.4698 5.25248 1
      vertex -19.7696 7.78335 1
      vertex -20.6838 6.69896 1
    endloop
  endfacet
  facet normal -0 0 1
    outer loop
      vertex -21.4698 -5.24884 1
      vertex -18.6487 -8.74497 1
      vertex -21.4698 5.25248 1
    endloop
  endfacet
  facet normal 0 0 1
    outer loop
      vertex -21.4698 5.25248 1
      vertex -20.6838 6.69896 1
      vertex -20.8224 6.51303 1
    endloop
  endfacet
  facet normal 0 0 1
    outer loop
      vertex -18.6487 -8.74497 1
      vertex -21.4698 -5.24884 1
      vertex -19.6853 -7.80048 1
    endloop
  endfacet
  facet normal 0 0 1
    outer loop
      vertex -19.6853 -7.80048 1
      vertex -21.4698 -5.24884 1
      vertex -20.7099 -6.69169 1
    endloop
  endfacet
  facet normal -0 0 1
    outer loop
      vertex -22.3934 -2.86333 1
      vertex -21.4698 -5.24884 1
      vertex -21.4698 5.25248 1
    endloop
  endfacet
  facet normal 0 0 1
    outer loop
      vertex -22.3934 2.86695 1
      vertex -21.4698 5.25248 1
      vertex -22.3222 3.44266 1
    endloop
  endfacet
  facet normal 0 0 1
    outer loop
      vertex -22.3934 -2.86333 1
      vertex -21.4698 5.25248 1
      vertex -22.3934 2.86695 1
    endloop
  endfacet
  facet normal 0 0 1
    outer loop
      vertex -21.4698 -5.24884 1
      vertex -22.3934 -2.86333 1
      vertex -22.0466 -4.10603 1
    endloop
  endfacet
  facet normal 0 0 1
    outer loop
      vertex -22.0466 -4.10603 1
      vertex -22.3934 -2.86333 1
      vertex -22.3222 -3.43902 1
    endloop
  endfacet
  facet normal 0 -0 1
    outer loop
      vertex -22.3934 -2.86333 1
      vertex -22.3934 2.86695 1
      vertex -22.823 0.00178242 1
    endloop
  endfacet
  facet normal 0 0 -1
    outer loop
      vertex 33.8207 -0.408558 0
      vertex 33.8207 0.412141 0
      vertex 33.8479 0.00178242 0
    endloop
  endfacet
  facet normal 0 0 -1
    outer loop
      vertex 33.4557 -2.93175 0
      vertex 33.8207 0.412141 0
      vertex 33.8207 -0.408558 0
    endloop
  endfacet
  facet normal 0 0 -1
    outer loop
      vertex 33.8207 0.412141 0
      vertex 26.9601 11.7363 0
      vertex 33.7828 1.37613 0
    endloop
  endfacet
  facet normal 0 0 -1
    outer loop
      vertex 33.7828 1.37613 0
      vertex 33.5445 3.0548 0
      vertex 33.6339 2.59352 0
    endloop
  endfacet
  facet normal 0 0 -1
    outer loop
      vertex 33.7828 1.37613 0
      vertex 31.4281 7.8555 0
      vertex 33.5445 3.0548 0
    endloop
  endfacet
  facet normal -0 0 -1
    outer loop
      vertex 33.8207 0.412141 0
      vertex 33.4557 -2.93175 0
      vertex 26.9601 11.7363 0
    endloop
  endfacet
  facet normal 0 0 -1
    outer loop
      vertex 33.5445 3.0548 0
      vertex 32.088 6.8528 0
      vertex 33.4677 3.45106 0
    endloop
  endfacet
  facet normal 0 0 -1
    outer loop
      vertex 26.9121 -11.8522 0
      vertex 33.4557 -2.93175 0
      vertex 33.3539 -3.44723 0
    endloop
  endfacet
  facet normal 0 0 -1
    outer loop
      vertex 33.0333 -4.83446 0
      vertex 33.3539 -3.44723 0
      vertex 33.2362 -4.24907 0
    endloop
  endfacet
  facet normal 0 0 -1
    outer loop
      vertex 33.3539 -3.44723 0
      vertex 33.0333 -4.83446 0
      vertex 32.5194 -5.97318 0
    endloop
  endfacet
  facet normal 0 0 -1
    outer loop
      vertex 32.5194 -5.97318 0
      vertex 33.0333 -4.83446 0
      vertex 33.0303 -4.85404 0
    endloop
  endfacet
  facet normal 0 0 -1
    outer loop
      vertex 31.4298 -7.85155 0
      vertex 33.3539 -3.44723 0
      vertex 32.5194 -5.97318 0
    endloop
  endfacet
  facet normal -0 -0 -1
    outer loop
      vertex 32.6687 5.79814 0
      vertex 33.4677 3.45106 0
      vertex 32.088 6.8528 0
    endloop
  endfacet
  facet normal 0 0 -1
    outer loop
      vertex 33.4677 3.45106 0
      vertex 32.6687 5.79814 0
      vertex 33.398 3.8107 0
    endloop
  endfacet
  facet normal 0 0 -1
    outer loop
      vertex 32.6687 5.79814 0
      vertex 32.088 6.8528 0
      vertex 32.3732 6.5832 0
    endloop
  endfacet
  facet normal 0 0 -1
    outer loop
      vertex 31.4298 -7.85155 0
      vertex 32.5194 -5.97318 0
      vertex 32.1439 -6.73228 0
    endloop
  endfacet
  facet normal 0 0 -1
    outer loop
      vertex 31.4298 -7.85155 0
      vertex 32.1439 -6.73228 0
      vertex 32.0899 -6.84936 0
    endloop
  endfacet
  facet normal 0 0 -1
    outer loop
      vertex 32.3732 6.5832 0
      vertex 32.088 6.8528 0
      vertex 32.2927 6.73704 0
    endloop
  endfacet
  facet normal 0 0 -1
    outer loop
      vertex 33.3539 -3.44723 0
      vertex 31.4298 -7.85155 0
      vertex 26.9121 -11.8522 0
    endloop
  endfacet
  facet normal 0 0 -1
    outer loop
      vertex 33.5445 3.0548 0
      vertex 31.4281 7.8555 0
      vertex 32.088 6.8528 0
    endloop
  endfacet
  facet normal 0 0 -1
    outer loop
      vertex 31.0167 -8.55289 0
      vertex 31.4298 -7.85155 0
      vertex 31.2183 -8.28569 0
    endloop
  endfacet
  facet normal 0 0 -1
    outer loop
      vertex 33.7828 1.37613 0
      vertex 26.9601 11.7363 0
      vertex 31.4281 7.8555 0
    endloop
  endfacet
  facet normal 0 0 -1
    outer loop
      vertex 31.0167 -8.55289 0
      vertex 31.2183 -8.28569 0
      vertex 31.1863 -8.35145 0
    endloop
  endfacet
  facet normal 0 0 -1
    outer loop
      vertex 29.966 -9.73 0
      vertex 31.4298 -7.85155 0
      vertex 31.0167 -8.55289 0
    endloop
  endfacet
  facet normal -0 -0 -1
    outer loop
      vertex 30.0311 9.64231 0
      vertex 31.4281 7.8555 0
      vertex 26.9601 11.7363 0
    endloop
  endfacet
  facet normal 0 0 -1
    outer loop
      vertex 31.4281 7.8555 0
      vertex 30.0311 9.64231 0
      vertex 31.1982 8.28897 0
    endloop
  endfacet
  facet normal -0 -0 -1
    outer loop
      vertex 28.102 11.156 0
      vertex 30.0311 9.64231 0
      vertex 26.9601 11.7363 0
    endloop
  endfacet
  facet normal 0 0 -1
    outer loop
      vertex 31.4298 -7.85155 0
      vertex 29.966 -9.73 0
      vertex 28.102 -11.1523 0
    endloop
  endfacet
  facet normal -0 -0 -1
    outer loop
      vertex 29.942 9.76618 0
      vertex 30.0311 9.64231 0
      vertex 29.5638 10.104 0
    endloop
  endfacet
  facet normal 0 0 -1
    outer loop
      vertex 29.5638 -10.1004 0
      vertex 29.966 -9.73 0
      vertex 29.9383 -9.76246 0
    endloop
  endfacet
  facet normal 0 0 -1
    outer loop
      vertex 29.5638 -10.1004 0
      vertex 29.9383 -9.76246 0
      vertex 29.8726 -9.83962 0
    endloop
  endfacet
  facet normal 0 0 -1
    outer loop
      vertex 29.966 -9.73 0
      vertex 29.5638 -10.1004 0
      vertex 28.102 -11.1523 0
    endloop
  endfacet
  facet normal 0 0 -1
    outer loop
      vertex 30.0311 9.64231 0
      vertex 29.942 9.76618 0
      vertex 29.9908 9.71159 0
    endloop
  endfacet
  facet normal 0 0 -1
    outer loop
      vertex 28.102 -11.1523 0
      vertex 29.5638 -10.1004 0
      vertex 28.509 -10.8992 0
    endloop
  endfacet
  facet normal 0 0 -1
    outer loop
      vertex 26.9121 -11.8522 0
      vertex 31.4298 -7.85155 0
      vertex 28.102 -11.1523 0
    endloop
  endfacet
  facet normal 0 0 -1
    outer loop
      vertex 29.9908 9.71159 0
      vertex 29.942 9.76618 0
      vertex 29.9733 9.7343 0
    endloop
  endfacet
  facet normal 0 0 -1
    outer loop
      vertex 30.0311 9.64231 0
      vertex 28.102 11.156 0
      vertex 29.5638 10.104 0
    endloop
  endfacet
  facet normal 0 0 -1
    outer loop
      vertex 33.4557 -2.93175 0
      vertex 26.9121 -11.8522 0
      vertex 25.6754 -12.4432 0
    endloop
  endfacet
  facet normal -0 0 -1
    outer loop
      vertex 33.4557 -2.93175 0
      vertex 25.6754 -12.4432 0
      vertex 26.9601 11.7363 0
    endloop
  endfacet
  facet normal 0 0 -1
    outer loop
      vertex 25.6754 -12.4432 0
      vertex 25.6754 12.4469 0
      vertex 26.9601 11.7363 0
    endloop
  endfacet
  facet normal 0 0 -1
    outer loop
      vertex 25.0893 -12.7091 0
      vertex 25.6754 12.4469 0
      vertex 25.6754 -12.4432 0
    endloop
  endfacet
  facet normal 0 0 -1
    outer loop
      vertex 23.772 -13.1894 0
      vertex 25.6754 12.4469 0
      vertex 25.0893 -12.7091 0
    endloop
  endfacet
  facet normal 0 0 -1
    outer loop
      vertex 23.772 -13.1894 0
      vertex 23.772 13.193 0
      vertex 25.6754 12.4469 0
    endloop
  endfacet
  facet normal 0 0 -1
    outer loop
      vertex 22.9828 -13.4459 0
      vertex 23.772 13.193 0
      vertex 23.772 -13.1894 0
    endloop
  endfacet
  facet normal 0 0 -1
    outer loop
      vertex 22.3775 -13.6124 0
      vertex 23.772 13.193 0
      vertex 22.9828 -13.4459 0
    endloop
  endfacet
  facet normal 0 0 -1
    outer loop
      vertex 22.3775 -13.6124 0
      vertex 22.3775 13.616 0
      vertex 23.772 13.193 0
    endloop
  endfacet
  facet normal 0 0 -1
    outer loop
      vertex 20.6021 -14.0526 0
      vertex 22.3775 13.616 0
      vertex 22.3775 -13.6124 0
    endloop
  endfacet
  facet normal 0 0 -1
    outer loop
      vertex 18.2312 14.5485 0
      vertex 20.6021 -14.0526 0
      vertex 18.2312 -14.5448 0
    endloop
  endfacet
  facet normal 0 0 -1
    outer loop
      vertex 20.6021 -14.0526 0
      vertex 18.2312 14.5485 0
      vertex 22.3775 13.616 0
    endloop
  endfacet
  facet normal 0 0 -1
    outer loop
      vertex 17.9624 -14.5928 0
      vertex 18.2312 14.5485 0
      vertex 18.2312 -14.5448 0
    endloop
  endfacet
  facet normal 0 0 -1
    outer loop
      vertex 17.649 -14.6412 0
      vertex 18.2312 14.5485 0
      vertex 17.9624 -14.5928 0
    endloop
  endfacet
  facet normal 0 0 -1
    outer loop
      vertex 17.649 -14.6412 0
      vertex 17.649 14.6448 0
      vertex 18.2312 14.5485 0
    endloop
  endfacet
  facet normal 0 0 -1
    outer loop
      vertex 14.8978 -15.0091 0
      vertex 17.649 14.6448 0
      vertex 17.649 -14.6412 0
    endloop
  endfacet
  facet normal 0 0 -1
    outer loop
      vertex 12.5186 15.2853 0
      vertex 14.8978 -15.0091 0
      vertex 12.5186 -15.2817 0
    endloop
  endfacet
  facet normal 0 0 -1
    outer loop
      vertex 14.8978 -15.0091 0
      vertex 12.5186 15.2853 0
      vertex 17.649 14.6448 0
    endloop
  endfacet
  facet normal 0 0 -1
    outer loop
      vertex 11.4773 -15.3627 0
      vertex 12.5186 15.2853 0
      vertex 12.5186 -15.2817 0
    endloop
  endfacet
  facet normal 0 0 -1
    outer loop
      vertex 9.17027 15.5282 0
      vertex 11.4773 -15.3627 0
      vertex 9.17027 -15.5245 0
    endloop
  endfacet
  facet normal 0 0 -1
    outer loop
      vertex 11.4773 -15.3627 0
      vertex 9.17027 15.5282 0
      vertex 12.5186 15.2853 0
    endloop
  endfacet
  facet normal 0 0 -1
    outer loop
      vertex 7.94048 -15.5995 0
      vertex 9.17027 15.5282 0
      vertex 9.17027 -15.5245 0
    endloop
  endfacet
  facet normal 0 0 -1
    outer loop
      vertex 6.83616 15.6657 0
      vertex 7.94048 -15.5995 0
      vertex 6.83616 -15.6621 0
    endloop
  endfacet
  facet normal 0 0 -1
    outer loop
      vertex 7.94048 -15.5995 0
      vertex 6.83616 15.6657 0
      vertex 9.17027 15.5282 0
    endloop
  endfacet
  facet normal 0 0 -1
    outer loop
      vertex 6.83616 -15.6621 0
      vertex 4.35864 15.697 0
      vertex 6.83616 15.6657 0
    endloop
  endfacet
  facet normal 0 0 -1
    outer loop
      vertex 3.73811 -15.7001 0
      vertex 4.35864 15.697 0
      vertex 6.83616 -15.6621 0
    endloop
  endfacet
  facet normal 0 0 -1
    outer loop
      vertex 1.16214 15.7365 0
      vertex 3.73811 -15.7001 0
      vertex 1.16214 -15.7328 0
    endloop
  endfacet
  facet normal 0 0 -1
    outer loop
      vertex 3.73811 -15.7001 0
      vertex 1.16214 15.7365 0
      vertex 4.35864 15.697 0
    endloop
  endfacet
  facet normal 0 0 -1
    outer loop
      vertex 1.16214 -15.7328 0
      vertex -0.956555 15.6721 0
      vertex 1.16214 15.7365 0
    endloop
  endfacet
  facet normal 0 0 -1
    outer loop
      vertex -3.91523 -15.5638 0
      vertex -0.956555 15.6721 0
      vertex 1.16214 -15.7328 0
    endloop
  endfacet
  facet normal 0 0 -1
    outer loop
      vertex -4.51702 15.5484 0
      vertex -3.91523 -15.5638 0
      vertex -4.51702 -15.5447 0
    endloop
  endfacet
  facet normal 0 0 -1
    outer loop
      vertex -3.91523 -15.5638 0
      vertex -4.51702 15.5484 0
      vertex -0.956555 15.6721 0
    endloop
  endfacet
  facet normal 0 0 -1
    outer loop
      vertex -4.51702 -15.5447 0
      vertex -4.6841 15.5379 0
      vertex -4.51702 15.5484 0
    endloop
  endfacet
  facet normal 0 0 -1
    outer loop
      vertex -4.83615 -15.5231 0
      vertex -4.6841 15.5379 0
      vertex -4.51702 -15.5447 0
    endloop
  endfacet
  facet normal 0 0 -1
    outer loop
      vertex -4.83615 -15.5231 0
      vertex -4.83615 15.5267 0
      vertex -4.6841 15.5379 0
    endloop
  endfacet
  facet normal 0 0 -1
    outer loop
      vertex -4.83615 -15.5231 0
      vertex -8.33525 15.2434 0
      vertex -4.83615 15.5267 0
    endloop
  endfacet
  facet normal 0 0 -1
    outer loop
      vertex -10.1828 -15.0547 0
      vertex -8.33525 15.2434 0
      vertex -4.83615 -15.5231 0
    endloop
  endfacet
  facet normal 0 0 -1
    outer loop
      vertex -10.1828 -15.0547 0
      vertex -10.1828 15.0583 0
      vertex -8.33525 15.2434 0
    endloop
  endfacet
  facet normal 0 0 -1
    outer loop
      vertex -11.1345 -14.9458 0
      vertex -10.1828 15.0583 0
      vertex -10.1828 -15.0547 0
    endloop
  endfacet
  facet normal 0 0 -1
    outer loop
      vertex -11.1345 -14.9458 0
      vertex -12.8197 14.7149 0
      vertex -10.1828 15.0583 0
    endloop
  endfacet
  facet normal 0 0 -1
    outer loop
      vertex -13.0116 -14.6881 0
      vertex -12.8197 14.7149 0
      vertex -11.1345 -14.9458 0
    endloop
  endfacet
  facet normal 0 0 -1
    outer loop
      vertex -13.2485 -14.6494 0
      vertex -12.8197 14.7149 0
      vertex -13.0116 -14.6881 0
    endloop
  endfacet
  facet normal 0 0 -1
    outer loop
      vertex -13.2485 -14.6494 0
      vertex -13.0116 -14.6881 0
      vertex -13.0932 -14.6764 0
    endloop
  endfacet
  facet normal 0 0 -1
    outer loop
      vertex -13.2486 14.6531 0
      vertex -12.8197 14.7149 0
      vertex -13.2485 -14.6494 0
    endloop
  endfacet
  facet normal 0 0 -1
    outer loop
      vertex -12.8197 14.7149 0
      vertex -13.2486 14.6531 0
      vertex -13.0116 14.6918 0
    endloop
  endfacet
  facet normal 0 0 -1
    outer loop
      vertex -15.8378 -14.0997 0
      vertex -13.2486 14.6531 0
      vertex -13.2485 -14.6494 0
    endloop
  endfacet
  facet normal 0 0 -1
    outer loop
      vertex -15.8378 -14.0997 0
      vertex -15.8378 14.1033 0
      vertex -13.2486 14.6531 0
    endloop
  endfacet
  facet normal 0 0 -1
    outer loop
      vertex -16.6976 -13.8962 0
      vertex -15.8378 14.1033 0
      vertex -15.8378 -14.0997 0
    endloop
  endfacet
  facet normal 0 0 -1
    outer loop
      vertex -17.7955 -13.5788 0
      vertex -15.8378 14.1033 0
      vertex -16.6976 -13.8962 0
    endloop
  endfacet
  facet normal 0 0 -1
    outer loop
      vertex -17.7955 -13.5788 0
      vertex -17.7956 13.5824 0
      vertex -15.8378 14.1033 0
    endloop
  endfacet
  facet normal 0 0 -1
    outer loop
      vertex -17.7955 -13.5788 0
      vertex -19.2602 13.1088 0
      vertex -17.7956 13.5824 0
    endloop
  endfacet
  facet normal 0 0 -1
    outer loop
      vertex -19.8547 -12.8742 0
      vertex -19.2602 13.1088 0
      vertex -17.7955 -13.5788 0
    endloop
  endfacet
  facet normal 0 0 -1
    outer loop
      vertex -19.8547 -12.8742 0
      vertex -21.0186 12.385 0
      vertex -19.2602 13.1088 0
    endloop
  endfacet
  facet normal 0 0 -1
    outer loop
      vertex -21.4827 -12.1259 0
      vertex -19.8547 -12.8742 0
      vertex -21.0358 -12.3779 0
    endloop
  endfacet
  facet normal 0 0 -1
    outer loop
      vertex -19.8547 -12.8742 0
      vertex -21.4827 -12.1259 0
      vertex -21.0186 12.385 0
    endloop
  endfacet
  facet normal 0 0 -1
    outer loop
      vertex -21.4827 -12.1259 0
      vertex -21.0358 -12.3779 0
      vertex -21.3249 -12.2278 0
    endloop
  endfacet
  facet normal 0 0 -1
    outer loop
      vertex -21.4827 12.1532 0
      vertex -21.0186 12.385 0
      vertex -21.4827 -12.1259 0
    endloop
  endfacet
  facet normal 0 0 -1
    outer loop
      vertex -21.0186 12.385 0
      vertex -21.4827 12.1532 0
      vertex -21.1822 12.3148 0
    endloop
  endfacet
  facet normal 0 0 -1
    outer loop
      vertex -28.6817 1.56824 0
      vertex -21.4827 12.1532 0
      vertex -21.4827 -12.1259 0
    endloop
  endfacet
  facet normal 0 0 -1
    outer loop
      vertex -28.6642 -1.93532 0
      vertex -21.4827 -12.1259 0
      vertex -23.0428 -11.2375 0
    endloop
  endfacet
  facet normal 0 0 -1
    outer loop
      vertex -28.0978 -4.68814 0
      vertex -23.0428 -11.2375 0
      vertex -24.3016 -10.3281 0
    endloop
  endfacet
  facet normal 0 -0 -1
    outer loop
      vertex -24.3016 10.3318 0
      vertex -21.4827 12.1532 0
      vertex -28.6817 1.56824 0
    endloop
  endfacet
  facet normal 0 0 -1
    outer loop
      vertex -24.9874 -9.82618 0
      vertex -24.3016 -10.3281 0
      vertex -24.6279 -10.1205 0
    endloop
  endfacet
  facet normal 0 0 -1
    outer loop
      vertex -24.3016 -10.3281 0
      vertex -24.9874 -9.82618 0
      vertex -25.9927 -8.66655 0
    endloop
  endfacet
  facet normal 0 0 -1
    outer loop
      vertex -21.4827 12.1532 0
      vertex -24.3016 10.3318 0
      vertex -22.5388 11.6119 0
    endloop
  endfacet
  facet normal 0 0 -1
    outer loop
      vertex -24.3016 -10.3281 0
      vertex -25.9927 -8.66655 0
      vertex -28.0978 -4.68814 0
    endloop
  endfacet
  facet normal 0 0 -1
    outer loop
      vertex -28.0978 -4.68814 0
      vertex -25.9927 -8.66655 0
      vertex -27.1184 -7.07282 0
    endloop
  endfacet
  facet normal 0 -0 -1
    outer loop
      vertex -27.3552 6.58777 0
      vertex -24.3016 10.3318 0
      vertex -28.6817 1.56824 0
    endloop
  endfacet
  facet normal 0 0 -1
    outer loop
      vertex -27.2592 -6.86559 0
      vertex -27.1184 -7.07282 0
      vertex -27.1771 -6.99469 0
    endloop
  endfacet
  facet normal 0 0 -1
    outer loop
      vertex -24.3016 10.3318 0
      vertex -27.1184 7.07646 0
      vertex -24.9875 9.82982 0
    endloop
  endfacet
  facet normal 0 0 -1
    outer loop
      vertex -27.1184 7.07646 0
      vertex -27.3552 6.58777 0
      vertex -27.1771 6.99833 0
    endloop
  endfacet
  facet normal 0 0 -1
    outer loop
      vertex -27.1184 -7.07282 0
      vertex -27.2592 -6.86559 0
      vertex -28.0978 -4.68814 0
    endloop
  endfacet
  facet normal 0 0 -1
    outer loop
      vertex -27.1771 6.99833 0
      vertex -27.3552 6.58777 0
      vertex -27.2592 6.86923 0
    endloop
  endfacet
  facet normal 0 0 -1
    outer loop
      vertex -23.0428 -11.2375 0
      vertex -28.0978 -4.68814 0
      vertex -28.6642 -1.93532 0
    endloop
  endfacet
  facet normal 0 0 -1
    outer loop
      vertex -28.6642 -1.93532 0
      vertex -28.0978 -4.68814 0
      vertex -28.4755 -3.52288 0
    endloop
  endfacet
  facet normal 0 0 -1
    outer loop
      vertex -21.4827 -12.1259 0
      vertex -28.6642 -1.93532 0
      vertex -28.6817 1.56824 0
    endloop
  endfacet
  facet normal 0 -0 -1
    outer loop
      vertex -27.1184 7.07646 0
      vertex -24.3016 10.3318 0
      vertex -27.3552 6.58777 0
    endloop
  endfacet
  facet normal 0 0 -1
    outer loop
      vertex -27.3552 6.58777 0
      vertex -28.6817 1.56824 0
      vertex -28.4755 3.52653 0
    endloop
  endfacet
  facet normal 0 -0 -1
    outer loop
      vertex -28.6817 1.56824 0
      vertex -28.6642 -1.93532 0
      vertex -28.8648 0.00178242 0
    endloop
  endfacet
endsolid OpenSCAD_Model
