  0
SECTION
  2
BLOCKS
  0
ENDSEC
  0
SECTION
  2
ENTITIES
  0
LINE
  8
0
 10
17.7794
 20
-17.0865
 11
19.282
 21
-17.0759
  0
LINE
  8
0
 10
19.282
 20
-17.0759
 11
21.1395
 21
-17.0596
  0
LINE
  8
0
 10
21.1395
 20
-17.0596
 11
21.769
 21
-17.0531
  0
LINE
  8
0
 10
21.769
 20
-17.0531
 11
23.7271
 21
-17.0278
  0
LINE
  8
0
 10
23.7271
 20
-17.0278
 11
23.9978
 21
-17.0238
  0
LINE
  8
0
 10
23.9978
 20
-17.0238
 11
24.0919
 21
-17.0221
  0
LINE
  8
0
 10
24.0919
 20
-17.0221
 11
25.6664
 21
-16.9902
  0
LINE
  8
0
 10
25.6664
 20
-16.9902
 11
26.3187
 21
-16.974
  0
LINE
  8
0
 10
26.3187
 20
-16.974
 11
27.6626
 21
-16.938
  0
LINE
  8
0
 10
27.6626
 20
-16.938
 11
28.3451
 21
-16.9156
  0
LINE
  8
0
 10
28.3451
 20
-16.9156
 11
28.7972
 21
-16.8994
  0
LINE
  8
0
 10
28.7972
 20
-16.8994
 11
29.5047
 21
-16.8704
  0
LINE
  8
0
 10
29.5047
 20
-16.8704
 11
30.0539
 21
-16.8468
  0
LINE
  8
0
 10
30.0539
 20
-16.8468
 11
30.5301
 21
-16.8205
  0
LINE
  8
0
 10
30.5301
 20
-16.8205
 11
31.5425
 21
-16.7676
  0
LINE
  8
0
 10
31.5425
 20
-16.7676
 11
31.8851
 21
-16.7473
  0
LINE
  8
0
 10
31.8851
 20
-16.7473
 11
32.5928
 21
-16.6984
  0
LINE
  8
0
 10
32.5928
 20
-16.6984
 11
32.8262
 21
-16.6815
  0
LINE
  8
0
 10
32.8262
 20
-16.6815
 11
32.8595
 21
-16.6786
  0
LINE
  8
0
 10
32.8595
 20
-16.6786
 11
33.5822
 21
-16.6186
  0
LINE
  8
0
 10
33.5822
 20
-16.6186
 11
33.9384
 21
-16.5876
  0
LINE
  8
0
 10
33.9384
 20
-16.5876
 11
34.2741
 21
-16.556
  0
LINE
  8
0
 10
34.2741
 20
-16.556
 11
35.0377
 21
-16.4644
  0
LINE
  8
0
 10
35.0377
 20
-16.4644
 11
35.0674
 21
-16.4611
  0
LINE
  8
0
 10
35.0674
 20
-16.4611
 11
35.479
 21
-16.4138
  0
LINE
  8
0
 10
35.479
 20
-16.4138
 11
35.8928
 21
-16.3246
  0
LINE
  8
0
 10
35.8928
 20
-16.3246
 11
35.8969
 21
-16.3234
  0
LINE
  8
0
 10
35.8969
 20
-16.3234
 11
36.2277
 21
-16.2152
  0
LINE
  8
0
 10
36.2277
 20
-16.2152
 11
36.4076
 21
-16.1463
  0
LINE
  8
0
 10
36.4076
 20
-16.1463
 11
36.7055
 21
-16.0211
  0
LINE
  8
0
 10
36.7055
 20
-16.0211
 11
36.8793
 21
-15.9314
  0
LINE
  8
0
 10
36.8793
 20
-15.9314
 11
37.4737
 21
-15.5902
  0
LINE
  8
0
 10
37.4737
 20
-15.5902
 11
37.5075
 21
-15.5695
  0
LINE
  8
0
 10
37.5075
 20
-15.5695
 11
37.5197
 21
-15.5607
  0
LINE
  8
0
 10
37.5197
 20
-15.5607
 11
37.6553
 21
-15.4556
  0
LINE
  8
0
 10
37.6553
 20
-15.4556
 11
38.0876
 21
-15.1166
  0
LINE
  8
0
 10
38.0876
 20
-15.1166
 11
38.2786
 21
-14.967
  0
LINE
  8
0
 10
38.2786
 20
-14.967
 11
39.0216
 21
-14.2224
  0
LINE
  8
0
 10
39.0216
 20
-14.2224
 11
39.1507
 21
-14.0617
  0
LINE
  8
0
 10
39.1507
 20
-14.0617
 11
39.5339
 21
-13.5754
  0
LINE
  8
0
 10
39.5339
 20
-13.5754
 11
39.7195
 21
-13.3397
  0
LINE
  8
0
 10
39.7195
 20
-13.3397
 11
39.9676
 21
-12.9565
  0
LINE
  8
0
 10
39.9676
 20
-12.9565
 11
40.3725
 21
-12.3299
  0
LINE
  8
0
 10
40.3725
 20
-12.3299
 11
40.3876
 21
-12.3018
  0
LINE
  8
0
 10
40.3876
 20
-12.3018
 11
40.4363
 21
-12.2106
  0
LINE
  8
0
 10
40.4363
 20
-12.2106
 11
40.959
 21
-11.2052
  0
LINE
  8
0
 10
40.959
 20
-11.2052
 11
41.122
 21
-10.8242
  0
LINE
  8
0
 10
41.122
 20
-10.8242
 11
41.4836
 21
-9.9823
  0
LINE
  8
0
 10
41.4836
 20
-9.9823
 11
41.7742
 21
-9.15567
  0
LINE
  8
0
 10
41.7742
 20
-9.15567
 11
41.9406
 21
-8.68489
  0
LINE
  8
0
 10
41.9406
 20
-8.68489
 11
42.2926
 21
-7.45078
  0
LINE
  8
0
 10
42.2926
 20
-7.45078
 11
42.3272
 21
-7.33026
  0
LINE
  8
0
 10
42.3272
 20
-7.33026
 11
42.4652
 21
-6.71742
  0
LINE
  8
0
 10
42.4652
 20
-6.71742
 11
42.6357
 21
-5.93108
  0
LINE
  8
0
 10
42.6357
 20
-5.93108
 11
42.6646
 21
-5.75325
  0
LINE
  8
0
 10
42.6646
 20
-5.75325
 11
42.872
 21
-4.48705
  0
LINE
  8
0
 10
42.872
 20
-4.48705
 11
42.922
 21
-4.04585
  0
LINE
  8
0
 10
42.922
 20
-4.04585
 11
43.0407
 21
-3.0101
  0
LINE
  8
0
 10
43.0407
 20
-3.0101
 11
43.0822
 21
-2.39191
  0
LINE
  8
0
 10
43.0822
 20
-2.39191
 11
43.1421
 21
-1.50983
  0
LINE
  8
0
 10
43.1421
 20
-1.50983
 11
43.158
 21
-0.804367
  0
LINE
  8
0
 10
43.158
 20
-0.804367
 11
43.1651
 21
-0.490005
  0
LINE
  8
0
 10
43.1651
 20
-0.490005
 11
1.18297
 21
-0.490005
  0
LINE
  8
0
 10
1.18297
 20
-0.490005
 11
17.7794
 21
-17.0865
  0
ENDSEC
  0
SECTION
  2
OBJECTS
  0
DICTIONARY
  0
ENDSEC
  0
EOF
