  0
SECTION
  2
BLOCKS
  0
ENDSEC
  0
SECTION
  2
ENTITIES
  0
LINE
  8
0
 10
34.9294
 20
14.3684
 11
34.5914
 21
14.5017
  0
LINE
  8
0
 10
34.5914
 20
14.5017
 11
33.6474
 21
14.822
  0
LINE
  8
0
 10
33.6474
 20
14.822
 11
33.6413
 21
14.8241
  0
LINE
  8
0
 10
33.6413
 20
14.8241
 11
32.9772
 21
15.0592
  0
LINE
  8
0
 10
32.9772
 20
15.0592
 11
32.5238
 21
15.1806
  0
LINE
  8
0
 10
32.5238
 20
15.1806
 11
31.4093
 21
15.4341
  0
LINE
  8
0
 10
31.4093
 20
15.4341
 11
29.5674
 21
15.7671
  0
LINE
  8
0
 10
29.5674
 20
15.7671
 11
29.501
 21
15.7796
  0
LINE
  8
0
 10
29.501
 20
15.7796
 11
29.495
 21
15.7805
  0
LINE
  8
0
 10
29.495
 20
15.7805
 11
28.2256
 21
15.9566
  0
LINE
  8
0
 10
28.2256
 20
15.9566
 11
27.1564
 21
16.0844
  0
LINE
  8
0
 10
27.1564
 20
16.0844
 11
26.8586
 21
16.1175
  0
LINE
  8
0
 10
26.8586
 20
16.1175
 11
26.4872
 21
16.1529
  0
LINE
  8
0
 10
26.4872
 20
16.1529
 11
25.4437
 21
16.2516
  0
LINE
  8
0
 10
25.4437
 20
16.2516
 11
24.2265
 21
16.3525
  0
LINE
  8
0
 10
24.2265
 20
16.3525
 11
23.9573
 21
16.3724
  0
LINE
  8
0
 10
23.9573
 20
16.3724
 11
23.7148
 21
16.388
  0
LINE
  8
0
 10
23.7148
 20
16.388
 11
22.4097
 21
16.472
  0
LINE
  8
0
 10
22.4097
 20
16.472
 11
20.9809
 21
16.5531
  0
LINE
  8
0
 10
20.9809
 20
16.5531
 11
20.7764
 21
16.5647
  0
LINE
  8
0
 10
20.7764
 20
16.5647
 11
20.4433
 21
16.5815
  0
LINE
  8
0
 10
20.4433
 20
16.5815
 11
18.1865
 21
16.6793
  0
LINE
  8
0
 10
18.1865
 20
16.6793
 11
18.0759
 21
16.6829
  0
LINE
  8
0
 10
18.0759
 20
16.6829
 11
17.3968
 21
16.7038
  0
LINE
  8
0
 10
17.3968
 20
16.7038
 11
17.3774
 21
16.6844
  0
LINE
  8
0
 10
17.3774
 20
16.6844
 11
18.0766
 21
16.6629
  0
LINE
  8
0
 10
18.0766
 20
16.6629
 11
18.1891
 21
16.6592
  0
LINE
  8
0
 10
18.1891
 20
16.6592
 11
20.443
 21
16.5615
  0
LINE
  8
0
 10
20.443
 20
16.5615
 11
20.7739
 21
16.5447
  0
LINE
  8
0
 10
20.7739
 20
16.5447
 11
20.9799
 21
16.5331
  0
LINE
  8
0
 10
20.9799
 20
16.5331
 11
22.4103
 21
16.4518
  0
LINE
  8
0
 10
22.4103
 20
16.4518
 11
23.7136
 21
16.368
  0
LINE
  8
0
 10
23.7136
 20
16.368
 11
23.9588
 21
16.3522
  0
LINE
  8
0
 10
23.9588
 20
16.3522
 11
24.2264
 21
16.3324
  0
LINE
  8
0
 10
24.2264
 20
16.3324
 11
25.4387
 21
16.232
  0
LINE
  8
0
 10
25.4387
 20
16.232
 11
25.4444
 21
16.2315
  0
LINE
  8
0
 10
25.4444
 20
16.2315
 11
26.486
 21
16.1329
  0
LINE
  8
0
 10
26.486
 20
16.1329
 11
26.8525
 21
16.098
  0
LINE
  8
0
 10
26.8525
 20
16.098
 11
26.8601
 21
16.0972
  0
LINE
  8
0
 10
26.8601
 20
16.0972
 11
27.1562
 21
16.0643
  0
LINE
  8
0
 10
27.1562
 20
16.0643
 11
28.218
 21
15.9373
  0
LINE
  8
0
 10
28.218
 20
15.9373
 11
28.2271
 21
15.9362
  0
LINE
  8
0
 10
28.2271
 20
15.9362
 11
29.4834
 21
15.7619
  0
LINE
  8
0
 10
29.4834
 20
15.7619
 11
29.5068
 21
15.7581
  0
LINE
  8
0
 10
29.5068
 20
15.7581
 11
29.5684
 21
15.7465
  0
LINE
  8
0
 10
29.5684
 20
15.7465
 11
31.3945
 21
15.4164
  0
LINE
  8
0
 10
31.3945
 20
15.4164
 11
31.4161
 21
15.412
  0
LINE
  8
0
 10
31.4161
 20
15.412
 11
32.5099
 21
15.1632
  0
LINE
  8
0
 10
32.5099
 20
15.1632
 11
32.528
 21
15.1587
  0
LINE
  8
0
 10
32.528
 20
15.1587
 11
32.9528
 21
15.045
  0
LINE
  8
0
 10
32.9528
 20
15.045
 11
32.9896
 21
15.0336
  0
LINE
  8
0
 10
32.9896
 20
15.0336
 11
33.6328
 21
14.8059
  0
LINE
  8
0
 10
33.6328
 20
14.8059
 11
33.6435
 21
14.8021
  0
LINE
  8
0
 10
33.6435
 20
14.8021
 11
34.5733
 21
14.4867
  0
LINE
  8
0
 10
34.5733
 20
14.4867
 11
34.5956
 21
14.4785
  0
LINE
  8
0
 10
34.5956
 20
14.4785
 11
34.9045
 21
14.3568
  0
LINE
  8
0
 10
34.9045
 20
14.3568
 11
35.0163
 21
14.3225
  0
LINE
  8
0
 10
35.0163
 20
14.3225
 11
35.4273
 21
14.2304
  0
LINE
  8
0
 10
35.4273
 20
14.2304
 11
35.5027
 21
14.2071
  0
LINE
  8
0
 10
35.5027
 20
14.2071
 11
35.6819
 21
14.1352
  0
LINE
  8
0
 10
35.6819
 20
14.1352
 11
35.7325
 21
14.1115
  0
LINE
  8
0
 10
35.7325
 20
14.1115
 11
36.0926
 21
13.9168
  0
LINE
  8
0
 10
36.0926
 20
13.9168
 11
36.1032
 21
13.9109
  0
LINE
  8
0
 10
36.1032
 20
13.9109
 11
36.3927
 21
13.7451
  0
LINE
  8
0
 10
36.3927
 20
13.7451
 11
36.4422
 21
13.7126
  0
LINE
  8
0
 10
36.4422
 20
13.7126
 11
36.6436
 21
13.5623
  0
LINE
  8
0
 10
36.6436
 20
13.5623
 11
36.6525
 21
13.5556
  0
LINE
  8
0
 10
36.6525
 20
13.5556
 11
37.071
 21
13.2283
  0
LINE
  8
0
 10
37.071
 20
13.2283
 11
37.1095
 21
13.1947
  0
LINE
  8
0
 10
37.1095
 20
13.1947
 11
37.1736
 21
13.1328
  0
LINE
  8
0
 10
37.1736
 20
13.1328
 11
37.1805
 21
13.126
  0
LINE
  8
0
 10
37.1805
 20
13.126
 11
37.5873
 21
12.7172
  0
LINE
  8
0
 10
37.5873
 20
12.7172
 11
37.6025
 21
12.7012
  0
LINE
  8
0
 10
37.6025
 20
12.7012
 11
37.6849
 21
12.6107
  0
LINE
  8
0
 10
37.6849
 20
12.6107
 11
37.7162
 21
12.5725
  0
LINE
  8
0
 10
37.7162
 20
12.5725
 11
38.1536
 21
11.9814
  0
LINE
  8
0
 10
38.1536
 20
11.9814
 11
38.1594
 21
11.9734
  0
LINE
  8
0
 10
38.1594
 20
11.9734
 11
38.2763
 21
11.8086
  0
LINE
  8
0
 10
38.2763
 20
11.8086
 11
38.2945
 21
11.7809
  0
LINE
  8
0
 10
38.2945
 20
11.7809
 11
38.5882
 21
11.3012
  0
LINE
  8
0
 10
38.5882
 20
11.3012
 11
38.5923
 21
11.2943
  0
LINE
  8
0
 10
38.5923
 20
11.2943
 11
38.811
 21
10.9235
  0
LINE
  8
0
 10
38.811
 20
10.9235
 11
38.8253
 21
10.8975
  0
LINE
  8
0
 10
38.8253
 20
10.8975
 11
38.9757
 21
10.6031
  0
LINE
  8
0
 10
38.9757
 20
10.6031
 11
38.9925
 21
10.5666
  0
LINE
  8
0
 10
38.9925
 20
10.5666
 11
39.2627
 21
9.90999
  0
LINE
  8
0
 10
39.2627
 20
9.90999
 11
39.4988
 21
9.34023
  0
LINE
  8
0
 10
39.4988
 20
9.34023
 11
39.5025
 21
9.33092
  0
LINE
  8
0
 10
39.5025
 20
9.33092
 11
39.6789
 21
8.87943
  0
LINE
  8
0
 10
39.6789
 20
8.87943
 11
39.6857
 21
8.86098
  0
LINE
  8
0
 10
39.6857
 20
8.86098
 11
39.8444
 21
8.40106
  0
LINE
  8
0
 10
39.8444
 20
8.40106
 11
39.847
 21
8.39326
  0
LINE
  8
0
 10
39.847
 20
8.39326
 11
40.0367
 21
7.81209
  0
LINE
  8
0
 10
40.0367
 20
7.81209
 11
40.0421
 21
7.79442
  0
LINE
  8
0
 10
40.0421
 20
7.79442
 11
40.1456
 21
7.43159
  0
LINE
  8
0
 10
40.1456
 20
7.43159
 11
40.1473
 21
7.42529
  0
LINE
  8
0
 10
40.1473
 20
7.42529
 11
40.3385
 21
6.71906
  0
LINE
  8
0
 10
40.3385
 20
6.71906
 11
40.3429
 21
6.70181
  0
LINE
  8
0
 10
40.3429
 20
6.70181
 11
40.4042
 21
6.43752
  0
LINE
  8
0
 10
40.4042
 20
6.43752
 11
40.4054
 21
6.43234
  0
LINE
  8
0
 10
40.4054
 20
6.43234
 11
40.586
 21
5.61438
  0
LINE
  8
0
 10
40.586
 20
5.61438
 11
40.5895
 21
5.59726
  0
LINE
  8
0
 10
40.5895
 20
5.59726
 11
40.6215
 21
5.42305
  0
LINE
  8
0
 10
40.6215
 20
5.42305
 11
40.7821
 21
4.50417
  0
LINE
  8
0
 10
40.7821
 20
4.50417
 11
40.7848
 21
4.48694
  0
LINE
  8
0
 10
40.7848
 20
4.48694
 11
40.7973
 21
4.39653
  0
LINE
  8
0
 10
40.7973
 20
4.39653
 11
40.9306
 21
3.38969
  0
LINE
  8
0
 10
40.9306
 20
3.38969
 11
40.9326
 21
3.37186
  0
LINE
  8
0
 10
40.9326
 20
3.37186
 11
40.9344
 21
3.35307
  0
LINE
  8
0
 10
40.9344
 20
3.35307
 11
40.9982
 21
2.66386
  0
LINE
  8
0
 10
40.9982
 20
2.66386
 11
40.9987
 21
2.65762
  0
LINE
  8
0
 10
40.9987
 20
2.65762
 11
41.0296
 21
2.26933
  0
LINE
  8
0
 10
41.0296
 20
2.26933
 11
41.0306
 21
2.25351
  0
LINE
  8
0
 10
41.0306
 20
2.25351
 11
41.0815
 21
1.17595
  0
LINE
  8
0
 10
41.0815
 20
1.17595
 11
41.0818
 21
1.16737
  0
LINE
  8
0
 10
41.0818
 20
1.16737
 11
41.084
 21
1.09221
  0
LINE
  8
0
 10
41.084
 20
1.09221
 11
41.0842
 21
1.08533
  0
LINE
  8
0
 10
41.0842
 20
1.08533
 11
41.0934
 21
0.490005
  0
LINE
  8
0
 10
41.0934
 20
0.490005
 11
41.1134
 21
0.490005
  0
LINE
  8
0
 10
41.1134
 20
0.490005
 11
41.1041
 21
1.08966
  0
LINE
  8
0
 10
41.1041
 20
1.08966
 11
41.1016
 21
1.172
  0
LINE
  8
0
 10
41.1016
 20
1.172
 11
41.0502
 21
2.263
  0
LINE
  8
0
 10
41.0502
 20
2.263
 11
41.0184
 21
2.66214
  0
LINE
  8
0
 10
41.0184
 20
2.66214
 11
40.9543
 21
3.3553
  0
LINE
  8
0
 10
40.9543
 20
3.3553
 11
40.9516
 21
3.38258
  0
LINE
  8
0
 10
40.9516
 20
3.38258
 11
40.8169
 21
4.40105
  0
LINE
  8
0
 10
40.8169
 20
4.40105
 11
40.8034
 21
4.49867
  0
LINE
  8
0
 10
40.8034
 20
4.49867
 11
40.641
 21
5.42723
  0
LINE
  8
0
 10
40.641
 20
5.42723
 11
40.6075
 21
5.60994
  0
LINE
  8
0
 10
40.6075
 20
5.60994
 11
40.4243
 21
6.43958
  0
LINE
  8
0
 10
40.4243
 20
6.43958
 11
40.3602
 21
6.7157
  0
LINE
  8
0
 10
40.3602
 20
6.7157
 11
40.1659
 21
7.43315
  0
LINE
  8
0
 10
40.1659
 20
7.43315
 11
40.0588
 21
7.80885
  0
LINE
  8
0
 10
40.0588
 20
7.80885
 11
39.8646
 21
8.40375
  0
LINE
  8
0
 10
39.8646
 20
8.40375
 11
39.701
 21
8.87761
  0
LINE
  8
0
 10
39.701
 20
8.87761
 11
39.5193
 21
9.34291
  0
LINE
  8
0
 10
39.5193
 20
9.34291
 11
39.2816
 21
9.91649
  0
LINE
  8
0
 10
39.2816
 20
9.91649
 11
39.0032
 21
10.5934
  0
LINE
  8
0
 10
39.0032
 20
10.5934
 11
38.8362
 21
10.9202
  0
LINE
  8
0
 10
38.8362
 20
10.9202
 11
38.6073
 21
11.3084
  0
LINE
  8
0
 10
38.6073
 20
11.3084
 11
38.3025
 21
11.8062
  0
LINE
  8
0
 10
38.3025
 20
11.8062
 11
38.173
 21
11.9888
  0
LINE
  8
0
 10
38.173
 20
11.9888
 11
37.7187
 21
12.6028
  0
LINE
  8
0
 10
37.7187
 20
12.6028
 11
37.7081
 21
12.615
  0
LINE
  8
0
 10
37.7081
 20
12.615
 11
37.6098
 21
12.723
  0
LINE
  8
0
 10
37.6098
 20
12.723
 11
37.1909
 21
13.144
  0
LINE
  8
0
 10
37.1909
 20
13.144
 11
37.1043
 21
13.2276
  0
LINE
  8
0
 10
37.1043
 20
13.2276
 11
36.6605
 21
13.5747
  0
LINE
  8
0
 10
36.6605
 20
13.5747
 11
36.4294
 21
13.7471
  0
LINE
  8
0
 10
36.4294
 20
13.7471
 11
36.1075
 21
13.9315
  0
LINE
  8
0
 10
36.1075
 20
13.9315
 11
35.7163
 21
14.1429
  0
LINE
  8
0
 10
35.7163
 20
14.1429
 11
35.4717
 21
14.241
  0
LINE
  8
0
 10
35.4717
 20
14.241
 11
35.2908
 21
14.2815
  0
LINE
  8
0
 10
35.2908
 20
14.2815
 11
35.0022
 21
14.3461
  0
LINE
  8
0
 10
35.0022
 20
14.3461
 11
34.9294
 21
14.3684
  0
ENDSEC
  0
SECTION
  2
OBJECTS
  0
DICTIONARY
  0
ENDSEC
  0
EOF
