solid OpenSCAD_Model
  facet normal -1.09697e-08 3.30293e-07 -1
    outer loop
      vertex -75.9354 30.6593 1.90735e-06
      vertex 81.3995 30.11 0
      vertex -83.4417 30.41 1.90735e-06
    endloop
  endfacet
  facet normal -4.29781e-08 -3.36407e-09 -1
    outer loop
      vertex -39.2254 -31.816 0
      vertex -83.6983 -30.6241 1.90735e-06
      vertex -88.4621 30.2364 1.90735e-06
    endloop
  endfacet
  facet normal 6.13649e-10 3.12246e-08 -1
    outer loop
      vertex -15.9411 -32.2736 0
      vertex -39.2254 -31.816 0
      vertex -88.4621 30.2364 1.90735e-06
    endloop
  endfacet
  facet normal -1.09923e-08 3.1789e-07 -1
    outer loop
      vertex -83.4417 30.41 1.90735e-06
      vertex 81.3995 30.11 0
      vertex -88.4621 30.2364 1.90735e-06
    endloop
  endfacet
  facet normal -1.12181e-08 1.44549e-08 -1
    outer loop
      vertex 81.3995 30.11 0
      vertex 0.710276 -32.5108 0
      vertex -88.4621 30.2364 1.90735e-06
    endloop
  endfacet
  facet normal 4.4196e-10 3.10255e-08 -1
    outer loop
      vertex 0.710276 -32.5108 0
      vertex -15.9411 -32.2736 0
      vertex -88.4621 30.2364 1.90735e-06
    endloop
  endfacet
  facet normal 0 0 -1
    outer loop
      vertex 81.4774 -29.9176 0
      vertex 81.4803 -29.894 0
      vertex 81.4796 -29.9043 0
    endloop
  endfacet
  facet normal -0 0 -1
    outer loop
      vertex 81.4803 -29.894 0
      vertex 81.4774 -29.9176 0
      vertex 81.4804 -29.89 0
    endloop
  endfacet
  facet normal 0 0 -1
    outer loop
      vertex 81.4746 -29.9288 0
      vertex 81.4804 -29.89 0
      vertex 81.4774 -29.9176 0
    endloop
  endfacet
  facet normal 0 0 -1
    outer loop
      vertex 81.4471 -29.9842 0
      vertex 81.4804 -29.89 0
      vertex 81.4746 -29.9288 0
    endloop
  endfacet
  facet normal 0 0 -1
    outer loop
      vertex 81.3982 -30.0399 0
      vertex 81.4804 -29.89 0
      vertex 81.4471 -29.9842 0
    endloop
  endfacet
  facet normal 0 0 -1
    outer loop
      vertex 81.4804 -29.89 0
      vertex 81.3982 -30.0399 0
      vertex 81.3764 -30.0592 0
    endloop
  endfacet
  facet normal 0 0 -1
    outer loop
      vertex 81.4804 -29.89 0
      vertex 81.3764 -30.0592 0
      vertex 81.2512 -30.1455 0
    endloop
  endfacet
  facet normal 0 0 -1
    outer loop
      vertex 81.4804 -29.89 0
      vertex 81.2512 -30.1455 0
      vertex 81.0906 -30.2281 0
    endloop
  endfacet
  facet normal 0 0 -1
    outer loop
      vertex 81.4804 -29.89 0
      vertex 81.0906 -30.2281 0
      vertex 80.8469 -30.3281 0
    endloop
  endfacet
  facet normal 0 0 -1
    outer loop
      vertex 81.4804 -29.89 0
      vertex 80.8469 -30.3281 0
      vertex 80.4792 -30.4505 0
    endloop
  endfacet
  facet normal 0 0 -1
    outer loop
      vertex 81.4804 -29.89 0
      vertex 80.4792 -30.4505 0
      vertex 79.9272 -30.6007 0
    endloop
  endfacet
  facet normal 0 0 -1
    outer loop
      vertex 81.4804 -29.89 0
      vertex 79.9272 -30.6007 0
      vertex 78.3196 -30.9009 0
    endloop
  endfacet
  facet normal 0 0 -1
    outer loop
      vertex 81.4804 -29.89 0
      vertex 78.3196 -30.9009 0
      vertex 76.7026 -31.103 0
    endloop
  endfacet
  facet normal 0 0 -1
    outer loop
      vertex 81.4804 -29.89 0
      vertex 76.7026 -31.103 0
      vertex 74.2936 -31.3511 0
    endloop
  endfacet
  facet normal -0 0 -1
    outer loop
      vertex 81.4804 -29.89 0
      vertex 74.2936 -31.3511 0
      vertex 81.3995 30.11 0
    endloop
  endfacet
  facet normal 0 0 -1
    outer loop
      vertex 70.6961 -31.6305 0
      vertex 81.3995 30.11 0
      vertex 74.2936 -31.3511 0
    endloop
  endfacet
  facet normal 0 0 -1
    outer loop
      vertex 65.3246 -31.937 0
      vertex 81.3995 30.11 0
      vertex 70.6961 -31.6305 0
    endloop
  endfacet
  facet normal 0 0 -1
    outer loop
      vertex 57.3038 -32.25 0
      vertex 81.3995 30.11 0
      vertex 65.3246 -31.937 0
    endloop
  endfacet
  facet normal 0 0 -1
    outer loop
      vertex 45.326 -32.5228 0
      vertex 81.3995 30.11 0
      vertex 57.3038 -32.25 0
    endloop
  endfacet
  facet normal 0 0 -1
    outer loop
      vertex 27.4361 -32.6632 0
      vertex 81.3995 30.11 0
      vertex 45.326 -32.5228 0
    endloop
  endfacet
  facet normal 0 0 -1
    outer loop
      vertex 81.3995 30.11 0
      vertex 27.4361 -32.6632 0
      vertex 0.710276 -32.5108 0
    endloop
  endfacet
  facet normal 0 0 0
    outer loop
      vertex 81.3995 30.11 0
      vertex 81.3995 30.1112 0
      vertex 81.3995 30.1103 0
    endloop
  endfacet
  facet normal 0 0 -1
    outer loop
      vertex 81.3995 30.11 0
      vertex 81.3993 30.1159 0
      vertex 81.3995 30.1112 0
    endloop
  endfacet
  facet normal 0 0 -1
    outer loop
      vertex 81.3995 30.11 0
      vertex 81.397 30.1348 0
      vertex 81.3993 30.1159 0
    endloop
  endfacet
  facet normal 0 0 -1
    outer loop
      vertex 81.3995 30.11 0
      vertex 81.3783 30.1846 0
      vertex 81.397 30.1348 0
    endloop
  endfacet
  facet normal 0 0 -1
    outer loop
      vertex 81.3995 30.11 0
      vertex 81.322 30.2549 0
      vertex 81.3783 30.1846 0
    endloop
  endfacet
  facet normal 0 0 -1
    outer loop
      vertex 81.3995 30.11 0
      vertex 81.295 30.279 0
      vertex 81.322 30.2549 0
    endloop
  endfacet
  facet normal 0 0 -1
    outer loop
      vertex 81.3995 30.11 0
      vertex 81.095 30.4055 0
      vertex 81.295 30.279 0
    endloop
  endfacet
  facet normal 0 0 -1
    outer loop
      vertex 81.3995 30.11 0
      vertex 79.9213 30.7975 0
      vertex 81.095 30.4055 0
    endloop
  endfacet
  facet normal 0 0 -1
    outer loop
      vertex 81.3995 30.11 0
      vertex 77.3914 31.2168 0
      vertex 79.9213 30.7975 0
    endloop
  endfacet
  facet normal 0 0 -1
    outer loop
      vertex 81.3995 30.11 0
      vertex 75.0468 31.4766 0
      vertex 77.3914 31.2168 0
    endloop
  endfacet
  facet normal 0 0 -1
    outer loop
      vertex 81.3995 30.11 0
      vertex 67.0783 32.0247 0
      vertex 75.0468 31.4766 0
    endloop
  endfacet
  facet normal 0 0 -1
    outer loop
      vertex 81.3995 30.11 0
      vertex 55.4775 32.452 0
      vertex 67.0783 32.0247 0
    endloop
  endfacet
  facet normal 0 0 -1
    outer loop
      vertex 81.3995 30.11 0
      vertex 47.7326 32.6098 0
      vertex 55.4775 32.452 0
    endloop
  endfacet
  facet normal 0 0 -1
    outer loop
      vertex 81.3995 30.11 0
      vertex 40.0147 32.6901 0
      vertex 47.7326 32.6098 0
    endloop
  endfacet
  facet normal 0 0 -1
    outer loop
      vertex 81.3995 30.11 0
      vertex 17.6853 32.6901 0
      vertex 40.0147 32.6901 0
    endloop
  endfacet
  facet normal 0 0 -1
    outer loop
      vertex 81.3995 30.11 0
      vertex 10.7003 32.6363 0
      vertex 17.6853 32.6901 0
    endloop
  endfacet
  facet normal 0 0 -1
    outer loop
      vertex 81.3995 30.11 0
      vertex -22.857 32.0918 0
      vertex 10.7003 32.6363 0
    endloop
  endfacet
  facet normal 0 0 -1
    outer loop
      vertex 81.3995 30.11 0
      vertex -47.9361 31.4871 0
      vertex -22.857 32.0918 0
    endloop
  endfacet
  facet normal 0 -0 -1
    outer loop
      vertex -47.9361 31.4871 0
      vertex 81.3995 30.11 0
      vertex -64.7132 31.0099 0
    endloop
  endfacet
  facet normal -2.79885e-08 -4.54437e-06 -1
    outer loop
      vertex -64.7132 31.0099 0
      vertex 81.3995 30.11 0
      vertex -75.9354 30.6593 1.90735e-06
    endloop
  endfacet
  facet normal 0 0 -1
    outer loop
      vertex -90.0403 -30.4168 1.90735e-06
      vertex -88.4621 30.2364 1.90735e-06
      vertex -83.6983 -30.6241 1.90735e-06
    endloop
  endfacet
  facet normal 0 0 -1
    outer loop
      vertex -88.4621 30.2364 1.90735e-06
      vertex -90.0403 -30.4168 1.90735e-06
      vertex -90.0403 30.1802 1.90735e-06
    endloop
  endfacet
  facet normal -0.40997 0.912099 -2.08933e-05
    outer loop
      vertex -87.5599 -0.117814 0.38395
      vertex -78.756 3.83937 1
      vertex -78.5782 3.91928 0.676911
    endloop
  endfacet
  facet normal -0.409971 0.912099 4.621e-16
    outer loop
      vertex -78.756 3.83937 1
      vertex -87.5599 -0.117814 0.38395
      vertex -87.5599 -0.117814 1
    endloop
  endfacet
  facet normal -0.416712 0.909027 -0.00449137
    outer loop
      vertex -78.6449 3.8903 1
      vertex -78.5782 3.91928 0.676911
      vertex -78.756 3.83937 1
    endloop
  endfacet
  facet normal -0.387589 0.921828 0.00266919
    outer loop
      vertex -78.4611 3.96758 1
      vertex -78.5782 3.91928 0.676911
      vertex -78.6449 3.8903 1
    endloop
  endfacet
  facet normal -0.378441 0.925625 -0.0010638
    outer loop
      vertex -71.1488 6.9571 0.906139
      vertex -78.4611 3.96758 1
      vertex -71.1576 6.95361 1
    endloop
  endfacet
  facet normal -0.378443 0.925624 -0.00121334
    outer loop
      vertex -78.4611 3.96758 1
      vertex -71.1488 6.9571 0.906139
      vertex -78.5782 3.91928 0.676911
    endloop
  endfacet
  facet normal -0.368657 0.929565 0
    outer loop
      vertex -71.1488 6.9571 1
      vertex -71.1488 6.9571 0.906139
      vertex -71.1576 6.95361 1
    endloop
  endfacet
  facet normal -0.361563 0.932347 0.000577331
    outer loop
      vertex -71.1488 6.9571 0.906139
      vertex -69.0956 7.75327 1
      vertex -69.0915 7.75488 0.96766
    endloop
  endfacet
  facet normal -0.36154 0.932357 1.22742e-16
    outer loop
      vertex -69.0956 7.75327 1
      vertex -71.1488 6.9571 0.906139
      vertex -71.1488 6.9571 1
    endloop
  endfacet
  facet normal -0.355994 0.934487 0.0013899
    outer loop
      vertex -67.9958 8.17224 1
      vertex -69.0915 7.75488 0.96766
      vertex -69.0956 7.75327 1
    endloop
  endfacet
  facet normal -0.3549 -0.934904 -0.000358865
    outer loop
      vertex -67.9403 -8.34884 1
      vertex -72.013 -6.8028 1
      vertex -72.056 -6.78643 0.878221
    endloop
  endfacet
  facet normal -0.355787 -0.934567 3.59977e-18
    outer loop
      vertex -72.013 -6.8028 1
      vertex -72.056 -6.78643 1
      vertex -72.056 -6.78643 0.878221
    endloop
  endfacet
  facet normal -0.370945 -0.928655 -2.28523e-16
    outer loop
      vertex -74.878 -5.6592 1
      vertex -72.056 -6.78643 0.878221
      vertex -72.056 -6.78643 1
    endloop
  endfacet
  facet normal -0.370942 -0.928656 8.58617e-05
    outer loop
      vertex -72.056 -6.78643 0.878221
      vertex -74.878 -5.6592 1
      vertex -74.9149 -5.64448 0.791
    endloop
  endfacet
  facet normal -0.365046 -0.930989 -0.00111948
    outer loop
      vertex -74.878 -5.6592 1
      vertex -74.8856 -5.65622 1
      vertex -74.9149 -5.64448 0.791
    endloop
  endfacet
  facet normal -0.393071 -0.919502 0.00345473
    outer loop
      vertex -83.5033 -1.9723 1
      vertex -74.9149 -5.64448 0.791
      vertex -74.8856 -5.65622 1
    endloop
  endfacet
  facet normal -0.393072 -0.919501 0.00341222
    outer loop
      vertex -74.9149 -5.64448 0.791
      vertex -83.5033 -1.9723 1
      vertex -83.8376 -1.83122 0.507421
    endloop
  endfacet
  facet normal -0.385133 -0.922856 -0.00293684
    outer loop
      vertex -83.5033 -1.9723 1
      vertex -83.7809 -1.85645 1
      vertex -83.8376 -1.83122 0.507421
    endloop
  endfacet
  facet normal -0.41818 -0.908363 0.00160947
    outer loop
      vertex -87.3515 -0.212666 1
      vertex -83.8376 -1.83122 0.507421
      vertex -83.7809 -1.85645 1
    endloop
  endfacet
  facet normal -0.41818 -0.908363 0.00160497
    outer loop
      vertex -83.8376 -1.83122 0.507421
      vertex -87.3515 -0.212666 1
      vertex -87.5599 -0.117814 0.38395
    endloop
  endfacet
  facet normal -0.414254 -0.910161 3.54288e-18
    outer loop
      vertex -87.3515 -0.212666 1
      vertex -87.5599 -0.117814 1
      vertex -87.5599 -0.117814 0.38395
    endloop
  endfacet
  facet normal 0.25549 0.000344485 0.966812
    outer loop
      vertex 79.6174 -29.8925 0.780169
      vertex 80.6088 -29.8912 0.518181
      vertex 79.5365 30.1075 0.780169
    endloop
  endfacet
  facet normal -0.0300697 0.000462854 0.999548
    outer loop
      vertex -71.1488 6.9571 0.906139
      vertex -69.0915 7.75488 0.96766
      vertex -81.7899 29.8899 0.5754
    endloop
  endfacet
  facet normal -0.0297458 0.000639211 0.999557
    outer loop
      vertex -67.9904 8.42353 1
      vertex -69.0915 7.75488 0.96766
      vertex -67.9958 8.17224 1
    endloop
  endfacet
  facet normal -0.0297501 0.000646362 0.999557
    outer loop
      vertex -69.0915 7.75488 0.96766
      vertex -67.9904 8.42353 1
      vertex -81.7899 29.8899 0.5754
    endloop
  endfacet
  facet normal -0.0308339 -5.09473e-05 0.999525
    outer loop
      vertex -67.9904 8.42353 1
      vertex -68.0259 29.9085 1
      vertex -81.7899 29.8899 0.5754
    endloop
  endfacet
  facet normal -0.0302161 -0.00177764 0.999542
    outer loop
      vertex -83.8376 -1.83122 0.507421
      vertex -90.0403 -14.2189 0.297883
      vertex -90.0403 -16.6834 0.2935
    endloop
  endfacet
  facet normal -0.0308757 8.85321e-05 0.999523
    outer loop
      vertex -78.5782 3.91928 0.676911
      vertex -71.1488 6.9571 0.906139
      vertex -81.7899 29.8899 0.5754
    endloop
  endfacet
  facet normal -0.0331389 -0.000191635 0.999451
    outer loop
      vertex -78.5782 3.91928 0.676911
      vertex -81.7899 29.8899 0.5754
      vertex -89.3586 29.8797 0.324442
    endloop
  endfacet
  facet normal -0.0326124 2.72147e-05 0.999468
    outer loop
      vertex -87.5599 -0.117814 0.38395
      vertex -78.5782 3.91928 0.676911
      vertex -89.3586 29.8797 0.324442
    endloop
  endfacet
  facet normal -0.0341319 -6.39972e-05 0.999417
    outer loop
      vertex -90.0403 25.3711 0.300872
      vertex -87.5599 -0.117814 0.38395
      vertex -89.3586 29.8797 0.324442
    endloop
  endfacet
  facet normal -0.0341317 -6.39775e-05 0.999417
    outer loop
      vertex -87.5599 -0.117814 0.38395
      vertex -90.0403 25.3711 0.300872
      vertex -90.0403 -6.96518 0.298802
    endloop
  endfacet
  facet normal -0.0333176 -0.000359239 0.999445
    outer loop
      vertex -90.0403 -6.96518 0.298802
      vertex -83.8376 -1.83122 0.507421
      vertex -87.5599 -0.117814 0.38395
    endloop
  endfacet
  facet normal -0.0333176 -0.000359253 0.999445
    outer loop
      vertex -83.8376 -1.83122 0.507421
      vertex -90.0403 -6.96518 0.298802
      vertex -90.0403 -13.859 0.296324
    endloop
  endfacet
  facet normal -0.0573433 0.0120512 0.998282
    outer loop
      vertex -83.8376 -1.83122 0.507421
      vertex -90.0403 -13.859 0.296324
      vertex -90.0403 -13.9285 0.297163
    endloop
  endfacet
  facet normal -0.0387042 0.00247747 0.999248
    outer loop
      vertex -83.8376 -1.83122 0.507421
      vertex -90.0403 -13.9285 0.297163
      vertex -90.0403 -14.2189 0.297883
    endloop
  endfacet
  facet normal -0.0344771 -1.17507e-05 0.999405
    outer loop
      vertex -89.3586 29.8797 0.324442
      vertex -90.0403 29.8788 0.300925
      vertex -90.0403 25.3711 0.300872
    endloop
  endfacet
  facet normal -0.0308341 0.000142407 0.999525
    outer loop
      vertex -67.945 -30.0915 1
      vertex -67.8616 -12.0336 1
      vertex -81.709 -30.1101 0.5754
    endloop
  endfacet
  facet normal -0.0365466 0.000869213 0.999332
    outer loop
      vertex -83.8376 -1.83122 0.507421
      vertex -90.0403 -16.6834 0.2935
      vertex -90.0403 -20.0957 0.296468
    endloop
  endfacet
  facet normal -0.0344785 0.000166002 0.999405
    outer loop
      vertex -90.0403 -20.0957 0.296468
      vertex -89.2777 -30.1203 0.324442
      vertex -83.8376 -1.83122 0.507421
    endloop
  endfacet
  facet normal -0.0344788 0.000165976 0.999405
    outer loop
      vertex -89.2777 -30.1203 0.324442
      vertex -90.0403 -20.0957 0.296468
      vertex -90.0403 -30.1213 0.298133
    endloop
  endfacet
  facet normal -0.0319063 -0.000329195 0.999491
    outer loop
      vertex -74.9149 -5.64448 0.791
      vertex -83.8376 -1.83122 0.507421
      vertex -89.2777 -30.1203 0.324442
    endloop
  endfacet
  facet normal -0.0331397 0.000395356 0.999451
    outer loop
      vertex -81.709 -30.1101 0.5754
      vertex -74.9149 -5.64448 0.791
      vertex -89.2777 -30.1203 0.324442
    endloop
  endfacet
  facet normal -0.0306165 -0.000306029 0.999531
    outer loop
      vertex -72.056 -6.78643 0.878221
      vertex -74.9149 -5.64448 0.791
      vertex -81.709 -30.1101 0.5754
    endloop
  endfacet
  facet normal -0.0298175 -0.000636849 0.999555
    outer loop
      vertex -72.056 -6.78643 0.878221
      vertex -67.8616 -12.0336 1
      vertex -67.9403 -8.34884 1
    endloop
  endfacet
  facet normal -0.0298176 -0.000636973 0.999555
    outer loop
      vertex -67.8616 -12.0336 1
      vertex -72.056 -6.78643 0.878221
      vertex -81.709 -30.1101 0.5754
    endloop
  endfacet
  facet normal 0.971406 0.00130978 0.23742
    outer loop
      vertex 81.465 -29.89 0.0630093
      vertex 81.3995 30.11 0
      vertex 81.3841 30.11 0.0630093
    endloop
  endfacet
  facet normal 0.971406 0.00130978 0.23742
    outer loop
      vertex 81.3995 30.11 0
      vertex 81.465 -29.89 0.0630093
      vertex 81.4804 -29.89 0
    endloop
  endfacet
  facet normal 0.901684 0.00121577 0.432393
    outer loop
      vertex 81.4644 -29.89 0.0642605
      vertex 81.465 -29.89 0.0630093
      vertex 81.3841 30.11 0.0630093
    endloop
  endfacet
  facet normal 0.901684 0.00121577 0.432393
    outer loop
      vertex 81.4644 -29.89 0.0642605
      vertex 81.3841 30.11 0.0630093
      vertex 81.3835 30.11 0.0642605
    endloop
  endfacet
  facet normal 0.763456 0.00102939 0.645859
    outer loop
      vertex 81.4644 -29.89 0.0642605
      vertex 81.3835 30.11 0.0642605
      vertex 81.3762 -29.8901 0.16852
    endloop
  endfacet
  facet normal 0.763456 0.00102939 0.64586
    outer loop
      vertex 81.3762 -29.8901 0.16852
      vertex 81.3835 30.11 0.0642605
      vertex 81.2953 30.1098 0.16852
    endloop
  endfacet
  facet normal 0.639806 0.000862673 0.768536
    outer loop
      vertex 81.2953 30.1098 0.16852
      vertex 81.3734 -29.8901 0.170851
      vertex 81.3762 -29.8901 0.16852
    endloop
  endfacet
  facet normal 0.639806 0.000862673 0.768536
    outer loop
      vertex 81.3734 -29.8901 0.170851
      vertex 81.2953 30.1098 0.16852
      vertex 81.2925 30.1098 0.170851
    endloop
  endfacet
  facet normal 0.417139 0.000562443 0.908843
    outer loop
      vertex 81.3734 -29.8901 0.170851
      vertex 81.2925 30.1098 0.170851
      vertex 80.6352 -29.8911 0.509669
    endloop
  endfacet
  facet normal 0.417139 0.000562443 0.908843
    outer loop
      vertex 80.6352 -29.8911 0.509669
      vertex 81.2925 30.1098 0.170851
      vertex 80.5543 30.1088 0.509669
    endloop
  endfacet
  facet normal 0.306867 0.000413759 0.951752
    outer loop
      vertex 80.6088 -29.8912 0.518181
      vertex 80.6352 -29.8911 0.509669
      vertex 80.5543 30.1088 0.509669
    endloop
  endfacet
  facet normal 0.306868 0.00041376 0.951752
    outer loop
      vertex 80.6088 -29.8912 0.518181
      vertex 80.5543 30.1088 0.509669
      vertex 80.5279 30.1088 0.518181
    endloop
  endfacet
  facet normal 0.25549 0.000344485 0.966812
    outer loop
      vertex 80.6088 -29.8912 0.518181
      vertex 80.5279 30.1088 0.518181
      vertex 79.5365 30.1075 0.780169
    endloop
  endfacet
  facet normal 0.214789 0.000289607 0.976661
    outer loop
      vertex 79.5406 -29.8926 0.797059
      vertex 79.6174 -29.8925 0.780169
      vertex 79.5365 30.1075 0.780169
    endloop
  endfacet
  facet normal 0.214789 0.000289607 0.976661
    outer loop
      vertex 79.5406 -29.8926 0.797059
      vertex 79.5365 30.1075 0.780169
      vertex 79.4597 30.1074 0.797059
    endloop
  endfacet
  facet normal 0.143348 0.000193281 0.989672
    outer loop
      vertex 79.4597 30.1074 0.797059
      vertex 78.1395 -29.8945 1
      vertex 79.5406 -29.8926 0.797059
    endloop
  endfacet
  facet normal 0.143348 0.000193281 0.989672
    outer loop
      vertex 78.1395 -29.8945 1
      vertex 79.4597 30.1074 0.797059
      vertex 78.0586 30.1055 1
    endloop
  endfacet
  facet normal 0.757332 -0.127036 0.640555
    outer loop
      vertex 81.3763 -29.9552 0.155491
      vertex 81.4644 -29.89 0.0642605
      vertex 81.3762 -29.8901 0.16852
    endloop
  endfacet
  facet normal 0.410652 -0.178341 0.894181
    outer loop
      vertex 80.6355 -30.0875 0.47036
      vertex 81.3734 -29.8901 0.170851
      vertex 80.6352 -29.8911 0.509669
    endloop
  endfacet
  facet normal 0.181923 -0.974214 0.133461
    outer loop
      vertex 79.9272 -30.6007 0
      vertex 79.5416 -30.6317 0.29933
      vertex 78.3196 -30.9009 0
    endloop
  endfacet
  facet normal 0.560222 -0.812744 0.159994
    outer loop
      vertex 81.3764 -30.0592 0
      vertex 81.3764 -30.0468 0.0629902
      vertex 81.2512 -30.1455 0
    endloop
  endfacet
  facet normal 0.693193 -0.608566 0.386174
    outer loop
      vertex 81.4471 -29.9842 0
      vertex 81.4651 -29.9489 0.0233183
      vertex 81.3982 -30.0399 0
    endloop
  endfacet
  facet normal 0.960436 -0.230622 0.156126
    outer loop
      vertex 81.4651 -29.9489 0.0233183
      vertex 81.4796 -29.9043 0
      vertex 81.465 -29.9352 0.0441704
    endloop
  endfacet
  facet normal 0.960161 -0.0652537 0.271721
    outer loop
      vertex 81.4796 -29.9043 0
      vertex 81.4803 -29.894 0
      vertex 81.465 -29.9352 0.0441704
    endloop
  endfacet
  facet normal 0.968644 -0.138772 0.206084
    outer loop
      vertex 81.4803 -29.894 0
      vertex 81.465 -29.9145 0.0581093
      vertex 81.465 -29.9352 0.0441704
    endloop
  endfacet
  facet normal 0.968829 -0.0242207 0.246545
    outer loop
      vertex 81.4803 -29.894 0
      vertex 81.4804 -29.89 0
      vertex 81.465 -29.9145 0.0581093
    endloop
  endfacet
  facet normal 0.970314 -0.0474306 0.237153
    outer loop
      vertex 81.4804 -29.89 0
      vertex 81.465 -29.89 0.0630093
      vertex 81.465 -29.9145 0.0581093
    endloop
  endfacet
  facet normal 0.895566 -0.44455 -0.0183365
    outer loop
      vertex 81.4746 -29.9288 0
      vertex 81.4651 -29.9489 0.0233183
      vertex 81.4471 -29.9842 0
    endloop
  endfacet
  facet normal 0.953753 -0.238438 0.183034
    outer loop
      vertex 81.4746 -29.9288 0
      vertex 81.4774 -29.9176 0
      vertex 81.4651 -29.9489 0.0233183
    endloop
  endfacet
  facet normal 0.944633 -0.156255 0.288537
    outer loop
      vertex 81.4774 -29.9176 0
      vertex 81.4796 -29.9043 0
      vertex 81.4651 -29.9489 0.0233183
    endloop
  endfacet
  facet normal 0.311322 -0.935238 0.168549
    outer loop
      vertex 80.8469 -30.3281 0
      vertex 80.6358 -30.3639 0.191271
      vertex 80.4792 -30.4505 0
    endloop
  endfacet
  facet normal 0.411634 -0.800344 0.435899
    outer loop
      vertex 81.2512 -30.1455 0
      vertex 81.3764 -30.0468 0.0629902
      vertex 81.0906 -30.2281 0
    endloop
  endfacet
  facet normal 0.0987445 -0.975884 0.194679
    outer loop
      vertex 76.7026 -31.103 0
      vertex 76.796 -31.004 0.448891
      vertex 73.8186 -31.283 0.560511
    endloop
  endfacet
  facet normal 0.100307 -0.973957 0.203336
    outer loop
      vertex 74.2936 -31.3511 0
      vertex 76.7026 -31.103 0
      vertex 73.8186 -31.283 0.560511
    endloop
  endfacet
  facet normal 0.0761159 -0.980054 0.183577
    outer loop
      vertex 74.2936 -31.3511 0
      vertex 73.8186 -31.283 0.560511
      vertex 70.6961 -31.6305 0
    endloop
  endfacet
  facet normal 0.0594474 -0.962297 0.265425
    outer loop
      vertex 70.6961 -31.6305 0
      vertex 73.8186 -31.283 0.560511
      vertex 62.9595 -31.8878 0.799931
    endloop
  endfacet
  facet normal 0.0555202 -0.973007 0.223998
    outer loop
      vertex 65.3246 -31.937 0
      vertex 70.6961 -31.6305 0
      vertex 62.9595 -31.8878 0.799931
    endloop
  endfacet
  facet normal 0.0383987 -0.983988 0.174051
    outer loop
      vertex 65.3246 -31.937 0
      vertex 62.9595 -31.8878 0.799931
      vertex 57.3038 -32.25 0
    endloop
  endfacet
  facet normal 0.0285025 -0.970832 0.238062
    outer loop
      vertex 57.3038 -32.25 0
      vertex 62.9595 -31.8878 0.799931
      vertex 47.8201 -32.2939 0.95643
    endloop
  endfacet
  facet normal 0.0224099 -0.983947 0.177047
    outer loop
      vertex 57.3038 -32.25 0
      vertex 47.8201 -32.2939 0.95643
      vertex 45.326 -32.5228 0
    endloop
  endfacet
  facet normal 0.00766631 -0.976848 0.213795
    outer loop
      vertex 45.326 -32.5228 0
      vertex 47.8201 -32.2939 0.95643
      vertex 27.4361 -32.6632 0
    endloop
  endfacet
  facet normal 0.00663902 -0.972237 0.233904
    outer loop
      vertex 27.4361 -32.6632 0
      vertex 26.3256 -32.4302 1
      vertex 21.3319 -32.4643 1
    endloop
  endfacet
  facet normal 0.00663924 -0.972237 0.233904
    outer loop
      vertex 26.3256 -32.4302 1
      vertex 27.4361 -32.6632 0
      vertex 47.8201 -32.2939 0.95643
    endloop
  endfacet
  facet normal -0.00562705 -0.986795 0.161879
    outer loop
      vertex 27.4361 -32.6632 0
      vertex 21.0607 -32.4628 1
      vertex 0.710276 -32.5108 0
    endloop
  endfacet
  facet normal -0.00545698 -0.986623 0.162929
    outer loop
      vertex 21.0607 -32.4628 1
      vertex 27.4361 -32.6632 0
      vertex 21.3319 -32.4643 1
    endloop
  endfacet
  facet normal -0.0103257 -0.966487 0.256507
    outer loop
      vertex 0.710276 -32.5108 0
      vertex 18.9437 -32.4402 1
      vertex -15.9413 -32.1083 0.84626
    endloop
  endfacet
  facet normal -0.0103181 -0.966523 0.256371
    outer loop
      vertex 18.9437 -32.4402 1
      vertex 0.710276 -32.5108 0
      vertex 21.0607 -32.4628 1
    endloop
  endfacet
  facet normal -0.0139795 -0.981357 0.191685
    outer loop
      vertex -15.9411 -32.2736 0
      vertex 0.710276 -32.5108 0
      vertex -15.9413 -32.1083 0.84626
    endloop
  endfacet
  facet normal -0.0192846 -0.981271 0.191667
    outer loop
      vertex -15.9411 -32.2736 0
      vertex -15.9413 -32.1083 0.84626
      vertex -39.2254 -31.816 0
    endloop
  endfacet
  facet normal -0.022683 -0.955516 0.294065
    outer loop
      vertex -39.2254 -31.816 0
      vertex -15.9413 -32.1083 0.84626
      vertex -67.9414 -31.0187 0.375661
    endloop
  endfacet
  facet normal -0.0267185 -0.996938 0.0734958
    outer loop
      vertex -39.2254 -31.816 0
      vertex -67.9414 -31.0187 0.375661
      vertex -83.6983 -30.6241 1.90735e-06
    endloop
  endfacet
  facet normal -0.0324275 -0.984529 0.172196
    outer loop
      vertex -89.2773 -30.4215 0.121621
      vertex -90.0403 -30.3981 0.111724
      vertex -90.0403 -30.3993 0.104863
    endloop
  endfacet
  facet normal -0.0322973 -0.985844 0.164525
    outer loop
      vertex -90.0403 -30.4168 1.90735e-06
      vertex -89.2773 -30.4215 0.121621
      vertex -90.0403 -30.3993 0.104863
    endloop
  endfacet
  facet normal -0.0322266 -0.985921 0.164079
    outer loop
      vertex -89.2773 -30.4215 0.121621
      vertex -90.0403 -30.4168 1.90735e-06
      vertex -83.6983 -30.6241 1.90735e-06
    endloop
  endfacet
  facet normal -0.0312453 -0.979592 0.198553
    outer loop
      vertex -83.6983 -30.6241 1.90735e-06
      vertex -81.7082 -30.6438 0.215981
      vertex -89.2773 -30.4215 0.121621
    endloop
  endfacet
  facet normal -0.0288367 -0.983975 0.17596
    outer loop
      vertex -67.9414 -31.0187 0.375661
      vertex -81.7082 -30.6438 0.215981
      vertex -83.6983 -30.6241 1.90735e-06
    endloop
  endfacet
  facet normal -0.033538 -0.195564 0.980117
    outer loop
      vertex -89.2775 -30.2454 0.299401
      vertex -90.0403 -30.2235 0.277669
      vertex -90.0403 -30.2363 0.275115
    endloop
  endfacet
  facet normal -0.0335512 -0.196227 0.979984
    outer loop
      vertex -90.0403 -30.2235 0.277669
      vertex -89.2777 -30.1203 0.324442
      vertex -90.0403 -30.1213 0.298133
    endloop
  endfacet
  facet normal -0.0335529 -0.196215 0.979987
    outer loop
      vertex -89.2777 -30.1203 0.324442
      vertex -90.0403 -30.2235 0.277669
      vertex -89.2775 -30.2454 0.299401
    endloop
  endfacet
  facet normal -0.0322306 -0.196222 0.98003
    outer loop
      vertex -89.2775 -30.2454 0.299401
      vertex -81.7087 -30.3318 0.53102
      vertex -89.2777 -30.1203 0.324442
    endloop
  endfacet
  facet normal -0.0322307 -0.196226 0.980029
    outer loop
      vertex -81.7087 -30.3318 0.53102
      vertex -81.709 -30.1101 0.5754
      vertex -89.2777 -30.1203 0.324442
    endloop
  endfacet
  facet normal -0.0299688 -0.196237 0.980098
    outer loop
      vertex -81.7087 -30.3318 0.53102
      vertex -67.9422 -30.4766 0.922971
      vertex -81.709 -30.1101 0.5754
    endloop
  endfacet
  facet normal -0.0255982 -0.196253 0.980219
    outer loop
      vertex -67.945 -30.0915 1
      vertex -67.9422 -30.4766 0.922971
      vertex -67.9427 -30.0918 1
    endloop
  endfacet
  facet normal -0.0299693 -0.19626 0.980094
    outer loop
      vertex -67.9422 -30.4766 0.922971
      vertex -67.945 -30.0915 1
      vertex -81.709 -30.1101 0.5754
    endloop
  endfacet
  facet normal -0.0233329 -0.196261 0.980274
    outer loop
      vertex -67.9422 -30.4766 0.922971
      vertex -64.4747 -30.5041 1
      vertex -67.9427 -30.0918 1
    endloop
  endfacet
  facet normal -0.032752 -0.836755 0.546597
    outer loop
      vertex -89.2773 -30.4215 0.121621
      vertex -90.0403 -30.391 0.122593
      vertex -90.0403 -30.3981 0.111724
    endloop
  endfacet
  facet normal -0.0326308 -0.833865 0.551003
    outer loop
      vertex -89.2773 -30.4215 0.121621
      vertex -90.0403 -30.3335 0.209611
      vertex -90.0403 -30.391 0.122593
    endloop
  endfacet
  facet normal -0.0327142 -0.83415 0.550566
    outer loop
      vertex -90.0403 -30.3335 0.209611
      vertex -89.2773 -30.4215 0.121621
      vertex -89.2773 -30.3512 0.228131
    endloop
  endfacet
  facet normal -0.0313635 -0.834187 0.55059
    outer loop
      vertex -81.7082 -30.6438 0.215981
      vertex -89.2773 -30.3512 0.228131
      vertex -89.2773 -30.4215 0.121621
    endloop
  endfacet
  facet normal -0.0313709 -0.834368 0.550315
    outer loop
      vertex -81.7082 -30.6438 0.215981
      vertex -81.7084 -30.5193 0.404732
      vertex -89.2773 -30.3512 0.228131
    endloop
  endfacet
  facet normal -0.0291067 -0.834424 0.550354
    outer loop
      vertex -81.7082 -30.6438 0.215981
      vertex -67.9414 -31.0187 0.375661
      vertex -81.7084 -30.5193 0.404732
    endloop
  endfacet
  facet normal -0.0291061 -0.834408 0.550379
    outer loop
      vertex -67.9414 -31.0187 0.375661
      vertex -67.9417 -30.8024 0.703569
      vertex -81.7084 -30.5193 0.404732
    endloop
  endfacet
  facet normal -0.0224688 -0.834548 0.550477
    outer loop
      vertex -67.9414 -31.0187 0.375661
      vertex -15.9413 -32.1083 0.84626
      vertex -67.9417 -30.8024 0.703569
    endloop
  endfacet
  facet normal -0.0224692 -0.834576 0.550434
    outer loop
      vertex -50.44 -31.0781 1
      vertex -15.9413 -32.1083 0.84626
      vertex -15.9414 -32.0069 1
    endloop
  endfacet
  facet normal -0.0224696 -0.834588 0.550416
    outer loop
      vertex -15.9413 -32.1083 0.84626
      vertex -50.44 -31.0781 1
      vertex -67.9417 -30.8024 0.703569
    endloop
  endfacet
  facet normal -0.0103681 -0.834738 0.550549
    outer loop
      vertex -15.9413 -32.1083 0.84626
      vertex 18.9437 -32.4402 1
      vertex -15.9414 -32.0069 1
    endloop
  endfacet
  facet normal 0.00641044 -0.835084 0.550084
    outer loop
      vertex 47.8201 -32.2939 0.95643
      vertex 46.5825 -32.2747 1
      vertex 26.3256 -32.4302 1
    endloop
  endfacet
  facet normal 0.00641025 -0.835087 0.55008
    outer loop
      vertex 47.8201 -32.2939 0.95643
      vertex 47.8201 -32.2652 1
      vertex 46.5825 -32.2747 1
    endloop
  endfacet
  facet normal 0.0280875 -0.834775 0.549875
    outer loop
      vertex 47.8201 -32.2939 0.95643
      vertex 59.9015 -31.8587 1
      vertex 47.8201 -32.2652 1
    endloop
  endfacet
  facet normal 0.0280721 -0.834404 0.550438
    outer loop
      vertex 59.9015 -31.8587 1
      vertex 47.8201 -32.2939 0.95643
      vertex 62.9595 -31.8878 0.799931
    endloop
  endfacet
  facet normal 0.0280566 -0.834547 0.550222
    outer loop
      vertex 62.9595 -31.8878 0.799931
      vertex 62.9593 -31.7559 1
      vertex 59.9015 -31.8587 1
    endloop
  endfacet
  facet normal 0.0585385 -0.83343 0.549516
    outer loop
      vertex 62.9595 -31.8878 0.799931
      vertex 68.7254 -31.3509 1
      vertex 62.9593 -31.7559 1
    endloop
  endfacet
  facet normal 0.0585329 -0.833391 0.549575
    outer loop
      vertex 68.7254 -31.3509 1
      vertex 62.9595 -31.8878 0.799931
      vertex 73.8186 -31.283 0.560511
    endloop
  endfacet
  facet normal 0.0585338 -0.833383 0.549588
    outer loop
      vertex 73.8186 -31.283 0.560511
      vertex 73.8182 -30.9932 1
      vertex 68.7254 -31.3509 1
    endloop
  endfacet
  facet normal 0.0984706 -0.83074 0.547882
    outer loop
      vertex 73.8186 -31.283 0.560511
      vertex 74.0637 -30.9641 1
      vertex 73.8182 -30.9932 1
    endloop
  endfacet
  facet normal 0.0983849 -0.830726 0.547919
    outer loop
      vertex 74.0637 -30.9641 1
      vertex 73.8186 -31.283 0.560511
      vertex 76.796 -31.004 0.448891
    endloop
  endfacet
  facet normal 0.098366 -0.830787 0.54783
    outer loop
      vertex 76.796 -31.004 0.448891
      vertex 74.524 -30.9096 1
      vertex 74.0637 -30.9641 1
    endloop
  endfacet
  facet normal 0.0984225 -0.830643 0.548038
    outer loop
      vertex 74.524 -30.9096 1
      vertex 76.796 -31.004 0.448891
      vertex 76.7956 -30.7456 0.840611
    endloop
  endfacet
  facet normal -0.033072 -0.558164 0.829071
    outer loop
      vertex -89.2773 -30.3512 0.228131
      vertex -90.0403 -30.3227 0.216882
      vertex -90.0403 -30.3335 0.209611
    endloop
  endfacet
  facet normal -0.0330506 -0.558594 0.828783
    outer loop
      vertex -90.0403 -30.3227 0.216882
      vertex -89.2775 -30.2454 0.299401
      vertex -90.0403 -30.2363 0.275115
    endloop
  endfacet
  facet normal -0.0330792 -0.558429 0.828893
    outer loop
      vertex -89.2775 -30.2454 0.299401
      vertex -90.0403 -30.3227 0.216882
      vertex -89.2773 -30.3512 0.228131
    endloop
  endfacet
  facet normal -0.0317438 -0.558451 0.82893
    outer loop
      vertex -89.2773 -30.3512 0.228131
      vertex -81.7084 -30.5193 0.404732
      vertex -89.2775 -30.2454 0.299401
    endloop
  endfacet
  facet normal -0.0317422 -0.558392 0.82897
    outer loop
      vertex -81.7084 -30.5193 0.404732
      vertex -81.7087 -30.3318 0.53102
      vertex -89.2775 -30.2454 0.299401
    endloop
  endfacet
  facet normal -0.0294795 -0.558428 0.829029
    outer loop
      vertex -81.7084 -30.5193 0.404732
      vertex -67.9417 -30.8024 0.703569
      vertex -81.7087 -30.3318 0.53102
    endloop
  endfacet
  facet normal -0.0294778 -0.558364 0.829072
    outer loop
      vertex -67.9417 -30.8024 0.703569
      vertex -67.9422 -30.4766 0.922971
      vertex -81.7087 -30.3318 0.53102
    endloop
  endfacet
  facet normal -0.0228422 -0.558508 0.829184
    outer loop
      vertex -61.8854 -30.61 1
      vertex -67.9417 -30.8024 0.703569
      vertex -50.44 -31.0781 1
    endloop
  endfacet
  facet normal -0.0228457 -0.558454 0.829221
    outer loop
      vertex -67.9417 -30.8024 0.703569
      vertex -61.8854 -30.61 1
      vertex -67.9422 -30.4766 0.922971
    endloop
  endfacet
  facet normal -0.0228484 -0.558652 0.829087
    outer loop
      vertex -61.8854 -30.61 1
      vertex -64.4747 -30.5041 1
      vertex -67.9422 -30.4766 0.922971
    endloop
  endfacet
  facet normal 0.0980521 -0.555909 0.82544
    outer loop
      vertex 76.7956 -30.7456 0.840611
      vertex 75.9102 -30.6651 1
      vertex 74.524 -30.9096 1
    endloop
  endfacet
  facet normal 0.0980809 -0.555771 0.82553
    outer loop
      vertex 76.7956 -30.7456 0.840611
      vertex 76.7953 -30.5089 1
      vertex 75.9102 -30.6651 1
    endloop
  endfacet
  facet normal 0.121772 -0.974293 0.189537
    outer loop
      vertex 78.3196 -30.9009 0
      vertex 76.796 -31.004 0.448891
      vertex 76.7026 -31.103 0
    endloop
  endfacet
  facet normal 0.143796 -0.952245 0.269355
    outer loop
      vertex 78.3196 -30.9009 0
      vertex 79.5416 -30.6317 0.29933
      vertex 76.796 -31.004 0.448891
    endloop
  endfacet
  facet normal 0.141736 -0.826248 0.545183
    outer loop
      vertex 76.796 -31.004 0.448891
      vertex 79.5416 -30.6317 0.29933
      vertex 76.7956 -30.7456 0.840611
    endloop
  endfacet
  facet normal 0.141731 -0.826269 0.545152
    outer loop
      vertex 79.5416 -30.6317 0.29933
      vertex 79.5413 -30.4593 0.560709
      vertex 76.7956 -30.7456 0.840611
    endloop
  endfacet
  facet normal 0.141362 -0.552841 0.821208
    outer loop
      vertex 77.3155 -30.3759 1
      vertex 76.7956 -30.7456 0.840611
      vertex 79.5413 -30.4593 0.560709
    endloop
  endfacet
  facet normal 0.14134 -0.552819 0.821227
    outer loop
      vertex 76.7956 -30.7456 0.840611
      vertex 77.3155 -30.3759 1
      vertex 76.7953 -30.5089 1
    endloop
  endfacet
  facet normal 0.141347 -0.55286 0.821198
    outer loop
      vertex 77.5633 -30.3125 1
      vertex 79.5413 -30.4593 0.560709
      vertex 79.541 -30.1996 0.7356
    endloop
  endfacet
  facet normal 0.141394 -0.552642 0.821337
    outer loop
      vertex 79.5413 -30.4593 0.560709
      vertex 77.5633 -30.3125 1
      vertex 77.3155 -30.3759 1
    endloop
  endfacet
  facet normal 0.140872 -0.194183 0.970798
    outer loop
      vertex 79.541 -30.1996 0.7356
      vertex 77.9596 -30.025 1
      vertex 77.5633 -30.3125 1
    endloop
  endfacet
  facet normal 0.250583 -0.199813 0.94725
    outer loop
      vertex 80.6088 -29.8912 0.518181
      vertex 79.6174 -29.8925 0.780169
      vertex 79.541 -30.1996 0.7356
    endloop
  endfacet
  facet normal 0.211047 -0.191612 0.958511
    outer loop
      vertex 79.541 -30.1996 0.7356
      vertex 79.6174 -29.8925 0.780169
      vertex 79.5406 -29.8926 0.797059
    endloop
  endfacet
  facet normal 0.140878 -0.194163 0.970801
    outer loop
      vertex 78.1395 -29.8945 1
      vertex 79.541 -30.1996 0.7356
      vertex 79.5406 -29.8926 0.797059
    endloop
  endfacet
  facet normal 0.14087 -0.194195 0.970795
    outer loop
      vertex 79.541 -30.1996 0.7356
      vertex 78.1395 -29.8945 1
      vertex 77.9596 -30.025 1
    endloop
  endfacet
  facet normal 0.302116 -0.186641 0.934821
    outer loop
      vertex 80.6355 -30.0875 0.47036
      vertex 80.6352 -29.8911 0.509669
      vertex 80.6088 -29.8912 0.518181
    endloop
  endfacet
  facet normal 0.249916 -0.196957 0.948024
    outer loop
      vertex 80.6355 -30.0875 0.47036
      vertex 80.6088 -29.8912 0.518181
      vertex 79.541 -30.1996 0.7356
    endloop
  endfacet
  facet normal 0.250025 -0.540711 0.803193
    outer loop
      vertex 80.6357 -30.2536 0.358479
      vertex 80.6355 -30.0875 0.47036
      vertex 79.541 -30.1996 0.7356
    endloop
  endfacet
  facet normal 0.250044 -0.540638 0.803236
    outer loop
      vertex 79.5413 -30.4593 0.560709
      vertex 80.6357 -30.2536 0.358479
      vertex 79.541 -30.1996 0.7356
    endloop
  endfacet
  facet normal 0.250412 -0.808077 0.533203
    outer loop
      vertex 80.6358 -30.3639 0.191271
      vertex 80.6357 -30.2536 0.358479
      vertex 79.5413 -30.4593 0.560709
    endloop
  endfacet
  facet normal 0.250426 -0.80804 0.533253
    outer loop
      vertex 79.5416 -30.6317 0.29933
      vertex 80.6358 -30.3639 0.191271
      vertex 79.5413 -30.4593 0.560709
    endloop
  endfacet
  facet normal 0.252349 -0.942289 0.220025
    outer loop
      vertex 80.4792 -30.4505 0
      vertex 80.6358 -30.3639 0.191271
      vertex 79.5416 -30.6317 0.29933
    endloop
  endfacet
  facet normal 0.255404 -0.938635 0.231805
    outer loop
      vertex 79.9272 -30.6007 0
      vertex 80.4792 -30.4505 0
      vertex 79.5416 -30.6317 0.29933
    endloop
  endfacet
  facet normal 0.632463 -0.151076 0.759715
    outer loop
      vertex 81.3763 -29.9552 0.155491
      vertex 81.3762 -29.8901 0.16852
      vertex 81.3734 -29.8901 0.170851
    endloop
  endfacet
  facet normal 0.412717 -0.191713 0.890456
    outer loop
      vertex 81.3763 -29.9552 0.155491
      vertex 81.3734 -29.8901 0.170851
      vertex 80.6355 -30.0875 0.47036
    endloop
  endfacet
  facet normal 0.412075 -0.509358 0.755479
    outer loop
      vertex 81.3763 -30.0102 0.118409
      vertex 81.3763 -29.9552 0.155491
      vertex 80.6355 -30.0875 0.47036
    endloop
  endfacet
  facet normal 0.412196 -0.508652 0.755889
    outer loop
      vertex 80.6357 -30.2536 0.358479
      vertex 81.3763 -30.0102 0.118409
      vertex 80.6355 -30.0875 0.47036
    endloop
  endfacet
  facet normal 0.412593 -0.759767 0.502514
    outer loop
      vertex 81.3764 -30.0468 0.0629902
      vertex 81.3763 -30.0102 0.118409
      vertex 80.6357 -30.2536 0.358479
    endloop
  endfacet
  facet normal 0.412458 -0.760316 0.501795
    outer loop
      vertex 80.6358 -30.3639 0.191271
      vertex 81.3764 -30.0468 0.0629902
      vertex 80.6357 -30.2536 0.358479
    endloop
  endfacet
  facet normal 0.417646 -0.804862 0.421627
    outer loop
      vertex 81.0906 -30.2281 0
      vertex 81.3764 -30.0468 0.0629902
      vertex 80.6358 -30.3639 0.191271
    endloop
  endfacet
  facet normal 0.368648 -0.898395 0.238714
    outer loop
      vertex 80.8469 -30.3281 0
      vertex 81.0906 -30.2281 0
      vertex 80.6358 -30.3639 0.191271
    endloop
  endfacet
  facet normal 0.898332 -0.0861572 0.430786
    outer loop
      vertex 81.465 -29.9145 0.0581093
      vertex 81.465 -29.89 0.0630093
      vertex 81.4644 -29.89 0.0642605
    endloop
  endfacet
  facet normal 0.760493 -0.140542 0.633955
    outer loop
      vertex 81.465 -29.9145 0.0581093
      vertex 81.4644 -29.89 0.0642605
      vertex 81.3763 -29.9552 0.155491
    endloop
  endfacet
  facet normal 0.759334 -0.363447 0.539738
    outer loop
      vertex 81.465 -29.9352 0.0441704
      vertex 81.465 -29.9145 0.0581093
      vertex 81.3763 -29.9552 0.155491
    endloop
  endfacet
  facet normal 0.759252 -0.363813 0.539607
    outer loop
      vertex 81.465 -29.9352 0.0441704
      vertex 81.3763 -29.9552 0.155491
      vertex 81.3763 -30.0102 0.118409
    endloop
  endfacet
  facet normal 0.759441 -0.542047 0.359771
    outer loop
      vertex 81.4651 -29.9489 0.0233183
      vertex 81.465 -29.9352 0.0441704
      vertex 81.3763 -30.0102 0.118409
    endloop
  endfacet
  facet normal 0.759365 -0.542314 0.359528
    outer loop
      vertex 81.3764 -30.0468 0.0629902
      vertex 81.4651 -29.9489 0.0233183
      vertex 81.3763 -30.0102 0.118409
    endloop
  endfacet
  facet normal 0.764968 -0.61301 0.197595
    outer loop
      vertex 81.3982 -30.0399 0
      vertex 81.4651 -29.9489 0.0233183
      vertex 81.3764 -30.0468 0.0629902
    endloop
  endfacet
  facet normal 0.655785 -0.740731 0.145817
    outer loop
      vertex 81.3982 -30.0399 0
      vertex 81.3764 -30.0468 0.0629902
      vertex 81.3764 -30.0592 0
    endloop
  endfacet
  facet normal -0.0352024 0.979746 0.197128
    outer loop
      vertex -89.359 30.1808 0.121701
      vertex -90.0403 30.1631 0.0880075
      vertex -90.0403 30.1581 0.112858
    endloop
  endfacet
  facet normal -0.0349343 0.98102 0.190734
    outer loop
      vertex -90.0403 30.1802 1.90735e-06
      vertex -89.359 30.1808 0.121701
      vertex -88.4621 30.2364 1.90735e-06
    endloop
  endfacet
  facet normal -0.0349144 0.981042 0.190622
    outer loop
      vertex -89.359 30.1808 0.121701
      vertex -90.0403 30.1802 1.90735e-06
      vertex -90.0403 30.1631 0.0880075
    endloop
  endfacet
  facet normal -0.0338747 0.979635 0.19791
    outer loop
      vertex -83.4417 30.41 1.90735e-06
      vertex -88.4621 30.2364 1.90735e-06
      vertex -89.359 30.1808 0.121701
    endloop
  endfacet
  facet normal -0.0338928 0.979763 0.19727
    outer loop
      vertex -81.7906 30.4236 0.21613
      vertex -83.4417 30.41 1.90735e-06
      vertex -89.359 30.1808 0.121701
    endloop
  endfacet
  facet normal -0.0326063 0.981758 0.187316
    outer loop
      vertex -81.7906 30.4236 0.21613
      vertex -75.9354 30.6593 1.90735e-06
      vertex -83.4417 30.41 1.90735e-06
    endloop
  endfacet
  facet normal -0.0316739 0.977606 0.208046
    outer loop
      vertex -68.0248 30.8356 0.375919
      vertex -75.9354 30.6593 1.90735e-06
      vertex -81.7906 30.4236 0.21613
    endloop
  endfacet
  facet normal -0.0306868 0.982241 0.185099
    outer loop
      vertex -68.0248 30.8356 0.375919
      vertex -64.7132 31.0099 0
      vertex -75.9354 30.6593 1.90735e-06
    endloop
  endfacet
  facet normal -0.0278082 0.977662 0.208335
    outer loop
      vertex -47.9361 31.4871 0
      vertex -64.7132 31.0099 0
      vertex -68.0248 30.8356 0.375919
    endloop
  endfacet
  facet normal -0.0252716 0.953157 0.301418
    outer loop
      vertex -16.0279 32.0653 0.846849
      vertex -47.9361 31.4871 0
      vertex -68.0248 30.8356 0.375919
    endloop
  endfacet
  facet normal -0.0235134 0.975187 0.220131
    outer loop
      vertex -16.0279 32.0653 0.846849
      vertex -22.857 32.0918 0
      vertex -47.9361 31.4871 0
    endloop
  endfacet
  facet normal -0.0160148 0.986982 0.16003
    outer loop
      vertex -16.0279 32.0653 0.846849
      vertex 10.7003 32.6363 0
      vertex -22.857 32.0918 0
    endloop
  endfacet
  facet normal -0.0129272 0.969215 0.245876
    outer loop
      vertex 10.7003 32.6363 0
      vertex 18.699 32.4893 1
      vertex 21.0682 32.5209 1
    endloop
  endfacet
  facet normal -0.0129179 0.969233 0.245804
    outer loop
      vertex 18.699 32.4893 1
      vertex 10.7003 32.6363 0
      vertex -16.0279 32.0653 0.846849
    endloop
  endfacet
  facet normal -0.00691753 0.981425 0.191724
    outer loop
      vertex 21.1814 32.6901 0.137959
      vertex 21.0682 32.5209 1
      vertex 21.1817 32.5217 1
    endloop
  endfacet
  facet normal -0.00756233 0.981436 0.191642
    outer loop
      vertex 17.6853 32.6901 0
      vertex 21.0682 32.5209 1
      vertex 21.1814 32.6901 0.137959
    endloop
  endfacet
  facet normal -0.00755925 0.981438 0.191631
    outer loop
      vertex 21.0682 32.5209 1
      vertex 17.6853 32.6901 0
      vertex 10.7003 32.6363 0
    endloop
  endfacet
  facet normal -0 0.981448 0.191726
    outer loop
      vertex 21.1814 32.6901 0.137959
      vertex 21.3576 32.5217 1
      vertex 35.209 32.6901 0.137959
    endloop
  endfacet
  facet normal 0 0.981448 0.191726
    outer loop
      vertex 21.3576 32.5217 1
      vertex 21.1814 32.6901 0.137959
      vertex 21.1817 32.5217 1
    endloop
  endfacet
  facet normal 0.00404038 0.967235 0.253852
    outer loop
      vertex 35.209 32.6901 0.137959
      vertex 26.5804 32.4999 1
      vertex 47.7328 32.4228 0.957101
    endloop
  endfacet
  facet normal 0.00403728 0.967242 0.253823
    outer loop
      vertex 26.5804 32.4999 1
      vertex 35.209 32.6901 0.137959
      vertex 21.3576 32.5217 1
    endloop
  endfacet
  facet normal 0.0040405 0.967235 0.25385
    outer loop
      vertex 35.209 32.6901 0.137959
      vertex 47.7328 32.4228 0.957101
      vertex 38.3697 32.6901 0.0876506
    endloop
  endfacet
  facet normal 0.0102108 0.981392 0.191744
    outer loop
      vertex 40.0147 32.6901 0
      vertex 47.7328 32.4228 0.957101
      vertex 47.7326 32.6098 0
    endloop
  endfacet
  facet normal 0.010215 0.981398 0.191712
    outer loop
      vertex 47.7328 32.4228 0.957101
      vertex 40.0147 32.6901 0
      vertex 38.3697 32.6901 0.0876506
    endloop
  endfacet
  facet normal 0.0199926 0.981247 0.191714
    outer loop
      vertex 47.7328 32.4228 0.957101
      vertex 55.4775 32.452 0
      vertex 47.7326 32.6098 0
    endloop
  endfacet
  facet normal 0.0258861 0.970655 0.23908
    outer loop
      vertex 62.8732 32.0576 0.800488
      vertex 55.4775 32.452 0
      vertex 47.7328 32.4228 0.957101
    endloop
  endfacet
  facet normal 0.0363891 0.987932 0.150554
    outer loop
      vertex 62.8732 32.0576 0.800488
      vertex 67.0783 32.0247 0
      vertex 55.4775 32.452 0
    endloop
  endfacet
  facet normal 0.0567853 0.964295 0.25867
    outer loop
      vertex 73.734 31.4823 0.5609
      vertex 67.0783 32.0247 0
      vertex 62.8732 32.0576 0.800488
    endloop
  endfacet
  facet normal 0.0678573 0.986537 0.148796
    outer loop
      vertex 73.734 31.4823 0.5609
      vertex 75.0468 31.4766 0
      vertex 67.0783 32.0247 0
    endloop
  endfacet
  facet normal 0.09655 0.971585 0.216104
    outer loop
      vertex 76.7121 31.2112 0.4492
      vertex 75.0468 31.4766 0
      vertex 73.734 31.4823 0.5609
    endloop
  endfacet
  facet normal 0.108412 0.978377 0.176142
    outer loop
      vertex 76.7121 31.2112 0.4492
      vertex 77.3914 31.2168 0
      vertex 75.0468 31.4766 0
    endloop
  endfacet
  facet normal 0.140306 0.964391 0.224199
    outer loop
      vertex 79.4587 30.8464 0.29954
      vertex 77.3914 31.2168 0
      vertex 76.7121 31.2112 0.4492
    endloop
  endfacet
  facet normal 0.162828 0.982441 0.091082
    outer loop
      vertex 79.4587 30.8464 0.29954
      vertex 79.9213 30.7975 0
      vertex 77.3914 31.2168 0
    endloop
  endfacet
  facet normal 0.250287 0.939684 0.233131
    outer loop
      vertex 80.5536 30.5816 0.191401
      vertex 79.9213 30.7975 0
      vertex 79.4587 30.8464 0.29954
    endloop
  endfacet
  facet normal 0.316699 0.948238 0.0233853
    outer loop
      vertex 80.5536 30.5816 0.191401
      vertex 81.095 30.4055 0
      vertex 79.9213 30.7975 0
    endloop
  endfacet
  facet normal 0.414651 0.796498 0.440064
    outer loop
      vertex 81.2951 30.2665 0.0630398
      vertex 81.095 30.4055 0
      vertex 80.5536 30.5816 0.191401
    endloop
  endfacet
  facet normal 0.527271 0.833629 0.164462
    outer loop
      vertex 81.2951 30.2665 0.0630398
      vertex 81.295 30.279 0
      vertex 81.095 30.4055 0
    endloop
  endfacet
  facet normal 0.872308 0.0371195 0.487546
    outer loop
      vertex 81.3995 30.1112 0
      vertex 81.3993 30.1159 0
      vertex 81.384 30.1689 0.0233393
    endloop
  endfacet
  facet normal 0.929037 0.113057 0.352291
    outer loop
      vertex 81.3993 30.1159 0
      vertex 81.397 30.1348 0
      vertex 81.384 30.1689 0.0233393
    endloop
  endfacet
  facet normal 0.936146 0.351525 0.00783681
    outer loop
      vertex 81.384 30.1689 0.0233393
      vertex 81.397 30.1348 0
      vertex 81.3783 30.1846 0
    endloop
  endfacet
  facet normal 0.764087 0.606051 0.221074
    outer loop
      vertex 81.384 30.1689 0.0233393
      vertex 81.3783 30.1846 0
      vertex 81.2951 30.2665 0.0630398
    endloop
  endfacet
  facet normal 0.762625 0.610751 0.213039
    outer loop
      vertex 81.3783 30.1846 0
      vertex 81.322 30.2549 0
      vertex 81.2951 30.2665 0.0630398
    endloop
  endfacet
  facet normal 0.658838 0.738117 0.145314
    outer loop
      vertex 81.2951 30.2665 0.0630398
      vertex 81.322 30.2549 0
      vertex 81.295 30.279 0
    endloop
  endfacet
  facet normal 0.966229 -0 0.257684
    outer loop
      vertex 81.3995 30.1103 0
      vertex 81.3995 30.1112 0
      vertex 81.384 30.1344 0.0581198
    endloop
  endfacet
  facet normal -0.0340668 0.196002 0.980012
    outer loop
      vertex -89.3586 29.8797 0.324442
      vertex -90.0403 29.8902 0.298645
      vertex -90.0403 29.8788 0.300925
    endloop
  endfacet
  facet normal -0.0340794 0.196051 0.980001
    outer loop
      vertex -90.0403 29.9948 0.27771
      vertex -89.3586 29.8797 0.324442
      vertex -89.3587 30.0048 0.299412
    endloop
  endfacet
  facet normal -0.0340637 0.196137 0.979985
    outer loop
      vertex -89.3586 29.8797 0.324442
      vertex -90.0403 29.9948 0.27771
      vertex -90.0403 29.8902 0.298645
    endloop
  endfacet
  facet normal -0.0327599 0.196061 0.980044
    outer loop
      vertex -89.3586 29.8797 0.324442
      vertex -81.7899 29.8899 0.5754
      vertex -89.3587 30.0048 0.299412
    endloop
  endfacet
  facet normal -0.0327602 0.196049 0.980047
    outer loop
      vertex -81.7899 29.8899 0.5754
      vertex -81.7902 30.1116 0.531041
      vertex -89.3587 30.0048 0.299412
    endloop
  endfacet
  facet normal -2.13478e-14 0.917638 0.397417
    outer loop
      vertex -81.7902 30.1116 0.531041
      vertex -68.0259 29.9085 1
      vertex -68.0256 29.9085 1
    endloop
  endfacet
  facet normal -0.0305002 0.196066 0.980116
    outer loop
      vertex -68.0259 29.9085 1
      vertex -81.7902 30.1116 0.531041
      vertex -81.7899 29.8899 0.5754
    endloop
  endfacet
  facet normal -0.0294172 0.196115 0.98014
    outer loop
      vertex -68.0241 30.2935 0.923011
      vertex -68.0256 29.9085 1
      vertex -68.0236 29.9088 1
    endloop
  endfacet
  facet normal -0.0304985 0.196112 0.980107
    outer loop
      vertex -68.0256 29.9085 1
      vertex -68.0241 30.2935 0.923011
      vertex -81.7902 30.1116 0.531041
    endloop
  endfacet
  facet normal -0.023862 0.196151 0.980283
    outer loop
      vertex -68.0236 29.9088 1
      vertex -65.0109 30.2753 1
      vertex -68.0241 30.2935 0.923011
    endloop
  endfacet
  facet normal -0.0238612 0.196226 0.980268
    outer loop
      vertex -65.0109 30.2753 1
      vertex -64.5586 30.3303 1
      vertex -68.0241 30.2935 0.923011
    endloop
  endfacet
  facet normal 0.140352 0.194504 0.970809
    outer loop
      vertex 78.0586 30.1055 1
      vertex 79.4597 30.1074 0.797059
      vertex 77.6362 30.4103 1
    endloop
  endfacet
  facet normal 0.140352 0.194503 0.970809
    outer loop
      vertex 79.4593 30.4143 0.735629
      vertex 77.6362 30.4103 1
      vertex 79.4597 30.1074 0.797059
    endloop
  endfacet
  facet normal 0.140354 0.194433 0.970823
    outer loop
      vertex 77.6362 30.4103 1
      vertex 79.4593 30.4143 0.735629
      vertex 77.4816 30.5219 1
    endloop
  endfacet
  facet normal 0.210549 0.192134 0.958516
    outer loop
      vertex 79.4597 30.1074 0.797059
      vertex 79.5365 30.1075 0.780169
      vertex 79.4593 30.4143 0.735629
    endloop
  endfacet
  facet normal 0.25006 0.200441 0.947256
    outer loop
      vertex 79.5365 30.1075 0.780169
      vertex 80.5279 30.1088 0.518181
      vertex 79.4593 30.4143 0.735629
    endloop
  endfacet
  facet normal 0.249401 0.197589 0.948028
    outer loop
      vertex 80.5279 30.1088 0.518181
      vertex 80.554 30.3052 0.470381
      vertex 79.4593 30.4143 0.735629
    endloop
  endfacet
  facet normal 0.301427 0.187474 0.934877
    outer loop
      vertex 80.5543 30.1088 0.509669
      vertex 80.554 30.3052 0.470381
      vertex 80.5279 30.1088 0.518181
    endloop
  endfacet
  facet normal 0.410163 0.179498 0.894174
    outer loop
      vertex 80.5543 30.1088 0.509669
      vertex 81.2925 30.1098 0.170851
      vertex 80.554 30.3052 0.470381
    endloop
  endfacet
  facet normal 0.412194 0.19289 0.890443
    outer loop
      vertex 81.2925 30.1098 0.170851
      vertex 81.2952 30.1749 0.155499
      vertex 80.554 30.3052 0.470381
    endloop
  endfacet
  facet normal 0.971407 -0 0.23742
    outer loop
      vertex 81.3995 30.11 0
      vertex 81.3995 30.1103 0
      vertex 81.3841 30.11 0.0630093
    endloop
  endfacet
  facet normal 0.97006 0.0515353 0.237336
    outer loop
      vertex 81.3841 30.11 0.0630093
      vertex 81.3995 30.1103 0
      vertex 81.384 30.1344 0.0581198
    endloop
  endfacet
  facet normal 0.898028 0.0899761 0.43064
    outer loop
      vertex 81.3841 30.11 0.0630093
      vertex 81.384 30.1344 0.0581198
      vertex 81.3835 30.11 0.0642605
    endloop
  endfacet
  facet normal 0.760278 0.143845 0.633472
    outer loop
      vertex 81.3835 30.11 0.0642605
      vertex 81.384 30.1344 0.0581198
      vertex 81.2952 30.1749 0.155499
    endloop
  endfacet
  facet normal 0.756927 0.129289 0.640583
    outer loop
      vertex 81.2953 30.1098 0.16852
      vertex 81.3835 30.11 0.0642605
      vertex 81.2952 30.1749 0.155499
    endloop
  endfacet
  facet normal 0.632285 0.152883 0.759501
    outer loop
      vertex 81.2953 30.1098 0.16852
      vertex 81.2952 30.1749 0.155499
      vertex 81.2925 30.1098 0.170851
    endloop
  endfacet
  facet normal 0.969357 0.137283 0.203718
    outer loop
      vertex 81.3995 30.1112 0
      vertex 81.384 30.1551 0.0441704
      vertex 81.384 30.1344 0.0581198
    endloop
  endfacet
  facet normal 0.758388 0.364252 0.540526
    outer loop
      vertex 81.384 30.1344 0.0581198
      vertex 81.384 30.1551 0.0441704
      vertex 81.2951 30.23 0.118428
    endloop
  endfacet
  facet normal 0.75853 0.364702 0.540023
    outer loop
      vertex 81.2952 30.1749 0.155499
      vertex 81.384 30.1344 0.0581198
      vertex 81.2951 30.23 0.118428
    endloop
  endfacet
  facet normal 0.410757 0.509463 0.756126
    outer loop
      vertex 81.2952 30.1749 0.155499
      vertex 81.2951 30.23 0.118428
      vertex 80.5538 30.4713 0.358548
    endloop
  endfacet
  facet normal 0.410772 0.509543 0.756064
    outer loop
      vertex 80.554 30.3052 0.470381
      vertex 81.2952 30.1749 0.155499
      vertex 80.5538 30.4713 0.358548
    endloop
  endfacet
  facet normal 0.248594 0.54117 0.803328
    outer loop
      vertex 80.554 30.3052 0.470381
      vertex 80.5538 30.4713 0.358548
      vertex 79.4589 30.674 0.56082
    endloop
  endfacet
  facet normal 0.248585 0.541136 0.803354
    outer loop
      vertex 79.4593 30.4143 0.735629
      vertex 80.554 30.3052 0.470381
      vertex 79.4589 30.674 0.56082
    endloop
  endfacet
  facet normal 0.139859 0.55306 0.821318
    outer loop
      vertex 79.4593 30.4143 0.735629
      vertex 79.4589 30.674 0.56082
      vertex 76.7124 30.9528 0.840771
    endloop
  endfacet
  facet normal 0.139877 0.553165 0.821245
    outer loop
      vertex 76.7124 30.9528 0.840771
      vertex 77.4816 30.5219 1
      vertex 79.4593 30.4143 0.735629
    endloop
  endfacet
  facet normal 0.139845 0.553122 0.821279
    outer loop
      vertex 77.4816 30.5219 1
      vertex 76.7124 30.9528 0.840771
      vertex 76.7127 30.7163 1
    endloop
  endfacet
  facet normal 0.096555 0.555963 0.82558
    outer loop
      vertex 76.7127 30.7163 1
      vertex 76.7124 30.9528 0.840771
      vertex 74.4429 31.1105 1
    endloop
  endfacet
  facet normal -0.0243467 0.558277 0.829297
    outer loop
      vertex -56.8153 30.668 1
      vertex -50.5347 30.9419 1
      vertex -68.0246 30.6193 0.703699
    endloop
  endfacet
  facet normal -0.0243469 0.558263 0.829307
    outer loop
      vertex -68.0246 30.6193 0.703699
      vertex -64.5586 30.3303 1
      vertex -56.8153 30.668 1
    endloop
  endfacet
  facet normal -0.0243521 0.558226 0.829331
    outer loop
      vertex -64.5586 30.3303 1
      vertex -68.0246 30.6193 0.703699
      vertex -68.0241 30.2935 0.923011
    endloop
  endfacet
  facet normal -0.0309856 0.558117 0.829184
    outer loop
      vertex -68.0241 30.2935 0.923011
      vertex -68.0246 30.6193 0.703699
      vertex -81.7904 30.2991 0.404812
    endloop
  endfacet
  facet normal -0.0309843 0.558168 0.829149
    outer loop
      vertex -81.7902 30.1116 0.531041
      vertex -68.0241 30.2935 0.923011
      vertex -81.7904 30.2991 0.404812
    endloop
  endfacet
  facet normal -0.0332507 0.558126 0.82909
    outer loop
      vertex -81.7902 30.1116 0.531041
      vertex -81.7904 30.2991 0.404812
      vertex -89.3589 30.1106 0.228171
    endloop
  endfacet
  facet normal -0.0332492 0.558183 0.829051
    outer loop
      vertex -89.3587 30.0048 0.299412
      vertex -81.7902 30.1116 0.531041
      vertex -89.3589 30.1106 0.228171
    endloop
  endfacet
  facet normal -0.0345448 0.558157 0.829016
    outer loop
      vertex -90.0403 30.093 0.211627
      vertex -89.3587 30.0048 0.299412
      vertex -89.3589 30.1106 0.228171
    endloop
  endfacet
  facet normal -0.0345392 0.558183 0.828999
    outer loop
      vertex -89.3587 30.0048 0.299412
      vertex -90.0403 30.093 0.211627
      vertex -90.0403 30.0045 0.271216
    endloop
  endfacet
  facet normal -0.0345991 0.555987 0.83047
    outer loop
      vertex -89.3587 30.0048 0.299412
      vertex -90.0403 30.0045 0.271216
      vertex -90.0403 29.9948 0.27771
    endloop
  endfacet
  facet normal 0.969193 0.205333 0.136027
    outer loop
      vertex 81.3995 30.1112 0
      vertex 81.384 30.1689 0.0233393
      vertex 81.384 30.1551 0.0441704
    endloop
  endfacet
  facet normal 0.757932 0.543825 0.360268
    outer loop
      vertex 81.384 30.1551 0.0441704
      vertex 81.384 30.1689 0.0233393
      vertex 81.2951 30.2665 0.0630398
    endloop
  endfacet
  facet normal 0.758278 0.544362 0.358727
    outer loop
      vertex 81.384 30.1551 0.0441704
      vertex 81.2951 30.2665 0.0630398
      vertex 81.2951 30.23 0.118428
    endloop
  endfacet
  facet normal 0.41043 0.761429 0.50177
    outer loop
      vertex 81.2951 30.23 0.118428
      vertex 81.2951 30.2665 0.0630398
      vertex 80.5536 30.5816 0.191401
    endloop
  endfacet
  facet normal 0.410405 0.761344 0.501919
    outer loop
      vertex 80.5538 30.4713 0.358548
      vertex 81.2951 30.23 0.118428
      vertex 80.5536 30.5816 0.191401
    endloop
  endfacet
  facet normal 0.248248 0.808658 0.533335
    outer loop
      vertex 80.5538 30.4713 0.358548
      vertex 80.5536 30.5816 0.191401
      vertex 79.4587 30.8464 0.29954
    endloop
  endfacet
  facet normal 0.248239 0.808636 0.533371
    outer loop
      vertex 79.4589 30.674 0.56082
      vertex 80.5538 30.4713 0.358548
      vertex 79.4587 30.8464 0.29954
    endloop
  endfacet
  facet normal 0.139495 0.826563 0.545283
    outer loop
      vertex 79.4589 30.674 0.56082
      vertex 79.4587 30.8464 0.29954
      vertex 76.7121 31.2112 0.4492
    endloop
  endfacet
  facet normal 0.139488 0.826535 0.545328
    outer loop
      vertex 76.7124 30.9528 0.840771
      vertex 79.4589 30.674 0.56082
      vertex 76.7121 31.2112 0.4492
    endloop
  endfacet
  facet normal 0.0961903 0.830809 0.548182
    outer loop
      vertex 76.7124 30.9528 0.840771
      vertex 76.7121 31.2112 0.4492
      vertex 73.734 31.4823 0.5609
    endloop
  endfacet
  facet normal 0.0961908 0.830811 0.54818
    outer loop
      vertex 73.734 31.4823 0.5609
      vertex 74.4429 31.1105 1
      vertex 76.7124 30.9528 0.840771
    endloop
  endfacet
  facet normal 0.0961533 0.830788 0.548221
    outer loop
      vertex 74.4429 31.1105 1
      vertex 73.734 31.4823 0.5609
      vertex 73.7344 31.1925 1
    endloop
  endfacet
  facet normal 0.056275 0.833316 0.549926
    outer loop
      vertex 73.734 31.4823 0.5609
      vertex 71.568 31.3388 1
      vertex 73.7344 31.1925 1
    endloop
  endfacet
  facet normal 0.0562724 0.833323 0.549915
    outer loop
      vertex 71.568 31.3388 1
      vertex 73.734 31.4823 0.5609
      vertex 62.8732 32.0576 0.800488
    endloop
  endfacet
  facet normal 0.0562663 0.833271 0.549995
    outer loop
      vertex 62.8734 31.9259 1
      vertex 71.568 31.3388 1
      vertex 62.8732 32.0576 0.800488
    endloop
  endfacet
  facet normal 0.02582 0.834301 0.550705
    outer loop
      vertex 62.8732 32.0576 0.800488
      vertex 48.9339 32.3573 1
      vertex 62.8734 31.9259 1
    endloop
  endfacet
  facet normal 0.02582 0.834227 0.550817
    outer loop
      vertex 48.9339 32.3573 1
      vertex 62.8732 32.0576 0.800488
      vertex 47.7328 32.4228 0.957101
    endloop
  endfacet
  facet normal 0.0258443 0.83445 0.550477
    outer loop
      vertex 47.7328 32.3945 1
      vertex 48.9339 32.3573 1
      vertex 47.7328 32.4228 0.957101
    endloop
  endfacet
  facet normal 0.00415932 0.834722 0.550657
    outer loop
      vertex 47.7328 32.3945 1
      vertex 47.7328 32.4228 0.957101
      vertex 26.5804 32.4999 1
    endloop
  endfacet
  facet normal -0.0126185 0.834543 0.550798
    outer loop
      vertex -10.573 32.0467 1
      vertex 18.699 32.4893 1
      vertex -16.0279 32.0653 0.846849
    endloop
  endfacet
  facet normal -0.012621 0.834488 0.550881
    outer loop
      vertex -16.0278 31.9642 1
      vertex -10.573 32.0467 1
      vertex -16.0279 32.0653 0.846849
    endloop
  endfacet
  facet normal -0.0247147 0.834296 0.550762
    outer loop
      vertex -16.0279 32.0653 0.846849
      vertex -41.1768 31.2192 1
      vertex -16.0278 31.9642 1
    endloop
  endfacet
  facet normal -0.0247201 0.834422 0.550572
    outer loop
      vertex -41.1768 31.2192 1
      vertex -16.0279 32.0653 0.846849
      vertex -68.0248 30.8356 0.375919
    endloop
  endfacet
  facet normal -0.0247226 0.834302 0.550754
    outer loop
      vertex -68.0248 30.8356 0.375919
      vertex -50.5347 30.9419 1
      vertex -41.1768 31.2192 1
    endloop
  endfacet
  facet normal -0.0247185 0.834388 0.550623
    outer loop
      vertex -50.5347 30.9419 1
      vertex -68.0248 30.8356 0.375919
      vertex -68.0246 30.6193 0.703699
    endloop
  endfacet
  facet normal -0.0313582 0.834231 0.550523
    outer loop
      vertex -68.0246 30.6193 0.703699
      vertex -68.0248 30.8356 0.375919
      vertex -81.7906 30.4236 0.21613
    endloop
  endfacet
  facet normal -0.0313576 0.834245 0.550502
    outer loop
      vertex -81.7904 30.2991 0.404812
      vertex -68.0246 30.6193 0.703699
      vertex -81.7906 30.4236 0.21613
    endloop
  endfacet
  facet normal -0.0336292 0.834182 0.550463
    outer loop
      vertex -81.7904 30.2991 0.404812
      vertex -81.7906 30.4236 0.21613
      vertex -89.359 30.1808 0.121701
    endloop
  endfacet
  facet normal -0.0336212 0.834376 0.55017
    outer loop
      vertex -89.3589 30.1106 0.228171
      vertex -81.7904 30.2991 0.404812
      vertex -89.359 30.1808 0.121701
    endloop
  endfacet
  facet normal -0.0349042 0.834339 0.550146
    outer loop
      vertex -89.359 30.1808 0.121701
      vertex -90.0403 30.0994 0.201925
      vertex -89.3589 30.1106 0.228171
    endloop
  endfacet
  facet normal -0.0349414 0.834462 0.549956
    outer loop
      vertex -90.0403 30.0994 0.201925
      vertex -89.359 30.1808 0.121701
      vertex -90.0403 30.1581 0.112858
    endloop
  endfacet
  facet normal -0.0349087 0.834232 0.550308
    outer loop
      vertex -89.3589 30.1106 0.228171
      vertex -90.0403 30.0994 0.201925
      vertex -90.0403 30.093 0.211627
    endloop
  endfacet
  facet normal -1 0 0
    outer loop
      vertex -90.0403 29.8902 0.298645
      vertex -90.0403 30.1631 0.0880075
      vertex -90.0403 30.1802 1.90735e-06
    endloop
  endfacet
  facet normal -1 0 0
    outer loop
      vertex -90.0403 30.1631 0.0880075
      vertex -90.0403 30.0994 0.201925
      vertex -90.0403 30.1581 0.112858
    endloop
  endfacet
  facet normal -1 0 0
    outer loop
      vertex -90.0403 30.1631 0.0880075
      vertex -90.0403 30.0045 0.271216
      vertex -90.0403 30.0994 0.201925
    endloop
  endfacet
  facet normal -1 0 0
    outer loop
      vertex -90.0403 30.0994 0.201925
      vertex -90.0403 30.0045 0.271216
      vertex -90.0403 30.093 0.211627
    endloop
  endfacet
  facet normal -1 0 0
    outer loop
      vertex -90.0403 30.1631 0.0880075
      vertex -90.0403 29.8902 0.298645
      vertex -90.0403 30.0045 0.271216
    endloop
  endfacet
  facet normal -1 0 0
    outer loop
      vertex -90.0403 30.0045 0.271216
      vertex -90.0403 29.8902 0.298645
      vertex -90.0403 29.9948 0.27771
    endloop
  endfacet
  facet normal -1 0 0
    outer loop
      vertex -90.0403 30.1802 1.90735e-06
      vertex -90.0403 29.8788 0.300925
      vertex -90.0403 29.8902 0.298645
    endloop
  endfacet
  facet normal -1 0 0
    outer loop
      vertex -90.0403 30.1802 1.90735e-06
      vertex -90.0403 25.3711 0.300872
      vertex -90.0403 29.8788 0.300925
    endloop
  endfacet
  facet normal -1 0 0
    outer loop
      vertex -90.0403 30.1802 1.90735e-06
      vertex -90.0403 -6.96518 0.298802
      vertex -90.0403 25.3711 0.300872
    endloop
  endfacet
  facet normal -1 0 0
    outer loop
      vertex -90.0403 30.1802 1.90735e-06
      vertex -90.0403 -13.859 0.296324
      vertex -90.0403 -6.96518 0.298802
    endloop
  endfacet
  facet normal -1 0 0
    outer loop
      vertex -90.0403 -13.859 0.296324
      vertex -90.0403 -14.2189 0.297883
      vertex -90.0403 -13.9285 0.297163
    endloop
  endfacet
  facet normal -1 0 0
    outer loop
      vertex -90.0403 -30.4168 1.90735e-06
      vertex -90.0403 -13.859 0.296324
      vertex -90.0403 30.1802 1.90735e-06
    endloop
  endfacet
  facet normal -1 -0 0
    outer loop
      vertex -90.0403 -13.859 0.296324
      vertex -90.0403 -30.4168 1.90735e-06
      vertex -90.0403 -14.2189 0.297883
    endloop
  endfacet
  facet normal -1 0 0
    outer loop
      vertex -90.0403 -14.2189 0.297883
      vertex -90.0403 -30.4168 1.90735e-06
      vertex -90.0403 -16.6834 0.2935
    endloop
  endfacet
  facet normal -1 -0 0
    outer loop
      vertex -90.0403 -16.6834 0.2935
      vertex -90.0403 -30.4168 1.90735e-06
      vertex -90.0403 -20.0957 0.296468
    endloop
  endfacet
  facet normal -1 -0 0
    outer loop
      vertex -90.0403 -20.0957 0.296468
      vertex -90.0403 -30.4168 1.90735e-06
      vertex -90.0403 -30.1213 0.298133
    endloop
  endfacet
  facet normal -1 0 0
    outer loop
      vertex -90.0403 -30.1213 0.298133
      vertex -90.0403 -30.4168 1.90735e-06
      vertex -90.0403 -30.2235 0.277669
    endloop
  endfacet
  facet normal -1 0 -0
    outer loop
      vertex -90.0403 -30.3227 0.216882
      vertex -90.0403 -30.2235 0.277669
      vertex -90.0403 -30.4168 1.90735e-06
    endloop
  endfacet
  facet normal -1 0 0
    outer loop
      vertex -90.0403 -30.2235 0.277669
      vertex -90.0403 -30.3227 0.216882
      vertex -90.0403 -30.2363 0.275115
    endloop
  endfacet
  facet normal -1 0 -0
    outer loop
      vertex -90.0403 -30.391 0.122593
      vertex -90.0403 -30.3227 0.216882
      vertex -90.0403 -30.4168 1.90735e-06
    endloop
  endfacet
  facet normal -1 0 0
    outer loop
      vertex -90.0403 -30.3227 0.216882
      vertex -90.0403 -30.391 0.122593
      vertex -90.0403 -30.3335 0.209611
    endloop
  endfacet
  facet normal -1 0 0
    outer loop
      vertex -90.0403 -30.391 0.122593
      vertex -90.0403 -30.3993 0.104863
      vertex -90.0403 -30.3981 0.111724
    endloop
  endfacet
  facet normal -1 0 0
    outer loop
      vertex -90.0403 -30.391 0.122593
      vertex -90.0403 -30.4168 1.90735e-06
      vertex -90.0403 -30.3993 0.104863
    endloop
  endfacet
  facet normal 0 0 1
    outer loop
      vertex -50.44 -31.0781 1
      vertex -67.9403 -8.34884 1
      vertex -67.8616 -12.0336 1
    endloop
  endfacet
  facet normal 0 0 1
    outer loop
      vertex -64.5586 30.3303 1
      vertex -67.9904 8.42353 1
      vertex -67.9958 8.17224 1
    endloop
  endfacet
  facet normal -0 0 1
    outer loop
      vertex -68.0236 29.9088 1
      vertex -67.9904 8.42353 1
      vertex -65.0109 30.2753 1
    endloop
  endfacet
  facet normal -0 0 1
    outer loop
      vertex -68.0256 29.9085 1
      vertex -67.9904 8.42353 1
      vertex -68.0236 29.9088 1
    endloop
  endfacet
  facet normal 0 0 1
    outer loop
      vertex -67.9904 8.42353 1
      vertex -68.0256 29.9085 1
      vertex -68.0259 29.9085 1
    endloop
  endfacet
  facet normal 0 0 1
    outer loop
      vertex 71.568 31.3388 1
      vertex 78.1395 -29.8945 1
      vertex 78.0586 30.1055 1
    endloop
  endfacet
  facet normal 0 0 1
    outer loop
      vertex 76.7127 30.7163 1
      vertex 78.0586 30.1055 1
      vertex 77.6362 30.4103 1
    endloop
  endfacet
  facet normal 0 0 1
    outer loop
      vertex 68.7254 -31.3509 1
      vertex 78.1395 -29.8945 1
      vertex 71.568 31.3388 1
    endloop
  endfacet
  facet normal 0 0 1
    outer loop
      vertex 76.7127 30.7163 1
      vertex 77.6362 30.4103 1
      vertex 77.4816 30.5219 1
    endloop
  endfacet
  facet normal 0 0 1
    outer loop
      vertex 78.1395 -29.8945 1
      vertex 76.7953 -30.5089 1
      vertex 77.9596 -30.025 1
    endloop
  endfacet
  facet normal 0 0 1
    outer loop
      vertex 77.9596 -30.025 1
      vertex 77.3155 -30.3759 1
      vertex 77.5633 -30.3125 1
    endloop
  endfacet
  facet normal 0 0 1
    outer loop
      vertex 78.0586 30.1055 1
      vertex 76.7127 30.7163 1
      vertex 74.4429 31.1105 1
    endloop
  endfacet
  facet normal 0 0 1
    outer loop
      vertex 77.9596 -30.025 1
      vertex 76.7953 -30.5089 1
      vertex 77.3155 -30.3759 1
    endloop
  endfacet
  facet normal 0 -0 1
    outer loop
      vertex 76.7953 -30.5089 1
      vertex 78.1395 -29.8945 1
      vertex 75.9102 -30.6651 1
    endloop
  endfacet
  facet normal 0 0 1
    outer loop
      vertex 78.0586 30.1055 1
      vertex 74.4429 31.1105 1
      vertex 73.7344 31.1925 1
    endloop
  endfacet
  facet normal 0 0 1
    outer loop
      vertex 78.1395 -29.8945 1
      vertex 74.524 -30.9096 1
      vertex 75.9102 -30.6651 1
    endloop
  endfacet
  facet normal 0 -0 1
    outer loop
      vertex 74.524 -30.9096 1
      vertex 78.1395 -29.8945 1
      vertex 74.0637 -30.9641 1
    endloop
  endfacet
  facet normal 0 0 1
    outer loop
      vertex 78.0586 30.1055 1
      vertex 73.7344 31.1925 1
      vertex 71.568 31.3388 1
    endloop
  endfacet
  facet normal 0 -0 1
    outer loop
      vertex 73.8182 -30.9932 1
      vertex 78.1395 -29.8945 1
      vertex 68.7254 -31.3509 1
    endloop
  endfacet
  facet normal 0 -0 1
    outer loop
      vertex 74.0637 -30.9641 1
      vertex 78.1395 -29.8945 1
      vertex 73.8182 -30.9932 1
    endloop
  endfacet
  facet normal 0 0 1
    outer loop
      vertex 62.8734 31.9259 1
      vertex 68.7254 -31.3509 1
      vertex 71.568 31.3388 1
    endloop
  endfacet
  facet normal 0 0 1
    outer loop
      vertex 68.7254 -31.3509 1
      vertex 62.8734 31.9259 1
      vertex 62.9593 -31.7559 1
    endloop
  endfacet
  facet normal 0 0 1
    outer loop
      vertex 62.8734 31.9259 1
      vertex 59.9015 -31.8587 1
      vertex 62.9593 -31.7559 1
    endloop
  endfacet
  facet normal 0 0 1
    outer loop
      vertex 48.9339 32.3573 1
      vertex 59.9015 -31.8587 1
      vertex 62.8734 31.9259 1
    endloop
  endfacet
  facet normal 0 0 1
    outer loop
      vertex 48.9339 32.3573 1
      vertex 47.8201 -32.2652 1
      vertex 59.9015 -31.8587 1
    endloop
  endfacet
  facet normal 0 0 1
    outer loop
      vertex 47.7328 32.3945 1
      vertex 47.8201 -32.2652 1
      vertex 48.9339 32.3573 1
    endloop
  endfacet
  facet normal 0 0 1
    outer loop
      vertex 47.7328 32.3945 1
      vertex 46.5825 -32.2747 1
      vertex 47.8201 -32.2652 1
    endloop
  endfacet
  facet normal 0 0 1
    outer loop
      vertex 26.5804 32.4999 1
      vertex 46.5825 -32.2747 1
      vertex 47.7328 32.3945 1
    endloop
  endfacet
  facet normal 0 0 1
    outer loop
      vertex 26.5804 32.4999 1
      vertex 26.3256 -32.4302 1
      vertex 46.5825 -32.2747 1
    endloop
  endfacet
  facet normal 0 0 1
    outer loop
      vertex 21.3576 32.5217 1
      vertex 26.3256 -32.4302 1
      vertex 26.5804 32.4999 1
    endloop
  endfacet
  facet normal 0 0 1
    outer loop
      vertex 21.3576 32.5217 1
      vertex 21.3319 -32.4643 1
      vertex 26.3256 -32.4302 1
    endloop
  endfacet
  facet normal -0 0 1
    outer loop
      vertex 21.1817 32.5217 1
      vertex 21.3319 -32.4643 1
      vertex 21.3576 32.5217 1
    endloop
  endfacet
  facet normal -0 0 1
    outer loop
      vertex 21.0682 32.5209 1
      vertex 21.3319 -32.4643 1
      vertex 21.1817 32.5217 1
    endloop
  endfacet
  facet normal 0 0 1
    outer loop
      vertex 21.0682 32.5209 1
      vertex 21.0607 -32.4628 1
      vertex 21.3319 -32.4643 1
    endloop
  endfacet
  facet normal 0 0 1
    outer loop
      vertex 21.0682 32.5209 1
      vertex 18.9437 -32.4402 1
      vertex 21.0607 -32.4628 1
    endloop
  endfacet
  facet normal -0 0 1
    outer loop
      vertex 18.699 32.4893 1
      vertex 18.9437 -32.4402 1
      vertex 21.0682 32.5209 1
    endloop
  endfacet
  facet normal -0 0 1
    outer loop
      vertex -10.573 32.0467 1
      vertex 18.9437 -32.4402 1
      vertex 18.699 32.4893 1
    endloop
  endfacet
  facet normal 0 0 1
    outer loop
      vertex -10.573 32.0467 1
      vertex -15.9414 -32.0069 1
      vertex 18.9437 -32.4402 1
    endloop
  endfacet
  facet normal -0 0 1
    outer loop
      vertex -16.0278 31.9642 1
      vertex -15.9414 -32.0069 1
      vertex -10.573 32.0467 1
    endloop
  endfacet
  facet normal -0 0 1
    outer loop
      vertex -41.1768 31.2192 1
      vertex -15.9414 -32.0069 1
      vertex -16.0278 31.9642 1
    endloop
  endfacet
  facet normal 0 0 1
    outer loop
      vertex -41.1768 31.2192 1
      vertex -50.44 -31.0781 1
      vertex -15.9414 -32.0069 1
    endloop
  endfacet
  facet normal 0 0 1
    outer loop
      vertex -67.9403 -8.34884 1
      vertex -41.1768 31.2192 1
      vertex -50.5347 30.9419 1
    endloop
  endfacet
  facet normal 0 0 1
    outer loop
      vertex -67.9403 -8.34884 1
      vertex -50.5347 30.9419 1
      vertex -56.8153 30.668 1
    endloop
  endfacet
  facet normal -0 0 1
    outer loop
      vertex -67.9403 -8.34884 1
      vertex -50.44 -31.0781 1
      vertex -41.1768 31.2192 1
    endloop
  endfacet
  facet normal 0 0 1
    outer loop
      vertex -50.44 -31.0781 1
      vertex -67.8616 -12.0336 1
      vertex -61.8854 -30.61 1
    endloop
  endfacet
  facet normal 0 0 1
    outer loop
      vertex -67.9403 -8.34884 1
      vertex -56.8153 30.668 1
      vertex -64.5586 30.3303 1
    endloop
  endfacet
  facet normal 0 0 1
    outer loop
      vertex -67.9904 8.42353 1
      vertex -64.5586 30.3303 1
      vertex -65.0109 30.2753 1
    endloop
  endfacet
  facet normal 0 0 1
    outer loop
      vertex -61.8854 -30.61 1
      vertex -67.8616 -12.0336 1
      vertex -64.4747 -30.5041 1
    endloop
  endfacet
  facet normal 0 0 1
    outer loop
      vertex -67.8616 -12.0336 1
      vertex -67.9427 -30.0918 1
      vertex -64.4747 -30.5041 1
    endloop
  endfacet
  facet normal 0 -0 1
    outer loop
      vertex -67.9427 -30.0918 1
      vertex -67.8616 -12.0336 1
      vertex -67.945 -30.0915 1
    endloop
  endfacet
  facet normal 0 0 1
    outer loop
      vertex -64.5586 30.3303 1
      vertex -67.9958 8.17224 1
      vertex -67.9403 -8.34884 1
    endloop
  endfacet
  facet normal -0 0 1
    outer loop
      vertex -69.0956 7.75327 1
      vertex -67.9403 -8.34884 1
      vertex -67.9958 8.17224 1
    endloop
  endfacet
  facet normal -0 0 1
    outer loop
      vertex -71.1488 6.9571 1
      vertex -67.9403 -8.34884 1
      vertex -69.0956 7.75327 1
    endloop
  endfacet
  facet normal 0 0 1
    outer loop
      vertex -72.013 -6.8028 1
      vertex -71.1488 6.9571 1
      vertex -71.1576 6.95361 1
    endloop
  endfacet
  facet normal 0 0 1
    outer loop
      vertex -71.1488 6.9571 1
      vertex -72.013 -6.8028 1
      vertex -67.9403 -8.34884 1
    endloop
  endfacet
  facet normal 0 0 1
    outer loop
      vertex -71.1576 6.95361 1
      vertex -72.056 -6.78643 1
      vertex -72.013 -6.8028 1
    endloop
  endfacet
  facet normal 0 0 1
    outer loop
      vertex -71.1576 6.95361 1
      vertex -74.878 -5.6592 1
      vertex -72.056 -6.78643 1
    endloop
  endfacet
  facet normal 0 0 1
    outer loop
      vertex -71.1576 6.95361 1
      vertex -74.8856 -5.65622 1
      vertex -74.878 -5.6592 1
    endloop
  endfacet
  facet normal -0 0 1
    outer loop
      vertex -78.4611 3.96758 1
      vertex -74.8856 -5.65622 1
      vertex -71.1576 6.95361 1
    endloop
  endfacet
  facet normal -0 0 1
    outer loop
      vertex -78.6449 3.8903 1
      vertex -74.8856 -5.65622 1
      vertex -78.4611 3.96758 1
    endloop
  endfacet
  facet normal -0 0 1
    outer loop
      vertex -78.756 3.83937 1
      vertex -74.8856 -5.65622 1
      vertex -78.6449 3.8903 1
    endloop
  endfacet
  facet normal 0 0 1
    outer loop
      vertex -78.756 3.83937 1
      vertex -83.5033 -1.9723 1
      vertex -74.8856 -5.65622 1
    endloop
  endfacet
  facet normal 0 0 1
    outer loop
      vertex -78.756 3.83937 1
      vertex -83.7809 -1.85645 1
      vertex -83.5033 -1.9723 1
    endloop
  endfacet
  facet normal 0 0 1
    outer loop
      vertex -78.756 3.83937 1
      vertex -87.3515 -0.212666 1
      vertex -83.7809 -1.85645 1
    endloop
  endfacet
  facet normal 0 -0 1
    outer loop
      vertex -87.3515 -0.212666 1
      vertex -78.756 3.83937 1
      vertex -87.5599 -0.117814 1
    endloop
  endfacet
  facet normal 0 1 0
    outer loop
      vertex 40.0147 32.6901 0
      vertex 35.209 32.6901 0.137959
      vertex 38.3697 32.6901 0.0876506
    endloop
  endfacet
  facet normal 0 1 0
    outer loop
      vertex 17.6853 32.6901 0
      vertex 35.209 32.6901 0.137959
      vertex 40.0147 32.6901 0
    endloop
  endfacet
  facet normal 0 1 0
    outer loop
      vertex 35.209 32.6901 0.137959
      vertex 17.6853 32.6901 0
      vertex 21.1814 32.6901 0.137959
    endloop
  endfacet
endsolid OpenSCAD_Model
