  0
SECTION
  2
BLOCKS
  0
ENDSEC
  0
SECTION
  2
ENTITIES
  0
LINE
  8
0
 10
45.326
 20
-32.5228
 11
57.3038
 21
-32.25
  0
LINE
  8
0
 10
57.3038
 20
-32.25
 11
65.3246
 21
-31.937
  0
LINE
  8
0
 10
65.3246
 20
-31.937
 11
70.6961
 21
-31.6305
  0
LINE
  8
0
 10
70.6961
 20
-31.6305
 11
74.2936
 21
-31.3511
  0
LINE
  8
0
 10
74.2936
 20
-31.3511
 11
76.7026
 21
-31.103
  0
LINE
  8
0
 10
76.7026
 20
-31.103
 11
78.3196
 21
-30.9009
  0
LINE
  8
0
 10
78.3196
 20
-30.9009
 11
79.9272
 21
-30.6007
  0
LINE
  8
0
 10
79.9272
 20
-30.6007
 11
80.4792
 21
-30.4505
  0
LINE
  8
0
 10
80.4792
 20
-30.4505
 11
80.8469
 21
-30.3281
  0
LINE
  8
0
 10
80.8469
 20
-30.3281
 11
81.0906
 21
-30.2281
  0
LINE
  8
0
 10
81.0906
 20
-30.2281
 11
81.2512
 21
-30.1455
  0
LINE
  8
0
 10
81.2512
 20
-30.1455
 11
81.3764
 21
-30.0592
  0
LINE
  8
0
 10
81.3764
 20
-30.0592
 11
81.3982
 21
-30.0399
  0
LINE
  8
0
 10
81.3982
 20
-30.0399
 11
81.4471
 21
-29.9842
  0
LINE
  8
0
 10
81.4471
 20
-29.9842
 11
81.4651
 21
-29.9489
  0
LINE
  8
0
 10
81.4651
 20
-29.9489
 11
81.4746
 21
-29.9288
  0
LINE
  8
0
 10
81.4746
 20
-29.9288
 11
81.4774
 21
-29.9176
  0
LINE
  8
0
 10
81.4774
 20
-29.9176
 11
81.4796
 21
-29.9043
  0
LINE
  8
0
 10
81.4796
 20
-29.9043
 11
81.4803
 21
-29.894
  0
LINE
  8
0
 10
81.4803
 20
-29.894
 11
81.4804
 21
-29.89
  0
LINE
  8
0
 10
81.4804
 20
-29.89
 11
81.3995
 21
30.1112
  0
LINE
  8
0
 10
81.3995
 20
30.1112
 11
81.3993
 21
30.1159
  0
LINE
  8
0
 10
81.3993
 20
30.1159
 11
81.397
 21
30.1348
  0
LINE
  8
0
 10
81.397
 20
30.1348
 11
81.3783
 21
30.1846
  0
LINE
  8
0
 10
81.3783
 20
30.1846
 11
81.322
 21
30.2549
  0
LINE
  8
0
 10
81.322
 20
30.2549
 11
81.295
 21
30.279
  0
LINE
  8
0
 10
81.295
 20
30.279
 11
81.095
 21
30.4055
  0
LINE
  8
0
 10
81.095
 20
30.4055
 11
79.9213
 21
30.7975
  0
LINE
  8
0
 10
79.9213
 20
30.7975
 11
77.3914
 21
31.2168
  0
LINE
  8
0
 10
77.3914
 20
31.2168
 11
75.0468
 21
31.4766
  0
LINE
  8
0
 10
75.0468
 20
31.4766
 11
67.0783
 21
32.0247
  0
LINE
  8
0
 10
67.0783
 20
32.0247
 11
55.4775
 21
32.452
  0
LINE
  8
0
 10
55.4775
 20
32.452
 11
47.7326
 21
32.6098
  0
LINE
  8
0
 10
47.7326
 20
32.6098
 11
40.0147
 21
32.6901
  0
LINE
  8
0
 10
40.0147
 20
32.6901
 11
17.6853
 21
32.6901
  0
LINE
  8
0
 10
17.6853
 20
32.6901
 11
10.7003
 21
32.6363
  0
LINE
  8
0
 10
10.7003
 20
32.6363
 11
-22.857
 21
32.0918
  0
LINE
  8
0
 10
-22.857
 20
32.0918
 11
-47.9361
 21
31.4871
  0
LINE
  8
0
 10
-47.9361
 20
31.4871
 11
-64.7132
 21
31.0099
  0
LINE
  8
0
 10
-64.7132
 20
31.0099
 11
-75.9354
 21
30.6593
  0
LINE
  8
0
 10
-75.9354
 20
30.6593
 11
-83.4417
 21
30.41
  0
LINE
  8
0
 10
-83.4417
 20
30.41
 11
-88.4621
 21
30.2364
  0
LINE
  8
0
 10
-88.4621
 20
30.2364
 11
-90.0403
 21
30.1802
  0
LINE
  8
0
 10
-90.0403
 20
30.1802
 11
-90.0403
 21
-30.4168
  0
LINE
  8
0
 10
-90.0403
 20
-30.4168
 11
-83.6983
 21
-30.6241
  0
LINE
  8
0
 10
-83.6983
 20
-30.6241
 11
-39.2254
 21
-31.816
  0
LINE
  8
0
 10
-39.2254
 20
-31.816
 11
-15.9411
 21
-32.2736
  0
LINE
  8
0
 10
-15.9411
 20
-32.2736
 11
0.710266
 21
-32.5108
  0
LINE
  8
0
 10
0.710266
 20
-32.5108
 11
27.4361
 21
-32.6632
  0
LINE
  8
0
 10
27.4361
 20
-32.6632
 11
45.326
 21
-32.5228
  0
ENDSEC
  0
SECTION
  2
OBJECTS
  0
DICTIONARY
  0
ENDSEC
  0
EOF
