  0
SECTION
  2
BLOCKS
  0
ENDSEC
  0
SECTION
  2
ENTITIES
  0
LINE
  8
0
 10
-87.5599
 20
-0.117814
 11
-87.3515
 21
-0.212666
  0
LINE
  8
0
 10
-87.3515
 20
-0.212666
 11
-83.7809
 21
-1.85645
  0
LINE
  8
0
 10
-83.7809
 20
-1.85645
 11
-83.5032
 21
-1.9723
  0
LINE
  8
0
 10
-83.5032
 20
-1.9723
 11
-74.8856
 21
-5.65622
  0
LINE
  8
0
 10
-74.8856
 20
-5.65622
 11
-74.878
 21
-5.6592
  0
LINE
  8
0
 10
-74.878
 20
-5.6592
 11
-72.056
 21
-6.78643
  0
LINE
  8
0
 10
-72.056
 20
-6.78643
 11
-72.013
 21
-6.8028
  0
LINE
  8
0
 10
-72.013
 20
-6.8028
 11
-67.9403
 21
-8.34884
  0
LINE
  8
0
 10
-67.9403
 20
-8.34884
 11
-67.8616
 21
-12.0336
  0
LINE
  8
0
 10
-67.8616
 20
-12.0336
 11
-67.945
 21
-30.0915
  0
LINE
  8
0
 10
-67.945
 20
-30.0915
 11
-67.9427
 21
-30.0918
  0
LINE
  8
0
 10
-67.9427
 20
-30.0918
 11
-64.4747
 21
-30.5041
  0
LINE
  8
0
 10
-64.4747
 20
-30.5041
 11
-61.8854
 21
-30.61
  0
LINE
  8
0
 10
-61.8854
 20
-30.61
 11
-50.44
 21
-31.0781
  0
LINE
  8
0
 10
-50.44
 20
-31.0781
 11
-15.9414
 21
-32.0069
  0
LINE
  8
0
 10
-15.9414
 20
-32.0069
 11
18.9437
 21
-32.4402
  0
LINE
  8
0
 10
18.9437
 20
-32.4402
 11
21.0607
 21
-32.4628
  0
LINE
  8
0
 10
21.0607
 20
-32.4628
 11
21.3319
 21
-32.4643
  0
LINE
  8
0
 10
21.3319
 20
-32.4643
 11
26.3256
 21
-32.4302
  0
LINE
  8
0
 10
26.3256
 20
-32.4302
 11
46.5825
 21
-32.2747
  0
LINE
  8
0
 10
46.5825
 20
-32.2747
 11
47.8201
 21
-32.2652
  0
LINE
  8
0
 10
47.8201
 20
-32.2652
 11
59.9015
 21
-31.8587
  0
LINE
  8
0
 10
59.9015
 20
-31.8587
 11
62.9593
 21
-31.7559
  0
LINE
  8
0
 10
62.9593
 20
-31.7559
 11
68.7254
 21
-31.3509
  0
LINE
  8
0
 10
68.7254
 20
-31.3509
 11
73.8182
 21
-30.9932
  0
LINE
  8
0
 10
73.8182
 20
-30.9932
 11
74.0637
 21
-30.9641
  0
LINE
  8
0
 10
74.0637
 20
-30.9641
 11
74.524
 21
-30.9096
  0
LINE
  8
0
 10
74.524
 20
-30.9096
 11
75.9102
 21
-30.6651
  0
LINE
  8
0
 10
75.9102
 20
-30.6651
 11
76.7953
 21
-30.5089
  0
LINE
  8
0
 10
76.7953
 20
-30.5089
 11
77.3155
 21
-30.3759
  0
LINE
  8
0
 10
77.3155
 20
-30.3759
 11
77.5633
 21
-30.3125
  0
LINE
  8
0
 10
77.5633
 20
-30.3125
 11
77.9596
 21
-30.025
  0
LINE
  8
0
 10
77.9596
 20
-30.025
 11
78.1395
 21
-29.8945
  0
LINE
  8
0
 10
78.1395
 20
-29.8945
 11
78.0586
 21
30.1055
  0
LINE
  8
0
 10
78.0586
 20
30.1055
 11
77.6362
 21
30.4103
  0
LINE
  8
0
 10
77.6362
 20
30.4103
 11
77.4816
 21
30.5219
  0
LINE
  8
0
 10
77.4816
 20
30.5219
 11
76.7127
 21
30.7163
  0
LINE
  8
0
 10
76.7127
 20
30.7163
 11
74.4429
 21
31.1105
  0
LINE
  8
0
 10
74.4429
 20
31.1105
 11
73.7344
 21
31.1925
  0
LINE
  8
0
 10
73.7344
 20
31.1925
 11
71.568
 21
31.3388
  0
LINE
  8
0
 10
71.568
 20
31.3388
 11
62.8734
 21
31.9259
  0
LINE
  8
0
 10
62.8734
 20
31.9259
 11
48.9339
 21
32.3573
  0
LINE
  8
0
 10
48.9339
 20
32.3573
 11
47.7328
 21
32.3945
  0
LINE
  8
0
 10
47.7328
 20
32.3945
 11
26.5804
 21
32.4999
  0
LINE
  8
0
 10
26.5804
 20
32.4999
 11
21.3576
 21
32.5217
  0
LINE
  8
0
 10
21.3576
 20
32.5217
 11
21.1817
 21
32.5217
  0
LINE
  8
0
 10
21.1817
 20
32.5217
 11
21.0682
 21
32.5209
  0
LINE
  8
0
 10
21.0682
 20
32.5209
 11
18.699
 21
32.4893
  0
LINE
  8
0
 10
18.699
 20
32.4893
 11
-10.573
 21
32.0467
  0
LINE
  8
0
 10
-10.573
 20
32.0467
 11
-16.0278
 21
31.9642
  0
LINE
  8
0
 10
-16.0278
 20
31.9642
 11
-41.1768
 21
31.2192
  0
LINE
  8
0
 10
-41.1768
 20
31.2192
 11
-50.5347
 21
30.9419
  0
LINE
  8
0
 10
-50.5347
 20
30.9419
 11
-56.8153
 21
30.668
  0
LINE
  8
0
 10
-56.8153
 20
30.668
 11
-64.5586
 21
30.3303
  0
LINE
  8
0
 10
-64.5586
 20
30.3303
 11
-65.0109
 21
30.2753
  0
LINE
  8
0
 10
-65.0109
 20
30.2753
 11
-68.0236
 21
29.9088
  0
LINE
  8
0
 10
-68.0236
 20
29.9088
 11
-68.0256
 21
29.9085
  0
LINE
  8
0
 10
-68.0256
 20
29.9085
 11
-68.0259
 21
29.9085
  0
LINE
  8
0
 10
-68.0259
 20
29.9085
 11
-67.9904
 21
8.42353
  0
LINE
  8
0
 10
-67.9904
 20
8.42353
 11
-67.9958
 21
8.17224
  0
LINE
  8
0
 10
-67.9958
 20
8.17224
 11
-69.0956
 21
7.75327
  0
LINE
  8
0
 10
-69.0956
 20
7.75327
 11
-71.1488
 21
6.9571
  0
LINE
  8
0
 10
-71.1488
 20
6.9571
 11
-71.1576
 21
6.95361
  0
LINE
  8
0
 10
-71.1576
 20
6.95361
 11
-78.4611
 21
3.96758
  0
LINE
  8
0
 10
-78.4611
 20
3.96758
 11
-78.6449
 21
3.8903
  0
LINE
  8
0
 10
-78.6449
 20
3.8903
 11
-78.756
 21
3.83937
  0
LINE
  8
0
 10
-78.756
 20
3.83937
 11
-87.5599
 21
-0.117814
  0
ENDSEC
  0
SECTION
  2
OBJECTS
  0
DICTIONARY
  0
ENDSEC
  0
EOF
