  0
SECTION
  2
BLOCKS
  0
ENDSEC
  0
SECTION
  2
ENTITIES
  0
LINE
  8
0
 10
-87.5599
 20
-0.117787
 11
-87.0132
 21
-0.36661
  0
LINE
  8
0
 10
-87.0132
 20
-0.36661
 11
-83.6658
 21
-1.90768
  0
LINE
  8
0
 10
-83.6658
 20
-1.90768
 11
-82.8245
 21
-2.25872
  0
LINE
  8
0
 10
-82.8245
 20
-2.25872
 11
-74.7455
 21
-5.71238
  0
LINE
  8
0
 10
-74.7455
 20
-5.71238
 11
-74.7017
 21
-5.72966
  0
LINE
  8
0
 10
-74.7017
 20
-5.72966
 11
-72.056
 21
-6.78643
  0
LINE
  8
0
 10
-72.056
 20
-6.78643
 11
-71.6603
 21
-6.93719
  0
LINE
  8
0
 10
-71.6603
 20
-6.93719
 11
-65.7323
 21
-9.18755
  0
LINE
  8
0
 10
-65.7323
 20
-9.18755
 11
-65.1426
 21
-9.39384
  0
LINE
  8
0
 10
-65.1426
 20
-9.39384
 11
-56.1938
 21
-12.5109
  0
LINE
  8
0
 10
-56.1938
 20
-12.5109
 11
-56.1195
 21
-12.5352
  0
LINE
  8
0
 10
-56.1195
 20
-12.5352
 11
-54.5616
 21
-13.046
  0
LINE
  8
0
 10
-54.5616
 20
-13.046
 11
-54.2192
 21
-13.1523
  0
LINE
  8
0
 10
-54.2192
 20
-13.1523
 11
-46.2232
 21
-15.6375
  0
LINE
  8
0
 10
-46.2232
 20
-15.6375
 11
-46.104
 21
-15.672
  0
LINE
  8
0
 10
-46.104
 20
-15.672
 11
-35.2825
 21
-18.6962
  0
LINE
  8
0
 10
-35.2825
 20
-18.6962
 11
-35.2069
 21
-18.7166
  0
LINE
  8
0
 10
-35.2069
 20
-18.7166
 11
-33.5274
 21
-19.1532
  0
LINE
  8
0
 10
-33.5274
 20
-19.1532
 11
-33.5039
 21
-19.1591
  0
LINE
  8
0
 10
-33.5039
 20
-19.1591
 11
-28.5748
 21
-20.3588
  0
LINE
  8
0
 10
-28.5748
 20
-20.3588
 11
-27.9088
 21
-22.2295
  0
LINE
  8
0
 10
-27.9088
 20
-22.2295
 11
-26.3989
 21
-30.0355
  0
LINE
  8
0
 10
-26.3989
 20
-30.0355
 11
-19.7111
 21
-30.8306
  0
LINE
  8
0
 10
-19.7111
 20
-30.8306
 11
-19.4596
 21
-30.8605
  0
LINE
  8
0
 10
-19.4596
 20
-30.8605
 11
-15.9428
 21
-31.0043
  0
LINE
  8
0
 10
-15.9428
 20
-31.0043
 11
-0.390378
 21
-31.3033
  0
LINE
  8
0
 10
-0.390378
 20
-31.3033
 11
21.2683
 21
-31.7197
  0
LINE
  8
0
 10
21.2683
 20
-31.7197
 11
39.7591
 21
-31.5198
  0
LINE
  8
0
 10
39.7591
 20
-31.5198
 11
47.8189
 21
-31.4327
  0
LINE
  8
0
 10
47.8189
 20
-31.4327
 11
54.0199
 21
-31.1251
  0
LINE
  8
0
 10
54.0199
 20
-31.1251
 11
61.5553
 21
-30.7512
  0
LINE
  8
0
 10
61.5553
 20
-30.7512
 11
62.3968
 21
-30.6555
  0
LINE
  8
0
 10
62.3968
 20
-30.6555
 11
62.9577
 21
-30.5567
  0
LINE
  8
0
 10
62.9577
 20
-30.5567
 11
64.8125
 21
-30.0106
  0
LINE
  8
0
 10
64.8125
 20
-30.0106
 11
65.1474
 21
-29.912
  0
LINE
  8
0
 10
65.1474
 20
-29.912
 11
64.6885
 21
-12.7903
  0
LINE
  8
0
 10
64.6885
 20
-12.7903
 11
64.5388
 21
-12.0253
  0
LINE
  8
0
 10
64.5388
 20
-12.0253
 11
64.6092
 21
-11.3134
  0
LINE
  8
0
 10
64.6092
 20
-11.3134
 11
64.7707
 21
-9.2735
  0
LINE
  8
0
 10
64.7707
 20
-9.2735
 11
64.8282
 21
-8.26716
  0
LINE
  8
0
 10
64.8282
 20
-8.26716
 11
64.8779
 21
-6.98208
  0
LINE
  8
0
 10
64.8779
 20
-6.98208
 11
64.8928
 21
-6.10902
  0
LINE
  8
0
 10
64.8928
 20
-6.10902
 11
64.8511
 21
-4.41658
  0
LINE
  8
0
 10
64.8511
 20
-4.41658
 11
64.8346
 21
7.81549
  0
LINE
  8
0
 10
64.8346
 20
7.81549
 11
64.8035
 21
8.46997
  0
LINE
  8
0
 10
64.8035
 20
8.46997
 11
64.7902
 21
8.71017
  0
LINE
  8
0
 10
64.7902
 20
8.71017
 11
64.6253
 21
10.9642
  0
LINE
  8
0
 10
64.6253
 20
10.9642
 11
64.3847
 21
13.2417
  0
LINE
  8
0
 10
64.3847
 20
13.2417
 11
64.3501
 21
13.5175
  0
LINE
  8
0
 10
64.3501
 20
13.5175
 11
64.5155
 21
14.2775
  0
LINE
  8
0
 10
64.5155
 20
14.2775
 11
64.3948
 21
15.272
  0
LINE
  8
0
 10
64.3948
 20
15.272
 11
65.0665
 21
30.0879
  0
LINE
  8
0
 10
65.0665
 20
30.0879
 11
62.875
 21
30.7268
  0
LINE
  8
0
 10
62.875
 20
30.7268
 11
62.3151
 21
30.824
  0
LINE
  8
0
 10
62.3151
 20
30.824
 11
61.4753
 21
30.9172
  0
LINE
  8
0
 10
61.4753
 20
30.9172
 11
47.734
 21
31.5619
  0
LINE
  8
0
 10
47.734
 20
31.5619
 11
27.4817
 21
31.7263
  0
LINE
  8
0
 10
27.4817
 20
31.7263
 11
21.1826
 21
31.7774
  0
LINE
  8
0
 10
21.1826
 20
31.7774
 11
1.22126
 21
31.3397
  0
LINE
  8
0
 10
1.22126
 20
31.3397
 11
-16.0264
 21
30.9615
  0
LINE
  8
0
 10
-16.0264
 20
30.9615
 11
-18.9845
 21
30.8324
  0
LINE
  8
0
 10
-18.9845
 20
30.8324
 11
-19.5461
 21
30.8079
  0
LINE
  8
0
 10
-19.5461
 20
30.8079
 11
-25.8735
 21
30.0382
  0
LINE
  8
0
 10
-25.8735
 20
30.0382
 11
-26.4798
 21
29.9645
  0
LINE
  8
0
 10
-26.4798
 20
29.9645
 11
-28.6367
 21
21.0484
  0
LINE
  8
0
 10
-28.6367
 20
21.0484
 11
-28.6648
 21
20.284
  0
LINE
  8
0
 10
-28.6648
 20
20.284
 11
-30.2345
 21
19.917
  0
LINE
  8
0
 10
-30.2345
 20
19.917
 11
-30.2434
 21
19.9147
  0
LINE
  8
0
 10
-30.2434
 20
19.9147
 11
-34.4492
 21
18.8353
  0
LINE
  8
0
 10
-34.4492
 20
18.8353
 11
-35.1921
 21
18.6392
  0
LINE
  8
0
 10
-35.1921
 20
18.6392
 11
-35.2585
 21
18.621
  0
LINE
  8
0
 10
-35.2585
 20
18.621
 11
-46.3043
 21
15.5004
  0
LINE
  8
0
 10
-46.3043
 20
15.5004
 11
-46.4245
 21
15.4653
  0
LINE
  8
0
 10
-46.4245
 20
15.4653
 11
-46.6283
 21
15.4018
  0
LINE
  8
0
 10
-46.6283
 20
15.4018
 11
-53.6543
 21
13.2067
  0
LINE
  8
0
 10
-53.6543
 20
13.2067
 11
-53.7573
 21
13.1728
  0
LINE
  8
0
 10
-53.7573
 20
13.1728
 11
-57.2978
 21
12.0002
  0
LINE
  8
0
 10
-57.2978
 20
12.0002
 11
-57.7448
 21
11.8425
  0
LINE
  8
0
 10
-57.7448
 20
11.8425
 11
-67.7703
 21
8.25765
  0
LINE
  8
0
 10
-67.7703
 20
8.25765
 11
-68.0664
 21
8.14449
  0
LINE
  8
0
 10
-68.0664
 20
8.14449
 11
-69.224
 21
7.70351
  0
LINE
  8
0
 10
-69.224
 20
7.70351
 11
-71.1488
 21
6.9571
  0
LINE
  8
0
 10
-71.1488
 20
6.9571
 11
-71.2516
 21
6.91646
  0
LINE
  8
0
 10
-71.2516
 20
6.91646
 11
-78.0985
 21
4.11706
  0
LINE
  8
0
 10
-78.0985
 20
4.11706
 11
-78.8512
 21
3.80062
  0
LINE
  8
0
 10
-78.8512
 20
3.80062
 11
-79.3062
 21
3.59204
  0
LINE
  8
0
 10
-79.3062
 20
3.59204
 11
-87.5599
 21
-0.117787
  0
ENDSEC
  0
SECTION
  2
OBJECTS
  0
DICTIONARY
  0
ENDSEC
  0
EOF
