  0
SECTION
  2
BLOCKS
  0
ENDSEC
  0
SECTION
  2
ENTITIES
  0
LINE
  8
0
 10
21.444
 20
-28.3502
 11
21.6904
 21
-28.3454
  0
LINE
  8
0
 10
21.6904
 20
-28.3454
 11
22.2488
 21
-28.3318
  0
LINE
  8
0
 10
22.2488
 20
-28.3318
 11
22.29
 21
-28.3306
  0
LINE
  8
0
 10
22.29
 20
-28.3306
 11
23.7888
 21
-28.2481
  0
LINE
  8
0
 10
23.7888
 20
-28.2481
 11
23.9975
 21
-28.2355
  0
LINE
  8
0
 10
23.9975
 20
-28.2355
 11
26.1775
 21
-28.0774
  0
LINE
  8
0
 10
26.1775
 20
-28.0774
 11
26.3583
 21
-28.0608
  0
LINE
  8
0
 10
26.3583
 20
-28.0608
 11
26.4224
 21
-28.0541
  0
LINE
  8
0
 10
26.4224
 20
-28.0541
 11
27.5595
 21
-27.9009
  0
LINE
  8
0
 10
27.5595
 20
-27.9009
 11
28.7666
 21
-27.7498
  0
LINE
  8
0
 10
28.7666
 20
-27.7498
 11
29.5192
 21
-27.6211
  0
LINE
  8
0
 10
29.5192
 20
-27.6211
 11
30.0932
 21
-27.5225
  0
LINE
  8
0
 10
30.0932
 20
-27.5225
 11
30.0982
 21
-27.5215
  0
LINE
  8
0
 10
30.0982
 20
-27.5215
 11
32.2586
 21
-27.0104
  0
LINE
  8
0
 10
32.2586
 20
-27.0104
 11
34.276
 21
-26.5323
  0
LINE
  8
0
 10
34.276
 20
-26.5323
 11
34.2786
 21
-26.5316
  0
LINE
  8
0
 10
34.2786
 20
-26.5316
 11
35.5595
 21
-26.1315
  0
LINE
  8
0
 10
35.5595
 20
-26.1315
 11
36.5221
 21
-25.8313
  0
LINE
  8
0
 10
36.5221
 20
-25.8313
 11
37.5171
 21
-25.472
  0
LINE
  8
0
 10
37.5171
 20
-25.472
 11
38.4197
 21
-25.1471
  0
LINE
  8
0
 10
38.4197
 20
-25.1471
 11
38.4265
 21
-25.1445
  0
LINE
  8
0
 10
38.4265
 20
-25.1445
 11
40.5332
 21
-24.2307
  0
LINE
  8
0
 10
40.5332
 20
-24.2307
 11
41.952
 21
-23.6386
  0
LINE
  8
0
 10
41.952
 20
-23.6386
 11
42.0381
 21
-23.5982
  0
LINE
  8
0
 10
42.0381
 20
-23.5982
 11
42.7016
 21
-23.2664
  0
LINE
  8
0
 10
42.7016
 20
-23.2664
 11
43.694
 21
-22.7861
  0
LINE
  8
0
 10
43.694
 20
-22.7861
 11
44.7053
 21
-22.2372
  0
LINE
  8
0
 10
44.7053
 20
-22.2372
 11
45.4863
 21
-21.8173
  0
LINE
  8
0
 10
45.4863
 20
-21.8173
 11
45.5115
 21
-21.8031
  0
LINE
  8
0
 10
45.5115
 20
-21.8031
 11
47.4652
 21
-20.5842
  0
LINE
  8
0
 10
47.4652
 20
-20.5842
 11
49.0259
 21
-19.6183
  0
LINE
  8
0
 10
49.0259
 20
-19.6183
 11
49.0288
 21
-19.6163
  0
LINE
  8
0
 10
49.0288
 20
-19.6163
 11
49.6358
 21
-19.1897
  0
LINE
  8
0
 10
49.6358
 20
-19.1897
 11
50.1841
 21
-18.8039
  0
LINE
  8
0
 10
50.1841
 20
-18.8039
 11
51.3064
 21
-17.943
  0
LINE
  8
0
 10
51.3064
 20
-17.943
 11
52.2664
 21
-17.1975
  0
LINE
  8
0
 10
52.2664
 20
-17.1975
 11
52.2944
 21
-17.1745
  0
LINE
  8
0
 10
52.2944
 20
-17.1745
 11
53.7553
 21
-15.8748
  0
LINE
  8
0
 10
53.7553
 20
-15.8748
 11
54.8989
 21
-14.8455
  0
LINE
  8
0
 10
54.8989
 20
-14.8455
 11
55.1169
 21
-14.6291
  0
LINE
  8
0
 10
55.1169
 20
-14.6291
 11
55.2805
 21
-14.4668
  0
LINE
  8
0
 10
55.2805
 20
-14.4668
 11
55.8193
 21
-13.9037
  0
LINE
  8
0
 10
55.8193
 20
-13.9037
 11
56.6675
 21
-12.9699
  0
LINE
  8
0
 10
56.6675
 20
-12.9699
 11
56.7463
 21
-12.8796
  0
LINE
  8
0
 10
56.7463
 20
-12.8796
 11
57.8036
 21
-11.6124
  0
LINE
  8
0
 10
57.8036
 20
-11.6124
 11
57.8625
 21
-11.5376
  0
LINE
  8
0
 10
57.8625
 20
-11.5376
 11
58.435
 21
-10.7235
  0
LINE
  8
0
 10
58.435
 20
-10.7235
 11
59.1843
 21
-9.71173
  0
LINE
  8
0
 10
59.1843
 20
-9.71173
 11
59.2753
 21
-9.57109
  0
LINE
  8
0
 10
59.2753
 20
-9.57109
 11
59.6622
 21
-8.94431
  0
LINE
  8
0
 10
59.6622
 20
-8.94431
 11
59.8861
 21
-8.57843
  0
LINE
  8
0
 10
59.8861
 20
-8.57843
 11
59.8911
 21
-8.56981
  0
LINE
  8
0
 10
59.8911
 20
-8.56981
 11
60.0174
 21
-8.34657
  0
LINE
  8
0
 10
60.0174
 20
-8.34657
 11
60.6406
 21
-7.04095
  0
LINE
  8
0
 10
60.6406
 20
-7.04095
 11
61.1846
 21
-5.95953
  0
LINE
  8
0
 10
61.1846
 20
-5.95953
 11
61.1925
 21
-5.94048
  0
LINE
  8
0
 10
61.1925
 20
-5.94048
 11
61.2773
 21
-5.72261
  0
LINE
  8
0
 10
61.2773
 20
-5.72261
 11
61.3821
 21
-5.45976
  0
LINE
  8
0
 10
61.3821
 20
-5.45976
 11
61.7158
 21
-4.38268
  0
LINE
  8
0
 10
61.7158
 20
-4.38268
 11
61.9979
 21
-3.48647
  0
LINE
  8
0
 10
61.9979
 20
-3.48647
 11
62.0003
 21
-3.47662
  0
LINE
  8
0
 10
62.0003
 20
-3.47662
 11
62.1027
 21
-2.9998
  0
LINE
  8
0
 10
62.1027
 20
-2.9998
 11
62.1894
 21
-2.60297
  0
LINE
  8
0
 10
62.1894
 20
-2.60297
 11
62.1898
 21
-2.60065
  0
LINE
  8
0
 10
62.1898
 20
-2.60065
 11
62.2916
 21
-1.87502
  0
LINE
  8
0
 10
62.2916
 20
-1.87502
 11
62.3795
 21
-1.24361
  0
LINE
  8
0
 10
62.3795
 20
-1.24361
 11
62.4133
 21
-0.657654
  0
LINE
  8
0
 10
62.4133
 20
-0.657654
 11
62.4365
 21
-0.253784
  0
LINE
  8
0
 10
62.4365
 20
-0.253784
 11
62.4365
 21
-0.252686
  0
LINE
  8
0
 10
62.4365
 20
-0.252686
 11
62.3628
 21
0.972107
  0
LINE
  8
0
 10
62.3628
 20
0.972107
 11
62.3534
 21
1.12698
  0
LINE
  8
0
 10
62.3534
 20
1.12698
 11
62.2938
 21
2.07741
  0
LINE
  8
0
 10
62.2938
 20
2.07741
 11
62.2715
 21
2.22522
  0
LINE
  8
0
 10
62.2715
 20
2.22522
 11
62.2692
 21
2.24007
  0
LINE
  8
0
 10
62.2692
 20
2.24007
 11
62.224
 21
2.50862
  0
LINE
  8
0
 10
62.224
 20
2.50862
 11
62.2188
 21
2.53854
  0
LINE
  8
0
 10
62.2188
 20
2.53854
 11
62.1525
 21
2.89888
  0
LINE
  8
0
 10
62.1525
 20
2.89888
 11
62.1301
 21
3.01105
  0
LINE
  8
0
 10
62.1301
 20
3.01105
 11
61.8458
 21
4.07402
  0
LINE
  8
0
 10
61.8458
 20
4.07402
 11
61.6057
 21
4.93474
  0
LINE
  8
0
 10
61.6057
 20
4.93474
 11
61.5978
 21
4.95798
  0
LINE
  8
0
 10
61.5978
 20
4.95798
 11
61.0788
 21
6.23329
  0
LINE
  8
0
 10
61.0788
 20
6.23329
 11
60.6692
 21
7.21257
  0
LINE
  8
0
 10
60.6692
 20
7.21257
 11
60.6636
 21
7.22415
  0
LINE
  8
0
 10
60.6636
 20
7.22415
 11
60.6054
 21
7.3419
  0
LINE
  8
0
 10
60.6054
 20
7.3419
 11
60.4559
 21
7.63724
  0
LINE
  8
0
 10
60.4559
 20
7.63724
 11
60.4444
 21
7.65952
  0
LINE
  8
0
 10
60.4444
 20
7.65952
 11
60.2453
 21
8.03282
  0
LINE
  8
0
 10
60.2453
 20
8.03282
 11
60.2236
 21
8.07278
  0
LINE
  8
0
 10
60.2236
 20
8.07278
 11
59.3512
 21
9.49374
  0
LINE
  8
0
 10
59.3512
 20
9.49374
 11
59.2606
 21
9.63681
  0
LINE
  8
0
 10
59.2606
 20
9.63681
 11
58.602
 21
10.6552
  0
LINE
  8
0
 10
58.602
 20
10.6552
 11
58.5829
 21
10.6819
  0
LINE
  8
0
 10
58.5829
 20
10.6819
 11
58.1371
 21
11.2818
  0
LINE
  8
0
 10
58.1371
 20
11.2818
 11
57.8663
 21
11.6395
  0
LINE
  8
0
 10
57.8663
 20
11.6395
 11
57.1382
 21
12.5121
  0
LINE
  8
0
 10
57.1382
 20
12.5121
 11
56.5736
 21
13.1838
  0
LINE
  8
0
 10
56.5736
 20
13.1838
 11
56.5633
 21
13.1953
  0
LINE
  8
0
 10
56.5633
 20
13.1953
 11
55.7704
 21
14.0331
  0
LINE
  8
0
 10
55.7704
 20
14.0331
 11
55.1996
 21
14.6362
  0
LINE
  8
0
 10
55.1996
 20
14.6362
 11
55.1878
 21
14.648
  0
LINE
  8
0
 10
55.1878
 20
14.648
 11
54.0404
 21
15.7106
  0
LINE
  8
0
 10
54.0404
 20
15.7106
 11
53.1711
 21
16.5209
  0
LINE
  8
0
 10
53.1711
 20
16.5209
 11
52.8685
 21
16.7776
  0
LINE
  8
0
 10
52.8685
 20
16.7776
 11
52.2945
 21
17.2576
  0
LINE
  8
0
 10
52.2945
 20
17.2576
 11
52.2617
 21
17.2845
  0
LINE
  8
0
 10
52.2617
 20
17.2845
 11
51.0042
 21
18.2421
  0
LINE
  8
0
 10
51.0042
 20
18.2421
 11
50.8273
 21
18.3748
  0
LINE
  8
0
 10
50.8273
 20
18.3748
 11
49.0613
 21
19.6701
  0
LINE
  8
0
 10
49.0613
 20
19.6701
 11
49.0022
 21
19.7103
  0
LINE
  8
0
 10
49.0022
 20
19.7103
 11
47.8999
 21
20.4096
  0
LINE
  8
0
 10
47.8999
 20
20.4096
 11
46.7664
 21
21.1456
  0
LINE
  8
0
 10
46.7664
 20
21.1456
 11
46.4887
 21
21.3108
  0
LINE
  8
0
 10
46.4887
 20
21.3108
 11
45.5312
 21
21.8618
  0
LINE
  8
0
 10
45.5312
 20
21.8618
 11
45.442
 21
21.9124
  0
LINE
  8
0
 10
45.442
 20
21.9124
 11
44.1351
 21
22.619
  0
LINE
  8
0
 10
44.1351
 20
22.619
 11
43.1691
 21
23.1263
  0
LINE
  8
0
 10
43.1691
 20
23.1263
 11
43.1556
 21
23.133
  0
LINE
  8
0
 10
43.1556
 20
23.133
 11
41.2131
 21
24.0154
  0
LINE
  8
0
 10
41.2131
 20
24.0154
 11
39.4669
 21
24.8042
  0
LINE
  8
0
 10
39.4669
 20
24.8042
 11
39.4064
 21
24.8288
  0
LINE
  8
0
 10
39.4064
 20
24.8288
 11
39.2049
 21
24.9097
  0
LINE
  8
0
 10
39.2049
 20
24.9097
 11
39.1786
 21
24.9202
  0
LINE
  8
0
 10
39.1786
 20
24.9202
 11
37.1546
 21
25.6452
  0
LINE
  8
0
 10
37.1546
 20
25.6452
 11
36.9055
 21
25.7334
  0
LINE
  8
0
 10
36.9055
 20
25.7334
 11
35.1558
 21
26.3399
  0
LINE
  8
0
 10
35.1558
 20
26.3399
 11
35.1134
 21
26.3528
  0
LINE
  8
0
 10
35.1134
 20
26.3528
 11
33.385
 21
26.824
  0
LINE
  8
0
 10
33.385
 20
26.824
 11
32.0292
 21
27.1841
  0
LINE
  8
0
 10
32.0292
 20
27.1841
 11
31.6612
 21
27.2671
  0
LINE
  8
0
 10
31.6612
 20
27.2671
 11
31.0507
 21
27.3987
  0
LINE
  8
0
 10
31.0507
 20
27.3987
 11
30.9932
 21
27.4107
  0
LINE
  8
0
 10
30.9932
 20
27.4107
 11
29.5879
 21
27.6707
  0
LINE
  8
0
 10
29.5879
 20
27.6707
 11
29.4529
 21
27.6944
  0
LINE
  8
0
 10
29.4529
 20
27.6944
 11
27.7945
 21
27.9473
  0
LINE
  8
0
 10
27.7945
 20
27.9473
 11
27.653
 21
27.9658
  0
LINE
  8
0
 10
27.653
 20
27.9658
 11
25.7803
 21
28.1789
  0
LINE
  8
0
 10
25.7803
 20
28.1789
 11
25.2057
 21
28.235
  0
LINE
  8
0
 10
25.2057
 20
28.235
 11
24.975
 21
28.2537
  0
LINE
  8
0
 10
24.975
 20
28.2537
 11
24.6245
 21
28.2786
  0
LINE
  8
0
 10
24.6245
 20
28.2786
 11
23.542
 21
28.3358
  0
LINE
  8
0
 10
23.542
 20
28.3358
 11
23.4038
 21
28.3423
  0
LINE
  8
0
 10
23.4038
 20
28.3423
 11
20.8305
 21
28.397
  0
LINE
  8
0
 10
20.8305
 20
28.397
 11
20.6166
 21
28.3979
  0
LINE
  8
0
 10
20.6166
 20
28.3979
 11
18.7937
 21
28.3878
  0
LINE
  8
0
 10
18.7937
 20
28.3878
 11
18.7037
 21
28.3851
  0
LINE
  8
0
 10
18.7037
 20
28.3851
 11
17.8285
 21
28.3567
  0
LINE
  8
0
 10
17.8285
 20
28.3567
 11
17.6219
 21
28.3481
  0
LINE
  8
0
 10
17.6219
 20
28.3481
 11
15.4444
 21
28.1968
  0
LINE
  8
0
 10
15.4444
 20
28.1968
 11
13.7475
 21
28.0757
  0
LINE
  8
0
 10
13.7475
 20
28.0757
 11
13.7261
 21
28.0737
  0
LINE
  8
0
 10
13.7261
 20
28.0737
 11
11.2035
 21
27.7788
  0
LINE
  8
0
 10
11.2035
 20
27.7788
 11
8.95287
 21
27.5123
  0
LINE
  8
0
 10
8.95287
 20
27.5123
 11
6.47835
 21
27.155
  0
LINE
  8
0
 10
6.47835
 20
27.155
 11
0.543762
 21
26.2417
  0
LINE
  8
0
 10
0.543762
 20
26.2417
 11
0.100632
 21
26.1702
  0
LINE
  8
0
 10
0.100632
 20
26.1702
 11
-4.58398
 21
25.3806
  0
LINE
  8
0
 10
-4.58398
 20
25.3806
 11
-4.92171
 21
25.3206
  0
LINE
  8
0
 10
-4.92171
 20
25.3206
 11
-10.9249
 21
24.1961
  0
LINE
  8
0
 10
-10.9249
 20
24.1961
 11
-14.0866
 21
23.5816
  0
LINE
  8
0
 10
-14.0866
 20
23.5816
 11
-14.1522
 21
23.5682
  0
LINE
  8
0
 10
-14.1522
 20
23.5682
 11
-18.8046
 21
22.5884
  0
LINE
  8
0
 10
-18.8046
 20
22.5884
 11
-18.811
 21
22.587
  0
LINE
  8
0
 10
-18.811
 20
22.587
 11
-24.8509
 21
21.1758
  0
LINE
  8
0
 10
-24.8509
 20
21.1758
 11
-30.2296
 21
19.9182
  0
LINE
  8
0
 10
-30.2296
 20
19.9182
 11
-34.4492
 21
18.8353
  0
LINE
  8
0
 10
-34.4492
 20
18.8353
 11
-34.7958
 21
18.7438
  0
LINE
  8
0
 10
-34.7958
 20
18.7438
 11
-38.6008
 21
17.7022
  0
LINE
  8
0
 10
-38.6008
 20
17.7022
 11
-39.0186
 21
17.5874
  0
LINE
  8
0
 10
-39.0186
 20
17.5874
 11
-43.4367
 21
16.3392
  0
LINE
  8
0
 10
-43.4367
 20
16.3392
 11
-46.185
 21
15.5371
  0
LINE
  8
0
 10
-46.185
 20
15.5371
 11
-46.2116
 21
15.5291
  0
LINE
  8
0
 10
-46.2116
 20
15.5291
 11
-50.3757
 21
14.231
  0
LINE
  8
0
 10
-50.3757
 20
14.231
 11
-53.6543
 21
13.2067
  0
LINE
  8
0
 10
-53.6543
 20
13.2067
 11
-55.3062
 21
12.6626
  0
LINE
  8
0
 10
-55.3062
 20
12.6626
 11
-56.7223
 21
12.1936
  0
LINE
  8
0
 10
-56.7223
 20
12.1936
 11
-56.7862
 21
12.1721
  0
LINE
  8
0
 10
-56.7862
 20
12.1721
 11
-62.3577
 21
10.2061
  0
LINE
  8
0
 10
-62.3577
 20
10.2061
 11
-62.9343
 21
10.0015
  0
LINE
  8
0
 10
-62.9343
 20
10.0015
 11
-66.9443
 21
8.56766
  0
LINE
  8
0
 10
-66.9443
 20
8.56766
 11
-67.0361
 21
8.5332
  0
LINE
  8
0
 10
-67.0361
 20
8.5332
 11
-69.7104
 21
7.51118
  0
LINE
  8
0
 10
-69.7104
 20
7.51118
 11
-70.2506
 21
7.3054
  0
LINE
  8
0
 10
-70.2506
 20
7.3054
 11
-71.1488
 21
6.95709
  0
LINE
  8
0
 10
-71.1488
 20
6.95709
 11
-72.097
 21
6.58212
  0
LINE
  8
0
 10
-72.097
 20
6.58212
 11
-74.8356
 21
5.46243
  0
LINE
  8
0
 10
-74.8356
 20
5.46243
 11
-75.1982
 21
5.31294
  0
LINE
  8
0
 10
-75.1982
 20
5.31294
 11
-80.5018
 21
3.08316
  0
LINE
  8
0
 10
-80.5018
 20
3.08316
 11
-80.7081
 21
2.99347
  0
LINE
  8
0
 10
-80.7081
 20
2.99347
 11
-84.2586
 21
1.36603
  0
LINE
  8
0
 10
-84.2586
 20
1.36603
 11
-87.5599
 21
-0.117813
  0
LINE
  8
0
 10
-87.5599
 20
-0.117813
 11
-84.3069
 21
-1.59837
  0
LINE
  8
0
 10
-84.3069
 20
-1.59837
 11
-82.7448
 21
-2.31749
  0
LINE
  8
0
 10
-82.7448
 20
-2.31749
 11
-82.6297
 21
-2.36871
  0
LINE
  8
0
 10
-82.6297
 20
-2.36871
 11
-77.0835
 21
-4.68289
  0
LINE
  8
0
 10
-77.0835
 20
-4.68289
 11
-73.6242
 21
-6.1617
  0
LINE
  8
0
 10
-73.6242
 20
-6.1617
 11
-73.484
 21
-6.21786
  0
LINE
  8
0
 10
-73.484
 20
-6.21786
 11
-73.1142
 21
-6.36374
  0
LINE
  8
0
 10
-73.1142
 20
-6.36374
 11
-72.056
 21
-6.78642
  0
LINE
  8
0
 10
-72.056
 20
-6.78642
 11
-68.4859
 21
-8.1467
  0
LINE
  8
0
 10
-68.4859
 20
-8.1467
 11
-66.1148
 21
-9.04678
  0
LINE
  8
0
 10
-66.1148
 20
-9.04678
 11
-66.0723
 21
-9.06242
  0
LINE
  8
0
 10
-66.0723
 20
-9.06242
 11
-60.4291
 21
-11.0367
  0
LINE
  8
0
 10
-60.4291
 20
-11.0367
 11
-59.8399
 21
-11.242
  0
LINE
  8
0
 10
-59.8399
 20
-11.242
 11
-56.2606
 21
-12.4887
  0
LINE
  8
0
 10
-56.2606
 20
-12.4887
 11
-55.2885
 21
-12.8076
  0
LINE
  8
0
 10
-55.2885
 20
-12.8076
 11
-54.5615
 21
-13.046
  0
LINE
  8
0
 10
-54.5615
 20
-13.046
 11
-49.8264
 21
-14.5158
  0
LINE
  8
0
 10
-49.8264
 20
-14.5158
 11
-46.0951
 21
-15.6755
  0
LINE
  8
0
 10
-46.0951
 20
-15.6755
 11
-46.0791
 21
-15.6803
  0
LINE
  8
0
 10
-46.0791
 20
-15.6803
 11
-43.3291
 21
-16.4748
  0
LINE
  8
0
 10
-43.3291
 20
-16.4748
 11
-39.0008
 21
-17.6844
  0
LINE
  8
0
 10
-39.0008
 20
-17.6844
 11
-38.5876
 21
-17.7969
  0
LINE
  8
0
 10
-38.5876
 20
-17.7969
 11
-34.3111
 21
-18.9494
  0
LINE
  8
0
 10
-34.3111
 20
-18.9494
 11
-33.5274
 21
-19.1532
  0
LINE
  8
0
 10
-33.5274
 20
-19.1532
 11
-31.5045
 21
-19.664
  0
LINE
  8
0
 10
-31.5045
 20
-19.664
 11
-27.6967
 21
-20.5907
  0
LINE
  8
0
 10
-27.6967
 20
-20.5907
 11
-27.2842
 21
-20.6891
  0
LINE
  8
0
 10
-27.2842
 20
-20.6891
 11
-21.2034
 21
-22.0925
  0
LINE
  8
0
 10
-21.2034
 20
-22.0925
 11
-20.8465
 21
-22.1717
  0
LINE
  8
0
 10
-20.8465
 20
-22.1717
 11
-18.1154
 21
-22.7392
  0
LINE
  8
0
 10
-18.1154
 20
-22.7392
 11
-14.1268
 21
-23.5982
  0
LINE
  8
0
 10
-14.1268
 20
-23.5982
 11
-12.0175
 21
-24.0164
  0
LINE
  8
0
 10
-12.0175
 20
-24.0164
 11
-2.48697
 21
-25.7477
  0
LINE
  8
0
 10
-2.48697
 20
-25.7477
 11
9.02704
 21
-27.4877
  0
LINE
  8
0
 10
9.02704
 20
-27.4877
 11
9.93517
 21
-27.6036
  0
LINE
  8
0
 10
9.93517
 20
-27.6036
 11
12.3065
 21
-27.8773
  0
LINE
  8
0
 10
12.3065
 20
-27.8773
 11
12.4982
 21
-27.8978
  0
LINE
  8
0
 10
12.4982
 20
-27.8978
 11
14.918
 21
-28.1161
  0
LINE
  8
0
 10
14.918
 20
-28.1161
 11
15.1297
 21
-28.1319
  0
LINE
  8
0
 10
15.1297
 20
-28.1319
 11
17.4353
 21
-28.2823
  0
LINE
  8
0
 10
17.4353
 20
-28.2823
 11
17.538
 21
-28.287
  0
LINE
  8
0
 10
17.538
 20
-28.287
 11
19.5332
 21
-28.3298
  0
LINE
  8
0
 10
19.5332
 20
-28.3298
 11
21.444
 21
-28.3502
  0
ENDSEC
  0
SECTION
  2
OBJECTS
  0
DICTIONARY
  0
ENDSEC
  0
EOF
