  0
SECTION
  2
BLOCKS
  0
ENDSEC
  0
SECTION
  2
ENTITIES
  0
LINE
  8
0
 10
-87.5599
 20
-0.117814
 11
-83.9686
 21
-1.75234
  0
LINE
  8
0
 10
-83.9686
 20
-1.75234
 11
-82.6297
 21
-2.36873
  0
LINE
  8
0
 10
-82.6297
 20
-2.36873
 11
-76.7155
 21
-4.83648
  0
LINE
  8
0
 10
-76.7155
 20
-4.83648
 11
-73.4841
 21
-6.21786
  0
LINE
  8
0
 10
-73.4841
 20
-6.21786
 11
-73.1142
 21
-6.36375
  0
LINE
  8
0
 10
-73.1142
 20
-6.36375
 11
-72.056
 21
-6.78643
  0
LINE
  8
0
 10
-72.056
 20
-6.78643
 11
-68.4859
 21
-8.1467
  0
LINE
  8
0
 10
-68.4859
 20
-8.1467
 11
-66.1148
 21
-9.04679
  0
LINE
  8
0
 10
-66.1148
 20
-9.04679
 11
-59.8399
 21
-11.242
  0
LINE
  8
0
 10
-59.8399
 20
-11.242
 11
-56.2606
 21
-12.4887
  0
LINE
  8
0
 10
-56.2606
 20
-12.4887
 11
-55.1847
 21
-12.8417
  0
LINE
  8
0
 10
-55.1847
 20
-12.8417
 11
-54.5615
 21
-13.046
  0
LINE
  8
0
 10
-54.5615
 20
-13.046
 11
-49.2773
 21
-14.6863
  0
LINE
  8
0
 10
-49.2773
 20
-14.6863
 11
-46.0791
 21
-15.6803
  0
LINE
  8
0
 10
-46.0791
 20
-15.6803
 11
-43.3291
 21
-16.4748
  0
LINE
  8
0
 10
-43.3291
 20
-16.4748
 11
-39.0008
 21
-17.6844
  0
LINE
  8
0
 10
-39.0008
 20
-17.6844
 11
-34.1992
 21
-18.9786
  0
LINE
  8
0
 10
-34.1992
 20
-18.9786
 11
-33.5274
 21
-19.1532
  0
LINE
  8
0
 10
-33.5274
 20
-19.1532
 11
-31.5045
 21
-19.664
  0
LINE
  8
0
 10
-31.5045
 20
-19.664
 11
-27.6967
 21
-20.5907
  0
LINE
  8
0
 10
-27.6967
 20
-20.5907
 11
-20.8465
 21
-22.1717
  0
LINE
  8
0
 10
-20.8465
 20
-22.1717
 11
-18.1154
 21
-22.7392
  0
LINE
  8
0
 10
-18.1154
 20
-22.7392
 11
-14.1278
 21
-23.598
  0
LINE
  8
0
 10
-14.1278
 20
-23.598
 11
-12.8743
 21
-23.8465
  0
LINE
  8
0
 10
-12.8743
 20
-23.8465
 11
-12.0175
 21
-24.0164
  0
LINE
  8
0
 10
-12.0175
 20
-24.0164
 11
-6.38316
 21
-25.04
  0
LINE
  8
0
 10
-6.38316
 20
-25.04
 11
-2.48718
 21
-25.7477
  0
LINE
  8
0
 10
-2.48718
 20
-25.7477
 11
4.27385
 21
-26.7694
  0
LINE
  8
0
 10
4.27385
 20
-26.7694
 11
9.02705
 21
-27.4877
  0
LINE
  8
0
 10
9.02705
 20
-27.4877
 11
9.80543
 21
-27.587
  0
LINE
  8
0
 10
9.80543
 20
-27.587
 11
12.4982
 21
-27.8978
  0
LINE
  8
0
 10
12.4982
 20
-27.8978
 11
14.918
 21
-28.1161
  0
LINE
  8
0
 10
14.918
 20
-28.1161
 11
17.538
 21
-28.287
  0
LINE
  8
0
 10
17.538
 20
-28.287
 11
19.5332
 21
-28.3298
  0
LINE
  8
0
 10
19.5332
 20
-28.3298
 11
21.444
 21
-28.3502
  0
LINE
  8
0
 10
21.444
 20
-28.3502
 11
21.6552
 21
-28.3461
  0
LINE
  8
0
 10
21.6552
 20
-28.3461
 11
22.29
 21
-28.3306
  0
LINE
  8
0
 10
22.29
 20
-28.3306
 11
23.7889
 21
-28.2481
  0
LINE
  8
0
 10
23.7889
 20
-28.2481
 11
26.2675
 21
-28.0683
  0
LINE
  8
0
 10
26.2675
 20
-28.0683
 11
26.4224
 21
-28.0541
  0
LINE
  8
0
 10
26.4224
 20
-28.0541
 11
27.5598
 21
-27.9008
  0
LINE
  8
0
 10
27.5598
 20
-27.9008
 11
28.7666
 21
-27.7498
  0
LINE
  8
0
 10
28.7666
 20
-27.7498
 11
29.5192
 21
-27.6211
  0
LINE
  8
0
 10
29.5192
 20
-27.6211
 11
30.0932
 21
-27.5225
  0
LINE
  8
0
 10
30.0932
 20
-27.5225
 11
32.5494
 21
-26.9414
  0
LINE
  8
0
 10
32.5494
 20
-26.9414
 11
34.2786
 21
-26.5316
  0
LINE
  8
0
 10
34.2786
 20
-26.5316
 11
35.5727
 21
-26.1274
  0
LINE
  8
0
 10
35.5727
 20
-26.1274
 11
36.5221
 21
-25.8313
  0
LINE
  8
0
 10
36.5221
 20
-25.8313
 11
37.6529
 21
-25.423
  0
LINE
  8
0
 10
37.6529
 20
-25.423
 11
38.4265
 21
-25.1445
  0
LINE
  8
0
 10
38.4265
 20
-25.1445
 11
40.8038
 21
-24.1133
  0
LINE
  8
0
 10
40.8038
 20
-24.1133
 11
42.0382
 21
-23.5982
  0
LINE
  8
0
 10
42.0382
 20
-23.5982
 11
42.7016
 21
-23.2664
  0
LINE
  8
0
 10
42.7016
 20
-23.2664
 11
43.694
 21
-22.7861
  0
LINE
  8
0
 10
43.694
 20
-22.7861
 11
44.8421
 21
-22.1629
  0
LINE
  8
0
 10
44.8421
 20
-22.1629
 11
45.5115
 21
-21.8031
  0
LINE
  8
0
 10
45.5115
 20
-21.8031
 11
47.4652
 21
-20.5842
  0
LINE
  8
0
 10
47.4652
 20
-20.5842
 11
49.0259
 21
-19.6183
  0
LINE
  8
0
 10
49.0259
 20
-19.6183
 11
49.7141
 21
-19.1346
  0
LINE
  8
0
 10
49.7141
 20
-19.1346
 11
50.1841
 21
-18.8039
  0
LINE
  8
0
 10
50.1841
 20
-18.8039
 11
51.3064
 21
-17.943
  0
LINE
  8
0
 10
51.3064
 20
-17.943
 11
52.2664
 21
-17.1975
  0
LINE
  8
0
 10
52.2664
 20
-17.1975
 11
53.9209
 21
-15.7256
  0
LINE
  8
0
 10
53.9209
 20
-15.7256
 11
54.9011
 21
-14.8433
  0
LINE
  8
0
 10
54.9011
 20
-14.8433
 11
55.1169
 21
-14.6291
  0
LINE
  8
0
 10
55.1169
 20
-14.6291
 11
55.2805
 21
-14.4668
  0
LINE
  8
0
 10
55.2805
 20
-14.4668
 11
55.8193
 21
-13.9037
  0
LINE
  8
0
 10
55.8193
 20
-13.9037
 11
56.6675
 21
-12.9699
  0
LINE
  8
0
 10
56.6675
 20
-12.9699
 11
57.8625
 21
-11.5376
  0
LINE
  8
0
 10
57.8625
 20
-11.5376
 11
58.435
 21
-10.7235
  0
LINE
  8
0
 10
58.435
 20
-10.7235
 11
59.1843
 21
-9.71174
  0
LINE
  8
0
 10
59.1843
 20
-9.71174
 11
59.2623
 21
-9.59119
  0
LINE
  8
0
 10
59.2623
 20
-9.59119
 11
59.6992
 21
-8.88343
  0
LINE
  8
0
 10
59.6992
 20
-8.88343
 11
59.8912
 21
-8.56982
  0
LINE
  8
0
 10
59.8912
 20
-8.56982
 11
60.0174
 21
-8.34658
  0
LINE
  8
0
 10
60.0174
 20
-8.34658
 11
60.6734
 21
-6.97238
  0
LINE
  8
0
 10
60.6734
 20
-6.97238
 11
61.1925
 21
-5.94049
  0
LINE
  8
0
 10
61.1925
 20
-5.94049
 11
61.2773
 21
-5.72261
  0
LINE
  8
0
 10
61.2773
 20
-5.72261
 11
61.3821
 21
-5.45977
  0
LINE
  8
0
 10
61.3821
 20
-5.45977
 11
61.7586
 21
-4.24479
  0
LINE
  8
0
 10
61.7586
 20
-4.24479
 11
62.0003
 21
-3.47663
  0
LINE
  8
0
 10
62.0003
 20
-3.47663
 11
62.1027
 21
-2.99981
  0
LINE
  8
0
 10
62.1027
 20
-2.99981
 11
62.1894
 21
-2.60297
  0
LINE
  8
0
 10
62.1894
 20
-2.60297
 11
62.3042
 21
-1.78481
  0
LINE
  8
0
 10
62.3042
 20
-1.78481
 11
62.3795
 21
-1.24362
  0
LINE
  8
0
 10
62.3795
 20
-1.24362
 11
62.4134
 21
-0.657654
  0
LINE
  8
0
 10
62.4134
 20
-0.657654
 11
62.4365
 21
-0.253797
  0
LINE
  8
0
 10
62.4365
 20
-0.253797
 11
62.3534
 21
1.12699
  0
LINE
  8
0
 10
62.3534
 20
1.12699
 11
62.2938
 21
2.07742
  0
LINE
  8
0
 10
62.2938
 20
2.07742
 11
62.2692
 21
2.24007
  0
LINE
  8
0
 10
62.2692
 20
2.24007
 11
62.224
 21
2.50864
  0
LINE
  8
0
 10
62.224
 20
2.50864
 11
62.1493
 21
2.91491
  0
LINE
  8
0
 10
62.1493
 20
2.91491
 11
62.1301
 21
3.01105
  0
LINE
  8
0
 10
62.1301
 20
3.01105
 11
61.8458
 21
4.07402
  0
LINE
  8
0
 10
61.8458
 20
4.07402
 11
61.6057
 21
4.93475
  0
LINE
  8
0
 10
61.6057
 20
4.93475
 11
61.0203
 21
6.3732
  0
LINE
  8
0
 10
61.0203
 20
6.3732
 11
60.6692
 21
7.21258
  0
LINE
  8
0
 10
60.6692
 20
7.21258
 11
60.6636
 21
7.22416
  0
LINE
  8
0
 10
60.6636
 20
7.22416
 11
60.6132
 21
7.32621
  0
LINE
  8
0
 10
60.6132
 20
7.32621
 11
60.4444
 21
7.65952
  0
LINE
  8
0
 10
60.4444
 20
7.65952
 11
60.2454
 21
8.03283
  0
LINE
  8
0
 10
60.2454
 20
8.03283
 11
59.2606
 21
9.63682
  0
LINE
  8
0
 10
59.2606
 20
9.63682
 11
58.602
 21
10.6552
  0
LINE
  8
0
 10
58.602
 20
10.6552
 11
58.0984
 21
11.3329
  0
LINE
  8
0
 10
58.0984
 20
11.3329
 11
57.8663
 21
11.6395
  0
LINE
  8
0
 10
57.8663
 20
11.6395
 11
57.1382
 21
12.5121
  0
LINE
  8
0
 10
57.1382
 20
12.5121
 11
56.5736
 21
13.1838
  0
LINE
  8
0
 10
56.5736
 20
13.1838
 11
55.6771
 21
14.131
  0
LINE
  8
0
 10
55.6771
 20
14.131
 11
55.1878
 21
14.648
  0
LINE
  8
0
 10
55.1878
 20
14.648
 11
54.0404
 21
15.7106
  0
LINE
  8
0
 10
54.0404
 20
15.7106
 11
53.1711
 21
16.5209
  0
LINE
  8
0
 10
53.1711
 20
16.5209
 11
52.9117
 21
16.741
  0
LINE
  8
0
 10
52.9117
 20
16.741
 11
52.2617
 21
17.2846
  0
LINE
  8
0
 10
52.2617
 20
17.2846
 11
51.0042
 21
18.2421
  0
LINE
  8
0
 10
51.0042
 20
18.2421
 11
49.0022
 21
19.7103
  0
LINE
  8
0
 10
49.0022
 20
19.7103
 11
47.9
 21
20.4096
  0
LINE
  8
0
 10
47.9
 20
20.4096
 11
46.7664
 21
21.1456
  0
LINE
  8
0
 10
46.7664
 20
21.1456
 11
46.5284
 21
21.2872
  0
LINE
  8
0
 10
46.5284
 20
21.2872
 11
45.442
 21
21.9124
  0
LINE
  8
0
 10
45.442
 20
21.9124
 11
44.1351
 21
22.619
  0
LINE
  8
0
 10
44.1351
 20
22.619
 11
43.1691
 21
23.1263
  0
LINE
  8
0
 10
43.1691
 20
23.1263
 11
40.9636
 21
24.1281
  0
LINE
  8
0
 10
40.9636
 20
24.1281
 11
39.4669
 21
24.8042
  0
LINE
  8
0
 10
39.4669
 20
24.8042
 11
39.4064
 21
24.8288
  0
LINE
  8
0
 10
39.4064
 20
24.8288
 11
39.2049
 21
24.9097
  0
LINE
  8
0
 10
39.2049
 20
24.9097
 11
36.9055
 21
25.7334
  0
LINE
  8
0
 10
36.9055
 20
25.7334
 11
35.1558
 21
26.3399
  0
LINE
  8
0
 10
35.1558
 20
26.3399
 11
33.1913
 21
26.8755
  0
LINE
  8
0
 10
33.1913
 20
26.8755
 11
32.0292
 21
27.1841
  0
LINE
  8
0
 10
32.0292
 20
27.1841
 11
31.6612
 21
27.2671
  0
LINE
  8
0
 10
31.6612
 20
27.2671
 11
31.0507
 21
27.3987
  0
LINE
  8
0
 10
31.0507
 20
27.3987
 11
29.4529
 21
27.6944
  0
LINE
  8
0
 10
29.4529
 20
27.6944
 11
27.7945
 21
27.9473
  0
LINE
  8
0
 10
27.7945
 20
27.9473
 11
25.6653
 21
28.1896
  0
LINE
  8
0
 10
25.6653
 20
28.1896
 11
25.1728
 21
28.2376
  0
LINE
  8
0
 10
25.1728
 20
28.2376
 11
24.975
 21
28.2537
  0
LINE
  8
0
 10
24.975
 20
28.2537
 11
24.6245
 21
28.2786
  0
LINE
  8
0
 10
24.6245
 20
28.2786
 11
23.542
 21
28.3358
  0
LINE
  8
0
 10
23.542
 20
28.3358
 11
20.6166
 21
28.3979
  0
LINE
  8
0
 10
20.6166
 20
28.3979
 11
18.7937
 21
28.3878
  0
LINE
  8
0
 10
18.7937
 20
28.3878
 11
17.799
 21
28.3555
  0
LINE
  8
0
 10
17.799
 20
28.3555
 11
17.6219
 21
28.3481
  0
LINE
  8
0
 10
17.6219
 20
28.3481
 11
15.4444
 21
28.1968
  0
LINE
  8
0
 10
15.4444
 20
28.1968
 11
13.7475
 21
28.0757
  0
LINE
  8
0
 10
13.7475
 20
28.0757
 11
10.882
 21
27.7407
  0
LINE
  8
0
 10
10.882
 20
27.7407
 11
8.95287
 21
27.5123
  0
LINE
  8
0
 10
8.95287
 20
27.5123
 11
6.83189
 21
27.206
  0
LINE
  8
0
 10
6.83189
 20
27.206
 11
0.100637
 21
26.1702
  0
LINE
  8
0
 10
0.100637
 20
26.1702
 11
-4.58399
 21
25.3806
  0
LINE
  8
0
 10
-4.58399
 20
25.3806
 11
-11.3766
 21
24.1083
  0
LINE
  8
0
 10
-11.3766
 20
24.1083
 11
-14.0866
 21
23.5816
  0
LINE
  8
0
 10
-14.0866
 20
23.5816
 11
-14.1522
 21
23.5682
  0
LINE
  8
0
 10
-14.1522
 20
23.5682
 11
-16.0878
 21
23.1606
  0
LINE
  8
0
 10
-16.0878
 20
23.1606
 11
-18.8046
 21
22.5884
  0
LINE
  8
0
 10
-18.8046
 20
22.5884
 11
-25.6187
 21
20.9963
  0
LINE
  8
0
 10
-25.6187
 20
20.9963
 11
-30.229
 21
19.9184
  0
LINE
  8
0
 10
-30.229
 20
19.9184
 11
-32.767
 21
19.267
  0
LINE
  8
0
 10
-32.767
 20
19.267
 11
-34.4492
 21
18.8353
  0
LINE
  8
0
 10
-34.4492
 20
18.8353
 11
-34.7463
 21
18.7568
  0
LINE
  8
0
 10
-34.7463
 20
18.7568
 11
-39.0186
 21
17.5874
  0
LINE
  8
0
 10
-39.0186
 20
17.5874
 11
-43.4367
 21
16.3392
  0
LINE
  8
0
 10
-43.4367
 20
16.3392
 11
-46.185
 21
15.5371
  0
LINE
  8
0
 10
-46.185
 20
15.5371
 11
-50.8441
 21
14.0847
  0
LINE
  8
0
 10
-50.8441
 20
14.0847
 11
-53.6543
 21
13.2067
  0
LINE
  8
0
 10
-53.6543
 20
13.2067
 11
-55.3062
 21
12.6626
  0
LINE
  8
0
 10
-55.3062
 20
12.6626
 11
-56.7223
 21
12.1936
  0
LINE
  8
0
 10
-56.7223
 20
12.1936
 11
-62.9343
 21
10.0015
  0
LINE
  8
0
 10
-62.9343
 20
10.0015
 11
-66.9443
 21
8.56766
  0
LINE
  8
0
 10
-66.9443
 20
8.56766
 11
-69.9159
 21
7.43203
  0
LINE
  8
0
 10
-69.9159
 20
7.43203
 11
-70.3789
 21
7.25565
  0
LINE
  8
0
 10
-70.3789
 20
7.25565
 11
-71.1488
 21
6.9571
  0
LINE
  8
0
 10
-71.1488
 20
6.9571
 11
-72.097
 21
6.58213
  0
LINE
  8
0
 10
-72.097
 20
6.58213
 11
-74.8356
 21
5.46243
  0
LINE
  8
0
 10
-74.8356
 20
5.46243
 11
-80.7081
 21
2.99348
  0
LINE
  8
0
 10
-80.7081
 20
2.99348
 11
-84.2586
 21
1.36604
  0
LINE
  8
0
 10
-84.2586
 20
1.36604
 11
-87.5599
 21
-0.117814
  0
ENDSEC
  0
SECTION
  2
OBJECTS
  0
DICTIONARY
  0
ENDSEC
  0
EOF
