  0
SECTION
  2
BLOCKS
  0
ENDSEC
  0
SECTION
  2
ENTITIES
  0
LINE
  8
0
 10
21.444
 20
-28.3502
 11
21.6552
 21
-28.3461
  0
LINE
  8
0
 10
21.6552
 20
-28.3461
 11
22.29
 21
-28.3306
  0
LINE
  8
0
 10
22.29
 20
-28.3306
 11
22.3312
 21
-28.3295
  0
LINE
  8
0
 10
22.3312
 20
-28.3295
 11
23.5802
 21
-28.2607
  0
LINE
  8
0
 10
23.5802
 20
-28.2607
 11
23.7888
 21
-28.2481
  0
LINE
  8
0
 10
23.7888
 20
-28.2481
 11
26.2675
 21
-28.0683
  0
LINE
  8
0
 10
26.2675
 20
-28.0683
 11
26.4224
 21
-28.0541
  0
LINE
  8
0
 10
26.4224
 20
-28.0541
 11
26.4865
 21
-28.0473
  0
LINE
  8
0
 10
26.4865
 20
-28.0473
 11
27.7608
 21
-27.8757
  0
LINE
  8
0
 10
27.7608
 20
-27.8757
 11
28.7666
 21
-27.7498
  0
LINE
  8
0
 10
28.7666
 20
-27.7498
 11
29.6098
 21
-27.6056
  0
LINE
  8
0
 10
29.6098
 20
-27.6056
 11
30.0882
 21
-27.5234
  0
LINE
  8
0
 10
30.0882
 20
-27.5234
 11
30.0932
 21
-27.5225
  0
LINE
  8
0
 10
30.0932
 20
-27.5225
 11
32.5494
 21
-26.9414
  0
LINE
  8
0
 10
32.5494
 20
-26.9414
 11
34.2786
 21
-26.5316
  0
LINE
  8
0
 10
34.2786
 20
-26.5316
 11
34.2812
 21
-26.5308
  0
LINE
  8
0
 10
34.2812
 20
-26.5308
 11
35.716
 21
-26.0827
  0
LINE
  8
0
 10
35.716
 20
-26.0827
 11
36.5221
 21
-25.8313
  0
LINE
  8
0
 10
36.5221
 20
-25.8313
 11
37.6529
 21
-25.423
  0
LINE
  8
0
 10
37.6529
 20
-25.423
 11
38.4265
 21
-25.1445
  0
LINE
  8
0
 10
38.4265
 20
-25.1445
 11
38.4334
 21
-25.1419
  0
LINE
  8
0
 10
38.4334
 20
-25.1419
 11
40.8251
 21
-24.1044
  0
LINE
  8
0
 10
40.8251
 20
-24.1044
 11
42.0381
 21
-23.5982
  0
LINE
  8
0
 10
42.0381
 20
-23.5982
 11
42.1243
 21
-23.5578
  0
LINE
  8
0
 10
42.1243
 20
-23.5578
 11
42.8671
 21
-23.1863
  0
LINE
  8
0
 10
42.8671
 20
-23.1863
 11
43.694
 21
-22.7861
  0
LINE
  8
0
 10
43.694
 20
-22.7861
 11
44.8421
 21
-22.1629
  0
LINE
  8
0
 10
44.8421
 20
-22.1629
 11
45.5115
 21
-21.8031
  0
LINE
  8
0
 10
45.5115
 20
-21.8031
 11
45.5367
 21
-21.7888
  0
LINE
  8
0
 10
45.5367
 20
-21.7888
 11
47.7225
 21
-20.4251
  0
LINE
  8
0
 10
47.7225
 20
-20.4251
 11
49.0231
 21
-19.6202
  0
LINE
  8
0
 10
49.0231
 20
-19.6202
 11
49.0259
 21
-19.6183
  0
LINE
  8
0
 10
49.0259
 20
-19.6183
 11
49.7141
 21
-19.1346
  0
LINE
  8
0
 10
49.7141
 20
-19.1346
 11
50.1841
 21
-18.8039
  0
LINE
  8
0
 10
50.1841
 20
-18.8039
 11
51.4384
 21
-17.8417
  0
LINE
  8
0
 10
51.4384
 20
-17.8417
 11
52.2384
 21
-17.2205
  0
LINE
  8
0
 10
52.2384
 20
-17.2205
 11
52.2664
 21
-17.1975
  0
LINE
  8
0
 10
52.2664
 20
-17.1975
 11
53.9209
 21
-15.7256
  0
LINE
  8
0
 10
53.9209
 20
-15.7256
 11
54.9011
 21
-14.8433
  0
LINE
  8
0
 10
54.9011
 20
-14.8433
 11
55.135
 21
-14.6111
  0
LINE
  8
0
 10
55.135
 20
-14.6111
 11
55.2805
 21
-14.4668
  0
LINE
  8
0
 10
55.2805
 20
-14.4668
 11
55.8819
 21
-13.8383
  0
LINE
  8
0
 10
55.8819
 20
-13.8383
 11
56.5886
 21
-13.0602
  0
LINE
  8
0
 10
56.5886
 20
-13.0602
 11
56.6675
 21
-12.9699
  0
LINE
  8
0
 10
56.6675
 20
-12.9699
 11
57.8625
 21
-11.5376
  0
LINE
  8
0
 10
57.8625
 20
-11.5376
 11
57.9214
 21
-11.4628
  0
LINE
  8
0
 10
57.9214
 20
-11.4628
 11
58.5599
 21
-10.5548
  0
LINE
  8
0
 10
58.5599
 20
-10.5548
 11
59.1843
 21
-9.71173
  0
LINE
  8
0
 10
59.1843
 20
-9.71173
 11
59.2623
 21
-9.59119
  0
LINE
  8
0
 10
59.2623
 20
-9.59119
 11
59.6992
 21
-8.88342
  0
LINE
  8
0
 10
59.6992
 20
-8.88342
 11
59.8911
 21
-8.56981
  0
LINE
  8
0
 10
59.8911
 20
-8.56981
 11
59.8961
 21
-8.5612
  0
LINE
  8
0
 10
59.8961
 20
-8.5612
 11
60.0368
 21
-8.31247
  0
LINE
  8
0
 10
60.0368
 20
-8.31247
 11
60.7348
 21
-6.85019
  0
LINE
  8
0
 10
60.7348
 20
-6.85019
 11
61.1925
 21
-5.94048
  0
LINE
  8
0
 10
61.1925
 20
-5.94048
 11
61.2003
 21
-5.92143
  0
LINE
  8
0
 10
61.2003
 20
-5.92143
 11
61.2948
 21
-5.67879
  0
LINE
  8
0
 10
61.2948
 20
-5.67879
 11
61.3821
 21
-5.45976
  0
LINE
  8
0
 10
61.3821
 20
-5.45976
 11
61.7586
 21
-4.24478
  0
LINE
  8
0
 10
61.7586
 20
-4.24478
 11
62.0003
 21
-3.47662
  0
LINE
  8
0
 10
62.0003
 20
-3.47662
 11
62.0028
 21
-3.46677
  0
LINE
  8
0
 10
62.0028
 20
-3.46677
 11
62.1167
 21
-2.93597
  0
LINE
  8
0
 10
62.1167
 20
-2.93597
 11
62.1889
 21
-2.60529
  0
LINE
  8
0
 10
62.1889
 20
-2.60529
 11
62.1894
 21
-2.60297
  0
LINE
  8
0
 10
62.1894
 20
-2.60297
 11
62.3042
 21
-1.78481
  0
LINE
  8
0
 10
62.3042
 20
-1.78481
 11
62.3795
 21
-1.24361
  0
LINE
  8
0
 10
62.3795
 20
-1.24361
 11
62.4172
 21
-0.591431
  0
LINE
  8
0
 10
62.4172
 20
-0.591431
 11
62.4364
 21
-0.254898
  0
LINE
  8
0
 10
62.4364
 20
-0.254898
 11
62.4365
 21
-0.253784
  0
LINE
  8
0
 10
62.4365
 20
-0.253784
 11
62.3534
 21
1.12698
  0
LINE
  8
0
 10
62.3534
 20
1.12698
 11
62.3439
 21
1.28186
  0
LINE
  8
0
 10
62.3439
 20
1.28186
 11
62.2943
 21
2.07387
  0
LINE
  8
0
 10
62.2943
 20
2.07387
 11
62.2692
 21
2.24007
  0
LINE
  8
0
 10
62.2692
 20
2.24007
 11
62.2669
 21
2.2549
  0
LINE
  8
0
 10
62.2669
 20
2.2549
 11
62.2293
 21
2.4787
  0
LINE
  8
0
 10
62.2293
 20
2.4787
 11
62.224
 21
2.50862
  0
LINE
  8
0
 10
62.224
 20
2.50862
 11
62.1493
 21
2.9149
  0
LINE
  8
0
 10
62.1493
 20
2.9149
 11
62.1301
 21
3.01105
  0
LINE
  8
0
 10
62.1301
 20
3.01105
 11
61.8137
 21
4.19426
  0
LINE
  8
0
 10
61.8137
 20
4.19426
 11
61.6136
 21
4.91151
  0
LINE
  8
0
 10
61.6136
 20
4.91151
 11
61.6057
 21
4.93474
  0
LINE
  8
0
 10
61.6057
 20
4.93474
 11
61.0203
 21
6.3732
  0
LINE
  8
0
 10
61.0203
 20
6.3732
 11
60.6692
 21
7.21257
  0
LINE
  8
0
 10
60.6692
 20
7.21257
 11
60.663
 21
7.22548
  0
LINE
  8
0
 10
60.663
 20
7.22548
 11
60.6132
 21
7.3262
  0
LINE
  8
0
 10
60.6132
 20
7.3262
 11
60.4444
 21
7.65952
  0
LINE
  8
0
 10
60.4444
 20
7.65952
 11
60.433
 21
7.68178
  0
LINE
  8
0
 10
60.433
 20
7.68178
 11
60.2671
 21
7.99286
  0
LINE
  8
0
 10
60.2671
 20
7.99286
 11
60.2453
 21
8.03282
  0
LINE
  8
0
 10
60.2453
 20
8.03282
 11
59.2606
 21
9.63681
  0
LINE
  8
0
 10
59.2606
 20
9.63681
 11
59.17
 21
9.77988
  0
LINE
  8
0
 10
59.17
 20
9.77988
 11
58.6212
 21
10.6285
  0
LINE
  8
0
 10
58.6212
 20
10.6285
 11
58.602
 21
10.6552
  0
LINE
  8
0
 10
58.602
 20
10.6552
 11
58.0984
 21
11.3329
  0
LINE
  8
0
 10
58.0984
 20
11.3329
 11
57.8663
 21
11.6395
  0
LINE
  8
0
 10
57.8663
 20
11.6395
 11
57.0544
 21
12.6125
  0
LINE
  8
0
 10
57.0544
 20
12.6125
 11
56.5839
 21
13.1722
  0
LINE
  8
0
 10
56.5839
 20
13.1722
 11
56.5736
 21
13.1838
  0
LINE
  8
0
 10
56.5736
 20
13.1838
 11
55.677
 21
14.131
  0
LINE
  8
0
 10
55.677
 20
14.131
 11
55.1878
 21
14.648
  0
LINE
  8
0
 10
55.1878
 20
14.648
 11
55.1761
 21
14.6597
  0
LINE
  8
0
 10
55.1761
 20
14.6597
 11
53.8955
 21
15.8457
  0
LINE
  8
0
 10
53.8955
 20
15.8457
 11
53.1711
 21
16.5209
  0
LINE
  8
0
 10
53.1711
 20
16.5209
 11
52.9117
 21
16.741
  0
LINE
  8
0
 10
52.9117
 20
16.741
 11
52.2617
 21
17.2845
  0
LINE
  8
0
 10
52.2617
 20
17.2845
 11
52.2289
 21
17.3114
  0
LINE
  8
0
 10
52.2289
 20
17.3114
 11
51.181
 21
18.1094
  0
LINE
  8
0
 10
51.181
 20
18.1094
 11
51.0042
 21
18.2421
  0
LINE
  8
0
 10
51.0042
 20
18.2421
 11
49.0022
 21
19.7103
  0
LINE
  8
0
 10
49.0022
 20
19.7103
 11
48.9432
 21
19.7506
  0
LINE
  8
0
 10
48.9432
 20
19.7506
 11
47.7118
 21
20.5318
  0
LINE
  8
0
 10
47.7118
 20
20.5318
 11
46.7664
 21
21.1456
  0
LINE
  8
0
 10
46.7664
 20
21.1456
 11
46.5284
 21
21.2872
  0
LINE
  8
0
 10
46.5284
 20
21.2872
 11
45.442
 21
21.9124
  0
LINE
  8
0
 10
45.442
 20
21.9124
 11
45.3528
 21
21.963
  0
LINE
  8
0
 10
45.3528
 20
21.963
 11
44.2638
 21
22.5518
  0
LINE
  8
0
 10
44.2638
 20
22.5518
 11
43.1826
 21
23.1196
  0
LINE
  8
0
 10
43.1826
 20
23.1196
 11
43.1691
 21
23.1263
  0
LINE
  8
0
 10
43.1691
 20
23.1263
 11
40.9636
 21
24.1281
  0
LINE
  8
0
 10
40.9636
 20
24.1281
 11
39.4669
 21
24.8042
  0
LINE
  8
0
 10
39.4669
 20
24.8042
 11
39.3991
 21
24.8317
  0
LINE
  8
0
 10
39.3991
 20
24.8317
 11
39.2312
 21
24.8991
  0
LINE
  8
0
 10
39.2312
 20
24.8991
 11
39.2049
 21
24.9097
  0
LINE
  8
0
 10
39.2049
 20
24.9097
 11
36.9055
 21
25.7334
  0
LINE
  8
0
 10
36.9055
 20
25.7334
 11
36.6563
 21
25.8215
  0
LINE
  8
0
 10
36.6563
 20
25.8215
 11
35.1983
 21
26.3269
  0
LINE
  8
0
 10
35.1983
 20
26.3269
 11
35.1558
 21
26.3399
  0
LINE
  8
0
 10
35.1558
 20
26.3399
 11
33.1913
 21
26.8755
  0
LINE
  8
0
 10
33.1913
 20
26.8755
 11
32.0292
 21
27.1841
  0
LINE
  8
0
 10
32.0292
 20
27.1841
 11
31.6169
 21
27.2771
  0
LINE
  8
0
 10
31.6169
 20
27.2771
 11
31.1081
 21
27.3868
  0
LINE
  8
0
 10
31.1081
 20
27.3868
 11
31.0507
 21
27.3987
  0
LINE
  8
0
 10
31.0507
 20
27.3987
 11
29.4529
 21
27.6944
  0
LINE
  8
0
 10
29.4529
 20
27.6944
 11
29.3179
 21
27.718
  0
LINE
  8
0
 10
29.3179
 20
27.718
 11
27.936
 21
27.9288
  0
LINE
  8
0
 10
27.936
 20
27.9288
 11
27.7945
 21
27.9473
  0
LINE
  8
0
 10
27.7945
 20
27.9473
 11
25.6653
 21
28.1896
  0
LINE
  8
0
 10
25.6653
 20
28.1896
 11
25.1727
 21
28.2376
  0
LINE
  8
0
 10
25.1727
 20
28.2376
 11
24.975
 21
28.2537
  0
LINE
  8
0
 10
24.975
 20
28.2537
 11
24.5823
 21
28.2816
  0
LINE
  8
0
 10
24.5823
 20
28.2816
 11
23.6802
 21
28.3293
  0
LINE
  8
0
 10
23.6802
 20
28.3293
 11
23.542
 21
28.3358
  0
LINE
  8
0
 10
23.542
 20
28.3358
 11
20.6166
 21
28.3979
  0
LINE
  8
0
 10
20.6166
 20
28.3979
 11
20.4027
 21
28.3989
  0
LINE
  8
0
 10
20.4027
 20
28.3989
 11
18.8836
 21
28.3904
  0
LINE
  8
0
 10
18.8836
 20
28.3904
 11
18.7937
 21
28.3878
  0
LINE
  8
0
 10
18.7937
 20
28.3878
 11
17.799
 21
28.3555
  0
LINE
  8
0
 10
17.799
 20
28.3555
 11
17.6219
 21
28.3481
  0
LINE
  8
0
 10
17.6219
 20
28.3481
 11
15.183
 21
28.1786
  0
LINE
  8
0
 10
15.183
 20
28.1786
 11
13.7689
 21
28.0777
  0
LINE
  8
0
 10
13.7689
 20
28.0777
 11
13.7475
 21
28.0757
  0
LINE
  8
0
 10
13.7475
 20
28.0757
 11
10.882
 21
27.7407
  0
LINE
  8
0
 10
10.882
 20
27.7407
 11
8.95287
 21
27.5123
  0
LINE
  8
0
 10
8.95287
 20
27.5123
 11
6.83188
 21
27.206
  0
LINE
  8
0
 10
6.83188
 20
27.206
 11
0.100632
 21
26.1702
  0
LINE
  8
0
 10
0.100632
 20
26.1702
 11
-0.342484
 21
26.0987
  0
LINE
  8
0
 10
-0.342484
 20
26.0987
 11
-4.24626
 21
25.4407
  0
LINE
  8
0
 10
-4.24626
 20
25.4407
 11
-4.58398
 21
25.3806
  0
LINE
  8
0
 10
-4.58398
 20
25.3806
 11
-11.3766
 21
24.1083
  0
LINE
  8
0
 10
-11.3766
 20
24.1083
 11
-14.0866
 21
23.5816
  0
LINE
  8
0
 10
-14.0866
 20
23.5816
 11
-14.1597
 21
23.5666
  0
LINE
  8
0
 10
-14.1597
 20
23.5666
 11
-18.7982
 21
22.5898
  0
LINE
  8
0
 10
-18.7982
 20
22.5898
 11
-18.8046
 21
22.5884
  0
LINE
  8
0
 10
-18.8046
 20
22.5884
 11
-25.6187
 21
20.9962
  0
LINE
  8
0
 10
-25.6187
 20
20.9962
 11
-30.229
 21
19.9184
  0
LINE
  8
0
 10
-30.229
 20
19.9184
 11
-34.4492
 21
18.8353
  0
LINE
  8
0
 10
-34.4492
 20
18.8353
 11
-34.7463
 21
18.7568
  0
LINE
  8
0
 10
-34.7463
 20
18.7568
 11
-39.0186
 21
17.5874
  0
LINE
  8
0
 10
-39.0186
 20
17.5874
 11
-39.4364
 21
17.4725
  0
LINE
  8
0
 10
-39.4364
 20
17.4725
 11
-43.118
 21
16.4324
  0
LINE
  8
0
 10
-43.118
 20
16.4324
 11
-46.1584
 21
15.5451
  0
LINE
  8
0
 10
-46.1584
 20
15.5451
 11
-46.185
 21
15.5371
  0
LINE
  8
0
 10
-46.185
 20
15.5371
 11
-50.8441
 21
14.0847
  0
LINE
  8
0
 10
-50.8441
 20
14.0847
 11
-53.6543
 21
13.2067
  0
LINE
  8
0
 10
-53.6543
 20
13.2067
 11
-55.4783
 21
12.6059
  0
LINE
  8
0
 10
-55.4783
 20
12.6059
 11
-56.6584
 21
12.2151
  0
LINE
  8
0
 10
-56.6584
 20
12.2151
 11
-56.7223
 21
12.1936
  0
LINE
  8
0
 10
-56.7223
 20
12.1936
 11
-62.9343
 21
10.0015
  0
LINE
  8
0
 10
-62.9343
 20
10.0015
 11
-63.5109
 21
9.79695
  0
LINE
  8
0
 10
-63.5109
 20
9.79695
 11
-66.8525
 21
8.6021
  0
LINE
  8
0
 10
-66.8525
 20
8.6021
 11
-66.9443
 21
8.56766
  0
LINE
  8
0
 10
-66.9443
 20
8.56766
 11
-69.9159
 21
7.43202
  0
LINE
  8
0
 10
-69.9159
 20
7.43202
 11
-70.3789
 21
7.25563
  0
LINE
  8
0
 10
-70.3789
 20
7.25563
 11
-71.1488
 21
6.95709
  0
LINE
  8
0
 10
-71.1488
 20
6.95709
 11
-72.1909
 21
6.54497
  0
LINE
  8
0
 10
-72.1909
 20
6.54497
 11
-74.4731
 21
5.61191
  0
LINE
  8
0
 10
-74.4731
 20
5.61191
 11
-74.8356
 21
5.46243
  0
LINE
  8
0
 10
-74.8356
 20
5.46243
 11
-80.7081
 21
2.99347
  0
LINE
  8
0
 10
-80.7081
 20
2.99347
 11
-80.9144
 21
2.90379
  0
LINE
  8
0
 10
-80.9144
 20
2.90379
 11
-84.8089
 21
1.1187
  0
LINE
  8
0
 10
-84.8089
 20
1.1187
 11
-87.5599
 21
-0.117813
  0
LINE
  8
0
 10
-87.5599
 20
-0.117813
 11
-83.9664
 21
-1.75331
  0
LINE
  8
0
 10
-83.9664
 20
-1.75331
 11
-82.6297
 21
-2.36871
  0
LINE
  8
0
 10
-82.6297
 20
-2.36871
 11
-82.5145
 21
-2.41995
  0
LINE
  8
0
 10
-82.5145
 20
-2.41995
 11
-76.4027
 21
-4.97017
  0
LINE
  8
0
 10
-76.4027
 20
-4.97017
 11
-73.484
 21
-6.21786
  0
LINE
  8
0
 10
-73.484
 20
-6.21786
 11
-73.3439
 21
-6.27402
  0
LINE
  8
0
 10
-73.3439
 20
-6.27402
 11
-72.9393
 21
-6.43359
  0
LINE
  8
0
 10
-72.9393
 20
-6.43359
 11
-72.056
 21
-6.78642
  0
LINE
  8
0
 10
-72.056
 20
-6.78642
 11
-68.1332
 21
-8.28108
  0
LINE
  8
0
 10
-68.1332
 20
-8.28108
 11
-66.1573
 21
-9.03114
  0
LINE
  8
0
 10
-66.1573
 20
-9.03114
 11
-66.1148
 21
-9.04678
  0
LINE
  8
0
 10
-66.1148
 20
-9.04678
 11
-59.8399
 21
-11.242
  0
LINE
  8
0
 10
-59.8399
 20
-11.242
 11
-59.2508
 21
-11.4474
  0
LINE
  8
0
 10
-59.2508
 20
-11.4474
 11
-56.2681
 21
-12.4863
  0
LINE
  8
0
 10
-56.2681
 20
-12.4863
 11
-55.0808
 21
-12.8757
  0
LINE
  8
0
 10
-55.0808
 20
-12.8757
 11
-54.5615
 21
-13.046
  0
LINE
  8
0
 10
-54.5615
 20
-13.046
 11
-49.2773
 21
-14.6862
  0
LINE
  8
0
 10
-49.2773
 20
-14.6862
 11
-46.0791
 21
-15.6803
  0
LINE
  8
0
 10
-46.0791
 20
-15.6803
 11
-46.0631
 21
-15.685
  0
LINE
  8
0
 10
-46.0631
 20
-15.685
 11
-43.0208
 21
-16.564
  0
LINE
  8
0
 10
-43.0208
 20
-16.564
 11
-39.4139
 21
-17.572
  0
LINE
  8
0
 10
-39.4139
 20
-17.572
 11
-39.0008
 21
-17.6844
  0
LINE
  8
0
 10
-39.0008
 20
-17.6844
 11
-34.1991
 21
-18.9786
  0
LINE
  8
0
 10
-34.1991
 20
-18.9786
 11
-33.5274
 21
-19.1532
  0
LINE
  8
0
 10
-33.5274
 20
-19.1532
 11
-31.2823
 21
-19.7201
  0
LINE
  8
0
 10
-31.2823
 20
-19.7201
 11
-28.1093
 21
-20.4923
  0
LINE
  8
0
 10
-28.1093
 20
-20.4923
 11
-27.6967
 21
-20.5907
  0
LINE
  8
0
 10
-27.6967
 20
-20.5907
 11
-20.8465
 21
-22.1717
  0
LINE
  8
0
 10
-20.8465
 20
-22.1717
 11
-20.4896
 21
-22.2509
  0
LINE
  8
0
 10
-20.4896
 20
-22.2509
 11
-17.4518
 21
-22.8822
  0
LINE
  8
0
 10
-17.4518
 20
-22.8822
 11
-14.1278
 21
-23.598
  0
LINE
  8
0
 10
-14.1278
 20
-23.598
 11
-12.0175
 21
-24.0164
  0
LINE
  8
0
 10
-12.0175
 20
-24.0164
 11
-2.48738
 21
-25.7477
  0
LINE
  8
0
 10
-2.48738
 20
-25.7477
 11
9.02704
 21
-27.4877
  0
LINE
  8
0
 10
9.02704
 20
-27.4877
 11
9.80542
 21
-27.587
  0
LINE
  8
0
 10
9.80542
 20
-27.587
 11
12.4982
 21
-27.8978
  0
LINE
  8
0
 10
12.4982
 20
-27.8978
 11
12.6899
 21
-27.9184
  0
LINE
  8
0
 10
12.6899
 20
-27.9184
 11
14.7063
 21
-28.1002
  0
LINE
  8
0
 10
14.7063
 20
-28.1002
 11
14.918
 21
-28.1161
  0
LINE
  8
0
 10
14.918
 20
-28.1161
 11
17.538
 21
-28.287
  0
LINE
  8
0
 10
17.538
 20
-28.287
 11
17.6407
 21
-28.2917
  0
LINE
  8
0
 10
17.6407
 20
-28.2917
 11
19.3033
 21
-28.3274
  0
LINE
  8
0
 10
19.3033
 20
-28.3274
 11
21.444
 21
-28.3502
  0
ENDSEC
  0
SECTION
  2
OBJECTS
  0
DICTIONARY
  0
ENDSEC
  0
EOF
