  0
SECTION
  2
BLOCKS
  0
ENDSEC
  0
SECTION
  2
ENTITIES
  0
LINE
  8
0
 10
-87.5599
 20
-0.117814
 11
-83.6303
 21
-1.90631
  0
LINE
  8
0
 10
-83.6303
 20
-1.90631
 11
-82.5145
 21
-2.41995
  0
LINE
  8
0
 10
-82.5145
 20
-2.41995
 11
-76.0367
 21
-5.1229
  0
LINE
  8
0
 10
-76.0367
 20
-5.1229
 11
-73.3439
 21
-6.27403
  0
LINE
  8
0
 10
-73.3439
 20
-6.27403
 11
-72.9378
 21
-6.4342
  0
LINE
  8
0
 10
-72.9378
 20
-6.4342
 11
-72.056
 21
-6.78643
  0
LINE
  8
0
 10
-72.056
 20
-6.78643
 11
-68.1332
 21
-8.28109
  0
LINE
  8
0
 10
-68.1332
 20
-8.28109
 11
-66.1573
 21
-9.03115
  0
LINE
  8
0
 10
-66.1573
 20
-9.03115
 11
-59.2508
 21
-11.4474
  0
LINE
  8
0
 10
-59.2508
 20
-11.4474
 11
-56.2681
 21
-12.4863
  0
LINE
  8
0
 10
-56.2681
 20
-12.4863
 11
-55.0808
 21
-12.8758
  0
LINE
  8
0
 10
-55.0808
 20
-12.8758
 11
-54.5615
 21
-13.046
  0
LINE
  8
0
 10
-54.5615
 20
-13.046
 11
-48.7283
 21
-14.8567
  0
LINE
  8
0
 10
-48.7283
 20
-14.8567
 11
-46.0631
 21
-15.685
  0
LINE
  8
0
 10
-46.0631
 20
-15.685
 11
-43.0208
 21
-16.564
  0
LINE
  8
0
 10
-43.0208
 20
-16.564
 11
-39.4139
 21
-17.572
  0
LINE
  8
0
 10
-39.4139
 20
-17.572
 11
-34.0872
 21
-19.0077
  0
LINE
  8
0
 10
-34.0872
 20
-19.0077
 11
-33.5274
 21
-19.1532
  0
LINE
  8
0
 10
-33.5274
 20
-19.1532
 11
-31.2823
 21
-19.7201
  0
LINE
  8
0
 10
-31.2823
 20
-19.7201
 11
-28.1093
 21
-20.4923
  0
LINE
  8
0
 10
-28.1093
 20
-20.4923
 11
-20.4896
 21
-22.2509
  0
LINE
  8
0
 10
-20.4896
 20
-22.2509
 11
-17.4518
 21
-22.8822
  0
LINE
  8
0
 10
-17.4518
 20
-22.8822
 11
-14.1288
 21
-23.5978
  0
LINE
  8
0
 10
-14.1288
 20
-23.5978
 11
-12.7315
 21
-23.8749
  0
LINE
  8
0
 10
-12.7315
 20
-23.8749
 11
-12.0175
 21
-24.0164
  0
LINE
  8
0
 10
-12.0175
 20
-24.0164
 11
-5.73397
 21
-25.1579
  0
LINE
  8
0
 10
-5.73397
 20
-25.1579
 11
-2.48739
 21
-25.7477
  0
LINE
  8
0
 10
-2.48739
 20
-25.7477
 11
5.06613
 21
-26.8891
  0
LINE
  8
0
 10
5.06613
 20
-26.8891
 11
9.02705
 21
-27.4877
  0
LINE
  8
0
 10
9.02705
 20
-27.4877
 11
9.67568
 21
-27.5705
  0
LINE
  8
0
 10
9.67568
 20
-27.5705
 11
12.6899
 21
-27.9184
  0
LINE
  8
0
 10
12.6899
 20
-27.9184
 11
14.7063
 21
-28.1002
  0
LINE
  8
0
 10
14.7063
 20
-28.1002
 11
17.6407
 21
-28.2917
  0
LINE
  8
0
 10
17.6407
 20
-28.2917
 11
19.3033
 21
-28.3274
  0
LINE
  8
0
 10
19.3033
 20
-28.3274
 11
21.444
 21
-28.3502
  0
LINE
  8
0
 10
21.444
 20
-28.3502
 11
21.62
 21
-28.3468
  0
LINE
  8
0
 10
21.62
 20
-28.3468
 11
22.3312
 21
-28.3295
  0
LINE
  8
0
 10
22.3312
 20
-28.3295
 11
23.5802
 21
-28.2607
  0
LINE
  8
0
 10
23.5802
 20
-28.2607
 11
26.3574
 21
-28.0592
  0
LINE
  8
0
 10
26.3574
 20
-28.0592
 11
26.4865
 21
-28.0474
  0
LINE
  8
0
 10
26.4865
 20
-28.0474
 11
27.761
 21
-27.8757
  0
LINE
  8
0
 10
27.761
 20
-27.8757
 11
28.7666
 21
-27.7498
  0
LINE
  8
0
 10
28.7666
 20
-27.7498
 11
29.6098
 21
-27.6056
  0
LINE
  8
0
 10
29.6098
 20
-27.6056
 11
30.0882
 21
-27.5234
  0
LINE
  8
0
 10
30.0882
 20
-27.5234
 11
32.8402
 21
-26.8723
  0
LINE
  8
0
 10
32.8402
 20
-26.8723
 11
34.2812
 21
-26.5308
  0
LINE
  8
0
 10
34.2812
 20
-26.5308
 11
35.731
 21
-26.078
  0
LINE
  8
0
 10
35.731
 20
-26.078
 11
36.5221
 21
-25.8313
  0
LINE
  8
0
 10
36.5221
 20
-25.8313
 11
37.7887
 21
-25.374
  0
LINE
  8
0
 10
37.7887
 20
-25.374
 11
38.4334
 21
-25.1419
  0
LINE
  8
0
 10
38.4334
 20
-25.1419
 11
41.0957
 21
-23.9871
  0
LINE
  8
0
 10
41.0957
 20
-23.9871
 11
42.1243
 21
-23.5578
  0
LINE
  8
0
 10
42.1243
 20
-23.5578
 11
42.8671
 21
-23.1863
  0
LINE
  8
0
 10
42.8671
 20
-23.1863
 11
43.694
 21
-22.7861
  0
LINE
  8
0
 10
43.694
 20
-22.7861
 11
44.9789
 21
-22.0887
  0
LINE
  8
0
 10
44.9789
 20
-22.0887
 11
45.5367
 21
-21.7888
  0
LINE
  8
0
 10
45.5367
 20
-21.7888
 11
47.7225
 21
-20.4251
  0
LINE
  8
0
 10
47.7225
 20
-20.4251
 11
49.0231
 21
-19.6202
  0
LINE
  8
0
 10
49.0231
 20
-19.6202
 11
49.7925
 21
-19.0795
  0
LINE
  8
0
 10
49.7925
 20
-19.0795
 11
50.1841
 21
-18.8039
  0
LINE
  8
0
 10
50.1841
 20
-18.8039
 11
51.4384
 21
-17.8417
  0
LINE
  8
0
 10
51.4384
 20
-17.8417
 11
52.2384
 21
-17.2205
  0
LINE
  8
0
 10
52.2384
 20
-17.2205
 11
54.0865
 21
-15.5764
  0
LINE
  8
0
 10
54.0865
 20
-15.5764
 11
54.9033
 21
-14.8412
  0
LINE
  8
0
 10
54.9033
 20
-14.8412
 11
55.1441
 21
-14.602
  0
LINE
  8
0
 10
55.1441
 20
-14.602
 11
55.2805
 21
-14.4668
  0
LINE
  8
0
 10
55.2805
 20
-14.4668
 11
55.8819
 21
-13.8383
  0
LINE
  8
0
 10
55.8819
 20
-13.8383
 11
56.5886
 21
-13.0602
  0
LINE
  8
0
 10
56.5886
 20
-13.0602
 11
57.9214
 21
-11.4628
  0
LINE
  8
0
 10
57.9214
 20
-11.4628
 11
58.5599
 21
-10.5548
  0
LINE
  8
0
 10
58.5599
 20
-10.5548
 11
59.1843
 21
-9.71174
  0
LINE
  8
0
 10
59.1843
 20
-9.71174
 11
59.2493
 21
-9.61128
  0
LINE
  8
0
 10
59.2493
 20
-9.61128
 11
59.7362
 21
-8.82254
  0
LINE
  8
0
 10
59.7362
 20
-8.82254
 11
59.8962
 21
-8.5612
  0
LINE
  8
0
 10
59.8962
 20
-8.5612
 11
60.0369
 21
-8.31248
  0
LINE
  8
0
 10
60.0369
 20
-8.31248
 11
60.7677
 21
-6.78133
  0
LINE
  8
0
 10
60.7677
 20
-6.78133
 11
61.2003
 21
-5.92143
  0
LINE
  8
0
 10
61.2003
 20
-5.92143
 11
61.2948
 21
-5.6788
  0
LINE
  8
0
 10
61.2948
 20
-5.6788
 11
61.3821
 21
-5.45977
  0
LINE
  8
0
 10
61.3821
 20
-5.45977
 11
61.8013
 21
-4.1069
  0
LINE
  8
0
 10
61.8013
 20
-4.1069
 11
62.0028
 21
-3.46677
  0
LINE
  8
0
 10
62.0028
 20
-3.46677
 11
62.1167
 21
-2.93598
  0
LINE
  8
0
 10
62.1167
 20
-2.93598
 11
62.189
 21
-2.60529
  0
LINE
  8
0
 10
62.189
 20
-2.60529
 11
62.3167
 21
-1.69461
  0
LINE
  8
0
 10
62.3167
 20
-1.69461
 11
62.3795
 21
-1.24362
  0
LINE
  8
0
 10
62.3795
 20
-1.24362
 11
62.4172
 21
-0.591442
  0
LINE
  8
0
 10
62.4172
 20
-0.591442
 11
62.4364
 21
-0.254901
  0
LINE
  8
0
 10
62.4364
 20
-0.254901
 11
62.344
 21
1.28187
  0
LINE
  8
0
 10
62.344
 20
1.28187
 11
62.2943
 21
2.07388
  0
LINE
  8
0
 10
62.2943
 20
2.07388
 11
62.2669
 21
2.25491
  0
LINE
  8
0
 10
62.2669
 20
2.25491
 11
62.2293
 21
2.47871
  0
LINE
  8
0
 10
62.2293
 20
2.47871
 11
62.1461
 21
2.93093
  0
LINE
  8
0
 10
62.1461
 20
2.93093
 11
62.1301
 21
3.01105
  0
LINE
  8
0
 10
62.1301
 20
3.01105
 11
61.8137
 21
4.19427
  0
LINE
  8
0
 10
61.8137
 20
4.19427
 11
61.6136
 21
4.91153
  0
LINE
  8
0
 10
61.6136
 20
4.91153
 11
60.9618
 21
6.51311
  0
LINE
  8
0
 10
60.9618
 20
6.51311
 11
60.6692
 21
7.21258
  0
LINE
  8
0
 10
60.6692
 20
7.21258
 11
60.663
 21
7.22548
  0
LINE
  8
0
 10
60.663
 20
7.22548
 11
60.6209
 21
7.31052
  0
LINE
  8
0
 10
60.6209
 20
7.31052
 11
60.433
 21
7.68178
  0
LINE
  8
0
 10
60.433
 20
7.68178
 11
60.2671
 21
7.99287
  0
LINE
  8
0
 10
60.2671
 20
7.99287
 11
59.17
 21
9.77988
  0
LINE
  8
0
 10
59.17
 20
9.77988
 11
58.6212
 21
10.6285
  0
LINE
  8
0
 10
58.6212
 20
10.6285
 11
58.0597
 21
11.384
  0
LINE
  8
0
 10
58.0597
 20
11.384
 11
57.8663
 21
11.6395
  0
LINE
  8
0
 10
57.8663
 20
11.6395
 11
57.0544
 21
12.6125
  0
LINE
  8
0
 10
57.0544
 20
12.6125
 11
56.5839
 21
13.1722
  0
LINE
  8
0
 10
56.5839
 20
13.1722
 11
55.5838
 21
14.2289
  0
LINE
  8
0
 10
55.5838
 20
14.2289
 11
55.1761
 21
14.6597
  0
LINE
  8
0
 10
55.1761
 20
14.6597
 11
53.8955
 21
15.8457
  0
LINE
  8
0
 10
53.8955
 20
15.8457
 11
53.1711
 21
16.5209
  0
LINE
  8
0
 10
53.1711
 20
16.5209
 11
52.955
 21
16.7043
  0
LINE
  8
0
 10
52.955
 20
16.7043
 11
52.2289
 21
17.3114
  0
LINE
  8
0
 10
52.2289
 20
17.3114
 11
51.181
 21
18.1094
  0
LINE
  8
0
 10
51.181
 20
18.1094
 11
48.9432
 21
19.7506
  0
LINE
  8
0
 10
48.9432
 20
19.7506
 11
47.711
 21
20.5323
  0
LINE
  8
0
 10
47.711
 20
20.5323
 11
46.7664
 21
21.1456
  0
LINE
  8
0
 10
46.7664
 20
21.1456
 11
46.5681
 21
21.2636
  0
LINE
  8
0
 10
46.5681
 20
21.2636
 11
45.3528
 21
21.963
  0
LINE
  8
0
 10
45.3528
 20
21.963
 11
44.2638
 21
22.5518
  0
LINE
  8
0
 10
44.2638
 20
22.5518
 11
43.1826
 21
23.1196
  0
LINE
  8
0
 10
43.1826
 20
23.1196
 11
40.7141
 21
24.2408
  0
LINE
  8
0
 10
40.7141
 20
24.2408
 11
39.4669
 21
24.8042
  0
LINE
  8
0
 10
39.4669
 20
24.8042
 11
39.3991
 21
24.8317
  0
LINE
  8
0
 10
39.3991
 20
24.8317
 11
39.2312
 21
24.8991
  0
LINE
  8
0
 10
39.2312
 20
24.8991
 11
36.6563
 21
25.8215
  0
LINE
  8
0
 10
36.6563
 20
25.8215
 11
35.1983
 21
26.3269
  0
LINE
  8
0
 10
35.1983
 20
26.3269
 11
32.9976
 21
26.9269
  0
LINE
  8
0
 10
32.9976
 20
26.9269
 11
32.0292
 21
27.1841
  0
LINE
  8
0
 10
32.0292
 20
27.1841
 11
31.6169
 21
27.2771
  0
LINE
  8
0
 10
31.6169
 20
27.2771
 11
31.1081
 21
27.3868
  0
LINE
  8
0
 10
31.1081
 20
27.3868
 11
29.318
 21
27.718
  0
LINE
  8
0
 10
29.318
 20
27.718
 11
27.936
 21
27.9288
  0
LINE
  8
0
 10
27.936
 20
27.9288
 11
25.5502
 21
28.2003
  0
LINE
  8
0
 10
25.5502
 20
28.2003
 11
25.1398
 21
28.2403
  0
LINE
  8
0
 10
25.1398
 20
28.2403
 11
24.975
 21
28.2537
  0
LINE
  8
0
 10
24.975
 20
28.2537
 11
24.5823
 21
28.2816
  0
LINE
  8
0
 10
24.5823
 20
28.2816
 11
23.6802
 21
28.3293
  0
LINE
  8
0
 10
23.6802
 20
28.3293
 11
20.4027
 21
28.3989
  0
LINE
  8
0
 10
20.4027
 20
28.3989
 11
18.8836
 21
28.3904
  0
LINE
  8
0
 10
18.8836
 20
28.3904
 11
17.7694
 21
28.3543
  0
LINE
  8
0
 10
17.7694
 20
28.3543
 11
17.6219
 21
28.3481
  0
LINE
  8
0
 10
17.6219
 20
28.3481
 11
15.183
 21
28.1786
  0
LINE
  8
0
 10
15.183
 20
28.1786
 11
13.7689
 21
28.0777
  0
LINE
  8
0
 10
13.7689
 20
28.0777
 11
10.5604
 21
27.7026
  0
LINE
  8
0
 10
10.5604
 20
27.7026
 11
8.95287
 21
27.5123
  0
LINE
  8
0
 10
8.95287
 20
27.5123
 11
7.18542
 21
27.2571
  0
LINE
  8
0
 10
7.18542
 20
27.2571
 11
-0.342492
 21
26.0987
  0
LINE
  8
0
 10
-0.342492
 20
26.0987
 11
-4.24627
 21
25.4407
  0
LINE
  8
0
 10
-4.24627
 20
25.4407
 11
-11.8283
 21
24.0205
  0
LINE
  8
0
 10
-11.8283
 20
24.0205
 11
-14.0866
 21
23.5816
  0
LINE
  8
0
 10
-14.0866
 20
23.5816
 11
-14.1598
 21
23.5666
  0
LINE
  8
0
 10
-14.1598
 20
23.5666
 11
-15.7727
 21
23.227
  0
LINE
  8
0
 10
-15.7727
 20
23.227
 11
-18.7983
 21
22.5898
  0
LINE
  8
0
 10
-18.7983
 20
22.5898
 11
-26.3866
 21
20.8167
  0
LINE
  8
0
 10
-26.3866
 20
20.8167
 11
-30.2284
 21
19.9185
  0
LINE
  8
0
 10
-30.2284
 20
19.9185
 11
-33.0474
 21
19.1951
  0
LINE
  8
0
 10
-33.0474
 20
19.1951
 11
-34.4492
 21
18.8353
  0
LINE
  8
0
 10
-34.4492
 20
18.8353
 11
-34.6968
 21
18.7699
  0
LINE
  8
0
 10
-34.6968
 20
18.7699
 11
-39.4364
 21
17.4725
  0
LINE
  8
0
 10
-39.4364
 20
17.4725
 11
-43.118
 21
16.4324
  0
LINE
  8
0
 10
-43.118
 20
16.4324
 11
-46.1584
 21
15.5451
  0
LINE
  8
0
 10
-46.1584
 20
15.5451
 11
-51.3125
 21
13.9383
  0
LINE
  8
0
 10
-51.3125
 20
13.9383
 11
-53.6543
 21
13.2067
  0
LINE
  8
0
 10
-53.6543
 20
13.2067
 11
-55.4783
 21
12.6059
  0
LINE
  8
0
 10
-55.4783
 20
12.6059
 11
-56.6584
 21
12.2151
  0
LINE
  8
0
 10
-56.6584
 20
12.2151
 11
-63.511
 21
9.79695
  0
LINE
  8
0
 10
-63.511
 20
9.79695
 11
-66.8525
 21
8.60211
  0
LINE
  8
0
 10
-66.8525
 20
8.60211
 11
-70.1214
 21
7.35286
  0
LINE
  8
0
 10
-70.1214
 20
7.35286
 11
-70.5072
 21
7.20588
  0
LINE
  8
0
 10
-70.5072
 20
7.20588
 11
-71.1488
 21
6.9571
  0
LINE
  8
0
 10
-71.1488
 20
6.9571
 11
-72.191
 21
6.54498
  0
LINE
  8
0
 10
-72.191
 20
6.54498
 11
-74.4731
 21
5.61192
  0
LINE
  8
0
 10
-74.4731
 20
5.61192
 11
-80.9144
 21
2.9038
  0
LINE
  8
0
 10
-80.9144
 20
2.9038
 11
-84.8089
 21
1.1187
  0
LINE
  8
0
 10
-84.8089
 20
1.1187
 11
-87.5599
 21
-0.117814
  0
ENDSEC
  0
SECTION
  2
OBJECTS
  0
DICTIONARY
  0
ENDSEC
  0
EOF
