  0
SECTION
  2
BLOCKS
  0
ENDSEC
  0
SECTION
  2
ENTITIES
  0
LINE
  8
0
 10
21.444
 20
-28.3502
 11
21.62
 21
-28.3468
  0
LINE
  8
0
 10
21.62
 20
-28.3468
 11
22.3312
 21
-28.3295
  0
LINE
  8
0
 10
22.3312
 20
-28.3295
 11
22.3724
 21
-28.3283
  0
LINE
  8
0
 10
22.3724
 20
-28.3283
 11
23.3716
 21
-28.2733
  0
LINE
  8
0
 10
23.3716
 20
-28.2733
 11
23.5802
 21
-28.2607
  0
LINE
  8
0
 10
23.5802
 20
-28.2607
 11
26.3574
 21
-28.0592
  0
LINE
  8
0
 10
26.3574
 20
-28.0592
 11
26.4865
 21
-28.0473
  0
LINE
  8
0
 10
26.4865
 20
-28.0473
 11
26.5506
 21
-28.0406
  0
LINE
  8
0
 10
26.5506
 20
-28.0406
 11
27.9621
 21
-27.8505
  0
LINE
  8
0
 10
27.9621
 20
-27.8505
 11
28.7666
 21
-27.7498
  0
LINE
  8
0
 10
28.7666
 20
-27.7498
 11
29.7005
 21
-27.5901
  0
LINE
  8
0
 10
29.7005
 20
-27.5901
 11
30.0832
 21
-27.5243
  0
LINE
  8
0
 10
30.0832
 20
-27.5243
 11
30.0882
 21
-27.5234
  0
LINE
  8
0
 10
30.0882
 20
-27.5234
 11
32.8402
 21
-26.8723
  0
LINE
  8
0
 10
32.8402
 20
-26.8723
 11
34.2812
 21
-26.5308
  0
LINE
  8
0
 10
34.2812
 20
-26.5308
 11
34.2838
 21
-26.5301
  0
LINE
  8
0
 10
34.2838
 20
-26.5301
 11
35.8892
 21
-26.0287
  0
LINE
  8
0
 10
35.8892
 20
-26.0287
 11
36.5221
 21
-25.8313
  0
LINE
  8
0
 10
36.5221
 20
-25.8313
 11
37.7887
 21
-25.374
  0
LINE
  8
0
 10
37.7887
 20
-25.374
 11
38.4334
 21
-25.1419
  0
LINE
  8
0
 10
38.4334
 20
-25.1419
 11
38.4402
 21
-25.1393
  0
LINE
  8
0
 10
38.4402
 20
-25.1393
 11
41.117
 21
-23.9782
  0
LINE
  8
0
 10
41.117
 20
-23.9782
 11
42.1243
 21
-23.5578
  0
LINE
  8
0
 10
42.1243
 20
-23.5578
 11
42.2104
 21
-23.5174
  0
LINE
  8
0
 10
42.2104
 20
-23.5174
 11
43.0325
 21
-23.1063
  0
LINE
  8
0
 10
43.0325
 20
-23.1063
 11
43.694
 21
-22.7861
  0
LINE
  8
0
 10
43.694
 20
-22.7861
 11
44.9789
 21
-22.0887
  0
LINE
  8
0
 10
44.9789
 20
-22.0887
 11
45.5367
 21
-21.7888
  0
LINE
  8
0
 10
45.5367
 20
-21.7888
 11
45.5619
 21
-21.7746
  0
LINE
  8
0
 10
45.5619
 20
-21.7746
 11
47.9798
 21
-20.2661
  0
LINE
  8
0
 10
47.9798
 20
-20.2661
 11
49.0202
 21
-19.6222
  0
LINE
  8
0
 10
49.0202
 20
-19.6222
 11
49.0231
 21
-19.6202
  0
LINE
  8
0
 10
49.0231
 20
-19.6202
 11
49.7924
 21
-19.0795
  0
LINE
  8
0
 10
49.7924
 20
-19.0795
 11
50.1841
 21
-18.8039
  0
LINE
  8
0
 10
50.1841
 20
-18.8039
 11
51.5705
 21
-17.7404
  0
LINE
  8
0
 10
51.5705
 20
-17.7404
 11
52.2105
 21
-17.2434
  0
LINE
  8
0
 10
52.2105
 20
-17.2434
 11
52.2384
 21
-17.2205
  0
LINE
  8
0
 10
52.2384
 20
-17.2205
 11
54.0865
 21
-15.5764
  0
LINE
  8
0
 10
54.0865
 20
-15.5764
 11
54.9033
 21
-14.8412
  0
LINE
  8
0
 10
54.9033
 20
-14.8412
 11
55.1714
 21
-14.575
  0
LINE
  8
0
 10
55.1714
 20
-14.575
 11
55.2805
 21
-14.4668
  0
LINE
  8
0
 10
55.2805
 20
-14.4668
 11
55.9444
 21
-13.773
  0
LINE
  8
0
 10
55.9444
 20
-13.773
 11
56.5098
 21
-13.1505
  0
LINE
  8
0
 10
56.5098
 20
-13.1505
 11
56.5886
 21
-13.0602
  0
LINE
  8
0
 10
56.5886
 20
-13.0602
 11
57.9214
 21
-11.4628
  0
LINE
  8
0
 10
57.9214
 20
-11.4628
 11
57.9804
 21
-11.388
  0
LINE
  8
0
 10
57.9804
 20
-11.388
 11
58.6848
 21
-10.3862
  0
LINE
  8
0
 10
58.6848
 20
-10.3862
 11
59.1843
 21
-9.71173
  0
LINE
  8
0
 10
59.1843
 20
-9.71173
 11
59.2493
 21
-9.61128
  0
LINE
  8
0
 10
59.2493
 20
-9.61128
 11
59.7362
 21
-8.82254
  0
LINE
  8
0
 10
59.7362
 20
-8.82254
 11
59.8961
 21
-8.5612
  0
LINE
  8
0
 10
59.8961
 20
-8.5612
 11
59.9012
 21
-8.55258
  0
LINE
  8
0
 10
59.9012
 20
-8.55258
 11
60.0563
 21
-8.27837
  0
LINE
  8
0
 10
60.0563
 20
-8.27837
 11
60.8293
 21
-6.65892
  0
LINE
  8
0
 10
60.8293
 20
-6.65892
 11
61.2003
 21
-5.92143
  0
LINE
  8
0
 10
61.2003
 20
-5.92143
 11
61.2081
 21
-5.90237
  0
LINE
  8
0
 10
61.2081
 20
-5.90237
 11
61.3122
 21
-5.63498
  0
LINE
  8
0
 10
61.3122
 20
-5.63498
 11
61.3821
 21
-5.45976
  0
LINE
  8
0
 10
61.3821
 20
-5.45976
 11
61.8013
 21
-4.10689
  0
LINE
  8
0
 10
61.8013
 20
-4.10689
 11
62.0028
 21
-3.46677
  0
LINE
  8
0
 10
62.0028
 20
-3.46677
 11
62.0052
 21
-3.45691
  0
LINE
  8
0
 10
62.0052
 20
-3.45691
 11
62.1307
 21
-2.87215
  0
LINE
  8
0
 10
62.1307
 20
-2.87215
 11
62.1885
 21
-2.6076
  0
LINE
  8
0
 10
62.1885
 20
-2.6076
 11
62.1889
 21
-2.60529
  0
LINE
  8
0
 10
62.1889
 20
-2.60529
 11
62.3167
 21
-1.6946
  0
LINE
  8
0
 10
62.3167
 20
-1.6946
 11
62.3795
 21
-1.24361
  0
LINE
  8
0
 10
62.3795
 20
-1.24361
 11
62.421
 21
-0.525223
  0
LINE
  8
0
 10
62.421
 20
-0.525223
 11
62.4364
 21
-0.255997
  0
LINE
  8
0
 10
62.4364
 20
-0.255997
 11
62.4364
 21
-0.254898
  0
LINE
  8
0
 10
62.4364
 20
-0.254898
 11
62.3439
 21
1.28186
  0
LINE
  8
0
 10
62.3439
 20
1.28186
 11
62.3345
 21
1.43674
  0
LINE
  8
0
 10
62.3345
 20
1.43674
 11
62.2948
 21
2.07033
  0
LINE
  8
0
 10
62.2948
 20
2.07033
 11
62.2943
 21
2.07387
  0
LINE
  8
0
 10
62.2943
 20
2.07387
 11
62.2647
 21
2.26974
  0
LINE
  8
0
 10
62.2647
 20
2.26974
 11
62.2345
 21
2.44878
  0
LINE
  8
0
 10
62.2345
 20
2.44878
 11
62.2293
 21
2.4787
  0
LINE
  8
0
 10
62.2293
 20
2.4787
 11
62.1461
 21
2.93092
  0
LINE
  8
0
 10
62.1461
 20
2.93092
 11
62.1301
 21
3.01105
  0
LINE
  8
0
 10
62.1301
 20
3.01105
 11
61.7815
 21
4.3145
  0
LINE
  8
0
 10
61.7815
 20
4.3145
 11
61.6214
 21
4.88829
  0
LINE
  8
0
 10
61.6214
 20
4.88829
 11
61.6136
 21
4.91151
  0
LINE
  8
0
 10
61.6136
 20
4.91151
 11
60.9618
 21
6.51311
  0
LINE
  8
0
 10
60.9618
 20
6.51311
 11
60.6692
 21
7.21257
  0
LINE
  8
0
 10
60.6692
 20
7.21257
 11
60.6623
 21
7.22679
  0
LINE
  8
0
 10
60.6623
 20
7.22679
 11
60.6209
 21
7.31052
  0
LINE
  8
0
 10
60.6209
 20
7.31052
 11
60.433
 21
7.68178
  0
LINE
  8
0
 10
60.433
 20
7.68178
 11
60.4216
 21
7.70404
  0
LINE
  8
0
 10
60.4216
 20
7.70404
 11
60.2888
 21
7.95291
  0
LINE
  8
0
 10
60.2888
 20
7.95291
 11
60.2671
 21
7.99286
  0
LINE
  8
0
 10
60.2671
 20
7.99286
 11
59.17
 21
9.77988
  0
LINE
  8
0
 10
59.17
 20
9.77988
 11
59.0793
 21
9.92293
  0
LINE
  8
0
 10
59.0793
 20
9.92293
 11
58.6403
 21
10.6018
  0
LINE
  8
0
 10
58.6403
 20
10.6018
 11
58.6212
 21
10.6285
  0
LINE
  8
0
 10
58.6212
 20
10.6285
 11
58.0597
 21
11.384
  0
LINE
  8
0
 10
58.0597
 20
11.384
 11
57.8663
 21
11.6395
  0
LINE
  8
0
 10
57.8663
 20
11.6395
 11
56.9706
 21
12.7129
  0
LINE
  8
0
 10
56.9706
 20
12.7129
 11
56.5943
 21
13.1606
  0
LINE
  8
0
 10
56.5943
 20
13.1606
 11
56.5839
 21
13.1722
  0
LINE
  8
0
 10
56.5839
 20
13.1722
 11
55.5837
 21
14.2289
  0
LINE
  8
0
 10
55.5837
 20
14.2289
 11
55.1761
 21
14.6597
  0
LINE
  8
0
 10
55.1761
 20
14.6597
 11
55.1643
 21
14.6715
  0
LINE
  8
0
 10
55.1643
 20
14.6715
 11
53.7506
 21
15.9807
  0
LINE
  8
0
 10
53.7506
 20
15.9807
 11
53.1711
 21
16.5209
  0
LINE
  8
0
 10
53.1711
 20
16.5209
 11
52.955
 21
16.7043
  0
LINE
  8
0
 10
52.955
 20
16.7043
 11
52.2289
 21
17.3114
  0
LINE
  8
0
 10
52.2289
 20
17.3114
 11
52.1961
 21
17.3383
  0
LINE
  8
0
 10
52.1961
 20
17.3383
 11
51.3578
 21
17.9767
  0
LINE
  8
0
 10
51.3578
 20
17.9767
 11
51.181
 21
18.1094
  0
LINE
  8
0
 10
51.181
 20
18.1094
 11
48.9432
 21
19.7506
  0
LINE
  8
0
 10
48.9432
 20
19.7506
 11
48.8841
 21
19.7909
  0
LINE
  8
0
 10
48.8841
 20
19.7909
 11
47.5221
 21
20.655
  0
LINE
  8
0
 10
47.5221
 20
20.655
 11
46.7664
 21
21.1456
  0
LINE
  8
0
 10
46.7664
 20
21.1456
 11
46.5681
 21
21.2636
  0
LINE
  8
0
 10
46.5681
 20
21.2636
 11
45.3528
 21
21.963
  0
LINE
  8
0
 10
45.3528
 20
21.963
 11
45.2636
 21
22.0135
  0
LINE
  8
0
 10
45.2636
 20
22.0135
 11
44.3924
 21
22.4845
  0
LINE
  8
0
 10
44.3924
 20
22.4845
 11
43.196
 21
23.1128
  0
LINE
  8
0
 10
43.196
 20
23.1128
 11
43.1826
 21
23.1196
  0
LINE
  8
0
 10
43.1826
 20
23.1196
 11
40.7141
 21
24.2408
  0
LINE
  8
0
 10
40.7141
 20
24.2408
 11
39.4669
 21
24.8042
  0
LINE
  8
0
 10
39.4669
 20
24.8042
 11
39.3919
 21
24.8346
  0
LINE
  8
0
 10
39.3919
 20
24.8346
 11
39.2576
 21
24.8886
  0
LINE
  8
0
 10
39.2576
 20
24.8886
 11
39.2312
 21
24.8991
  0
LINE
  8
0
 10
39.2312
 20
24.8991
 11
36.6563
 21
25.8215
  0
LINE
  8
0
 10
36.6563
 20
25.8215
 11
36.4071
 21
25.9097
  0
LINE
  8
0
 10
36.4071
 20
25.9097
 11
35.2408
 21
26.314
  0
LINE
  8
0
 10
35.2408
 20
26.314
 11
35.1983
 21
26.3269
  0
LINE
  8
0
 10
35.1983
 20
26.3269
 11
32.9976
 21
26.9269
  0
LINE
  8
0
 10
32.9976
 20
26.9269
 11
32.0292
 21
27.1841
  0
LINE
  8
0
 10
32.0292
 20
27.1841
 11
31.5726
 21
27.287
  0
LINE
  8
0
 10
31.5726
 20
27.287
 11
31.1656
 21
27.3748
  0
LINE
  8
0
 10
31.1656
 20
27.3748
 11
31.1081
 21
27.3868
  0
LINE
  8
0
 10
31.1081
 20
27.3868
 11
29.3179
 21
27.718
  0
LINE
  8
0
 10
29.3179
 20
27.718
 11
29.183
 21
27.7417
  0
LINE
  8
0
 10
29.183
 20
27.7417
 11
28.0774
 21
27.9103
  0
LINE
  8
0
 10
28.0774
 20
27.9103
 11
27.936
 21
27.9288
  0
LINE
  8
0
 10
27.936
 20
27.9288
 11
25.5502
 21
28.2003
  0
LINE
  8
0
 10
25.5502
 20
28.2003
 11
25.1398
 21
28.2403
  0
LINE
  8
0
 10
25.1398
 20
28.2403
 11
24.975
 21
28.2537
  0
LINE
  8
0
 10
24.975
 20
28.2537
 11
24.54
 21
28.2846
  0
LINE
  8
0
 10
24.54
 20
28.2846
 11
23.8185
 21
28.3227
  0
LINE
  8
0
 10
23.8185
 20
28.3227
 11
23.6802
 21
28.3293
  0
LINE
  8
0
 10
23.6802
 20
28.3293
 11
20.4027
 21
28.3989
  0
LINE
  8
0
 10
20.4027
 20
28.3989
 11
20.1888
 21
28.3998
  0
LINE
  8
0
 10
20.1888
 20
28.3998
 11
18.9735
 21
28.393
  0
LINE
  8
0
 10
18.9735
 20
28.393
 11
18.8836
 21
28.3904
  0
LINE
  8
0
 10
18.8836
 20
28.3904
 11
17.7694
 21
28.3543
  0
LINE
  8
0
 10
17.7694
 20
28.3543
 11
17.6219
 21
28.3481
  0
LINE
  8
0
 10
17.6219
 20
28.3481
 11
14.9215
 21
28.1604
  0
LINE
  8
0
 10
14.9215
 20
28.1604
 11
13.7903
 21
28.0797
  0
LINE
  8
0
 10
13.7903
 20
28.0797
 11
13.7689
 21
28.0777
  0
LINE
  8
0
 10
13.7689
 20
28.0777
 11
10.5604
 21
27.7026
  0
LINE
  8
0
 10
10.5604
 20
27.7026
 11
8.95287
 21
27.5123
  0
LINE
  8
0
 10
8.95287
 20
27.5123
 11
7.18541
 21
27.2571
  0
LINE
  8
0
 10
7.18541
 20
27.2571
 11
-0.342484
 21
26.0987
  0
LINE
  8
0
 10
-0.342484
 20
26.0987
 11
-0.785614
 21
26.0271
  0
LINE
  8
0
 10
-0.785614
 20
26.0271
 11
-3.90854
 21
25.5008
  0
LINE
  8
0
 10
-3.90854
 20
25.5008
 11
-4.24626
 21
25.4407
  0
LINE
  8
0
 10
-4.24626
 20
25.4407
 11
-11.8283
 21
24.0205
  0
LINE
  8
0
 10
-11.8283
 20
24.0205
 11
-14.0866
 21
23.5816
  0
LINE
  8
0
 10
-14.0866
 20
23.5816
 11
-14.1673
 21
23.5651
  0
LINE
  8
0
 10
-14.1673
 20
23.5651
 11
-18.7919
 21
22.5912
  0
LINE
  8
0
 10
-18.7919
 20
22.5912
 11
-18.7982
 21
22.5898
  0
LINE
  8
0
 10
-18.7982
 20
22.5898
 11
-26.3866
 21
20.8167
  0
LINE
  8
0
 10
-26.3866
 20
20.8167
 11
-30.2284
 21
19.9185
  0
LINE
  8
0
 10
-30.2284
 20
19.9185
 11
-34.4492
 21
18.8353
  0
LINE
  8
0
 10
-34.4492
 20
18.8353
 11
-34.6968
 21
18.7699
  0
LINE
  8
0
 10
-34.6968
 20
18.7699
 11
-39.4364
 21
17.4725
  0
LINE
  8
0
 10
-39.4364
 20
17.4725
 11
-39.8542
 21
17.3577
  0
LINE
  8
0
 10
-39.8542
 20
17.3577
 11
-42.7994
 21
16.5256
  0
LINE
  8
0
 10
-42.7994
 20
16.5256
 11
-46.1317
 21
15.5531
  0
LINE
  8
0
 10
-46.1317
 20
15.5531
 11
-46.1584
 21
15.5451
  0
LINE
  8
0
 10
-46.1584
 20
15.5451
 11
-51.3125
 21
13.9383
  0
LINE
  8
0
 10
-51.3125
 20
13.9383
 11
-53.6543
 21
13.2067
  0
LINE
  8
0
 10
-53.6543
 20
13.2067
 11
-55.6504
 21
12.5492
  0
LINE
  8
0
 10
-55.6504
 20
12.5492
 11
-56.5944
 21
12.2366
  0
LINE
  8
0
 10
-56.5944
 20
12.2366
 11
-56.6584
 21
12.2151
  0
LINE
  8
0
 10
-56.6584
 20
12.2151
 11
-63.5109
 21
9.79695
  0
LINE
  8
0
 10
-63.5109
 20
9.79695
 11
-64.0876
 21
9.59239
  0
LINE
  8
0
 10
-64.0876
 20
9.59239
 11
-66.7607
 21
8.63655
  0
LINE
  8
0
 10
-66.7607
 20
8.63655
 11
-66.8525
 21
8.6021
  0
LINE
  8
0
 10
-66.8525
 20
8.6021
 11
-70.1214
 21
7.35286
  0
LINE
  8
0
 10
-70.1214
 20
7.35286
 11
-70.5072
 21
7.20587
  0
LINE
  8
0
 10
-70.5072
 20
7.20587
 11
-71.1488
 21
6.95709
  0
LINE
  8
0
 10
-71.1488
 20
6.95709
 11
-72.2849
 21
6.50783
  0
LINE
  8
0
 10
-72.2849
 20
6.50783
 11
-74.1105
 21
5.7614
  0
LINE
  8
0
 10
-74.1105
 20
5.7614
 11
-74.4731
 21
5.61191
  0
LINE
  8
0
 10
-74.4731
 20
5.61191
 11
-80.9144
 21
2.90379
  0
LINE
  8
0
 10
-80.9144
 20
2.90379
 11
-81.1207
 21
2.8141
  0
LINE
  8
0
 10
-81.1207
 20
2.8141
 11
-85.3592
 21
0.871368
  0
LINE
  8
0
 10
-85.3592
 20
0.871368
 11
-87.5599
 21
-0.117813
  0
LINE
  8
0
 10
-87.5599
 20
-0.117813
 11
-83.6303
 21
-1.90631
  0
LINE
  8
0
 10
-83.6303
 20
-1.90631
 11
-82.5145
 21
-2.41995
  0
LINE
  8
0
 10
-82.5145
 20
-2.41995
 11
-82.3994
 21
-2.47118
  0
LINE
  8
0
 10
-82.3994
 20
-2.47118
 11
-75.7244
 21
-5.25638
  0
LINE
  8
0
 10
-75.7244
 20
-5.25638
 11
-73.3439
 21
-6.27402
  0
LINE
  8
0
 10
-73.3439
 20
-6.27402
 11
-73.2037
 21
-6.33018
  0
LINE
  8
0
 10
-73.2037
 20
-6.33018
 11
-72.7614
 21
-6.50465
  0
LINE
  8
0
 10
-72.7614
 20
-6.50465
 11
-72.056
 21
-6.78642
  0
LINE
  8
0
 10
-72.056
 20
-6.78642
 11
-67.7804
 21
-8.41547
  0
LINE
  8
0
 10
-67.7804
 20
-8.41547
 11
-66.1998
 21
-9.0155
  0
LINE
  8
0
 10
-66.1998
 20
-9.0155
 11
-66.1573
 21
-9.03114
  0
LINE
  8
0
 10
-66.1573
 20
-9.03114
 11
-59.2508
 21
-11.4474
  0
LINE
  8
0
 10
-59.2508
 20
-11.4474
 11
-58.6616
 21
-11.6527
  0
LINE
  8
0
 10
-58.6616
 20
-11.6527
 11
-56.2755
 21
-12.4838
  0
LINE
  8
0
 10
-56.2755
 20
-12.4838
 11
-54.9769
 21
-12.9098
  0
LINE
  8
0
 10
-54.9769
 20
-12.9098
 11
-54.5615
 21
-13.046
  0
LINE
  8
0
 10
-54.5615
 20
-13.046
 11
-48.7282
 21
-14.8567
  0
LINE
  8
0
 10
-48.7282
 20
-14.8567
 11
-46.0631
 21
-15.685
  0
LINE
  8
0
 10
-46.0631
 20
-15.685
 11
-46.0471
 21
-15.6898
  0
LINE
  8
0
 10
-46.0471
 20
-15.6898
 11
-42.7125
 21
-16.6532
  0
LINE
  8
0
 10
-42.7125
 20
-16.6532
 11
-39.8271
 21
-17.4596
  0
LINE
  8
0
 10
-39.8271
 20
-17.4596
 11
-39.4139
 21
-17.572
  0
LINE
  8
0
 10
-39.4139
 20
-17.572
 11
-34.0872
 21
-19.0077
  0
LINE
  8
0
 10
-34.0872
 20
-19.0077
 11
-33.5274
 21
-19.1532
  0
LINE
  8
0
 10
-33.5274
 20
-19.1532
 11
-31.0601
 21
-19.7762
  0
LINE
  8
0
 10
-31.0601
 20
-19.7762
 11
-28.5218
 21
-20.394
  0
LINE
  8
0
 10
-28.5218
 20
-20.394
 11
-28.1093
 21
-20.4923
  0
LINE
  8
0
 10
-28.1093
 20
-20.4923
 11
-20.4896
 21
-22.2509
  0
LINE
  8
0
 10
-20.4896
 20
-22.2509
 11
-20.1327
 21
-22.3301
  0
LINE
  8
0
 10
-20.1327
 20
-22.3301
 11
-16.7881
 21
-23.0251
  0
LINE
  8
0
 10
-16.7881
 20
-23.0251
 11
-14.1288
 21
-23.5978
  0
LINE
  8
0
 10
-14.1288
 20
-23.5978
 11
-12.0175
 21
-24.0164
  0
LINE
  8
0
 10
-12.0175
 20
-24.0164
 11
-2.48759
 21
-25.7476
  0
LINE
  8
0
 10
-2.48759
 20
-25.7476
 11
9.02704
 21
-27.4877
  0
LINE
  8
0
 10
9.02704
 20
-27.4877
 11
9.67567
 21
-27.5704
  0
LINE
  8
0
 10
9.67567
 20
-27.5704
 11
12.6899
 21
-27.9184
  0
LINE
  8
0
 10
12.6899
 20
-27.9184
 11
12.8815
 21
-27.9389
  0
LINE
  8
0
 10
12.8815
 20
-27.9389
 11
14.4947
 21
-28.0844
  0
LINE
  8
0
 10
14.4947
 20
-28.0844
 11
14.7063
 21
-28.1002
  0
LINE
  8
0
 10
14.7063
 20
-28.1002
 11
17.6407
 21
-28.2917
  0
LINE
  8
0
 10
17.6407
 20
-28.2917
 11
17.7433
 21
-28.2964
  0
LINE
  8
0
 10
17.7433
 20
-28.2964
 11
19.0734
 21
-28.3249
  0
LINE
  8
0
 10
19.0734
 20
-28.3249
 11
21.444
 21
-28.3502
  0
ENDSEC
  0
SECTION
  2
OBJECTS
  0
DICTIONARY
  0
ENDSEC
  0
EOF
