  0
SECTION
  2
BLOCKS
  0
ENDSEC
  0
SECTION
  2
ENTITIES
  0
LINE
  8
0
 10
-87.5599
 20
-0.117814
 11
-83.292
 21
-2.06028
  0
LINE
  8
0
 10
-83.292
 20
-2.06028
 11
-82.3994
 21
-2.47118
  0
LINE
  8
0
 10
-82.3994
 20
-2.47118
 11
-75.3579
 21
-5.40932
  0
LINE
  8
0
 10
-75.3579
 20
-5.40932
 11
-73.2037
 21
-6.33019
  0
LINE
  8
0
 10
-73.2037
 20
-6.33019
 11
-72.7614
 21
-6.50465
  0
LINE
  8
0
 10
-72.7614
 20
-6.50465
 11
-72.056
 21
-6.78643
  0
LINE
  8
0
 10
-72.056
 20
-6.78643
 11
-67.7805
 21
-8.41548
  0
LINE
  8
0
 10
-67.7805
 20
-8.41548
 11
-66.1998
 21
-9.01551
  0
LINE
  8
0
 10
-66.1998
 20
-9.01551
 11
-58.6616
 21
-11.6527
  0
LINE
  8
0
 10
-58.6616
 20
-11.6527
 11
-56.2755
 21
-12.4838
  0
LINE
  8
0
 10
-56.2755
 20
-12.4838
 11
-54.9769
 21
-12.9098
  0
LINE
  8
0
 10
-54.9769
 20
-12.9098
 11
-54.5615
 21
-13.046
  0
LINE
  8
0
 10
-54.5615
 20
-13.046
 11
-48.1792
 21
-15.0271
  0
LINE
  8
0
 10
-48.1792
 20
-15.0271
 11
-46.0471
 21
-15.6898
  0
LINE
  8
0
 10
-46.0471
 20
-15.6898
 11
-42.7125
 21
-16.6532
  0
LINE
  8
0
 10
-42.7125
 20
-16.6532
 11
-39.8271
 21
-17.4596
  0
LINE
  8
0
 10
-39.8271
 20
-17.4596
 11
-33.9752
 21
-19.0368
  0
LINE
  8
0
 10
-33.9752
 20
-19.0368
 11
-33.5274
 21
-19.1532
  0
LINE
  8
0
 10
-33.5274
 20
-19.1532
 11
-31.0601
 21
-19.7762
  0
LINE
  8
0
 10
-31.0601
 20
-19.7762
 11
-28.5218
 21
-20.394
  0
LINE
  8
0
 10
-28.5218
 20
-20.394
 11
-20.1327
 21
-22.3301
  0
LINE
  8
0
 10
-20.1327
 20
-22.3301
 11
-16.7881
 21
-23.0251
  0
LINE
  8
0
 10
-16.7881
 20
-23.0251
 11
-14.1298
 21
-23.5976
  0
LINE
  8
0
 10
-14.1298
 20
-23.5976
 11
-12.5887
 21
-23.9032
  0
LINE
  8
0
 10
-12.5887
 20
-23.9032
 11
-12.0175
 21
-24.0164
  0
LINE
  8
0
 10
-12.0175
 20
-24.0164
 11
-5.08478
 21
-25.2758
  0
LINE
  8
0
 10
-5.08478
 20
-25.2758
 11
-2.4876
 21
-25.7476
  0
LINE
  8
0
 10
-2.4876
 20
-25.7476
 11
5.85841
 21
-27.0089
  0
LINE
  8
0
 10
5.85841
 20
-27.0089
 11
9.02705
 21
-27.4877
  0
LINE
  8
0
 10
9.02705
 20
-27.4877
 11
9.54594
 21
-27.5539
  0
LINE
  8
0
 10
9.54594
 20
-27.5539
 11
12.8815
 21
-27.9389
  0
LINE
  8
0
 10
12.8815
 20
-27.9389
 11
14.4947
 21
-28.0844
  0
LINE
  8
0
 10
14.4947
 20
-28.0844
 11
17.7433
 21
-28.2964
  0
LINE
  8
0
 10
17.7433
 20
-28.2964
 11
19.0734
 21
-28.3249
  0
LINE
  8
0
 10
19.0734
 20
-28.3249
 11
21.444
 21
-28.3502
  0
LINE
  8
0
 10
21.444
 20
-28.3502
 11
21.5848
 21
-28.3475
  0
LINE
  8
0
 10
21.5848
 20
-28.3475
 11
22.3724
 21
-28.3283
  0
LINE
  8
0
 10
22.3724
 20
-28.3283
 11
23.3716
 21
-28.2733
  0
LINE
  8
0
 10
23.3716
 20
-28.2733
 11
26.4474
 21
-28.0501
  0
LINE
  8
0
 10
26.4474
 20
-28.0501
 11
26.5506
 21
-28.0406
  0
LINE
  8
0
 10
26.5506
 20
-28.0406
 11
27.9621
 21
-27.8505
  0
LINE
  8
0
 10
27.9621
 20
-27.8505
 11
28.7666
 21
-27.7498
  0
LINE
  8
0
 10
28.7666
 20
-27.7498
 11
29.7005
 21
-27.5901
  0
LINE
  8
0
 10
29.7005
 20
-27.5901
 11
30.0832
 21
-27.5244
  0
LINE
  8
0
 10
30.0832
 20
-27.5244
 11
33.1311
 21
-26.8033
  0
LINE
  8
0
 10
33.1311
 20
-26.8033
 11
34.2838
 21
-26.5301
  0
LINE
  8
0
 10
34.2838
 20
-26.5301
 11
35.8892
 21
-26.0287
  0
LINE
  8
0
 10
35.8892
 20
-26.0287
 11
36.5221
 21
-25.8313
  0
LINE
  8
0
 10
36.5221
 20
-25.8313
 11
37.9244
 21
-25.325
  0
LINE
  8
0
 10
37.9244
 20
-25.325
 11
38.4402
 21
-25.1393
  0
LINE
  8
0
 10
38.4402
 20
-25.1393
 11
41.3876
 21
-23.8608
  0
LINE
  8
0
 10
41.3876
 20
-23.8608
 11
42.2104
 21
-23.5174
  0
LINE
  8
0
 10
42.2104
 20
-23.5174
 11
43.0325
 21
-23.1063
  0
LINE
  8
0
 10
43.0325
 20
-23.1063
 11
43.694
 21
-22.7861
  0
LINE
  8
0
 10
43.694
 20
-22.7861
 11
45.1156
 21
-22.0145
  0
LINE
  8
0
 10
45.1156
 20
-22.0145
 11
45.5619
 21
-21.7746
  0
LINE
  8
0
 10
45.5619
 20
-21.7746
 11
47.9798
 21
-20.2661
  0
LINE
  8
0
 10
47.9798
 20
-20.2661
 11
49.0203
 21
-19.6222
  0
LINE
  8
0
 10
49.0203
 20
-19.6222
 11
49.8708
 21
-19.0244
  0
LINE
  8
0
 10
49.8708
 20
-19.0244
 11
50.1841
 21
-18.8039
  0
LINE
  8
0
 10
50.1841
 20
-18.8039
 11
51.5705
 21
-17.7404
  0
LINE
  8
0
 10
51.5705
 20
-17.7404
 11
52.2105
 21
-17.2434
  0
LINE
  8
0
 10
52.2105
 20
-17.2434
 11
54.2521
 21
-15.4272
  0
LINE
  8
0
 10
54.2521
 20
-15.4272
 11
54.9055
 21
-14.839
  0
LINE
  8
0
 10
54.9055
 20
-14.839
 11
55.1714
 21
-14.575
  0
LINE
  8
0
 10
55.1714
 20
-14.575
 11
55.2805
 21
-14.4668
  0
LINE
  8
0
 10
55.2805
 20
-14.4668
 11
55.9444
 21
-13.773
  0
LINE
  8
0
 10
55.9444
 20
-13.773
 11
56.5098
 21
-13.1505
  0
LINE
  8
0
 10
56.5098
 20
-13.1505
 11
57.9804
 21
-11.388
  0
LINE
  8
0
 10
57.9804
 20
-11.388
 11
58.6848
 21
-10.3862
  0
LINE
  8
0
 10
58.6848
 20
-10.3862
 11
59.1843
 21
-9.71174
  0
LINE
  8
0
 10
59.1843
 20
-9.71174
 11
59.2363
 21
-9.63138
  0
LINE
  8
0
 10
59.2363
 20
-9.63138
 11
59.7732
 21
-8.76166
  0
LINE
  8
0
 10
59.7732
 20
-8.76166
 11
59.9012
 21
-8.55259
  0
LINE
  8
0
 10
59.9012
 20
-8.55259
 11
60.0563
 21
-8.27837
  0
LINE
  8
0
 10
60.0563
 20
-8.27837
 11
60.8621
 21
-6.59027
  0
LINE
  8
0
 10
60.8621
 20
-6.59027
 11
61.2081
 21
-5.90238
  0
LINE
  8
0
 10
61.2081
 20
-5.90238
 11
61.3122
 21
-5.63499
  0
LINE
  8
0
 10
61.3122
 20
-5.63499
 11
61.3821
 21
-5.45977
  0
LINE
  8
0
 10
61.3821
 20
-5.45977
 11
61.844
 21
-3.969
  0
LINE
  8
0
 10
61.844
 20
-3.969
 11
62.0052
 21
-3.45692
  0
LINE
  8
0
 10
62.0052
 20
-3.45692
 11
62.1307
 21
-2.87215
  0
LINE
  8
0
 10
62.1307
 20
-2.87215
 11
62.1885
 21
-2.60761
  0
LINE
  8
0
 10
62.1885
 20
-2.60761
 11
62.3293
 21
-1.6044
  0
LINE
  8
0
 10
62.3293
 20
-1.6044
 11
62.3795
 21
-1.24362
  0
LINE
  8
0
 10
62.3795
 20
-1.24362
 11
62.421
 21
-0.52523
  0
LINE
  8
0
 10
62.421
 20
-0.52523
 11
62.4364
 21
-0.256005
  0
LINE
  8
0
 10
62.4364
 20
-0.256005
 11
62.3345
 21
1.43675
  0
LINE
  8
0
 10
62.3345
 20
1.43675
 11
62.2949
 21
2.07034
  0
LINE
  8
0
 10
62.2949
 20
2.07034
 11
62.2647
 21
2.26976
  0
LINE
  8
0
 10
62.2647
 20
2.26976
 11
62.2346
 21
2.44879
  0
LINE
  8
0
 10
62.2346
 20
2.44879
 11
62.1429
 21
2.94696
  0
LINE
  8
0
 10
62.1429
 20
2.94696
 11
62.1301
 21
3.01105
  0
LINE
  8
0
 10
62.1301
 20
3.01105
 11
61.7815
 21
4.31451
  0
LINE
  8
0
 10
61.7815
 20
4.31451
 11
61.6214
 21
4.8883
  0
LINE
  8
0
 10
61.6214
 20
4.8883
 11
60.9032
 21
6.65302
  0
LINE
  8
0
 10
60.9032
 20
6.65302
 11
60.6692
 21
7.21258
  0
LINE
  8
0
 10
60.6692
 20
7.21258
 11
60.6623
 21
7.2268
  0
LINE
  8
0
 10
60.6623
 20
7.2268
 11
60.6287
 21
7.29483
  0
LINE
  8
0
 10
60.6287
 20
7.29483
 11
60.4216
 21
7.70405
  0
LINE
  8
0
 10
60.4216
 20
7.70405
 11
60.2888
 21
7.95291
  0
LINE
  8
0
 10
60.2888
 20
7.95291
 11
59.0793
 21
9.92294
  0
LINE
  8
0
 10
59.0793
 20
9.92294
 11
58.6403
 21
10.6018
  0
LINE
  8
0
 10
58.6403
 20
10.6018
 11
58.021
 21
11.4351
  0
LINE
  8
0
 10
58.021
 20
11.4351
 11
57.8663
 21
11.6395
  0
LINE
  8
0
 10
57.8663
 20
11.6395
 11
56.9706
 21
12.7129
  0
LINE
  8
0
 10
56.9706
 20
12.7129
 11
56.5943
 21
13.1606
  0
LINE
  8
0
 10
56.5943
 20
13.1606
 11
55.4904
 21
14.3268
  0
LINE
  8
0
 10
55.4904
 20
14.3268
 11
55.1643
 21
14.6715
  0
LINE
  8
0
 10
55.1643
 20
14.6715
 11
53.7506
 21
15.9807
  0
LINE
  8
0
 10
53.7506
 20
15.9807
 11
53.1711
 21
16.5209
  0
LINE
  8
0
 10
53.1711
 20
16.5209
 11
52.9982
 21
16.6676
  0
LINE
  8
0
 10
52.9982
 20
16.6676
 11
52.1961
 21
17.3383
  0
LINE
  8
0
 10
52.1961
 20
17.3383
 11
51.3578
 21
17.9767
  0
LINE
  8
0
 10
51.3578
 20
17.9767
 11
48.8841
 21
19.7909
  0
LINE
  8
0
 10
48.8841
 20
19.7909
 11
47.5221
 21
20.655
  0
LINE
  8
0
 10
47.5221
 20
20.655
 11
46.7664
 21
21.1456
  0
LINE
  8
0
 10
46.7664
 20
21.1456
 11
46.6078
 21
21.24
  0
LINE
  8
0
 10
46.6078
 20
21.24
 11
45.2636
 21
22.0135
  0
LINE
  8
0
 10
45.2636
 20
22.0135
 11
44.3924
 21
22.4845
  0
LINE
  8
0
 10
44.3924
 20
22.4845
 11
43.196
 21
23.1128
  0
LINE
  8
0
 10
43.196
 20
23.1128
 11
40.4646
 21
24.3535
  0
LINE
  8
0
 10
40.4646
 20
24.3535
 11
39.4669
 21
24.8042
  0
LINE
  8
0
 10
39.4669
 20
24.8042
 11
39.3919
 21
24.8346
  0
LINE
  8
0
 10
39.3919
 20
24.8346
 11
39.2576
 21
24.8886
  0
LINE
  8
0
 10
39.2576
 20
24.8886
 11
36.4071
 21
25.9097
  0
LINE
  8
0
 10
36.4071
 20
25.9097
 11
35.2408
 21
26.314
  0
LINE
  8
0
 10
35.2408
 20
26.314
 11
32.8039
 21
26.9784
  0
LINE
  8
0
 10
32.8039
 20
26.9784
 11
32.0292
 21
27.1841
  0
LINE
  8
0
 10
32.0292
 20
27.1841
 11
31.5726
 21
27.2871
  0
LINE
  8
0
 10
31.5726
 20
27.2871
 11
31.1656
 21
27.3748
  0
LINE
  8
0
 10
31.1656
 20
27.3748
 11
29.183
 21
27.7417
  0
LINE
  8
0
 10
29.183
 20
27.7417
 11
28.0774
 21
27.9103
  0
LINE
  8
0
 10
28.0774
 20
27.9103
 11
25.4352
 21
28.211
  0
LINE
  8
0
 10
25.4352
 20
28.211
 11
25.1068
 21
28.243
  0
LINE
  8
0
 10
25.1068
 20
28.243
 11
24.975
 21
28.2537
  0
LINE
  8
0
 10
24.975
 20
28.2537
 11
24.5401
 21
28.2846
  0
LINE
  8
0
 10
24.5401
 20
28.2846
 11
23.8185
 21
28.3227
  0
LINE
  8
0
 10
23.8185
 20
28.3227
 11
20.1888
 21
28.3998
  0
LINE
  8
0
 10
20.1888
 20
28.3998
 11
18.9736
 21
28.393
  0
LINE
  8
0
 10
18.9736
 20
28.393
 11
17.7399
 21
28.353
  0
LINE
  8
0
 10
17.7399
 20
28.353
 11
17.6219
 21
28.3481
  0
LINE
  8
0
 10
17.6219
 20
28.3481
 11
14.9215
 21
28.1605
  0
LINE
  8
0
 10
14.9215
 20
28.1605
 11
13.7903
 21
28.0797
  0
LINE
  8
0
 10
13.7903
 20
28.0797
 11
10.2389
 21
27.6646
  0
LINE
  8
0
 10
10.2389
 20
27.6646
 11
8.95287
 21
27.5123
  0
LINE
  8
0
 10
8.95287
 20
27.5123
 11
7.53895
 21
27.3081
  0
LINE
  8
0
 10
7.53895
 20
27.3081
 11
-0.78562
 21
26.0271
  0
LINE
  8
0
 10
-0.78562
 20
26.0271
 11
-3.90855
 21
25.5008
  0
LINE
  8
0
 10
-3.90855
 20
25.5008
 11
-12.28
 21
23.9327
  0
LINE
  8
0
 10
-12.28
 20
23.9327
 11
-14.0866
 21
23.5816
  0
LINE
  8
0
 10
-14.0866
 20
23.5816
 11
-14.1673
 21
23.5651
  0
LINE
  8
0
 10
-14.1673
 20
23.5651
 11
-15.4576
 21
23.2934
  0
LINE
  8
0
 10
-15.4576
 20
23.2934
 11
-18.7919
 21
22.5912
  0
LINE
  8
0
 10
-18.7919
 20
22.5912
 11
-27.1544
 21
20.6372
  0
LINE
  8
0
 10
-27.1544
 20
20.6372
 11
-30.2278
 21
19.9187
  0
LINE
  8
0
 10
-30.2278
 20
19.9187
 11
-33.3278
 21
19.1231
  0
LINE
  8
0
 10
-33.3278
 20
19.1231
 11
-34.4492
 21
18.8353
  0
LINE
  8
0
 10
-34.4492
 20
18.8353
 11
-34.6473
 21
18.783
  0
LINE
  8
0
 10
-34.6473
 20
18.783
 11
-39.8542
 21
17.3577
  0
LINE
  8
0
 10
-39.8542
 20
17.3577
 11
-42.7994
 21
16.5256
  0
LINE
  8
0
 10
-42.7994
 20
16.5256
 11
-46.1318
 21
15.5531
  0
LINE
  8
0
 10
-46.1318
 20
15.5531
 11
-51.7809
 21
13.792
  0
LINE
  8
0
 10
-51.7809
 20
13.792
 11
-53.6543
 21
13.2067
  0
LINE
  8
0
 10
-53.6543
 20
13.2067
 11
-55.6504
 21
12.5492
  0
LINE
  8
0
 10
-55.6504
 20
12.5492
 11
-56.5944
 21
12.2366
  0
LINE
  8
0
 10
-56.5944
 20
12.2366
 11
-64.0876
 21
9.5924
  0
LINE
  8
0
 10
-64.0876
 20
9.5924
 11
-66.7607
 21
8.63656
  0
LINE
  8
0
 10
-66.7607
 20
8.63656
 11
-70.3269
 21
7.2737
  0
LINE
  8
0
 10
-70.3269
 20
7.2737
 11
-70.6356
 21
7.15612
  0
LINE
  8
0
 10
-70.6356
 20
7.15612
 11
-71.1488
 21
6.9571
  0
LINE
  8
0
 10
-71.1488
 20
6.9571
 11
-72.2849
 21
6.50783
  0
LINE
  8
0
 10
-72.2849
 20
6.50783
 11
-74.1106
 21
5.76141
  0
LINE
  8
0
 10
-74.1106
 20
5.76141
 11
-81.1207
 21
2.81412
  0
LINE
  8
0
 10
-81.1207
 20
2.81412
 11
-85.3592
 21
0.87137
  0
LINE
  8
0
 10
-85.3592
 20
0.87137
 11
-87.5599
 21
-0.117814
  0
ENDSEC
  0
SECTION
  2
OBJECTS
  0
DICTIONARY
  0
ENDSEC
  0
EOF
