  0
SECTION
  2
BLOCKS
  0
ENDSEC
  0
SECTION
  2
ENTITIES
  0
LINE
  8
0
 10
21.444
 20
-28.3502
 11
21.5848
 21
-28.3475
  0
LINE
  8
0
 10
21.5848
 20
-28.3475
 11
22.3724
 21
-28.3283
  0
LINE
  8
0
 10
22.3724
 20
-28.3283
 11
22.4136
 21
-28.3271
  0
LINE
  8
0
 10
22.4136
 20
-28.3271
 11
23.163
 21
-28.2859
  0
LINE
  8
0
 10
23.163
 20
-28.2859
 11
23.3716
 21
-28.2733
  0
LINE
  8
0
 10
23.3716
 20
-28.2733
 11
26.4474
 21
-28.0501
  0
LINE
  8
0
 10
26.4474
 20
-28.0501
 11
26.5506
 21
-28.0406
  0
LINE
  8
0
 10
26.5506
 20
-28.0406
 11
26.6148
 21
-28.0339
  0
LINE
  8
0
 10
26.6148
 20
-28.0339
 11
28.1633
 21
-27.8253
  0
LINE
  8
0
 10
28.1633
 20
-27.8253
 11
28.7666
 21
-27.7498
  0
LINE
  8
0
 10
28.7666
 20
-27.7498
 11
29.7912
 21
-27.5746
  0
LINE
  8
0
 10
29.7912
 20
-27.5746
 11
30.0782
 21
-27.5253
  0
LINE
  8
0
 10
30.0782
 20
-27.5253
 11
30.0832
 21
-27.5243
  0
LINE
  8
0
 10
30.0832
 20
-27.5243
 11
33.1311
 21
-26.8033
  0
LINE
  8
0
 10
33.1311
 20
-26.8033
 11
34.2838
 21
-26.5301
  0
LINE
  8
0
 10
34.2838
 20
-26.5301
 11
34.2864
 21
-26.5293
  0
LINE
  8
0
 10
34.2864
 20
-26.5293
 11
36.0312
 21
-25.9844
  0
LINE
  8
0
 10
36.0312
 20
-25.9844
 11
36.5221
 21
-25.8313
  0
LINE
  8
0
 10
36.5221
 20
-25.8313
 11
37.9244
 21
-25.325
  0
LINE
  8
0
 10
37.9244
 20
-25.325
 11
38.4402
 21
-25.1393
  0
LINE
  8
0
 10
38.4402
 20
-25.1393
 11
38.447
 21
-25.1367
  0
LINE
  8
0
 10
38.447
 20
-25.1367
 11
41.4089
 21
-23.8519
  0
LINE
  8
0
 10
41.4089
 20
-23.8519
 11
42.2104
 21
-23.5174
  0
LINE
  8
0
 10
42.2104
 20
-23.5174
 11
42.2965
 21
-23.4771
  0
LINE
  8
0
 10
42.2965
 20
-23.4771
 11
43.1973
 21
-23.0265
  0
LINE
  8
0
 10
43.1973
 20
-23.0265
 11
43.694
 21
-22.7861
  0
LINE
  8
0
 10
43.694
 20
-22.7861
 11
45.1165
 21
-22.014
  0
LINE
  8
0
 10
45.1165
 20
-22.014
 11
45.5619
 21
-21.7746
  0
LINE
  8
0
 10
45.5619
 20
-21.7746
 11
45.5871
 21
-21.7603
  0
LINE
  8
0
 10
45.5871
 20
-21.7603
 11
48.2371
 21
-20.107
  0
LINE
  8
0
 10
48.2371
 20
-20.107
 11
49.0174
 21
-19.6241
  0
LINE
  8
0
 10
49.0174
 20
-19.6241
 11
49.0202
 21
-19.6222
  0
LINE
  8
0
 10
49.0202
 20
-19.6222
 11
49.8708
 21
-19.0244
  0
LINE
  8
0
 10
49.8708
 20
-19.0244
 11
50.1841
 21
-18.8039
  0
LINE
  8
0
 10
50.1841
 20
-18.8039
 11
51.7025
 21
-17.6391
  0
LINE
  8
0
 10
51.7025
 20
-17.6391
 11
52.1825
 21
-17.2664
  0
LINE
  8
0
 10
52.1825
 20
-17.2664
 11
52.2105
 21
-17.2434
  0
LINE
  8
0
 10
52.2105
 20
-17.2434
 11
54.2521
 21
-15.4272
  0
LINE
  8
0
 10
54.2521
 20
-15.4272
 11
54.9055
 21
-14.839
  0
LINE
  8
0
 10
54.9055
 20
-14.839
 11
54.9077
 21
-14.8369
  0
LINE
  8
0
 10
54.9077
 20
-14.8369
 11
55.1987
 21
-14.5479
  0
LINE
  8
0
 10
55.1987
 20
-14.5479
 11
55.2805
 21
-14.4668
  0
LINE
  8
0
 10
55.2805
 20
-14.4668
 11
56.0069
 21
-13.7076
  0
LINE
  8
0
 10
56.0069
 20
-13.7076
 11
56.431
 21
-13.2408
  0
LINE
  8
0
 10
56.431
 20
-13.2408
 11
56.5098
 21
-13.1505
  0
LINE
  8
0
 10
56.5098
 20
-13.1505
 11
57.9804
 21
-11.388
  0
LINE
  8
0
 10
57.9804
 20
-11.388
 11
58.0393
 21
-11.3132
  0
LINE
  8
0
 10
58.0393
 20
-11.3132
 11
58.8097
 21
-10.2176
  0
LINE
  8
0
 10
58.8097
 20
-10.2176
 11
59.1843
 21
-9.71173
  0
LINE
  8
0
 10
59.1843
 20
-9.71173
 11
59.2363
 21
-9.63138
  0
LINE
  8
0
 10
59.2363
 20
-9.63138
 11
59.7732
 21
-8.76164
  0
LINE
  8
0
 10
59.7732
 20
-8.76164
 11
59.9012
 21
-8.55258
  0
LINE
  8
0
 10
59.9012
 20
-8.55258
 11
59.9062
 21
-8.54398
  0
LINE
  8
0
 10
59.9062
 20
-8.54398
 11
60.0757
 21
-8.24425
  0
LINE
  8
0
 10
60.0757
 20
-8.24425
 11
60.9236
 21
-6.46783
  0
LINE
  8
0
 10
60.9236
 20
-6.46783
 11
61.2081
 21
-5.90237
  0
LINE
  8
0
 10
61.2081
 20
-5.90237
 11
61.2159
 21
-5.88332
  0
LINE
  8
0
 10
61.2159
 20
-5.88332
 11
61.3297
 21
-5.59117
  0
LINE
  8
0
 10
61.3297
 20
-5.59117
 11
61.3821
 21
-5.45976
  0
LINE
  8
0
 10
61.3821
 20
-5.45976
 11
61.844
 21
-3.96899
  0
LINE
  8
0
 10
61.844
 20
-3.96899
 11
62.0052
 21
-3.45691
  0
LINE
  8
0
 10
62.0052
 20
-3.45691
 11
62.0076
 21
-3.44707
  0
LINE
  8
0
 10
62.0076
 20
-3.44707
 11
62.1448
 21
-2.80832
  0
LINE
  8
0
 10
62.1448
 20
-2.80832
 11
62.1881
 21
-2.60992
  0
LINE
  8
0
 10
62.1881
 20
-2.60992
 11
62.1885
 21
-2.6076
  0
LINE
  8
0
 10
62.1885
 20
-2.6076
 11
62.3293
 21
-1.60439
  0
LINE
  8
0
 10
62.3293
 20
-1.60439
 11
62.3795
 21
-1.24361
  0
LINE
  8
0
 10
62.3795
 20
-1.24361
 11
62.4248
 21
-0.459015
  0
LINE
  8
0
 10
62.4248
 20
-0.459015
 11
62.4364
 21
-0.257095
  0
LINE
  8
0
 10
62.4364
 20
-0.257095
 11
62.4364
 21
-0.255997
  0
LINE
  8
0
 10
62.4364
 20
-0.255997
 11
62.3345
 21
1.43674
  0
LINE
  8
0
 10
62.3345
 20
1.43674
 11
62.3251
 21
1.59161
  0
LINE
  8
0
 10
62.3251
 20
1.59161
 11
62.2954
 21
2.06679
  0
LINE
  8
0
 10
62.2954
 20
2.06679
 11
62.2647
 21
2.26974
  0
LINE
  8
0
 10
62.2647
 20
2.26974
 11
62.2624
 21
2.28459
  0
LINE
  8
0
 10
62.2624
 20
2.28459
 11
62.2398
 21
2.41885
  0
LINE
  8
0
 10
62.2398
 20
2.41885
 11
62.2345
 21
2.44878
  0
LINE
  8
0
 10
62.2345
 20
2.44878
 11
62.1429
 21
2.94695
  0
LINE
  8
0
 10
62.1429
 20
2.94695
 11
62.1301
 21
3.01105
  0
LINE
  8
0
 10
62.1301
 20
3.01105
 11
61.7493
 21
4.43474
  0
LINE
  8
0
 10
61.7493
 20
4.43474
 11
61.6293
 21
4.86507
  0
LINE
  8
0
 10
61.6293
 20
4.86507
 11
61.6214
 21
4.88829
  0
LINE
  8
0
 10
61.6214
 20
4.88829
 11
60.9032
 21
6.65302
  0
LINE
  8
0
 10
60.9032
 20
6.65302
 11
60.6692
 21
7.21257
  0
LINE
  8
0
 10
60.6692
 20
7.21257
 11
60.6617
 21
7.2281
  0
LINE
  8
0
 10
60.6617
 20
7.2281
 11
60.6287
 21
7.29482
  0
LINE
  8
0
 10
60.6287
 20
7.29482
 11
60.4216
 21
7.70404
  0
LINE
  8
0
 10
60.4216
 20
7.70404
 11
60.4101
 21
7.7263
  0
LINE
  8
0
 10
60.4101
 20
7.7263
 11
60.3106
 21
7.91295
  0
LINE
  8
0
 10
60.3106
 20
7.91295
 11
60.2888
 21
7.95291
  0
LINE
  8
0
 10
60.2888
 20
7.95291
 11
59.0793
 21
9.92293
  0
LINE
  8
0
 10
59.0793
 20
9.92293
 11
58.9887
 21
10.066
  0
LINE
  8
0
 10
58.9887
 20
10.066
 11
58.6595
 21
10.5751
  0
LINE
  8
0
 10
58.6595
 20
10.5751
 11
58.6403
 21
10.6018
  0
LINE
  8
0
 10
58.6403
 20
10.6018
 11
58.021
 21
11.4351
  0
LINE
  8
0
 10
58.021
 20
11.4351
 11
57.8663
 21
11.6395
  0
LINE
  8
0
 10
57.8663
 20
11.6395
 11
56.8869
 21
12.8133
  0
LINE
  8
0
 10
56.8869
 20
12.8133
 11
56.6046
 21
13.1491
  0
LINE
  8
0
 10
56.6046
 20
13.1491
 11
56.5943
 21
13.1606
  0
LINE
  8
0
 10
56.5943
 20
13.1606
 11
55.4904
 21
14.3268
  0
LINE
  8
0
 10
55.4904
 20
14.3268
 11
55.1643
 21
14.6715
  0
LINE
  8
0
 10
55.1643
 20
14.6715
 11
55.1525
 21
14.6832
  0
LINE
  8
0
 10
55.1525
 20
14.6832
 11
53.6057
 21
16.1158
  0
LINE
  8
0
 10
53.6057
 20
16.1158
 11
53.1711
 21
16.5209
  0
LINE
  8
0
 10
53.1711
 20
16.5209
 11
52.9982
 21
16.6676
  0
LINE
  8
0
 10
52.9982
 20
16.6676
 11
52.1961
 21
17.3383
  0
LINE
  8
0
 10
52.1961
 20
17.3383
 11
52.1633
 21
17.3652
  0
LINE
  8
0
 10
52.1633
 20
17.3652
 11
51.5346
 21
17.844
  0
LINE
  8
0
 10
51.5346
 20
17.844
 11
51.3578
 21
17.9767
  0
LINE
  8
0
 10
51.3578
 20
17.9767
 11
48.8841
 21
19.7909
  0
LINE
  8
0
 10
48.8841
 20
19.7909
 11
48.825
 21
19.8312
  0
LINE
  8
0
 10
48.825
 20
19.8312
 11
47.3339
 21
20.7771
  0
LINE
  8
0
 10
47.3339
 20
20.7771
 11
46.7664
 21
21.1456
  0
LINE
  8
0
 10
46.7664
 20
21.1456
 11
46.6077
 21
21.24
  0
LINE
  8
0
 10
46.6077
 20
21.24
 11
45.2636
 21
22.0135
  0
LINE
  8
0
 10
45.2636
 20
22.0135
 11
45.1744
 21
22.0641
  0
LINE
  8
0
 10
45.1744
 20
22.0641
 11
44.521
 21
22.4173
  0
LINE
  8
0
 10
44.521
 20
22.4173
 11
43.2095
 21
23.1061
  0
LINE
  8
0
 10
43.2095
 20
23.1061
 11
43.196
 21
23.1128
  0
LINE
  8
0
 10
43.196
 20
23.1128
 11
40.4646
 21
24.3535
  0
LINE
  8
0
 10
40.4646
 20
24.3535
 11
39.4669
 21
24.8042
  0
LINE
  8
0
 10
39.4669
 20
24.8042
 11
39.3846
 21
24.8376
  0
LINE
  8
0
 10
39.3846
 20
24.8376
 11
39.2576
 21
24.8886
  0
LINE
  8
0
 10
39.2576
 20
24.8886
 11
36.4071
 21
25.9097
  0
LINE
  8
0
 10
36.4071
 20
25.9097
 11
36.158
 21
25.9978
  0
LINE
  8
0
 10
36.158
 20
25.9978
 11
35.2832
 21
26.301
  0
LINE
  8
0
 10
35.2832
 20
26.301
 11
35.2408
 21
26.314
  0
LINE
  8
0
 10
35.2408
 20
26.314
 11
32.8039
 21
26.9784
  0
LINE
  8
0
 10
32.8039
 20
26.9784
 11
32.0292
 21
27.1841
  0
LINE
  8
0
 10
32.0292
 20
27.1841
 11
31.5283
 21
27.297
  0
LINE
  8
0
 10
31.5283
 20
27.297
 11
31.2231
 21
27.3629
  0
LINE
  8
0
 10
31.2231
 20
27.3629
 11
31.1656
 21
27.3748
  0
LINE
  8
0
 10
31.1656
 20
27.3748
 11
29.183
 21
27.7417
  0
LINE
  8
0
 10
29.183
 20
27.7417
 11
29.048
 21
27.7654
  0
LINE
  8
0
 10
29.048
 20
27.7654
 11
28.2189
 21
27.8918
  0
LINE
  8
0
 10
28.2189
 20
27.8918
 11
28.0774
 21
27.9103
  0
LINE
  8
0
 10
28.0774
 20
27.9103
 11
25.4352
 21
28.211
  0
LINE
  8
0
 10
25.4352
 20
28.211
 11
25.1068
 21
28.243
  0
LINE
  8
0
 10
25.1068
 20
28.243
 11
24.975
 21
28.2537
  0
LINE
  8
0
 10
24.975
 20
28.2537
 11
24.4978
 21
28.2876
  0
LINE
  8
0
 10
24.4978
 20
28.2876
 11
23.9566
 21
28.3162
  0
LINE
  8
0
 10
23.9566
 20
28.3162
 11
23.8185
 21
28.3227
  0
LINE
  8
0
 10
23.8185
 20
28.3227
 11
20.1888
 21
28.3998
  0
LINE
  8
0
 10
20.1888
 20
28.3998
 11
19.9749
 21
28.4008
  0
LINE
  8
0
 10
19.9749
 20
28.4008
 11
19.0635
 21
28.3957
  0
LINE
  8
0
 10
19.0635
 20
28.3957
 11
18.9735
 21
28.393
  0
LINE
  8
0
 10
18.9735
 20
28.393
 11
17.7399
 21
28.353
  0
LINE
  8
0
 10
17.7399
 20
28.353
 11
17.6219
 21
28.3481
  0
LINE
  8
0
 10
17.6219
 20
28.3481
 11
14.6601
 21
28.1423
  0
LINE
  8
0
 10
14.6601
 20
28.1423
 11
13.8117
 21
28.0817
  0
LINE
  8
0
 10
13.8117
 20
28.0817
 11
13.7903
 21
28.0797
  0
LINE
  8
0
 10
13.7903
 20
28.0797
 11
10.2389
 21
27.6646
  0
LINE
  8
0
 10
10.2389
 20
27.6646
 11
8.95287
 21
27.5123
  0
LINE
  8
0
 10
8.95287
 20
27.5123
 11
7.53894
 21
27.3081
  0
LINE
  8
0
 10
7.53894
 20
27.3081
 11
-0.785614
 21
26.0271
  0
LINE
  8
0
 10
-0.785614
 20
26.0271
 11
-1.22874
 21
25.9556
  0
LINE
  8
0
 10
-1.22874
 20
25.9556
 11
-3.57082
 21
25.5608
  0
LINE
  8
0
 10
-3.57082
 20
25.5608
 11
-3.90854
 21
25.5008
  0
LINE
  8
0
 10
-3.90854
 20
25.5008
 11
-12.28
 21
23.9327
  0
LINE
  8
0
 10
-12.28
 20
23.9327
 11
-14.0866
 21
23.5816
  0
LINE
  8
0
 10
-14.0866
 20
23.5816
 11
-14.1748
 21
23.5636
  0
LINE
  8
0
 10
-14.1748
 20
23.5636
 11
-18.7855
 21
22.5926
  0
LINE
  8
0
 10
-18.7855
 20
22.5926
 11
-18.7919
 21
22.5912
  0
LINE
  8
0
 10
-18.7919
 20
22.5912
 11
-27.1544
 21
20.6372
  0
LINE
  8
0
 10
-27.1544
 20
20.6372
 11
-30.2278
 21
19.9187
  0
LINE
  8
0
 10
-30.2278
 20
19.9187
 11
-34.4492
 21
18.8353
  0
LINE
  8
0
 10
-34.4492
 20
18.8353
 11
-34.6473
 21
18.783
  0
LINE
  8
0
 10
-34.6473
 20
18.783
 11
-39.8542
 21
17.3577
  0
LINE
  8
0
 10
-39.8542
 20
17.3577
 11
-40.272
 21
17.2428
  0
LINE
  8
0
 10
-40.272
 20
17.2428
 11
-42.4808
 21
16.6188
  0
LINE
  8
0
 10
-42.4808
 20
16.6188
 11
-46.1051
 21
15.5611
  0
LINE
  8
0
 10
-46.1051
 20
15.5611
 11
-46.1317
 21
15.5531
  0
LINE
  8
0
 10
-46.1317
 20
15.5531
 11
-51.7809
 21
13.792
  0
LINE
  8
0
 10
-51.7809
 20
13.792
 11
-53.6543
 21
13.2067
  0
LINE
  8
0
 10
-53.6543
 20
13.2067
 11
-55.8225
 21
12.4925
  0
LINE
  8
0
 10
-55.8225
 20
12.4925
 11
-56.5305
 21
12.258
  0
LINE
  8
0
 10
-56.5305
 20
12.258
 11
-56.5944
 21
12.2366
  0
LINE
  8
0
 10
-56.5944
 20
12.2366
 11
-64.0876
 21
9.59239
  0
LINE
  8
0
 10
-64.0876
 20
9.59239
 11
-64.6642
 21
9.38785
  0
LINE
  8
0
 10
-64.6642
 20
9.38785
 11
-66.669
 21
8.67099
  0
LINE
  8
0
 10
-66.669
 20
8.67099
 11
-66.7607
 21
8.63655
  0
LINE
  8
0
 10
-66.7607
 20
8.63655
 11
-70.3269
 21
7.2737
  0
LINE
  8
0
 10
-70.3269
 20
7.2737
 11
-70.6356
 21
7.15611
  0
LINE
  8
0
 10
-70.6356
 20
7.15611
 11
-71.1488
 21
6.95709
  0
LINE
  8
0
 10
-71.1488
 20
6.95709
 11
-72.3788
 21
6.47067
  0
LINE
  8
0
 10
-72.3788
 20
6.47067
 11
-73.748
 21
5.91089
  0
LINE
  8
0
 10
-73.748
 20
5.91089
 11
-74.1105
 21
5.7614
  0
LINE
  8
0
 10
-74.1105
 20
5.7614
 11
-81.1207
 21
2.8141
  0
LINE
  8
0
 10
-81.1207
 20
2.8141
 11
-81.3271
 21
2.72443
  0
LINE
  8
0
 10
-81.3271
 20
2.72443
 11
-85.9079
 21
0.624725
  0
LINE
  8
0
 10
-85.9079
 20
0.624725
 11
-87.5599
 21
-0.117813
  0
LINE
  8
0
 10
-87.5599
 20
-0.117813
 11
-83.2898
 21
-2.06125
  0
LINE
  8
0
 10
-83.2898
 20
-2.06125
 11
-82.3994
 21
-2.47118
  0
LINE
  8
0
 10
-82.3994
 20
-2.47118
 11
-82.2843
 21
-2.5224
  0
LINE
  8
0
 10
-82.2843
 20
-2.5224
 11
-75.0465
 21
-5.54243
  0
LINE
  8
0
 10
-75.0465
 20
-5.54243
 11
-73.2037
 21
-6.33018
  0
LINE
  8
0
 10
-73.2037
 20
-6.33018
 11
-73.0636
 21
-6.38635
  0
LINE
  8
0
 10
-73.0636
 20
-6.38635
 11
-72.5863
 21
-6.57463
  0
LINE
  8
0
 10
-72.5863
 20
-6.57463
 11
-72.056
 21
-6.78642
  0
LINE
  8
0
 10
-72.056
 20
-6.78642
 11
-67.4277
 21
-8.54987
  0
LINE
  8
0
 10
-67.4277
 20
-8.54987
 11
-66.2423
 21
-8.99986
  0
LINE
  8
0
 10
-66.2423
 20
-8.99986
 11
-66.1998
 21
-9.0155
  0
LINE
  8
0
 10
-66.1998
 20
-9.0155
 11
-58.6616
 21
-11.6527
  0
LINE
  8
0
 10
-58.6616
 20
-11.6527
 11
-58.0724
 21
-11.8581
  0
LINE
  8
0
 10
-58.0724
 20
-11.8581
 11
-56.2829
 21
-12.4814
  0
LINE
  8
0
 10
-56.2829
 20
-12.4814
 11
-54.9769
 21
-12.9098
  0
LINE
  8
0
 10
-54.9769
 20
-12.9098
 11
-54.5615
 21
-13.046
  0
LINE
  8
0
 10
-54.5615
 20
-13.046
 11
-48.1792
 21
-15.0271
  0
LINE
  8
0
 10
-48.1792
 20
-15.0271
 11
-46.0471
 21
-15.6898
  0
LINE
  8
0
 10
-46.0471
 20
-15.6898
 11
-46.0311
 21
-15.6945
  0
LINE
  8
0
 10
-46.0311
 20
-15.6945
 11
-42.4042
 21
-16.7424
  0
LINE
  8
0
 10
-42.4042
 20
-16.7424
 11
-40.2402
 21
-17.3472
  0
LINE
  8
0
 10
-40.2402
 20
-17.3472
 11
-39.8271
 21
-17.4596
  0
LINE
  8
0
 10
-39.8271
 20
-17.4596
 11
-33.9752
 21
-19.0368
  0
LINE
  8
0
 10
-33.9752
 20
-19.0368
 11
-33.5274
 21
-19.1532
  0
LINE
  8
0
 10
-33.5274
 20
-19.1532
 11
-30.838
 21
-19.8322
  0
LINE
  8
0
 10
-30.838
 20
-19.8322
 11
-28.9343
 21
-20.2956
  0
LINE
  8
0
 10
-28.9343
 20
-20.2956
 11
-28.5218
 21
-20.394
  0
LINE
  8
0
 10
-28.5218
 20
-20.394
 11
-20.1327
 21
-22.3301
  0
LINE
  8
0
 10
-20.1327
 20
-22.3301
 11
-19.7758
 21
-22.4093
  0
LINE
  8
0
 10
-19.7758
 20
-22.4093
 11
-16.1244
 21
-23.168
  0
LINE
  8
0
 10
-16.1244
 20
-23.168
 11
-14.1298
 21
-23.5976
  0
LINE
  8
0
 10
-14.1298
 20
-23.5976
 11
-12.0175
 21
-24.0164
  0
LINE
  8
0
 10
-12.0175
 20
-24.0164
 11
-2.48759
 21
-25.7476
  0
LINE
  8
0
 10
-2.48759
 20
-25.7476
 11
9.02704
 21
-27.4877
  0
LINE
  8
0
 10
9.02704
 20
-27.4877
 11
9.54593
 21
-27.5539
  0
LINE
  8
0
 10
9.54593
 20
-27.5539
 11
12.8815
 21
-27.9389
  0
LINE
  8
0
 10
12.8815
 20
-27.9389
 11
13.0732
 21
-27.9595
  0
LINE
  8
0
 10
13.0732
 20
-27.9595
 11
14.283
 21
-28.0686
  0
LINE
  8
0
 10
14.283
 20
-28.0686
 11
14.4947
 21
-28.0844
  0
LINE
  8
0
 10
14.4947
 20
-28.0844
 11
17.7433
 21
-28.2964
  0
LINE
  8
0
 10
17.7433
 20
-28.2964
 11
17.846
 21
-28.3011
  0
LINE
  8
0
 10
17.846
 20
-28.3011
 11
18.8435
 21
-28.3224
  0
LINE
  8
0
 10
18.8435
 20
-28.3224
 11
21.444
 21
-28.3502
  0
ENDSEC
  0
SECTION
  2
OBJECTS
  0
DICTIONARY
  0
ENDSEC
  0
EOF
