  0
SECTION
  2
BLOCKS
  0
ENDSEC
  0
SECTION
  2
ENTITIES
  0
LINE
  8
0
 10
-87.5599
 20
-0.117814
 11
-82.9537
 21
-2.21425
  0
LINE
  8
0
 10
-82.9537
 20
-2.21425
 11
-82.2843
 21
-2.52241
  0
LINE
  8
0
 10
-82.2843
 20
-2.52241
 11
-74.6791
 21
-5.69574
  0
LINE
  8
0
 10
-74.6791
 20
-5.69574
 11
-73.0636
 21
-6.38636
  0
LINE
  8
0
 10
-73.0636
 20
-6.38636
 11
-72.585
 21
-6.57511
  0
LINE
  8
0
 10
-72.585
 20
-6.57511
 11
-72.056
 21
-6.78643
  0
LINE
  8
0
 10
-72.056
 20
-6.78643
 11
-67.4277
 21
-8.54987
  0
LINE
  8
0
 10
-67.4277
 20
-8.54987
 11
-66.2423
 21
-8.99987
  0
LINE
  8
0
 10
-66.2423
 20
-8.99987
 11
-58.0724
 21
-11.8581
  0
LINE
  8
0
 10
-58.0724
 20
-11.8581
 11
-56.2829
 21
-12.4814
  0
LINE
  8
0
 10
-56.2829
 20
-12.4814
 11
-54.873
 21
-12.9439
  0
LINE
  8
0
 10
-54.873
 20
-12.9439
 11
-54.5615
 21
-13.046
  0
LINE
  8
0
 10
-54.5615
 20
-13.046
 11
-47.6301
 21
-15.1976
  0
LINE
  8
0
 10
-47.6301
 20
-15.1976
 11
-46.0311
 21
-15.6945
  0
LINE
  8
0
 10
-46.0311
 20
-15.6945
 11
-42.4042
 21
-16.7424
  0
LINE
  8
0
 10
-42.4042
 20
-16.7424
 11
-40.2402
 21
-17.3472
  0
LINE
  8
0
 10
-40.2402
 20
-17.3472
 11
-33.8632
 21
-19.0659
  0
LINE
  8
0
 10
-33.8632
 20
-19.0659
 11
-33.5274
 21
-19.1532
  0
LINE
  8
0
 10
-33.5274
 20
-19.1532
 11
-30.838
 21
-19.8323
  0
LINE
  8
0
 10
-30.838
 20
-19.8323
 11
-28.9343
 21
-20.2956
  0
LINE
  8
0
 10
-28.9343
 20
-20.2956
 11
-19.7758
 21
-22.4093
  0
LINE
  8
0
 10
-19.7758
 20
-22.4093
 11
-16.1244
 21
-23.1681
  0
LINE
  8
0
 10
-16.1244
 20
-23.1681
 11
-14.1308
 21
-23.5974
  0
LINE
  8
0
 10
-14.1308
 20
-23.5974
 11
-12.4459
 21
-23.9315
  0
LINE
  8
0
 10
-12.4459
 20
-23.9315
 11
-12.0175
 21
-24.0164
  0
LINE
  8
0
 10
-12.0175
 20
-24.0164
 11
-4.4356
 21
-25.3938
  0
LINE
  8
0
 10
-4.4356
 20
-25.3938
 11
-2.4878
 21
-25.7476
  0
LINE
  8
0
 10
-2.4878
 20
-25.7476
 11
6.65069
 21
-27.1286
  0
LINE
  8
0
 10
6.65069
 20
-27.1286
 11
9.02705
 21
-27.4877
  0
LINE
  8
0
 10
9.02705
 20
-27.4877
 11
9.4162
 21
-27.5374
  0
LINE
  8
0
 10
9.4162
 20
-27.5374
 11
13.0732
 21
-27.9595
  0
LINE
  8
0
 10
13.0732
 20
-27.9595
 11
14.283
 21
-28.0686
  0
LINE
  8
0
 10
14.283
 20
-28.0686
 11
17.846
 21
-28.3011
  0
LINE
  8
0
 10
17.846
 20
-28.3011
 11
18.8435
 21
-28.3225
  0
LINE
  8
0
 10
18.8435
 20
-28.3225
 11
21.444
 21
-28.3502
  0
LINE
  8
0
 10
21.444
 20
-28.3502
 11
21.5496
 21
-28.3481
  0
LINE
  8
0
 10
21.5496
 20
-28.3481
 11
22.4136
 21
-28.3271
  0
LINE
  8
0
 10
22.4136
 20
-28.3271
 11
23.163
 21
-28.2859
  0
LINE
  8
0
 10
23.163
 20
-28.2859
 11
26.5373
 21
-28.041
  0
LINE
  8
0
 10
26.5373
 20
-28.041
 11
26.6148
 21
-28.0339
  0
LINE
  8
0
 10
26.6148
 20
-28.0339
 11
28.1633
 21
-27.8253
  0
LINE
  8
0
 10
28.1633
 20
-27.8253
 11
28.7666
 21
-27.7498
  0
LINE
  8
0
 10
28.7666
 20
-27.7498
 11
29.7912
 21
-27.5746
  0
LINE
  8
0
 10
29.7912
 20
-27.5746
 11
30.0782
 21
-27.5253
  0
LINE
  8
0
 10
30.0782
 20
-27.5253
 11
33.4219
 21
-26.7342
  0
LINE
  8
0
 10
33.4219
 20
-26.7342
 11
34.2864
 21
-26.5293
  0
LINE
  8
0
 10
34.2864
 20
-26.5293
 11
36.0475
 21
-25.9793
  0
LINE
  8
0
 10
36.0475
 20
-25.9793
 11
36.5221
 21
-25.8313
  0
LINE
  8
0
 10
36.5221
 20
-25.8313
 11
38.0602
 21
-25.2759
  0
LINE
  8
0
 10
38.0602
 20
-25.2759
 11
38.447
 21
-25.1367
  0
LINE
  8
0
 10
38.447
 20
-25.1367
 11
41.6794
 21
-23.7346
  0
LINE
  8
0
 10
41.6794
 20
-23.7346
 11
42.2965
 21
-23.4771
  0
LINE
  8
0
 10
42.2965
 20
-23.4771
 11
43.1979
 21
-23.0262
  0
LINE
  8
0
 10
43.1979
 20
-23.0262
 11
43.694
 21
-22.7861
  0
LINE
  8
0
 10
43.694
 20
-22.7861
 11
45.2524
 21
-21.9402
  0
LINE
  8
0
 10
45.2524
 20
-21.9402
 11
45.5871
 21
-21.7603
  0
LINE
  8
0
 10
45.5871
 20
-21.7603
 11
48.2371
 21
-20.107
  0
LINE
  8
0
 10
48.2371
 20
-20.107
 11
49.0174
 21
-19.6241
  0
LINE
  8
0
 10
49.0174
 20
-19.6241
 11
49.9491
 21
-18.9692
  0
LINE
  8
0
 10
49.9491
 20
-18.9692
 11
50.1841
 21
-18.8039
  0
LINE
  8
0
 10
50.1841
 20
-18.8039
 11
51.7025
 21
-17.6391
  0
LINE
  8
0
 10
51.7025
 20
-17.6391
 11
52.1825
 21
-17.2664
  0
LINE
  8
0
 10
52.1825
 20
-17.2664
 11
54.4177
 21
-15.278
  0
LINE
  8
0
 10
54.4177
 20
-15.278
 11
54.9077
 21
-14.8369
  0
LINE
  8
0
 10
54.9077
 20
-14.8369
 11
55.1987
 21
-14.5479
  0
LINE
  8
0
 10
55.1987
 20
-14.5479
 11
55.2805
 21
-14.4668
  0
LINE
  8
0
 10
55.2805
 20
-14.4668
 11
56.0069
 21
-13.7076
  0
LINE
  8
0
 10
56.0069
 20
-13.7076
 11
56.431
 21
-13.2408
  0
LINE
  8
0
 10
56.431
 20
-13.2408
 11
58.0393
 21
-11.3132
  0
LINE
  8
0
 10
58.0393
 20
-11.3132
 11
58.8097
 21
-10.2176
  0
LINE
  8
0
 10
58.8097
 20
-10.2176
 11
59.1843
 21
-9.71174
  0
LINE
  8
0
 10
59.1843
 20
-9.71174
 11
59.2233
 21
-9.65147
  0
LINE
  8
0
 10
59.2233
 20
-9.65147
 11
59.8102
 21
-8.70077
  0
LINE
  8
0
 10
59.8102
 20
-8.70077
 11
59.9062
 21
-8.54398
  0
LINE
  8
0
 10
59.9062
 20
-8.54398
 11
60.0757
 21
-8.24426
  0
LINE
  8
0
 10
60.0757
 20
-8.24426
 11
60.9564
 21
-6.39921
  0
LINE
  8
0
 10
60.9564
 20
-6.39921
 11
61.2159
 21
-5.88332
  0
LINE
  8
0
 10
61.2159
 20
-5.88332
 11
61.3297
 21
-5.59118
  0
LINE
  8
0
 10
61.3297
 20
-5.59118
 11
61.3821
 21
-5.45977
  0
LINE
  8
0
 10
61.3821
 20
-5.45977
 11
61.8867
 21
-3.83111
  0
LINE
  8
0
 10
61.8867
 20
-3.83111
 11
62.0076
 21
-3.44707
  0
LINE
  8
0
 10
62.0076
 20
-3.44707
 11
62.1448
 21
-2.80832
  0
LINE
  8
0
 10
62.1448
 20
-2.80832
 11
62.1881
 21
-2.60993
  0
LINE
  8
0
 10
62.1881
 20
-2.60993
 11
62.3418
 21
-1.51419
  0
LINE
  8
0
 10
62.3418
 20
-1.51419
 11
62.3795
 21
-1.24362
  0
LINE
  8
0
 10
62.3795
 20
-1.24362
 11
62.4248
 21
-0.459018
  0
LINE
  8
0
 10
62.4248
 20
-0.459018
 11
62.4364
 21
-0.25711
  0
LINE
  8
0
 10
62.4364
 20
-0.25711
 11
62.3251
 21
1.59163
  0
LINE
  8
0
 10
62.3251
 20
1.59163
 11
62.2954
 21
2.06679
  0
LINE
  8
0
 10
62.2954
 20
2.06679
 11
62.2624
 21
2.2846
  0
LINE
  8
0
 10
62.2624
 20
2.2846
 11
62.2398
 21
2.41887
  0
LINE
  8
0
 10
62.2398
 20
2.41887
 11
62.1397
 21
2.96298
  0
LINE
  8
0
 10
62.1397
 20
2.96298
 11
62.1301
 21
3.01105
  0
LINE
  8
0
 10
62.1301
 20
3.01105
 11
61.7494
 21
4.43475
  0
LINE
  8
0
 10
61.7494
 20
4.43475
 11
61.6293
 21
4.86507
  0
LINE
  8
0
 10
61.6293
 20
4.86507
 11
60.8447
 21
6.79293
  0
LINE
  8
0
 10
60.8447
 20
6.79293
 11
60.6692
 21
7.21258
  0
LINE
  8
0
 10
60.6692
 20
7.21258
 11
60.6617
 21
7.22812
  0
LINE
  8
0
 10
60.6617
 20
7.22812
 11
60.6365
 21
7.27914
  0
LINE
  8
0
 10
60.6365
 20
7.27914
 11
60.4101
 21
7.72631
  0
LINE
  8
0
 10
60.4101
 20
7.72631
 11
60.3106
 21
7.91295
  0
LINE
  8
0
 10
60.3106
 20
7.91295
 11
58.9887
 21
10.066
  0
LINE
  8
0
 10
58.9887
 20
10.066
 11
58.6595
 21
10.5752
  0
LINE
  8
0
 10
58.6595
 20
10.5752
 11
57.9823
 21
11.4862
  0
LINE
  8
0
 10
57.9823
 20
11.4862
 11
57.8663
 21
11.6395
  0
LINE
  8
0
 10
57.8663
 20
11.6395
 11
56.8869
 21
12.8133
  0
LINE
  8
0
 10
56.8869
 20
12.8133
 11
56.6046
 21
13.1491
  0
LINE
  8
0
 10
56.6046
 20
13.1491
 11
55.3971
 21
14.4248
  0
LINE
  8
0
 10
55.3971
 20
14.4248
 11
55.1526
 21
14.6832
  0
LINE
  8
0
 10
55.1526
 20
14.6832
 11
53.6057
 21
16.1158
  0
LINE
  8
0
 10
53.6057
 20
16.1158
 11
53.1711
 21
16.5209
  0
LINE
  8
0
 10
53.1711
 20
16.5209
 11
53.0414
 21
16.6309
  0
LINE
  8
0
 10
53.0414
 20
16.6309
 11
52.1634
 21
17.3652
  0
LINE
  8
0
 10
52.1634
 20
17.3652
 11
51.5346
 21
17.844
  0
LINE
  8
0
 10
51.5346
 20
17.844
 11
48.8251
 21
19.8312
  0
LINE
  8
0
 10
48.8251
 20
19.8312
 11
47.3331
 21
20.7776
  0
LINE
  8
0
 10
47.3331
 20
20.7776
 11
46.7664
 21
21.1456
  0
LINE
  8
0
 10
46.7664
 20
21.1456
 11
46.6474
 21
21.2164
  0
LINE
  8
0
 10
46.6474
 20
21.2164
 11
45.1744
 21
22.0641
  0
LINE
  8
0
 10
45.1744
 20
22.0641
 11
44.521
 21
22.4173
  0
LINE
  8
0
 10
44.521
 20
22.4173
 11
43.2095
 21
23.1061
  0
LINE
  8
0
 10
43.2095
 20
23.1061
 11
40.2152
 21
24.4662
  0
LINE
  8
0
 10
40.2152
 20
24.4662
 11
39.4669
 21
24.8042
  0
LINE
  8
0
 10
39.4669
 20
24.8042
 11
39.3846
 21
24.8376
  0
LINE
  8
0
 10
39.3846
 20
24.8376
 11
39.2839
 21
24.878
  0
LINE
  8
0
 10
39.2839
 20
24.878
 11
36.158
 21
25.9978
  0
LINE
  8
0
 10
36.158
 20
25.9978
 11
35.2832
 21
26.301
  0
LINE
  8
0
 10
35.2832
 20
26.301
 11
32.6102
 21
27.0298
  0
LINE
  8
0
 10
32.6102
 20
27.0298
 11
32.0292
 21
27.1841
  0
LINE
  8
0
 10
32.0292
 20
27.1841
 11
31.5283
 21
27.297
  0
LINE
  8
0
 10
31.5283
 20
27.297
 11
31.2231
 21
27.3629
  0
LINE
  8
0
 10
31.2231
 20
27.3629
 11
29.048
 21
27.7654
  0
LINE
  8
0
 10
29.048
 20
27.7654
 11
28.2189
 21
27.8918
  0
LINE
  8
0
 10
28.2189
 20
27.8918
 11
25.3201
 21
28.2216
  0
LINE
  8
0
 10
25.3201
 20
28.2216
 11
25.0739
 21
28.2457
  0
LINE
  8
0
 10
25.0739
 20
28.2457
 11
24.975
 21
28.2537
  0
LINE
  8
0
 10
24.975
 20
28.2537
 11
24.4978
 21
28.2876
  0
LINE
  8
0
 10
24.4978
 20
28.2876
 11
23.9567
 21
28.3162
  0
LINE
  8
0
 10
23.9567
 20
28.3162
 11
19.9749
 21
28.4008
  0
LINE
  8
0
 10
19.9749
 20
28.4008
 11
19.0635
 21
28.3957
  0
LINE
  8
0
 10
19.0635
 20
28.3957
 11
17.7104
 21
28.3518
  0
LINE
  8
0
 10
17.7104
 20
28.3518
 11
17.6219
 21
28.3481
  0
LINE
  8
0
 10
17.6219
 20
28.3481
 11
14.6601
 21
28.1423
  0
LINE
  8
0
 10
14.6601
 20
28.1423
 11
13.8117
 21
28.0817
  0
LINE
  8
0
 10
13.8117
 20
28.0817
 11
9.91732
 21
27.6265
  0
LINE
  8
0
 10
9.91732
 20
27.6265
 11
8.95287
 21
27.5123
  0
LINE
  8
0
 10
8.95287
 20
27.5123
 11
7.89249
 21
27.3592
  0
LINE
  8
0
 10
7.89249
 20
27.3592
 11
-1.22875
 21
25.9556
  0
LINE
  8
0
 10
-1.22875
 20
25.9556
 11
-3.57083
 21
25.5608
  0
LINE
  8
0
 10
-3.57083
 20
25.5608
 11
-12.7317
 21
23.8449
  0
LINE
  8
0
 10
-12.7317
 20
23.8449
 11
-14.0866
 21
23.5816
  0
LINE
  8
0
 10
-14.0866
 20
23.5816
 11
-14.1748
 21
23.5636
  0
LINE
  8
0
 10
-14.1748
 20
23.5636
 11
-15.1425
 21
23.3598
  0
LINE
  8
0
 10
-15.1425
 20
23.3598
 11
-18.7855
 21
22.5926
  0
LINE
  8
0
 10
-18.7855
 20
22.5926
 11
-27.9223
 21
20.4577
  0
LINE
  8
0
 10
-27.9223
 20
20.4577
 11
-30.2272
 21
19.9188
  0
LINE
  8
0
 10
-30.2272
 20
19.9188
 11
-33.6082
 21
19.0511
  0
LINE
  8
0
 10
-33.6082
 20
19.0511
 11
-34.4492
 21
18.8353
  0
LINE
  8
0
 10
-34.4492
 20
18.8353
 11
-34.5977
 21
18.7961
  0
LINE
  8
0
 10
-34.5977
 20
18.7961
 11
-40.272
 21
17.2429
  0
LINE
  8
0
 10
-40.272
 20
17.2429
 11
-42.4808
 21
16.6188
  0
LINE
  8
0
 10
-42.4808
 20
16.6188
 11
-46.1051
 21
15.5611
  0
LINE
  8
0
 10
-46.1051
 20
15.5611
 11
-52.2493
 21
13.6456
  0
LINE
  8
0
 10
-52.2493
 20
13.6456
 11
-53.6543
 21
13.2067
  0
LINE
  8
0
 10
-53.6543
 20
13.2067
 11
-55.8225
 21
12.4925
  0
LINE
  8
0
 10
-55.8225
 20
12.4925
 11
-56.5305
 21
12.258
  0
LINE
  8
0
 10
-56.5305
 20
12.258
 11
-64.6642
 21
9.38785
  0
LINE
  8
0
 10
-64.6642
 20
9.38785
 11
-66.669
 21
8.671
  0
LINE
  8
0
 10
-66.669
 20
8.671
 11
-70.5324
 21
7.19454
  0
LINE
  8
0
 10
-70.5324
 20
7.19454
 11
-70.7639
 21
7.10636
  0
LINE
  8
0
 10
-70.7639
 20
7.10636
 11
-71.1488
 21
6.9571
  0
LINE
  8
0
 10
-71.1488
 20
6.9571
 11
-72.3788
 21
6.47068
  0
LINE
  8
0
 10
-72.3788
 20
6.47068
 11
-73.748
 21
5.91089
  0
LINE
  8
0
 10
-73.748
 20
5.91089
 11
-81.3271
 21
2.72443
  0
LINE
  8
0
 10
-81.3271
 20
2.72443
 11
-85.9094
 21
0.624037
  0
LINE
  8
0
 10
-85.9094
 20
0.624037
 11
-87.5599
 21
-0.117814
  0
ENDSEC
  0
SECTION
  2
OBJECTS
  0
DICTIONARY
  0
ENDSEC
  0
EOF
