  0
SECTION
  2
BLOCKS
  0
ENDSEC
  0
SECTION
  2
ENTITIES
  0
LINE
  8
0
 10
21.444
 20
-28.3502
 11
21.5496
 21
-28.3481
  0
LINE
  8
0
 10
21.5496
 20
-28.3481
 11
22.4136
 21
-28.3271
  0
LINE
  8
0
 10
22.4136
 20
-28.3271
 11
22.4548
 21
-28.3259
  0
LINE
  8
0
 10
22.4548
 20
-28.3259
 11
22.9543
 21
-28.2984
  0
LINE
  8
0
 10
22.9543
 20
-28.2984
 11
23.163
 21
-28.2859
  0
LINE
  8
0
 10
23.163
 20
-28.2859
 11
26.5373
 21
-28.041
  0
LINE
  8
0
 10
26.5373
 20
-28.041
 11
26.6148
 21
-28.0339
  0
LINE
  8
0
 10
26.6148
 20
-28.0339
 11
26.6789
 21
-28.0272
  0
LINE
  8
0
 10
26.6789
 20
-28.0272
 11
28.3644
 21
-27.8001
  0
LINE
  8
0
 10
28.3644
 20
-27.8001
 11
28.7666
 21
-27.7498
  0
LINE
  8
0
 10
28.7666
 20
-27.7498
 11
29.8818
 21
-27.5591
  0
LINE
  8
0
 10
29.8818
 20
-27.5591
 11
30.0731
 21
-27.5262
  0
LINE
  8
0
 10
30.0731
 20
-27.5262
 11
30.0782
 21
-27.5253
  0
LINE
  8
0
 10
30.0782
 20
-27.5253
 11
33.4219
 21
-26.7342
  0
LINE
  8
0
 10
33.4219
 20
-26.7342
 11
34.2864
 21
-26.5293
  0
LINE
  8
0
 10
34.2864
 20
-26.5293
 11
34.289
 21
-26.5286
  0
LINE
  8
0
 10
34.289
 20
-26.5286
 11
36.2057
 21
-25.93
  0
LINE
  8
0
 10
36.2057
 20
-25.93
 11
36.5221
 21
-25.8313
  0
LINE
  8
0
 10
36.5221
 20
-25.8313
 11
38.0602
 21
-25.2759
  0
LINE
  8
0
 10
38.0602
 20
-25.2759
 11
38.447
 21
-25.1367
  0
LINE
  8
0
 10
38.447
 20
-25.1367
 11
38.4538
 21
-25.1341
  0
LINE
  8
0
 10
38.4538
 20
-25.1341
 11
41.7007
 21
-23.7257
  0
LINE
  8
0
 10
41.7007
 20
-23.7257
 11
42.2965
 21
-23.4771
  0
LINE
  8
0
 10
42.2965
 20
-23.4771
 11
42.3826
 21
-23.4366
  0
LINE
  8
0
 10
42.3826
 20
-23.4366
 11
43.3633
 21
-22.9462
  0
LINE
  8
0
 10
43.3633
 20
-22.9462
 11
43.694
 21
-22.7861
  0
LINE
  8
0
 10
43.694
 20
-22.7861
 11
45.2524
 21
-21.9402
  0
LINE
  8
0
 10
45.2524
 20
-21.9402
 11
45.5871
 21
-21.7603
  0
LINE
  8
0
 10
45.5871
 20
-21.7603
 11
45.6122
 21
-21.7461
  0
LINE
  8
0
 10
45.6122
 20
-21.7461
 11
48.4944
 21
-19.9479
  0
LINE
  8
0
 10
48.4944
 20
-19.9479
 11
49.0146
 21
-19.626
  0
LINE
  8
0
 10
49.0146
 20
-19.626
 11
49.0174
 21
-19.6241
  0
LINE
  8
0
 10
49.0174
 20
-19.6241
 11
49.9491
 21
-18.9692
  0
LINE
  8
0
 10
49.9491
 20
-18.9692
 11
50.1841
 21
-18.8039
  0
LINE
  8
0
 10
50.1841
 20
-18.8039
 11
51.8346
 21
-17.5378
  0
LINE
  8
0
 10
51.8346
 20
-17.5378
 11
52.1545
 21
-17.2894
  0
LINE
  8
0
 10
52.1545
 20
-17.2894
 11
52.1825
 21
-17.2664
  0
LINE
  8
0
 10
52.1825
 20
-17.2664
 11
54.4176
 21
-15.278
  0
LINE
  8
0
 10
54.4176
 20
-15.278
 11
54.9077
 21
-14.8369
  0
LINE
  8
0
 10
54.9077
 20
-14.8369
 11
55.2168
 21
-14.53
  0
LINE
  8
0
 10
55.2168
 20
-14.53
 11
55.2805
 21
-14.4668
  0
LINE
  8
0
 10
55.2805
 20
-14.4668
 11
56.0695
 21
-13.6423
  0
LINE
  8
0
 10
56.0695
 20
-13.6423
 11
56.3521
 21
-13.3311
  0
LINE
  8
0
 10
56.3521
 20
-13.3311
 11
56.431
 21
-13.2408
  0
LINE
  8
0
 10
56.431
 20
-13.2408
 11
58.0393
 21
-11.3132
  0
LINE
  8
0
 10
58.0393
 20
-11.3132
 11
58.0982
 21
-11.2384
  0
LINE
  8
0
 10
58.0982
 20
-11.2384
 11
58.9346
 21
-10.0489
  0
LINE
  8
0
 10
58.9346
 20
-10.0489
 11
59.1843
 21
-9.71173
  0
LINE
  8
0
 10
59.1843
 20
-9.71173
 11
59.2233
 21
-9.65146
  0
LINE
  8
0
 10
59.2233
 20
-9.65146
 11
59.8102
 21
-8.70076
  0
LINE
  8
0
 10
59.8102
 20
-8.70076
 11
59.9062
 21
-8.54398
  0
LINE
  8
0
 10
59.9062
 20
-8.54398
 11
59.9112
 21
-8.53535
  0
LINE
  8
0
 10
59.9112
 20
-8.53535
 11
60.0951
 21
-8.21014
  0
LINE
  8
0
 10
60.0951
 20
-8.21014
 11
61.0182
 21
-6.27626
  0
LINE
  8
0
 10
61.0182
 20
-6.27626
 11
61.2159
 21
-5.88332
  0
LINE
  8
0
 10
61.2159
 20
-5.88332
 11
61.2238
 21
-5.86426
  0
LINE
  8
0
 10
61.2238
 20
-5.86426
 11
61.3472
 21
-5.54736
  0
LINE
  8
0
 10
61.3472
 20
-5.54736
 11
61.3821
 21
-5.45976
  0
LINE
  8
0
 10
61.3821
 20
-5.45976
 11
61.8875
 21
-3.82852
  0
LINE
  8
0
 10
61.8875
 20
-3.82852
 11
62.0076
 21
-3.44707
  0
LINE
  8
0
 10
62.0076
 20
-3.44707
 11
62.01
 21
-3.43721
  0
LINE
  8
0
 10
62.01
 20
-3.43721
 11
62.1588
 21
-2.74449
  0
LINE
  8
0
 10
62.1588
 20
-2.74449
 11
62.1877
 21
-2.61224
  0
LINE
  8
0
 10
62.1877
 20
-2.61224
 11
62.1881
 21
-2.60992
  0
LINE
  8
0
 10
62.1881
 20
-2.60992
 11
62.3418
 21
-1.51418
  0
LINE
  8
0
 10
62.3418
 20
-1.51418
 11
62.3795
 21
-1.24361
  0
LINE
  8
0
 10
62.3795
 20
-1.24361
 11
62.4286
 21
-0.392792
  0
LINE
  8
0
 10
62.4286
 20
-0.392792
 11
62.4363
 21
-0.258209
  0
LINE
  8
0
 10
62.4363
 20
-0.258209
 11
62.4364
 21
-0.257095
  0
LINE
  8
0
 10
62.4364
 20
-0.257095
 11
62.3251
 21
1.59161
  0
LINE
  8
0
 10
62.3251
 20
1.59161
 11
62.3157
 21
1.74649
  0
LINE
  8
0
 10
62.3157
 20
1.74649
 11
62.2959
 21
2.06325
  0
LINE
  8
0
 10
62.2959
 20
2.06325
 11
62.2954
 21
2.06679
  0
LINE
  8
0
 10
62.2954
 20
2.06679
 11
62.2624
 21
2.28459
  0
LINE
  8
0
 10
62.2624
 20
2.28459
 11
62.2601
 21
2.29944
  0
LINE
  8
0
 10
62.2601
 20
2.29944
 11
62.2451
 21
2.38893
  0
LINE
  8
0
 10
62.2451
 20
2.38893
 11
62.2398
 21
2.41885
  0
LINE
  8
0
 10
62.2398
 20
2.41885
 11
62.1397
 21
2.96298
  0
LINE
  8
0
 10
62.1397
 20
2.96298
 11
62.1301
 21
3.01105
  0
LINE
  8
0
 10
62.1301
 20
3.01105
 11
61.7172
 21
4.55499
  0
LINE
  8
0
 10
61.7172
 20
4.55499
 11
61.6372
 21
4.84184
  0
LINE
  8
0
 10
61.6372
 20
4.84184
 11
61.6293
 21
4.86507
  0
LINE
  8
0
 10
61.6293
 20
4.86507
 11
60.8447
 21
6.79292
  0
LINE
  8
0
 10
60.8447
 20
6.79292
 11
60.6692
 21
7.21257
  0
LINE
  8
0
 10
60.6692
 20
7.21257
 11
60.6611
 21
7.22943
  0
LINE
  8
0
 10
60.6611
 20
7.22943
 11
60.6365
 21
7.27913
  0
LINE
  8
0
 10
60.6365
 20
7.27913
 11
60.4101
 21
7.7263
  0
LINE
  8
0
 10
60.4101
 20
7.7263
 11
60.3987
 21
7.74857
  0
LINE
  8
0
 10
60.3987
 20
7.74857
 11
60.3323
 21
7.87299
  0
LINE
  8
0
 10
60.3323
 20
7.87299
 11
60.3106
 21
7.91295
  0
LINE
  8
0
 10
60.3106
 20
7.91295
 11
58.9887
 21
10.066
  0
LINE
  8
0
 10
58.9887
 20
10.066
 11
58.8981
 21
10.2091
  0
LINE
  8
0
 10
58.8981
 20
10.2091
 11
58.6786
 21
10.5485
  0
LINE
  8
0
 10
58.6786
 20
10.5485
 11
58.6595
 21
10.5751
  0
LINE
  8
0
 10
58.6595
 20
10.5751
 11
57.9823
 21
11.4862
  0
LINE
  8
0
 10
57.9823
 20
11.4862
 11
57.8663
 21
11.6395
  0
LINE
  8
0
 10
57.8663
 20
11.6395
 11
56.8031
 21
12.9137
  0
LINE
  8
0
 10
56.8031
 20
12.9137
 11
56.6149
 21
13.1375
  0
LINE
  8
0
 10
56.6149
 20
13.1375
 11
56.6046
 21
13.1491
  0
LINE
  8
0
 10
56.6046
 20
13.1491
 11
55.3971
 21
14.4248
  0
LINE
  8
0
 10
55.3971
 20
14.4248
 11
55.1525
 21
14.6832
  0
LINE
  8
0
 10
55.1525
 20
14.6832
 11
55.1408
 21
14.695
  0
LINE
  8
0
 10
55.1408
 20
14.695
 11
53.4608
 21
16.2509
  0
LINE
  8
0
 10
53.4608
 20
16.2509
 11
53.1711
 21
16.5209
  0
LINE
  8
0
 10
53.1711
 20
16.5209
 11
53.0414
 21
16.6309
  0
LINE
  8
0
 10
53.0414
 20
16.6309
 11
52.1633
 21
17.3652
  0
LINE
  8
0
 10
52.1633
 20
17.3652
 11
52.1306
 21
17.3921
  0
LINE
  8
0
 10
52.1306
 20
17.3921
 11
51.7115
 21
17.7113
  0
LINE
  8
0
 10
51.7115
 20
17.7113
 11
51.5346
 21
17.844
  0
LINE
  8
0
 10
51.5346
 20
17.844
 11
48.825
 21
19.8312
  0
LINE
  8
0
 10
48.825
 20
19.8312
 11
48.766
 21
19.8715
  0
LINE
  8
0
 10
48.766
 20
19.8715
 11
47.1442
 21
20.9003
  0
LINE
  8
0
 10
47.1442
 20
20.9003
 11
46.7664
 21
21.1456
  0
LINE
  8
0
 10
46.7664
 20
21.1456
 11
46.6474
 21
21.2164
  0
LINE
  8
0
 10
46.6474
 20
21.2164
 11
45.1744
 21
22.0641
  0
LINE
  8
0
 10
45.1744
 20
22.0641
 11
45.0852
 21
22.1146
  0
LINE
  8
0
 10
45.0852
 20
22.1146
 11
44.6497
 21
22.3501
  0
LINE
  8
0
 10
44.6497
 20
22.3501
 11
43.223
 21
23.0994
  0
LINE
  8
0
 10
43.223
 20
23.0994
 11
43.2095
 21
23.1061
  0
LINE
  8
0
 10
43.2095
 20
23.1061
 11
40.2152
 21
24.4662
  0
LINE
  8
0
 10
40.2152
 20
24.4662
 11
39.4669
 21
24.8042
  0
LINE
  8
0
 10
39.4669
 20
24.8042
 11
39.3774
 21
24.8405
  0
LINE
  8
0
 10
39.3774
 20
24.8405
 11
39.3102
 21
24.8675
  0
LINE
  8
0
 10
39.3102
 20
24.8675
 11
39.2839
 21
24.878
  0
LINE
  8
0
 10
39.2839
 20
24.878
 11
36.158
 21
25.9978
  0
LINE
  8
0
 10
36.158
 20
25.9978
 11
35.9088
 21
26.086
  0
LINE
  8
0
 10
35.9088
 20
26.086
 11
35.3257
 21
26.2881
  0
LINE
  8
0
 10
35.3257
 20
26.2881
 11
35.2832
 21
26.301
  0
LINE
  8
0
 10
35.2832
 20
26.301
 11
32.6102
 21
27.0298
  0
LINE
  8
0
 10
32.6102
 20
27.0298
 11
32.0292
 21
27.1841
  0
LINE
  8
0
 10
32.0292
 20
27.1841
 11
31.484
 21
27.307
  0
LINE
  8
0
 10
31.484
 20
27.307
 11
31.2805
 21
27.3509
  0
LINE
  8
0
 10
31.2805
 20
27.3509
 11
31.2231
 21
27.3629
  0
LINE
  8
0
 10
31.2231
 20
27.3629
 11
29.048
 21
27.7654
  0
LINE
  8
0
 10
29.048
 20
27.7654
 11
28.9131
 21
27.789
  0
LINE
  8
0
 10
28.9131
 20
27.789
 11
28.3604
 21
27.8733
  0
LINE
  8
0
 10
28.3604
 20
27.8733
 11
28.2189
 21
27.8918
  0
LINE
  8
0
 10
28.2189
 20
27.8918
 11
25.3201
 21
28.2216
  0
LINE
  8
0
 10
25.3201
 20
28.2216
 11
25.0739
 21
28.2457
  0
LINE
  8
0
 10
25.0739
 20
28.2457
 11
24.975
 21
28.2537
  0
LINE
  8
0
 10
24.975
 20
28.2537
 11
24.4556
 21
28.2906
  0
LINE
  8
0
 10
24.4556
 20
28.2906
 11
24.0949
 21
28.3097
  0
LINE
  8
0
 10
24.0949
 20
28.3097
 11
23.9566
 21
28.3162
  0
LINE
  8
0
 10
23.9566
 20
28.3162
 11
19.9749
 21
28.4008
  0
LINE
  8
0
 10
19.9749
 20
28.4008
 11
19.761
 21
28.4017
  0
LINE
  8
0
 10
19.761
 20
28.4017
 11
19.1534
 21
28.3983
  0
LINE
  8
0
 10
19.1534
 20
28.3983
 11
19.0635
 21
28.3957
  0
LINE
  8
0
 10
19.0635
 20
28.3957
 11
17.7104
 21
28.3518
  0
LINE
  8
0
 10
17.7104
 20
28.3518
 11
17.6219
 21
28.3481
  0
LINE
  8
0
 10
17.6219
 20
28.3481
 11
14.3986
 21
28.1241
  0
LINE
  8
0
 10
14.3986
 20
28.1241
 11
13.8331
 21
28.0838
  0
LINE
  8
0
 10
13.8331
 20
28.0838
 11
13.8117
 21
28.0817
  0
LINE
  8
0
 10
13.8117
 20
28.0817
 11
9.91731
 21
27.6265
  0
LINE
  8
0
 10
9.91731
 20
27.6265
 11
8.95287
 21
27.5123
  0
LINE
  8
0
 10
8.95287
 20
27.5123
 11
7.89247
 21
27.3592
  0
LINE
  8
0
 10
7.89247
 20
27.3592
 11
-1.22874
 21
25.9556
  0
LINE
  8
0
 10
-1.22874
 20
25.9556
 11
-1.67188
 21
25.884
  0
LINE
  8
0
 10
-1.67188
 20
25.884
 11
-3.23309
 21
25.6209
  0
LINE
  8
0
 10
-3.23309
 20
25.6209
 11
-3.57082
 21
25.5608
  0
LINE
  8
0
 10
-3.57082
 20
25.5608
 11
-12.7317
 21
23.8449
  0
LINE
  8
0
 10
-12.7317
 20
23.8449
 11
-14.0866
 21
23.5816
  0
LINE
  8
0
 10
-14.0866
 20
23.5816
 11
-14.1823
 21
23.5621
  0
LINE
  8
0
 10
-14.1823
 20
23.5621
 11
-18.7791
 21
22.594
  0
LINE
  8
0
 10
-18.7791
 20
22.594
 11
-18.7855
 21
22.5926
  0
LINE
  8
0
 10
-18.7855
 20
22.5926
 11
-27.9223
 21
20.4577
  0
LINE
  8
0
 10
-27.9223
 20
20.4577
 11
-30.2272
 21
19.9188
  0
LINE
  8
0
 10
-30.2272
 20
19.9188
 11
-34.4492
 21
18.8353
  0
LINE
  8
0
 10
-34.4492
 20
18.8353
 11
-34.5977
 21
18.7961
  0
LINE
  8
0
 10
-34.5977
 20
18.7961
 11
-40.272
 21
17.2428
  0
LINE
  8
0
 10
-40.272
 20
17.2428
 11
-40.6898
 21
17.128
  0
LINE
  8
0
 10
-40.6898
 20
17.128
 11
-42.1622
 21
16.712
  0
LINE
  8
0
 10
-42.1622
 20
16.712
 11
-46.0785
 21
15.569
  0
LINE
  8
0
 10
-46.0785
 20
15.569
 11
-46.1051
 21
15.5611
  0
LINE
  8
0
 10
-46.1051
 20
15.5611
 11
-52.2493
 21
13.6456
  0
LINE
  8
0
 10
-52.2493
 20
13.6456
 11
-53.6543
 21
13.2067
  0
LINE
  8
0
 10
-53.6543
 20
13.2067
 11
-55.9946
 21
12.4358
  0
LINE
  8
0
 10
-55.9946
 20
12.4358
 11
-56.4665
 21
12.2795
  0
LINE
  8
0
 10
-56.4665
 20
12.2795
 11
-56.5305
 21
12.258
  0
LINE
  8
0
 10
-56.5305
 20
12.258
 11
-64.6642
 21
9.38785
  0
LINE
  8
0
 10
-64.6642
 20
9.38785
 11
-65.2408
 21
9.18329
  0
LINE
  8
0
 10
-65.2408
 20
9.18329
 11
-66.5772
 21
8.70544
  0
LINE
  8
0
 10
-66.5772
 20
8.70544
 11
-66.669
 21
8.67099
  0
LINE
  8
0
 10
-66.669
 20
8.67099
 11
-70.5324
 21
7.19453
  0
LINE
  8
0
 10
-70.5324
 20
7.19453
 11
-70.7639
 21
7.10635
  0
LINE
  8
0
 10
-70.7639
 20
7.10635
 11
-71.1488
 21
6.95709
  0
LINE
  8
0
 10
-71.1488
 20
6.95709
 11
-72.4728
 21
6.43353
  0
LINE
  8
0
 10
-72.4728
 20
6.43353
 11
-73.3855
 21
6.06036
  0
LINE
  8
0
 10
-73.3855
 20
6.06036
 11
-73.748
 21
5.91089
  0
LINE
  8
0
 10
-73.748
 20
5.91089
 11
-81.3271
 21
2.72443
  0
LINE
  8
0
 10
-81.3271
 20
2.72443
 11
-81.5334
 21
2.63475
  0
LINE
  8
0
 10
-81.5334
 20
2.63475
 11
-86.4597
 21
0.376694
  0
LINE
  8
0
 10
-86.4597
 20
0.376694
 11
-87.5599
 21
-0.117813
  0
LINE
  8
0
 10
-87.5599
 20
-0.117813
 11
-82.9537
 21
-2.21425
  0
LINE
  8
0
 10
-82.9537
 20
-2.21425
 11
-82.2843
 21
-2.5224
  0
LINE
  8
0
 10
-82.2843
 20
-2.5224
 11
-82.1692
 21
-2.57362
  0
LINE
  8
0
 10
-82.1692
 20
-2.57362
 11
-74.3665
 21
-5.82936
  0
LINE
  8
0
 10
-74.3665
 20
-5.82936
 11
-73.0636
 21
-6.38635
  0
LINE
  8
0
 10
-73.0636
 20
-6.38635
 11
-72.9234
 21
-6.44252
  0
LINE
  8
0
 10
-72.9234
 20
-6.44252
 11
-72.4087
 21
-6.64555
  0
LINE
  8
0
 10
-72.4087
 20
-6.64555
 11
-72.056
 21
-6.78642
  0
LINE
  8
0
 10
-72.056
 20
-6.78642
 11
-67.075
 21
-8.68425
  0
LINE
  8
0
 10
-67.075
 20
-8.68425
 11
-66.2848
 21
-8.98422
  0
LINE
  8
0
 10
-66.2848
 20
-8.98422
 11
-66.2423
 21
-8.99986
  0
LINE
  8
0
 10
-66.2423
 20
-8.99986
 11
-58.0724
 21
-11.8581
  0
LINE
  8
0
 10
-58.0724
 20
-11.8581
 11
-57.4832
 21
-12.0634
  0
LINE
  8
0
 10
-57.4832
 20
-12.0634
 11
-56.2903
 21
-12.4789
  0
LINE
  8
0
 10
-56.2903
 20
-12.4789
 11
-54.7692
 21
-12.9779
  0
LINE
  8
0
 10
-54.7692
 20
-12.9779
 11
-54.5615
 21
-13.046
  0
LINE
  8
0
 10
-54.5615
 20
-13.046
 11
-47.6301
 21
-15.1976
  0
LINE
  8
0
 10
-47.6301
 20
-15.1976
 11
-46.0311
 21
-15.6945
  0
LINE
  8
0
 10
-46.0311
 20
-15.6945
 11
-46.0151
 21
-15.6993
  0
LINE
  8
0
 10
-46.0151
 20
-15.6993
 11
-42.0959
 21
-16.8316
  0
LINE
  8
0
 10
-42.0959
 20
-16.8316
 11
-40.6534
 21
-17.2348
  0
LINE
  8
0
 10
-40.6534
 20
-17.2348
 11
-40.2402
 21
-17.3472
  0
LINE
  8
0
 10
-40.2402
 20
-17.3472
 11
-33.8632
 21
-19.0659
  0
LINE
  8
0
 10
-33.8632
 20
-19.0659
 11
-33.5274
 21
-19.1532
  0
LINE
  8
0
 10
-33.5274
 20
-19.1532
 11
-30.6158
 21
-19.8883
  0
LINE
  8
0
 10
-30.6158
 20
-19.8883
 11
-29.3468
 21
-20.1972
  0
LINE
  8
0
 10
-29.3468
 20
-20.1972
 11
-28.9343
 21
-20.2956
  0
LINE
  8
0
 10
-28.9343
 20
-20.2956
 11
-19.7758
 21
-22.4093
  0
LINE
  8
0
 10
-19.7758
 20
-22.4093
 11
-19.4189
 21
-22.4885
  0
LINE
  8
0
 10
-19.4189
 20
-22.4885
 11
-15.4607
 21
-23.311
  0
LINE
  8
0
 10
-15.4607
 20
-23.311
 11
-14.1308
 21
-23.5974
  0
LINE
  8
0
 10
-14.1308
 20
-23.5974
 11
-12.0175
 21
-24.0164
  0
LINE
  8
0
 10
-12.0175
 20
-24.0164
 11
-2.48801
 21
-25.7476
  0
LINE
  8
0
 10
-2.48801
 20
-25.7476
 11
9.02704
 21
-27.4877
  0
LINE
  8
0
 10
9.02704
 20
-27.4877
 11
9.4162
 21
-27.5373
  0
LINE
  8
0
 10
9.4162
 20
-27.5373
 11
13.0732
 21
-27.9595
  0
LINE
  8
0
 10
13.0732
 20
-27.9595
 11
13.2649
 21
-27.98
  0
LINE
  8
0
 10
13.2649
 20
-27.98
 11
14.0713
 21
-28.0527
  0
LINE
  8
0
 10
14.0713
 20
-28.0527
 11
14.283
 21
-28.0686
  0
LINE
  8
0
 10
14.283
 20
-28.0686
 11
17.846
 21
-28.3011
  0
LINE
  8
0
 10
17.846
 20
-28.3011
 11
17.9487
 21
-28.3057
  0
LINE
  8
0
 10
17.9487
 20
-28.3057
 11
18.6136
 21
-28.32
  0
LINE
  8
0
 10
18.6136
 20
-28.32
 11
21.444
 21
-28.3502
  0
ENDSEC
  0
SECTION
  2
OBJECTS
  0
DICTIONARY
  0
ENDSEC
  0
EOF
