  0
SECTION
  2
BLOCKS
  0
ENDSEC
  0
SECTION
  2
ENTITIES
  0
LINE
  8
0
 10
-87.5599
 20
-0.117814
 11
-82.6154
 21
-2.36822
  0
LINE
  8
0
 10
-82.6154
 20
-2.36822
 11
-82.1692
 21
-2.57364
  0
LINE
  8
0
 10
-82.1692
 20
-2.57364
 11
-74.0003
 21
-5.98216
  0
LINE
  8
0
 10
-74.0003
 20
-5.98216
 11
-72.9234
 21
-6.44252
  0
LINE
  8
0
 10
-72.9234
 20
-6.44252
 11
-72.4087
 21
-6.64556
  0
LINE
  8
0
 10
-72.4087
 20
-6.64556
 11
-72.056
 21
-6.78643
  0
LINE
  8
0
 10
-72.056
 20
-6.78643
 11
-67.075
 21
-8.68426
  0
LINE
  8
0
 10
-67.075
 20
-8.68426
 11
-66.2848
 21
-8.98423
  0
LINE
  8
0
 10
-66.2848
 20
-8.98423
 11
-57.4832
 21
-12.0634
  0
LINE
  8
0
 10
-57.4832
 20
-12.0634
 11
-56.2903
 21
-12.4789
  0
LINE
  8
0
 10
-56.2903
 20
-12.4789
 11
-54.7692
 21
-12.9779
  0
LINE
  8
0
 10
-54.7692
 20
-12.9779
 11
-54.5615
 21
-13.046
  0
LINE
  8
0
 10
-54.5615
 20
-13.046
 11
-47.081
 21
-15.368
  0
LINE
  8
0
 10
-47.081
 20
-15.368
 11
-46.0151
 21
-15.6993
  0
LINE
  8
0
 10
-46.0151
 20
-15.6993
 11
-42.0959
 21
-16.8316
  0
LINE
  8
0
 10
-42.0959
 20
-16.8316
 11
-40.6534
 21
-17.2348
  0
LINE
  8
0
 10
-40.6534
 20
-17.2348
 11
-33.7513
 21
-19.095
  0
LINE
  8
0
 10
-33.7513
 20
-19.095
 11
-33.5274
 21
-19.1532
  0
LINE
  8
0
 10
-33.5274
 20
-19.1532
 11
-30.6158
 21
-19.8883
  0
LINE
  8
0
 10
-30.6158
 20
-19.8883
 11
-29.3468
 21
-20.1972
  0
LINE
  8
0
 10
-29.3468
 20
-20.1972
 11
-19.4189
 21
-22.4885
  0
LINE
  8
0
 10
-19.4189
 20
-22.4885
 11
-15.4607
 21
-23.311
  0
LINE
  8
0
 10
-15.4607
 20
-23.311
 11
-14.1318
 21
-23.5972
  0
LINE
  8
0
 10
-14.1318
 20
-23.5972
 11
-12.303
 21
-23.9598
  0
LINE
  8
0
 10
-12.303
 20
-23.9598
 11
-12.0175
 21
-24.0164
  0
LINE
  8
0
 10
-12.0175
 20
-24.0164
 11
-3.78641
 21
-25.5117
  0
LINE
  8
0
 10
-3.78641
 20
-25.5117
 11
-2.48801
 21
-25.7476
  0
LINE
  8
0
 10
-2.48801
 20
-25.7476
 11
7.44297
 21
-27.2483
  0
LINE
  8
0
 10
7.44297
 20
-27.2483
 11
9.02705
 21
-27.4877
  0
LINE
  8
0
 10
9.02705
 20
-27.4877
 11
9.28646
 21
-27.5208
  0
LINE
  8
0
 10
9.28646
 20
-27.5208
 11
13.2649
 21
-27.98
  0
LINE
  8
0
 10
13.2649
 20
-27.98
 11
14.0713
 21
-28.0527
  0
LINE
  8
0
 10
14.0713
 20
-28.0527
 11
17.9487
 21
-28.3057
  0
LINE
  8
0
 10
17.9487
 20
-28.3057
 11
18.6136
 21
-28.32
  0
LINE
  8
0
 10
18.6136
 20
-28.32
 11
21.444
 21
-28.3502
  0
LINE
  8
0
 10
21.444
 20
-28.3502
 11
21.5144
 21
-28.3488
  0
LINE
  8
0
 10
21.5144
 20
-28.3488
 11
22.4548
 21
-28.3259
  0
LINE
  8
0
 10
22.4548
 20
-28.3259
 11
22.9543
 21
-28.2984
  0
LINE
  8
0
 10
22.9543
 20
-28.2984
 11
26.6273
 21
-28.032
  0
LINE
  8
0
 10
26.6273
 20
-28.032
 11
26.6789
 21
-28.0272
  0
LINE
  8
0
 10
26.6789
 20
-28.0272
 11
28.3644
 21
-27.8001
  0
LINE
  8
0
 10
28.3644
 20
-27.8001
 11
28.7666
 21
-27.7498
  0
LINE
  8
0
 10
28.7666
 20
-27.7498
 11
29.8818
 21
-27.5591
  0
LINE
  8
0
 10
29.8818
 20
-27.5591
 11
30.0731
 21
-27.5262
  0
LINE
  8
0
 10
30.0731
 20
-27.5262
 11
33.7127
 21
-26.6652
  0
LINE
  8
0
 10
33.7127
 20
-26.6652
 11
34.289
 21
-26.5286
  0
LINE
  8
0
 10
34.289
 20
-26.5286
 11
36.2057
 21
-25.93
  0
LINE
  8
0
 10
36.2057
 20
-25.93
 11
36.5221
 21
-25.8313
  0
LINE
  8
0
 10
36.5221
 20
-25.8313
 11
38.196
 21
-25.2269
  0
LINE
  8
0
 10
38.196
 20
-25.2269
 11
38.4538
 21
-25.1341
  0
LINE
  8
0
 10
38.4538
 20
-25.1341
 11
41.9713
 21
-23.6083
  0
LINE
  8
0
 10
41.9713
 20
-23.6083
 11
42.3826
 21
-23.4367
  0
LINE
  8
0
 10
42.3826
 20
-23.4367
 11
43.3633
 21
-22.9462
  0
LINE
  8
0
 10
43.3633
 20
-22.9462
 11
43.694
 21
-22.7861
  0
LINE
  8
0
 10
43.694
 20
-22.7861
 11
45.3892
 21
-21.866
  0
LINE
  8
0
 10
45.3892
 20
-21.866
 11
45.6123
 21
-21.7461
  0
LINE
  8
0
 10
45.6123
 20
-21.7461
 11
48.4944
 21
-19.9479
  0
LINE
  8
0
 10
48.4944
 20
-19.9479
 11
49.0146
 21
-19.626
  0
LINE
  8
0
 10
49.0146
 20
-19.626
 11
50.0275
 21
-18.9141
  0
LINE
  8
0
 10
50.0275
 20
-18.9141
 11
50.1841
 21
-18.8039
  0
LINE
  8
0
 10
50.1841
 20
-18.8039
 11
51.8346
 21
-17.5378
  0
LINE
  8
0
 10
51.8346
 20
-17.5378
 11
52.1545
 21
-17.2894
  0
LINE
  8
0
 10
52.1545
 20
-17.2894
 11
54.5832
 21
-15.1287
  0
LINE
  8
0
 10
54.5832
 20
-15.1287
 11
54.9099
 21
-14.8347
  0
LINE
  8
0
 10
54.9099
 20
-14.8347
 11
55.226
 21
-14.5209
  0
LINE
  8
0
 10
55.226
 20
-14.5209
 11
55.2805
 21
-14.4668
  0
LINE
  8
0
 10
55.2805
 20
-14.4668
 11
56.0695
 21
-13.6423
  0
LINE
  8
0
 10
56.0695
 20
-13.6423
 11
56.3521
 21
-13.3311
  0
LINE
  8
0
 10
56.3521
 20
-13.3311
 11
58.0982
 21
-11.2384
  0
LINE
  8
0
 10
58.0982
 20
-11.2384
 11
58.9346
 21
-10.0489
  0
LINE
  8
0
 10
58.9346
 20
-10.0489
 11
59.1843
 21
-9.71174
  0
LINE
  8
0
 10
59.1843
 20
-9.71174
 11
59.2103
 21
-9.67156
  0
LINE
  8
0
 10
59.2103
 20
-9.67156
 11
59.8472
 21
-8.63988
  0
LINE
  8
0
 10
59.8472
 20
-8.63988
 11
59.9112
 21
-8.53536
  0
LINE
  8
0
 10
59.9112
 20
-8.53536
 11
60.0952
 21
-8.21015
  0
LINE
  8
0
 10
60.0952
 20
-8.21015
 11
61.0508
 21
-6.20816
  0
LINE
  8
0
 10
61.0508
 20
-6.20816
 11
61.2238
 21
-5.86426
  0
LINE
  8
0
 10
61.2238
 20
-5.86426
 11
61.3472
 21
-5.54737
  0
LINE
  8
0
 10
61.3472
 20
-5.54737
 11
61.3821
 21
-5.45977
  0
LINE
  8
0
 10
61.3821
 20
-5.45977
 11
61.9295
 21
-3.69322
  0
LINE
  8
0
 10
61.9295
 20
-3.69322
 11
62.01
 21
-3.43722
  0
LINE
  8
0
 10
62.01
 20
-3.43722
 11
62.1588
 21
-2.7445
  0
LINE
  8
0
 10
62.1588
 20
-2.7445
 11
62.1877
 21
-2.61224
  0
LINE
  8
0
 10
62.1877
 20
-2.61224
 11
62.3544
 21
-1.42398
  0
LINE
  8
0
 10
62.3544
 20
-1.42398
 11
62.3795
 21
-1.24362
  0
LINE
  8
0
 10
62.3795
 20
-1.24362
 11
62.4287
 21
-0.392806
  0
LINE
  8
0
 10
62.4287
 20
-0.392806
 11
62.4364
 21
-0.258214
  0
LINE
  8
0
 10
62.4364
 20
-0.258214
 11
62.3157
 21
1.74651
  0
LINE
  8
0
 10
62.3157
 20
1.74651
 11
62.2959
 21
2.06325
  0
LINE
  8
0
 10
62.2959
 20
2.06325
 11
62.2601
 21
2.29944
  0
LINE
  8
0
 10
62.2601
 20
2.29944
 11
62.2451
 21
2.38895
  0
LINE
  8
0
 10
62.2451
 20
2.38895
 11
62.1365
 21
2.97901
  0
LINE
  8
0
 10
62.1365
 20
2.97901
 11
62.1301
 21
3.01105
  0
LINE
  8
0
 10
62.1301
 20
3.01105
 11
61.7172
 21
4.555
  0
LINE
  8
0
 10
61.7172
 20
4.555
 11
61.6372
 21
4.84185
  0
LINE
  8
0
 10
61.6372
 20
4.84185
 11
60.7862
 21
6.93284
  0
LINE
  8
0
 10
60.7862
 20
6.93284
 11
60.6692
 21
7.21258
  0
LINE
  8
0
 10
60.6692
 20
7.21258
 11
60.6611
 21
7.22943
  0
LINE
  8
0
 10
60.6611
 20
7.22943
 11
60.6443
 21
7.26345
  0
LINE
  8
0
 10
60.6443
 20
7.26345
 11
60.3987
 21
7.74857
  0
LINE
  8
0
 10
60.3987
 20
7.74857
 11
60.3323
 21
7.87299
  0
LINE
  8
0
 10
60.3323
 20
7.87299
 11
58.8981
 21
10.2091
  0
LINE
  8
0
 10
58.8981
 20
10.2091
 11
58.6786
 21
10.5485
  0
LINE
  8
0
 10
58.6786
 20
10.5485
 11
57.9436
 21
11.5373
  0
LINE
  8
0
 10
57.9436
 20
11.5373
 11
57.8663
 21
11.6395
  0
LINE
  8
0
 10
57.8663
 20
11.6395
 11
56.8031
 21
12.9137
  0
LINE
  8
0
 10
56.8031
 20
12.9137
 11
56.6149
 21
13.1375
  0
LINE
  8
0
 10
56.6149
 20
13.1375
 11
55.3038
 21
14.5227
  0
LINE
  8
0
 10
55.3038
 20
14.5227
 11
55.1408
 21
14.695
  0
LINE
  8
0
 10
55.1408
 20
14.695
 11
53.4608
 21
16.2509
  0
LINE
  8
0
 10
53.4608
 20
16.2509
 11
53.1711
 21
16.5209
  0
LINE
  8
0
 10
53.1711
 20
16.5209
 11
53.0847
 21
16.5942
  0
LINE
  8
0
 10
53.0847
 20
16.5942
 11
52.1306
 21
17.3921
  0
LINE
  8
0
 10
52.1306
 20
17.3921
 11
51.7115
 21
17.7113
  0
LINE
  8
0
 10
51.7115
 20
17.7113
 11
48.766
 21
19.8715
  0
LINE
  8
0
 10
48.766
 20
19.8715
 11
47.1442
 21
20.9003
  0
LINE
  8
0
 10
47.1442
 20
20.9003
 11
46.7664
 21
21.1456
  0
LINE
  8
0
 10
46.7664
 20
21.1456
 11
46.6871
 21
21.1928
  0
LINE
  8
0
 10
46.6871
 20
21.1928
 11
45.0852
 21
22.1146
  0
LINE
  8
0
 10
45.0852
 20
22.1146
 11
44.6497
 21
22.3501
  0
LINE
  8
0
 10
44.6497
 20
22.3501
 11
43.223
 21
23.0994
  0
LINE
  8
0
 10
43.223
 20
23.0994
 11
39.9657
 21
24.5789
  0
LINE
  8
0
 10
39.9657
 20
24.5789
 11
39.4669
 21
24.8042
  0
LINE
  8
0
 10
39.4669
 20
24.8042
 11
39.3774
 21
24.8405
  0
LINE
  8
0
 10
39.3774
 20
24.8405
 11
39.3102
 21
24.8675
  0
LINE
  8
0
 10
39.3102
 20
24.8675
 11
35.9088
 21
26.086
  0
LINE
  8
0
 10
35.9088
 20
26.086
 11
35.3257
 21
26.2881
  0
LINE
  8
0
 10
35.3257
 20
26.2881
 11
32.4165
 21
27.0812
  0
LINE
  8
0
 10
32.4165
 20
27.0812
 11
32.0292
 21
27.1841
  0
LINE
  8
0
 10
32.0292
 20
27.1841
 11
31.484
 21
27.307
  0
LINE
  8
0
 10
31.484
 20
27.307
 11
31.2805
 21
27.3509
  0
LINE
  8
0
 10
31.2805
 20
27.3509
 11
28.9131
 21
27.789
  0
LINE
  8
0
 10
28.9131
 20
27.789
 11
28.3604
 21
27.8733
  0
LINE
  8
0
 10
28.3604
 20
27.8733
 11
25.205
 21
28.2323
  0
LINE
  8
0
 10
25.205
 20
28.2323
 11
25.0409
 21
28.2483
  0
LINE
  8
0
 10
25.0409
 20
28.2483
 11
24.975
 21
28.2537
  0
LINE
  8
0
 10
24.975
 20
28.2537
 11
24.4556
 21
28.2906
  0
LINE
  8
0
 10
24.4556
 20
28.2906
 11
24.0949
 21
28.3097
  0
LINE
  8
0
 10
24.0949
 20
28.3097
 11
19.761
 21
28.4017
  0
LINE
  8
0
 10
19.761
 20
28.4017
 11
19.1535
 21
28.3983
  0
LINE
  8
0
 10
19.1535
 20
28.3983
 11
17.6809
 21
28.3506
  0
LINE
  8
0
 10
17.6809
 20
28.3506
 11
17.6219
 21
28.3481
  0
LINE
  8
0
 10
17.6219
 20
28.3481
 11
14.3986
 21
28.1241
  0
LINE
  8
0
 10
14.3986
 20
28.1241
 11
13.8331
 21
28.0838
  0
LINE
  8
0
 10
13.8331
 20
28.0838
 11
9.59577
 21
27.5884
  0
LINE
  8
0
 10
9.59577
 20
27.5884
 11
8.95287
 21
27.5123
  0
LINE
  8
0
 10
8.95287
 20
27.5123
 11
8.24602
 21
27.4102
  0
LINE
  8
0
 10
8.24602
 20
27.4102
 11
-1.67188
 21
25.884
  0
LINE
  8
0
 10
-1.67188
 20
25.884
 11
-3.23311
 21
25.6209
  0
LINE
  8
0
 10
-3.23311
 20
25.6209
 11
-13.1835
 21
23.7571
  0
LINE
  8
0
 10
-13.1835
 20
23.7571
 11
-14.0866
 21
23.5816
  0
LINE
  8
0
 10
-14.0866
 20
23.5816
 11
-14.1823
 21
23.5621
  0
LINE
  8
0
 10
-14.1823
 20
23.5621
 11
-14.8274
 21
23.4262
  0
LINE
  8
0
 10
-14.8274
 20
23.4262
 11
-18.7791
 21
22.594
  0
LINE
  8
0
 10
-18.7791
 20
22.594
 11
-28.6901
 21
20.2782
  0
LINE
  8
0
 10
-28.6901
 20
20.2782
 11
-30.2266
 21
19.919
  0
LINE
  8
0
 10
-30.2266
 20
19.919
 11
-33.8886
 21
18.9792
  0
LINE
  8
0
 10
-33.8886
 20
18.9792
 11
-34.4492
 21
18.8353
  0
LINE
  8
0
 10
-34.4492
 20
18.8353
 11
-34.5482
 21
18.8092
  0
LINE
  8
0
 10
-34.5482
 20
18.8092
 11
-40.6898
 21
17.128
  0
LINE
  8
0
 10
-40.6898
 20
17.128
 11
-42.1622
 21
16.712
  0
LINE
  8
0
 10
-42.1622
 20
16.712
 11
-46.0785
 21
15.569
  0
LINE
  8
0
 10
-46.0785
 20
15.569
 11
-52.7177
 21
13.4993
  0
LINE
  8
0
 10
-52.7177
 20
13.4993
 11
-53.6543
 21
13.2067
  0
LINE
  8
0
 10
-53.6543
 20
13.2067
 11
-55.9946
 21
12.4358
  0
LINE
  8
0
 10
-55.9946
 20
12.4358
 11
-56.4665
 21
12.2795
  0
LINE
  8
0
 10
-56.4665
 20
12.2795
 11
-65.2408
 21
9.1833
  0
LINE
  8
0
 10
-65.2408
 20
9.1833
 11
-66.5772
 21
8.70545
  0
LINE
  8
0
 10
-66.5772
 20
8.70545
 11
-70.7379
 21
7.11538
  0
LINE
  8
0
 10
-70.7379
 20
7.11538
 11
-70.8922
 21
7.0566
  0
LINE
  8
0
 10
-70.8922
 20
7.0566
 11
-71.1488
 21
6.9571
  0
LINE
  8
0
 10
-71.1488
 20
6.9571
 11
-72.4728
 21
6.43353
  0
LINE
  8
0
 10
-72.4728
 20
6.43353
 11
-73.3855
 21
6.06038
  0
LINE
  8
0
 10
-73.3855
 20
6.06038
 11
-81.5334
 21
2.63475
  0
LINE
  8
0
 10
-81.5334
 20
2.63475
 11
-86.4597
 21
0.376704
  0
LINE
  8
0
 10
-86.4597
 20
0.376704
 11
-87.5599
 21
-0.117814
  0
ENDSEC
  0
SECTION
  2
OBJECTS
  0
DICTIONARY
  0
ENDSEC
  0
EOF
