  0
SECTION
  2
BLOCKS
  0
ENDSEC
  0
SECTION
  2
ENTITIES
  0
LINE
  8
0
 10
21.5144
 20
-28.3488
 11
22.4548
 21
-28.3259
  0
LINE
  8
0
 10
22.4548
 20
-28.3259
 11
22.496
 21
-28.3248
  0
LINE
  8
0
 10
22.496
 20
-28.3248
 11
22.7457
 21
-28.311
  0
LINE
  8
0
 10
22.7457
 20
-28.311
 11
22.9543
 21
-28.2984
  0
LINE
  8
0
 10
22.9543
 20
-28.2984
 11
26.6273
 21
-28.032
  0
LINE
  8
0
 10
26.6273
 20
-28.032
 11
26.6789
 21
-28.0272
  0
LINE
  8
0
 10
26.6789
 20
-28.0272
 11
26.743
 21
-28.0205
  0
LINE
  8
0
 10
26.743
 20
-28.0205
 11
28.5656
 21
-27.7749
  0
LINE
  8
0
 10
28.5656
 20
-27.7749
 11
28.7666
 21
-27.7498
  0
LINE
  8
0
 10
28.7666
 20
-27.7498
 11
29.9725
 21
-27.5436
  0
LINE
  8
0
 10
29.9725
 20
-27.5436
 11
30.0681
 21
-27.5272
  0
LINE
  8
0
 10
30.0681
 20
-27.5272
 11
30.0731
 21
-27.5262
  0
LINE
  8
0
 10
30.0731
 20
-27.5262
 11
33.7127
 21
-26.6652
  0
LINE
  8
0
 10
33.7127
 20
-26.6652
 11
34.289
 21
-26.5286
  0
LINE
  8
0
 10
34.289
 20
-26.5286
 11
34.2916
 21
-26.5278
  0
LINE
  8
0
 10
34.2916
 20
-26.5278
 11
36.3384
 21
-25.8886
  0
LINE
  8
0
 10
36.3384
 20
-25.8886
 11
36.5221
 21
-25.8313
  0
LINE
  8
0
 10
36.5221
 20
-25.8313
 11
38.196
 21
-25.2269
  0
LINE
  8
0
 10
38.196
 20
-25.2269
 11
38.4538
 21
-25.1341
  0
LINE
  8
0
 10
38.4538
 20
-25.1341
 11
38.4607
 21
-25.1315
  0
LINE
  8
0
 10
38.4607
 20
-25.1315
 11
41.9934
 21
-23.599
  0
LINE
  8
0
 10
41.9934
 20
-23.599
 11
42.3826
 21
-23.4366
  0
LINE
  8
0
 10
42.3826
 20
-23.4366
 11
42.4687
 21
-23.3963
  0
LINE
  8
0
 10
42.4687
 20
-23.3963
 11
43.5287
 21
-22.8661
  0
LINE
  8
0
 10
43.5287
 20
-22.8661
 11
43.694
 21
-22.7861
  0
LINE
  8
0
 10
43.694
 20
-22.7861
 11
45.3891
 21
-21.866
  0
LINE
  8
0
 10
45.3891
 20
-21.866
 11
45.6122
 21
-21.7461
  0
LINE
  8
0
 10
45.6122
 20
-21.7461
 11
45.6374
 21
-21.7318
  0
LINE
  8
0
 10
45.6374
 20
-21.7318
 11
48.7517
 21
-19.7889
  0
LINE
  8
0
 10
48.7517
 20
-19.7889
 11
49.0117
 21
-19.628
  0
LINE
  8
0
 10
49.0117
 20
-19.628
 11
49.0146
 21
-19.626
  0
LINE
  8
0
 10
49.0146
 20
-19.626
 11
50.0275
 21
-18.9141
  0
LINE
  8
0
 10
50.0275
 20
-18.9141
 11
50.1841
 21
-18.8039
  0
LINE
  8
0
 10
50.1841
 20
-18.8039
 11
51.9666
 21
-17.4365
  0
LINE
  8
0
 10
51.9666
 20
-17.4365
 11
52.1265
 21
-17.3123
  0
LINE
  8
0
 10
52.1265
 20
-17.3123
 11
52.1545
 21
-17.2894
  0
LINE
  8
0
 10
52.1545
 20
-17.2894
 11
54.5832
 21
-15.1287
  0
LINE
  8
0
 10
54.5832
 20
-15.1287
 11
54.9099
 21
-14.8347
  0
LINE
  8
0
 10
54.9099
 20
-14.8347
 11
54.9121
 21
-14.8326
  0
LINE
  8
0
 10
54.9121
 20
-14.8326
 11
55.2532
 21
-14.4938
  0
LINE
  8
0
 10
55.2532
 20
-14.4938
 11
55.2805
 21
-14.4668
  0
LINE
  8
0
 10
55.2805
 20
-14.4668
 11
56.132
 21
-13.5769
  0
LINE
  8
0
 10
56.132
 20
-13.5769
 11
56.2733
 21
-13.4214
  0
LINE
  8
0
 10
56.2733
 20
-13.4214
 11
56.3521
 21
-13.3311
  0
LINE
  8
0
 10
56.3521
 20
-13.3311
 11
58.0982
 21
-11.2384
  0
LINE
  8
0
 10
58.0982
 20
-11.2384
 11
58.1571
 21
-11.1635
  0
LINE
  8
0
 10
58.1571
 20
-11.1635
 11
59.0593
 21
-9.88051
  0
LINE
  8
0
 10
59.0593
 20
-9.88051
 11
59.1843
 21
-9.71173
  0
LINE
  8
0
 10
59.1843
 20
-9.71173
 11
59.2103
 21
-9.67155
  0
LINE
  8
0
 10
59.2103
 20
-9.67155
 11
59.8472
 21
-8.63988
  0
LINE
  8
0
 10
59.8472
 20
-8.63988
 11
59.9112
 21
-8.53535
  0
LINE
  8
0
 10
59.9112
 20
-8.53535
 11
59.9162
 21
-8.52675
  0
LINE
  8
0
 10
59.9162
 20
-8.52675
 11
60.1146
 21
-8.17603
  0
LINE
  8
0
 10
60.1146
 20
-8.17603
 11
61.1124
 21
-6.08568
  0
LINE
  8
0
 10
61.1124
 20
-6.08568
 11
61.2238
 21
-5.86426
  0
LINE
  8
0
 10
61.2238
 20
-5.86426
 11
61.2316
 21
-5.8452
  0
LINE
  8
0
 10
61.2316
 20
-5.8452
 11
61.3646
 21
-5.50354
  0
LINE
  8
0
 10
61.3646
 20
-5.50354
 11
61.3821
 21
-5.45976
  0
LINE
  8
0
 10
61.3821
 20
-5.45976
 11
61.9295
 21
-3.69321
  0
LINE
  8
0
 10
61.9295
 20
-3.69321
 11
62.01
 21
-3.43721
  0
LINE
  8
0
 10
62.01
 20
-3.43721
 11
62.0125
 21
-3.42735
  0
LINE
  8
0
 10
62.0125
 20
-3.42735
 11
62.1728
 21
-2.68066
  0
LINE
  8
0
 10
62.1728
 20
-2.68066
 11
62.1872
 21
-2.61455
  0
LINE
  8
0
 10
62.1872
 20
-2.61455
 11
62.1877
 21
-2.61224
  0
LINE
  8
0
 10
62.1877
 20
-2.61224
 11
62.3544
 21
-1.42398
  0
LINE
  8
0
 10
62.3544
 20
-1.42398
 11
62.3795
 21
-1.24361
  0
LINE
  8
0
 10
62.3795
 20
-1.24361
 11
62.4325
 21
-0.326584
  0
LINE
  8
0
 10
62.4325
 20
-0.326584
 11
62.4363
 21
-0.259308
  0
LINE
  8
0
 10
62.4363
 20
-0.259308
 11
62.4363
 21
-0.258209
  0
LINE
  8
0
 10
62.4363
 20
-0.258209
 11
62.3157
 21
1.74649
  0
LINE
  8
0
 10
62.3157
 20
1.74649
 11
62.3063
 21
1.90138
  0
LINE
  8
0
 10
62.3063
 20
1.90138
 11
62.2964
 21
2.05971
  0
LINE
  8
0
 10
62.2964
 20
2.05971
 11
62.2601
 21
2.29944
  0
LINE
  8
0
 10
62.2601
 20
2.29944
 11
62.2579
 21
2.31429
  0
LINE
  8
0
 10
62.2579
 20
2.31429
 11
62.2503
 21
2.35902
  0
LINE
  8
0
 10
62.2503
 20
2.35902
 11
62.2451
 21
2.38893
  0
LINE
  8
0
 10
62.2451
 20
2.38893
 11
62.1365
 21
2.979
  0
LINE
  8
0
 10
62.1365
 20
2.979
 11
62.1301
 21
3.01105
  0
LINE
  8
0
 10
62.1301
 20
3.01105
 11
61.685
 21
4.67523
  0
LINE
  8
0
 10
61.685
 20
4.67523
 11
61.645
 21
4.81862
  0
LINE
  8
0
 10
61.645
 20
4.81862
 11
61.6372
 21
4.84184
  0
LINE
  8
0
 10
61.6372
 20
4.84184
 11
60.7862
 21
6.93283
  0
LINE
  8
0
 10
60.7862
 20
6.93283
 11
60.6692
 21
7.21257
  0
LINE
  8
0
 10
60.6692
 20
7.21257
 11
60.6604
 21
7.23074
  0
LINE
  8
0
 10
60.6604
 20
7.23074
 11
60.6443
 21
7.26344
  0
LINE
  8
0
 10
60.6443
 20
7.26344
 11
60.3987
 21
7.74857
  0
LINE
  8
0
 10
60.3987
 20
7.74857
 11
60.3872
 21
7.77083
  0
LINE
  8
0
 10
60.3872
 20
7.77083
 11
60.3541
 21
7.83302
  0
LINE
  8
0
 10
60.3541
 20
7.83302
 11
60.3323
 21
7.87299
  0
LINE
  8
0
 10
60.3323
 20
7.87299
 11
58.8981
 21
10.2091
  0
LINE
  8
0
 10
58.8981
 20
10.2091
 11
58.8075
 21
10.3521
  0
LINE
  8
0
 10
58.8075
 20
10.3521
 11
58.6978
 21
10.5218
  0
LINE
  8
0
 10
58.6978
 20
10.5218
 11
58.6786
 21
10.5485
  0
LINE
  8
0
 10
58.6786
 20
10.5485
 11
57.9436
 21
11.5373
  0
LINE
  8
0
 10
57.9436
 20
11.5373
 11
57.8663
 21
11.6395
  0
LINE
  8
0
 10
57.8663
 20
11.6395
 11
56.7193
 21
13.0141
  0
LINE
  8
0
 10
56.7193
 20
13.0141
 11
56.6253
 21
13.1259
  0
LINE
  8
0
 10
56.6253
 20
13.1259
 11
56.6149
 21
13.1375
  0
LINE
  8
0
 10
56.6149
 20
13.1375
 11
55.3038
 21
14.5227
  0
LINE
  8
0
 10
55.3038
 20
14.5227
 11
55.1408
 21
14.695
  0
LINE
  8
0
 10
55.1408
 20
14.695
 11
55.129
 21
14.7067
  0
LINE
  8
0
 10
55.129
 20
14.7067
 11
53.3159
 21
16.3859
  0
LINE
  8
0
 10
53.3159
 20
16.3859
 11
53.1711
 21
16.5209
  0
LINE
  8
0
 10
53.1711
 20
16.5209
 11
53.0847
 21
16.5942
  0
LINE
  8
0
 10
53.0847
 20
16.5942
 11
52.1306
 21
17.3921
  0
LINE
  8
0
 10
52.1306
 20
17.3921
 11
52.0978
 21
17.419
  0
LINE
  8
0
 10
52.0978
 20
17.419
 11
51.8883
 21
17.5785
  0
LINE
  8
0
 10
51.8883
 20
17.5785
 11
51.7115
 21
17.7113
  0
LINE
  8
0
 10
51.7115
 20
17.7113
 11
48.766
 21
19.8715
  0
LINE
  8
0
 10
48.766
 20
19.8715
 11
48.7069
 21
19.9117
  0
LINE
  8
0
 10
48.7069
 20
19.9117
 11
46.9552
 21
21.023
  0
LINE
  8
0
 10
46.9552
 20
21.023
 11
46.7664
 21
21.1456
  0
LINE
  8
0
 10
46.7664
 20
21.1456
 11
46.6871
 21
21.1928
  0
LINE
  8
0
 10
46.6871
 20
21.1928
 11
45.0852
 21
22.1146
  0
LINE
  8
0
 10
45.0852
 20
22.1146
 11
44.996
 21
22.1652
  0
LINE
  8
0
 10
44.996
 20
22.1652
 11
44.7783
 21
22.2829
  0
LINE
  8
0
 10
44.7783
 20
22.2829
 11
43.2364
 21
23.0926
  0
LINE
  8
0
 10
43.2364
 20
23.0926
 11
43.223
 21
23.0994
  0
LINE
  8
0
 10
43.223
 20
23.0994
 11
39.9657
 21
24.5789
  0
LINE
  8
0
 10
39.9657
 20
24.5789
 11
39.4669
 21
24.8042
  0
LINE
  8
0
 10
39.4669
 20
24.8042
 11
39.3701
 21
24.8435
  0
LINE
  8
0
 10
39.3701
 20
24.8435
 11
39.3102
 21
24.8675
  0
LINE
  8
0
 10
39.3102
 20
24.8675
 11
35.9088
 21
26.086
  0
LINE
  8
0
 10
35.9088
 20
26.086
 11
35.6596
 21
26.1741
  0
LINE
  8
0
 10
35.6596
 20
26.1741
 11
35.3681
 21
26.2751
  0
LINE
  8
0
 10
35.3681
 20
26.2751
 11
35.3257
 21
26.2881
  0
LINE
  8
0
 10
35.3257
 20
26.2881
 11
32.4165
 21
27.0812
  0
LINE
  8
0
 10
32.4165
 20
27.0812
 11
32.0292
 21
27.1841
  0
LINE
  8
0
 10
32.0292
 20
27.1841
 11
31.4397
 21
27.317
  0
LINE
  8
0
 10
31.4397
 20
27.317
 11
31.338
 21
27.3389
  0
LINE
  8
0
 10
31.338
 20
27.3389
 11
31.2805
 21
27.3509
  0
LINE
  8
0
 10
31.2805
 20
27.3509
 11
28.9131
 21
27.789
  0
LINE
  8
0
 10
28.9131
 20
27.789
 11
28.7781
 21
27.8127
  0
LINE
  8
0
 10
28.7781
 20
27.8127
 11
28.5018
 21
27.8548
  0
LINE
  8
0
 10
28.5018
 20
27.8548
 11
28.3604
 21
27.8733
  0
LINE
  8
0
 10
28.3604
 20
27.8733
 11
25.205
 21
28.2323
  0
LINE
  8
0
 10
25.205
 20
28.2323
 11
25.0409
 21
28.2483
  0
LINE
  8
0
 10
25.0409
 20
28.2483
 11
24.975
 21
28.2537
  0
LINE
  8
0
 10
24.975
 20
28.2537
 11
24.4134
 21
28.2936
  0
LINE
  8
0
 10
24.4134
 20
28.2936
 11
24.2331
 21
28.3031
  0
LINE
  8
0
 10
24.2331
 20
28.3031
 11
24.0949
 21
28.3097
  0
LINE
  8
0
 10
24.0949
 20
28.3097
 11
19.761
 21
28.4017
  0
LINE
  8
0
 10
19.761
 20
28.4017
 11
19.5471
 21
28.4026
  0
LINE
  8
0
 10
19.5471
 20
28.4026
 11
19.2434
 21
28.401
  0
LINE
  8
0
 10
19.2434
 20
28.401
 11
19.1534
 21
28.3983
  0
LINE
  8
0
 10
19.1534
 20
28.3983
 11
17.6809
 21
28.3506
  0
LINE
  8
0
 10
17.6809
 20
28.3506
 11
17.6219
 21
28.3481
  0
LINE
  8
0
 10
17.6219
 20
28.3481
 11
14.1372
 21
28.1059
  0
LINE
  8
0
 10
14.1372
 20
28.1059
 11
13.8545
 21
28.0858
  0
LINE
  8
0
 10
13.8545
 20
28.0858
 11
13.8331
 21
28.0838
  0
LINE
  8
0
 10
13.8331
 20
28.0838
 11
9.59576
 21
27.5884
  0
LINE
  8
0
 10
9.59576
 20
27.5884
 11
8.95287
 21
27.5123
  0
LINE
  8
0
 10
8.95287
 20
27.5123
 11
8.24602
 21
27.4102
  0
LINE
  8
0
 10
8.24602
 20
27.4102
 11
-1.67188
 21
25.884
  0
LINE
  8
0
 10
-1.67188
 20
25.884
 11
-2.11501
 21
25.8125
  0
LINE
  8
0
 10
-2.11501
 20
25.8125
 11
-2.89539
 21
25.681
  0
LINE
  8
0
 10
-2.89539
 20
25.681
 11
-3.23309
 21
25.6209
  0
LINE
  8
0
 10
-3.23309
 20
25.6209
 11
-13.1834
 21
23.7571
  0
LINE
  8
0
 10
-13.1834
 20
23.7571
 11
-14.0866
 21
23.5816
  0
LINE
  8
0
 10
-14.0866
 20
23.5816
 11
-14.1899
 21
23.5605
  0
LINE
  8
0
 10
-14.1899
 20
23.5605
 11
-18.7727
 21
22.5954
  0
LINE
  8
0
 10
-18.7727
 20
22.5954
 11
-18.7791
 21
22.594
  0
LINE
  8
0
 10
-18.7791
 20
22.594
 11
-28.6901
 21
20.2782
  0
LINE
  8
0
 10
-28.6901
 20
20.2782
 11
-30.2266
 21
19.919
  0
LINE
  8
0
 10
-30.2266
 20
19.919
 11
-34.4492
 21
18.8353
  0
LINE
  8
0
 10
-34.4492
 20
18.8353
 11
-34.5482
 21
18.8091
  0
LINE
  8
0
 10
-34.5482
 20
18.8091
 11
-40.6898
 21
17.128
  0
LINE
  8
0
 10
-40.6898
 20
17.128
 11
-41.1076
 21
17.0132
  0
LINE
  8
0
 10
-41.1076
 20
17.0132
 11
-41.8435
 21
16.8052
  0
LINE
  8
0
 10
-41.8435
 20
16.8052
 11
-46.0519
 21
15.577
  0
LINE
  8
0
 10
-46.0519
 20
15.577
 11
-46.0785
 21
15.569
  0
LINE
  8
0
 10
-46.0785
 20
15.569
 11
-52.7177
 21
13.4993
  0
LINE
  8
0
 10
-52.7177
 20
13.4993
 11
-53.6543
 21
13.2067
  0
LINE
  8
0
 10
-53.6543
 20
13.2067
 11
-56.1667
 21
12.3792
  0
LINE
  8
0
 10
-56.1667
 20
12.3792
 11
-56.4026
 21
12.301
  0
LINE
  8
0
 10
-56.4026
 20
12.301
 11
-56.4665
 21
12.2795
  0
LINE
  8
0
 10
-56.4665
 20
12.2795
 11
-65.2408
 21
9.18329
  0
LINE
  8
0
 10
-65.2408
 20
9.18329
 11
-65.8174
 21
8.97874
  0
LINE
  8
0
 10
-65.8174
 20
8.97874
 11
-66.4854
 21
8.73988
  0
LINE
  8
0
 10
-66.4854
 20
8.73988
 11
-66.5772
 21
8.70544
  0
LINE
  8
0
 10
-66.5772
 20
8.70544
 11
-70.7379
 21
7.11537
  0
LINE
  8
0
 10
-70.7379
 20
7.11537
 11
-70.8922
 21
7.05659
  0
LINE
  8
0
 10
-70.8922
 20
7.05659
 11
-71.1488
 21
6.95709
  0
LINE
  8
0
 10
-71.1488
 20
6.95709
 11
-72.5667
 21
6.39638
  0
LINE
  8
0
 10
-72.5667
 20
6.39638
 11
-73.0229
 21
6.20985
  0
LINE
  8
0
 10
-73.0229
 20
6.20985
 11
-73.3855
 21
6.06036
  0
LINE
  8
0
 10
-73.3855
 20
6.06036
 11
-81.5334
 21
2.63475
  0
LINE
  8
0
 10
-81.5334
 20
2.63475
 11
-81.7397
 21
2.54506
  0
LINE
  8
0
 10
-81.7397
 20
2.54506
 11
-87.01
 21
0.129364
  0
LINE
  8
0
 10
-87.01
 20
0.129364
 11
-87.5599
 21
-0.117813
  0
LINE
  8
0
 10
-87.5599
 20
-0.117813
 11
-82.6154
 21
-2.36821
  0
LINE
  8
0
 10
-82.6154
 20
-2.36821
 11
-82.1692
 21
-2.57362
  0
LINE
  8
0
 10
-82.1692
 20
-2.57362
 11
-82.054
 21
-2.62486
  0
LINE
  8
0
 10
-82.054
 20
-2.62486
 11
-73.6881
 21
-6.11562
  0
LINE
  8
0
 10
-73.6881
 20
-6.11562
 11
-72.9234
 21
-6.44252
  0
LINE
  8
0
 10
-72.9234
 20
-6.44252
 11
-72.7833
 21
-6.49869
  0
LINE
  8
0
 10
-72.7833
 20
-6.49869
 11
-72.2341
 21
-6.71529
  0
LINE
  8
0
 10
-72.2341
 20
-6.71529
 11
-72.056
 21
-6.78642
  0
LINE
  8
0
 10
-72.056
 20
-6.78642
 11
-66.7223
 21
-8.81865
  0
LINE
  8
0
 10
-66.7223
 20
-8.81865
 11
-66.3273
 21
-8.96858
  0
LINE
  8
0
 10
-66.3273
 20
-8.96858
 11
-66.2848
 21
-8.98422
  0
LINE
  8
0
 10
-66.2848
 20
-8.98422
 11
-57.4832
 21
-12.0634
  0
LINE
  8
0
 10
-57.4832
 20
-12.0634
 11
-56.894
 21
-12.2688
  0
LINE
  8
0
 10
-56.894
 20
-12.2688
 11
-56.2978
 21
-12.4765
  0
LINE
  8
0
 10
-56.2978
 20
-12.4765
 11
-54.5615
 21
-13.046
  0
LINE
  8
0
 10
-54.5615
 20
-13.046
 11
-47.081
 21
-15.368
  0
LINE
  8
0
 10
-47.081
 20
-15.368
 11
-46.0151
 21
-15.6993
  0
LINE
  8
0
 10
-46.0151
 20
-15.6993
 11
-45.9991
 21
-15.704
  0
LINE
  8
0
 10
-45.9991
 20
-15.704
 11
-41.7875
 21
-16.9208
  0
LINE
  8
0
 10
-41.7875
 20
-16.9208
 11
-41.0665
 21
-17.1223
  0
LINE
  8
0
 10
-41.0665
 20
-17.1223
 11
-40.6534
 21
-17.2348
  0
LINE
  8
0
 10
-40.6534
 20
-17.2348
 11
-33.7513
 21
-19.095
  0
LINE
  8
0
 10
-33.7513
 20
-19.095
 11
-33.5274
 21
-19.1532
  0
LINE
  8
0
 10
-33.5274
 20
-19.1532
 11
-30.3936
 21
-19.9444
  0
LINE
  8
0
 10
-30.3936
 20
-19.9444
 11
-29.7593
 21
-20.0988
  0
LINE
  8
0
 10
-29.7593
 20
-20.0988
 11
-29.3468
 21
-20.1972
  0
LINE
  8
0
 10
-29.3468
 20
-20.1972
 11
-19.4189
 21
-22.4885
  0
LINE
  8
0
 10
-19.4189
 20
-22.4885
 11
-19.062
 21
-22.5677
  0
LINE
  8
0
 10
-19.062
 20
-22.5677
 11
-14.7971
 21
-23.4539
  0
LINE
  8
0
 10
-14.7971
 20
-23.4539
 11
-14.1318
 21
-23.5972
  0
LINE
  8
0
 10
-14.1318
 20
-23.5972
 11
-12.0175
 21
-24.0164
  0
LINE
  8
0
 10
-12.0175
 20
-24.0164
 11
-2.48822
 21
-25.7475
  0
LINE
  8
0
 10
-2.48822
 20
-25.7475
 11
9.02704
 21
-27.4877
  0
LINE
  8
0
 10
9.02704
 20
-27.4877
 11
9.28645
 21
-27.5208
  0
LINE
  8
0
 10
9.28645
 20
-27.5208
 11
13.2649
 21
-27.98
  0
LINE
  8
0
 10
13.2649
 20
-27.98
 11
13.4565
 21
-28.0006
  0
LINE
  8
0
 10
13.4565
 20
-28.0006
 11
13.8596
 21
-28.0369
  0
LINE
  8
0
 10
13.8596
 20
-28.0369
 11
14.0713
 21
-28.0527
  0
LINE
  8
0
 10
14.0713
 20
-28.0527
 11
17.9487
 21
-28.3057
  0
LINE
  8
0
 10
17.9487
 20
-28.3057
 11
18.0514
 21
-28.3104
  0
LINE
  8
0
 10
18.0514
 20
-28.3104
 11
18.3837
 21
-28.3176
  0
LINE
  8
0
 10
18.3837
 20
-28.3176
 11
21.444
 21
-28.3502
  0
LINE
  8
0
 10
21.444
 20
-28.3502
 11
21.5144
 21
-28.3488
  0
ENDSEC
  0
SECTION
  2
OBJECTS
  0
DICTIONARY
  0
ENDSEC
  0
EOF
