  0
SECTION
  2
BLOCKS
  0
ENDSEC
  0
SECTION
  2
ENTITIES
  0
LINE
  8
0
 10
-87.5598
 20
-0.117814
 11
-81.9462
 21
-2.67273
  0
LINE
  8
0
 10
-81.9462
 20
-2.67273
 11
-81.9423
 21
-2.67447
  0
LINE
  8
0
 10
-81.9423
 20
-2.67447
 11
-81.9409
 21
-2.67504
  0
LINE
  8
0
 10
-81.9409
 20
-2.67504
 11
-81.9389
 21
-2.67591
  0
LINE
  8
0
 10
-81.9389
 20
-2.67591
 11
-72.6469
 21
-6.55312
  0
LINE
  8
0
 10
-72.6469
 20
-6.55312
 11
-72.6431
 21
-6.55467
  0
LINE
  8
0
 10
-72.6431
 20
-6.55467
 11
-72.0562
 21
-6.78619
  0
LINE
  8
0
 10
-72.0562
 20
-6.78619
 11
-72.0537
 21
-6.78715
  0
LINE
  8
0
 10
-72.0537
 20
-6.78715
 11
-66.3697
 21
-8.95281
  0
LINE
  8
0
 10
-66.3697
 20
-8.95281
 11
-56.3092
 21
-12.4724
  0
LINE
  8
0
 10
-56.3092
 20
-12.4724
 11
-56.3051
 21
-12.4738
  0
LINE
  8
0
 10
-56.3051
 20
-12.4738
 11
-54.5621
 21
-13.0456
  0
LINE
  8
0
 10
-54.5621
 20
-13.0456
 11
-54.558
 21
-13.0469
  0
LINE
  8
0
 10
-54.558
 20
-13.0469
 11
-45.9831
 21
-15.7086
  0
LINE
  8
0
 10
-45.9831
 20
-15.7086
 11
-41.4812
 21
-17.0093
  0
LINE
  8
0
 10
-41.4812
 20
-17.0093
 11
-41.4794
 21
-17.0098
  0
LINE
  8
0
 10
-41.4794
 20
-17.0098
 11
-41.4748
 21
-17.011
  0
LINE
  8
0
 10
-41.4748
 20
-17.011
 11
-33.526
 21
-19.1534
  0
LINE
  8
0
 10
-33.526
 20
-19.1534
 11
-30.1716
 21
-20.0003
  0
LINE
  8
0
 10
-30.1716
 20
-20.0003
 11
-18.7099
 21
-22.6457
  0
LINE
  8
0
 10
-18.7099
 20
-22.6457
 11
-18.7053
 21
-22.6467
  0
LINE
  8
0
 10
-18.7053
 20
-22.6467
 11
-14.1356
 21
-23.5963
  0
LINE
  8
0
 10
-14.1356
 20
-23.5963
 11
-14.1338
 21
-23.5966
  0
LINE
  8
0
 10
-14.1338
 20
-23.5966
 11
-12.0183
 21
-24.0161
  0
LINE
  8
0
 10
-12.0183
 20
-24.0161
 11
-12.0137
 21
-24.0169
  0
LINE
  8
0
 10
-12.0137
 20
-24.0169
 11
-2.4884
 21
-25.7473
  0
LINE
  8
0
 10
-2.4884
 20
-25.7473
 11
9.02246
 21
-27.4868
  0
LINE
  8
0
 10
9.02246
 20
-27.4868
 11
9.02707
 21
-27.4875
  0
LINE
  8
0
 10
9.02707
 20
-27.4875
 11
13.6463
 21
-28.0207
  0
LINE
  8
0
 10
13.6463
 20
-28.0207
 11
13.6481
 21
-28.0209
  0
LINE
  8
0
 10
13.6481
 20
-28.0209
 11
18.1522
 21
-28.3148
  0
LINE
  8
0
 10
18.1522
 20
-28.3148
 11
18.154
 21
-28.3149
  0
LINE
  8
0
 10
18.154
 20
-28.3149
 11
18.1557
 21
-28.3149
  0
LINE
  8
0
 10
18.1557
 20
-28.3149
 11
21.4444
 21
-28.35
  0
LINE
  8
0
 10
21.4444
 20
-28.35
 11
22.5372
 21
-28.3234
  0
LINE
  8
0
 10
22.5372
 20
-28.3234
 11
26.8054
 21
-28.0138
  0
LINE
  8
0
 10
26.8054
 20
-28.0138
 11
26.8071
 21
-28.0136
  0
LINE
  8
0
 10
26.8071
 20
-28.0136
 11
26.8084
 21
-28.0134
  0
LINE
  8
0
 10
26.8084
 20
-28.0134
 11
28.7671
 21
-27.7496
  0
LINE
  8
0
 10
28.7671
 20
-27.7496
 11
30.0631
 21
-27.5279
  0
LINE
  8
0
 10
30.0631
 20
-27.5279
 11
34.2925
 21
-26.5273
  0
LINE
  8
0
 10
34.2925
 20
-26.5273
 11
34.2942
 21
-26.5269
  0
LINE
  8
0
 10
34.2942
 20
-26.5269
 11
34.2958
 21
-26.5264
  0
LINE
  8
0
 10
34.2958
 20
-26.5264
 11
36.5228
 21
-25.8309
  0
LINE
  8
0
 10
36.5228
 20
-25.8309
 11
38.4674
 21
-25.1287
  0
LINE
  8
0
 10
38.4674
 20
-25.1287
 11
42.5531
 21
-23.3565
  0
LINE
  8
0
 10
42.5531
 20
-23.3565
 11
42.5547
 21
-23.3558
  0
LINE
  8
0
 10
42.5547
 20
-23.3558
 11
43.6935
 21
-22.7862
  0
LINE
  8
0
 10
43.6935
 20
-22.7862
 11
43.6947
 21
-22.7855
  0
LINE
  8
0
 10
43.6947
 20
-22.7855
 11
45.6625
 21
-21.7175
  0
LINE
  8
0
 10
45.6625
 20
-21.7175
 11
49.0075
 21
-19.6306
  0
LINE
  8
0
 10
49.0075
 20
-19.6306
 11
49.0088
 21
-19.6298
  0
LINE
  8
0
 10
49.0088
 20
-19.6298
 11
50.1835
 21
-18.8041
  0
LINE
  8
0
 10
50.1835
 20
-18.8041
 11
50.1848
 21
-18.8032
  0
LINE
  8
0
 10
50.1848
 20
-18.8032
 11
52.0985
 21
-17.3352
  0
LINE
  8
0
 10
52.0985
 20
-17.3352
 11
54.9131
 21
-14.8313
  0
LINE
  8
0
 10
54.9131
 20
-14.8313
 11
54.9142
 21
-14.8303
  0
LINE
  8
0
 10
54.9142
 20
-14.8303
 11
55.2802
 21
-14.4668
  0
LINE
  8
0
 10
55.2802
 20
-14.4668
 11
55.2807
 21
-14.4663
  0
LINE
  8
0
 10
55.2807
 20
-14.4663
 11
56.1944
 21
-13.5115
  0
LINE
  8
0
 10
56.1944
 20
-13.5115
 11
58.2151
 21
-11.0897
  0
LINE
  8
0
 10
58.2151
 20
-11.0897
 11
58.2159
 21
-11.0887
  0
LINE
  8
0
 10
58.2159
 20
-11.0887
 11
58.2165
 21
-11.0877
  0
LINE
  8
0
 10
58.2165
 20
-11.0877
 11
59.1845
 21
-9.71118
  0
LINE
  8
0
 10
59.1845
 20
-9.71118
 11
59.9211
 21
-8.51806
  0
LINE
  8
0
 10
59.9211
 20
-8.51806
 11
60.1338
 21
-8.14202
  0
LINE
  8
0
 10
60.1338
 20
-8.14202
 11
60.1339
 21
-8.14187
  0
LINE
  8
0
 10
60.1339
 20
-8.14187
 11
61.2388
 21
-5.82701
  0
LINE
  8
0
 10
61.2388
 20
-5.82701
 11
61.2393
 21
-5.8261
  0
LINE
  8
0
 10
61.2393
 20
-5.8261
 11
61.3819
 21
-5.45986
  0
LINE
  8
0
 10
61.3819
 20
-5.45986
 11
61.3822
 21
-5.45891
  0
LINE
  8
0
 10
61.3822
 20
-5.45891
 11
62.0147
 21
-3.41748
  0
LINE
  8
0
 10
62.0147
 20
-3.41748
 11
62.1866
 21
-2.61716
  0
LINE
  8
0
 10
62.1866
 20
-2.61716
 11
62.1866
 21
-2.61685
  0
LINE
  8
0
 10
62.1866
 20
-2.61685
 11
62.1867
 21
-2.61593
  0
LINE
  8
0
 10
62.1867
 20
-2.61593
 11
62.3794
 21
-1.24322
  0
LINE
  8
0
 10
62.3794
 20
-1.24322
 11
62.4361
 21
-0.260418
  0
LINE
  8
0
 10
62.4361
 20
-0.260418
 11
62.2968
 21
2.05525
  0
LINE
  8
0
 10
62.2968
 20
2.05525
 11
62.2967
 21
2.05615
  0
LINE
  8
0
 10
62.2967
 20
2.05615
 11
62.2555
 21
2.32899
  0
LINE
  8
0
 10
62.2555
 20
2.32899
 11
62.2554
 21
2.32909
  0
LINE
  8
0
 10
62.2554
 20
2.32909
 11
62.13
 21
3.01075
  0
LINE
  8
0
 10
62.13
 20
3.01075
 11
62.1298
 21
3.01171
  0
LINE
  8
0
 10
62.1298
 20
3.01171
 11
61.6527
 21
4.79536
  0
LINE
  8
0
 10
61.6527
 20
4.79536
 11
60.6694
 21
7.21156
  0
LINE
  8
0
 10
60.6694
 20
7.21156
 11
60.6691
 21
7.21252
  0
LINE
  8
0
 10
60.6691
 20
7.21252
 11
60.6597
 21
7.232
  0
LINE
  8
0
 10
60.6597
 20
7.232
 11
60.3758
 21
7.79279
  0
LINE
  8
0
 10
60.3758
 20
7.79279
 11
60.3757
 21
7.79302
  0
LINE
  8
0
 10
60.3757
 20
7.79302
 11
58.7174
 21
10.4939
  0
LINE
  8
0
 10
58.7174
 20
10.4939
 11
58.7168
 21
10.495
  0
LINE
  8
0
 10
58.7168
 20
10.495
 11
57.8665
 21
11.6389
  0
LINE
  8
0
 10
57.8665
 20
11.6389
 11
57.8657
 21
11.64
  0
LINE
  8
0
 10
57.8657
 20
11.64
 11
56.6355
 21
13.1143
  0
LINE
  8
0
 10
56.6355
 20
13.1143
 11
55.1178
 21
14.7177
  0
LINE
  8
0
 10
55.1178
 20
14.7177
 11
55.1172
 21
14.7184
  0
LINE
  8
0
 10
55.1172
 20
14.7184
 11
55.116
 21
14.7195
  0
LINE
  8
0
 10
55.116
 20
14.7195
 11
53.1706
 21
16.5211
  0
LINE
  8
0
 10
53.1706
 20
16.5211
 11
52.0649
 21
17.4458
  0
LINE
  8
0
 10
52.0649
 20
17.4458
 11
48.6492
 21
19.9509
  0
LINE
  8
0
 10
48.6492
 20
19.9509
 11
48.6478
 21
19.9519
  0
LINE
  8
0
 10
48.6478
 20
19.9519
 11
48.6463
 21
19.9528
  0
LINE
  8
0
 10
48.6463
 20
19.9528
 11
46.7656
 21
21.1459
  0
LINE
  8
0
 10
46.7656
 20
21.1459
 11
44.9068
 21
22.2156
  0
LINE
  8
0
 10
44.9068
 20
22.2156
 11
43.2505
 21
23.0854
  0
LINE
  8
0
 10
43.2505
 20
23.0854
 11
43.2498
 21
23.0858
  0
LINE
  8
0
 10
43.2498
 20
23.0858
 11
39.4683
 21
24.8034
  0
LINE
  8
0
 10
39.4683
 20
24.8034
 11
39.4668
 21
24.8041
  0
LINE
  8
0
 10
39.4668
 20
24.8041
 11
39.3628
 21
24.8463
  0
LINE
  8
0
 10
39.3628
 20
24.8463
 11
35.4121
 21
26.2615
  0
LINE
  8
0
 10
35.4121
 20
26.2615
 11
35.4106
 21
26.262
  0
LINE
  8
0
 10
35.4106
 20
26.262
 11
32.0305
 21
27.1836
  0
LINE
  8
0
 10
32.0305
 20
27.1836
 11
32.0289
 21
27.184
  0
LINE
  8
0
 10
32.0289
 20
27.184
 11
31.3954
 21
27.3268
  0
LINE
  8
0
 10
31.3954
 20
27.3268
 11
28.6443
 21
27.8359
  0
LINE
  8
0
 10
28.6443
 20
27.8359
 11
28.6432
 21
27.8361
  0
LINE
  8
0
 10
28.6432
 20
27.8361
 11
24.9764
 21
28.2534
  0
LINE
  8
0
 10
24.9764
 20
28.2534
 11
24.9747
 21
28.2536
  0
LINE
  8
0
 10
24.9747
 20
28.2536
 11
24.3712
 21
28.2964
  0
LINE
  8
0
 10
24.3712
 20
28.2964
 11
19.3353
 21
28.4034
  0
LINE
  8
0
 10
19.3353
 20
28.4034
 11
19.3333
 21
28.4034
  0
LINE
  8
0
 10
19.3333
 20
28.4034
 11
17.6226
 21
28.348
  0
LINE
  8
0
 10
17.6226
 20
28.348
 11
17.6204
 21
28.3478
  0
LINE
  8
0
 10
17.6204
 20
28.3478
 11
13.8759
 21
28.0876
  0
LINE
  8
0
 10
13.8759
 20
28.0876
 11
8.95486
 21
27.5124
  0
LINE
  8
0
 10
8.95486
 20
27.5124
 11
8.95289
 21
27.5121
  0
LINE
  8
0
 10
8.95289
 20
27.5121
 11
-2.55324
 21
25.7415
  0
LINE
  8
0
 10
-2.55324
 20
25.7415
 11
-2.55784
 21
25.7408
  0
LINE
  8
0
 10
-2.55784
 20
25.7408
 11
-14.082
 21
23.5823
  0
LINE
  8
0
 10
-14.082
 20
23.5823
 11
-14.0866
 21
23.5814
  0
LINE
  8
0
 10
-14.0866
 20
23.5814
 11
-14.1974
 21
23.5588
  0
LINE
  8
0
 10
-14.1974
 20
23.5588
 11
-18.7644
 21
22.597
  0
LINE
  8
0
 10
-18.7644
 20
22.597
 11
-18.7663
 21
22.5966
  0
LINE
  8
0
 10
-18.7663
 20
22.5966
 11
-30.2208
 21
19.9202
  0
LINE
  8
0
 10
-30.2208
 20
19.9202
 11
-30.2254
 21
19.9191
  0
LINE
  8
0
 10
-30.2254
 20
19.9191
 11
-34.4475
 21
18.8356
  0
LINE
  8
0
 10
-34.4475
 20
18.8356
 11
-34.452
 21
18.8344
  0
LINE
  8
0
 10
-34.452
 20
18.8344
 11
-41.5251
 21
16.8982
  0
LINE
  8
0
 10
-41.5251
 20
16.8982
 11
-46.0235
 21
15.5854
  0
LINE
  8
0
 10
-46.0235
 20
15.5854
 11
-46.0253
 21
15.5848
  0
LINE
  8
0
 10
-46.0253
 20
15.5848
 11
-46.0294
 21
15.5835
  0
LINE
  8
0
 10
-46.0294
 20
15.5835
 11
-53.6553
 21
13.2062
  0
LINE
  8
0
 10
-53.6553
 20
13.2062
 11
-56.3386
 21
12.3223
  0
LINE
  8
0
 10
-56.3386
 20
12.3223
 11
-66.3896
 21
8.77559
  0
LINE
  8
0
 10
-66.3896
 20
8.77559
 11
-66.3936
 21
8.77417
  0
LINE
  8
0
 10
-66.3936
 20
8.77417
 11
-66.3962
 21
8.7732
  0
LINE
  8
0
 10
-66.3962
 20
8.7732
 11
-71.1493
 21
6.95671
  0
LINE
  8
0
 10
-71.1493
 20
6.95671
 11
-72.6605
 21
6.35911
  0
LINE
  8
0
 10
-72.6605
 20
6.35911
 11
-81.9421
 21
2.45685
  0
LINE
  8
0
 10
-81.9421
 20
2.45685
 11
-81.9458
 21
2.45529
  0
LINE
  8
0
 10
-81.9458
 20
2.45529
 11
-81.9492
 21
2.45384
  0
LINE
  8
0
 10
-81.9492
 20
2.45384
 11
-81.9531
 21
2.45209
  0
LINE
  8
0
 10
-81.9531
 20
2.45209
 11
-87.5598
 21
-0.117814
  0
ENDSEC
  0
SECTION
  2
OBJECTS
  0
DICTIONARY
  0
ENDSEC
  0
EOF
