  0
SECTION
  2
BLOCKS
  0
ENDSEC
  0
SECTION
  2
ENTITIES
  0
LINE
  8
0
 10
22.5372
 20
-28.3234
 11
26.8071
 21
-28.0136
  0
LINE
  8
0
 10
26.8071
 20
-28.0136
 11
28.7671
 21
-27.7495
  0
LINE
  8
0
 10
28.7671
 20
-27.7495
 11
30.0631
 21
-27.5279
  0
LINE
  8
0
 10
30.0631
 20
-27.5279
 11
34.2941
 21
-26.5269
  0
LINE
  8
0
 10
34.2941
 20
-26.5269
 11
34.2958
 21
-26.5264
  0
LINE
  8
0
 10
34.2958
 20
-26.5264
 11
36.5228
 21
-25.8309
  0
LINE
  8
0
 10
36.5228
 20
-25.8309
 11
38.4674
 21
-25.1287
  0
LINE
  8
0
 10
38.4674
 20
-25.1287
 11
42.5547
 21
-23.3557
  0
LINE
  8
0
 10
42.5547
 20
-23.3557
 11
43.6935
 21
-22.7862
  0
LINE
  8
0
 10
43.6935
 20
-22.7862
 11
45.6625
 21
-21.7175
  0
LINE
  8
0
 10
45.6625
 20
-21.7175
 11
49.0088
 21
-19.6298
  0
LINE
  8
0
 10
49.0088
 20
-19.6298
 11
50.1835
 21
-18.8041
  0
LINE
  8
0
 10
50.1835
 20
-18.8041
 11
52.0985
 21
-17.3352
  0
LINE
  8
0
 10
52.0985
 20
-17.3352
 11
54.9142
 21
-14.8303
  0
LINE
  8
0
 10
54.9142
 20
-14.8303
 11
55.2807
 21
-14.4663
  0
LINE
  8
0
 10
55.2807
 20
-14.4663
 11
56.1944
 21
-13.5115
  0
LINE
  8
0
 10
56.1944
 20
-13.5115
 11
58.2159
 21
-11.0887
  0
LINE
  8
0
 10
58.2159
 20
-11.0887
 11
58.2165
 21
-11.0877
  0
LINE
  8
0
 10
58.2165
 20
-11.0877
 11
59.1844
 21
-9.71117
  0
LINE
  8
0
 10
59.1844
 20
-9.71117
 11
59.9211
 21
-8.51805
  0
LINE
  8
0
 10
59.9211
 20
-8.51805
 11
60.1339
 21
-8.14186
  0
LINE
  8
0
 10
60.1339
 20
-8.14186
 11
61.2392
 21
-5.8261
  0
LINE
  8
0
 10
61.2392
 20
-5.8261
 11
61.3819
 21
-5.45985
  0
LINE
  8
0
 10
61.3819
 20
-5.45985
 11
62.0147
 21
-3.41748
  0
LINE
  8
0
 10
62.0147
 20
-3.41748
 11
62.1866
 21
-2.61684
  0
LINE
  8
0
 10
62.1866
 20
-2.61684
 11
62.3793
 21
-1.24321
  0
LINE
  8
0
 10
62.3793
 20
-1.24321
 11
62.4361
 21
-0.260406
  0
LINE
  8
0
 10
62.4361
 20
-0.260406
 11
62.2967
 21
2.05614
  0
LINE
  8
0
 10
62.2967
 20
2.05614
 11
62.2554
 21
2.32909
  0
LINE
  8
0
 10
62.2554
 20
2.32909
 11
62.13
 21
3.01074
  0
LINE
  8
0
 10
62.13
 20
3.01074
 11
61.6527
 21
4.79535
  0
LINE
  8
0
 10
61.6527
 20
4.79535
 11
60.6691
 21
7.21251
  0
LINE
  8
0
 10
60.6691
 20
7.21251
 11
60.6597
 21
7.23199
  0
LINE
  8
0
 10
60.6597
 20
7.23199
 11
60.3757
 21
7.79301
  0
LINE
  8
0
 10
60.3757
 20
7.79301
 11
58.7168
 21
10.495
  0
LINE
  8
0
 10
58.7168
 20
10.495
 11
57.8665
 21
11.6389
  0
LINE
  8
0
 10
57.8665
 20
11.6389
 11
57.8657
 21
11.64
  0
LINE
  8
0
 10
57.8657
 20
11.64
 11
56.6355
 21
13.1143
  0
LINE
  8
0
 10
56.6355
 20
13.1143
 11
55.1172
 21
14.7184
  0
LINE
  8
0
 10
55.1172
 20
14.7184
 11
55.116
 21
14.7195
  0
LINE
  8
0
 10
55.116
 20
14.7195
 11
53.1705
 21
16.5211
  0
LINE
  8
0
 10
53.1705
 20
16.5211
 11
52.0649
 21
17.4458
  0
LINE
  8
0
 10
52.0649
 20
17.4458
 11
48.6478
 21
19.9519
  0
LINE
  8
0
 10
48.6478
 20
19.9519
 11
48.6463
 21
19.9528
  0
LINE
  8
0
 10
48.6463
 20
19.9528
 11
46.7656
 21
21.1459
  0
LINE
  8
0
 10
46.7656
 20
21.1459
 11
44.9068
 21
22.2155
  0
LINE
  8
0
 10
44.9068
 20
22.2155
 11
43.2498
 21
23.0858
  0
LINE
  8
0
 10
43.2498
 20
23.0858
 11
39.4668
 21
24.8041
  0
LINE
  8
0
 10
39.4668
 20
24.8041
 11
39.3628
 21
24.8462
  0
LINE
  8
0
 10
39.3628
 20
24.8462
 11
35.4106
 21
26.262
  0
LINE
  8
0
 10
35.4106
 20
26.262
 11
32.0289
 21
27.184
  0
LINE
  8
0
 10
32.0289
 20
27.184
 11
31.3954
 21
27.3268
  0
LINE
  8
0
 10
31.3954
 20
27.3268
 11
28.6432
 21
27.8361
  0
LINE
  8
0
 10
28.6432
 20
27.8361
 11
24.9747
 21
28.2536
  0
LINE
  8
0
 10
24.9747
 20
28.2536
 11
24.3712
 21
28.2964
  0
LINE
  8
0
 10
24.3712
 20
28.2964
 11
19.3333
 21
28.4034
  0
LINE
  8
0
 10
19.3333
 20
28.4034
 11
17.6226
 21
28.348
  0
LINE
  8
0
 10
17.6226
 20
28.348
 11
13.8759
 21
28.0876
  0
LINE
  8
0
 10
13.8759
 20
28.0876
 11
8.95288
 21
27.5121
  0
LINE
  8
0
 10
8.95288
 20
27.5121
 11
-2.55783
 21
25.7408
  0
LINE
  8
0
 10
-2.55783
 20
25.7408
 11
-14.0866
 21
23.5814
  0
LINE
  8
0
 10
-14.0866
 20
23.5814
 11
-14.1974
 21
23.5588
  0
LINE
  8
0
 10
-14.1974
 20
23.5588
 11
-18.7663
 21
22.5966
  0
LINE
  8
0
 10
-18.7663
 20
22.5966
 11
-30.2254
 21
19.9191
  0
LINE
  8
0
 10
-30.2254
 20
19.9191
 11
-34.4475
 21
18.8356
  0
LINE
  8
0
 10
-34.4475
 20
18.8356
 11
-34.452
 21
18.8344
  0
LINE
  8
0
 10
-34.452
 20
18.8344
 11
-41.5251
 21
16.8982
  0
LINE
  8
0
 10
-41.5251
 20
16.8982
 11
-46.0253
 21
15.5848
  0
LINE
  8
0
 10
-46.0253
 20
15.5848
 11
-46.0294
 21
15.5835
  0
LINE
  8
0
 10
-46.0294
 20
15.5835
 11
-53.6553
 21
13.2062
  0
LINE
  8
0
 10
-53.6553
 20
13.2062
 11
-56.3386
 21
12.3223
  0
LINE
  8
0
 10
-56.3386
 20
12.3223
 11
-66.3936
 21
8.77415
  0
LINE
  8
0
 10
-66.3936
 20
8.77415
 11
-71.1493
 21
6.95671
  0
LINE
  8
0
 10
-71.1493
 20
6.95671
 11
-72.6605
 21
6.3591
  0
LINE
  8
0
 10
-72.6605
 20
6.3591
 11
-81.9458
 21
2.45529
  0
LINE
  8
0
 10
-81.9458
 20
2.45529
 11
-81.9531
 21
2.45209
  0
LINE
  8
0
 10
-81.9531
 20
2.45209
 11
-87.5598
 21
-0.117813
  0
LINE
  8
0
 10
-87.5598
 20
-0.117813
 11
-81.9462
 21
-2.67273
  0
LINE
  8
0
 10
-81.9462
 20
-2.67273
 11
-81.9423
 21
-2.67445
  0
LINE
  8
0
 10
-81.9423
 20
-2.67445
 11
-81.9409
 21
-2.67503
  0
LINE
  8
0
 10
-81.9409
 20
-2.67503
 11
-81.9389
 21
-2.6759
  0
LINE
  8
0
 10
-81.9389
 20
-2.6759
 11
-72.6431
 21
-6.55466
  0
LINE
  8
0
 10
-72.6431
 20
-6.55466
 11
-72.0562
 21
-6.78618
  0
LINE
  8
0
 10
-72.0562
 20
-6.78618
 11
-66.3697
 21
-8.9528
  0
LINE
  8
0
 10
-66.3697
 20
-8.9528
 11
-56.3051
 21
-12.4738
  0
LINE
  8
0
 10
-56.3051
 20
-12.4738
 11
-54.5621
 21
-13.0456
  0
LINE
  8
0
 10
-54.5621
 20
-13.0456
 11
-45.983
 21
-15.7086
  0
LINE
  8
0
 10
-45.983
 20
-15.7086
 11
-41.4794
 21
-17.0098
  0
LINE
  8
0
 10
-41.4794
 20
-17.0098
 11
-41.4748
 21
-17.011
  0
LINE
  8
0
 10
-41.4748
 20
-17.011
 11
-33.526
 21
-19.1534
  0
LINE
  8
0
 10
-33.526
 20
-19.1534
 11
-30.1716
 21
-20.0003
  0
LINE
  8
0
 10
-30.1716
 20
-20.0003
 11
-18.7053
 21
-22.6467
  0
LINE
  8
0
 10
-18.7053
 20
-22.6467
 11
-14.1338
 21
-23.5966
  0
LINE
  8
0
 10
-14.1338
 20
-23.5966
 11
-12.0183
 21
-24.0161
  0
LINE
  8
0
 10
-12.0183
 20
-24.0161
 11
-2.48839
 21
-25.7473
  0
LINE
  8
0
 10
-2.48839
 20
-25.7473
 11
9.02707
 21
-27.4875
  0
LINE
  8
0
 10
9.02707
 20
-27.4875
 11
13.6481
 21
-28.0209
  0
LINE
  8
0
 10
13.6481
 20
-28.0209
 11
18.154
 21
-28.3149
  0
LINE
  8
0
 10
18.154
 20
-28.3149
 11
21.4444
 21
-28.35
  0
LINE
  8
0
 10
21.4444
 20
-28.35
 11
22.5372
 21
-28.3234
  0
ENDSEC
  0
SECTION
  2
OBJECTS
  0
DICTIONARY
  0
ENDSEC
  0
EOF
