  0
SECTION
  2
BLOCKS
  0
ENDSEC
  0
SECTION
  2
ENTITIES
  0
LINE
  8
0
 10
-87.1483
 20
-0.11726
 11
-85.034
 21
-0.977962
  0
LINE
  8
0
 10
-85.034
 20
-0.977962
 11
-81.831
 21
-2.4307
  0
LINE
  8
0
 10
-81.831
 20
-2.4307
 11
-78.7361
 21
-3.72207
  0
LINE
  8
0
 10
-78.7361
 20
-3.72207
 11
-72.5445
 21
-6.30554
  0
LINE
  8
0
 10
-72.5445
 20
-6.30554
 11
-72.349
 21
-6.38265
  0
LINE
  8
0
 10
-72.349
 20
-6.38265
 11
-68.1701
 21
-7.98018
  0
LINE
  8
0
 10
-68.1701
 20
-7.98018
 11
-66.2769
 21
-8.70149
  0
LINE
  8
0
 10
-66.2769
 20
-8.70149
 11
-62.9261
 21
-9.87376
  0
LINE
  8
0
 10
-62.9261
 20
-9.87376
 11
-56.2209
 21
-12.2194
  0
LINE
  8
0
 10
-56.2209
 20
-12.2194
 11
-55.6403
 21
-12.4099
  0
LINE
  8
0
 10
-55.6403
 20
-12.4099
 11
-48.763
 21
-14.5652
  0
LINE
  8
0
 10
-48.763
 20
-14.5652
 11
-45.9069
 21
-15.4517
  0
LINE
  8
0
 10
-45.9069
 20
-15.4517
 11
-44.4075
 21
-15.8849
  0
LINE
  8
0
 10
-44.4075
 20
-15.8849
 11
-41.4066
 21
-16.752
  0
LINE
  8
0
 10
-41.4066
 20
-16.752
 11
-33.8719
 21
-18.7445
  0
LINE
  8
0
 10
-33.8719
 20
-18.7445
 11
-31.2244
 21
-19.458
  0
LINE
  8
0
 10
-31.2244
 20
-19.458
 11
-30.1072
 21
-19.7401
  0
LINE
  8
0
 10
-30.1072
 20
-19.7401
 11
-26.2897
 21
-20.6212
  0
LINE
  8
0
 10
-26.2897
 20
-20.6212
 11
-18.6491
 21
-22.3847
  0
LINE
  8
0
 10
-18.6491
 20
-22.3847
 11
-17.1271
 21
-22.701
  0
LINE
  8
0
 10
-17.1271
 20
-22.701
 11
-14.0809
 21
-23.334
  0
LINE
  8
0
 10
-14.0809
 20
-23.334
 11
-13.3763
 21
-23.4737
  0
LINE
  8
0
 10
-13.3763
 20
-23.4737
 11
-5.61656
 21
-24.9067
  0
LINE
  8
0
 10
-5.61656
 20
-24.9067
 11
-2.44402
 21
-25.4831
  0
LINE
  8
0
 10
-2.44402
 20
-25.4831
 11
1.38986
 21
-26.0624
  0
LINE
  8
0
 10
1.38986
 20
-26.0624
 11
9.06264
 21
-27.2219
  0
LINE
  8
0
 10
9.06264
 20
-27.2219
 11
10.6011
 21
-27.3995
  0
LINE
  8
0
 10
10.6011
 20
-27.3995
 11
13.6729
 21
-27.7541
  0
LINE
  8
0
 10
13.6729
 20
-27.7541
 11
15.1731
 21
-27.852
  0
LINE
  8
0
 10
15.1731
 20
-27.852
 11
18.1635
 21
-28.0472
  0
LINE
  8
0
 10
18.1635
 20
-28.0472
 11
21.069
 21
-28.0528
  0
LINE
  8
0
 10
21.069
 20
-28.0528
 11
22.1643
 21
-28.0645
  0
LINE
  8
0
 10
22.1643
 20
-28.0645
 11
22.5283
 21
-28.0556
  0
LINE
  8
0
 10
22.5283
 20
-28.0556
 11
23.9499
 21
-27.9525
  0
LINE
  8
0
 10
23.9499
 20
-27.9525
 11
26.7767
 21
-27.7474
  0
LINE
  8
0
 10
26.7767
 20
-27.7474
 11
28.93
 21
-27.4262
  0
LINE
  8
0
 10
28.93
 20
-27.4262
 11
29.5824
 21
-27.3384
  0
LINE
  8
0
 10
29.5824
 20
-27.3384
 11
30.014
 21
-27.2645
  0
LINE
  8
0
 10
30.014
 20
-27.2645
 11
31.4227
 21
-26.9313
  0
LINE
  8
0
 10
31.4227
 20
-26.9313
 11
34.2204
 21
-26.2693
  0
LINE
  8
0
 10
34.2204
 20
-26.2693
 11
36.9819
 21
-25.3441
  0
LINE
  8
0
 10
36.9819
 20
-25.3441
 11
37.7237
 21
-25.1125
  0
LINE
  8
0
 10
37.7237
 20
-25.1125
 11
38.3714
 21
-24.8786
  0
LINE
  8
0
 10
38.3714
 20
-24.8786
 11
39.7322
 21
-24.2883
  0
LINE
  8
0
 10
39.7322
 20
-24.2883
 11
42.4377
 21
-23.1146
  0
LINE
  8
0
 10
42.4377
 20
-23.1146
 11
42.817
 21
-22.9249
  0
LINE
  8
0
 10
42.817
 20
-22.9249
 11
44.8743
 21
-21.8405
  0
LINE
  8
0
 10
44.8743
 20
-21.8405
 11
45.5297
 21
-21.4848
  0
LINE
  8
0
 10
45.5297
 20
-21.4848
 11
46.6438
 21
-20.7897
  0
LINE
  8
0
 10
46.6438
 20
-20.7897
 11
48.8581
 21
-19.4082
  0
LINE
  8
0
 10
48.8581
 20
-19.4082
 11
49.2493
 21
-19.1332
  0
LINE
  8
0
 10
49.2493
 20
-19.1332
 11
51.2923
 21
-17.616
  0
LINE
  8
0
 10
51.2923
 20
-17.616
 11
51.9297
 21
-17.127
  0
LINE
  8
0
 10
51.9297
 20
-17.127
 11
52.8671
 21
-16.2931
  0
LINE
  8
0
 10
52.8671
 20
-16.2931
 11
54.7267
 21
-14.6389
  0
LINE
  8
0
 10
54.7267
 20
-14.6389
 11
54.8486
 21
-14.5178
  0
LINE
  8
0
 10
54.8486
 20
-14.5178
 11
55.6929
 21
-13.648
  0
LINE
  8
0
 10
55.6929
 20
-13.648
 11
55.9972
 21
-13.33
  0
LINE
  8
0
 10
55.9972
 20
-13.33
 11
56.6703
 21
-12.5233
  0
LINE
  8
0
 10
56.6703
 20
-12.5233
 11
58.0015
 21
-10.928
  0
LINE
  8
0
 10
58.0015
 20
-10.928
 11
59.1214
 21
-9.23983
  0
LINE
  8
0
 10
59.1214
 20
-9.23983
 11
59.4438
 21
-8.78136
  0
LINE
  8
0
 10
59.4438
 20
-8.78136
 11
59.6891
 21
-8.38397
  0
LINE
  8
0
 10
59.6891
 20
-8.38397
 11
59.76
 21
-8.25873
  0
LINE
  8
0
 10
59.76
 20
-8.25873
 11
59.8994
 21
-8.01219
  0
LINE
  8
0
 10
59.8994
 20
-8.01219
 11
60.2674
 21
-7.24119
  0
LINE
  8
0
 10
60.2674
 20
-7.24119
 11
60.9906
 21
-5.72631
  0
LINE
  8
0
 10
60.9906
 20
-5.72631
 11
61.0381
 21
-5.60432
  0
LINE
  8
0
 10
61.0381
 20
-5.60432
 11
61.5436
 21
-4.03449
  0
LINE
  8
0
 10
61.5436
 20
-4.03449
 11
61.7543
 21
-3.35456
  0
LINE
  8
0
 10
61.7543
 20
-3.35456
 11
61.8115
 21
-3.088
  0
LINE
  8
0
 10
61.8115
 20
-3.088
 11
61.9233
 21
-2.56741
  0
LINE
  8
0
 10
61.9233
 20
-2.56741
 11
62.0852
 21
-1.03886
  0
LINE
  8
0
 10
62.0852
 20
-1.03886
 11
62.1494
 21
-0.581653
  0
LINE
  8
0
 10
62.1494
 20
-0.581653
 11
62.1683
 21
-0.254315
  0
LINE
  8
0
 10
62.1683
 20
-0.254315
 11
62.1219
 21
0.516955
  0
LINE
  8
0
 10
62.1219
 20
0.516955
 11
62.0315
 21
2.01852
  0
LINE
  8
0
 10
62.0315
 20
2.01852
 11
62.0177
 21
2.10939
  0
LINE
  8
0
 10
62.0177
 20
2.10939
 11
61.9909
 21
2.2866
  0
LINE
  8
0
 10
61.9909
 20
2.2866
 11
61.9491
 21
2.51364
  0
LINE
  8
0
 10
61.9491
 20
2.51364
 11
61.5569
 21
4.11794
  0
LINE
  8
0
 10
61.5569
 20
4.11794
 11
61.398
 21
4.71201
  0
LINE
  8
0
 10
61.398
 20
4.71201
 11
61.0705
 21
5.51677
  0
LINE
  8
0
 10
61.0705
 20
5.51677
 11
60.4219
 21
7.10805
  0
LINE
  8
0
 10
60.4219
 20
7.10805
 11
60.4188
 21
7.11454
  0
LINE
  8
0
 10
60.4188
 20
7.11454
 11
60.3242
 21
7.30132
  0
LINE
  8
0
 10
60.3242
 20
7.30132
 11
60.1384
 21
7.66856
  0
LINE
  8
0
 10
60.1384
 20
7.66856
 11
59.5861
 21
8.56815
  0
LINE
  8
0
 10
59.5861
 20
8.56815
 11
58.4977
 21
10.3407
  0
LINE
  8
0
 10
58.4977
 20
10.3407
 11
58.2145
 21
10.7217
  0
LINE
  8
0
 10
58.2145
 20
10.7217
 11
56.8447
 21
12.4454
  0
LINE
  8
0
 10
56.8447
 20
12.4454
 11
56.4349
 21
12.9365
  0
LINE
  8
0
 10
56.4349
 20
12.9365
 11
55.9295
 21
13.4705
  0
LINE
  8
0
 10
55.9295
 20
13.4705
 11
54.9284
 21
14.5282
  0
LINE
  8
0
 10
54.9284
 20
14.5282
 11
52.9126
 21
16.3293
  0
LINE
  8
0
 10
52.9126
 20
16.3293
 11
52.2647
 21
16.9293
  0
LINE
  8
0
 10
52.2647
 20
16.9293
 11
51.8964
 21
17.2373
  0
LINE
  8
0
 10
51.8964
 20
17.2373
 11
50.7588
 21
18.0717
  0
LINE
  8
0
 10
50.7588
 20
18.0717
 11
48.4993
 21
19.7289
  0
LINE
  8
0
 10
48.4993
 20
19.7289
 11
46.0235
 21
21.227
  0
LINE
  8
0
 10
46.0235
 20
21.227
 11
45.397
 21
21.6244
  0
LINE
  8
0
 10
45.397
 20
21.6244
 11
44.778
 21
21.9806
  0
LINE
  8
0
 10
44.778
 20
21.9806
 11
44.2263
 21
22.2703
  0
LINE
  8
0
 10
44.2263
 20
22.2703
 11
43.1295
 21
22.8464
  0
LINE
  8
0
 10
43.1295
 20
22.8464
 11
41.87
 21
23.4184
  0
LINE
  8
0
 10
41.87
 20
23.4184
 11
39.2969
 21
24.5839
  0
LINE
  8
0
 10
39.2969
 20
24.5839
 11
39.2623
 21
24.5979
  0
LINE
  8
0
 10
39.2623
 20
24.5979
 11
37.9465
 21
25.0693
  0
LINE
  8
0
 10
37.9465
 20
25.0693
 11
35.3308
 21
26.0062
  0
LINE
  8
0
 10
35.3308
 20
26.0062
 11
34.205
 21
26.3132
  0
LINE
  8
0
 10
34.205
 20
26.3132
 11
31.5493
 21
27.0175
  0
LINE
  8
0
 10
31.5493
 20
27.0175
 11
31.3383
 21
27.065
  0
LINE
  8
0
 10
31.3383
 20
27.065
 11
30.422
 21
27.2346
  0
LINE
  8
0
 10
30.422
 20
27.2346
 11
28.6026
 21
27.5712
  0
LINE
  8
0
 10
28.6026
 20
27.5712
 11
27.3814
 21
27.7102
  0
LINE
  8
0
 10
27.3814
 20
27.7102
 11
24.5547
 21
28.0148
  0
LINE
  8
0
 10
24.5547
 20
28.0148
 11
24.3537
 21
28.029
  0
LINE
  8
0
 10
24.3537
 20
28.029
 11
22.6764
 21
28.0647
  0
LINE
  8
0
 10
22.6764
 20
28.0647
 11
19.3386
 21
28.1356
  0
LINE
  8
0
 10
19.3386
 20
28.1356
 11
18.7688
 21
28.1171
  0
LINE
  8
0
 10
18.7688
 20
28.1171
 11
15.1478
 21
27.9075
  0
LINE
  8
0
 10
15.1478
 20
27.9075
 11
13.9006
 21
27.8208
  0
LINE
  8
0
 10
13.9006
 20
27.8208
 11
12.2616
 21
27.6292
  0
LINE
  8
0
 10
12.2616
 20
27.6292
 11
8.98918
 21
27.2467
  0
LINE
  8
0
 10
8.98918
 20
27.2467
 11
5.15688
 21
26.6569
  0
LINE
  8
0
 10
5.15688
 20
26.6569
 11
-2.51275
 21
25.4767
  0
LINE
  8
0
 10
-2.51275
 20
25.4767
 11
-6.35104
 21
24.7578
  0
LINE
  8
0
 10
-6.35104
 20
24.7578
 11
-14.1069
 21
23.3038
  0
LINE
  8
0
 10
-14.1069
 20
23.3038
 11
-14.1438
 21
23.2963
  0
LINE
  8
0
 10
-14.1438
 20
23.2963
 11
-15.665
 21
22.976
  0
LINE
  8
0
 10
-15.665
 20
22.976
 11
-18.7095
 21
22.3348
  0
LINE
  8
0
 10
-18.7095
 20
22.3348
 11
-22.5246
 21
21.4433
  0
LINE
  8
0
 10
-22.5246
 20
21.4433
 11
-30.1603
 21
19.6592
  0
LINE
  8
0
 10
-30.1603
 20
19.6592
 11
-31.5665
 21
19.2983
  0
LINE
  8
0
 10
-31.5665
 20
19.2983
 11
-39.0959
 21
17.2854
  0
LINE
  8
0
 10
-39.0959
 20
17.2854
 11
-41.4517
 21
16.6405
  0
LINE
  8
0
 10
-41.4517
 20
16.6405
 11
-42.9499
 21
16.2032
  0
LINE
  8
0
 10
-42.9499
 20
16.2032
 11
-45.9484
 21
15.3281
  0
LINE
  8
0
 10
-45.9484
 20
15.3281
 11
-52.82
 21
13.1544
  0
LINE
  8
0
 10
-52.82
 20
13.1544
 11
-55.36
 21
12.3626
  0
LINE
  8
0
 10
-55.36
 20
12.3626
 11
-56.2537
 21
12.0682
  0
LINE
  8
0
 10
-56.2537
 20
12.0682
 11
-59.6014
 21
10.8869
  0
LINE
  8
0
 10
-59.6014
 20
10.8869
 11
-66.3002
 21
8.52303
  0
LINE
  8
0
 10
-66.3002
 20
8.52303
 11
-70.4748
 21
6.91424
  0
LINE
  8
0
 10
-70.4748
 20
6.91424
 11
-72.0579
 21
6.30922
  0
LINE
  8
0
 10
-72.0579
 20
6.30922
 11
-72.5613
 21
6.11018
  0
LINE
  8
0
 10
-72.5613
 20
6.11018
 11
-75.6527
 21
4.81047
  0
LINE
  8
0
 10
-75.6527
 20
4.81047
 11
-81.8372
 21
2.21031
  0
LINE
  8
0
 10
-81.8372
 20
2.21031
 11
-86.8371
 21
0.0248098
  0
LINE
  8
0
 10
-86.8371
 20
0.0248098
 11
-87.1483
 21
-0.11726
  0
ENDSEC
  0
SECTION
  2
OBJECTS
  0
DICTIONARY
  0
ENDSEC
  0
EOF
