  0
SECTION
  2
BLOCKS
  0
ENDSEC
  0
SECTION
  2
ENTITIES
  0
LINE
  8
0
 10
-85.6589
 20
-0.115251
 11
-84.0073
 21
-0.854878
  0
LINE
  8
0
 10
-84.0073
 20
-0.854878
 11
-83.4713
 21
-1.06555
  0
LINE
  8
0
 10
-83.4713
 20
-1.06555
 11
-82.7605
 21
-1.31657
  0
LINE
  8
0
 10
-82.7605
 20
-1.31657
 11
-81.5754
 21
-1.84999
  0
LINE
  8
0
 10
-81.5754
 20
-1.84999
 11
-76.5254
 21
-3.95715
  0
LINE
  8
0
 10
-76.5254
 20
-3.95715
 11
-72.3111
 21
-5.71561
  0
LINE
  8
0
 10
-72.3111
 20
-5.71561
 11
-68.9026
 21
-7.0186
  0
LINE
  8
0
 10
-68.9026
 20
-7.0186
 11
-66.0572
 21
-8.10633
  0
LINE
  8
0
 10
-66.0572
 20
-8.10633
 11
-60.5882
 21
-10.0195
  0
LINE
  8
0
 10
-60.5882
 20
-10.0195
 11
-56.0214
 21
-11.6172
  0
LINE
  8
0
 10
-56.0214
 20
-11.6172
 11
-50.412
 21
-13.3751
  0
LINE
  8
0
 10
-50.412
 20
-13.3751
 11
-45.7267
 21
-14.8434
  0
LINE
  8
0
 10
-45.7267
 20
-14.8434
 11
-43.2791
 21
-15.5506
  0
LINE
  8
0
 10
-43.2791
 20
-15.5506
 11
-41.2345
 21
-16.1413
  0
LINE
  8
0
 10
-41.2345
 20
-16.1413
 11
-35.089
 21
-17.7665
  0
LINE
  8
0
 10
-35.089
 20
-17.7665
 11
-29.9547
 21
-19.1243
  0
LINE
  8
0
 10
-29.9547
 20
-19.1243
 11
-23.7228
 21
-20.5627
  0
LINE
  8
0
 10
-23.7228
 20
-20.5627
 11
-18.5162
 21
-21.7644
  0
LINE
  8
0
 10
-18.5162
 20
-21.7644
 11
-16.0316
 21
-22.2807
  0
LINE
  8
0
 10
-16.0316
 20
-22.2807
 11
-13.9557
 21
-22.712
  0
LINE
  8
0
 10
-13.9557
 20
-22.712
 11
-7.62661
 21
-23.8808
  0
LINE
  8
0
 10
-7.62661
 20
-23.8808
 11
-2.33891
 21
-24.8574
  0
LINE
  8
0
 10
-2.33891
 20
-24.8574
 11
3.91923
 21
-25.8031
  0
LINE
  8
0
 10
3.91923
 20
-25.8031
 11
9.14686
 21
-26.5931
  0
LINE
  8
0
 10
9.14686
 20
-26.5931
 11
11.6523
 21
-26.8823
  0
LINE
  8
0
 10
11.6523
 20
-26.8823
 11
13.7316
 21
-27.1224
  0
LINE
  8
0
 10
13.7316
 20
-27.1224
 11
16.1706
 21
-27.2816
  0
LINE
  8
0
 10
16.1706
 20
-27.2816
 11
18.1859
 21
-27.4131
  0
LINE
  8
0
 10
18.1859
 20
-27.4131
 11
20.5557
 21
-27.4177
  0
LINE
  8
0
 10
20.5557
 20
-27.4177
 11
22.507
 21
-27.4215
  0
LINE
  8
0
 10
22.507
 20
-27.4215
 11
24.8127
 21
-27.2543
  0
LINE
  8
0
 10
24.8127
 20
-27.2543
 11
26.7049
 21
-27.117
  0
LINE
  8
0
 10
26.7049
 20
-27.117
 11
28.4612
 21
-26.8551
  0
LINE
  8
0
 10
28.4612
 20
-26.8551
 11
29.8979
 21
-26.6408
  0
LINE
  8
0
 10
29.8979
 20
-26.6408
 11
32.1798
 21
-26.1009
  0
LINE
  8
0
 10
32.1798
 20
-26.1009
 11
34.0458
 21
-25.6594
  0
LINE
  8
0
 10
34.0458
 20
-25.6594
 11
36.2982
 21
-24.9048
  0
LINE
  8
0
 10
36.2982
 20
-24.9048
 11
38.1439
 21
-24.2863
  0
LINE
  8
0
 10
38.1439
 20
-24.2863
 11
40.3506
 21
-23.329
  0
LINE
  8
0
 10
40.3506
 20
-23.329
 11
42.1608
 21
-22.5438
  0
LINE
  8
0
 10
42.1608
 20
-22.5438
 11
43.8388
 21
-21.6593
  0
LINE
  8
0
 10
43.8388
 20
-21.6593
 11
45.2152
 21
-20.9338
  0
LINE
  8
0
 10
45.2152
 20
-20.9338
 11
47.0212
 21
-19.807
  0
LINE
  8
0
 10
47.0212
 20
-19.807
 11
48.5011
 21
-18.8837
  0
LINE
  8
0
 10
48.5011
 20
-18.8837
 11
50.1674
 21
-17.6462
  0
LINE
  8
0
 10
50.1674
 20
-17.6462
 11
51.53
 21
-16.6343
  0
LINE
  8
0
 10
51.53
 20
-16.6343
 11
53.0467
 21
-15.2851
  0
LINE
  8
0
 10
53.0467
 20
-15.2851
 11
54.2828
 21
-14.1856
  0
LINE
  8
0
 10
54.2828
 20
-14.1856
 11
54.9715
 21
-13.4761
  0
LINE
  8
0
 10
54.9715
 20
-13.4761
 11
55.5306
 21
-12.9001
  0
LINE
  8
0
 10
55.5306
 20
-12.9001
 11
56.6164
 21
-11.5989
  0
LINE
  8
0
 10
56.6164
 20
-11.5989
 11
57.4939
 21
-10.5474
  0
LINE
  8
0
 10
57.4939
 20
-10.5474
 11
58.4073
 21
-9.17049
  0
LINE
  8
0
 10
58.4073
 20
-9.17049
 11
59.1398
 21
-8.06652
  0
LINE
  8
0
 10
59.1398
 20
-8.06652
 11
59.2535
 21
-7.86544
  0
LINE
  8
0
 10
59.2535
 20
-7.86544
 11
59.3443
 21
-7.70506
  0
LINE
  8
0
 10
59.3443
 20
-7.70506
 11
59.9341
 21
-6.46947
  0
LINE
  8
0
 10
59.9341
 20
-6.46947
 11
60.4018
 21
-5.48994
  0
LINE
  8
0
 10
60.4018
 20
-5.48994
 11
60.8141
 21
-4.20954
  0
LINE
  8
0
 10
60.8141
 20
-4.20954
 11
61.1376
 21
-3.20548
  0
LINE
  8
0
 10
61.1376
 20
-3.20548
 11
61.2288
 21
-2.78087
  0
LINE
  8
0
 10
61.2288
 20
-2.78087
 11
61.2997
 21
-2.45046
  0
LINE
  8
0
 10
61.2997
 20
-2.45046
 11
61.4318
 21
-1.20373
  0
LINE
  8
0
 10
61.4318
 20
-1.20373
 11
61.534
 21
-0.239859
  0
LINE
  8
0
 10
61.534
 20
-0.239859
 11
61.4603
 21
0.984862
  0
LINE
  8
0
 10
61.4603
 20
0.984862
 11
61.4033
 21
1.92944
  0
LINE
  8
0
 10
61.4033
 20
1.92944
 11
61.3815
 21
2.07398
  0
LINE
  8
0
 10
61.3815
 20
2.07398
 11
61.3645
 21
2.18593
  0
LINE
  8
0
 10
61.3645
 20
2.18593
 11
61.0446
 21
3.49445
  0
LINE
  8
0
 10
61.0446
 20
3.49445
 11
60.795
 21
4.51473
  0
LINE
  8
0
 10
60.795
 20
4.51473
 11
60.266
 21
5.81263
  0
LINE
  8
0
 10
60.266
 20
5.81263
 11
59.8486
 21
6.83643
  0
LINE
  8
0
 10
59.8486
 20
6.83643
 11
59.697
 21
7.13596
  0
LINE
  8
0
 10
59.697
 20
7.13596
 11
59.5766
 21
7.37384
  0
LINE
  8
0
 10
59.5766
 20
7.37384
 11
58.6888
 21
8.81956
  0
LINE
  8
0
 10
58.6888
 20
8.81956
 11
57.979
 21
9.97536
  0
LINE
  8
0
 10
57.979
 20
9.97536
 11
56.8618
 21
11.3813
  0
LINE
  8
0
 10
56.8618
 20
11.3813
 11
55.9603
 21
12.5155
  0
LINE
  8
0
 10
55.9603
 20
12.5155
 11
55.1438
 21
13.3781
  0
LINE
  8
0
 10
55.1438
 20
13.3781
 11
54.4814
 21
14.0779
  0
LINE
  8
0
 10
54.4814
 20
14.0779
 11
52.8373
 21
15.5469
  0
LINE
  8
0
 10
52.8373
 20
15.5469
 11
51.4977
 21
16.7438
  0
LINE
  8
0
 10
51.4977
 20
16.7438
 11
49.6548
 21
18.0955
  0
LINE
  8
0
 10
49.6548
 20
18.0955
 11
48.1474
 21
19.201
  0
LINE
  8
0
 10
48.1474
 20
19.201
 11
46.1281
 21
20.4228
  0
LINE
  8
0
 10
46.1281
 20
20.4228
 11
44.473
 21
21.4243
  0
LINE
  8
0
 10
44.473
 20
21.4243
 11
43.5784
 21
21.8941
  0
LINE
  8
0
 10
43.5784
 20
21.8941
 11
42.8446
 21
22.2795
  0
LINE
  8
0
 10
42.8446
 20
22.2795
 11
40.7459
 21
23.2301
  0
LINE
  8
0
 10
40.7459
 20
23.2301
 11
39.0242
 21
24.0099
  0
LINE
  8
0
 10
39.0242
 20
24.0099
 11
36.8908
 21
24.7741
  0
LINE
  8
0
 10
36.8908
 20
24.7741
 11
35.1418
 21
25.4006
  0
LINE
  8
0
 10
35.1418
 20
25.4006
 11
32.9757
 21
25.975
  0
LINE
  8
0
 10
32.9757
 20
25.975
 11
31.2032
 21
26.4451
  0
LINE
  8
0
 10
31.2032
 20
26.4451
 11
29.7192
 21
26.7197
  0
LINE
  8
0
 10
29.7192
 20
26.7197
 11
28.5067
 21
26.944
  0
LINE
  8
0
 10
28.5067
 20
26.944
 11
26.2012
 21
27.1925
  0
LINE
  8
0
 10
26.2012
 20
27.1925
 11
24.3124
 21
27.3959
  0
LINE
  8
0
 10
24.3124
 20
27.3959
 11
21.5899
 21
27.4538
  0
LINE
  8
0
 10
21.5899
 20
27.4538
 11
19.3511
 21
27.5012
  0
LINE
  8
0
 10
19.3511
 20
27.5012
 11
16.3978
 21
27.3303
  0
LINE
  8
0
 10
16.3978
 20
27.3303
 11
13.9591
 21
27.1891
  0
LINE
  8
0
 10
13.9591
 20
27.1891
 11
11.29
 21
26.8771
  0
LINE
  8
0
 10
11.29
 20
26.8771
 11
9.07511
 21
26.6181
  0
LINE
  8
0
 10
9.07511
 20
26.6181
 11
2.81953
 21
25.6554
  0
LINE
  8
0
 10
2.81953
 20
25.6554
 11
-2.40596
 21
24.8513
  0
LINE
  8
0
 10
-2.40596
 20
24.8513
 11
-8.7319
 21
23.6654
  0
LINE
  8
0
 10
-8.7319
 20
23.6654
 11
-14.0169
 21
22.6746
  0
LINE
  8
0
 10
-14.0169
 20
22.6746
 11
-16.5001
 21
22.1517
  0
LINE
  8
0
 10
-16.5001
 20
22.1517
 11
-18.5748
 21
21.7148
  0
LINE
  8
0
 10
-18.5748
 20
21.7148
 11
-24.8027
 21
20.2596
  0
LINE
  8
0
 10
-24.8027
 20
20.2596
 11
-30.0062
 21
19.0438
  0
LINE
  8
0
 10
-30.0062
 20
19.0438
 11
-36.1473
 21
17.4019
  0
LINE
  8
0
 10
-36.1473
 20
17.4019
 11
-41.278
 21
16.0303
  0
LINE
  8
0
 10
-41.278
 20
16.0303
 11
-43.7236
 21
15.3165
  0
LINE
  8
0
 10
-43.7236
 20
15.3165
 11
-45.7666
 21
14.7203
  0
LINE
  8
0
 10
-45.7666
 20
14.7203
 11
-51.3713
 21
12.9474
  0
LINE
  8
0
 10
-51.3713
 20
12.9474
 11
-56.0526
 21
11.4664
  0
LINE
  8
0
 10
-56.0526
 20
11.4664
 11
-61.5164
 21
9.53836
  0
LINE
  8
0
 10
-61.5164
 20
9.53836
 11
-66.0788
 21
7.92847
  0
LINE
  8
0
 10
-66.0788
 20
7.92847
 11
-69.4837
 21
6.61629
  0
LINE
  8
0
 10
-69.4837
 20
6.61629
 11
-72.3263
 21
5.52085
  0
LINE
  8
0
 10
-72.3263
 20
5.52085
 11
-77.3706
 21
3.40008
  0
LINE
  8
0
 10
-77.3706
 20
3.40008
 11
-81.5801
 21
1.63026
  0
LINE
  8
0
 10
-81.5801
 20
1.63026
 11
-83.4739
 21
0.840842
  0
LINE
  8
0
 10
-83.4739
 20
0.840842
 11
-84.0093
 21
0.628747
  0
LINE
  8
0
 10
-84.0093
 20
0.628747
 11
-85.6589
 21
-0.115251
  0
ENDSEC
  0
SECTION
  2
OBJECTS
  0
DICTIONARY
  0
ENDSEC
  0
EOF
