solid OpenSCAD_Model
  facet normal 0 0 1
    outer loop
      vertex 59.2936 1.85322 19.9994
      vertex 59.4371 -0.192066 19.9994
      vertex 59.3266 1.63496 19.9994
    endloop
  endfacet
  facet normal 0 0 1
    outer loop
      vertex 59.2936 1.85322 19.9994
      vertex 59.2382 -2.06386 19.9994
      vertex 59.4371 -0.192066 19.9994
    endloop
  endfacet
  facet normal 0 0 1
    outer loop
      vertex 59.2936 1.85322 19.9994
      vertex 59.0989 -2.71255 19.9994
      vertex 59.2382 -2.06386 19.9994
    endloop
  endfacet
  facet normal 0 0 1
    outer loop
      vertex 58.8015 3.86266 19.9994
      vertex 59.0989 -2.71255 19.9994
      vertex 59.2936 1.85322 19.9994
    endloop
  endfacet
  facet normal 0 0 1
    outer loop
      vertex 58.8015 3.86266 19.9994
      vertex 58.4554 -4.70842 19.9994
      vertex 59.0989 -2.71255 19.9994
    endloop
  endfacet
  facet normal 0 0 1
    outer loop
      vertex 57.9634 5.91703 19.9994
      vertex 58.4554 -4.70842 19.9994
      vertex 58.8015 3.86266 19.9994
    endloop
  endfacet
  facet normal 0 0 1
    outer loop
      vertex 57.7191 6.3995 19.9994
      vertex 58.4554 -4.70842 19.9994
      vertex 57.9634 5.91703 19.9994
    endloop
  endfacet
  facet normal 0 0 1
    outer loop
      vertex 57.7191 6.3995 19.9994
      vertex 57.5089 -6.68979 19.9994
      vertex 58.4554 -4.70842 19.9994
    endloop
  endfacet
  facet normal 0 0 1
    outer loop
      vertex 57.7191 6.3995 19.9994
      vertex 57.3238 -7.01705 19.9994
      vertex 57.5089 -6.68979 19.9994
    endloop
  endfacet
  facet normal 0 0 1
    outer loop
      vertex 56.2641 8.76774 19.9994
      vertex 57.3238 -7.01705 19.9994
      vertex 57.7191 6.3995 19.9994
    endloop
  endfacet
  facet normal 0 0 1
    outer loop
      vertex 56.2641 8.76774 19.9994
      vertex 55.8158 -9.28908 19.9994
      vertex 57.3238 -7.01705 19.9994
    endloop
  endfacet
  facet normal 0 0 1
    outer loop
      vertex 54.3913 11.1236 19.9994
      vertex 55.8158 -9.28908 19.9994
      vertex 56.2641 8.76774 19.9994
    endloop
  endfacet
  facet normal 0 0 1
    outer loop
      vertex 54.3913 11.1236 19.9994
      vertex 53.9879 -11.479 19.9994
      vertex 55.8158 -9.28908 19.9994
    endloop
  endfacet
  facet normal 0 0 1
    outer loop
      vertex 53.0038 12.5893 19.9994
      vertex 53.9879 -11.479 19.9994
      vertex 54.3913 11.1236 19.9994
    endloop
  endfacet
  facet normal 0 0 1
    outer loop
      vertex 53.0038 12.5893 19.9994
      vertex 52.8153 -12.687 19.9994
      vertex 53.9879 -11.479 19.9994
    endloop
  endfacet
  facet normal 0 0 1
    outer loop
      vertex 53.0038 12.5893 19.9994
      vertex 50.2088 -15.0053 19.9994
      vertex 52.8153 -12.687 19.9994
    endloop
  endfacet
  facet normal 0 0 1
    outer loop
      vertex 50.1796 15.1123 19.9994
      vertex 50.2088 -15.0053 19.9994
      vertex 53.0038 12.5893 19.9994
    endloop
  endfacet
  facet normal 0 0 1
    outer loop
      vertex 50.1796 15.1123 19.9994
      vertex 47.321 -17.1498 19.9994
      vertex 50.2088 -15.0053 19.9994
    endloop
  endfacet
  facet normal 0 0 1
    outer loop
      vertex 46.9843 17.4555 19.9994
      vertex 47.321 -17.1498 19.9994
      vertex 50.1796 15.1123 19.9994
    endloop
  endfacet
  facet normal 0 0 1
    outer loop
      vertex 46.9843 17.4555 19.9994
      vertex 44.175 -19.1124 19.9994
      vertex 47.321 -17.1498 19.9994
    endloop
  endfacet
  facet normal 0 0 1
    outer loop
      vertex 43.4648 19.5851 19.9994
      vertex 44.175 -19.1124 19.9994
      vertex 46.9843 17.4555 19.9994
    endloop
  endfacet
  facet normal 0 0 1
    outer loop
      vertex 41.9026 20.4054 19.9994
      vertex 44.175 -19.1124 19.9994
      vertex 43.4648 19.5851 19.9994
    endloop
  endfacet
  facet normal 0 0 1
    outer loop
      vertex 41.9026 20.4054 19.9994
      vertex 41.2455 -20.6566 19.9994
      vertex 44.175 -19.1124 19.9994
    endloop
  endfacet
  facet normal 0 0 1
    outer loop
      vertex 38.2371 22.0657 19.9994
      vertex 41.2455 -20.6566 19.9994
      vertex 41.9026 20.4054 19.9994
    endloop
  endfacet
  facet normal 0 0 1
    outer loop
      vertex 38.2371 22.0657 19.9994
      vertex 37.3919 -22.3282 19.9994
      vertex 41.2455 -20.6566 19.9994
    endloop
  endfacet
  facet normal 0 0 1
    outer loop
      vertex 34.5171 23.3983 19.9994
      vertex 37.3919 -22.3282 19.9994
      vertex 38.2371 22.0657 19.9994
    endloop
  endfacet
  facet normal 0 0 1
    outer loop
      vertex 34.5171 23.3983 19.9994
      vertex 33.4682 -23.643 19.9994
      vertex 37.3919 -22.3282 19.9994
    endloop
  endfacet
  facet normal 0 0 1
    outer loop
      vertex 30.7566 24.3958 19.9994
      vertex 33.4682 -23.643 19.9994
      vertex 34.5171 23.3983 19.9994
    endloop
  endfacet
  facet normal 0 0 1
    outer loop
      vertex 30.7566 24.3958 19.9994
      vertex 29.5142 -24.5788 19.9994
      vertex 33.4682 -23.643 19.9994
    endloop
  endfacet
  facet normal 0 0 1
    outer loop
      vertex 28.1897 24.8707 19.9994
      vertex 29.5142 -24.5788 19.9994
      vertex 30.7566 24.3958 19.9994
    endloop
  endfacet
  facet normal 0 0 1
    outer loop
      vertex 28.1897 24.8707 19.9994
      vertex 26.4674 -25.0331 19.9994
      vertex 29.5142 -24.5788 19.9994
    endloop
  endfacet
  facet normal 0 0 1
    outer loop
      vertex 24.1758 25.303 19.9994
      vertex 26.4674 -25.0331 19.9994
      vertex 28.1897 24.8707 19.9994
    endloop
  endfacet
  facet normal 0 0 1
    outer loop
      vertex 24.1758 25.303 19.9994
      vertex 22.4366 -25.3253 19.9994
      vertex 26.4674 -25.0331 19.9994
    endloop
  endfacet
  facet normal 0 0 1
    outer loop
      vertex 19.3928 25.4042 19.9994
      vertex 22.4366 -25.3253 19.9994
      vertex 24.1758 25.303 19.9994
    endloop
  endfacet
  facet normal 0 0 1
    outer loop
      vertex 19.3928 25.4042 19.9994
      vertex 18.2599 -25.3169 19.9994
      vertex 22.4366 -25.3253 19.9994
    endloop
  endfacet
  facet normal -0 0 1
    outer loop
      vertex 14.1525 25.1006 19.9994
      vertex 18.2599 -25.3169 19.9994
      vertex 19.3928 25.4042 19.9994
    endloop
  endfacet
  facet normal 0 0 1
    outer loop
      vertex 14.1525 25.1006 19.9994
      vertex 13.9256 -25.0339 19.9994
      vertex 18.2599 -25.3169 19.9994
    endloop
  endfacet
  facet normal 0 0 1
    outer loop
      vertex 14.1525 25.1006 19.9994
      vertex 9.4253 -24.5143 19.9994
      vertex 13.9256 -25.0339 19.9994
    endloop
  endfacet
  facet normal -0 0 1
    outer loop
      vertex 9.35914 24.5399 19.9994
      vertex 9.4253 -24.5143 19.9994
      vertex 14.1525 25.1006 19.9994
    endloop
  endfacet
  facet normal 0 0 1
    outer loop
      vertex 9.35914 24.5399 19.9994
      vertex -1.99141 -22.789 19.9994
      vertex 9.4253 -24.5143 19.9994
    endloop
  endfacet
  facet normal -0 0 1
    outer loop
      vertex -2.05287 22.7838 19.9994
      vertex -1.99141 -22.789 19.9994
      vertex 9.35914 24.5399 19.9994
    endloop
  endfacet
  facet normal 0 0 1
    outer loop
      vertex -2.05287 22.7838 19.9994
      vertex -13.5419 -20.6558 19.9994
      vertex -1.99141 -22.789 19.9994
    endloop
  endfacet
  facet normal -0 0 1
    outer loop
      vertex -13.5975 20.6195 19.9994
      vertex -13.5419 -20.6558 19.9994
      vertex -2.05287 22.7838 19.9994
    endloop
  endfacet
  facet normal 0 0 1
    outer loop
      vertex -13.5975 20.6195 19.9994
      vertex -18.0766 -19.7135 19.9994
      vertex -13.5419 -20.6558 19.9994
    endloop
  endfacet
  facet normal -0 0 1
    outer loop
      vertex -18.1297 19.665 19.9994
      vertex -18.0766 -19.7135 19.9994
      vertex -13.5975 20.6195 19.9994
    endloop
  endfacet
  facet normal 0 0 1
    outer loop
      vertex -18.1297 19.665 19.9994
      vertex -29.4508 -17.0883 19.9994
      vertex -18.0766 -19.7135 19.9994
    endloop
  endfacet
  facet normal -0 0 1
    outer loop
      vertex -29.4968 17.0091 19.9994
      vertex -29.4508 -17.0883 19.9994
      vertex -18.1297 19.665 19.9994
    endloop
  endfacet
  facet normal 0 0 1
    outer loop
      vertex -29.4968 17.0091 19.9994
      vertex -40.6657 -14.1224 19.9994
      vertex -29.4508 -17.0883 19.9994
    endloop
  endfacet
  facet normal -0 0 1
    outer loop
      vertex -40.7036 14.0131 19.9994
      vertex -40.6657 -14.1224 19.9994
      vertex -29.4968 17.0091 19.9994
    endloop
  endfacet
  facet normal 0 0 1
    outer loop
      vertex -40.7036 14.0131 19.9994
      vertex -45.1311 -12.8322 19.9994
      vertex -40.6657 -14.1224 19.9994
    endloop
  endfacet
  facet normal -0 0 1
    outer loop
      vertex -45.1656 12.7109 19.9994
      vertex -45.1311 -12.8322 19.9994
      vertex -40.7036 14.0131 19.9994
    endloop
  endfacet
  facet normal 0 0 1
    outer loop
      vertex -45.1656 12.7109 19.9994
      vertex -55.3621 -9.62612 19.9994
      vertex -45.1311 -12.8322 19.9994
    endloop
  endfacet
  facet normal -0 0 1
    outer loop
      vertex -55.3878 9.47706 19.9994
      vertex -55.3621 -9.62612 19.9994
      vertex -45.1656 12.7109 19.9994
    endloop
  endfacet
  facet normal 0 0 1
    outer loop
      vertex -55.3878 9.47706 19.9994
      vertex -65.3306 -6.13876 19.9994
      vertex -55.3621 -9.62612 19.9994
    endloop
  endfacet
  facet normal -0 0 1
    outer loop
      vertex -65.3469 5.96283 19.9994
      vertex -65.3306 -6.13876 19.9994
      vertex -55.3878 9.47706 19.9994
    endloop
  endfacet
  facet normal 0 0 1
    outer loop
      vertex -65.3469 5.96283 19.9994
      vertex -71.5394 -3.76523 19.9994
      vertex -65.3306 -6.13876 19.9994
    endloop
  endfacet
  facet normal -0 0 1
    outer loop
      vertex -71.5493 3.57266 19.9994
      vertex -71.5394 -3.76523 19.9994
      vertex -65.3469 5.96283 19.9994
    endloop
  endfacet
  facet normal 0 0 1
    outer loop
      vertex -71.5394 -3.76523 19.9994
      vertex -71.5493 3.57266 19.9994
      vertex -80.3252 -0.108058 19.9994
    endloop
  endfacet
  facet normal -0.0300804 0.257154 0.965902
    outer loop
      vertex 9.35914 24.5399 19.9994
      vertex 14.1525 25.1006 19.9994
      vertex 9.15601 26.0261 19.5974
    endloop
  endfacet
  facet normal -0.0821299 0.702331 0.707097
    outer loop
      vertex 11.29 26.8771 19
      vertex 9.15601 26.0261 19.5974
      vertex 14.0141 26.5942 19.5974
    endloop
  endfacet
  facet normal -0.0821268 0.702327 0.707101
    outer loop
      vertex 9.15601 26.0261 19.5974
      vertex 11.29 26.8771 19
      vertex 9.0751 26.6181 19
    endloop
  endfacet
  facet normal -0.0300746 0.257182 0.965895
    outer loop
      vertex 14.1525 25.1006 19.9994
      vertex 14.0141 26.5942 19.5974
      vertex 9.15601 26.0261 19.5974
    endloop
  endfacet
  facet normal -0.0149807 0.258576 0.965875
    outer loop
      vertex 14.1525 25.1006 19.9994
      vertex 19.3928 25.4042 19.9994
      vertex 14.0141 26.5942 19.5974
    endloop
  endfacet
  facet normal -0.0149733 0.258607 0.965867
    outer loop
      vertex 19.3928 25.4042 19.9994
      vertex 19.363 26.9039 19.5974
      vertex 14.0141 26.5942 19.5974
    endloop
  endfacet
  facet normal 0.00548022 0.259011 0.965859
    outer loop
      vertex 19.3928 25.4042 19.9994
      vertex 24.1758 25.303 19.9994
      vertex 19.363 26.9039 19.5974
    endloop
  endfacet
  facet normal 0.00549157 0.259043 0.96585
    outer loop
      vertex 24.1758 25.303 19.9994
      vertex 24.2735 26.7998 19.5974
      vertex 19.363 26.9039 19.5974
    endloop
  endfacet
  facet normal 0.0277428 0.257592 0.965855
    outer loop
      vertex 28.1897 24.8707 19.9994
      vertex 24.2735 26.7998 19.5974
      vertex 24.1758 25.303 19.9994
    endloop
  endfacet
  facet normal 0.0277512 0.257608 0.965851
    outer loop
      vertex 28.1897 24.8707 19.9994
      vertex 28.4164 26.3535 19.5974
      vertex 24.2735 26.7998 19.5974
    endloop
  endfacet
  facet normal 0.0471137 0.254656 0.965883
    outer loop
      vertex 30.7566 24.3958 19.9994
      vertex 28.4164 26.3535 19.5974
      vertex 28.1897 24.8707 19.9994
    endloop
  endfacet
  facet normal 0.047122 0.254666 0.96588
    outer loop
      vertex 30.7566 24.3958 19.9994
      vertex 31.0759 25.8614 19.5974
      vertex 28.4164 26.3535 19.5974
    endloop
  endfacet
  facet normal 0.0664335 0.250449 0.965848
    outer loop
      vertex 34.5171 23.3983 19.9994
      vertex 31.0759 25.8614 19.5974
      vertex 30.7566 24.3958 19.9994
    endloop
  endfacet
  facet normal 0.0664142 0.250424 0.965856
    outer loop
      vertex 34.5171 23.3983 19.9994
      vertex 34.9638 24.8303 19.5974
      vertex 31.0759 25.8614 19.5974
    endloop
  endfacet
  facet normal 0.0873672 0.243889 0.96586
    outer loop
      vertex 38.2371 22.0657 19.9994
      vertex 34.9638 24.8303 19.5974
      vertex 34.5171 23.3983 19.9994
    endloop
  endfacet
  facet normal 0.0873645 0.243886 0.965861
    outer loop
      vertex 38.2371 22.0657 19.9994
      vertex 38.8 23.4561 19.5974
      vertex 34.9638 24.8303 19.5974
    endloop
  endfacet
  facet normal 0.106889 0.235981 0.965861
    outer loop
      vertex 41.9026 20.4054 19.9994
      vertex 38.8 23.4561 19.5974
      vertex 38.2371 22.0657 19.9994
    endloop
  endfacet
  facet normal 0.106879 0.235972 0.965864
    outer loop
      vertex 41.9026 20.4054 19.9994
      vertex 42.5763 21.7457 19.5974
      vertex 38.8 23.4561 19.5974
    endloop
  endfacet
  facet normal 0.120357 0.22921 0.965907
    outer loop
      vertex 43.4648 19.5851 19.9994
      vertex 42.5763 21.7457 19.5974
      vertex 41.9026 20.4054 19.9994
    endloop
  endfacet
  facet normal 0.120386 0.229221 0.965901
    outer loop
      vertex 43.4648 19.5851 19.9994
      vertex 44.1858 20.9004 19.5974
      vertex 42.5763 21.7457 19.5974
    endloop
  endfacet
  facet normal 0.13413 0.221672 0.965852
    outer loop
      vertex 46.9843 17.4555 19.9994
      vertex 44.1858 20.9004 19.5974
      vertex 43.4648 19.5851 19.9994
    endloop
  endfacet
  facet normal 0.134125 0.221668 0.965854
    outer loop
      vertex 46.9843 17.4555 19.9994
      vertex 47.8161 18.7038 19.5974
      vertex 44.1858 20.9004 19.5974
    endloop
  endfacet
  facet normal 0.153222 0.208941 0.96585
    outer loop
      vertex 50.1796 15.1123 19.9994
      vertex 47.8161 18.7038 19.5974
      vertex 46.9843 17.4555 19.9994
    endloop
  endfacet
  facet normal 0.153243 0.208954 0.965844
    outer loop
      vertex 50.1796 15.1123 19.9994
      vertex 51.1223 16.2791 19.5974
      vertex 47.8161 18.7038 19.5974
    endloop
  endfacet
  facet normal 0.172655 0.193267 0.965835
    outer loop
      vertex 53.0038 12.5893 19.9994
      vertex 51.1223 16.2791 19.5974
      vertex 50.1796 15.1123 19.9994
    endloop
  endfacet
  facet normal 0.172696 0.193287 0.965824
    outer loop
      vertex 53.0038 12.5893 19.9994
      vertex 54.0605 13.6539 19.5974
      vertex 51.1223 16.2791 19.5974
    endloop
  endfacet
  facet normal 0.188077 0.178042 0.965882
    outer loop
      vertex 54.3913 11.1236 19.9994
      vertex 54.0605 13.6539 19.5974
      vertex 53.0038 12.5893 19.9994
    endloop
  endfacet
  facet normal 0.188092 0.178044 0.965879
    outer loop
      vertex 54.3913 11.1236 19.9994
      vertex 55.5134 12.119 19.5974
      vertex 54.0605 13.6539 19.5974
    endloop
  endfacet
  facet normal 0.202916 0.161309 0.965818
    outer loop
      vertex 56.2641 8.76774 19.9994
      vertex 55.5134 12.119 19.5974
      vertex 54.3913 11.1236 19.9994
    endloop
  endfacet
  facet normal 0.202962 0.161318 0.965807
    outer loop
      vertex 56.2641 8.76774 19.9994
      vertex 57.4906 9.63139 19.5974
      vertex 55.5134 12.119 19.5974
    endloop
  endfacet
  facet normal 0.220958 0.135752 0.965789
    outer loop
      vertex 57.7191 6.3995 19.9994
      vertex 57.4906 9.63139 19.5974
      vertex 56.2641 8.76774 19.9994
    endloop
  endfacet
  facet normal 0.221052 0.135756 0.965767
    outer loop
      vertex 57.7191 6.3995 19.9994
      vertex 59.0475 7.09629 19.5974
      vertex 57.4906 9.63139 19.5974
    endloop
  endfacet
  facet normal 0.23096 0.116947 0.965909
    outer loop
      vertex 57.9634 5.91703 19.9994
      vertex 59.0475 7.09629 19.5974
      vertex 57.7191 6.3995 19.9994
    endloop
  endfacet
  facet normal 0.230986 0.116923 0.965906
    outer loop
      vertex 59.3116 6.57455 19.5974
      vertex 59.0475 7.09629 19.5974
      vertex 57.9634 5.91703 19.9994
    endloop
  endfacet
  facet normal 0.240182 0.0979844 0.96577
    outer loop
      vertex 58.8015 3.86266 19.9994
      vertex 59.3116 6.57455 19.5974
      vertex 57.9634 5.91703 19.9994
    endloop
  endfacet
  facet normal 0.240267 0.0979655 0.965751
    outer loop
      vertex 60.2272 4.32898 19.5974
      vertex 59.3116 6.57455 19.5974
      vertex 58.8015 3.86266 19.9994
    endloop
  endfacet
  facet normal 0.252109 0.06174 0.965727
    outer loop
      vertex 59.2936 1.85322 19.9994
      vertex 60.2272 4.32898 19.5974
      vertex 58.8015 3.86266 19.9994
    endloop
  endfacet
  facet normal 0.252218 0.0616947 0.965702
    outer loop
      vertex 60.7746 2.09112 19.5974
      vertex 60.2272 4.32898 19.5974
      vertex 59.2936 1.85322 19.9994
    endloop
  endfacet
  facet normal 0.255968 0.0387013 0.96591
    outer loop
      vertex 59.3266 1.63496 19.9994
      vertex 60.7746 2.09112 19.5974
      vertex 59.2936 1.85322 19.9994
    endloop
  endfacet
  facet normal 0.255946 0.0387749 0.965913
    outer loop
      vertex 60.8118 1.84557 19.5974
      vertex 60.7746 2.09112 19.5974
      vertex 59.3266 1.63496 19.9994
    endloop
  endfacet
  facet normal 0.259165 0.0156745 0.965706
    outer loop
      vertex 59.4371 -0.192066 19.9994
      vertex 60.8118 1.84557 19.5974
      vertex 59.3266 1.63496 19.9994
    endloop
  endfacet
  facet normal 0.259214 0.0156393 0.965693
    outer loop
      vertex 60.9368 -0.226246 19.5974
      vertex 60.8118 1.84557 19.5974
      vertex 59.4371 -0.192066 19.9994
    endloop
  endfacet
  facet normal 0.258232 -0.0274402 0.965693
    outer loop
      vertex 60.9368 -0.226246 19.5974
      vertex 59.4371 -0.192066 19.9994
      vertex 59.2382 -2.06386 19.9994
    endloop
  endfacet
  facet normal 0.258184 -0.0273922 0.965707
    outer loop
      vertex 60.7125 -2.34037 19.5974
      vertex 60.9368 -0.226246 19.5974
      vertex 59.2382 -2.06386 19.9994
    endloop
  endfacet
  facet normal 0.253175 -0.0543669 0.965892
    outer loop
      vertex 60.7125 -2.34037 19.5974
      vertex 59.2382 -2.06386 19.9994
      vertex 59.0989 -2.71255 19.9994
    endloop
  endfacet
  facet normal 0.253173 -0.0543579 0.965893
    outer loop
      vertex 60.5569 -3.06508 19.5974
      vertex 60.7125 -2.34037 19.5974
      vertex 59.0989 -2.71255 19.9994
    endloop
  endfacet
  facet normal 0.247016 -0.0796417 0.965733
    outer loop
      vertex 60.5569 -3.06508 19.5974
      vertex 59.0989 -2.71255 19.9994
      vertex 58.4554 -4.70842 19.9994
    endloop
  endfacet
  facet normal 0.246957 -0.079562 0.965755
    outer loop
      vertex 59.8474 -5.26734 19.5974
      vertex 60.5569 -3.06508 19.5974
      vertex 58.4554 -4.70842 19.9994
    endloop
  endfacet
  facet normal 0.234024 -0.111793 0.965782
    outer loop
      vertex 59.8474 -5.26734 19.5974
      vertex 58.4554 -4.70842 19.9994
      vertex 57.5089 -6.68979 19.9994
    endloop
  endfacet
  facet normal 0.233988 -0.111729 0.965798
    outer loop
      vertex 58.8215 -7.41582 19.5974
      vertex 59.8474 -5.26734 19.5974
      vertex 57.5089 -6.68979 19.9994
    endloop
  endfacet
  facet normal 0.225328 -0.127447 0.965911
    outer loop
      vertex 58.8215 -7.41582 19.5974
      vertex 57.5089 -6.68979 19.9994
      vertex 57.3238 -7.01705 19.9994
    endloop
  endfacet
  facet normal 0.225323 -0.127467 0.96591
    outer loop
      vertex 58.6225 -7.76759 19.5974
      vertex 58.8215 -7.41582 19.5974
      vertex 57.3238 -7.01705 19.9994
    endloop
  endfacet
  facet normal 0.216071 -0.143411 0.965788
    outer loop
      vertex 58.6225 -7.76759 19.5974
      vertex 57.3238 -7.01705 19.9994
      vertex 55.8158 -9.28908 19.9994
    endloop
  endfacet
  facet normal 0.216034 -0.143338 0.965807
    outer loop
      vertex 57.0159 -10.189 19.5974
      vertex 58.6225 -7.76759 19.5974
      vertex 55.8158 -9.28908 19.9994
    endloop
  endfacet
  facet normal 0.198981 -0.166087 0.965827
    outer loop
      vertex 57.0159 -10.189 19.5974
      vertex 55.8158 -9.28908 19.9994
      vertex 53.9879 -11.479 19.9994
    endloop
  endfacet
  facet normal 0.198964 -0.166043 0.965838
    outer loop
      vertex 55.0912 -12.4953 19.5974
      vertex 57.0159 -10.189 19.5974
      vertex 53.9879 -11.479 19.9994
    endloop
  endfacet
  facet normal 0.1858 -0.180356 0.965893
    outer loop
      vertex 55.0912 -12.4953 19.5974
      vertex 53.9879 -11.479 19.9994
      vertex 52.8153 -12.687 19.9994
    endloop
  endfacet
  facet normal 0.185801 -0.180359 0.965893
    outer loop
      vertex 53.8648 -13.7587 19.5974
      vertex 55.0912 -12.4953 19.5974
      vertex 52.8153 -12.687 19.9994
    endloop
  endfacet
  facet normal 0.172224 -0.193634 0.965839
    outer loop
      vertex 53.8648 -13.7587 19.5974
      vertex 52.8153 -12.687 19.9994
      vertex 50.2088 -15.0053 19.9994
    endloop
  endfacet
  facet normal 0.172213 -0.1936 0.965848
    outer loop
      vertex 51.1536 -16.1704 19.5974
      vertex 53.8648 -13.7587 19.5974
      vertex 50.2088 -15.0053 19.9994
    endloop
  endfacet
  facet normal 0.154461 -0.207999 0.965856
    outer loop
      vertex 51.1536 -16.1704 19.5974
      vertex 50.2088 -15.0053 19.9994
      vertex 47.321 -17.1498 19.9994
    endloop
  endfacet
  facet normal 0.154462 -0.208003 0.965855
    outer loop
      vertex 48.1649 -18.3898 19.5974
      vertex 51.1536 -16.1704 19.5974
      vertex 47.321 -17.1498 19.9994
    endloop
  endfacet
  facet normal 0.137123 -0.219804 0.965859
    outer loop
      vertex 48.1649 -18.3898 19.5974
      vertex 47.321 -17.1498 19.9994
      vertex 44.175 -19.1124 19.9994
    endloop
  endfacet
  facet normal 0.137118 -0.219773 0.965867
    outer loop
      vertex 44.9189 -20.415 19.5974
      vertex 48.1649 -18.3898 19.5974
      vertex 44.175 -19.1124 19.9994
    endloop
  endfacet
  facet normal -0.0821065 0.702406 0.707025
    outer loop
      vertex 14.0141 26.5942 19.5974
      vertex 13.9591 27.1891 19
      vertex 11.29 26.8771 19
    endloop
  endfacet
  facet normal -0.0408837 0.706111 0.70692
    outer loop
      vertex 16.3978 27.3303 19
      vertex 14.0141 26.5942 19.5974
      vertex 19.363 26.9039 19.5974
    endloop
  endfacet
  facet normal -0.0408836 0.706111 0.70692
    outer loop
      vertex 14.0141 26.5942 19.5974
      vertex 16.3978 27.3303 19
      vertex 13.9591 27.1891 19
    endloop
  endfacet
  facet normal -0.0408642 0.706168 0.706864
    outer loop
      vertex 19.363 26.9039 19.5974
      vertex 19.3511 27.5012 19
      vertex 16.3978 27.3303 19
    endloop
  endfacet
  facet normal 0.0149923 0.707199 0.706855
    outer loop
      vertex 21.5899 27.4538 19
      vertex 19.363 26.9039 19.5974
      vertex 24.2735 26.7998 19.5974
    endloop
  endfacet
  facet normal 0.0149736 0.707236 0.706819
    outer loop
      vertex 19.363 26.9039 19.5974
      vertex 21.5899 27.4538 19
      vertex 19.3511 27.5012 19
    endloop
  endfacet
  facet normal 0.0150424 0.707307 0.706747
    outer loop
      vertex 24.2735 26.7998 19.5974
      vertex 24.3124 27.3959 19
      vertex 21.5899 27.4538 19
    endloop
  endfacet
  facet normal 0.0757444 0.703373 0.706774
    outer loop
      vertex 24.2735 26.7998 19.5974
      vertex 26.2012 27.1925 19
      vertex 24.3124 27.3959 19
    endloop
  endfacet
  facet normal 0.0757669 0.703327 0.706817
    outer loop
      vertex 26.2012 27.1925 19
      vertex 24.2735 26.7998 19.5974
      vertex 28.4164 26.3535 19.5974
    endloop
  endfacet
  facet normal 0.0758167 0.703402 0.706737
    outer loop
      vertex 28.4164 26.3535 19.5974
      vertex 28.5067 26.944 19
      vertex 26.2012 27.1925 19
    endloop
  endfacet
  facet normal 0.12866 0.695499 0.706914
    outer loop
      vertex 28.4164 26.3535 19.5974
      vertex 29.7192 26.7197 19
      vertex 28.5067 26.944 19
    endloop
  endfacet
  facet normal 0.128685 0.695463 0.706945
    outer loop
      vertex 29.7192 26.7197 19
      vertex 28.4164 26.3535 19.5974
      vertex 31.0759 25.8614 19.5974
    endloop
  endfacet
  facet normal 0.128689 0.695467 0.70694
    outer loop
      vertex 31.0759 25.8614 19.5974
      vertex 31.2032 26.4451 19
      vertex 29.7192 26.7197 19
    endloop
  endfacet
  facet normal 0.181358 0.683804 0.706768
    outer loop
      vertex 31.0759 25.8614 19.5974
      vertex 32.9757 25.975 19
      vertex 31.2032 26.4451 19
    endloop
  endfacet
  facet normal 0.181353 0.683817 0.706757
    outer loop
      vertex 32.9757 25.975 19
      vertex 31.0759 25.8614 19.5974
      vertex 34.9638 24.8303 19.5974
    endloop
  endfacet
  facet normal 0.181324 0.683786 0.706794
    outer loop
      vertex 34.9638 24.8303 19.5974
      vertex 35.1418 25.4006 19
      vertex 32.9757 25.975 19
    endloop
  endfacet
  facet normal 0.238548 0.665955 0.706823
    outer loop
      vertex 34.9638 24.8303 19.5974
      vertex 36.8908 24.7741 19
      vertex 35.1418 25.4006 19
    endloop
  endfacet
  facet normal 0.238552 0.665939 0.706837
    outer loop
      vertex 36.8908 24.7741 19
      vertex 34.9638 24.8303 19.5974
      vertex 38.8 23.4561 19.5974
    endloop
  endfacet
  facet normal 0.238541 0.665929 0.70685
    outer loop
      vertex 38.8 23.4561 19.5974
      vertex 39.0242 24.0099 19
      vertex 36.8908 24.7741 19
    endloop
  endfacet
  facet normal 0.291843 0.644352 0.706851
    outer loop
      vertex 38.8 23.4561 19.5974
      vertex 40.7459 23.2301 19
      vertex 39.0242 24.0099 19
    endloop
  endfacet
  facet normal 0.291843 0.644345 0.706857
    outer loop
      vertex 40.7459 23.2301 19
      vertex 38.8 23.4561 19.5974
      vertex 42.5763 21.7457 19.5974
    endloop
  endfacet
  facet normal 0.29186 0.644359 0.706838
    outer loop
      vertex 42.5763 21.7457 19.5974
      vertex 42.8446 22.2795 19
      vertex 40.7459 23.2301 19
    endloop
  endfacet
  facet normal 0.328808 0.626049 0.70707
    outer loop
      vertex 42.5763 21.7457 19.5974
      vertex 43.5784 21.8941 19
      vertex 42.8446 22.2795 19
    endloop
  endfacet
  facet normal 0.328802 0.626059 0.707064
    outer loop
      vertex 43.5784 21.8941 19
      vertex 42.5763 21.7457 19.5974
      vertex 44.1858 20.9004 19.5974
    endloop
  endfacet
  facet normal 0.328772 0.626052 0.707084
    outer loop
      vertex 44.1858 20.9004 19.5974
      vertex 44.473 21.4243 19
      vertex 43.5784 21.8941 19
    endloop
  endfacet
  facet normal 0.366219 0.605221 0.706818
    outer loop
      vertex 44.1858 20.9004 19.5974
      vertex 46.1281 20.4228 19
      vertex 44.473 21.4243 19
    endloop
  endfacet
  facet normal 0.366218 0.605246 0.706797
    outer loop
      vertex 46.1281 20.4228 19
      vertex 44.1858 20.9004 19.5974
      vertex 47.8161 18.7038 19.5974
    endloop
  endfacet
  facet normal 0.366206 0.605238 0.70681
    outer loop
      vertex 47.8161 18.7038 19.5974
      vertex 48.1474 19.201 19
      vertex 46.1281 20.4228 19
    endloop
  endfacet
  facet normal 0.418363 0.570458 0.706788
    outer loop
      vertex 47.8161 18.7038 19.5974
      vertex 49.6548 18.0955 19
      vertex 48.1474 19.201 19
    endloop
  endfacet
  facet normal 0.418364 0.57046 0.706787
    outer loop
      vertex 49.6548 18.0955 19
      vertex 47.8161 18.7038 19.5974
      vertex 51.1223 16.2791 19.5974
    endloop
  endfacet
  facet normal 0.418438 0.570496 0.706714
    outer loop
      vertex 51.1223 16.2791 19.5974
      vertex 51.4977 16.7438 19
      vertex 49.6548 18.0955 19
    endloop
  endfacet
  facet normal 0.471422 0.527627 0.706662
    outer loop
      vertex 51.1223 16.2791 19.5974
      vertex 52.8373 15.5469 19
      vertex 51.4977 16.7438 19
    endloop
  endfacet
  facet normal 0.471422 0.527629 0.70666
    outer loop
      vertex 52.8373 15.5469 19
      vertex 51.1223 16.2791 19.5974
      vertex 54.0605 13.6539 19.5974
    endloop
  endfacet
  facet normal 0.471442 0.527636 0.706642
    outer loop
      vertex 54.0605 13.6539 19.5974
      vertex 54.4814 14.0779 19
      vertex 52.8373 15.5469 19
    endloop
  endfacet
  facet normal 0.513642 0.486191 0.706958
    outer loop
      vertex 54.0605 13.6539 19.5974
      vertex 55.1438 13.3781 19
      vertex 54.4814 14.0779 19
    endloop
  endfacet
  facet normal 0.513641 0.486201 0.706952
    outer loop
      vertex 55.1438 13.3781 19
      vertex 54.0605 13.6539 19.5974
      vertex 55.5134 12.119 19.5974
    endloop
  endfacet
  facet normal 0.513651 0.4862 0.706945
    outer loop
      vertex 55.5134 12.119 19.5974
      vertex 55.9603 12.5155 19
      vertex 55.1438 13.3781 19
    endloop
  endfacet
  facet normal 0.553938 0.440288 0.706611
    outer loop
      vertex 55.5134 12.119 19.5974
      vertex 56.8618 11.3813 19
      vertex 55.9603 12.5155 19
    endloop
  endfacet
  facet normal 0.553936 0.440279 0.706618
    outer loop
      vertex 56.8618 11.3813 19
      vertex 55.5134 12.119 19.5974
      vertex 57.4906 9.63139 19.5974
    endloop
  endfacet
  facet normal 0.554083 0.44029 0.706496
    outer loop
      vertex 57.4906 9.63139 19.5974
      vertex 57.979 9.97536 19
      vertex 56.8618 11.3813 19
    endloop
  endfacet
  facet normal 0.603164 0.370415 0.706389
    outer loop
      vertex 57.4906 9.63139 19.5974
      vertex 58.6888 8.81956 19
      vertex 57.979 9.97536 19
    endloop
  endfacet
  facet normal 0.603168 0.370428 0.706379
    outer loop
      vertex 58.6888 8.81956 19
      vertex 57.4906 9.63139 19.5974
      vertex 59.0475 7.09629 19.5974
    endloop
  endfacet
  facet normal 0.603211 0.370425 0.706344
    outer loop
      vertex 59.0475 7.09629 19.5974
      vertex 59.5766 7.37384 19
      vertex 58.6888 8.81956 19
    endloop
  endfacet
  facet normal 0.630891 0.319318 0.707116
    outer loop
      vertex 59.0475 7.09629 19.5974
      vertex 59.697 7.13596 19
      vertex 59.5766 7.37384 19
    endloop
  endfacet
  facet normal 0.630883 0.319347 0.707109
    outer loop
      vertex 59.697 7.13596 19
      vertex 59.0475 7.09629 19.5974
      vertex 59.3116 6.57455 19.5974
    endloop
  endfacet
  facet normal 0.630908 0.319319 0.707099
    outer loop
      vertex 59.8486 6.83643 19
      vertex 59.697 7.13596 19
      vertex 59.3116 6.57455 19.5974
    endloop
  endfacet
  facet normal 0.655477 0.267236 0.706353
    outer loop
      vertex 59.3116 6.57455 19.5974
      vertex 60.266 5.81263 19
      vertex 59.8486 6.83643 19
    endloop
  endfacet
  facet normal 0.655488 0.267266 0.706331
    outer loop
      vertex 60.266 5.81263 19
      vertex 59.3116 6.57455 19.5974
      vertex 60.2272 4.32898 19.5974
    endloop
  endfacet
  facet normal 0.655622 0.26722 0.706224
    outer loop
      vertex 60.795 4.51473 19
      vertex 60.266 5.81263 19
      vertex 60.2272 4.32898 19.5974
    endloop
  endfacet
  facet normal 0.687844 0.168273 0.706084
    outer loop
      vertex 60.2272 4.32898 19.5974
      vertex 61.0446 3.49445 19
      vertex 60.795 4.51473 19
    endloop
  endfacet
  facet normal 0.687832 0.16825 0.706101
    outer loop
      vertex 61.0446 3.49445 19
      vertex 60.2272 4.32898 19.5974
      vertex 60.7746 2.09112 19.5974
    endloop
  endfacet
  facet normal 0.687948 0.168186 0.706003
    outer loop
      vertex 61.3645 2.18593 19
      vertex 61.0446 3.49445 19
      vertex 60.7746 2.09112 19.5974
    endloop
  endfacet
  facet normal 0.699064 0.106155 0.707135
    outer loop
      vertex 60.7746 2.09112 19.5974
      vertex 61.3815 2.07398 19
      vertex 61.3645 2.18593 19
    endloop
  endfacet
  facet normal 0.699079 0.105908 0.707158
    outer loop
      vertex 61.3815 2.07398 19
      vertex 60.7746 2.09112 19.5974
      vertex 60.8118 1.84557 19.5974
    endloop
  endfacet
  facet normal 0.699203 0.105456 0.707103
    outer loop
      vertex 61.4033 1.92944 19
      vertex 61.3815 2.07398 19
      vertex 60.8118 1.84557 19.5974
    endloop
  endfacet
  facet normal 0.706959 0.042661 0.705966
    outer loop
      vertex 60.8118 1.84557 19.5974
      vertex 61.4603 0.984862 19
      vertex 61.4033 1.92944 19
    endloop
  endfacet
  facet normal 0.706954 0.042653 0.705972
    outer loop
      vertex 61.4603 0.984862 19
      vertex 60.8118 1.84557 19.5974
      vertex 60.9368 -0.226246 19.5974
    endloop
  endfacet
  facet normal 0.707069 0.0425493 0.705863
    outer loop
      vertex 61.534 -0.239859 19
      vertex 61.4603 0.984862 19
      vertex 60.9368 -0.226246 19.5974
    endloop
  endfacet
  facet normal 0.704398 -0.0746879 0.705864
    outer loop
      vertex 60.9368 -0.226246 19.5974
      vertex 61.4318 -1.20373 19
      vertex 61.534 -0.239859 19
    endloop
  endfacet
  facet normal 0.704359 -0.0747296 0.7059
    outer loop
      vertex 61.4318 -1.20373 19
      vertex 60.9368 -0.226246 19.5974
      vertex 60.7125 -2.34037 19.5974
    endloop
  endfacet
  facet normal 0.704271 -0.0746226 0.705998
    outer loop
      vertex 61.2997 -2.45046 19
      vertex 61.4318 -1.20373 19
      vertex 60.7125 -2.34037 19.5974
    endloop
  endfacet
  facet normal 0.691468 -0.148377 0.707005
    outer loop
      vertex 60.7125 -2.34037 19.5974
      vertex 61.2288 -2.78087 19
      vertex 61.2997 -2.45046 19
    endloop
  endfacet
  facet normal 0.691428 -0.148454 0.707028
    outer loop
      vertex 61.2288 -2.78087 19
      vertex 60.7125 -2.34037 19.5974
      vertex 60.5569 -3.06508 19.5974
    endloop
  endfacet
  facet normal 0.691435 -0.14851 0.707009
    outer loop
      vertex 61.1376 -3.20548 19
      vertex 61.2288 -2.78087 19
      vertex 60.5569 -3.06508 19.5974
    endloop
  endfacet
  facet normal 0.673951 -0.217142 0.706144
    outer loop
      vertex 60.5569 -3.06508 19.5974
      vertex 60.8141 -4.20954 19
      vertex 61.1376 -3.20548 19
    endloop
  endfacet
  facet normal 0.673968 -0.217132 0.706131
    outer loop
      vertex 60.8141 -4.20954 19
      vertex 60.5569 -3.06508 19.5974
      vertex 59.8474 -5.26734 19.5974
    endloop
  endfacet
  facet normal 0.673892 -0.216999 0.706244
    outer loop
      vertex 60.4018 -5.48994 19
      vertex 60.8141 -4.20954 19
      vertex 59.8474 -5.26734 19.5974
    endloop
  endfacet
  facet normal 0.638737 -0.30498 0.706401
    outer loop
      vertex 59.8474 -5.26734 19.5974
      vertex 59.9341 -6.46947 19
      vertex 60.4018 -5.48994 19
    endloop
  endfacet
  facet normal 0.638718 -0.304988 0.706415
    outer loop
      vertex 59.9341 -6.46947 19
      vertex 59.8474 -5.26734 19.5974
      vertex 58.8215 -7.41582 19.5974
    endloop
  endfacet
  facet normal 0.638692 -0.304927 0.706464
    outer loop
      vertex 59.3442 -7.70506 19
      vertex 59.9341 -6.46947 19
      vertex 58.8215 -7.41582 19.5974
    endloop
  endfacet
  facet normal 0.615516 -0.348094 0.707086
    outer loop
      vertex 58.8215 -7.41582 19.5974
      vertex 59.2535 -7.86544 19
      vertex 59.3442 -7.70506 19
    endloop
  endfacet
  facet normal 0.615457 -0.34817 0.7071
    outer loop
      vertex 59.2535 -7.86544 19
      vertex 58.8215 -7.41582 19.5974
      vertex 58.6225 -7.76759 19.5974
    endloop
  endfacet
  facet normal 0.615503 -0.348034 0.707127
    outer loop
      vertex 59.1398 -8.06652 19
      vertex 59.2535 -7.86544 19
      vertex 58.6225 -7.76759 19.5974
    endloop
  endfacet
  facet normal 0.589738 -0.3913 0.706466
    outer loop
      vertex 58.6225 -7.76759 19.5974
      vertex 58.4073 -9.17049 19
      vertex 59.1398 -8.06652 19
    endloop
  endfacet
  facet normal 0.58975 -0.391298 0.706457
    outer loop
      vertex 58.4073 -9.17049 19
      vertex 58.6225 -7.76759 19.5974
      vertex 57.0159 -10.189 19.5974
    endloop
  endfacet
  facet normal 0.589714 -0.391198 0.706542
    outer loop
      vertex 57.4939 -10.5474 19
      vertex 58.4073 -9.17049 19
      vertex 57.0159 -10.189 19.5974
    endloop
  endfacet
  facet normal 0.543247 -0.453351 0.706651
    outer loop
      vertex 57.0159 -10.189 19.5974
      vertex 56.6164 -11.5989 19
      vertex 57.4939 -10.5474 19
    endloop
  endfacet
  facet normal 0.543236 -0.453352 0.706659
    outer loop
      vertex 56.6164 -11.5989 19
      vertex 57.0159 -10.189 19.5974
      vertex 55.0912 -12.4953 19.5974
    endloop
  endfacet
  facet normal 0.543221 -0.453297 0.706706
    outer loop
      vertex 55.5306 -12.9001 19
      vertex 56.6164 -11.5989 19
      vertex 55.0912 -12.4953 19.5974
    endloop
  endfacet
  facet normal 0.507457 -0.492568 0.707011
    outer loop
      vertex 55.0912 -12.4953 19.5974
      vertex 54.9715 -13.4761 19
      vertex 55.5306 -12.9001 19
    endloop
  endfacet
  facet normal 0.507434 -0.492573 0.707024
    outer loop
      vertex 54.9715 -13.4761 19
      vertex 55.0912 -12.4953 19.5974
      vertex 53.8648 -13.7587 19.5974
    endloop
  endfacet
  facet normal 0.507435 -0.492559 0.707033
    outer loop
      vertex 54.2828 -14.1856 19
      vertex 54.9715 -13.4761 19
      vertex 53.8648 -13.7587 19.5974
    endloop
  endfacet
  facet normal 0.470197 -0.528613 0.706741
    outer loop
      vertex 53.8648 -13.7587 19.5974
      vertex 53.0467 -15.2851 19
      vertex 54.2828 -14.1856 19
    endloop
  endfacet
  facet normal 0.470224 -0.528619 0.706719
    outer loop
      vertex 53.0467 -15.2851 19
      vertex 53.8648 -13.7587 19.5974
      vertex 51.1536 -16.1704 19.5974
    endloop
  endfacet
  facet normal 0.470219 -0.528596 0.706739
    outer loop
      vertex 51.53 -16.6343 19
      vertex 53.0467 -15.2851 19
      vertex 51.1536 -16.1704 19.5974
    endloop
  endfacet
  facet normal 0.421775 -0.567952 0.706778
    outer loop
      vertex 51.1536 -16.1704 19.5974
      vertex 50.1674 -17.6462 19
      vertex 51.53 -16.6343 19
    endloop
  endfacet
  facet normal 0.421755 -0.567946 0.706796
    outer loop
      vertex 50.1674 -17.6462 19
      vertex 51.1536 -16.1704 19.5974
      vertex 48.1649 -18.3898 19.5974
    endloop
  endfacet
  facet normal 0.421748 -0.567886 0.706848
    outer loop
      vertex 48.5011 -18.8837 19
      vertex 50.1674 -17.6462 19
      vertex 48.1649 -18.3898 19.5974
    endloop
  endfacet
  facet normal 0.374416 -0.600128 0.706866
    outer loop
      vertex 48.1649 -18.3898 19.5974
      vertex 47.0212 -19.807 19
      vertex 48.5011 -18.8837 19
    endloop
  endfacet
  facet normal 0.374426 -0.600132 0.706857
    outer loop
      vertex 47.0212 -19.807 19
      vertex 48.1649 -18.3898 19.5974
      vertex 44.9189 -20.415 19.5974
    endloop
  endfacet
  facet normal 0.374426 -0.600118 0.706869
    outer loop
      vertex 45.2152 -20.9338 19
      vertex 47.0212 -19.807 19
      vertex 44.9189 -20.415 19.5974
    endloop
  endfacet
  facet normal 0.32982 -0.625708 0.7069
    outer loop
      vertex 42.1608 -22.5438 19
      vertex 43.8388 -21.6593 19
      vertex 41.9001 -22.0063 19.5974
    endloop
  endfacet
  facet normal 0.329797 -0.625682 0.706934
    outer loop
      vertex 44.9189 -20.415 19.5974
      vertex 43.8388 -21.6593 19
      vertex 45.2152 -20.9338 19
    endloop
  endfacet
  facet normal 0.329822 -0.625693 0.706913
    outer loop
      vertex 43.8388 -21.6593 19
      vertex 44.9189 -20.415 19.5974
      vertex 41.9001 -22.0063 19.5974
    endloop
  endfacet
  facet normal 0.12077 -0.229108 0.96588
    outer loop
      vertex 41.9001 -22.0063 19.5974
      vertex 44.9189 -20.415 19.5974
      vertex 41.2455 -20.6566 19.9994
    endloop
  endfacet
  facet normal 0.12077 -0.229113 0.965879
    outer loop
      vertex 44.9189 -20.415 19.5974
      vertex 44.175 -19.1124 19.9994
      vertex 41.2455 -20.6566 19.9994
    endloop
  endfacet
  facet normal 0.103097 -0.237673 0.965858
    outer loop
      vertex 41.9001 -22.0063 19.5974
      vertex 41.2455 -20.6566 19.9994
      vertex 37.3919 -22.3282 19.9994
    endloop
  endfacet
  facet normal 0.103098 -0.237683 0.965856
    outer loop
      vertex 37.9297 -23.7285 19.5974
      vertex 41.9001 -22.0063 19.5974
      vertex 37.3919 -22.3282 19.9994
    endloop
  endfacet
  facet normal 0.281515 -0.649006 0.706782
    outer loop
      vertex 41.9001 -22.0063 19.5974
      vertex 40.3506 -23.329 19
      vertex 42.1608 -22.5438 19
    endloop
  endfacet
  facet normal 0.281511 -0.649003 0.706786
    outer loop
      vertex 40.3506 -23.329 19
      vertex 41.9001 -22.0063 19.5974
      vertex 37.9297 -23.7285 19.5974
    endloop
  endfacet
  facet normal 0.281515 -0.648929 0.706852
    outer loop
      vertex 38.1439 -24.2863 19
      vertex 40.3506 -23.329 19
      vertex 37.9297 -23.7285 19.5974
    endloop
  endfacet
  facet normal 0.0596757 -0.252145 0.965848
    outer loop
      vertex 33.8813 -25.0851 19.5974
      vertex 33.4682 -23.643 19.9994
      vertex 29.5142 -24.5788 19.9994
    endloop
  endfacet
  facet normal 0.0596705 -0.252182 0.965838
    outer loop
      vertex 29.7886 -26.0535 19.5974
      vertex 33.8813 -25.0851 19.5974
      vertex 29.5142 -24.5788 19.9994
    endloop
  endfacet
  facet normal 0.162897 -0.688486 0.706719
    outer loop
      vertex 33.8813 -25.0851 19.5974
      vertex 32.1798 -26.1009 19
      vertex 34.0458 -25.6594 19
    endloop
  endfacet
  facet normal 0.16291 -0.688498 0.706704
    outer loop
      vertex 32.1798 -26.1009 19
      vertex 33.8813 -25.0851 19.5974
      vertex 29.7886 -26.0535 19.5974
    endloop
  endfacet
  facet normal 0.162905 -0.68852 0.706684
    outer loop
      vertex 29.8979 -26.6408 19
      vertex 32.1798 -26.1009 19
      vertex 29.7886 -26.0535 19.5974
    endloop
  endfacet
  facet normal 0.0823196 -0.245663 0.965854
    outer loop
      vertex 37.9297 -23.7285 19.5974
      vertex 37.3919 -22.3282 19.9994
      vertex 33.4682 -23.643 19.9994
    endloop
  endfacet
  facet normal 0.0823197 -0.245661 0.965854
    outer loop
      vertex 33.8813 -25.0851 19.5974
      vertex 37.9297 -23.7285 19.5974
      vertex 33.4682 -23.643 19.9994
    endloop
  endfacet
  facet normal 0.224758 -0.670714 0.706842
    outer loop
      vertex 37.9297 -23.7285 19.5974
      vertex 36.2982 -24.9048 19
      vertex 38.1439 -24.2863 19
    endloop
  endfacet
  facet normal 0.224751 -0.670708 0.70685
    outer loop
      vertex 36.2982 -24.9048 19
      vertex 37.9297 -23.7285 19.5974
      vertex 33.8813 -25.0851 19.5974
    endloop
  endfacet
  facet normal 0.224736 -0.670812 0.706757
    outer loop
      vertex 34.0458 -25.6594 19
      vertex 36.2982 -24.9048 19
      vertex 33.8813 -25.0851 19.5974
    endloop
  endfacet
  facet normal 0.0187318 -0.258399 0.965857
    outer loop
      vertex 26.6373 -26.5234 19.5974
      vertex 26.4674 -25.0331 19.9994
      vertex 22.4366 -25.3253 19.9994
    endloop
  endfacet
  facet normal 0.0187384 -0.258378 0.965862
    outer loop
      vertex 22.4869 -26.8244 19.5974
      vertex 26.6373 -26.5234 19.5974
      vertex 22.4366 -25.3253 19.9994
    endloop
  endfacet
  facet normal 0.0511938 -0.705527 0.706832
    outer loop
      vertex 26.6373 -26.5234 19.5974
      vertex 24.8127 -27.2543 19
      vertex 26.7049 -27.117 19
    endloop
  endfacet
  facet normal 0.0511641 -0.705487 0.706874
    outer loop
      vertex 24.8127 -27.2543 19
      vertex 26.6373 -26.5234 19.5974
      vertex 22.4869 -26.8244 19.5974
    endloop
  endfacet
  facet normal 0.0511598 -0.705497 0.706864
    outer loop
      vertex 22.507 -27.4215 19
      vertex 24.8127 -27.2543 19
      vertex 22.4869 -26.8244 19.5974
    endloop
  endfacet
  facet normal 0.0381993 -0.256187 0.965872
    outer loop
      vertex 29.7886 -26.0535 19.5974
      vertex 29.5142 -24.5788 19.9994
      vertex 26.4674 -25.0331 19.9994
    endloop
  endfacet
  facet normal 0.0382003 -0.256184 0.965873
    outer loop
      vertex 26.6373 -26.5234 19.5974
      vertex 29.7886 -26.0535 19.5974
      vertex 26.4674 -25.0331 19.9994
    endloop
  endfacet
  facet normal 0.104354 -0.699604 0.706869
    outer loop
      vertex 29.7886 -26.0535 19.5974
      vertex 28.4612 -26.8551 19
      vertex 29.8979 -26.6408 19
    endloop
  endfacet
  facet normal 0.104315 -0.69957 0.706909
    outer loop
      vertex 28.4612 -26.8551 19
      vertex 29.7886 -26.0535 19.5974
      vertex 26.6373 -26.5234 19.5974
    endloop
  endfacet
  facet normal 0.104319 -0.699562 0.706916
    outer loop
      vertex 26.7049 -27.117 19
      vertex 28.4612 -26.8551 19
      vertex 26.6373 -26.5234 19.5974
    endloop
  endfacet
  facet normal -0.0168729 -0.258417 0.965886
    outer loop
      vertex 18.207 -26.816 19.5974
      vertex 18.2599 -25.3169 19.9994
      vertex 13.9256 -25.0339 19.9994
    endloop
  endfacet
  facet normal -0.0168654 -0.258401 0.965891
    outer loop
      vertex 18.207 -26.816 19.5974
      vertex 13.9256 -25.0339 19.9994
      vertex 13.7868 -26.5275 19.5974
    endloop
  endfacet
  facet normal -0.0460488 -0.70572 0.706992
    outer loop
      vertex 18.207 -26.816 19.5974
      vertex 16.1706 -27.2816 19
      vertex 18.1859 -27.4131 19
    endloop
  endfacet
  facet normal -0.0460599 -0.705699 0.707013
    outer loop
      vertex 16.1706 -27.2816 19
      vertex 18.207 -26.816 19.5974
      vertex 13.7868 -26.5275 19.5974
    endloop
  endfacet
  facet normal -0.0460632 -0.705704 0.707007
    outer loop
      vertex 16.1706 -27.2816 19
      vertex 13.7868 -26.5275 19.5974
      vertex 13.7316 -27.1224 19
    endloop
  endfacet
  facet normal -0.0810829 -0.70245 0.7071
    outer loop
      vertex 11.6523 -26.8823 19
      vertex 9.22617 -26.0009 19.5974
      vertex 9.14686 -26.5931 19
    endloop
  endfacet
  facet normal -0.0811182 -0.702495 0.707051
    outer loop
      vertex 13.7868 -26.5275 19.5974
      vertex 11.6523 -26.8823 19
      vertex 13.7316 -27.1224 19
    endloop
  endfacet
  facet normal -0.0811154 -0.702502 0.707044
    outer loop
      vertex 11.6523 -26.8823 19
      vertex 13.7868 -26.5275 19.5974
      vertex 9.22617 -26.0009 19.5974
    endloop
  endfacet
  facet normal -0.0296998 -0.257216 0.965898
    outer loop
      vertex 13.7868 -26.5275 19.5974
      vertex 9.4253 -24.5143 19.9994
      vertex 9.22617 -26.0009 19.5974
    endloop
  endfacet
  facet normal -0.0296972 -0.25721 0.965899
    outer loop
      vertex 13.7868 -26.5275 19.5974
      vertex 13.9256 -25.0339 19.9994
      vertex 9.4253 -24.5143 19.9994
    endloop
  endfacet
  facet normal -0.000520942 -0.259026 0.96587
    outer loop
      vertex 22.4869 -26.8244 19.5974
      vertex 22.4366 -25.3253 19.9994
      vertex 18.2599 -25.3169 19.9994
    endloop
  endfacet
  facet normal -0.000508316 -0.258993 0.965879
    outer loop
      vertex 22.4869 -26.8244 19.5974
      vertex 18.2599 -25.3169 19.9994
      vertex 18.207 -26.816 19.5974
    endloop
  endfacet
  facet normal -0.00138817 -0.707289 0.706923
    outer loop
      vertex 20.5557 -27.4177 19
      vertex 22.4869 -26.8244 19.5974
      vertex 18.207 -26.816 19.5974
    endloop
  endfacet
  facet normal -0.00137742 -0.707307 0.706905
    outer loop
      vertex 22.4869 -26.8244 19.5974
      vertex 20.5557 -27.4177 19
      vertex 22.507 -27.4215 19
    endloop
  endfacet
  facet normal -0.00137286 -0.707259 0.706953
    outer loop
      vertex 20.5557 -27.4177 19
      vertex 18.207 -26.816 19.5974
      vertex 18.1859 -27.4131 19
    endloop
  endfacet
  facet normal -0.229298 0.508193 0.830158
    outer loop
      vertex -83.954 -0.112951 19.6076
      vertex -81.338 1.08406 19.5974
      vertex -84.7685 -0.114051 19.3833
    endloop
  endfacet
  facet normal -0.100863 0.239904 0.965543
    outer loop
      vertex -80.3252 -0.108058 19.9994
      vertex -72.105 4.96591 19.5974
      vertex -81.338 1.08406 19.5974
    endloop
  endfacet
  facet normal -0.165511 0.369506 0.914369
    outer loop
      vertex -82.5687 -0.111084 19.8576
      vertex -81.338 1.08406 19.5974
      vertex -83.954 -0.112951 19.6076
    endloop
  endfacet
  facet normal -0.0611331 0.272033 0.960344
    outer loop
      vertex -80.3277 -0.108061 19.9994
      vertex -81.338 1.08406 19.5974
      vertex -82.5687 -0.111084 19.8576
    endloop
  endfacet
  facet normal -0.000383093 0.319244 0.947673
    outer loop
      vertex -80.3277 -0.108061 19.9994
      vertex -80.3252 -0.108058 19.9994
      vertex -81.338 1.08406 19.5974
    endloop
  endfacet
  facet normal -0.316546 0.701849 0.638128
    outer loop
      vertex -85.1433 -0.114555 19.255
      vertex -84.0093 0.628747 19
      vertex -85.6589 -0.115251 19
    endloop
  endfacet
  facet normal -0.251138 0.634077 0.731352
    outer loop
      vertex -84.0093 0.628747 19
      vertex -84.7685 -0.114051 19.3833
      vertex -83.4738 0.840842 19
    endloop
  endfacet
  facet normal -0.251191 0.634108 0.731307
    outer loop
      vertex -84.7685 -0.114051 19.3833
      vertex -84.0093 0.628747 19
      vertex -85.1433 -0.114555 19.255
    endloop
  endfacet
  facet normal -0.100137 0.238756 0.965903
    outer loop
      vertex -71.5493 3.57266 19.9994
      vertex -72.105 4.96591 19.5974
      vertex -80.3252 -0.108058 19.9994
    endloop
  endfacet
  facet normal -0.0930911 0.241568 0.965908
    outer loop
      vertex -71.5493 3.57266 19.9994
      vertex -65.3469 5.96283 19.9994
      vertex -72.105 4.96591 19.5974
    endloop
  endfacet
  facet normal -0.0930892 0.241554 0.965912
    outer loop
      vertex -65.3469 5.96283 19.9994
      vertex -65.8703 7.36862 19.5974
      vertex -72.105 4.96591 19.5974
    endloop
  endfacet
  facet normal -0.0861476 0.244137 0.965907
    outer loop
      vertex -65.3469 5.96283 19.9994
      vertex -55.3878 9.47706 19.9994
      vertex -65.8703 7.36862 19.5974
    endloop
  endfacet
  facet normal -0.0861491 0.244145 0.965905
    outer loop
      vertex -55.3878 9.47706 19.9994
      vertex -55.8633 10.8997 19.5974
      vertex -65.8703 7.36862 19.5974
    endloop
  endfacet
  facet normal -0.0780886 0.246839 0.965905
    outer loop
      vertex -55.3878 9.47706 19.9994
      vertex -45.1656 12.7109 19.9994
      vertex -55.8633 10.8997 19.5974
    endloop
  endfacet
  facet normal -0.0780885 0.246838 0.965905
    outer loop
      vertex -45.1656 12.7109 19.9994
      vertex -45.5954 14.148 19.5974
      vertex -55.8633 10.8997 19.5974
    endloop
  endfacet
  facet normal -0.0725241 0.248504 0.965912
    outer loop
      vertex -45.1656 12.7109 19.9994
      vertex -40.7036 14.0131 19.9994
      vertex -45.5954 14.148 19.5974
    endloop
  endfacet
  facet normal -0.0725237 0.248512 0.96591
    outer loop
      vertex -40.7036 14.0131 19.9994
      vertex -41.1144 15.4557 19.5974
      vertex -45.5954 14.148 19.5974
    endloop
  endfacet
  facet normal -0.0668667 0.250121 0.965903
    outer loop
      vertex -40.7036 14.0131 19.9994
      vertex -29.4968 17.0091 19.9994
      vertex -41.1144 15.4557 19.5974
    endloop
  endfacet
  facet normal -0.0668659 0.250114 0.965905
    outer loop
      vertex -29.4968 17.0091 19.9994
      vertex -29.861 18.4642 19.5974
      vertex -41.1144 15.4557 19.5974
    endloop
  endfacet
  facet normal -0.0589043 0.252107 0.965905
    outer loop
      vertex -29.4968 17.0091 19.9994
      vertex -18.1297 19.665 19.9994
      vertex -29.861 18.4642 19.5974
    endloop
  endfacet
  facet normal -0.0589032 0.252095 0.965908
    outer loop
      vertex -18.1297 19.665 19.9994
      vertex -18.448 21.1309 19.5974
      vertex -29.861 18.4642 19.5974
    endloop
  endfacet
  facet normal -0.0533467 0.253303 0.965915
    outer loop
      vertex -18.1297 19.665 19.9994
      vertex -13.5975 20.6195 19.9994
      vertex -18.448 21.1309 19.5974
    endloop
  endfacet
  facet normal -0.0533452 0.253316 0.965912
    outer loop
      vertex -13.5975 20.6195 19.9994
      vertex -13.8974 22.0892 19.5974
      vertex -18.448 21.1309 19.5974
    endloop
  endfacet
  facet normal -0.272097 0.652721 0.707049
    outer loop
      vertex -83.4738 0.840842 19
      vertex -81.338 1.08406 19.5974
      vertex -81.5801 1.63026 19
    endloop
  endfacet
  facet normal -0.272095 0.652733 0.707039
    outer loop
      vertex -81.338 1.08406 19.5974
      vertex -83.4738 0.840842 19
      vertex -84.7685 -0.114051 19.3833
    endloop
  endfacet
  facet normal -0.274066 0.651867 0.707077
    outer loop
      vertex -77.3706 3.40008 19
      vertex -81.338 1.08406 19.5974
      vertex -72.105 4.96591 19.5974
    endloop
  endfacet
  facet normal -0.274069 0.651871 0.707071
    outer loop
      vertex -81.338 1.08406 19.5974
      vertex -77.3706 3.40008 19
      vertex -81.5801 1.63026 19
    endloop
  endfacet
  facet normal -0.274067 0.651875 0.707068
    outer loop
      vertex -72.105 4.96591 19.5974
      vertex -72.3263 5.52085 19
      vertex -77.3706 3.40008 19
    endloop
  endfacet
  facet normal -0.254281 0.659825 0.707087
    outer loop
      vertex -69.4837 6.61629 19
      vertex -72.105 4.96591 19.5974
      vertex -65.8703 7.36862 19.5974
    endloop
  endfacet
  facet normal -0.254268 0.65981 0.707105
    outer loop
      vertex -72.105 4.96591 19.5974
      vertex -69.4837 6.61629 19
      vertex -72.3263 5.52085 19
    endloop
  endfacet
  facet normal -0.254281 0.659819 0.707093
    outer loop
      vertex -65.8703 7.36862 19.5974
      vertex -66.0788 7.92847 19
      vertex -69.4837 6.61629 19
    endloop
  endfacet
  facet normal -0.235307 0.666855 0.707061
    outer loop
      vertex -61.5164 9.53836 19
      vertex -65.8703 7.36862 19.5974
      vertex -55.8633 10.8997 19.5974
    endloop
  endfacet
  facet normal -0.235306 0.666853 0.707063
    outer loop
      vertex -65.8703 7.36862 19.5974
      vertex -61.5164 9.53836 19
      vertex -66.0788 7.92847 19
    endloop
  endfacet
  facet normal -0.235301 0.666811 0.707104
    outer loop
      vertex -55.8633 10.8997 19.5974
      vertex -56.0526 11.4664 19
      vertex -61.5164 9.53836 19
    endloop
  endfacet
  facet normal -0.21327 0.674147 0.707137
    outer loop
      vertex -51.3713 12.9474 19
      vertex -55.8633 10.8997 19.5974
      vertex -45.5954 14.148 19.5974
    endloop
  endfacet
  facet normal -0.213284 0.674171 0.707109
    outer loop
      vertex -55.8633 10.8997 19.5974
      vertex -51.3713 12.9474 19
      vertex -56.0526 11.4664 19
    endloop
  endfacet
  facet normal -0.21328 0.674246 0.707038
    outer loop
      vertex -45.5954 14.148 19.5974
      vertex -45.7666 14.7203 19
      vertex -51.3713 12.9474 19
    endloop
  endfacet
  facet normal -0.198105 0.678831 0.707067
    outer loop
      vertex -43.7236 15.3165 19
      vertex -45.5954 14.148 19.5974
      vertex -41.1144 15.4557 19.5974
    endloop
  endfacet
  facet normal -0.198099 0.678825 0.707074
    outer loop
      vertex -45.5954 14.148 19.5974
      vertex -43.7236 15.3165 19
      vertex -45.7666 14.7203 19
    endloop
  endfacet
  facet normal -0.198114 0.678772 0.707121
    outer loop
      vertex -41.1144 15.4557 19.5974
      vertex -41.278 16.0303 19
      vertex -43.7236 15.3165 19
    endloop
  endfacet
  facet normal -0.182639 0.683167 0.707054
    outer loop
      vertex -36.1473 17.4019 19
      vertex -41.1144 15.4557 19.5974
      vertex -29.861 18.4642 19.5974
    endloop
  endfacet
  facet normal -0.182626 0.683142 0.707082
    outer loop
      vertex -41.1144 15.4557 19.5974
      vertex -36.1473 17.4019 19
      vertex -41.278 16.0303 19
    endloop
  endfacet
  facet normal -0.182633 0.683092 0.707128
    outer loop
      vertex -29.861 18.4642 19.5974
      vertex -30.0062 19.0438 19
      vertex -36.1473 17.4019 19
    endloop
  endfacet
  facet normal -0.160884 0.688553 0.707115
    outer loop
      vertex -24.8027 20.2596 19
      vertex -29.861 18.4642 19.5974
      vertex -18.448 21.1309 19.5974
    endloop
  endfacet
  facet normal -0.160878 0.688541 0.707127
    outer loop
      vertex -29.861 18.4642 19.5974
      vertex -24.8027 20.2596 19
      vertex -30.0062 19.0438 19
    endloop
  endfacet
  facet normal -0.160883 0.68854 0.707128
    outer loop
      vertex -18.448 21.1309 19.5974
      vertex -18.5748 21.7148 19
      vertex -24.8027 20.2596 19
    endloop
  endfacet
  facet normal -0.145701 0.691878 0.707161
    outer loop
      vertex -16.5001 22.1517 19
      vertex -18.448 21.1309 19.5974
      vertex -13.8974 22.0892 19.5974
    endloop
  endfacet
  facet normal -0.145698 0.691875 0.707165
    outer loop
      vertex -18.448 21.1309 19.5974
      vertex -16.5001 22.1517 19
      vertex -18.5748 21.7148 19
    endloop
  endfacet
  facet normal -0.145696 0.691897 0.707143
    outer loop
      vertex -13.8974 22.0892 19.5974
      vertex -14.0169 22.6746 19
      vertex -16.5001 22.1517 19
    endloop
  endfacet
  facet normal -0.130295 0.69503 0.707076
    outer loop
      vertex -2.30539 24.2624 19.5974
      vertex -2.40596 24.8513 19
      vertex -8.7319 23.6654 19
    endloop
  endfacet
  facet normal -0.130295 0.695001 0.707104
    outer loop
      vertex -8.7319 23.6654 19
      vertex -13.8974 22.0892 19.5974
      vertex -2.30539 24.2624 19.5974
    endloop
  endfacet
  facet normal -0.130295 0.695001 0.707104
    outer loop
      vertex -13.8974 22.0892 19.5974
      vertex -8.7319 23.6654 19
      vertex -14.0169 22.6746 19
    endloop
  endfacet
  facet normal -0.047705 0.254462 0.965905
    outer loop
      vertex -2.05287 22.7838 19.9994
      vertex -2.30539 24.2624 19.5974
      vertex -13.8974 22.0892 19.5974
    endloop
  endfacet
  facet normal -0.0477051 0.254465 0.965905
    outer loop
      vertex -13.5975 20.6195 19.9994
      vertex -2.05287 22.7838 19.9994
      vertex -13.8974 22.0892 19.5974
    endloop
  endfacet
  facet normal -0.107552 0.698868 0.707118
    outer loop
      vertex 9.15601 26.0261 19.5974
      vertex 9.0751 26.6181 19
      vertex 2.81953 25.6554 19
    endloop
  endfacet
  facet normal -0.107551 0.698917 0.70707
    outer loop
      vertex 2.81953 25.6554 19
      vertex -2.30539 24.2624 19.5974
      vertex 9.15601 26.0261 19.5974
    endloop
  endfacet
  facet normal -0.107549 0.698913 0.707074
    outer loop
      vertex -2.30539 24.2624 19.5974
      vertex 2.81953 25.6554 19
      vertex -2.40596 24.8513 19
    endloop
  endfacet
  facet normal -0.0393759 0.255884 0.965905
    outer loop
      vertex 9.35914 24.5399 19.9994
      vertex 9.15601 26.0261 19.5974
      vertex -2.30539 24.2624 19.5974
    endloop
  endfacet
  facet normal -0.0393759 0.255884 0.965905
    outer loop
      vertex -2.05287 22.7838 19.9994
      vertex 9.35914 24.5399 19.9994
      vertex -2.30539 24.2624 19.5974
    endloop
  endfacet
  facet normal -0.21174 -0.599574 0.771801
    outer loop
      vertex -83.954 -0.112951 19.6076
      vertex -83.4713 -1.06555 19
      vertex -82.7605 -1.31657 19
    endloop
  endfacet
  facet normal -0.211733 -0.599572 0.771805
    outer loop
      vertex -83.4713 -1.06555 19
      vertex -83.954 -0.112951 19.6076
      vertex -84.7685 -0.114051 19.3833
    endloop
  endfacet
  facet normal -0.24948 -0.634736 0.731348
    outer loop
      vertex -84.7685 -0.114051 19.3833
      vertex -84.0073 -0.854878 19
      vertex -83.4713 -1.06555 19
    endloop
  endfacet
  facet normal -0.249494 -0.634745 0.731336
    outer loop
      vertex -84.0073 -0.854878 19
      vertex -84.7685 -0.114051 19.3833
      vertex -85.1433 -0.114555 19.255
    endloop
  endfacet
  facet normal -0.314668 -0.702659 0.638164
    outer loop
      vertex -84.0073 -0.854878 19
      vertex -85.1433 -0.114555 19.255
      vertex -85.6589 -0.115251 19
    endloop
  endfacet
  facet normal -0.164519 -0.369886 0.914395
    outer loop
      vertex -81.3348 -1.30314 19.5974
      vertex -82.5687 -0.111084 19.8576
      vertex -83.954 -0.112951 19.6076
    endloop
  endfacet
  facet normal -0.0603999 -0.272146 0.960359
    outer loop
      vertex -81.3348 -1.30314 19.5974
      vertex -80.3277 -0.108061 19.9994
      vertex -82.5687 -0.111084 19.8576
    endloop
  endfacet
  facet normal -0.290224 -0.644791 0.707117
    outer loop
      vertex -81.3348 -1.30314 19.5974
      vertex -82.7605 -1.31657 19
      vertex -81.5754 -1.84999 19
    endloop
  endfacet
  facet normal -0.290233 -0.644764 0.707138
    outer loop
      vertex -82.7605 -1.31657 19
      vertex -81.3348 -1.30314 19.5974
      vertex -83.954 -0.112951 19.6076
    endloop
  endfacet
  facet normal -0.27231 -0.652615 0.707065
    outer loop
      vertex -76.5254 -3.95715 19
      vertex -81.3348 -1.30314 19.5974
      vertex -81.5754 -1.84999 19
    endloop
  endfacet
  facet normal -0.27231 -0.652615 0.707065
    outer loop
      vertex -72.0913 -5.16008 19.5974
      vertex -76.5254 -3.95715 19
      vertex -72.3111 -5.71561 19
    endloop
  endfacet
  facet normal -0.27231 -0.652616 0.707064
    outer loop
      vertex -76.5254 -3.95715 19
      vertex -72.0913 -5.16008 19.5974
      vertex -81.3348 -1.30314 19.5974
    endloop
  endfacet
  facet normal -0.252492 -0.660496 0.707102
    outer loop
      vertex -68.9026 -7.0186 19
      vertex -72.0913 -5.16008 19.5974
      vertex -72.3111 -5.71561 19
    endloop
  endfacet
  facet normal -0.252483 -0.660471 0.707128
    outer loop
      vertex -65.8502 -7.54586 19.5974
      vertex -68.9026 -7.0186 19
      vertex -66.0572 -8.10633 19
    endloop
  endfacet
  facet normal -0.252483 -0.660484 0.707116
    outer loop
      vertex -68.9026 -7.0186 19
      vertex -65.8502 -7.54586 19.5974
      vertex -72.0913 -5.16008 19.5974
    endloop
  endfacet
  facet normal -0.233489 -0.667454 0.707098
    outer loop
      vertex -60.5882 -10.0195 19
      vertex -65.8502 -7.54586 19.5974
      vertex -66.0572 -8.10633 19
    endloop
  endfacet
  facet normal -0.233523 -0.667494 0.707049
    outer loop
      vertex -55.8336 -11.0501 19.5974
      vertex -60.5882 -10.0195 19
      vertex -56.0214 -11.6172 19
    endloop
  endfacet
  facet normal -0.233525 -0.667514 0.70703
    outer loop
      vertex -60.5882 -10.0195 19
      vertex -55.8336 -11.0501 19.5974
      vertex -65.8502 -7.54586 19.5974
    endloop
  endfacet
  facet normal -0.211472 -0.6748 0.707053
    outer loop
      vertex -50.412 -13.3751 19
      vertex -55.8336 -11.0501 19.5974
      vertex -56.0214 -11.6172 19
    endloop
  endfacet
  facet normal -0.211456 -0.674748 0.707108
    outer loop
      vertex -45.5571 -14.2705 19.5974
      vertex -50.412 -13.3751 19
      vertex -45.7267 -14.8434 19
    endloop
  endfacet
  facet normal -0.211457 -0.674773 0.707083
    outer loop
      vertex -50.412 -13.3751 19
      vertex -45.5571 -14.2705 19.5974
      vertex -55.8336 -11.0501 19.5974
    endloop
  endfacet
  facet normal -0.196269 -0.679283 0.707145
    outer loop
      vertex -43.2791 -15.5506 19
      vertex -45.5571 -14.2705 19.5974
      vertex -45.7267 -14.8434 19
    endloop
  endfacet
  facet normal -0.196251 -0.679285 0.707147
    outer loop
      vertex -41.0725 -15.5662 19.5974
      vertex -43.2791 -15.5506 19
      vertex -41.2345 -16.1413 19
    endloop
  endfacet
  facet normal -0.196255 -0.679266 0.707164
    outer loop
      vertex -43.2791 -15.5506 19
      vertex -41.0725 -15.5662 19.5974
      vertex -45.5571 -14.2705 19.5974
    endloop
  endfacet
  facet normal -0.180782 -0.683604 0.707109
    outer loop
      vertex -35.089 -17.7665 19
      vertex -41.0725 -15.5662 19.5974
      vertex -41.2345 -16.1413 19
    endloop
  endfacet
  facet normal -0.180793 -0.68364 0.707072
    outer loop
      vertex -29.8111 -18.5444 19.5974
      vertex -35.089 -17.7665 19
      vertex -29.9547 -19.1243 19
    endloop
  endfacet
  facet normal -0.180793 -0.683627 0.707084
    outer loop
      vertex -35.089 -17.7665 19
      vertex -29.8111 -18.5444 19.5974
      vertex -41.0725 -15.5662 19.5974
    endloop
  endfacet
  facet normal -0.159036 -0.689027 0.707071
    outer loop
      vertex -23.7228 -20.5627 19
      vertex -29.8111 -18.5444 19.5974
      vertex -29.9547 -19.1243 19
    endloop
  endfacet
  facet normal -0.159023 -0.688998 0.707102
    outer loop
      vertex -18.391 -21.1802 19.5974
      vertex -23.7228 -20.5627 19
      vertex -18.5162 -21.7644 19
    endloop
  endfacet
  facet normal -0.159023 -0.688997 0.707103
    outer loop
      vertex -23.7228 -20.5627 19
      vertex -18.391 -21.1802 19.5974
      vertex -29.8111 -18.5444 19.5974
    endloop
  endfacet
  facet normal -0.143857 -0.692286 0.707139
    outer loop
      vertex -16.0316 -22.2807 19
      vertex -18.391 -21.1802 19.5974
      vertex -18.5162 -21.7644 19
    endloop
  endfacet
  facet normal -0.143836 -0.692301 0.707129
    outer loop
      vertex -13.8378 -22.1263 19.5974
      vertex -16.0316 -22.2807 19
      vertex -13.9557 -22.712 19
    endloop
  endfacet
  facet normal -0.143846 -0.692271 0.707156
    outer loop
      vertex -16.0316 -22.2807 19
      vertex -13.8378 -22.1263 19.5974
      vertex -18.391 -21.1802 19.5974
    endloop
  endfacet
  facet normal -0.128414 -0.695366 0.70709
    outer loop
      vertex -7.62661 -23.8808 19
      vertex -13.8378 -22.1263 19.5974
      vertex -13.9557 -22.712 19
    endloop
  endfacet
  facet normal -0.128428 -0.695361 0.707092
    outer loop
      vertex -2.23994 -24.2682 19.5974
      vertex -7.62661 -23.8808 19
      vertex -2.33891 -24.8574 19
    endloop
  endfacet
  facet normal -0.128427 -0.695399 0.707055
    outer loop
      vertex -7.62661 -23.8808 19
      vertex -2.23994 -24.2682 19.5974
      vertex -13.8378 -22.1263 19.5974
    endloop
  endfacet
  facet normal -0.105657 -0.699184 0.707091
    outer loop
      vertex 3.91923 -25.8031 19
      vertex -2.23994 -24.2682 19.5974
      vertex -2.33891 -24.8574 19
    endloop
  endfacet
  facet normal -0.105658 -0.699167 0.707108
    outer loop
      vertex 9.22617 -26.0009 19.5974
      vertex 3.91923 -25.8031 19
      vertex 9.14686 -26.5931 19
    endloop
  endfacet
  facet normal -0.105657 -0.699183 0.707092
    outer loop
      vertex 3.91923 -25.8031 19
      vertex 9.22617 -26.0009 19.5974
      vertex -2.23994 -24.2682 19.5974
    endloop
  endfacet
  facet normal 0.000382938 -0.319115 0.947716
    outer loop
      vertex -80.3252 -0.108058 19.9994
      vertex -80.3277 -0.108061 19.9994
      vertex -81.3348 -1.30314 19.5974
    endloop
  endfacet
  facet normal -0.100201 -0.240142 0.965553
    outer loop
      vertex -72.0913 -5.16008 19.5974
      vertex -80.3252 -0.108058 19.9994
      vertex -81.3348 -1.30314 19.5974
    endloop
  endfacet
  facet normal -0.0994908 -0.239012 0.965906
    outer loop
      vertex -72.0913 -5.16008 19.5974
      vertex -71.5394 -3.76523 19.9994
      vertex -80.3252 -0.108058 19.9994
    endloop
  endfacet
  facet normal -0.0924347 -0.241805 0.965912
    outer loop
      vertex -65.8502 -7.54586 19.5974
      vertex -71.5394 -3.76523 19.9994
      vertex -72.0913 -5.16008 19.5974
    endloop
  endfacet
  facet normal -0.0924432 -0.241818 0.965908
    outer loop
      vertex -65.8502 -7.54586 19.5974
      vertex -65.3306 -6.13876 19.9994
      vertex -71.5394 -3.76523 19.9994
    endloop
  endfacet
  facet normal -0.0854953 -0.244382 0.965903
    outer loop
      vertex -55.8336 -11.0501 19.5974
      vertex -65.3306 -6.13876 19.9994
      vertex -65.8502 -7.54586 19.5974
    endloop
  endfacet
  facet normal -0.0854915 -0.244375 0.965905
    outer loop
      vertex -55.8336 -11.0501 19.5974
      vertex -55.3621 -9.62612 19.9994
      vertex -65.3306 -6.13876 19.9994
    endloop
  endfacet
  facet normal -0.0774187 -0.247048 0.965906
    outer loop
      vertex -45.5571 -14.2705 19.5974
      vertex -55.3621 -9.62612 19.9994
      vertex -55.8336 -11.0501 19.5974
    endloop
  endfacet
  facet normal -0.0774145 -0.247039 0.965908
    outer loop
      vertex -45.5571 -14.2705 19.5974
      vertex -45.1311 -12.8322 19.9994
      vertex -55.3621 -9.62612 19.9994
    endloop
  endfacet
  facet normal -0.0718517 -0.248689 0.965915
    outer loop
      vertex -41.0725 -15.5662 19.5974
      vertex -45.1311 -12.8322 19.9994
      vertex -45.5571 -14.2705 19.5974
    endloop
  endfacet
  facet normal -0.0718561 -0.248695 0.965913
    outer loop
      vertex -41.0725 -15.5662 19.5974
      vertex -40.6657 -14.1224 19.9994
      vertex -45.1311 -12.8322 19.9994
    endloop
  endfacet
  facet normal -0.0661917 -0.250289 0.965906
    outer loop
      vertex -29.8111 -18.5444 19.5974
      vertex -40.6657 -14.1224 19.9994
      vertex -41.0725 -15.5662 19.5974
    endloop
  endfacet
  facet normal -0.0661915 -0.250289 0.965906
    outer loop
      vertex -29.8111 -18.5444 19.5974
      vertex -29.4508 -17.0883 19.9994
      vertex -40.6657 -14.1224 19.9994
    endloop
  endfacet
  facet normal -0.0582226 -0.252261 0.965906
    outer loop
      vertex -18.391 -21.1802 19.5974
      vertex -29.4508 -17.0883 19.9994
      vertex -29.8111 -18.5444 19.5974
    endloop
  endfacet
  facet normal -0.0582223 -0.25226 0.965906
    outer loop
      vertex -18.391 -21.1802 19.5974
      vertex -18.0766 -19.7135 19.9994
      vertex -29.4508 -17.0883 19.9994
    endloop
  endfacet
  facet normal -0.0526645 -0.253453 0.965913
    outer loop
      vertex -13.8378 -22.1263 19.5974
      vertex -18.0766 -19.7135 19.9994
      vertex -18.391 -21.1802 19.5974
    endloop
  endfacet
  facet normal -0.0526682 -0.253459 0.965911
    outer loop
      vertex -13.8378 -22.1263 19.5974
      vertex -13.5419 -20.6558 19.9994
      vertex -18.0766 -19.7135 19.9994
    endloop
  endfacet
  facet normal -0.0470186 -0.254594 0.965904
    outer loop
      vertex -2.23994 -24.2682 19.5974
      vertex -13.5419 -20.6558 19.9994
      vertex -13.8378 -22.1263 19.5974
    endloop
  endfacet
  facet normal -0.047021 -0.254602 0.965902
    outer loop
      vertex -2.23994 -24.2682 19.5974
      vertex -1.99141 -22.789 19.9994
      vertex -13.5419 -20.6558 19.9994
    endloop
  endfacet
  facet normal -0.0386857 -0.256002 0.965902
    outer loop
      vertex 9.22617 -26.0009 19.5974
      vertex -1.99141 -22.789 19.9994
      vertex -2.23994 -24.2682 19.5974
    endloop
  endfacet
  facet normal -0.0386887 -0.256012 0.965899
    outer loop
      vertex 9.22617 -26.0009 19.5974
      vertex 9.4253 -24.5143 19.9994
      vertex -1.99141 -22.789 19.9994
    endloop
  endfacet
  facet normal 0 0 -1
    outer loop
      vertex 61.4318 -1.20373 19
      vertex 61.4603 0.984862 19
      vertex 61.534 -0.239859 19
    endloop
  endfacet
  facet normal 0 0 -1
    outer loop
      vertex 61.0446 3.49445 19
      vertex 61.4603 0.984862 19
      vertex 61.4318 -1.20373 19
    endloop
  endfacet
  facet normal 0 0 -1
    outer loop
      vertex 61.4603 0.984862 19
      vertex 61.3815 2.07398 19
      vertex 61.4033 1.92944 19
    endloop
  endfacet
  facet normal 0 0 -1
    outer loop
      vertex 61.4603 0.984862 19
      vertex 61.0446 3.49445 19
      vertex 61.3815 2.07398 19
    endloop
  endfacet
  facet normal 0 0 -1
    outer loop
      vertex 61.2288 -2.78087 19
      vertex 61.4318 -1.20373 19
      vertex 61.2997 -2.45046 19
    endloop
  endfacet
  facet normal 0 0 -1
    outer loop
      vertex 60.8141 -4.20954 19
      vertex 61.4318 -1.20373 19
      vertex 61.2288 -2.78087 19
    endloop
  endfacet
  facet normal 0 0 -1
    outer loop
      vertex 60.8141 -4.20954 19
      vertex 61.2288 -2.78087 19
      vertex 61.1376 -3.20548 19
    endloop
  endfacet
  facet normal 0 0 -1
    outer loop
      vertex 61.3815 2.07398 19
      vertex 61.0446 3.49445 19
      vertex 61.3645 2.18593 19
    endloop
  endfacet
  facet normal -0 0 -1
    outer loop
      vertex 61.4318 -1.20373 19
      vertex 60.8141 -4.20954 19
      vertex 61.0446 3.49445 19
    endloop
  endfacet
  facet normal 0 0 -1
    outer loop
      vertex 60.266 5.81263 19
      vertex 61.0446 3.49445 19
      vertex 60.8141 -4.20954 19
    endloop
  endfacet
  facet normal 0 0 -1
    outer loop
      vertex 59.9341 -6.46947 19
      vertex 60.8141 -4.20954 19
      vertex 60.4018 -5.48994 19
    endloop
  endfacet
  facet normal 0 0 -1
    outer loop
      vertex 61.0446 3.49445 19
      vertex 60.266 5.81263 19
      vertex 60.795 4.51473 19
    endloop
  endfacet
  facet normal -0 0 -1
    outer loop
      vertex 60.8141 -4.20954 19
      vertex 59.9341 -6.46947 19
      vertex 60.266 5.81263 19
    endloop
  endfacet
  facet normal 0 0 -1
    outer loop
      vertex 58.6888 8.81956 19
      vertex 60.266 5.81263 19
      vertex 59.9341 -6.46947 19
    endloop
  endfacet
  facet normal 0 0 -1
    outer loop
      vertex 60.266 5.81263 19
      vertex 59.697 7.13596 19
      vertex 59.8486 6.83643 19
    endloop
  endfacet
  facet normal 0 0 -1
    outer loop
      vertex 60.266 5.81263 19
      vertex 58.6888 8.81956 19
      vertex 59.697 7.13596 19
    endloop
  endfacet
  facet normal 0 0 -1
    outer loop
      vertex 59.2535 -7.86544 19
      vertex 59.9341 -6.46947 19
      vertex 59.3442 -7.70506 19
    endloop
  endfacet
  facet normal 0 0 -1
    outer loop
      vertex 58.4073 -9.17049 19
      vertex 59.9341 -6.46947 19
      vertex 59.2535 -7.86544 19
    endloop
  endfacet
  facet normal 0 0 -1
    outer loop
      vertex 58.4073 -9.17049 19
      vertex 59.2535 -7.86544 19
      vertex 59.1398 -8.06652 19
    endloop
  endfacet
  facet normal 0 0 -1
    outer loop
      vertex 59.697 7.13596 19
      vertex 58.6888 8.81956 19
      vertex 59.5766 7.37384 19
    endloop
  endfacet
  facet normal -0 0 -1
    outer loop
      vertex 59.9341 -6.46947 19
      vertex 58.4073 -9.17049 19
      vertex 58.6888 8.81956 19
    endloop
  endfacet
  facet normal 0 0 -1
    outer loop
      vertex 56.8618 11.3813 19
      vertex 58.6888 8.81956 19
      vertex 58.4073 -9.17049 19
    endloop
  endfacet
  facet normal 0 0 -1
    outer loop
      vertex 56.6164 -11.5989 19
      vertex 58.4073 -9.17049 19
      vertex 57.4939 -10.5474 19
    endloop
  endfacet
  facet normal 0 0 -1
    outer loop
      vertex 58.6888 8.81956 19
      vertex 56.8618 11.3813 19
      vertex 57.979 9.97536 19
    endloop
  endfacet
  facet normal -0 0 -1
    outer loop
      vertex 58.4073 -9.17049 19
      vertex 56.6164 -11.5989 19
      vertex 56.8618 11.3813 19
    endloop
  endfacet
  facet normal 0 0 -1
    outer loop
      vertex 55.1438 13.3781 19
      vertex 56.8618 11.3813 19
      vertex 56.6164 -11.5989 19
    endloop
  endfacet
  facet normal 0 0 -1
    outer loop
      vertex 55.1438 13.3781 19
      vertex 56.6164 -11.5989 19
      vertex 55.5306 -12.9001 19
    endloop
  endfacet
  facet normal 0 0 -1
    outer loop
      vertex 56.8618 11.3813 19
      vertex 55.1438 13.3781 19
      vertex 55.9603 12.5155 19
    endloop
  endfacet
  facet normal 0 0 -1
    outer loop
      vertex 54.9715 -13.4761 19
      vertex 55.1438 13.3781 19
      vertex 55.5306 -12.9001 19
    endloop
  endfacet
  facet normal 0 0 -1
    outer loop
      vertex 54.9715 -13.4761 19
      vertex 54.4814 14.0779 19
      vertex 55.1438 13.3781 19
    endloop
  endfacet
  facet normal 0 0 -1
    outer loop
      vertex 54.2828 -14.1856 19
      vertex 54.4814 14.0779 19
      vertex 54.9715 -13.4761 19
    endloop
  endfacet
  facet normal 0 0 -1
    outer loop
      vertex 53.0467 -15.2851 19
      vertex 54.4814 14.0779 19
      vertex 54.2828 -14.1856 19
    endloop
  endfacet
  facet normal 0 0 -1
    outer loop
      vertex 53.0467 -15.2851 19
      vertex 52.8373 15.5469 19
      vertex 54.4814 14.0779 19
    endloop
  endfacet
  facet normal 0 0 -1
    outer loop
      vertex 51.53 -16.6343 19
      vertex 52.8373 15.5469 19
      vertex 53.0467 -15.2851 19
    endloop
  endfacet
  facet normal 0 0 -1
    outer loop
      vertex 50.1674 -17.6462 19
      vertex 52.8373 15.5469 19
      vertex 51.53 -16.6343 19
    endloop
  endfacet
  facet normal -0 0 -1
    outer loop
      vertex 52.8373 15.5469 19
      vertex 50.1674 -17.6462 19
      vertex 51.4977 16.7438 19
    endloop
  endfacet
  facet normal 0 0 -1
    outer loop
      vertex 50.1674 -17.6462 19
      vertex 49.6548 18.0955 19
      vertex 51.4977 16.7438 19
    endloop
  endfacet
  facet normal 0 0 -1
    outer loop
      vertex 48.5011 -18.8837 19
      vertex 49.6548 18.0955 19
      vertex 50.1674 -17.6462 19
    endloop
  endfacet
  facet normal 0 0 -1
    outer loop
      vertex 47.0212 -19.807 19
      vertex 49.6548 18.0955 19
      vertex 48.5011 -18.8837 19
    endloop
  endfacet
  facet normal -0 0 -1
    outer loop
      vertex 49.6548 18.0955 19
      vertex 47.0212 -19.807 19
      vertex 48.1474 19.201 19
    endloop
  endfacet
  facet normal 0 0 -1
    outer loop
      vertex 47.0212 -19.807 19
      vertex 46.1281 20.4228 19
      vertex 48.1474 19.201 19
    endloop
  endfacet
  facet normal 0 0 -1
    outer loop
      vertex 45.2152 -20.9338 19
      vertex 46.1281 20.4228 19
      vertex 47.0212 -19.807 19
    endloop
  endfacet
  facet normal 0 0 -1
    outer loop
      vertex 43.8388 -21.6593 19
      vertex 46.1281 20.4228 19
      vertex 45.2152 -20.9338 19
    endloop
  endfacet
  facet normal -0 0 -1
    outer loop
      vertex 46.1281 20.4228 19
      vertex 43.8388 -21.6593 19
      vertex 44.473 21.4243 19
    endloop
  endfacet
  facet normal 0 0 -1
    outer loop
      vertex 43.8388 -21.6593 19
      vertex 43.5784 21.8941 19
      vertex 44.473 21.4243 19
    endloop
  endfacet
  facet normal 0 0 -1
    outer loop
      vertex 43.8388 -21.6593 19
      vertex 42.8446 22.2795 19
      vertex 43.5784 21.8941 19
    endloop
  endfacet
  facet normal 0 0 -1
    outer loop
      vertex 42.1608 -22.5438 19
      vertex 42.8446 22.2795 19
      vertex 43.8388 -21.6593 19
    endloop
  endfacet
  facet normal 0 0 -1
    outer loop
      vertex 42.1608 -22.5438 19
      vertex 40.7459 23.2301 19
      vertex 42.8446 22.2795 19
    endloop
  endfacet
  facet normal 0 0 -1
    outer loop
      vertex 40.3506 -23.329 19
      vertex 40.7459 23.2301 19
      vertex 42.1608 -22.5438 19
    endloop
  endfacet
  facet normal 0 0 -1
    outer loop
      vertex 40.3506 -23.329 19
      vertex 39.0242 24.0099 19
      vertex 40.7459 23.2301 19
    endloop
  endfacet
  facet normal 0 0 -1
    outer loop
      vertex 36.8908 24.7741 19
      vertex 40.3506 -23.329 19
      vertex 38.1439 -24.2863 19
    endloop
  endfacet
  facet normal 0 0 -1
    outer loop
      vertex 40.3506 -23.329 19
      vertex 36.8908 24.7741 19
      vertex 39.0242 24.0099 19
    endloop
  endfacet
  facet normal 0 0 -1
    outer loop
      vertex 36.2982 -24.9048 19
      vertex 36.8908 24.7741 19
      vertex 38.1439 -24.2863 19
    endloop
  endfacet
  facet normal 0 0 -1
    outer loop
      vertex 36.2982 -24.9048 19
      vertex 35.1418 25.4006 19
      vertex 36.8908 24.7741 19
    endloop
  endfacet
  facet normal 0 0 -1
    outer loop
      vertex 32.1798 -26.1009 19
      vertex 36.2982 -24.9048 19
      vertex 34.0458 -25.6594 19
    endloop
  endfacet
  facet normal 0 0 -1
    outer loop
      vertex 36.2982 -24.9048 19
      vertex 32.9757 25.975 19
      vertex 35.1418 25.4006 19
    endloop
  endfacet
  facet normal -0 0 -1
    outer loop
      vertex 36.2982 -24.9048 19
      vertex 32.1798 -26.1009 19
      vertex 32.9757 25.975 19
    endloop
  endfacet
  facet normal 0 0 -1
    outer loop
      vertex 29.7192 26.7197 19
      vertex 32.9757 25.975 19
      vertex 32.1798 -26.1009 19
    endloop
  endfacet
  facet normal 0 0 -1
    outer loop
      vertex 28.4612 -26.8551 19
      vertex 32.1798 -26.1009 19
      vertex 29.8979 -26.6408 19
    endloop
  endfacet
  facet normal 0 0 -1
    outer loop
      vertex 32.9757 25.975 19
      vertex 29.7192 26.7197 19
      vertex 31.2032 26.4451 19
    endloop
  endfacet
  facet normal -0 0 -1
    outer loop
      vertex 32.1798 -26.1009 19
      vertex 28.4612 -26.8551 19
      vertex 29.7192 26.7197 19
    endloop
  endfacet
  facet normal 0 0 -1
    outer loop
      vertex 26.2012 27.1925 19
      vertex 29.7192 26.7197 19
      vertex 28.4612 -26.8551 19
    endloop
  endfacet
  facet normal 0 0 -1
    outer loop
      vertex 26.2012 27.1925 19
      vertex 28.4612 -26.8551 19
      vertex 26.7049 -27.117 19
    endloop
  endfacet
  facet normal 0 0 -1
    outer loop
      vertex 29.7192 26.7197 19
      vertex 26.2012 27.1925 19
      vertex 28.5067 26.944 19
    endloop
  endfacet
  facet normal 0 0 -1
    outer loop
      vertex 24.8127 -27.2543 19
      vertex 26.2012 27.1925 19
      vertex 26.7049 -27.117 19
    endloop
  endfacet
  facet normal 0 0 -1
    outer loop
      vertex 24.8127 -27.2543 19
      vertex 24.3124 27.3959 19
      vertex 26.2012 27.1925 19
    endloop
  endfacet
  facet normal 0 0 -1
    outer loop
      vertex 21.5899 27.4538 19
      vertex 24.8127 -27.2543 19
      vertex 22.507 -27.4215 19
    endloop
  endfacet
  facet normal 0 0 -1
    outer loop
      vertex 24.8127 -27.2543 19
      vertex 21.5899 27.4538 19
      vertex 24.3124 27.3959 19
    endloop
  endfacet
  facet normal 0 0 -1
    outer loop
      vertex 20.5557 -27.4177 19
      vertex 21.5899 27.4538 19
      vertex 22.507 -27.4215 19
    endloop
  endfacet
  facet normal 0 0 -1
    outer loop
      vertex 20.5557 -27.4177 19
      vertex 19.3511 27.5012 19
      vertex 21.5899 27.4538 19
    endloop
  endfacet
  facet normal 0 0 -1
    outer loop
      vertex 18.1859 -27.4131 19
      vertex 19.3511 27.5012 19
      vertex 20.5557 -27.4177 19
    endloop
  endfacet
  facet normal 0 0 -1
    outer loop
      vertex 18.1859 -27.4131 19
      vertex 16.3978 27.3303 19
      vertex 19.3511 27.5012 19
    endloop
  endfacet
  facet normal 0 0 -1
    outer loop
      vertex 16.1706 -27.2816 19
      vertex 16.3978 27.3303 19
      vertex 18.1859 -27.4131 19
    endloop
  endfacet
  facet normal 0 0 -1
    outer loop
      vertex 16.1706 -27.2816 19
      vertex 13.9591 27.1891 19
      vertex 16.3978 27.3303 19
    endloop
  endfacet
  facet normal 0 0 -1
    outer loop
      vertex 13.7316 -27.1224 19
      vertex 13.9591 27.1891 19
      vertex 16.1706 -27.2816 19
    endloop
  endfacet
  facet normal 0 0 -1
    outer loop
      vertex 11.6523 -26.8823 19
      vertex 13.9591 27.1891 19
      vertex 13.7316 -27.1224 19
    endloop
  endfacet
  facet normal 0 0 -1
    outer loop
      vertex 11.6523 -26.8823 19
      vertex 11.29 26.8771 19
      vertex 13.9591 27.1891 19
    endloop
  endfacet
  facet normal 0 0 -1
    outer loop
      vertex 9.14686 -26.5931 19
      vertex 11.29 26.8771 19
      vertex 11.6523 -26.8823 19
    endloop
  endfacet
  facet normal 0 0 -1
    outer loop
      vertex 9.14686 -26.5931 19
      vertex 9.0751 26.6181 19
      vertex 11.29 26.8771 19
    endloop
  endfacet
  facet normal 0 0 -1
    outer loop
      vertex 3.91923 -25.8031 19
      vertex 9.0751 26.6181 19
      vertex 9.14686 -26.5931 19
    endloop
  endfacet
  facet normal 0 0 -1
    outer loop
      vertex 3.91923 -25.8031 19
      vertex 2.81953 25.6554 19
      vertex 9.0751 26.6181 19
    endloop
  endfacet
  facet normal 0 0 -1
    outer loop
      vertex -2.33891 -24.8574 19
      vertex 2.81953 25.6554 19
      vertex 3.91923 -25.8031 19
    endloop
  endfacet
  facet normal 0 0 -1
    outer loop
      vertex -2.33891 -24.8574 19
      vertex -2.40596 24.8513 19
      vertex 2.81953 25.6554 19
    endloop
  endfacet
  facet normal 0 0 -1
    outer loop
      vertex -7.62661 -23.8808 19
      vertex -2.40596 24.8513 19
      vertex -2.33891 -24.8574 19
    endloop
  endfacet
  facet normal 0 0 -1
    outer loop
      vertex -7.62661 -23.8808 19
      vertex -8.7319 23.6654 19
      vertex -2.40596 24.8513 19
    endloop
  endfacet
  facet normal 0 0 -1
    outer loop
      vertex -13.9557 -22.712 19
      vertex -8.7319 23.6654 19
      vertex -7.62661 -23.8808 19
    endloop
  endfacet
  facet normal 0 0 -1
    outer loop
      vertex -13.9557 -22.712 19
      vertex -14.0169 22.6746 19
      vertex -8.7319 23.6654 19
    endloop
  endfacet
  facet normal 0 0 -1
    outer loop
      vertex -16.0316 -22.2807 19
      vertex -14.0169 22.6746 19
      vertex -13.9557 -22.712 19
    endloop
  endfacet
  facet normal 0 0 -1
    outer loop
      vertex -16.0316 -22.2807 19
      vertex -16.5001 22.1517 19
      vertex -14.0169 22.6746 19
    endloop
  endfacet
  facet normal 0 0 -1
    outer loop
      vertex -18.5162 -21.7644 19
      vertex -16.5001 22.1517 19
      vertex -16.0316 -22.2807 19
    endloop
  endfacet
  facet normal 0 0 -1
    outer loop
      vertex -18.5162 -21.7644 19
      vertex -18.5748 21.7148 19
      vertex -16.5001 22.1517 19
    endloop
  endfacet
  facet normal 0 0 -1
    outer loop
      vertex -23.7228 -20.5627 19
      vertex -18.5748 21.7148 19
      vertex -18.5162 -21.7644 19
    endloop
  endfacet
  facet normal 0 0 -1
    outer loop
      vertex -23.7228 -20.5627 19
      vertex -24.8027 20.2596 19
      vertex -18.5748 21.7148 19
    endloop
  endfacet
  facet normal 0 0 -1
    outer loop
      vertex -29.9547 -19.1243 19
      vertex -24.8027 20.2596 19
      vertex -23.7228 -20.5627 19
    endloop
  endfacet
  facet normal 0 0 -1
    outer loop
      vertex -29.9547 -19.1243 19
      vertex -30.0062 19.0438 19
      vertex -24.8027 20.2596 19
    endloop
  endfacet
  facet normal 0 0 -1
    outer loop
      vertex -35.089 -17.7665 19
      vertex -30.0062 19.0438 19
      vertex -29.9547 -19.1243 19
    endloop
  endfacet
  facet normal 0 0 -1
    outer loop
      vertex -35.089 -17.7665 19
      vertex -36.1473 17.4019 19
      vertex -30.0062 19.0438 19
    endloop
  endfacet
  facet normal 0 0 -1
    outer loop
      vertex -41.2345 -16.1413 19
      vertex -36.1473 17.4019 19
      vertex -35.089 -17.7665 19
    endloop
  endfacet
  facet normal 0 0 -1
    outer loop
      vertex -41.2345 -16.1413 19
      vertex -41.278 16.0303 19
      vertex -36.1473 17.4019 19
    endloop
  endfacet
  facet normal 0 0 -1
    outer loop
      vertex -43.2791 -15.5506 19
      vertex -41.278 16.0303 19
      vertex -41.2345 -16.1413 19
    endloop
  endfacet
  facet normal 0 0 -1
    outer loop
      vertex -43.2791 -15.5506 19
      vertex -43.7236 15.3165 19
      vertex -41.278 16.0303 19
    endloop
  endfacet
  facet normal 0 0 -1
    outer loop
      vertex -45.7267 -14.8434 19
      vertex -43.7236 15.3165 19
      vertex -43.2791 -15.5506 19
    endloop
  endfacet
  facet normal 0 0 -1
    outer loop
      vertex -45.7267 -14.8434 19
      vertex -45.7666 14.7203 19
      vertex -43.7236 15.3165 19
    endloop
  endfacet
  facet normal 0 0 -1
    outer loop
      vertex -50.412 -13.3751 19
      vertex -45.7666 14.7203 19
      vertex -45.7267 -14.8434 19
    endloop
  endfacet
  facet normal 0 0 -1
    outer loop
      vertex -50.412 -13.3751 19
      vertex -51.3713 12.9474 19
      vertex -45.7666 14.7203 19
    endloop
  endfacet
  facet normal 0 0 -1
    outer loop
      vertex -56.0214 -11.6172 19
      vertex -51.3713 12.9474 19
      vertex -50.412 -13.3751 19
    endloop
  endfacet
  facet normal 0 0 -1
    outer loop
      vertex -56.0214 -11.6172 19
      vertex -56.0526 11.4664 19
      vertex -51.3713 12.9474 19
    endloop
  endfacet
  facet normal 0 0 -1
    outer loop
      vertex -60.5882 -10.0195 19
      vertex -56.0526 11.4664 19
      vertex -56.0214 -11.6172 19
    endloop
  endfacet
  facet normal 0 0 -1
    outer loop
      vertex -60.5882 -10.0195 19
      vertex -61.5164 9.53836 19
      vertex -56.0526 11.4664 19
    endloop
  endfacet
  facet normal 0 0 -1
    outer loop
      vertex -66.0572 -8.10633 19
      vertex -61.5164 9.53836 19
      vertex -60.5882 -10.0195 19
    endloop
  endfacet
  facet normal 0 0 -1
    outer loop
      vertex -66.0572 -8.10633 19
      vertex -66.0788 7.92847 19
      vertex -61.5164 9.53836 19
    endloop
  endfacet
  facet normal 0 0 -1
    outer loop
      vertex -68.9026 -7.0186 19
      vertex -66.0788 7.92847 19
      vertex -66.0572 -8.10633 19
    endloop
  endfacet
  facet normal 0 0 -1
    outer loop
      vertex -68.9026 -7.0186 19
      vertex -69.4837 6.61629 19
      vertex -66.0788 7.92847 19
    endloop
  endfacet
  facet normal 0 0 -1
    outer loop
      vertex -72.3111 -5.71561 19
      vertex -69.4837 6.61629 19
      vertex -68.9026 -7.0186 19
    endloop
  endfacet
  facet normal 0 0 -1
    outer loop
      vertex -72.3111 -5.71561 19
      vertex -72.3263 5.52085 19
      vertex -69.4837 6.61629 19
    endloop
  endfacet
  facet normal 0 0 -1
    outer loop
      vertex -76.5254 -3.95715 19
      vertex -72.3263 5.52085 19
      vertex -72.3111 -5.71561 19
    endloop
  endfacet
  facet normal 0 0 -1
    outer loop
      vertex -76.5254 -3.95715 19
      vertex -77.3706 3.40008 19
      vertex -72.3263 5.52085 19
    endloop
  endfacet
  facet normal 0 0 -1
    outer loop
      vertex -81.5754 -1.84999 19
      vertex -77.3706 3.40008 19
      vertex -76.5254 -3.95715 19
    endloop
  endfacet
  facet normal 0 0 -1
    outer loop
      vertex -81.5754 -1.84999 19
      vertex -81.5801 1.63026 19
      vertex -77.3706 3.40008 19
    endloop
  endfacet
  facet normal 0 0 -1
    outer loop
      vertex -82.7605 -1.31657 19
      vertex -81.5801 1.63026 19
      vertex -81.5754 -1.84999 19
    endloop
  endfacet
  facet normal 0 0 -1
    outer loop
      vertex -83.4738 0.840842 19
      vertex -82.7605 -1.31657 19
      vertex -83.4713 -1.06555 19
    endloop
  endfacet
  facet normal 0 0 -1
    outer loop
      vertex -82.7605 -1.31657 19
      vertex -83.4738 0.840842 19
      vertex -81.5801 1.63026 19
    endloop
  endfacet
  facet normal 0 0 -1
    outer loop
      vertex -84.0073 -0.854878 19
      vertex -83.4738 0.840842 19
      vertex -83.4713 -1.06555 19
    endloop
  endfacet
  facet normal 0 0 -1
    outer loop
      vertex -84.0073 -0.854878 19
      vertex -84.0093 0.628747 19
      vertex -83.4738 0.840842 19
    endloop
  endfacet
  facet normal 0 -0 -1
    outer loop
      vertex -84.0093 0.628747 19
      vertex -84.0073 -0.854878 19
      vertex -85.6589 -0.115251 19
    endloop
  endfacet
endsolid OpenSCAD_Model
