  0
SECTION
  2
BLOCKS
  0
ENDSEC
  0
SECTION
  2
ENTITIES
  0
LINE
  8
0
 10
39.7591
 20
-31.5198
 11
47.8189
 21
-31.4327
  0
LINE
  8
0
 10
47.8189
 20
-31.4327
 11
61.5553
 21
-30.7512
  0
LINE
  8
0
 10
61.5553
 20
-30.7512
 11
62.3968
 21
-30.6555
  0
LINE
  8
0
 10
62.3968
 20
-30.6555
 11
62.9577
 21
-30.5567
  0
LINE
  8
0
 10
62.9577
 20
-30.5567
 11
65.1474
 21
-29.912
  0
LINE
  8
0
 10
65.1474
 20
-29.912
 11
64.6885
 21
-12.7903
  0
LINE
  8
0
 10
64.6885
 20
-12.7903
 11
64.5388
 21
-12.0253
  0
LINE
  8
0
 10
64.5388
 20
-12.0253
 11
64.6092
 21
-11.3134
  0
LINE
  8
0
 10
64.6092
 20
-11.3134
 11
64.7707
 21
-9.27348
  0
LINE
  8
0
 10
64.7707
 20
-9.27348
 11
64.8282
 21
-8.26715
  0
LINE
  8
0
 10
64.8282
 20
-8.26715
 11
64.8779
 21
-6.98207
  0
LINE
  8
0
 10
64.8779
 20
-6.98207
 11
64.8928
 21
-6.10901
  0
LINE
  8
0
 10
64.8928
 20
-6.10901
 11
64.8511
 21
-4.41658
  0
LINE
  8
0
 10
64.8511
 20
-4.41658
 11
64.8346
 21
7.81548
  0
LINE
  8
0
 10
64.8346
 20
7.81548
 11
64.8035
 21
8.46996
  0
LINE
  8
0
 10
64.8035
 20
8.46996
 11
64.7902
 21
8.71016
  0
LINE
  8
0
 10
64.7902
 20
8.71016
 11
64.6253
 21
10.9642
  0
LINE
  8
0
 10
64.6253
 20
10.9642
 11
64.3847
 21
13.2417
  0
LINE
  8
0
 10
64.3847
 20
13.2417
 11
64.3501
 21
13.5175
  0
LINE
  8
0
 10
64.3501
 20
13.5175
 11
64.5155
 21
14.2775
  0
LINE
  8
0
 10
64.5155
 20
14.2775
 11
64.3948
 21
15.272
  0
LINE
  8
0
 10
64.3948
 20
15.272
 11
65.0665
 21
30.0879
  0
LINE
  8
0
 10
65.0665
 20
30.0879
 11
62.875
 21
30.7268
  0
LINE
  8
0
 10
62.875
 20
30.7268
 11
62.3151
 21
30.8239
  0
LINE
  8
0
 10
62.3151
 20
30.8239
 11
61.4753
 21
30.9172
  0
LINE
  8
0
 10
61.4753
 20
30.9172
 11
47.734
 21
31.5619
  0
LINE
  8
0
 10
47.734
 20
31.5619
 11
21.1826
 21
31.7774
  0
LINE
  8
0
 10
21.1826
 20
31.7774
 11
-16.0264
 21
30.9615
  0
LINE
  8
0
 10
-16.0264
 20
30.9615
 11
-19.5461
 21
30.8079
  0
LINE
  8
0
 10
-19.5461
 20
30.8079
 11
-26.4798
 21
29.9645
  0
LINE
  8
0
 10
-26.4798
 20
29.9645
 11
-28.6367
 21
21.0484
  0
LINE
  8
0
 10
-28.6367
 20
21.0484
 11
-28.6647
 21
20.284
  0
LINE
  8
0
 10
-28.6647
 20
20.284
 11
-30.2333
 21
19.9173
  0
LINE
  8
0
 10
-30.2333
 20
19.9173
 11
-34.4492
 21
18.8353
  0
LINE
  8
0
 10
-34.4492
 20
18.8353
 11
-35.192
 21
18.6392
  0
LINE
  8
0
 10
-35.192
 20
18.6392
 11
-35.2585
 21
18.621
  0
LINE
  8
0
 10
-35.2585
 20
18.621
 11
-36.0941
 21
18.3913
  0
LINE
  8
0
 10
-36.0941
 20
18.3913
 11
-45.6671
 21
15.6868
  0
LINE
  8
0
 10
-45.6671
 20
15.6868
 11
-46.3713
 21
15.4812
  0
LINE
  8
0
 10
-46.3713
 20
15.4812
 11
-46.4245
 21
15.4653
  0
LINE
  8
0
 10
-46.4245
 20
15.4653
 11
-46.6283
 21
15.4017
  0
LINE
  8
0
 10
-46.6283
 20
15.4017
 11
-53.6543
 21
13.2067
  0
LINE
  8
0
 10
-53.6543
 20
13.2067
 11
-54.1015
 21
13.0594
  0
LINE
  8
0
 10
-54.1015
 20
13.0594
 11
-57.1699
 21
12.0432
  0
LINE
  8
0
 10
-57.1699
 20
12.0432
 11
-57.2978
 21
12.0002
  0
LINE
  8
0
 10
-57.2978
 20
12.0002
 11
-57.7448
 21
11.8425
  0
LINE
  8
0
 10
-57.7448
 20
11.8425
 11
-58.898
 21
11.4333
  0
LINE
  8
0
 10
-58.898
 20
11.4333
 11
-67.5867
 21
8.32654
  0
LINE
  8
0
 10
-67.5867
 20
8.32654
 11
-67.7703
 21
8.25764
  0
LINE
  8
0
 10
-67.7703
 20
8.25764
 11
-68.0664
 21
8.14449
  0
LINE
  8
0
 10
-68.0664
 20
8.14449
 11
-69.224
 21
7.70351
  0
LINE
  8
0
 10
-69.224
 20
7.70351
 11
-71.1488
 21
6.95709
  0
LINE
  8
0
 10
-71.1488
 20
6.95709
 11
-71.4394
 21
6.84216
  0
LINE
  8
0
 10
-71.4394
 20
6.84216
 11
-77.3734
 21
4.41603
  0
LINE
  8
0
 10
-77.3734
 20
4.41603
 11
-78.0985
 21
4.11705
  0
LINE
  8
0
 10
-78.0985
 20
4.11705
 11
-78.8512
 21
3.80061
  0
LINE
  8
0
 10
-78.8512
 20
3.80061
 11
-79.2638
 21
3.62125
  0
LINE
  8
0
 10
-79.2638
 20
3.62125
 11
-80.4068
 21
3.09737
  0
LINE
  8
0
 10
-80.4068
 20
3.09737
 11
-87.5599
 21
-0.117783
  0
LINE
  8
0
 10
-87.5599
 20
-0.117783
 11
-87.0132
 21
-0.366608
  0
LINE
  8
0
 10
-87.0132
 20
-0.366608
 11
-83.6658
 21
-1.90767
  0
LINE
  8
0
 10
-83.6658
 20
-1.90767
 11
-83.4355
 21
-2.01013
  0
LINE
  8
0
 10
-83.4355
 20
-2.01013
 11
-82.2006
 21
-2.52542
  0
LINE
  8
0
 10
-82.2006
 20
-2.52542
 11
-74.7455
 21
-5.71237
  0
LINE
  8
0
 10
-74.7455
 20
-5.71237
 11
-74.4651
 21
-5.82471
  0
LINE
  8
0
 10
-74.4651
 20
-5.82471
 11
-74.3489
 21
-5.87056
  0
LINE
  8
0
 10
-74.3489
 20
-5.87056
 11
-72.056
 21
-6.78642
  0
LINE
  8
0
 10
-72.056
 20
-6.78642
 11
-70.9549
 21
-7.20596
  0
LINE
  8
0
 10
-70.9549
 20
-7.20596
 11
-65.8173
 21
-9.15627
  0
LINE
  8
0
 10
-65.8173
 20
-9.15627
 11
-65.7323
 21
-9.18755
  0
LINE
  8
0
 10
-65.7323
 20
-9.18755
 11
-65.1426
 21
-9.39383
  0
LINE
  8
0
 10
-65.1426
 20
-9.39383
 11
-63.9642
 21
-9.80453
  0
LINE
  8
0
 10
-63.9642
 20
-9.80453
 11
-56.2086
 21
-12.5059
  0
LINE
  8
0
 10
-56.2086
 20
-12.5059
 11
-56.1938
 21
-12.5108
  0
LINE
  8
0
 10
-56.1938
 20
-12.5108
 11
-54.5616
 21
-13.046
  0
LINE
  8
0
 10
-54.5616
 20
-13.046
 11
-54.2192
 21
-13.1523
  0
LINE
  8
0
 10
-54.2192
 20
-13.1523
 11
-46.2232
 21
-15.6375
  0
LINE
  8
0
 10
-46.2232
 20
-15.6375
 11
-46.1912
 21
-15.647
  0
LINE
  8
0
 10
-46.1912
 20
-15.647
 11
-45.4874
 21
-15.8504
  0
LINE
  8
0
 10
-45.4874
 20
-15.8504
 11
-36.1087
 21
-18.4714
  0
LINE
  8
0
 10
-36.1087
 20
-18.4714
 11
-35.2825
 21
-18.6962
  0
LINE
  8
0
 10
-35.2825
 20
-18.6962
 11
-35.2069
 21
-18.7166
  0
LINE
  8
0
 10
-35.2069
 20
-18.7166
 11
-33.5274
 21
-19.1532
  0
LINE
  8
0
 10
-33.5274
 20
-19.1532
 11
-33.0596
 21
-19.2713
  0
LINE
  8
0
 10
-33.0596
 20
-19.2713
 11
-28.5732
 21
-20.3632
  0
LINE
  8
0
 10
-28.5732
 20
-20.3632
 11
-27.9088
 21
-22.2295
  0
LINE
  8
0
 10
-27.9088
 20
-22.2295
 11
-26.3989
 21
-30.0355
  0
LINE
  8
0
 10
-26.3989
 20
-30.0355
 11
-19.4595
 21
-30.8605
  0
LINE
  8
0
 10
-19.4595
 20
-30.8605
 11
-15.9428
 21
-31.0043
  0
LINE
  8
0
 10
-15.9428
 20
-31.0043
 11
21.2683
 21
-31.7197
  0
LINE
  8
0
 10
21.2683
 20
-31.7197
 11
39.7591
 21
-31.5198
  0
ENDSEC
  0
SECTION
  2
OBJECTS
  0
DICTIONARY
  0
ENDSEC
  0
EOF
