  0
SECTION
  2
BLOCKS
  0
ENDSEC
  0
SECTION
  2
ENTITIES
  0
LINE
  8
0
 10
26.3256
 20
-32.4302
 11
47.8201
 21
-32.2652
  0
LINE
  8
0
 10
47.8201
 20
-32.2652
 11
62.9593
 21
-31.7558
  0
LINE
  8
0
 10
62.9593
 20
-31.7558
 11
73.8182
 21
-30.9931
  0
LINE
  8
0
 10
73.8182
 20
-30.9931
 11
74.524
 21
-30.9095
  0
LINE
  8
0
 10
74.524
 20
-30.9095
 11
75.9102
 21
-30.6651
  0
LINE
  8
0
 10
75.9102
 20
-30.6651
 11
76.7953
 21
-30.5089
  0
LINE
  8
0
 10
76.7953
 20
-30.5089
 11
77.5633
 21
-30.3125
  0
LINE
  8
0
 10
77.5633
 20
-30.3125
 11
78.1395
 21
-29.8945
  0
LINE
  8
0
 10
78.1395
 20
-29.8945
 11
78.0586
 21
30.1055
  0
LINE
  8
0
 10
78.0586
 20
30.1055
 11
77.4816
 21
30.5219
  0
LINE
  8
0
 10
77.4816
 20
30.5219
 11
76.7127
 21
30.7163
  0
LINE
  8
0
 10
76.7127
 20
30.7163
 11
74.4429
 21
31.1105
  0
LINE
  8
0
 10
74.4429
 20
31.1105
 11
73.7344
 21
31.1925
  0
LINE
  8
0
 10
73.7344
 20
31.1925
 11
62.8734
 21
31.9259
  0
LINE
  8
0
 10
62.8734
 20
31.9259
 11
47.7328
 21
32.3945
  0
LINE
  8
0
 10
47.7328
 20
32.3945
 11
26.5804
 21
32.4999
  0
LINE
  8
0
 10
26.5804
 20
32.4999
 11
21.3576
 21
32.5217
  0
LINE
  8
0
 10
21.3576
 20
32.5217
 11
21.1817
 21
32.5217
  0
LINE
  8
0
 10
21.1817
 20
32.5217
 11
21.0682
 21
32.5209
  0
LINE
  8
0
 10
21.0682
 20
32.5209
 11
18.699
 21
32.4893
  0
LINE
  8
0
 10
18.699
 20
32.4893
 11
-16.0277
 21
31.9642
  0
LINE
  8
0
 10
-16.0277
 20
31.9642
 11
-50.5347
 21
30.9419
  0
LINE
  8
0
 10
-50.5347
 20
30.9419
 11
-56.8153
 21
30.668
  0
LINE
  8
0
 10
-56.8153
 20
30.668
 11
-64.5586
 21
30.3303
  0
LINE
  8
0
 10
-64.5586
 20
30.3303
 11
-68.0236
 21
29.9088
  0
LINE
  8
0
 10
-68.0236
 20
29.9088
 11
-68.0258
 21
29.9085
  0
LINE
  8
0
 10
-68.0258
 20
29.9085
 11
-67.9904
 21
8.42352
  0
LINE
  8
0
 10
-67.9904
 20
8.42352
 11
-67.9958
 21
8.17223
  0
LINE
  8
0
 10
-67.9958
 20
8.17223
 11
-69.0956
 21
7.75327
  0
LINE
  8
0
 10
-69.0956
 20
7.75327
 11
-71.1488
 21
6.95709
  0
LINE
  8
0
 10
-71.1488
 20
6.95709
 11
-71.2516
 21
6.91646
  0
LINE
  8
0
 10
-71.2516
 20
6.91646
 11
-78.0985
 21
4.11705
  0
LINE
  8
0
 10
-78.0985
 20
4.11705
 11
-78.4611
 21
3.96758
  0
LINE
  8
0
 10
-78.4611
 20
3.96758
 11
-78.6449
 21
3.89029
  0
LINE
  8
0
 10
-78.6449
 20
3.89029
 11
-78.8512
 21
3.80061
  0
LINE
  8
0
 10
-78.8512
 20
3.80061
 11
-79.3062
 21
3.59203
  0
LINE
  8
0
 10
-79.3062
 20
3.59203
 11
-87.5599
 21
-0.117813
  0
LINE
  8
0
 10
-87.5599
 20
-0.117813
 11
-87.3515
 21
-0.212662
  0
LINE
  8
0
 10
-87.3515
 20
-0.212662
 11
-83.7809
 21
-1.85645
  0
LINE
  8
0
 10
-83.7809
 20
-1.85645
 11
-83.6658
 21
-1.90767
  0
LINE
  8
0
 10
-83.6658
 20
-1.90767
 11
-83.191
 21
-2.10576
  0
LINE
  8
0
 10
-83.191
 20
-2.10576
 11
-74.8856
 21
-5.6562
  0
LINE
  8
0
 10
-74.8856
 20
-5.6562
 11
-74.7455
 21
-5.71237
  0
LINE
  8
0
 10
-74.7455
 20
-5.71237
 11
-74.7031
 21
-5.72906
  0
LINE
  8
0
 10
-74.7031
 20
-5.72906
 11
-72.056
 21
-6.78642
  0
LINE
  8
0
 10
-72.056
 20
-6.78642
 11
-71.6603
 21
-6.93718
  0
LINE
  8
0
 10
-71.6603
 20
-6.93718
 11
-67.9403
 21
-8.34933
  0
LINE
  8
0
 10
-67.9403
 20
-8.34933
 11
-67.8616
 21
-12.0336
  0
LINE
  8
0
 10
-67.8616
 20
-12.0336
 11
-67.9449
 21
-30.0915
  0
LINE
  8
0
 10
-67.9449
 20
-30.0915
 11
-67.9427
 21
-30.0918
  0
LINE
  8
0
 10
-67.9427
 20
-30.0918
 11
-64.4747
 21
-30.504
  0
LINE
  8
0
 10
-64.4747
 20
-30.504
 11
-50.44
 21
-31.0781
  0
LINE
  8
0
 10
-50.44
 20
-31.0781
 11
-15.9414
 21
-32.0069
  0
LINE
  8
0
 10
-15.9414
 20
-32.0069
 11
18.9437
 21
-32.4402
  0
LINE
  8
0
 10
18.9437
 20
-32.4402
 11
21.0607
 21
-32.4628
  0
LINE
  8
0
 10
21.0607
 20
-32.4628
 11
21.3319
 21
-32.4643
  0
LINE
  8
0
 10
21.3319
 20
-32.4643
 11
26.3256
 21
-32.4302
  0
ENDSEC
  0
SECTION
  2
OBJECTS
  0
DICTIONARY
  0
ENDSEC
  0
EOF
