  0
SECTION
  2
BLOCKS
  0
ENDSEC
  0
SECTION
  2
ENTITIES
  0
LINE
  8
0
 10
-87.5599
 20
-0.117787
 11
-86.3366
 21
-0.674549
  0
LINE
  8
0
 10
-86.3366
 20
-0.674549
 11
-83.4355
 21
-2.01014
  0
LINE
  8
0
 10
-83.4355
 20
-2.01014
 11
-81.4669
 21
-2.83156
  0
LINE
  8
0
 10
-81.4669
 20
-2.83156
 11
-74.4651
 21
-5.82471
  0
LINE
  8
0
 10
-74.4651
 20
-5.82471
 11
-74.3489
 21
-5.87057
  0
LINE
  8
0
 10
-74.3489
 20
-5.87057
 11
-72.056
 21
-6.78643
  0
LINE
  8
0
 10
-72.056
 20
-6.78643
 11
-70.9549
 21
-7.20597
  0
LINE
  8
0
 10
-70.9549
 20
-7.20597
 11
-65.8173
 21
-9.15627
  0
LINE
  8
0
 10
-65.8173
 20
-9.15627
 11
-63.9642
 21
-9.80455
  0
LINE
  8
0
 10
-63.9642
 20
-9.80455
 11
-56.2086
 21
-12.5059
  0
LINE
  8
0
 10
-56.2086
 20
-12.5059
 11
-55.9117
 21
-12.6033
  0
LINE
  8
0
 10
-55.9117
 20
-12.6033
 11
-54.5616
 21
-13.046
  0
LINE
  8
0
 10
-54.5616
 20
-13.046
 11
-53.121
 21
-13.4932
  0
LINE
  8
0
 10
-53.121
 20
-13.4932
 11
-46.1912
 21
-15.647
  0
LINE
  8
0
 10
-46.1912
 20
-15.647
 11
-45.4874
 21
-15.8504
  0
LINE
  8
0
 10
-45.4874
 20
-15.8504
 11
-36.1088
 21
-18.4714
  0
LINE
  8
0
 10
-36.1088
 20
-18.4714
 11
-34.9829
 21
-18.7748
  0
LINE
  8
0
 10
-34.9829
 20
-18.7748
 11
-33.5274
 21
-19.1532
  0
LINE
  8
0
 10
-33.5274
 20
-19.1532
 11
-33.0596
 21
-19.2713
  0
LINE
  8
0
 10
-33.0596
 20
-19.2713
 11
-24.8091
 21
-21.2794
  0
LINE
  8
0
 10
-24.8091
 20
-21.2794
 11
-23.3449
 21
-21.6173
  0
LINE
  8
0
 10
-23.3449
 20
-21.6173
 11
-22.7611
 21
-21.7386
  0
LINE
  8
0
 10
-22.7611
 20
-21.7386
 11
-14.1207
 21
-23.5994
  0
LINE
  8
0
 10
-14.1207
 20
-23.5994
 11
-13.874
 21
-23.6484
  0
LINE
  8
0
 10
-13.874
 20
-23.6484
 11
-12.0176
 21
-24.0164
  0
LINE
  8
0
 10
-12.0176
 20
-24.0164
 11
-10.9275
 21
-24.2144
  0
LINE
  8
0
 10
-10.9275
 20
-24.2144
 11
-2.48572
 21
-25.7479
  0
LINE
  8
0
 10
-2.48572
 20
-25.7479
 11
-1.2721
 21
-25.9313
  0
LINE
  8
0
 10
-1.2721
 20
-25.9313
 11
9.02705
 21
-27.4877
  0
LINE
  8
0
 10
9.02705
 20
-27.4877
 11
10.7136
 21
-27.7029
  0
LINE
  8
0
 10
10.7136
 20
-27.7029
 11
11.1565
 21
-27.754
  0
LINE
  8
0
 10
11.1565
 20
-27.754
 11
16.3997
 21
-28.2269
  0
LINE
  8
0
 10
16.3997
 20
-28.2269
 11
16.8192
 21
-28.2542
  0
LINE
  8
0
 10
16.8192
 20
-28.2542
 11
21.1425
 21
-28.347
  0
LINE
  8
0
 10
21.1425
 20
-28.347
 11
21.444
 21
-28.3502
  0
LINE
  8
0
 10
21.444
 20
-28.3502
 11
21.9016
 21
-28.3413
  0
LINE
  8
0
 10
21.9016
 20
-28.3413
 11
22.0017
 21
-28.3389
  0
LINE
  8
0
 10
22.0017
 20
-28.3389
 11
25.2493
 21
-28.1601
  0
LINE
  8
0
 10
25.2493
 20
-28.1601
 11
25.6379
 21
-28.1319
  0
LINE
  8
0
 10
25.6379
 20
-28.1319
 11
25.9735
 21
-28.1011
  0
LINE
  8
0
 10
25.9735
 20
-28.1011
 11
26.1518
 21
-28.077
  0
LINE
  8
0
 10
26.1518
 20
-28.077
 11
28.7666
 21
-27.7498
  0
LINE
  8
0
 10
28.7666
 20
-27.7498
 11
28.8845
 21
-27.7296
  0
LINE
  8
0
 10
28.8845
 20
-27.7296
 11
30.1284
 21
-27.5159
  0
LINE
  8
0
 10
30.1284
 20
-27.5159
 11
30.5136
 21
-27.4248
  0
LINE
  8
0
 10
30.5136
 20
-27.4248
 11
34.2603
 21
-26.5368
  0
LINE
  8
0
 10
34.2603
 20
-26.5368
 11
34.465
 21
-26.4729
  0
LINE
  8
0
 10
34.465
 20
-26.4729
 11
36.5221
 21
-25.8313
  0
LINE
  8
0
 10
36.5221
 20
-25.8313
 11
36.7024
 21
-25.7662
  0
LINE
  8
0
 10
36.7024
 20
-25.7662
 11
38.3788
 21
-25.1628
  0
LINE
  8
0
 10
38.3788
 20
-25.1628
 11
38.7609
 21
-24.9971
  0
LINE
  8
0
 10
38.7609
 20
-24.9971
 11
41.4354
 21
-23.881
  0
LINE
  8
0
 10
41.4354
 20
-23.881
 11
41.5438
 21
-23.8267
  0
LINE
  8
0
 10
41.5438
 20
-23.8267
 11
43.694
 21
-22.7861
  0
LINE
  8
0
 10
43.694
 20
-22.7861
 11
43.8848
 21
-22.6826
  0
LINE
  8
0
 10
43.8848
 20
-22.6826
 11
45.3353
 21
-21.9028
  0
LINE
  8
0
 10
45.3353
 20
-21.9028
 11
45.6641
 21
-21.6977
  0
LINE
  8
0
 10
45.6641
 20
-21.6977
 11
49.0458
 21
-19.6048
  0
LINE
  8
0
 10
49.0458
 20
-19.6048
 11
49.1657
 21
-19.5205
  0
LINE
  8
0
 10
49.1657
 20
-19.5205
 11
50.1841
 21
-18.8039
  0
LINE
  8
0
 10
50.1841
 20
-18.8039
 11
50.382
 21
-18.6521
  0
LINE
  8
0
 10
50.382
 20
-18.6521
 11
52.4622
 21
-17.0368
  0
LINE
  8
0
 10
52.4622
 20
-17.0368
 11
52.7619
 21
-16.7702
  0
LINE
  8
0
 10
52.7619
 20
-16.7702
 11
54.8856
 21
-14.8584
  0
LINE
  8
0
 10
54.8856
 20
-14.8584
 11
54.9259
 21
-14.8185
  0
LINE
  8
0
 10
54.9259
 20
-14.8185
 11
55.2805
 21
-14.4668
  0
LINE
  8
0
 10
55.2805
 20
-14.4668
 11
55.3816
 21
-14.3611
  0
LINE
  8
0
 10
55.3816
 20
-14.3611
 11
57.2193
 21
-12.3378
  0
LINE
  8
0
 10
57.2193
 20
-12.3378
 11
57.4501
 21
-12.0612
  0
LINE
  8
0
 10
57.4501
 20
-12.0612
 11
57.5607
 21
-11.904
  0
LINE
  8
0
 10
57.5607
 20
-11.904
 11
59.1843
 21
-9.71173
  0
LINE
  8
0
 10
59.1843
 20
-9.71173
 11
59.3533
 21
-9.45054
  0
LINE
  8
0
 10
59.3533
 20
-9.45054
 11
59.4403
 21
-9.30965
  0
LINE
  8
0
 10
59.4403
 20
-9.30965
 11
59.8561
 21
-8.63012
  0
LINE
  8
0
 10
59.8561
 20
-8.63012
 11
59.8814
 21
-8.58535
  0
LINE
  8
0
 10
59.8814
 20
-8.58535
 11
60.013
 21
-8.30978
  0
LINE
  8
0
 10
60.013
 20
-8.30978
 11
61.1377
 21
-6.07389
  0
LINE
  8
0
 10
61.1377
 20
-6.07389
 11
61.1551
 21
-6.02929
  0
LINE
  8
0
 10
61.1551
 20
-6.02929
 11
61.3821
 21
-5.45977
  0
LINE
  8
0
 10
61.3821
 20
-5.45977
 11
61.4595
 21
-5.21003
  0
LINE
  8
0
 10
61.4595
 20
-5.21003
 11
61.9834
 21
-3.54559
  0
LINE
  8
0
 10
61.9834
 20
-3.54559
 11
62.0046
 21
-3.4466
  0
LINE
  8
0
 10
62.0046
 20
-3.4466
 11
62.1924
 21
-2.58674
  0
LINE
  8
0
 10
62.1924
 20
-2.58674
 11
62.2163
 21
-2.41627
  0
LINE
  8
0
 10
62.2163
 20
-2.41627
 11
62.3795
 21
-1.24362
  0
LINE
  8
0
 10
62.3795
 20
-1.24362
 11
62.3866
 21
-1.12113
  0
LINE
  8
0
 10
62.3866
 20
-1.12113
 11
62.4366
 21
-0.24604
  0
LINE
  8
0
 10
62.4366
 20
-0.24604
 11
62.4193
 21
0.0428622
  0
LINE
  8
0
 10
62.4193
 20
0.0428622
 11
62.2902
 21
2.10222
  0
LINE
  8
0
 10
62.2902
 20
2.10222
 11
62.2851
 21
2.13617
  0
LINE
  8
0
 10
62.2851
 20
2.13617
 11
62.1872
 21
2.71809
  0
LINE
  8
0
 10
62.1872
 20
2.71809
 11
62.1716
 21
2.80273
  0
LINE
  8
0
 10
62.1716
 20
2.80273
 11
62.1301
 21
3.01105
  0
LINE
  8
0
 10
62.1301
 20
3.01105
 11
62.0709
 21
3.23232
  0
LINE
  8
0
 10
62.0709
 20
3.23232
 11
61.5506
 21
5.09734
  0
LINE
  8
0
 10
61.5506
 20
5.09734
 11
61.4299
 21
5.39383
  0
LINE
  8
0
 10
61.4299
 20
5.39383
 11
60.6692
 21
7.21258
  0
LINE
  8
0
 10
60.6692
 20
7.21258
 11
60.6681
 21
7.21493
  0
LINE
  8
0
 10
60.6681
 20
7.21493
 11
60.5587
 21
7.43606
  0
LINE
  8
0
 10
60.5587
 20
7.43606
 11
60.5245
 21
7.50366
  0
LINE
  8
0
 10
60.5245
 20
7.50366
 11
60.0932
 21
8.31256
  0
LINE
  8
0
 10
60.0932
 20
8.31256
 11
59.895
 21
8.63539
  0
LINE
  8
0
 10
59.895
 20
8.63539
 11
58.468
 21
10.8421
  0
LINE
  8
0
 10
58.468
 20
10.8421
 11
58.3692
 21
10.9751
  0
LINE
  8
0
 10
58.3692
 20
10.9751
 11
57.8663
 21
11.6395
  0
LINE
  8
0
 10
57.8663
 20
11.6395
 11
57.7246
 21
11.8094
  0
LINE
  8
0
 10
57.7246
 20
11.8094
 11
56.5013
 21
13.2647
  0
LINE
  8
0
 10
56.5013
 20
13.2647
 11
56.3302
 21
13.4455
  0
LINE
  8
0
 10
56.3302
 20
13.4455
 11
55.2701
 21
14.5657
  0
LINE
  8
0
 10
55.2701
 20
14.5657
 11
55.0547
 21
14.7652
  0
LINE
  8
0
 10
55.0547
 20
14.7652
 11
53.1711
 21
16.5209
  0
LINE
  8
0
 10
53.1711
 20
16.5209
 11
52.6091
 21
16.9977
  0
LINE
  8
0
 10
52.6091
 20
16.9977
 11
52.4913
 21
17.0963
  0
LINE
  8
0
 10
52.4913
 20
17.0963
 11
49.7664
 21
19.1712
  0
LINE
  8
0
 10
49.7664
 20
19.1712
 11
49.4157
 21
19.4284
  0
LINE
  8
0
 10
49.4157
 20
19.4284
 11
49.2226
 21
19.5509
  0
LINE
  8
0
 10
49.2226
 20
19.5509
 11
46.7664
 21
21.1456
  0
LINE
  8
0
 10
46.7664
 20
21.1456
 11
46.2507
 21
21.4524
  0
LINE
  8
0
 10
46.2507
 20
21.4524
 11
46.0664
 21
21.5585
  0
LINE
  8
0
 10
46.0664
 20
21.5585
 11
43.2346
 21
23.0895
  0
LINE
  8
0
 10
43.2346
 20
23.0895
 11
43.0748
 21
23.1735
  0
LINE
  8
0
 10
43.0748
 20
23.1735
 11
42.7099
 21
23.3392
  0
LINE
  8
0
 10
42.7099
 20
23.3392
 11
39.4669
 21
24.8042
  0
LINE
  8
0
 10
39.4669
 20
24.8042
 11
39.4571
 21
24.8082
  0
LINE
  8
0
 10
39.4571
 20
24.8082
 11
39.0206
 21
24.9835
  0
LINE
  8
0
 10
39.0206
 20
24.9835
 11
38.6497
 21
25.1164
  0
LINE
  8
0
 10
38.6497
 20
25.1164
 11
34.8586
 21
26.4305
  0
LINE
  8
0
 10
34.8586
 20
26.4305
 11
34.5473
 21
26.5154
  0
LINE
  8
0
 10
34.5473
 20
26.5154
 11
32.0292
 21
27.1841
  0
LINE
  8
0
 10
32.0292
 20
27.1841
 11
31.9713
 21
27.1972
  0
LINE
  8
0
 10
31.9713
 20
27.1972
 11
30.6485
 21
27.4824
  0
LINE
  8
0
 10
30.6485
 20
27.4824
 11
30.3977
 21
27.5288
  0
LINE
  8
0
 10
30.3977
 20
27.5288
 11
26.8043
 21
28.0768
  0
LINE
  8
0
 10
26.8043
 20
28.0768
 11
26.4707
 21
28.1148
  0
LINE
  8
0
 10
26.4707
 20
28.1148
 11
25.4035
 21
28.2189
  0
LINE
  8
0
 10
25.4035
 20
28.2189
 11
24.975
 21
28.2537
  0
LINE
  8
0
 10
24.975
 20
28.2537
 11
24.92
 21
28.2576
  0
LINE
  8
0
 10
24.92
 20
28.2576
 11
22.5746
 21
28.3816
  0
LINE
  8
0
 10
22.5746
 20
28.3816
 11
22.114
 21
28.3913
  0
LINE
  8
0
 10
22.114
 20
28.3913
 11
18.164
 21
28.3693
  0
LINE
  8
0
 10
18.164
 20
28.3693
 11
18.0056
 21
28.3642
  0
LINE
  8
0
 10
18.0056
 20
28.3642
 11
17.6219
 21
28.3481
  0
LINE
  8
0
 10
17.6219
 20
28.3481
 11
17.2745
 21
28.324
  0
LINE
  8
0
 10
17.2745
 20
28.324
 11
13.5976
 21
28.0615
  0
LINE
  8
0
 10
13.5976
 20
28.0615
 11
13.1328
 21
28.0072
  0
LINE
  8
0
 10
13.1328
 20
28.0072
 11
8.95287
 21
27.5123
  0
LINE
  8
0
 10
8.95287
 20
27.5123
 11
4.35716
 21
26.8487
  0
LINE
  8
0
 10
4.35716
 20
26.8487
 11
3.20254
 21
26.671
  0
LINE
  8
0
 10
3.20254
 20
26.671
 11
-6.94803
 21
24.9602
  0
LINE
  8
0
 10
-6.94803
 20
24.9602
 11
-8.21464
 21
24.7229
  0
LINE
  8
0
 10
-8.21464
 20
24.7229
 11
-14.0866
 21
23.5815
  0
LINE
  8
0
 10
-14.0866
 20
23.5815
 11
-14.0995
 21
23.5789
  0
LINE
  8
0
 10
-14.0995
 20
23.5789
 11
-18.2934
 21
22.6957
  0
LINE
  8
0
 10
-18.2934
 20
22.6957
 11
-18.8494
 21
22.5786
  0
LINE
  8
0
 10
-18.8494
 20
22.5786
 11
-20.2437
 21
22.2528
  0
LINE
  8
0
 10
-20.2437
 20
22.2528
 11
-30.2333
 21
19.9173
  0
LINE
  8
0
 10
-30.2333
 20
19.9173
 11
-30.8042
 21
19.7708
  0
LINE
  8
0
 10
-30.8042
 20
19.7708
 11
-34.4492
 21
18.8353
  0
LINE
  8
0
 10
-34.4492
 20
18.8353
 11
-35.093
 21
18.6653
  0
LINE
  8
0
 10
-35.093
 20
18.6653
 11
-36.0941
 21
18.3913
  0
LINE
  8
0
 10
-36.0941
 20
18.3913
 11
-45.6671
 21
15.6868
  0
LINE
  8
0
 10
-45.6671
 20
15.6868
 11
-46.3713
 21
15.4812
  0
LINE
  8
0
 10
-46.3713
 20
15.4812
 11
-47.5652
 21
15.1091
  0
LINE
  8
0
 10
-47.5652
 20
15.1091
 11
-53.6543
 21
13.2067
  0
LINE
  8
0
 10
-53.6543
 20
13.2067
 11
-54.1015
 21
13.0594
  0
LINE
  8
0
 10
-54.1015
 20
13.0594
 11
-57.1699
 21
12.0432
  0
LINE
  8
0
 10
-57.1699
 20
12.0432
 11
-58.898
 21
11.4334
  0
LINE
  8
0
 10
-58.898
 20
11.4334
 11
-67.5867
 21
8.32654
  0
LINE
  8
0
 10
-67.5867
 20
8.32654
 11
-68.4774
 21
7.98617
  0
LINE
  8
0
 10
-68.4774
 20
7.98617
 11
-69.4806
 21
7.60398
  0
LINE
  8
0
 10
-69.4806
 20
7.60398
 11
-71.1488
 21
6.9571
  0
LINE
  8
0
 10
-71.1488
 20
6.9571
 11
-71.4394
 21
6.84217
  0
LINE
  8
0
 10
-71.4394
 20
6.84217
 11
-77.3734
 21
4.41603
  0
LINE
  8
0
 10
-77.3734
 20
4.41603
 11
-79.2638
 21
3.62126
  0
LINE
  8
0
 10
-79.2638
 20
3.62126
 11
-80.4068
 21
3.09737
  0
LINE
  8
0
 10
-80.4068
 20
3.09737
 11
-87.5599
 21
-0.117787
  0
ENDSEC
  0
SECTION
  2
OBJECTS
  0
DICTIONARY
  0
ENDSEC
  0
EOF
