  0
SECTION
  2
BLOCKS
  0
ENDSEC
  0
SECTION
  2
ENTITIES
  0
LINE
  8
0
 10
21.444
 20
-28.3502
 11
21.9016
 21
-28.3413
  0
LINE
  8
0
 10
21.9016
 20
-28.3413
 11
22.0016
 21
-28.3389
  0
LINE
  8
0
 10
22.0016
 20
-28.3389
 11
22.084
 21
-28.3365
  0
LINE
  8
0
 10
22.084
 20
-28.3365
 11
24.832
 21
-28.1852
  0
LINE
  8
0
 10
24.832
 20
-28.1852
 11
25.2493
 21
-28.1601
  0
LINE
  8
0
 10
25.2493
 20
-28.1601
 11
25.6379
 21
-28.1319
  0
LINE
  8
0
 10
25.6379
 20
-28.1319
 11
25.9735
 21
-28.1011
  0
LINE
  8
0
 10
25.9735
 20
-28.1011
 11
26.1018
 21
-28.0876
  0
LINE
  8
0
 10
26.1018
 20
-28.0876
 11
26.5535
 21
-28.0268
  0
LINE
  8
0
 10
26.5535
 20
-28.0268
 11
28.7666
 21
-27.7498
  0
LINE
  8
0
 10
28.7666
 20
-27.7498
 11
29.0658
 21
-27.6986
  0
LINE
  8
0
 10
29.0658
 20
-27.6986
 11
30.1183
 21
-27.5178
  0
LINE
  8
0
 10
30.1183
 20
-27.5178
 11
30.1284
 21
-27.5159
  0
LINE
  8
0
 10
30.1284
 20
-27.5159
 11
30.5136
 21
-27.4248
  0
LINE
  8
0
 10
30.5136
 20
-27.4248
 11
34.2603
 21
-26.5368
  0
LINE
  8
0
 10
34.2603
 20
-26.5368
 11
34.2655
 21
-26.5353
  0
LINE
  8
0
 10
34.2655
 20
-26.5353
 11
34.7815
 21
-26.3742
  0
LINE
  8
0
 10
34.7815
 20
-26.3742
 11
36.5221
 21
-25.8313
  0
LINE
  8
0
 10
36.5221
 20
-25.8313
 11
36.7096
 21
-25.7636
  0
LINE
  8
0
 10
36.7096
 20
-25.7636
 11
38.3787
 21
-25.1628
  0
LINE
  8
0
 10
38.3787
 20
-25.1628
 11
38.3924
 21
-25.1576
  0
LINE
  8
0
 10
38.3924
 20
-25.1576
 11
38.804
 21
-24.979
  0
LINE
  8
0
 10
38.804
 20
-24.979
 11
41.4353
 21
-23.881
  0
LINE
  8
0
 10
41.4353
 20
-23.881
 11
41.6076
 21
-23.8002
  0
LINE
  8
0
 10
41.6076
 20
-23.8002
 11
41.8741
 21
-23.6669
  0
LINE
  8
0
 10
41.8741
 20
-23.6669
 11
43.694
 21
-22.7861
  0
LINE
  8
0
 10
43.694
 20
-22.7861
 11
43.8848
 21
-22.6826
  0
LINE
  8
0
 10
43.8848
 20
-22.6826
 11
45.3353
 21
-21.9028
  0
LINE
  8
0
 10
45.3353
 20
-21.9028
 11
45.3856
 21
-21.8743
  0
LINE
  8
0
 10
45.3856
 20
-21.8743
 11
46.1787
 21
-21.3795
  0
LINE
  8
0
 10
46.1787
 20
-21.3795
 11
49.0401
 21
-19.6086
  0
LINE
  8
0
 10
49.0401
 20
-19.6086
 11
49.0458
 21
-19.6048
  0
LINE
  8
0
 10
49.0458
 20
-19.6048
 11
49.1657
 21
-19.5204
  0
LINE
  8
0
 10
49.1657
 20
-19.5204
 11
50.1841
 21
-18.8039
  0
LINE
  8
0
 10
50.1841
 20
-18.8039
 11
50.6461
 21
-18.4495
  0
LINE
  8
0
 10
50.6461
 20
-18.4495
 11
52.4062
 21
-17.0827
  0
LINE
  8
0
 10
52.4062
 20
-17.0827
 11
52.4622
 21
-17.0367
  0
LINE
  8
0
 10
52.4622
 20
-17.0367
 11
52.7619
 21
-16.7702
  0
LINE
  8
0
 10
52.7619
 20
-16.7702
 11
54.8856
 21
-14.8584
  0
LINE
  8
0
 10
54.8856
 20
-14.8584
 11
54.89
 21
-14.8541
  0
LINE
  8
0
 10
54.89
 20
-14.8541
 11
54.9735
 21
-14.7713
  0
LINE
  8
0
 10
54.9735
 20
-14.7713
 11
55.2805
 21
-14.4668
  0
LINE
  8
0
 10
55.2805
 20
-14.4668
 11
55.5067
 21
-14.2304
  0
LINE
  8
0
 10
55.5067
 20
-14.2304
 11
57.0616
 21
-12.5184
  0
LINE
  8
0
 10
57.0616
 20
-12.5184
 11
57.2193
 21
-12.3378
  0
LINE
  8
0
 10
57.2193
 20
-12.3378
 11
57.4501
 21
-12.0612
  0
LINE
  8
0
 10
57.4501
 20
-12.0612
 11
57.5679
 21
-11.9116
  0
LINE
  8
0
 10
57.5679
 20
-11.9116
 11
57.8105
 21
-11.5667
  0
LINE
  8
0
 10
57.8105
 20
-11.5667
 11
59.1843
 21
-9.71173
  0
LINE
  8
0
 10
59.1843
 20
-9.71173
 11
59.3533
 21
-9.45053
  0
LINE
  8
0
 10
59.3533
 20
-9.45053
 11
59.4403
 21
-9.30965
  0
LINE
  8
0
 10
59.4403
 20
-9.30965
 11
59.8561
 21
-8.63011
  0
LINE
  8
0
 10
59.8561
 20
-8.63011
 11
59.8661
 21
-8.61288
  0
LINE
  8
0
 10
59.8661
 20
-8.61288
 11
59.9203
 21
-8.51712
  0
LINE
  8
0
 10
59.9203
 20
-8.51712
 11
60.1362
 21
-8.06487
  0
LINE
  8
0
 10
60.1362
 20
-8.06487
 11
61.1377
 21
-6.07388
  0
LINE
  8
0
 10
61.1377
 20
-6.07388
 11
61.1533
 21
-6.03577
  0
LINE
  8
0
 10
61.1533
 20
-6.03577
 11
61.19
 21
-5.94167
  0
LINE
  8
0
 10
61.19
 20
-5.94167
 11
61.3821
 21
-5.45976
  0
LINE
  8
0
 10
61.3821
 20
-5.45976
 11
61.4595
 21
-5.21002
  0
LINE
  8
0
 10
61.4595
 20
-5.21002
 11
61.9834
 21
-3.54558
  0
LINE
  8
0
 10
61.9834
 20
-3.54558
 11
61.9882
 21
-3.52588
  0
LINE
  8
0
 10
61.9882
 20
-3.52588
 11
62.0326
 21
-3.31894
  0
LINE
  8
0
 10
62.0326
 20
-3.31894
 11
62.1915
 21
-2.59137
  0
LINE
  8
0
 10
62.1915
 20
-2.59137
 11
62.1924
 21
-2.58673
  0
LINE
  8
0
 10
62.1924
 20
-2.58673
 11
62.2163
 21
-2.41626
  0
LINE
  8
0
 10
62.2163
 20
-2.41626
 11
62.3795
 21
-1.24361
  0
LINE
  8
0
 10
62.3795
 20
-1.24361
 11
62.3942
 21
-0.988693
  0
LINE
  8
0
 10
62.3942
 20
-0.988693
 11
62.4366
 21
-0.248245
  0
LINE
  8
0
 10
62.4366
 20
-0.248245
 11
62.4366
 21
-0.246033
  0
LINE
  8
0
 10
62.4366
 20
-0.246033
 11
62.4193
 21
0.0428619
  0
LINE
  8
0
 10
62.4193
 20
0.0428619
 11
62.4004
 21
0.352615
  0
LINE
  8
0
 10
62.4004
 20
0.352615
 11
62.2913
 21
2.09512
  0
LINE
  8
0
 10
62.2913
 20
2.09512
 11
62.2902
 21
2.10222
  0
LINE
  8
0
 10
62.2902
 20
2.10222
 11
62.2806
 21
2.16585
  0
LINE
  8
0
 10
62.2806
 20
2.16585
 11
62.1977
 21
2.65823
  0
LINE
  8
0
 10
62.1977
 20
2.65823
 11
62.1872
 21
2.71808
  0
LINE
  8
0
 10
62.1872
 20
2.71808
 11
62.1716
 21
2.80272
  0
LINE
  8
0
 10
62.1716
 20
2.80272
 11
62.1301
 21
3.01105
  0
LINE
  8
0
 10
62.1301
 20
3.01105
 11
62.0066
 21
3.47281
  0
LINE
  8
0
 10
62.0066
 20
3.47281
 11
61.5663
 21
5.05087
  0
LINE
  8
0
 10
61.5663
 20
5.05087
 11
61.5506
 21
5.09734
  0
LINE
  8
0
 10
61.5506
 20
5.09734
 11
61.4299
 21
5.39383
  0
LINE
  8
0
 10
61.4299
 20
5.39383
 11
60.6692
 21
7.21257
  0
LINE
  8
0
 10
60.6692
 20
7.21257
 11
60.6668
 21
7.21756
  0
LINE
  8
0
 10
60.6668
 20
7.21756
 11
60.5743
 21
7.40466
  0
LINE
  8
0
 10
60.5743
 20
7.40466
 11
60.5587
 21
7.43605
  0
LINE
  8
0
 10
60.5587
 20
7.43605
 11
60.5245
 21
7.50366
  0
LINE
  8
0
 10
60.5245
 20
7.50366
 11
60.5016
 21
7.54819
  0
LINE
  8
0
 10
60.5016
 20
7.54819
 11
60.1366
 21
8.23264
  0
LINE
  8
0
 10
60.1366
 20
8.23264
 11
60.0931
 21
8.31256
  0
LINE
  8
0
 10
60.0931
 20
8.31256
 11
59.8949
 21
8.63538
  0
LINE
  8
0
 10
59.8949
 20
8.63538
 11
59.7137
 21
8.92151
  0
LINE
  8
0
 10
59.7137
 20
8.92151
 11
58.5063
 21
10.7887
  0
LINE
  8
0
 10
58.5063
 20
10.7887
 11
58.468
 21
10.8421
  0
LINE
  8
0
 10
58.468
 20
10.8421
 11
58.3692
 21
10.9751
  0
LINE
  8
0
 10
58.3692
 20
10.9751
 11
57.8663
 21
11.6395
  0
LINE
  8
0
 10
57.8663
 20
11.6395
 11
57.557
 21
12.0101
  0
LINE
  8
0
 10
57.557
 20
12.0101
 11
56.5219
 21
13.2416
  0
LINE
  8
0
 10
56.5219
 20
13.2416
 11
56.5013
 21
13.2647
  0
LINE
  8
0
 10
56.5013
 20
13.2647
 11
56.3302
 21
13.4455
  0
LINE
  8
0
 10
56.3302
 20
13.4455
 11
55.2701
 21
14.5657
  0
LINE
  8
0
 10
55.2701
 20
14.5657
 11
55.2466
 21
14.5892
  0
LINE
  8
0
 10
55.2466
 20
14.5892
 11
54.7649
 21
15.0353
  0
LINE
  8
0
 10
54.7649
 20
15.0353
 11
53.1711
 21
16.5209
  0
LINE
  8
0
 10
53.1711
 20
16.5209
 11
52.6091
 21
16.9977
  0
LINE
  8
0
 10
52.6091
 20
16.9977
 11
52.4913
 21
17.0963
  0
LINE
  8
0
 10
52.4913
 20
17.0963
 11
52.4257
 21
17.1501
  0
LINE
  8
0
 10
52.4257
 20
17.1501
 11
50.12
 21
18.9057
  0
LINE
  8
0
 10
50.12
 20
18.9057
 11
49.7664
 21
19.1712
  0
LINE
  8
0
 10
49.7664
 20
19.1712
 11
49.4157
 21
19.4284
  0
LINE
  8
0
 10
49.4157
 20
19.4284
 11
49.2975
 21
19.5089
  0
LINE
  8
0
 10
49.2975
 20
19.5089
 11
48.8447
 21
19.7962
  0
LINE
  8
0
 10
48.8447
 20
19.7962
 11
46.7664
 21
21.1456
  0
LINE
  8
0
 10
46.7664
 20
21.1456
 11
46.2507
 21
21.4524
  0
LINE
  8
0
 10
46.2507
 20
21.4524
 11
46.0664
 21
21.5585
  0
LINE
  8
0
 10
46.0664
 20
21.5585
 11
45.888
 21
21.6596
  0
LINE
  8
0
 10
45.888
 20
21.6596
 11
43.4919
 21
22.9551
  0
LINE
  8
0
 10
43.4919
 20
22.9551
 11
43.1017
 21
23.16
  0
LINE
  8
0
 10
43.1017
 20
23.16
 11
43.0748
 21
23.1734
  0
LINE
  8
0
 10
43.0748
 20
23.1734
 11
42.7099
 21
23.3392
  0
LINE
  8
0
 10
42.7099
 20
23.3392
 11
39.4669
 21
24.8042
  0
LINE
  8
0
 10
39.4669
 20
24.8042
 11
39.4426
 21
24.814
  0
LINE
  8
0
 10
39.4426
 20
24.814
 11
39.0732
 21
24.9624
  0
LINE
  8
0
 10
39.0732
 20
24.9624
 11
39.0205
 21
24.9835
  0
LINE
  8
0
 10
39.0205
 20
24.9835
 11
38.6497
 21
25.1163
  0
LINE
  8
0
 10
38.6497
 20
25.1163
 11
38.1513
 21
25.2926
  0
LINE
  8
0
 10
38.1513
 20
25.2926
 11
34.9435
 21
26.4046
  0
LINE
  8
0
 10
34.9435
 20
26.4046
 11
34.8586
 21
26.4305
  0
LINE
  8
0
 10
34.8586
 20
26.4305
 11
34.5473
 21
26.5154
  0
LINE
  8
0
 10
34.5473
 20
26.5154
 11
32.0292
 21
27.1841
  0
LINE
  8
0
 10
32.0292
 20
27.1841
 11
31.8827
 21
27.2171
  0
LINE
  8
0
 10
31.8827
 20
27.2171
 11
30.7634
 21
27.4585
  0
LINE
  8
0
 10
30.7634
 20
27.4585
 11
30.6485
 21
27.4824
  0
LINE
  8
0
 10
30.6485
 20
27.4824
 11
30.3977
 21
27.5288
  0
LINE
  8
0
 10
30.3977
 20
27.5288
 11
30.1278
 21
27.5761
  0
LINE
  8
0
 10
30.1278
 20
27.5761
 11
27.0872
 21
28.0398
  0
LINE
  8
0
 10
27.0872
 20
28.0398
 11
26.8043
 21
28.0768
  0
LINE
  8
0
 10
26.8043
 20
28.0768
 11
26.4707
 21
28.1148
  0
LINE
  8
0
 10
26.4707
 20
28.1148
 11
25.4035
 21
28.2189
  0
LINE
  8
0
 10
25.4035
 20
28.2189
 11
24.975
 21
28.2537
  0
LINE
  8
0
 10
24.975
 20
28.2537
 11
24.8356
 21
28.2636
  0
LINE
  8
0
 10
24.8356
 20
28.2636
 11
22.851
 21
28.3685
  0
LINE
  8
0
 10
22.851
 20
28.3685
 11
22.5746
 21
28.3815
  0
LINE
  8
0
 10
22.5746
 20
28.3815
 11
22.114
 21
28.3913
  0
LINE
  8
0
 10
22.114
 20
28.3913
 11
21.6862
 21
28.3932
  0
LINE
  8
0
 10
21.6862
 20
28.3932
 11
18.3439
 21
28.3746
  0
LINE
  8
0
 10
18.3439
 20
28.3746
 11
18.164
 21
28.3693
  0
LINE
  8
0
 10
18.164
 20
28.3693
 11
18.0056
 21
28.3642
  0
LINE
  8
0
 10
18.0056
 20
28.3642
 11
17.6219
 21
28.3481
  0
LINE
  8
0
 10
17.6219
 20
28.3481
 11
16.7516
 21
28.2876
  0
LINE
  8
0
 10
16.7516
 20
28.2876
 11
13.6404
 21
28.0656
  0
LINE
  8
0
 10
13.6404
 20
28.0656
 11
13.5976
 21
28.0615
  0
LINE
  8
0
 10
13.5976
 20
28.0615
 11
13.1328
 21
28.0072
  0
LINE
  8
0
 10
13.1328
 20
28.0072
 11
8.95287
 21
27.5123
  0
LINE
  8
0
 10
8.95287
 20
27.5123
 11
4.35716
 21
26.8487
  0
LINE
  8
0
 10
4.35716
 20
26.8487
 11
3.20253
 21
26.671
  0
LINE
  8
0
 10
3.20253
 20
26.671
 11
2.31627
 21
26.5279
  0
LINE
  8
0
 10
2.31627
 20
26.5279
 11
-6.27258
 21
25.0803
  0
LINE
  8
0
 10
-6.27258
 20
25.0803
 11
-6.94803
 21
24.9602
  0
LINE
  8
0
 10
-6.94803
 20
24.9602
 11
-8.21463
 21
24.7229
  0
LINE
  8
0
 10
-8.21463
 20
24.7229
 11
-14.0866
 21
23.5815
  0
LINE
  8
0
 10
-14.0866
 20
23.5815
 11
-14.1146
 21
23.5758
  0
LINE
  8
0
 10
-14.1146
 20
23.5758
 11
-18.8366
 21
22.5814
  0
LINE
  8
0
 10
-18.8366
 20
22.5814
 11
-18.8494
 21
22.5786
  0
LINE
  8
0
 10
-18.8494
 20
22.5786
 11
-20.2437
 21
22.2528
  0
LINE
  8
0
 10
-20.2437
 20
22.2528
 11
-21.7794
 21
21.8938
  0
LINE
  8
0
 10
-21.7794
 20
21.8938
 11
-30.2321
 21
19.9176
  0
LINE
  8
0
 10
-30.2321
 20
19.9176
 11
-34.4492
 21
18.8353
  0
LINE
  8
0
 10
-34.4492
 20
18.8353
 11
-35.093
 21
18.6653
  0
LINE
  8
0
 10
-35.093
 20
18.6653
 11
-36.0941
 21
18.3913
  0
LINE
  8
0
 10
-36.0941
 20
18.3913
 11
-36.9297
 21
18.1616
  0
LINE
  8
0
 10
-36.9297
 20
18.1616
 11
-45.0298
 21
15.8732
  0
LINE
  8
0
 10
-45.0298
 20
15.8732
 11
-46.3181
 21
15.4972
  0
LINE
  8
0
 10
-46.3181
 20
15.4972
 11
-46.3713
 21
15.4812
  0
LINE
  8
0
 10
-46.3713
 20
15.4812
 11
-47.5652
 21
15.1091
  0
LINE
  8
0
 10
-47.5652
 20
15.1091
 11
-53.6543
 21
13.2067
  0
LINE
  8
0
 10
-53.6543
 20
13.2067
 11
-54.4457
 21
12.946
  0
LINE
  8
0
 10
-54.4457
 20
12.946
 11
-57.042
 21
12.0861
  0
LINE
  8
0
 10
-57.042
 20
12.0861
 11
-57.1699
 21
12.0432
  0
LINE
  8
0
 10
-57.1699
 20
12.0432
 11
-58.898
 21
11.4333
  0
LINE
  8
0
 10
-58.898
 20
11.4333
 11
-60.0512
 21
11.0242
  0
LINE
  8
0
 10
-60.0512
 20
11.0242
 11
-67.4032
 21
8.39543
  0
LINE
  8
0
 10
-67.4032
 20
8.39543
 11
-67.5867
 21
8.32654
  0
LINE
  8
0
 10
-67.5867
 20
8.32654
 11
-68.4774
 21
7.98616
  0
LINE
  8
0
 10
-68.4774
 20
7.98616
 11
-69.4806
 21
7.60397
  0
LINE
  8
0
 10
-69.4806
 20
7.60397
 11
-71.1488
 21
6.95709
  0
LINE
  8
0
 10
-71.1488
 20
6.95709
 11
-71.6273
 21
6.76787
  0
LINE
  8
0
 10
-71.6273
 20
6.76787
 11
-76.6483
 21
4.715
  0
LINE
  8
0
 10
-76.6483
 20
4.715
 11
-77.3734
 21
4.41603
  0
LINE
  8
0
 10
-77.3734
 20
4.41603
 11
-79.2638
 21
3.62125
  0
LINE
  8
0
 10
-79.2638
 20
3.62125
 11
-79.6765
 21
3.44188
  0
LINE
  8
0
 10
-79.6765
 20
3.44188
 11
-81.5073
 21
2.60271
  0
LINE
  8
0
 10
-81.5073
 20
2.60271
 11
-87.5599
 21
-0.117783
  0
LINE
  8
0
 10
-87.5599
 20
-0.117783
 11
-86.3366
 21
-0.674545
  0
LINE
  8
0
 10
-86.3366
 20
-0.674545
 11
-83.4355
 21
-2.01013
  0
LINE
  8
0
 10
-83.4355
 20
-2.01013
 11
-83.2053
 21
-2.11258
  0
LINE
  8
0
 10
-83.2053
 20
-2.11258
 11
-80.8421
 21
-3.09866
  0
LINE
  8
0
 10
-80.8421
 20
-3.09866
 11
-74.4651
 21
-5.82471
  0
LINE
  8
0
 10
-74.4651
 20
-5.82471
 11
-74.1848
 21
-5.93703
  0
LINE
  8
0
 10
-74.1848
 20
-5.93703
 11
-73.9961
 21
-6.01147
  0
LINE
  8
0
 10
-73.9961
 20
-6.01147
 11
-72.056
 21
-6.78642
  0
LINE
  8
0
 10
-72.056
 20
-6.78642
 11
-70.2495
 21
-7.47475
  0
LINE
  8
0
 10
-70.2495
 20
-7.47475
 11
-65.9023
 21
-9.12498
  0
LINE
  8
0
 10
-65.9023
 20
-9.12498
 11
-65.8173
 21
-9.15627
  0
LINE
  8
0
 10
-65.8173
 20
-9.15627
 11
-63.9642
 21
-9.80453
  0
LINE
  8
0
 10
-63.9642
 20
-9.80453
 11
-62.7859
 21
-10.2152
  0
LINE
  8
0
 10
-62.7859
 20
-10.2152
 11
-56.2235
 21
-12.501
  0
LINE
  8
0
 10
-56.2235
 20
-12.501
 11
-56.2086
 21
-12.5059
  0
LINE
  8
0
 10
-56.2086
 20
-12.5059
 11
-55.704
 21
-12.6714
  0
LINE
  8
0
 10
-55.704
 20
-12.6714
 11
-54.5616
 21
-13.046
  0
LINE
  8
0
 10
-54.5616
 20
-13.046
 11
-53.121
 21
-13.4931
  0
LINE
  8
0
 10
-53.121
 20
-13.4931
 11
-46.1912
 21
-15.647
  0
LINE
  8
0
 10
-46.1912
 20
-15.647
 11
-46.1591
 21
-15.6565
  0
LINE
  8
0
 10
-46.1591
 20
-15.6565
 11
-44.8707
 21
-16.0288
  0
LINE
  8
0
 10
-44.8707
 20
-16.0288
 11
-36.935
 21
-18.2465
  0
LINE
  8
0
 10
-36.935
 20
-18.2465
 11
-36.1087
 21
-18.4714
  0
LINE
  8
0
 10
-36.1087
 20
-18.4714
 11
-34.9829
 21
-18.7748
  0
LINE
  8
0
 10
-34.9829
 20
-18.7748
 11
-33.5274
 21
-19.1532
  0
LINE
  8
0
 10
-33.5274
 20
-19.1532
 11
-32.6153
 21
-19.3835
  0
LINE
  8
0
 10
-32.6153
 20
-19.3835
 11
-25.6341
 21
-21.0826
  0
LINE
  8
0
 10
-25.6341
 20
-21.0826
 11
-24.8091
 21
-21.2794
  0
LINE
  8
0
 10
-24.8091
 20
-21.2794
 11
-23.3449
 21
-21.6173
  0
LINE
  8
0
 10
-23.3449
 20
-21.6173
 11
-22.6311
 21
-21.7757
  0
LINE
  8
0
 10
-22.6311
 20
-21.7757
 11
-21.4338
 21
-22.0245
  0
LINE
  8
0
 10
-21.4338
 20
-22.0245
 11
-14.1207
 21
-23.5994
  0
LINE
  8
0
 10
-14.1207
 20
-23.5994
 11
-12.0176
 21
-24.0164
  0
LINE
  8
0
 10
-12.0176
 20
-24.0164
 11
-2.48572
 21
-25.7479
  0
LINE
  8
0
 10
-2.48572
 20
-25.7479
 11
9.02704
 21
-27.4877
  0
LINE
  8
0
 10
9.02704
 20
-27.4877
 11
10.7136
 21
-27.7029
  0
LINE
  8
0
 10
10.7136
 20
-27.7029
 11
11.1565
 21
-27.754
  0
LINE
  8
0
 10
11.1565
 20
-27.754
 11
11.5398
 21
-27.7951
  0
LINE
  8
0
 10
11.5398
 20
-27.7951
 11
15.9763
 21
-28.1952
  0
LINE
  8
0
 10
15.9763
 20
-28.1952
 11
16.3997
 21
-28.2269
  0
LINE
  8
0
 10
16.3997
 20
-28.2269
 11
16.8192
 21
-28.2542
  0
LINE
  8
0
 10
16.8192
 20
-28.2542
 11
17.0246
 21
-28.2636
  0
LINE
  8
0
 10
17.0246
 20
-28.2636
 11
20.6827
 21
-28.3421
  0
LINE
  8
0
 10
20.6827
 20
-28.3421
 11
21.444
 21
-28.3502
  0
ENDSEC
  0
SECTION
  2
OBJECTS
  0
DICTIONARY
  0
ENDSEC
  0
EOF
