  0
SECTION
  2
BLOCKS
  0
ENDSEC
  0
SECTION
  2
ENTITIES
  0
LINE
  8
0
 10
-87.5599
 20
-0.117814
 11
-86.6749
 21
-0.520602
  0
LINE
  8
0
 10
-86.6749
 20
-0.520602
 11
-83.5506
 21
-1.95891
  0
LINE
  8
0
 10
-83.5506
 20
-1.95891
 11
-82.1457
 21
-2.54514
  0
LINE
  8
0
 10
-82.1457
 20
-2.54514
 11
-74.6053
 21
-5.76855
  0
LINE
  8
0
 10
-74.6053
 20
-5.76855
 11
-74.5253
 21
-5.80011
  0
LINE
  8
0
 10
-74.5253
 20
-5.80011
 11
-72.056
 21
-6.78643
  0
LINE
  8
0
 10
-72.056
 20
-6.78643
 11
-71.3076
 21
-7.07158
  0
LINE
  8
0
 10
-71.3076
 20
-7.07158
 11
-65.7748
 21
-9.17191
  0
LINE
  8
0
 10
-65.7748
 20
-9.17191
 11
-64.5534
 21
-9.5992
  0
LINE
  8
0
 10
-64.5534
 20
-9.5992
 11
-56.2012
 21
-12.5084
  0
LINE
  8
0
 10
-56.2012
 20
-12.5084
 11
-56.0156
 21
-12.5693
  0
LINE
  8
0
 10
-56.0156
 20
-12.5693
 11
-54.5616
 21
-13.046
  0
LINE
  8
0
 10
-54.5616
 20
-13.046
 11
-53.6701
 21
-13.3227
  0
LINE
  8
0
 10
-53.6701
 20
-13.3227
 11
-46.2072
 21
-15.6423
  0
LINE
  8
0
 10
-46.2072
 20
-15.6423
 11
-45.7957
 21
-15.7612
  0
LINE
  8
0
 10
-45.7957
 20
-15.7612
 11
-35.6956
 21
-18.5838
  0
LINE
  8
0
 10
-35.6956
 20
-18.5838
 11
-35.0949
 21
-18.7457
  0
LINE
  8
0
 10
-35.0949
 20
-18.7457
 11
-33.5274
 21
-19.1532
  0
LINE
  8
0
 10
-33.5274
 20
-19.1532
 11
-33.2818
 21
-19.2152
  0
LINE
  8
0
 10
-33.2818
 20
-19.2152
 11
-24.3966
 21
-21.3778
  0
LINE
  8
0
 10
-24.3966
 20
-21.3778
 11
-23.7018
 21
-21.5381
  0
LINE
  8
0
 10
-23.7018
 20
-21.5381
 11
-23.4248
 21
-21.5957
  0
LINE
  8
0
 10
-23.4248
 20
-21.5957
 11
-14.1197
 21
-23.5997
  0
LINE
  8
0
 10
-14.1197
 20
-23.5997
 11
-14.0168
 21
-23.6201
  0
LINE
  8
0
 10
-14.0168
 20
-23.6201
 11
-12.0176
 21
-24.0164
  0
LINE
  8
0
 10
-12.0176
 20
-24.0164
 11
-11.5766
 21
-24.0965
  0
LINE
  8
0
 10
-11.5766
 20
-24.0965
 11
-2.48551
 21
-25.748
  0
LINE
  8
0
 10
-2.48551
 20
-25.748
 11
-2.06438
 21
-25.8116
  0
LINE
  8
0
 10
-2.06438
 20
-25.8116
 11
9.02705
 21
-27.4877
  0
LINE
  8
0
 10
9.02705
 20
-27.4877
 11
10.8434
 21
-27.7194
  0
LINE
  8
0
 10
10.8434
 20
-27.7194
 11
10.9648
 21
-27.7335
  0
LINE
  8
0
 10
10.9648
 20
-27.7335
 11
16.6114
 21
-28.2427
  0
LINE
  8
0
 10
16.6114
 20
-28.2427
 11
16.7166
 21
-28.2496
  0
LINE
  8
0
 10
16.7166
 20
-28.2496
 11
21.3724
 21
-28.3494
  0
LINE
  8
0
 10
21.3724
 20
-28.3494
 11
21.444
 21
-28.3502
  0
LINE
  8
0
 10
21.444
 20
-28.3502
 11
21.9368
 21
-28.3406
  0
LINE
  8
0
 10
21.9368
 20
-28.3406
 11
21.9605
 21
-28.34
  0
LINE
  8
0
 10
21.9605
 20
-28.34
 11
25.4579
 21
-28.1475
  0
LINE
  8
0
 10
25.4579
 20
-28.1475
 11
25.5479
 21
-28.141
  0
LINE
  8
0
 10
25.5479
 20
-28.141
 11
25.9094
 21
-28.1078
  0
LINE
  8
0
 10
25.9094
 20
-28.1078
 11
25.9507
 21
-28.1022
  0
LINE
  8
0
 10
25.9507
 20
-28.1022
 11
28.7666
 21
-27.7498
  0
LINE
  8
0
 10
28.7666
 20
-27.7498
 11
28.7939
 21
-27.7451
  0
LINE
  8
0
 10
28.7939
 20
-27.7451
 11
30.1334
 21
-27.515
  0
LINE
  8
0
 10
30.1334
 20
-27.515
 11
30.2228
 21
-27.4938
  0
LINE
  8
0
 10
30.2228
 20
-27.4938
 11
34.2577
 21
-26.5376
  0
LINE
  8
0
 10
34.2577
 20
-26.5376
 11
34.3068
 21
-26.5222
  0
LINE
  8
0
 10
34.3068
 20
-26.5222
 11
36.5221
 21
-25.8313
  0
LINE
  8
0
 10
36.5221
 20
-25.8313
 11
36.5666
 21
-25.8152
  0
LINE
  8
0
 10
36.5666
 20
-25.8152
 11
38.3719
 21
-25.1654
  0
LINE
  8
0
 10
38.3719
 20
-25.1654
 11
38.469
 21
-25.1233
  0
LINE
  8
0
 10
38.469
 20
-25.1233
 11
41.3492
 21
-23.9214
  0
LINE
  8
0
 10
41.3492
 20
-23.9214
 11
41.3784
 21
-23.9068
  0
LINE
  8
0
 10
41.3784
 20
-23.9068
 11
43.694
 21
-22.7861
  0
LINE
  8
0
 10
43.694
 20
-22.7861
 11
43.748
 21
-22.7568
  0
LINE
  8
0
 10
43.748
 20
-22.7568
 11
45.3101
 21
-21.9171
  0
LINE
  8
0
 10
45.3101
 20
-21.9171
 11
45.4068
 21
-21.8568
  0
LINE
  8
0
 10
45.4068
 20
-21.8568
 11
49.0486
 21
-19.6028
  0
LINE
  8
0
 10
49.0486
 20
-19.6028
 11
49.0874
 21
-19.5756
  0
LINE
  8
0
 10
49.0874
 20
-19.5756
 11
50.1841
 21
-18.8039
  0
LINE
  8
0
 10
50.1841
 20
-18.8039
 11
50.25
 21
-18.7534
  0
LINE
  8
0
 10
50.25
 20
-18.7534
 11
52.4902
 21
-17.0138
  0
LINE
  8
0
 10
52.4902
 20
-17.0138
 11
52.5963
 21
-16.9194
  0
LINE
  8
0
 10
52.5963
 20
-16.9194
 11
54.8834
 21
-14.8606
  0
LINE
  8
0
 10
54.8834
 20
-14.8606
 11
54.8986
 21
-14.8455
  0
LINE
  8
0
 10
54.8986
 20
-14.8455
 11
55.2805
 21
-14.4668
  0
LINE
  8
0
 10
55.2805
 20
-14.4668
 11
55.3191
 21
-14.4265
  0
LINE
  8
0
 10
55.3191
 20
-14.4265
 11
57.2982
 21
-12.2475
  0
LINE
  8
0
 10
57.2982
 20
-12.2475
 11
57.3912
 21
-12.136
  0
LINE
  8
0
 10
57.3912
 20
-12.136
 11
57.4358
 21
-12.0726
  0
LINE
  8
0
 10
57.4358
 20
-12.0726
 11
59.1843
 21
-9.71173
  0
LINE
  8
0
 10
59.1843
 20
-9.71173
 11
59.3663
 21
-9.43044
  0
LINE
  8
0
 10
59.3663
 20
-9.43044
 11
59.4033
 21
-9.37054
  0
LINE
  8
0
 10
59.4033
 20
-9.37054
 11
59.8511
 21
-8.63873
  0
LINE
  8
0
 10
59.8511
 20
-8.63873
 11
59.862
 21
-8.61946
  0
LINE
  8
0
 10
59.862
 20
-8.61946
 11
59.9186
 21
-8.50083
  0
LINE
  8
0
 10
59.9186
 20
-8.50083
 11
61.1299
 21
-6.09295
  0
LINE
  8
0
 10
61.1299
 20
-6.09295
 11
61.1376
 21
-6.07311
  0
LINE
  8
0
 10
61.1376
 20
-6.07311
 11
61.3821
 21
-5.45977
  0
LINE
  8
0
 10
61.3821
 20
-5.45977
 11
61.4168
 21
-5.34792
  0
LINE
  8
0
 10
61.4168
 20
-5.34792
 11
61.9809
 21
-3.55544
  0
LINE
  8
0
 10
61.9809
 20
-3.55544
 11
61.9906
 21
-3.51043
  0
LINE
  8
0
 10
61.9906
 20
-3.51043
 11
62.1928
 21
-2.58442
  0
LINE
  8
0
 10
62.1928
 20
-2.58442
 11
62.2038
 21
-2.50648
  0
LINE
  8
0
 10
62.2038
 20
-2.50648
 11
62.3795
 21
-1.24362
  0
LINE
  8
0
 10
62.3795
 20
-1.24362
 11
62.3828
 21
-1.18735
  0
LINE
  8
0
 10
62.3828
 20
-1.18735
 11
62.4367
 21
-0.244962
  0
LINE
  8
0
 10
62.4367
 20
-0.244962
 11
62.4287
 21
-0.11204
  0
LINE
  8
0
 10
62.4287
 20
-0.11204
 11
62.2897
 21
2.10576
  0
LINE
  8
0
 10
62.2897
 20
2.10576
 11
62.2874
 21
2.12132
  0
LINE
  8
0
 10
62.2874
 20
2.12132
 11
62.1819
 21
2.74801
  0
LINE
  8
0
 10
62.1819
 20
2.74801
 11
62.1748
 21
2.7867
  0
LINE
  8
0
 10
62.1748
 20
2.7867
 11
62.1301
 21
3.01105
  0
LINE
  8
0
 10
62.1301
 20
3.01105
 11
62.1031
 21
3.11208
  0
LINE
  8
0
 10
62.1031
 20
3.11208
 11
61.5427
 21
5.12056
  0
LINE
  8
0
 10
61.5427
 20
5.12056
 11
61.4885
 21
5.25392
  0
LINE
  8
0
 10
61.4885
 20
5.25392
 11
60.6692
 21
7.21258
  0
LINE
  8
0
 10
60.6692
 20
7.21258
 11
60.6687
 21
7.21362
  0
LINE
  8
0
 10
60.6687
 20
7.21362
 11
60.551
 21
7.45175
  0
LINE
  8
0
 10
60.551
 20
7.45175
 11
60.536
 21
7.4814
  0
LINE
  8
0
 10
60.536
 20
7.4814
 11
60.0714
 21
8.35253
  0
LINE
  8
0
 10
60.0714
 20
8.35253
 11
59.9856
 21
8.49232
  0
LINE
  8
0
 10
59.9856
 20
8.49232
 11
58.4489
 21
10.8688
  0
LINE
  8
0
 10
58.4489
 20
10.8688
 11
58.4078
 21
10.924
  0
LINE
  8
0
 10
58.4078
 20
10.924
 11
57.8663
 21
11.6395
  0
LINE
  8
0
 10
57.8663
 20
11.6395
 11
57.8083
 21
11.709
  0
LINE
  8
0
 10
57.8083
 20
11.709
 11
56.4909
 21
13.2763
  0
LINE
  8
0
 10
56.4909
 20
13.2763
 11
56.4235
 21
13.3475
  0
LINE
  8
0
 10
56.4235
 20
13.3475
 11
55.2818
 21
14.554
  0
LINE
  8
0
 10
55.2818
 20
14.554
 11
55.1996
 21
14.6302
  0
LINE
  8
0
 10
55.1996
 20
14.6302
 11
53.1711
 21
16.5209
  0
LINE
  8
0
 10
53.1711
 20
16.5209
 11
52.5659
 21
17.0344
  0
LINE
  8
0
 10
52.5659
 20
17.0344
 11
52.5241
 21
17.0694
  0
LINE
  8
0
 10
52.5241
 20
17.0694
 11
49.5896
 21
19.3039
  0
LINE
  8
0
 10
49.5896
 20
19.3039
 11
49.4747
 21
19.3881
  0
LINE
  8
0
 10
49.4747
 20
19.3881
 11
49.4115
 21
19.4282
  0
LINE
  8
0
 10
49.4115
 20
19.4282
 11
46.7664
 21
21.1456
  0
LINE
  8
0
 10
46.7664
 20
21.1456
 11
46.2111
 21
21.476
  0
LINE
  8
0
 10
46.2111
 20
21.476
 11
46.1556
 21
21.508
  0
LINE
  8
0
 10
46.1556
 20
21.508
 11
43.106
 21
23.1567
  0
LINE
  8
0
 10
43.106
 20
23.1567
 11
43.0613
 21
23.1802
  0
LINE
  8
0
 10
43.0613
 20
23.1802
 11
42.9594
 21
23.2265
  0
LINE
  8
0
 10
42.9594
 20
23.2265
 11
39.4669
 21
24.8042
  0
LINE
  8
0
 10
39.4669
 20
24.8042
 11
39.4644
 21
24.8052
  0
LINE
  8
0
 10
39.4644
 20
24.8052
 11
38.9942
 21
24.994
  0
LINE
  8
0
 10
38.9942
 20
24.994
 11
38.8989
 21
25.0282
  0
LINE
  8
0
 10
38.8989
 20
25.0282
 11
34.8161
 21
26.4435
  0
LINE
  8
0
 10
34.8161
 20
26.4435
 11
34.741
 21
26.464
  0
LINE
  8
0
 10
34.741
 20
26.464
 11
32.0292
 21
27.1841
  0
LINE
  8
0
 10
32.0292
 20
27.1841
 11
32.0156
 21
27.1872
  0
LINE
  8
0
 10
32.0156
 20
27.1872
 11
30.591
 21
27.4944
  0
LINE
  8
0
 10
30.591
 20
27.4944
 11
30.5327
 21
27.5052
  0
LINE
  8
0
 10
30.5327
 20
27.5052
 11
26.6628
 21
28.0953
  0
LINE
  8
0
 10
26.6628
 20
28.0953
 11
26.5857
 21
28.1041
  0
LINE
  8
0
 10
26.5857
 20
28.1041
 11
25.4365
 21
28.2162
  0
LINE
  8
0
 10
25.4365
 20
28.2162
 11
24.975
 21
28.2537
  0
LINE
  8
0
 10
24.975
 20
28.2537
 11
24.9622
 21
28.2546
  0
LINE
  8
0
 10
24.9622
 20
28.2546
 11
22.4364
 21
28.3881
  0
LINE
  8
0
 10
22.4364
 20
28.3881
 11
22.3279
 21
28.3904
  0
LINE
  8
0
 10
22.3279
 20
28.3904
 11
18.0741
 21
28.3667
  0
LINE
  8
0
 10
18.0741
 20
28.3667
 11
18.0351
 21
28.3654
  0
LINE
  8
0
 10
18.0351
 20
28.3654
 11
17.6219
 21
28.3481
  0
LINE
  8
0
 10
17.6219
 20
28.3481
 11
17.536
 21
28.3421
  0
LINE
  8
0
 10
17.536
 20
28.3421
 11
13.5762
 21
28.0595
  0
LINE
  8
0
 10
13.5762
 20
28.0595
 11
13.4543
 21
28.0453
  0
LINE
  8
0
 10
13.4543
 20
28.0453
 11
8.95287
 21
27.5123
  0
LINE
  8
0
 10
8.95287
 20
27.5123
 11
4.00363
 21
26.7976
  0
LINE
  8
0
 10
4.00363
 20
26.7976
 11
3.64567
 21
26.7426
  0
LINE
  8
0
 10
3.64567
 20
26.7426
 11
-7.28575
 21
24.9001
  0
LINE
  8
0
 10
-7.28575
 20
24.9001
 11
-7.76293
 21
24.8107
  0
LINE
  8
0
 10
-7.76293
 20
24.8107
 11
-14.0866
 21
23.5815
  0
LINE
  8
0
 10
-14.0866
 20
23.5815
 11
-14.092
 21
23.5804
  0
LINE
  8
0
 10
-14.092
 20
23.5804
 11
-18.6085
 21
22.6293
  0
LINE
  8
0
 10
-18.6085
 20
22.6293
 11
-18.8558
 21
22.5772
  0
LINE
  8
0
 10
-18.8558
 20
22.5772
 11
-19.4759
 21
22.4323
  0
LINE
  8
0
 10
-19.4759
 20
22.4323
 11
-30.2339
 21
19.9172
  0
LINE
  8
0
 10
-30.2339
 20
19.9172
 11
-30.5238
 21
19.8427
  0
LINE
  8
0
 10
-30.5238
 20
19.8427
 11
-34.4492
 21
18.8353
  0
LINE
  8
0
 10
-34.4492
 20
18.8353
 11
-35.1425
 21
18.6522
  0
LINE
  8
0
 10
-35.1425
 20
18.6522
 11
-35.6763
 21
18.5061
  0
LINE
  8
0
 10
-35.6763
 20
18.5061
 11
-45.9857
 21
15.5936
  0
LINE
  8
0
 10
-45.9857
 20
15.5936
 11
-46.3979
 21
15.4733
  0
LINE
  8
0
 10
-46.3979
 20
15.4733
 11
-47.0967
 21
15.2554
  0
LINE
  8
0
 10
-47.0967
 20
15.2554
 11
-53.6543
 21
13.2067
  0
LINE
  8
0
 10
-53.6543
 20
13.2067
 11
-53.9294
 21
13.1161
  0
LINE
  8
0
 10
-53.9294
 20
13.1161
 11
-57.2338
 21
12.0217
  0
LINE
  8
0
 10
-57.2338
 20
12.0217
 11
-58.3214
 21
11.6379
  0
LINE
  8
0
 10
-58.3214
 20
11.6379
 11
-67.6785
 21
8.29209
  0
LINE
  8
0
 10
-67.6785
 20
8.29209
 11
-68.2719
 21
8.06533
  0
LINE
  8
0
 10
-68.2719
 20
8.06533
 11
-69.3523
 21
7.65375
  0
LINE
  8
0
 10
-69.3523
 20
7.65375
 11
-71.1488
 21
6.9571
  0
LINE
  8
0
 10
-71.1488
 20
6.9571
 11
-71.3455
 21
6.87932
  0
LINE
  8
0
 10
-71.3455
 20
6.87932
 11
-77.736
 21
4.26655
  0
LINE
  8
0
 10
-77.736
 20
4.26655
 11
-79.0575
 21
3.71094
  0
LINE
  8
0
 10
-79.0575
 20
3.71094
 11
-79.8565
 21
3.3447
  0
LINE
  8
0
 10
-79.8565
 20
3.3447
 11
-87.5599
 21
-0.117814
  0
ENDSEC
  0
SECTION
  2
OBJECTS
  0
DICTIONARY
  0
ENDSEC
  0
EOF
