  0
SECTION
  2
BLOCKS
  0
ENDSEC
  0
SECTION
  2
ENTITIES
  0
LINE
  8
0
 10
21.444
 20
-28.3502
 11
21.9368
 21
-28.3406
  0
LINE
  8
0
 10
21.9368
 20
-28.3406
 11
21.9605
 21
-28.34
  0
LINE
  8
0
 10
21.9605
 20
-28.34
 11
22.0016
 21
-28.3389
  0
LINE
  8
0
 10
22.0016
 20
-28.3389
 11
25.2493
 21
-28.1601
  0
LINE
  8
0
 10
25.2493
 20
-28.1601
 11
25.4579
 21
-28.1475
  0
LINE
  8
0
 10
25.4579
 20
-28.1475
 11
25.5479
 21
-28.141
  0
LINE
  8
0
 10
25.5479
 20
-28.141
 11
25.9094
 21
-28.1078
  0
LINE
  8
0
 10
25.9094
 20
-28.1078
 11
25.9735
 21
-28.1011
  0
LINE
  8
0
 10
25.9735
 20
-28.1011
 11
26.1518
 21
-28.077
  0
LINE
  8
0
 10
26.1518
 20
-28.077
 11
28.7666
 21
-27.7498
  0
LINE
  8
0
 10
28.7666
 20
-27.7498
 11
28.8845
 21
-27.7296
  0
LINE
  8
0
 10
28.8845
 20
-27.7296
 11
30.1284
 21
-27.5159
  0
LINE
  8
0
 10
30.1284
 20
-27.5159
 11
30.1334
 21
-27.515
  0
LINE
  8
0
 10
30.1334
 20
-27.515
 11
30.2228
 21
-27.4938
  0
LINE
  8
0
 10
30.2228
 20
-27.4938
 11
34.2577
 21
-26.5376
  0
LINE
  8
0
 10
34.2577
 20
-26.5376
 11
34.2603
 21
-26.5368
  0
LINE
  8
0
 10
34.2603
 20
-26.5368
 11
34.465
 21
-26.4729
  0
LINE
  8
0
 10
34.465
 20
-26.4729
 11
36.5221
 21
-25.8313
  0
LINE
  8
0
 10
36.5221
 20
-25.8313
 11
36.5706
 21
-25.8138
  0
LINE
  8
0
 10
36.5706
 20
-25.8138
 11
38.3719
 21
-25.1654
  0
LINE
  8
0
 10
38.3719
 20
-25.1654
 11
38.3787
 21
-25.1628
  0
LINE
  8
0
 10
38.3787
 20
-25.1628
 11
38.4904
 21
-25.1144
  0
LINE
  8
0
 10
38.4904
 20
-25.1144
 11
41.3492
 21
-23.9214
  0
LINE
  8
0
 10
41.3492
 20
-23.9214
 11
41.4353
 21
-23.881
  0
LINE
  8
0
 10
41.4353
 20
-23.881
 11
41.5438
 21
-23.8267
  0
LINE
  8
0
 10
41.5438
 20
-23.8267
 11
43.694
 21
-22.7861
  0
LINE
  8
0
 10
43.694
 20
-22.7861
 11
43.748
 21
-22.7568
  0
LINE
  8
0
 10
43.748
 20
-22.7568
 11
45.3101
 21
-21.9171
  0
LINE
  8
0
 10
45.3101
 20
-21.9171
 11
45.3353
 21
-21.9028
  0
LINE
  8
0
 10
45.3353
 20
-21.9028
 11
45.664
 21
-21.6977
  0
LINE
  8
0
 10
45.664
 20
-21.6977
 11
49.0458
 21
-19.6048
  0
LINE
  8
0
 10
49.0458
 20
-19.6048
 11
49.0486
 21
-19.6028
  0
LINE
  8
0
 10
49.0486
 20
-19.6028
 11
50.1841
 21
-18.8039
  0
LINE
  8
0
 10
50.1841
 20
-18.8039
 11
50.382
 21
-18.6521
  0
LINE
  8
0
 10
50.382
 20
-18.6521
 11
52.4622
 21
-17.0367
  0
LINE
  8
0
 10
52.4622
 20
-17.0367
 11
52.4902
 21
-17.0138
  0
LINE
  8
0
 10
52.4902
 20
-17.0138
 11
52.5963
 21
-16.9194
  0
LINE
  8
0
 10
52.5963
 20
-16.9194
 11
54.8834
 21
-14.8606
  0
LINE
  8
0
 10
54.8834
 20
-14.8606
 11
54.8856
 21
-14.8584
  0
LINE
  8
0
 10
54.8856
 20
-14.8584
 11
54.9259
 21
-14.8185
  0
LINE
  8
0
 10
54.9259
 20
-14.8185
 11
55.2805
 21
-14.4668
  0
LINE
  8
0
 10
55.2805
 20
-14.4668
 11
55.3816
 21
-14.3611
  0
LINE
  8
0
 10
55.3816
 20
-14.3611
 11
57.2193
 21
-12.3378
  0
LINE
  8
0
 10
57.2193
 20
-12.3378
 11
57.2982
 21
-12.2475
  0
LINE
  8
0
 10
57.2982
 20
-12.2475
 11
57.3912
 21
-12.136
  0
LINE
  8
0
 10
57.3912
 20
-12.136
 11
57.4501
 21
-12.0612
  0
LINE
  8
0
 10
57.4501
 20
-12.0612
 11
57.5607
 21
-11.904
  0
LINE
  8
0
 10
57.5607
 20
-11.904
 11
59.1843
 21
-9.71172
  0
LINE
  8
0
 10
59.1843
 20
-9.71172
 11
59.3663
 21
-9.43044
  0
LINE
  8
0
 10
59.3663
 20
-9.43044
 11
59.4033
 21
-9.37053
  0
LINE
  8
0
 10
59.4033
 20
-9.37053
 11
59.8511
 21
-8.63872
  0
LINE
  8
0
 10
59.8511
 20
-8.63872
 11
59.8561
 21
-8.63011
  0
LINE
  8
0
 10
59.8561
 20
-8.63011
 11
59.8814
 21
-8.58534
  0
LINE
  8
0
 10
59.8814
 20
-8.58534
 11
59.9802
 21
-8.37842
  0
LINE
  8
0
 10
59.9802
 20
-8.37842
 11
61.1299
 21
-6.09294
  0
LINE
  8
0
 10
61.1299
 20
-6.09294
 11
61.1377
 21
-6.07388
  0
LINE
  8
0
 10
61.1377
 20
-6.07388
 11
61.1551
 21
-6.02928
  0
LINE
  8
0
 10
61.1551
 20
-6.02928
 11
61.3821
 21
-5.45976
  0
LINE
  8
0
 10
61.3821
 20
-5.45976
 11
61.4167
 21
-5.34792
  0
LINE
  8
0
 10
61.4167
 20
-5.34792
 11
61.9809
 21
-3.55544
  0
LINE
  8
0
 10
61.9809
 20
-3.55544
 11
61.9834
 21
-3.54558
  0
LINE
  8
0
 10
61.9834
 20
-3.54558
 11
62.0046
 21
-3.44659
  0
LINE
  8
0
 10
62.0046
 20
-3.44659
 11
62.1924
 21
-2.58673
  0
LINE
  8
0
 10
62.1924
 20
-2.58673
 11
62.1928
 21
-2.58441
  0
LINE
  8
0
 10
62.1928
 20
-2.58441
 11
62.2038
 21
-2.50647
  0
LINE
  8
0
 10
62.2038
 20
-2.50647
 11
62.3795
 21
-1.24361
  0
LINE
  8
0
 10
62.3795
 20
-1.24361
 11
62.3866
 21
-1.12112
  0
LINE
  8
0
 10
62.3866
 20
-1.12112
 11
62.4366
 21
-0.246063
  0
LINE
  8
0
 10
62.4366
 20
-0.246063
 11
62.4367
 21
-0.244949
  0
LINE
  8
0
 10
62.4367
 20
-0.244949
 11
62.4287
 21
-0.11203
  0
LINE
  8
0
 10
62.4287
 20
-0.11203
 11
62.4193
 21
0.0428314
  0
LINE
  8
0
 10
62.4193
 20
0.0428314
 11
62.2902
 21
2.10222
  0
LINE
  8
0
 10
62.2902
 20
2.10222
 11
62.2897
 21
2.10576
  0
LINE
  8
0
 10
62.2897
 20
2.10576
 11
62.2851
 21
2.13615
  0
LINE
  8
0
 10
62.2851
 20
2.13615
 11
62.1872
 21
2.71808
  0
LINE
  8
0
 10
62.1872
 20
2.71808
 11
62.1819
 21
2.748
  0
LINE
  8
0
 10
62.1819
 20
2.748
 11
62.1748
 21
2.7867
  0
LINE
  8
0
 10
62.1748
 20
2.7867
 11
62.1301
 21
3.01105
  0
LINE
  8
0
 10
62.1301
 20
3.01105
 11
62.0709
 21
3.23232
  0
LINE
  8
0
 10
62.0709
 20
3.23232
 11
61.5506
 21
5.09734
  0
LINE
  8
0
 10
61.5506
 20
5.09734
 11
61.5427
 21
5.12056
  0
LINE
  8
0
 10
61.5427
 20
5.12056
 11
61.4884
 21
5.25392
  0
LINE
  8
0
 10
61.4884
 20
5.25392
 11
60.6692
 21
7.21257
  0
LINE
  8
0
 10
60.6692
 20
7.21257
 11
60.6681
 21
7.21492
  0
LINE
  8
0
 10
60.6681
 20
7.21492
 11
60.551
 21
7.45175
  0
LINE
  8
0
 10
60.551
 20
7.45175
 11
60.536
 21
7.4814
  0
LINE
  8
0
 10
60.536
 20
7.4814
 11
60.5245
 21
7.50366
  0
LINE
  8
0
 10
60.5245
 20
7.50366
 11
60.0931
 21
8.31256
  0
LINE
  8
0
 10
60.0931
 20
8.31256
 11
60.0714
 21
8.35252
  0
LINE
  8
0
 10
60.0714
 20
8.35252
 11
59.9856
 21
8.49232
  0
LINE
  8
0
 10
59.9856
 20
8.49232
 11
59.8949
 21
8.63538
  0
LINE
  8
0
 10
59.8949
 20
8.63538
 11
58.468
 21
10.8421
  0
LINE
  8
0
 10
58.468
 20
10.8421
 11
58.4489
 21
10.8687
  0
LINE
  8
0
 10
58.4489
 20
10.8687
 11
58.4078
 21
10.924
  0
LINE
  8
0
 10
58.4078
 20
10.924
 11
57.8663
 21
11.6395
  0
LINE
  8
0
 10
57.8663
 20
11.6395
 11
57.7245
 21
11.8094
  0
LINE
  8
0
 10
57.7245
 20
11.8094
 11
56.5013
 21
13.2647
  0
LINE
  8
0
 10
56.5013
 20
13.2647
 11
56.4909
 21
13.2763
  0
LINE
  8
0
 10
56.4909
 20
13.2763
 11
55.2818
 21
14.554
  0
LINE
  8
0
 10
55.2818
 20
14.554
 11
55.2701
 21
14.5657
  0
LINE
  8
0
 10
55.2701
 20
14.5657
 11
55.0547
 21
14.7652
  0
LINE
  8
0
 10
55.0547
 20
14.7652
 11
53.1711
 21
16.5209
  0
LINE
  8
0
 10
53.1711
 20
16.5209
 11
52.5659
 21
17.0344
  0
LINE
  8
0
 10
52.5659
 20
17.0344
 11
52.524
 21
17.0694
  0
LINE
  8
0
 10
52.524
 20
17.0694
 11
52.4913
 21
17.0963
  0
LINE
  8
0
 10
52.4913
 20
17.0963
 11
49.7664
 21
19.1712
  0
LINE
  8
0
 10
49.7664
 20
19.1712
 11
49.5896
 21
19.3039
  0
LINE
  8
0
 10
49.5896
 20
19.3039
 11
49.4747
 21
19.3881
  0
LINE
  8
0
 10
49.4747
 20
19.3881
 11
49.4157
 21
19.4284
  0
LINE
  8
0
 10
49.4157
 20
19.4284
 11
49.2234
 21
19.5504
  0
LINE
  8
0
 10
49.2234
 20
19.5504
 11
46.7664
 21
21.1456
  0
LINE
  8
0
 10
46.7664
 20
21.1456
 11
46.2111
 21
21.476
  0
LINE
  8
0
 10
46.2111
 20
21.476
 11
46.1556
 21
21.5079
  0
LINE
  8
0
 10
46.1556
 20
21.5079
 11
46.0664
 21
21.5585
  0
LINE
  8
0
 10
46.0664
 20
21.5585
 11
43.2346
 21
23.0895
  0
LINE
  8
0
 10
43.2346
 20
23.0895
 11
43.0748
 21
23.1734
  0
LINE
  8
0
 10
43.0748
 20
23.1734
 11
43.0613
 21
23.1802
  0
LINE
  8
0
 10
43.0613
 20
23.1802
 11
42.9594
 21
23.2265
  0
LINE
  8
0
 10
42.9594
 20
23.2265
 11
39.4669
 21
24.8042
  0
LINE
  8
0
 10
39.4669
 20
24.8042
 11
39.4571
 21
24.8082
  0
LINE
  8
0
 10
39.4571
 20
24.8082
 11
38.9942
 21
24.994
  0
LINE
  8
0
 10
38.9942
 20
24.994
 11
38.8988
 21
25.0282
  0
LINE
  8
0
 10
38.8988
 20
25.0282
 11
38.6497
 21
25.1163
  0
LINE
  8
0
 10
38.6497
 20
25.1163
 11
34.8586
 21
26.4305
  0
LINE
  8
0
 10
34.8586
 20
26.4305
 11
34.8161
 21
26.4435
  0
LINE
  8
0
 10
34.8161
 20
26.4435
 11
34.741
 21
26.464
  0
LINE
  8
0
 10
34.741
 20
26.464
 11
32.0292
 21
27.1841
  0
LINE
  8
0
 10
32.0292
 20
27.1841
 11
31.9713
 21
27.1971
  0
LINE
  8
0
 10
31.9713
 20
27.1971
 11
30.6485
 21
27.4824
  0
LINE
  8
0
 10
30.6485
 20
27.4824
 11
30.591
 21
27.4944
  0
LINE
  8
0
 10
30.591
 20
27.4944
 11
30.5327
 21
27.5052
  0
LINE
  8
0
 10
30.5327
 20
27.5052
 11
30.3977
 21
27.5288
  0
LINE
  8
0
 10
30.3977
 20
27.5288
 11
26.8043
 21
28.0768
  0
LINE
  8
0
 10
26.8043
 20
28.0768
 11
26.6628
 21
28.0953
  0
LINE
  8
0
 10
26.6628
 20
28.0953
 11
26.5857
 21
28.1041
  0
LINE
  8
0
 10
26.5857
 20
28.1041
 11
25.4364
 21
28.2162
  0
LINE
  8
0
 10
25.4364
 20
28.2162
 11
24.975
 21
28.2537
  0
LINE
  8
0
 10
24.975
 20
28.2537
 11
24.92
 21
28.2576
  0
LINE
  8
0
 10
24.92
 20
28.2576
 11
22.5746
 21
28.3815
  0
LINE
  8
0
 10
22.5746
 20
28.3815
 11
22.4364
 21
28.3881
  0
LINE
  8
0
 10
22.4364
 20
28.3881
 11
22.3279
 21
28.3904
  0
LINE
  8
0
 10
22.3279
 20
28.3904
 11
22.114
 21
28.3913
  0
LINE
  8
0
 10
22.114
 20
28.3913
 11
18.164
 21
28.3693
  0
LINE
  8
0
 10
18.164
 20
28.3693
 11
18.0741
 21
28.3667
  0
LINE
  8
0
 10
18.0741
 20
28.3667
 11
18.0351
 21
28.3654
  0
LINE
  8
0
 10
18.0351
 20
28.3654
 11
17.6219
 21
28.3481
  0
LINE
  8
0
 10
17.6219
 20
28.3481
 11
17.2745
 21
28.324
  0
LINE
  8
0
 10
17.2745
 20
28.324
 11
13.5976
 21
28.0615
  0
LINE
  8
0
 10
13.5976
 20
28.0615
 11
13.5762
 21
28.0595
  0
LINE
  8
0
 10
13.5762
 20
28.0595
 11
13.4543
 21
28.0453
  0
LINE
  8
0
 10
13.4543
 20
28.0453
 11
8.95287
 21
27.5123
  0
LINE
  8
0
 10
8.95287
 20
27.5123
 11
4.00363
 21
26.7976
  0
LINE
  8
0
 10
4.00363
 20
26.7976
 11
3.64566
 21
26.7426
  0
LINE
  8
0
 10
3.64566
 20
26.7426
 11
3.20253
 21
26.671
  0
LINE
  8
0
 10
3.20253
 20
26.671
 11
-6.94803
 21
24.9602
  0
LINE
  8
0
 10
-6.94803
 20
24.9602
 11
-7.28575
 21
24.9001
  0
LINE
  8
0
 10
-7.28575
 20
24.9001
 11
-7.76292
 21
24.8107
  0
LINE
  8
0
 10
-7.76292
 20
24.8107
 11
-14.0866
 21
23.5815
  0
LINE
  8
0
 10
-14.0866
 20
23.5815
 11
-14.0995
 21
23.5789
  0
LINE
  8
0
 10
-14.0995
 20
23.5789
 11
-18.8494
 21
22.5786
  0
LINE
  8
0
 10
-18.8494
 20
22.5786
 11
-18.8558
 21
22.5772
  0
LINE
  8
0
 10
-18.8558
 20
22.5772
 11
-19.4759
 21
22.4323
  0
LINE
  8
0
 10
-19.4759
 20
22.4323
 11
-30.2339
 21
19.9171
  0
LINE
  8
0
 10
-30.2339
 20
19.9171
 11
-34.4492
 21
18.8353
  0
LINE
  8
0
 10
-34.4492
 20
18.8353
 11
-35.1425
 21
18.6522
  0
LINE
  8
0
 10
-35.1425
 20
18.6522
 11
-35.6763
 21
18.5061
  0
LINE
  8
0
 10
-35.6763
 20
18.5061
 11
-36.0941
 21
18.3913
  0
LINE
  8
0
 10
-36.0941
 20
18.3913
 11
-45.6671
 21
15.6868
  0
LINE
  8
0
 10
-45.6671
 20
15.6868
 11
-46.3713
 21
15.4812
  0
LINE
  8
0
 10
-46.3713
 20
15.4812
 11
-46.3979
 21
15.4733
  0
LINE
  8
0
 10
-46.3979
 20
15.4733
 11
-47.0967
 21
15.2554
  0
LINE
  8
0
 10
-47.0967
 20
15.2554
 11
-53.6543
 21
13.2067
  0
LINE
  8
0
 10
-53.6543
 20
13.2067
 11
-54.1015
 21
13.0594
  0
LINE
  8
0
 10
-54.1015
 20
13.0594
 11
-57.1699
 21
12.0432
  0
LINE
  8
0
 10
-57.1699
 20
12.0432
 11
-57.2338
 21
12.0217
  0
LINE
  8
0
 10
-57.2338
 20
12.0217
 11
-58.3214
 21
11.6379
  0
LINE
  8
0
 10
-58.3214
 20
11.6379
 11
-58.898
 21
11.4333
  0
LINE
  8
0
 10
-58.898
 20
11.4333
 11
-67.5867
 21
8.32654
  0
LINE
  8
0
 10
-67.5867
 20
8.32654
 11
-67.6785
 21
8.29208
  0
LINE
  8
0
 10
-67.6785
 20
8.29208
 11
-68.2719
 21
8.06532
  0
LINE
  8
0
 10
-68.2719
 20
8.06532
 11
-69.3523
 21
7.65373
  0
LINE
  8
0
 10
-69.3523
 20
7.65373
 11
-71.1488
 21
6.95709
  0
LINE
  8
0
 10
-71.1488
 20
6.95709
 11
-71.4394
 21
6.84216
  0
LINE
  8
0
 10
-71.4394
 20
6.84216
 11
-77.3734
 21
4.41603
  0
LINE
  8
0
 10
-77.3734
 20
4.41603
 11
-77.736
 21
4.26654
  0
LINE
  8
0
 10
-77.736
 20
4.26654
 11
-79.0575
 21
3.71094
  0
LINE
  8
0
 10
-79.0575
 20
3.71094
 11
-79.2638
 21
3.62125
  0
LINE
  8
0
 10
-79.2638
 20
3.62125
 11
-80.4068
 21
3.09737
  0
LINE
  8
0
 10
-80.4068
 20
3.09737
 11
-87.5599
 21
-0.117813
  0
LINE
  8
0
 10
-87.5599
 20
-0.117813
 11
-86.6749
 21
-0.520599
  0
LINE
  8
0
 10
-86.6749
 20
-0.520599
 11
-83.5506
 21
-1.95889
  0
LINE
  8
0
 10
-83.5506
 20
-1.95889
 11
-83.4355
 21
-2.01013
  0
LINE
  8
0
 10
-83.4355
 20
-2.01013
 11
-81.8348
 21
-2.67805
  0
LINE
  8
0
 10
-81.8348
 20
-2.67805
 11
-74.6053
 21
-5.76854
  0
LINE
  8
0
 10
-74.6053
 20
-5.76854
 11
-74.4651
 21
-5.82471
  0
LINE
  8
0
 10
-74.4651
 20
-5.82471
 11
-74.3503
 21
-5.87
  0
LINE
  8
0
 10
-74.3503
 20
-5.87
 11
-72.056
 21
-6.78642
  0
LINE
  8
0
 10
-72.056
 20
-6.78642
 11
-70.9549
 21
-7.20596
  0
LINE
  8
0
 10
-70.9549
 20
-7.20596
 11
-65.8173
 21
-9.15627
  0
LINE
  8
0
 10
-65.8173
 20
-9.15627
 11
-65.7748
 21
-9.17191
  0
LINE
  8
0
 10
-65.7748
 20
-9.17191
 11
-64.5534
 21
-9.59918
  0
LINE
  8
0
 10
-64.5534
 20
-9.59918
 11
-63.9642
 21
-9.80453
  0
LINE
  8
0
 10
-63.9642
 20
-9.80453
 11
-56.2086
 21
-12.5059
  0
LINE
  8
0
 10
-56.2086
 20
-12.5059
 11
-56.0156
 21
-12.5693
  0
LINE
  8
0
 10
-56.0156
 20
-12.5693
 11
-54.5616
 21
-13.046
  0
LINE
  8
0
 10
-54.5616
 20
-13.046
 11
-53.6701
 21
-13.3227
  0
LINE
  8
0
 10
-53.6701
 20
-13.3227
 11
-46.2072
 21
-15.6423
  0
LINE
  8
0
 10
-46.2072
 20
-15.6423
 11
-46.1912
 21
-15.647
  0
LINE
  8
0
 10
-46.1912
 20
-15.647
 11
-45.4874
 21
-15.8504
  0
LINE
  8
0
 10
-45.4874
 20
-15.8504
 11
-36.1087
 21
-18.4714
  0
LINE
  8
0
 10
-36.1087
 20
-18.4714
 11
-35.6956
 21
-18.5838
  0
LINE
  8
0
 10
-35.6956
 20
-18.5838
 11
-35.0949
 21
-18.7457
  0
LINE
  8
0
 10
-35.0949
 20
-18.7457
 11
-33.5274
 21
-19.1532
  0
LINE
  8
0
 10
-33.5274
 20
-19.1532
 11
-33.0596
 21
-19.2713
  0
LINE
  8
0
 10
-33.0596
 20
-19.2713
 11
-24.8091
 21
-21.2794
  0
LINE
  8
0
 10
-24.8091
 20
-21.2794
 11
-24.3966
 21
-21.3778
  0
LINE
  8
0
 10
-24.3966
 20
-21.3778
 11
-23.7018
 21
-21.5381
  0
LINE
  8
0
 10
-23.7018
 20
-21.5381
 11
-23.3449
 21
-21.6173
  0
LINE
  8
0
 10
-23.3449
 20
-21.6173
 11
-22.7611
 21
-21.7386
  0
LINE
  8
0
 10
-22.7611
 20
-21.7386
 11
-14.1197
 21
-23.5996
  0
LINE
  8
0
 10
-14.1197
 20
-23.5996
 11
-12.0176
 21
-24.0164
  0
LINE
  8
0
 10
-12.0176
 20
-24.0164
 11
-2.48572
 21
-25.7479
  0
LINE
  8
0
 10
-2.48572
 20
-25.7479
 11
9.02704
 21
-27.4877
  0
LINE
  8
0
 10
9.02704
 20
-27.4877
 11
10.8434
 21
-27.7194
  0
LINE
  8
0
 10
10.8434
 20
-27.7194
 11
10.9648
 21
-27.7335
  0
LINE
  8
0
 10
10.9648
 20
-27.7335
 11
11.1565
 21
-27.754
  0
LINE
  8
0
 10
11.1565
 20
-27.754
 11
16.3997
 21
-28.2269
  0
LINE
  8
0
 10
16.3997
 20
-28.2269
 11
16.6114
 21
-28.2427
  0
LINE
  8
0
 10
16.6114
 20
-28.2427
 11
16.7166
 21
-28.2496
  0
LINE
  8
0
 10
16.7166
 20
-28.2496
 11
16.8192
 21
-28.2542
  0
LINE
  8
0
 10
16.8192
 20
-28.2542
 11
21.1425
 21
-28.347
  0
LINE
  8
0
 10
21.1425
 20
-28.347
 11
21.444
 21
-28.3502
  0
ENDSEC
  0
SECTION
  2
OBJECTS
  0
DICTIONARY
  0
ENDSEC
  0
EOF
