  0
SECTION
  2
BLOCKS
  0
ENDSEC
  0
SECTION
  2
ENTITIES
  0
LINE
  8
0
 10
-87.5599
 20
-0.117787
 11
-84.9834
 21
-1.29043
  0
LINE
  8
0
 10
-84.9834
 20
-1.29043
 11
-82.975
 21
-2.21504
  0
LINE
  8
0
 10
-82.975
 20
-2.21504
 11
-78.7518
 21
-3.97723
  0
LINE
  8
0
 10
-78.7518
 20
-3.97723
 11
-73.9045
 21
-6.04937
  0
LINE
  8
0
 10
-73.9045
 20
-6.04937
 11
-73.6433
 21
-6.15238
  0
LINE
  8
0
 10
-73.6433
 20
-6.15238
 11
-72.056
 21
-6.78643
  0
LINE
  8
0
 10
-72.056
 20
-6.78643
 11
-69.544
 21
-7.74353
  0
LINE
  8
0
 10
-69.544
 20
-7.74353
 11
-65.9873
 21
-9.09371
  0
LINE
  8
0
 10
-65.9873
 20
-9.09371
 11
-61.6075
 21
-10.626
  0
LINE
  8
0
 10
-61.6075
 20
-10.626
 11
-56.2383
 21
-12.4961
  0
LINE
  8
0
 10
-56.2383
 20
-12.4961
 11
-55.4963
 21
-12.7395
  0
LINE
  8
0
 10
-55.4963
 20
-12.7395
 11
-54.5616
 21
-13.046
  0
LINE
  8
0
 10
-54.5616
 20
-13.046
 11
-50.9246
 21
-14.1749
  0
LINE
  8
0
 10
-50.9246
 20
-14.1749
 11
-46.1271
 21
-15.666
  0
LINE
  8
0
 10
-46.1271
 20
-15.666
 11
-44.2541
 21
-16.2072
  0
LINE
  8
0
 10
-44.2541
 20
-16.2072
 11
-37.7613
 21
-18.0217
  0
LINE
  8
0
 10
-37.7613
 20
-18.0217
 11
-34.5351
 21
-18.8912
  0
LINE
  8
0
 10
-34.5351
 20
-18.8912
 11
-33.5274
 21
-19.1532
  0
LINE
  8
0
 10
-33.5274
 20
-19.1532
 11
-32.1709
 21
-19.4957
  0
LINE
  8
0
 10
-32.1709
 20
-19.4957
 11
-26.4592
 21
-20.8859
  0
LINE
  8
0
 10
-26.4592
 20
-20.8859
 11
-21.9173
 21
-21.9341
  0
LINE
  8
0
 10
-21.9173
 20
-21.9341
 11
-20.1065
 21
-22.3104
  0
LINE
  8
0
 10
-20.1065
 20
-22.3104
 11
-14.1247
 21
-23.5986
  0
LINE
  8
0
 10
-14.1247
 20
-23.5986
 11
-13.3027
 21
-23.7616
  0
LINE
  8
0
 10
-13.3027
 20
-23.7616
 11
-12.0176
 21
-24.0164
  0
LINE
  8
0
 10
-12.0176
 20
-24.0164
 11
-8.33071
 21
-24.6862
  0
LINE
  8
0
 10
-8.33071
 20
-24.6862
 11
-2.48655
 21
-25.7478
  0
LINE
  8
0
 10
-2.48655
 20
-25.7478
 11
1.89701
 21
-26.4102
  0
LINE
  8
0
 10
1.89701
 20
-26.4102
 11
9.02705
 21
-27.4877
  0
LINE
  8
0
 10
9.02705
 20
-27.4877
 11
10.1947
 21
-27.6367
  0
LINE
  8
0
 10
10.1947
 20
-27.6367
 11
11.9232
 21
-27.8362
  0
LINE
  8
0
 10
11.9232
 20
-27.8362
 11
15.553
 21
-28.1636
  0
LINE
  8
0
 10
15.553
 20
-28.1636
 11
17.2299
 21
-28.273
  0
LINE
  8
0
 10
17.2299
 20
-28.273
 11
20.2229
 21
-28.3372
  0
LINE
  8
0
 10
20.2229
 20
-28.3372
 11
21.444
 21
-28.3502
  0
LINE
  8
0
 10
21.444
 20
-28.3502
 11
21.7608
 21
-28.344
  0
LINE
  8
0
 10
21.7608
 20
-28.344
 11
22.1665
 21
-28.3342
  0
LINE
  8
0
 10
22.1665
 20
-28.3342
 11
24.4147
 21
-28.2104
  0
LINE
  8
0
 10
24.4147
 20
-28.2104
 11
25.9976
 21
-28.0955
  0
LINE
  8
0
 10
25.9976
 20
-28.0955
 11
26.23
 21
-28.0742
  0
LINE
  8
0
 10
26.23
 20
-28.0742
 11
26.9564
 21
-27.9764
  0
LINE
  8
0
 10
26.9564
 20
-27.9764
 11
28.7666
 21
-27.7498
  0
LINE
  8
0
 10
28.7666
 20
-27.7498
 11
29.2472
 21
-27.6676
  0
LINE
  8
0
 10
29.2472
 20
-27.6676
 11
30.1083
 21
-27.5197
  0
LINE
  8
0
 10
30.1083
 20
-27.5197
 11
31.6769
 21
-27.1486
  0
LINE
  8
0
 10
31.6769
 20
-27.1486
 11
34.2707
 21
-26.5338
  0
LINE
  8
0
 10
34.2707
 20
-26.5338
 11
35.098
 21
-26.2755
  0
LINE
  8
0
 10
35.098
 20
-26.2755
 11
36.5221
 21
-25.8313
  0
LINE
  8
0
 10
36.5221
 20
-25.8313
 11
37.2455
 21
-25.5701
  0
LINE
  8
0
 10
37.2455
 20
-25.5701
 11
38.4061
 21
-25.1524
  0
LINE
  8
0
 10
38.4061
 20
-25.1524
 11
39.9283
 21
-24.4921
  0
LINE
  8
0
 10
39.9283
 20
-24.4921
 11
41.7798
 21
-23.7194
  0
LINE
  8
0
 10
41.7798
 20
-23.7194
 11
42.2054
 21
-23.5065
  0
LINE
  8
0
 10
42.2054
 20
-23.5065
 11
43.694
 21
-22.7861
  0
LINE
  8
0
 10
43.694
 20
-22.7861
 11
44.4318
 21
-22.3856
  0
LINE
  8
0
 10
44.4318
 20
-22.3856
 11
45.436
 21
-21.8458
  0
LINE
  8
0
 10
45.436
 20
-21.8458
 11
46.6933
 21
-21.0614
  0
LINE
  8
0
 10
46.6933
 20
-21.0614
 11
49.0344
 21
-19.6125
  0
LINE
  8
0
 10
49.0344
 20
-19.6125
 11
49.4791
 21
-19.3
  0
LINE
  8
0
 10
49.4791
 20
-19.3
 11
50.1841
 21
-18.8039
  0
LINE
  8
0
 10
50.1841
 20
-18.8039
 11
50.9102
 21
-18.2469
  0
LINE
  8
0
 10
50.9102
 20
-18.2469
 11
52.3503
 21
-17.1286
  0
LINE
  8
0
 10
52.3503
 20
-17.1286
 11
53.4242
 21
-16.1733
  0
LINE
  8
0
 10
53.4242
 20
-16.1733
 11
54.8945
 21
-14.8498
  0
LINE
  8
0
 10
54.8945
 20
-14.8498
 11
55.035
 21
-14.7102
  0
LINE
  8
0
 10
55.035
 20
-14.7102
 11
55.2805
 21
-14.4668
  0
LINE
  8
0
 10
55.2805
 20
-14.4668
 11
55.6317
 21
-14.0997
  0
LINE
  8
0
 10
55.6317
 20
-14.0997
 11
56.904
 21
-12.699
  0
LINE
  8
0
 10
56.904
 20
-12.699
 11
57.6858
 21
-11.762
  0
LINE
  8
0
 10
57.6858
 20
-11.762
 11
58.0603
 21
-11.2294
  0
LINE
  8
0
 10
58.0603
 20
-11.2294
 11
59.1843
 21
-9.71173
  0
LINE
  8
0
 10
59.1843
 20
-9.71173
 11
59.3013
 21
-9.53091
  0
LINE
  8
0
 10
59.3013
 20
-9.53091
 11
59.5883
 21
-9.0661
  0
LINE
  8
0
 10
59.5883
 20
-9.0661
 11
59.8761
 21
-8.59566
  0
LINE
  8
0
 10
59.8761
 20
-8.59566
 11
59.9591
 21
-8.44891
  0
LINE
  8
0
 10
59.9591
 20
-8.44891
 11
60.3903
 21
-7.54555
  0
LINE
  8
0
 10
60.3903
 20
-7.54555
 11
61.169
 21
-5.99766
  0
LINE
  8
0
 10
61.169
 20
-5.99766
 11
61.2249
 21
-5.85405
  0
LINE
  8
0
 10
61.2249
 20
-5.85405
 11
61.3821
 21
-5.45977
  0
LINE
  8
0
 10
61.3821
 20
-5.45977
 11
61.6304
 21
-4.65846
  0
LINE
  8
0
 10
61.6304
 20
-4.65846
 11
61.9931
 21
-3.50618
  0
LINE
  8
0
 10
61.9931
 20
-3.50618
 11
62.0607
 21
-3.19129
  0
LINE
  8
0
 10
62.0607
 20
-3.19129
 11
62.1907
 21
-2.59602
  0
LINE
  8
0
 10
62.1907
 20
-2.59602
 11
62.2665
 21
-2.05544
  0
LINE
  8
0
 10
62.2665
 20
-2.05544
 11
62.3795
 21
-1.24362
  0
LINE
  8
0
 10
62.3795
 20
-1.24362
 11
62.4019
 21
-0.856279
  0
LINE
  8
0
 10
62.4019
 20
-0.856279
 11
62.4365
 21
-0.250457
  0
LINE
  8
0
 10
62.4365
 20
-0.250457
 11
62.3816
 21
0.66237
  0
LINE
  8
0
 10
62.3816
 20
0.66237
 11
62.2923
 21
2.08805
  0
LINE
  8
0
 10
62.2923
 20
2.08805
 11
62.276
 21
2.19554
  0
LINE
  8
0
 10
62.276
 20
2.19554
 11
62.2082
 21
2.5984
  0
LINE
  8
0
 10
62.2082
 20
2.5984
 11
62.1588
 21
2.86683
  0
LINE
  8
0
 10
62.1588
 20
2.86683
 11
62.1301
 21
3.01105
  0
LINE
  8
0
 10
62.1301
 20
3.01105
 11
61.9423
 21
3.7133
  0
LINE
  8
0
 10
61.9423
 20
3.7133
 11
61.5821
 21
5.00443
  0
LINE
  8
0
 10
61.5821
 20
5.00443
 11
61.1959
 21
5.95347
  0
LINE
  8
0
 10
61.1959
 20
5.95347
 11
60.6692
 21
7.21258
  0
LINE
  8
0
 10
60.6692
 20
7.21258
 11
60.6655
 21
7.22021
  0
LINE
  8
0
 10
60.6655
 20
7.22021
 11
60.5898
 21
7.37329
  0
LINE
  8
0
 10
60.5898
 20
7.37329
 11
60.4788
 21
7.59272
  0
LINE
  8
0
 10
60.4788
 20
7.59272
 11
60.1801
 21
8.15272
  0
LINE
  8
0
 10
60.1801
 20
8.15272
 11
59.5325
 21
9.20763
  0
LINE
  8
0
 10
59.5325
 20
9.20763
 11
58.5446
 21
10.7353
  0
LINE
  8
0
 10
58.5446
 20
10.7353
 11
58.2144
 21
11.1795
  0
LINE
  8
0
 10
58.2144
 20
11.1795
 11
57.8663
 21
11.6395
  0
LINE
  8
0
 10
57.8663
 20
11.6395
 11
57.3895
 21
12.2109
  0
LINE
  8
0
 10
57.3895
 20
12.2109
 11
56.5426
 21
13.2185
  0
LINE
  8
0
 10
56.5426
 20
13.2185
 11
55.957
 21
13.8372
  0
LINE
  8
0
 10
55.957
 20
13.8372
 11
55.2231
 21
14.6127
  0
LINE
  8
0
 10
55.2231
 20
14.6127
 11
54.4751
 21
15.3054
  0
LINE
  8
0
 10
54.4751
 20
15.3054
 11
53.1711
 21
16.5209
  0
LINE
  8
0
 10
53.1711
 20
16.5209
 11
52.782
 21
16.851
  0
LINE
  8
0
 10
52.782
 20
16.851
 11
52.3601
 21
17.2039
  0
LINE
  8
0
 10
52.3601
 20
17.2039
 11
50.4737
 21
18.6403
  0
LINE
  8
0
 10
50.4737
 20
18.6403
 11
49.1794
 21
19.5895
  0
LINE
  8
0
 10
49.1794
 20
19.5895
 11
48.4668
 21
20.0416
  0
LINE
  8
0
 10
48.4668
 20
20.0416
 11
46.7664
 21
21.1456
  0
LINE
  8
0
 10
46.7664
 20
21.1456
 11
46.4094
 21
21.358
  0
LINE
  8
0
 10
46.4094
 20
21.358
 11
45.7096
 21
21.7607
  0
LINE
  8
0
 10
45.7096
 20
21.7607
 11
43.7492
 21
22.8206
  0
LINE
  8
0
 10
43.7492
 20
22.8206
 11
43.1287
 21
23.1465
  0
LINE
  8
0
 10
43.1287
 20
23.1465
 11
41.712
 21
23.79
  0
LINE
  8
0
 10
41.712
 20
23.79
 11
39.4669
 21
24.8042
  0
LINE
  8
0
 10
39.4669
 20
24.8042
 11
39.4281
 21
24.8199
  0
LINE
  8
0
 10
39.4281
 20
24.8199
 11
39.1259
 21
24.9413
  0
LINE
  8
0
 10
39.1259
 20
24.9413
 11
37.653
 21
25.4689
  0
LINE
  8
0
 10
37.653
 20
25.4689
 11
35.0284
 21
26.3787
  0
LINE
  8
0
 10
35.0284
 20
26.3787
 11
33.7724
 21
26.7212
  0
LINE
  8
0
 10
33.7724
 20
26.7212
 11
32.0292
 21
27.1841
  0
LINE
  8
0
 10
32.0292
 20
27.1841
 11
31.7941
 21
27.2371
  0
LINE
  8
0
 10
31.7941
 20
27.2371
 11
30.8783
 21
27.4346
  0
LINE
  8
0
 10
30.8783
 20
27.4346
 11
29.8578
 21
27.6234
  0
LINE
  8
0
 10
29.8578
 20
27.6234
 11
27.3701
 21
28.0028
  0
LINE
  8
0
 10
27.3701
 20
28.0028
 11
26.0104
 21
28.1575
  0
LINE
  8
0
 10
26.0104
 20
28.1575
 11
25.2716
 21
28.2296
  0
LINE
  8
0
 10
25.2716
 20
28.2296
 11
24.975
 21
28.2537
  0
LINE
  8
0
 10
24.975
 20
28.2537
 11
24.7511
 21
28.2696
  0
LINE
  8
0
 10
24.7511
 20
28.2696
 11
23.1274
 21
28.3554
  0
LINE
  8
0
 10
23.1274
 20
28.3554
 11
21.2583
 21
28.3951
  0
LINE
  8
0
 10
21.2583
 20
28.3951
 11
18.5238
 21
28.3799
  0
LINE
  8
0
 10
18.5238
 20
28.3799
 11
17.8875
 21
28.3592
  0
LINE
  8
0
 10
17.8875
 20
28.3592
 11
17.6219
 21
28.3481
  0
LINE
  8
0
 10
17.6219
 20
28.3481
 11
16.2287
 21
28.2513
  0
LINE
  8
0
 10
16.2287
 20
28.2513
 11
13.6832
 21
28.0696
  0
LINE
  8
0
 10
13.6832
 20
28.0696
 11
11.8466
 21
27.8549
  0
LINE
  8
0
 10
11.8466
 20
27.8549
 11
8.95287
 21
27.5123
  0
LINE
  8
0
 10
8.95287
 20
27.5123
 11
5.77129
 21
27.0529
  0
LINE
  8
0
 10
5.77129
 20
27.0529
 11
1.43002
 21
26.3848
  0
LINE
  8
0
 10
1.43002
 20
26.3848
 11
-5.59715
 21
25.2004
  0
LINE
  8
0
 10
-5.59715
 20
25.2004
 11
-10.0215
 21
24.3717
  0
LINE
  8
0
 10
-10.0215
 20
24.3717
 11
-14.0866
 21
23.5815
  0
LINE
  8
0
 10
-14.0866
 20
23.5815
 11
-14.1296
 21
23.5728
  0
LINE
  8
0
 10
-14.1296
 20
23.5728
 11
-17.0331
 21
22.9613
  0
LINE
  8
0
 10
-17.0331
 20
22.9613
 11
-18.8238
 21
22.5842
  0
LINE
  8
0
 10
-18.8238
 20
22.5842
 11
-23.3152
 21
21.5348
  0
LINE
  8
0
 10
-23.3152
 20
21.5348
 11
-30.2308
 21
19.9179
  0
LINE
  8
0
 10
-30.2308
 20
19.9179
 11
-31.9258
 21
19.4829
  0
LINE
  8
0
 10
-31.9258
 20
19.4829
 11
-34.4492
 21
18.8353
  0
LINE
  8
0
 10
-34.4492
 20
18.8353
 11
-34.8949
 21
18.7176
  0
LINE
  8
0
 10
-34.8949
 20
18.7176
 11
-37.7653
 21
17.9319
  0
LINE
  8
0
 10
-37.7653
 20
17.9319
 11
-44.3926
 21
16.0596
  0
LINE
  8
0
 10
-44.3926
 20
16.0596
 11
-46.2648
 21
15.5132
  0
LINE
  8
0
 10
-46.2648
 20
15.5132
 11
-49.4388
 21
14.5237
  0
LINE
  8
0
 10
-49.4388
 20
14.5237
 11
-53.6543
 21
13.2067
  0
LINE
  8
0
 10
-53.6543
 20
13.2067
 11
-54.7899
 21
12.8327
  0
LINE
  8
0
 10
-54.7899
 20
12.8327
 11
-56.9141
 21
12.1291
  0
LINE
  8
0
 10
-56.9141
 20
12.1291
 11
-61.2045
 21
10.6152
  0
LINE
  8
0
 10
-61.2045
 20
10.6152
 11
-67.2196
 21
8.46433
  0
LINE
  8
0
 10
-67.2196
 20
8.46433
 11
-69.2994
 21
7.66951
  0
LINE
  8
0
 10
-69.2994
 20
7.66951
 11
-69.9939
 21
7.40493
  0
LINE
  8
0
 10
-69.9939
 20
7.40493
 11
-71.1488
 21
6.9571
  0
LINE
  8
0
 10
-71.1488
 20
6.9571
 11
-71.8152
 21
6.69357
  0
LINE
  8
0
 10
-71.8152
 20
6.69357
 11
-75.9233
 21
5.01398
  0
LINE
  8
0
 10
-75.9233
 20
5.01398
 11
-80.0891
 21
3.26253
  0
LINE
  8
0
 10
-80.0891
 20
3.26253
 11
-82.6078
 21
2.10805
  0
LINE
  8
0
 10
-82.6078
 20
2.10805
 11
-87.5599
 21
-0.117787
  0
ENDSEC
  0
SECTION
  2
OBJECTS
  0
DICTIONARY
  0
ENDSEC
  0
EOF
