  0
SECTION
  2
BLOCKS
  0
ENDSEC
  0
SECTION
  2
ENTITIES
  0
LINE
  8
0
 10
21.444
 20
-28.3502
 11
21.9016
 21
-28.3413
  0
LINE
  8
0
 10
21.9016
 20
-28.3413
 11
22.0016
 21
-28.3389
  0
LINE
  8
0
 10
22.0016
 20
-28.3389
 11
22.0428
 21
-28.3377
  0
LINE
  8
0
 10
22.0428
 20
-28.3377
 11
25.0406
 21
-28.1726
  0
LINE
  8
0
 10
25.0406
 20
-28.1726
 11
25.2493
 21
-28.1601
  0
LINE
  8
0
 10
25.2493
 20
-28.1601
 11
25.6379
 21
-28.1319
  0
LINE
  8
0
 10
25.6379
 20
-28.1319
 11
25.9735
 21
-28.1011
  0
LINE
  8
0
 10
25.9735
 20
-28.1011
 11
26.0376
 21
-28.0943
  0
LINE
  8
0
 10
26.0376
 20
-28.0943
 11
26.3526
 21
-28.0519
  0
LINE
  8
0
 10
26.3526
 20
-28.0519
 11
28.7666
 21
-27.7498
  0
LINE
  8
0
 10
28.7666
 20
-27.7498
 11
28.9752
 21
-27.7141
  0
LINE
  8
0
 10
28.9752
 20
-27.7141
 11
30.1233
 21
-27.5168
  0
LINE
  8
0
 10
30.1233
 20
-27.5168
 11
30.1284
 21
-27.5159
  0
LINE
  8
0
 10
30.1284
 20
-27.5159
 11
30.5136
 21
-27.4248
  0
LINE
  8
0
 10
30.5136
 20
-27.4248
 11
34.2603
 21
-26.5368
  0
LINE
  8
0
 10
34.2603
 20
-26.5368
 11
34.2629
 21
-26.5361
  0
LINE
  8
0
 10
34.2629
 20
-26.5361
 11
34.6093
 21
-26.4279
  0
LINE
  8
0
 10
34.6093
 20
-26.4279
 11
36.5221
 21
-25.8313
  0
LINE
  8
0
 10
36.5221
 20
-25.8313
 11
36.7074
 21
-25.7644
  0
LINE
  8
0
 10
36.7074
 20
-25.7644
 11
38.3787
 21
-25.1628
  0
LINE
  8
0
 10
38.3787
 20
-25.1628
 11
38.3856
 21
-25.1602
  0
LINE
  8
0
 10
38.3856
 20
-25.1602
 11
38.7829
 21
-24.9879
  0
LINE
  8
0
 10
38.7829
 20
-24.9879
 11
41.4353
 21
-23.881
  0
LINE
  8
0
 10
41.4353
 20
-23.881
 11
41.5215
 21
-23.8406
  0
LINE
  8
0
 10
41.5215
 20
-23.8406
 11
41.7085
 21
-23.747
  0
LINE
  8
0
 10
41.7085
 20
-23.747
 11
43.694
 21
-22.7861
  0
LINE
  8
0
 10
43.694
 20
-22.7861
 11
43.8848
 21
-22.6826
  0
LINE
  8
0
 10
43.8848
 20
-22.6826
 11
45.3353
 21
-21.9028
  0
LINE
  8
0
 10
45.3353
 20
-21.9028
 11
45.3604
 21
-21.8886
  0
LINE
  8
0
 10
45.3604
 20
-21.8886
 11
45.9214
 21
-21.5386
  0
LINE
  8
0
 10
45.9214
 20
-21.5386
 11
49.043
 21
-19.6067
  0
LINE
  8
0
 10
49.043
 20
-19.6067
 11
49.0458
 21
-19.6048
  0
LINE
  8
0
 10
49.0458
 20
-19.6048
 11
49.1657
 21
-19.5204
  0
LINE
  8
0
 10
49.1657
 20
-19.5204
 11
50.1841
 21
-18.8039
  0
LINE
  8
0
 10
50.1841
 20
-18.8039
 11
50.5141
 21
-18.5508
  0
LINE
  8
0
 10
50.5141
 20
-18.5508
 11
52.4342
 21
-17.0597
  0
LINE
  8
0
 10
52.4342
 20
-17.0597
 11
52.4622
 21
-17.0367
  0
LINE
  8
0
 10
52.4622
 20
-17.0367
 11
52.7619
 21
-16.7702
  0
LINE
  8
0
 10
52.7619
 20
-16.7702
 11
54.8856
 21
-14.8584
  0
LINE
  8
0
 10
54.8856
 20
-14.8584
 11
54.9532
 21
-14.7914
  0
LINE
  8
0
 10
54.9532
 20
-14.7914
 11
55.2805
 21
-14.4668
  0
LINE
  8
0
 10
55.2805
 20
-14.4668
 11
55.4441
 21
-14.2958
  0
LINE
  8
0
 10
55.4441
 20
-14.2958
 11
57.1405
 21
-12.4281
  0
LINE
  8
0
 10
57.1405
 20
-12.4281
 11
57.2193
 21
-12.3378
  0
LINE
  8
0
 10
57.2193
 20
-12.3378
 11
57.4501
 21
-12.0612
  0
LINE
  8
0
 10
57.4501
 20
-12.0612
 11
57.509
 21
-11.9864
  0
LINE
  8
0
 10
57.509
 20
-11.9864
 11
57.6855
 21
-11.7353
  0
LINE
  8
0
 10
57.6855
 20
-11.7353
 11
59.1843
 21
-9.71173
  0
LINE
  8
0
 10
59.1843
 20
-9.71173
 11
59.3533
 21
-9.45053
  0
LINE
  8
0
 10
59.3533
 20
-9.45053
 11
59.4403
 21
-9.30965
  0
LINE
  8
0
 10
59.4403
 20
-9.30965
 11
59.8561
 21
-8.63011
  0
LINE
  8
0
 10
59.8561
 20
-8.63011
 11
59.8611
 21
-8.62149
  0
LINE
  8
0
 10
59.8611
 20
-8.62149
 11
59.9008
 21
-8.55124
  0
LINE
  8
0
 10
59.9008
 20
-8.55124
 11
60.0746
 21
-8.18727
  0
LINE
  8
0
 10
60.0746
 20
-8.18727
 11
61.1377
 21
-6.07388
  0
LINE
  8
0
 10
61.1377
 20
-6.07388
 11
61.1455
 21
-6.05482
  0
LINE
  8
0
 10
61.1455
 20
-6.05482
 11
61.1722
 21
-5.98631
  0
LINE
  8
0
 10
61.1722
 20
-5.98631
 11
61.3821
 21
-5.45976
  0
LINE
  8
0
 10
61.3821
 20
-5.45976
 11
61.4595
 21
-5.21002
  0
LINE
  8
0
 10
61.4595
 20
-5.21002
 11
61.9834
 21
-3.54558
  0
LINE
  8
0
 10
61.9834
 20
-3.54558
 11
61.9858
 21
-3.53574
  0
LINE
  8
0
 10
61.9858
 20
-3.53574
 11
62.0186
 21
-3.38277
  0
LINE
  8
0
 10
62.0186
 20
-3.38277
 11
62.192
 21
-2.58905
  0
LINE
  8
0
 10
62.192
 20
-2.58905
 11
62.1924
 21
-2.58673
  0
LINE
  8
0
 10
62.1924
 20
-2.58673
 11
62.2163
 21
-2.41626
  0
LINE
  8
0
 10
62.2163
 20
-2.41626
 11
62.3795
 21
-1.24361
  0
LINE
  8
0
 10
62.3795
 20
-1.24361
 11
62.3904
 21
-1.05492
  0
LINE
  8
0
 10
62.3904
 20
-1.05492
 11
62.4366
 21
-0.247162
  0
LINE
  8
0
 10
62.4366
 20
-0.247162
 11
62.4366
 21
-0.246063
  0
LINE
  8
0
 10
62.4366
 20
-0.246063
 11
62.4193
 21
0.0428314
  0
LINE
  8
0
 10
62.4193
 20
0.0428314
 11
62.4099
 21
0.197708
  0
LINE
  8
0
 10
62.4099
 20
0.197708
 11
62.2908
 21
2.09866
  0
LINE
  8
0
 10
62.2908
 20
2.09866
 11
62.2828
 21
2.151
  0
LINE
  8
0
 10
62.2828
 20
2.151
 11
62.1924
 21
2.68816
  0
LINE
  8
0
 10
62.1924
 20
2.68816
 11
62.1872
 21
2.71808
  0
LINE
  8
0
 10
62.1872
 20
2.71808
 11
62.1716
 21
2.80272
  0
LINE
  8
0
 10
62.1716
 20
2.80272
 11
62.1301
 21
3.01105
  0
LINE
  8
0
 10
62.1301
 20
3.01105
 11
62.0388
 21
3.35255
  0
LINE
  8
0
 10
62.0388
 20
3.35255
 11
61.5585
 21
5.0741
  0
LINE
  8
0
 10
61.5585
 20
5.0741
 11
61.5506
 21
5.09734
  0
LINE
  8
0
 10
61.5506
 20
5.09734
 11
61.4299
 21
5.39383
  0
LINE
  8
0
 10
61.4299
 20
5.39383
 11
60.6692
 21
7.21257
  0
LINE
  8
0
 10
60.6692
 20
7.21257
 11
60.6674
 21
7.21625
  0
LINE
  8
0
 10
60.6674
 20
7.21625
 11
60.5587
 21
7.43605
  0
LINE
  8
0
 10
60.5587
 20
7.43605
 11
60.5245
 21
7.50366
  0
LINE
  8
0
 10
60.5245
 20
7.50366
 11
60.5131
 21
7.52592
  0
LINE
  8
0
 10
60.5131
 20
7.52592
 11
60.1149
 21
8.2726
  0
LINE
  8
0
 10
60.1149
 20
8.2726
 11
60.0931
 21
8.31256
  0
LINE
  8
0
 10
60.0931
 20
8.31256
 11
59.8949
 21
8.63538
  0
LINE
  8
0
 10
59.8949
 20
8.63538
 11
59.8043
 21
8.77844
  0
LINE
  8
0
 10
59.8043
 20
8.77844
 11
58.4872
 21
10.8154
  0
LINE
  8
0
 10
58.4872
 20
10.8154
 11
58.468
 21
10.8421
  0
LINE
  8
0
 10
58.468
 20
10.8421
 11
58.3692
 21
10.9751
  0
LINE
  8
0
 10
58.3692
 20
10.9751
 11
57.8663
 21
11.6395
  0
LINE
  8
0
 10
57.8663
 20
11.6395
 11
57.6408
 21
11.9097
  0
LINE
  8
0
 10
57.6408
 20
11.9097
 11
56.5116
 21
13.2531
  0
LINE
  8
0
 10
56.5116
 20
13.2531
 11
56.5013
 21
13.2647
  0
LINE
  8
0
 10
56.5013
 20
13.2647
 11
56.3302
 21
13.4455
  0
LINE
  8
0
 10
56.3302
 20
13.4455
 11
55.2701
 21
14.5657
  0
LINE
  8
0
 10
55.2701
 20
14.5657
 11
55.2583
 21
14.5775
  0
LINE
  8
0
 10
55.2583
 20
14.5775
 11
54.9098
 21
14.9003
  0
LINE
  8
0
 10
54.9098
 20
14.9003
 11
53.1711
 21
16.5209
  0
LINE
  8
0
 10
53.1711
 20
16.5209
 11
52.6091
 21
16.9977
  0
LINE
  8
0
 10
52.6091
 20
16.9977
 11
52.4913
 21
17.0963
  0
LINE
  8
0
 10
52.4913
 20
17.0963
 11
52.4585
 21
17.1232
  0
LINE
  8
0
 10
52.4585
 20
17.1232
 11
49.9432
 21
19.0384
  0
LINE
  8
0
 10
49.9432
 20
19.0384
 11
49.7664
 21
19.1712
  0
LINE
  8
0
 10
49.7664
 20
19.1712
 11
49.4157
 21
19.4284
  0
LINE
  8
0
 10
49.4157
 20
19.4284
 11
49.3566
 21
19.4687
  0
LINE
  8
0
 10
49.3566
 20
19.4687
 11
49.0336
 21
19.6736
  0
LINE
  8
0
 10
49.0336
 20
19.6736
 11
46.7664
 21
21.1456
  0
LINE
  8
0
 10
46.7664
 20
21.1456
 11
46.2507
 21
21.4524
  0
LINE
  8
0
 10
46.2507
 20
21.4524
 11
46.0664
 21
21.5585
  0
LINE
  8
0
 10
46.0664
 20
21.5585
 11
45.9772
 21
21.6091
  0
LINE
  8
0
 10
45.9772
 20
21.6091
 11
43.3633
 21
23.0223
  0
LINE
  8
0
 10
43.3633
 20
23.0223
 11
43.0883
 21
23.1667
  0
LINE
  8
0
 10
43.0883
 20
23.1667
 11
43.0748
 21
23.1734
  0
LINE
  8
0
 10
43.0748
 20
23.1734
 11
42.7099
 21
23.3392
  0
LINE
  8
0
 10
42.7099
 20
23.3392
 11
39.4669
 21
24.8042
  0
LINE
  8
0
 10
39.4669
 20
24.8042
 11
39.4499
 21
24.8111
  0
LINE
  8
0
 10
39.4499
 20
24.8111
 11
39.0469
 21
24.9729
  0
LINE
  8
0
 10
39.0469
 20
24.9729
 11
39.0205
 21
24.9835
  0
LINE
  8
0
 10
39.0205
 20
24.9835
 11
38.6497
 21
25.1163
  0
LINE
  8
0
 10
38.6497
 20
25.1163
 11
38.4005
 21
25.2045
  0
LINE
  8
0
 10
38.4005
 20
25.2045
 11
34.901
 21
26.4176
  0
LINE
  8
0
 10
34.901
 20
26.4176
 11
34.8586
 21
26.4305
  0
LINE
  8
0
 10
34.8586
 20
26.4305
 11
34.5473
 21
26.5154
  0
LINE
  8
0
 10
34.5473
 20
26.5154
 11
32.0292
 21
27.1841
  0
LINE
  8
0
 10
32.0292
 20
27.1841
 11
31.927
 21
27.2071
  0
LINE
  8
0
 10
31.927
 20
27.2071
 11
30.7059
 21
27.4705
  0
LINE
  8
0
 10
30.7059
 20
27.4705
 11
30.6485
 21
27.4824
  0
LINE
  8
0
 10
30.6485
 20
27.4824
 11
30.3977
 21
27.5288
  0
LINE
  8
0
 10
30.3977
 20
27.5288
 11
30.2627
 21
27.5525
  0
LINE
  8
0
 10
30.2627
 20
27.5525
 11
26.9457
 21
28.0583
  0
LINE
  8
0
 10
26.9457
 20
28.0583
 11
26.8043
 21
28.0768
  0
LINE
  8
0
 10
26.8043
 20
28.0768
 11
26.4707
 21
28.1148
  0
LINE
  8
0
 10
26.4707
 20
28.1148
 11
25.4035
 21
28.2189
  0
LINE
  8
0
 10
25.4035
 20
28.2189
 11
24.975
 21
28.2537
  0
LINE
  8
0
 10
24.975
 20
28.2537
 11
24.8778
 21
28.2606
  0
LINE
  8
0
 10
24.8778
 20
28.2606
 11
22.7128
 21
28.375
  0
LINE
  8
0
 10
22.7128
 20
28.375
 11
22.5746
 21
28.3815
  0
LINE
  8
0
 10
22.5746
 20
28.3815
 11
22.114
 21
28.3913
  0
LINE
  8
0
 10
22.114
 20
28.3913
 11
21.9001
 21
28.3923
  0
LINE
  8
0
 10
21.9001
 20
28.3923
 11
18.254
 21
28.3719
  0
LINE
  8
0
 10
18.254
 20
28.3719
 11
18.164
 21
28.3693
  0
LINE
  8
0
 10
18.164
 20
28.3693
 11
18.0056
 21
28.3642
  0
LINE
  8
0
 10
18.0056
 20
28.3642
 11
17.6219
 21
28.3481
  0
LINE
  8
0
 10
17.6219
 20
28.3481
 11
17.0131
 21
28.3058
  0
LINE
  8
0
 10
17.0131
 20
28.3058
 11
13.619
 21
28.0636
  0
LINE
  8
0
 10
13.619
 20
28.0636
 11
13.5976
 21
28.0615
  0
LINE
  8
0
 10
13.5976
 20
28.0615
 11
13.1328
 21
28.0072
  0
LINE
  8
0
 10
13.1328
 20
28.0072
 11
8.95287
 21
27.5123
  0
LINE
  8
0
 10
8.95287
 20
27.5123
 11
4.35716
 21
26.8487
  0
LINE
  8
0
 10
4.35716
 20
26.8487
 11
3.20253
 21
26.671
  0
LINE
  8
0
 10
3.20253
 20
26.671
 11
2.7594
 21
26.5995
  0
LINE
  8
0
 10
2.7594
 20
26.5995
 11
-6.61031
 21
25.0202
  0
LINE
  8
0
 10
-6.61031
 20
25.0202
 11
-6.94803
 21
24.9602
  0
LINE
  8
0
 10
-6.94803
 20
24.9602
 11
-8.21463
 21
24.7229
  0
LINE
  8
0
 10
-8.21463
 20
24.7229
 11
-14.0866
 21
23.5815
  0
LINE
  8
0
 10
-14.0866
 20
23.5815
 11
-14.107
 21
23.5773
  0
LINE
  8
0
 10
-14.107
 20
23.5773
 11
-18.843
 21
22.58
  0
LINE
  8
0
 10
-18.843
 20
22.58
 11
-18.8494
 21
22.5786
  0
LINE
  8
0
 10
-18.8494
 20
22.5786
 11
-20.2437
 21
22.2528
  0
LINE
  8
0
 10
-20.2437
 20
22.2528
 11
-30.2333
 21
19.9173
  0
LINE
  8
0
 10
-30.2333
 20
19.9173
 11
-34.4492
 21
18.8353
  0
LINE
  8
0
 10
-34.4492
 20
18.8353
 11
-35.093
 21
18.6653
  0
LINE
  8
0
 10
-35.093
 20
18.6653
 11
-36.0941
 21
18.3913
  0
LINE
  8
0
 10
-36.0941
 20
18.3913
 11
-36.5119
 21
18.2764
  0
LINE
  8
0
 10
-36.5119
 20
18.2764
 11
-45.3484
 21
15.78
  0
LINE
  8
0
 10
-45.3484
 20
15.78
 11
-46.3447
 21
15.4892
  0
LINE
  8
0
 10
-46.3447
 20
15.4892
 11
-46.3713
 21
15.4812
  0
LINE
  8
0
 10
-46.3713
 20
15.4812
 11
-47.5652
 21
15.1091
  0
LINE
  8
0
 10
-47.5652
 20
15.1091
 11
-53.6543
 21
13.2067
  0
LINE
  8
0
 10
-53.6543
 20
13.2067
 11
-54.2736
 21
13.0027
  0
LINE
  8
0
 10
-54.2736
 20
13.0027
 11
-57.106
 21
12.0647
  0
LINE
  8
0
 10
-57.106
 20
12.0647
 11
-57.1699
 21
12.0432
  0
LINE
  8
0
 10
-57.1699
 20
12.0432
 11
-58.898
 21
11.4333
  0
LINE
  8
0
 10
-58.898
 20
11.4333
 11
-59.4746
 21
11.2288
  0
LINE
  8
0
 10
-59.4746
 20
11.2288
 11
-67.4949
 21
8.36098
  0
LINE
  8
0
 10
-67.4949
 20
8.36098
 11
-67.5867
 21
8.32654
  0
LINE
  8
0
 10
-67.5867
 20
8.32654
 11
-68.4774
 21
7.98616
  0
LINE
  8
0
 10
-68.4774
 20
7.98616
 11
-69.4806
 21
7.60397
  0
LINE
  8
0
 10
-69.4806
 20
7.60397
 11
-71.1488
 21
6.95709
  0
LINE
  8
0
 10
-71.1488
 20
6.95709
 11
-71.5334
 21
6.80501
  0
LINE
  8
0
 10
-71.5334
 20
6.80501
 11
-77.0109
 21
4.56551
  0
LINE
  8
0
 10
-77.0109
 20
4.56551
 11
-77.3734
 21
4.41603
  0
LINE
  8
0
 10
-77.3734
 20
4.41603
 11
-79.2638
 21
3.62125
  0
LINE
  8
0
 10
-79.2638
 20
3.62125
 11
-79.4702
 21
3.53157
  0
LINE
  8
0
 10
-79.4702
 20
3.53157
 11
-80.9563
 21
2.85036
  0
LINE
  8
0
 10
-80.9563
 20
2.85036
 11
-87.5599
 21
-0.117813
  0
LINE
  8
0
 10
-87.5599
 20
-0.117813
 11
-86.3347
 21
-0.675461
  0
LINE
  8
0
 10
-86.3347
 20
-0.675461
 11
-83.4355
 21
-2.01013
  0
LINE
  8
0
 10
-83.4355
 20
-2.01013
 11
-83.3204
 21
-2.06136
  0
LINE
  8
0
 10
-83.3204
 20
-2.06136
 11
-81.1541
 21
-2.96527
  0
LINE
  8
0
 10
-81.1541
 20
-2.96527
 11
-74.4651
 21
-5.82471
  0
LINE
  8
0
 10
-74.4651
 20
-5.82471
 11
-74.325
 21
-5.88087
  0
LINE
  8
0
 10
-74.325
 20
-5.88087
 11
-74.1725
 21
-5.94101
  0
LINE
  8
0
 10
-74.1725
 20
-5.94101
 11
-72.056
 21
-6.78642
  0
LINE
  8
0
 10
-72.056
 20
-6.78642
 11
-70.6022
 21
-7.34035
  0
LINE
  8
0
 10
-70.6022
 20
-7.34035
 11
-65.8598
 21
-9.14062
  0
LINE
  8
0
 10
-65.8598
 20
-9.14062
 11
-65.8173
 21
-9.15627
  0
LINE
  8
0
 10
-65.8173
 20
-9.15627
 11
-63.9642
 21
-9.80453
  0
LINE
  8
0
 10
-63.9642
 20
-9.80453
 11
-63.375
 21
-10.0099
  0
LINE
  8
0
 10
-63.375
 20
-10.0099
 11
-56.216
 21
-12.5035
  0
LINE
  8
0
 10
-56.216
 20
-12.5035
 11
-56.2086
 21
-12.5059
  0
LINE
  8
0
 10
-56.2086
 20
-12.5059
 11
-55.8079
 21
-12.6374
  0
LINE
  8
0
 10
-55.8079
 20
-12.6374
 11
-54.5616
 21
-13.046
  0
LINE
  8
0
 10
-54.5616
 20
-13.046
 11
-53.121
 21
-13.4931
  0
LINE
  8
0
 10
-53.121
 20
-13.4931
 11
-46.1912
 21
-15.647
  0
LINE
  8
0
 10
-46.1912
 20
-15.647
 11
-46.1752
 21
-15.6518
  0
LINE
  8
0
 10
-46.1752
 20
-15.6518
 11
-45.1791
 21
-15.9396
  0
LINE
  8
0
 10
-45.1791
 20
-15.9396
 11
-36.5219
 21
-18.3589
  0
LINE
  8
0
 10
-36.5219
 20
-18.3589
 11
-36.1087
 21
-18.4714
  0
LINE
  8
0
 10
-36.1087
 20
-18.4714
 11
-34.9829
 21
-18.7748
  0
LINE
  8
0
 10
-34.9829
 20
-18.7748
 11
-33.5274
 21
-19.1532
  0
LINE
  8
0
 10
-33.5274
 20
-19.1532
 11
-32.8374
 21
-19.3274
  0
LINE
  8
0
 10
-32.8374
 20
-19.3274
 11
-25.2216
 21
-21.181
  0
LINE
  8
0
 10
-25.2216
 20
-21.181
 11
-24.8091
 21
-21.2794
  0
LINE
  8
0
 10
-24.8091
 20
-21.2794
 11
-23.3449
 21
-21.6173
  0
LINE
  8
0
 10
-23.3449
 20
-21.6173
 11
-22.988
 21
-21.6965
  0
LINE
  8
0
 10
-22.988
 20
-21.6965
 11
-22.0975
 21
-21.8816
  0
LINE
  8
0
 10
-22.0975
 20
-21.8816
 11
-14.1207
 21
-23.5994
  0
LINE
  8
0
 10
-14.1207
 20
-23.5994
 11
-12.0176
 21
-24.0164
  0
LINE
  8
0
 10
-12.0176
 20
-24.0164
 11
-2.48572
 21
-25.7479
  0
LINE
  8
0
 10
-2.48572
 20
-25.7479
 11
9.02704
 21
-27.4877
  0
LINE
  8
0
 10
9.02704
 20
-27.4877
 11
10.7136
 21
-27.7029
  0
LINE
  8
0
 10
10.7136
 20
-27.7029
 11
11.1565
 21
-27.754
  0
LINE
  8
0
 10
11.1565
 20
-27.754
 11
11.3482
 21
-27.7746
  0
LINE
  8
0
 10
11.3482
 20
-27.7746
 11
16.188
 21
-28.211
  0
LINE
  8
0
 10
16.188
 20
-28.211
 11
16.3997
 21
-28.2269
  0
LINE
  8
0
 10
16.3997
 20
-28.2269
 11
16.8192
 21
-28.2542
  0
LINE
  8
0
 10
16.8192
 20
-28.2542
 11
16.9219
 21
-28.2589
  0
LINE
  8
0
 10
16.9219
 20
-28.2589
 11
20.9126
 21
-28.3445
  0
LINE
  8
0
 10
20.9126
 20
-28.3445
 11
21.444
 21
-28.3502
  0
ENDSEC
  0
SECTION
  2
OBJECTS
  0
DICTIONARY
  0
ENDSEC
  0
EOF
