  0
SECTION
  2
BLOCKS
  0
ENDSEC
  0
SECTION
  2
ENTITIES
  0
LINE
  8
0
 10
21.444
 20
-28.3502
 11
21.7608
 21
-28.344
  0
LINE
  8
0
 10
21.7608
 20
-28.344
 11
22.1664
 21
-28.3342
  0
LINE
  8
0
 10
22.1664
 20
-28.3342
 11
22.2488
 21
-28.3318
  0
LINE
  8
0
 10
22.2488
 20
-28.3318
 11
23.9975
 21
-28.2355
  0
LINE
  8
0
 10
23.9975
 20
-28.2355
 11
24.4147
 21
-28.2104
  0
LINE
  8
0
 10
24.4147
 20
-28.2104
 11
25.9976
 21
-28.0955
  0
LINE
  8
0
 10
25.9976
 20
-28.0955
 11
26.23
 21
-28.0742
  0
LINE
  8
0
 10
26.23
 20
-28.0742
 11
26.3583
 21
-28.0608
  0
LINE
  8
0
 10
26.3583
 20
-28.0608
 11
27.3584
 21
-27.926
  0
LINE
  8
0
 10
27.3584
 20
-27.926
 11
28.7666
 21
-27.7498
  0
LINE
  8
0
 10
28.7666
 20
-27.7498
 11
29.4285
 21
-27.6366
  0
LINE
  8
0
 10
29.4285
 20
-27.6366
 11
30.0982
 21
-27.5215
  0
LINE
  8
0
 10
30.0982
 20
-27.5215
 11
30.1083
 21
-27.5197
  0
LINE
  8
0
 10
30.1083
 20
-27.5197
 11
31.6769
 21
-27.1485
  0
LINE
  8
0
 10
31.6769
 20
-27.1485
 11
34.2707
 21
-26.5338
  0
LINE
  8
0
 10
34.2707
 20
-26.5338
 11
34.276
 21
-26.5323
  0
LINE
  8
0
 10
34.276
 20
-26.5323
 11
35.4145
 21
-26.1768
  0
LINE
  8
0
 10
35.4145
 20
-26.1768
 11
36.5221
 21
-25.8313
  0
LINE
  8
0
 10
36.5221
 20
-25.8313
 11
37.2488
 21
-25.5689
  0
LINE
  8
0
 10
37.2488
 20
-25.5689
 11
38.4061
 21
-25.1524
  0
LINE
  8
0
 10
38.4061
 20
-25.1524
 11
38.4197
 21
-25.1471
  0
LINE
  8
0
 10
38.4197
 20
-25.1471
 11
39.9715
 21
-24.474
  0
LINE
  8
0
 10
39.9715
 20
-24.474
 11
41.7798
 21
-23.7194
  0
LINE
  8
0
 10
41.7798
 20
-23.7194
 11
41.952
 21
-23.6386
  0
LINE
  8
0
 10
41.952
 20
-23.6386
 11
42.5362
 21
-23.3464
  0
LINE
  8
0
 10
42.5362
 20
-23.3464
 11
43.694
 21
-22.7861
  0
LINE
  8
0
 10
43.694
 20
-22.7861
 11
44.4336
 21
-22.3846
  0
LINE
  8
0
 10
44.4336
 20
-22.3846
 11
45.436
 21
-21.8458
  0
LINE
  8
0
 10
45.436
 20
-21.8458
 11
45.4863
 21
-21.8173
  0
LINE
  8
0
 10
45.4863
 20
-21.8173
 11
47.2079
 21
-20.7433
  0
LINE
  8
0
 10
47.2079
 20
-20.7433
 11
49.0288
 21
-19.6163
  0
LINE
  8
0
 10
49.0288
 20
-19.6163
 11
49.0344
 21
-19.6125
  0
LINE
  8
0
 10
49.0344
 20
-19.6125
 11
49.4791
 21
-19.3
  0
LINE
  8
0
 10
49.4791
 20
-19.3
 11
50.1841
 21
-18.8039
  0
LINE
  8
0
 10
50.1841
 20
-18.8039
 11
51.1743
 21
-18.0443
  0
LINE
  8
0
 10
51.1743
 20
-18.0443
 11
52.2944
 21
-17.1745
  0
LINE
  8
0
 10
52.2944
 20
-17.1745
 11
52.3503
 21
-17.1286
  0
LINE
  8
0
 10
52.3503
 20
-17.1286
 11
53.4242
 21
-16.1733
  0
LINE
  8
0
 10
53.4242
 20
-16.1733
 11
54.8945
 21
-14.8498
  0
LINE
  8
0
 10
54.8945
 20
-14.8498
 11
54.8989
 21
-14.8455
  0
LINE
  8
0
 10
54.8989
 20
-14.8455
 11
55.0896
 21
-14.6561
  0
LINE
  8
0
 10
55.0896
 20
-14.6561
 11
55.2805
 21
-14.4668
  0
LINE
  8
0
 10
55.2805
 20
-14.4668
 11
55.7568
 21
-13.969
  0
LINE
  8
0
 10
55.7568
 20
-13.969
 11
56.7463
 21
-12.8796
  0
LINE
  8
0
 10
56.7463
 20
-12.8796
 11
56.904
 21
-12.699
  0
LINE
  8
0
 10
56.904
 20
-12.699
 11
57.6858
 21
-11.762
  0
LINE
  8
0
 10
57.6858
 20
-11.762
 11
57.8036
 21
-11.6124
  0
LINE
  8
0
 10
57.8036
 20
-11.6124
 11
58.3101
 21
-10.8921
  0
LINE
  8
0
 10
58.3101
 20
-10.8921
 11
59.1843
 21
-9.71173
  0
LINE
  8
0
 10
59.1843
 20
-9.71173
 11
59.3013
 21
-9.5309
  0
LINE
  8
0
 10
59.3013
 20
-9.5309
 11
59.5882
 21
-9.06609
  0
LINE
  8
0
 10
59.5882
 20
-9.06609
 11
59.8761
 21
-8.59566
  0
LINE
  8
0
 10
59.8761
 20
-8.59566
 11
59.8861
 21
-8.57843
  0
LINE
  8
0
 10
59.8861
 20
-8.57843
 11
59.998
 21
-8.38069
  0
LINE
  8
0
 10
59.998
 20
-8.38069
 11
60.5135
 21
-7.30066
  0
LINE
  8
0
 10
60.5135
 20
-7.30066
 11
61.169
 21
-5.99765
  0
LINE
  8
0
 10
61.169
 20
-5.99765
 11
61.1846
 21
-5.95953
  0
LINE
  8
0
 10
61.1846
 20
-5.95953
 11
61.2598
 21
-5.76642
  0
LINE
  8
0
 10
61.2598
 20
-5.76642
 11
61.3821
 21
-5.45976
  0
LINE
  8
0
 10
61.3821
 20
-5.45976
 11
61.6304
 21
-4.65846
  0
LINE
  8
0
 10
61.6304
 20
-4.65846
 11
61.9931
 21
-3.50618
  0
LINE
  8
0
 10
61.9931
 20
-3.50618
 11
61.9979
 21
-3.48647
  0
LINE
  8
0
 10
61.9979
 20
-3.48647
 11
62.0887
 21
-3.06363
  0
LINE
  8
0
 10
62.0887
 20
-3.06363
 11
62.1898
 21
-2.60065
  0
LINE
  8
0
 10
62.1898
 20
-2.60065
 11
62.1907
 21
-2.59601
  0
LINE
  8
0
 10
62.1907
 20
-2.59601
 11
62.2665
 21
-2.05544
  0
LINE
  8
0
 10
62.2665
 20
-2.05544
 11
62.3795
 21
-1.24361
  0
LINE
  8
0
 10
62.3795
 20
-1.24361
 11
62.4095
 21
-0.723846
  0
LINE
  8
0
 10
62.4095
 20
-0.723846
 11
62.4365
 21
-0.252655
  0
LINE
  8
0
 10
62.4365
 20
-0.252655
 11
62.4365
 21
-0.250443
  0
LINE
  8
0
 10
62.4365
 20
-0.250443
 11
62.3816
 21
0.662369
  0
LINE
  8
0
 10
62.3816
 20
0.662369
 11
62.3628
 21
0.972122
  0
LINE
  8
0
 10
62.3628
 20
0.972122
 11
62.2933
 21
2.08096
  0
LINE
  8
0
 10
62.2933
 20
2.08096
 11
62.2923
 21
2.08804
  0
LINE
  8
0
 10
62.2923
 20
2.08804
 11
62.276
 21
2.19553
  0
LINE
  8
0
 10
62.276
 20
2.19553
 11
62.2715
 21
2.22522
  0
LINE
  8
0
 10
62.2715
 20
2.22522
 11
62.2188
 21
2.53854
  0
LINE
  8
0
 10
62.2188
 20
2.53854
 11
62.2082
 21
2.59839
  0
LINE
  8
0
 10
62.2082
 20
2.59839
 11
62.1588
 21
2.86682
  0
LINE
  8
0
 10
62.1588
 20
2.86682
 11
62.1301
 21
3.01105
  0
LINE
  8
0
 10
62.1301
 20
3.01105
 11
61.878
 21
3.95378
  0
LINE
  8
0
 10
61.878
 20
3.95378
 11
61.5978
 21
4.95798
  0
LINE
  8
0
 10
61.5978
 20
4.95798
 11
61.5821
 21
5.00443
  0
LINE
  8
0
 10
61.5821
 20
5.00443
 11
61.1958
 21
5.95346
  0
LINE
  8
0
 10
61.1958
 20
5.95346
 11
60.6692
 21
7.21257
  0
LINE
  8
0
 10
60.6692
 20
7.21257
 11
60.6642
 21
7.22284
  0
LINE
  8
0
 10
60.6642
 20
7.22284
 11
60.5898
 21
7.37329
  0
LINE
  8
0
 10
60.5898
 20
7.37329
 11
60.4788
 21
7.59271
  0
LINE
  8
0
 10
60.4788
 20
7.59271
 11
60.4559
 21
7.63724
  0
LINE
  8
0
 10
60.4559
 20
7.63724
 11
60.2236
 21
8.07278
  0
LINE
  8
0
 10
60.2236
 20
8.07278
 11
60.1801
 21
8.15271
  0
LINE
  8
0
 10
60.1801
 20
8.15271
 11
59.5325
 21
9.20763
  0
LINE
  8
0
 10
59.5325
 20
9.20763
 11
59.3512
 21
9.49374
  0
LINE
  8
0
 10
59.3512
 20
9.49374
 11
58.5829
 21
10.6819
  0
LINE
  8
0
 10
58.5829
 20
10.6819
 11
58.5446
 21
10.7353
  0
LINE
  8
0
 10
58.5446
 20
10.7353
 11
58.2144
 21
11.1795
  0
LINE
  8
0
 10
58.2144
 20
11.1795
 11
57.8663
 21
11.6395
  0
LINE
  8
0
 10
57.8663
 20
11.6395
 11
57.2219
 21
12.4117
  0
LINE
  8
0
 10
57.2219
 20
12.4117
 11
56.5633
 21
13.1953
  0
LINE
  8
0
 10
56.5633
 20
13.1953
 11
56.5426
 21
13.2184
  0
LINE
  8
0
 10
56.5426
 20
13.2184
 11
55.957
 21
13.8372
  0
LINE
  8
0
 10
55.957
 20
13.8372
 11
55.2231
 21
14.6127
  0
LINE
  8
0
 10
55.2231
 20
14.6127
 11
55.1996
 21
14.6362
  0
LINE
  8
0
 10
55.1996
 20
14.6362
 11
54.1853
 21
15.5756
  0
LINE
  8
0
 10
54.1853
 20
15.5756
 11
53.1711
 21
16.5209
  0
LINE
  8
0
 10
53.1711
 20
16.5209
 11
52.782
 21
16.851
  0
LINE
  8
0
 10
52.782
 20
16.851
 11
52.3601
 21
17.2039
  0
LINE
  8
0
 10
52.3601
 20
17.2039
 11
52.2945
 21
17.2576
  0
LINE
  8
0
 10
52.2945
 20
17.2576
 11
50.8273
 21
18.3748
  0
LINE
  8
0
 10
50.8273
 20
18.3748
 11
50.4737
 21
18.6403
  0
LINE
  8
0
 10
50.4737
 20
18.6403
 11
49.1794
 21
19.5895
  0
LINE
  8
0
 10
49.1794
 20
19.5895
 11
49.0613
 21
19.6701
  0
LINE
  8
0
 10
49.0613
 20
19.6701
 11
48.0889
 21
20.2869
  0
LINE
  8
0
 10
48.0889
 20
20.2869
 11
46.7664
 21
21.1456
  0
LINE
  8
0
 10
46.7664
 20
21.1456
 11
46.4094
 21
21.358
  0
LINE
  8
0
 10
46.4094
 20
21.358
 11
45.7096
 21
21.7607
  0
LINE
  8
0
 10
45.7096
 20
21.7607
 11
45.5312
 21
21.8618
  0
LINE
  8
0
 10
45.5312
 20
21.8618
 11
44.0065
 21
22.6862
  0
LINE
  8
0
 10
44.0065
 20
22.6862
 11
43.1556
 21
23.133
  0
LINE
  8
0
 10
43.1556
 20
23.133
 11
43.1287
 21
23.1465
  0
LINE
  8
0
 10
43.1287
 20
23.1465
 11
41.712
 21
23.79
  0
LINE
  8
0
 10
41.712
 20
23.79
 11
39.4669
 21
24.8042
  0
LINE
  8
0
 10
39.4669
 20
24.8042
 11
39.4136
 21
24.8258
  0
LINE
  8
0
 10
39.4136
 20
24.8258
 11
39.1786
 21
24.9202
  0
LINE
  8
0
 10
39.1786
 20
24.9202
 11
39.1259
 21
24.9413
  0
LINE
  8
0
 10
39.1259
 20
24.9413
 11
37.653
 21
25.4689
  0
LINE
  8
0
 10
37.653
 20
25.4689
 11
37.1546
 21
25.6452
  0
LINE
  8
0
 10
37.1546
 20
25.6452
 11
35.1134
 21
26.3528
  0
LINE
  8
0
 10
35.1134
 20
26.3528
 11
35.0284
 21
26.3787
  0
LINE
  8
0
 10
35.0284
 20
26.3787
 11
33.7724
 21
26.7212
  0
LINE
  8
0
 10
33.7724
 20
26.7212
 11
32.0292
 21
27.1841
  0
LINE
  8
0
 10
32.0292
 20
27.1841
 11
31.7055
 21
27.2571
  0
LINE
  8
0
 10
31.7055
 20
27.2571
 11
30.9932
 21
27.4107
  0
LINE
  8
0
 10
30.9932
 20
27.4107
 11
30.8783
 21
27.4346
  0
LINE
  8
0
 10
30.8783
 20
27.4346
 11
29.8578
 21
27.6234
  0
LINE
  8
0
 10
29.8578
 20
27.6234
 11
29.5879
 21
27.6707
  0
LINE
  8
0
 10
29.5879
 20
27.6707
 11
27.653
 21
27.9658
  0
LINE
  8
0
 10
27.653
 20
27.9658
 11
27.3701
 21
28.0028
  0
LINE
  8
0
 10
27.3701
 20
28.0028
 11
26.0104
 21
28.1575
  0
LINE
  8
0
 10
26.0104
 20
28.1575
 11
25.2716
 21
28.2296
  0
LINE
  8
0
 10
25.2716
 20
28.2296
 11
24.975
 21
28.2537
  0
LINE
  8
0
 10
24.975
 20
28.2537
 11
24.6667
 21
28.2756
  0
LINE
  8
0
 10
24.6667
 20
28.2756
 11
23.4038
 21
28.3423
  0
LINE
  8
0
 10
23.4038
 20
28.3423
 11
23.1274
 21
28.3554
  0
LINE
  8
0
 10
23.1274
 20
28.3554
 11
21.2583
 21
28.3951
  0
LINE
  8
0
 10
21.2583
 20
28.3951
 11
20.8305
 21
28.397
  0
LINE
  8
0
 10
20.8305
 20
28.397
 11
18.7037
 21
28.3851
  0
LINE
  8
0
 10
18.7037
 20
28.3851
 11
18.5238
 21
28.3799
  0
LINE
  8
0
 10
18.5238
 20
28.3799
 11
17.8875
 21
28.3592
  0
LINE
  8
0
 10
17.8875
 20
28.3592
 11
17.6219
 21
28.3481
  0
LINE
  8
0
 10
17.6219
 20
28.3481
 11
15.7058
 21
28.215
  0
LINE
  8
0
 10
15.7058
 20
28.215
 11
13.7261
 21
28.0737
  0
LINE
  8
0
 10
13.7261
 20
28.0737
 11
13.6832
 21
28.0696
  0
LINE
  8
0
 10
13.6832
 20
28.0696
 11
11.8466
 21
27.8549
  0
LINE
  8
0
 10
11.8466
 20
27.8549
 11
8.95287
 21
27.5123
  0
LINE
  8
0
 10
8.95287
 20
27.5123
 11
5.77129
 21
27.0529
  0
LINE
  8
0
 10
5.77129
 20
27.0529
 11
1.43002
 21
26.3848
  0
LINE
  8
0
 10
1.43002
 20
26.3848
 11
0.543762
 21
26.2417
  0
LINE
  8
0
 10
0.543762
 20
26.2417
 11
-4.92171
 21
25.3206
  0
LINE
  8
0
 10
-4.92171
 20
25.3206
 11
-5.59714
 21
25.2004
  0
LINE
  8
0
 10
-5.59714
 20
25.2004
 11
-10.0215
 21
24.3717
  0
LINE
  8
0
 10
-10.0215
 20
24.3717
 11
-14.0866
 21
23.5815
  0
LINE
  8
0
 10
-14.0866
 20
23.5815
 11
-14.1447
 21
23.5697
  0
LINE
  8
0
 10
-14.1447
 20
23.5697
 11
-18.811
 21
22.587
  0
LINE
  8
0
 10
-18.811
 20
22.587
 11
-18.8238
 21
22.5842
  0
LINE
  8
0
 10
-18.8238
 20
22.5842
 11
-23.3151
 21
21.5348
  0
LINE
  8
0
 10
-23.3151
 20
21.5348
 11
-30.2296
 21
19.9182
  0
LINE
  8
0
 10
-30.2296
 20
19.9182
 11
-34.4492
 21
18.8353
  0
LINE
  8
0
 10
-34.4492
 20
18.8353
 11
-34.8949
 21
18.7176
  0
LINE
  8
0
 10
-34.8949
 20
18.7176
 11
-37.7653
 21
17.9319
  0
LINE
  8
0
 10
-37.7653
 20
17.9319
 11
-38.6008
 21
17.7022
  0
LINE
  8
0
 10
-38.6008
 20
17.7022
 11
-43.7553
 21
16.246
  0
LINE
  8
0
 10
-43.7553
 20
16.246
 11
-46.2116
 21
15.5291
  0
LINE
  8
0
 10
-46.2116
 20
15.5291
 11
-46.2648
 21
15.5132
  0
LINE
  8
0
 10
-46.2648
 20
15.5132
 11
-49.4388
 21
14.5237
  0
LINE
  8
0
 10
-49.4388
 20
14.5237
 11
-53.6543
 21
13.2067
  0
LINE
  8
0
 10
-53.6543
 20
13.2067
 11
-55.1341
 21
12.7193
  0
LINE
  8
0
 10
-55.1341
 20
12.7193
 11
-56.7862
 21
12.1721
  0
LINE
  8
0
 10
-56.7862
 20
12.1721
 11
-56.9141
 21
12.1291
  0
LINE
  8
0
 10
-56.9141
 20
12.1291
 11
-61.2045
 21
10.6151
  0
LINE
  8
0
 10
-61.2045
 20
10.6151
 11
-62.3577
 21
10.2061
  0
LINE
  8
0
 10
-62.3577
 20
10.2061
 11
-67.0361
 21
8.5332
  0
LINE
  8
0
 10
-67.0361
 20
8.5332
 11
-67.2196
 21
8.46432
  0
LINE
  8
0
 10
-67.2196
 20
8.46432
 11
-69.2994
 21
7.66951
  0
LINE
  8
0
 10
-69.2994
 20
7.66951
 11
-69.9939
 21
7.40492
  0
LINE
  8
0
 10
-69.9939
 20
7.40492
 11
-71.1488
 21
6.95709
  0
LINE
  8
0
 10
-71.1488
 20
6.95709
 11
-72.0031
 21
6.61926
  0
LINE
  8
0
 10
-72.0031
 20
6.61926
 11
-75.1982
 21
5.31294
  0
LINE
  8
0
 10
-75.1982
 20
5.31294
 11
-75.9233
 21
5.01398
  0
LINE
  8
0
 10
-75.9233
 20
5.01398
 11
-80.0891
 21
3.26251
  0
LINE
  8
0
 10
-80.0891
 20
3.26251
 11
-80.5018
 21
3.08316
  0
LINE
  8
0
 10
-80.5018
 20
3.08316
 11
-83.7074
 21
1.61382
  0
LINE
  8
0
 10
-83.7074
 20
1.61382
 11
-87.5599
 21
-0.117783
  0
LINE
  8
0
 10
-87.5599
 20
-0.117783
 11
-84.9827
 21
-1.29076
  0
LINE
  8
0
 10
-84.9827
 20
-1.29076
 11
-82.975
 21
-2.21504
  0
LINE
  8
0
 10
-82.975
 20
-2.21504
 11
-82.7448
 21
-2.31749
  0
LINE
  8
0
 10
-82.7448
 20
-2.31749
 11
-78.1269
 21
-4.24434
  0
LINE
  8
0
 10
-78.1269
 20
-4.24434
 11
-73.9045
 21
-6.04936
  0
LINE
  8
0
 10
-73.9045
 20
-6.04936
 11
-73.6242
 21
-6.1617
  0
LINE
  8
0
 10
-73.6242
 20
-6.1617
 11
-73.2906
 21
-6.29329
  0
LINE
  8
0
 10
-73.2906
 20
-6.29329
 11
-72.056
 21
-6.78642
  0
LINE
  8
0
 10
-72.056
 20
-6.78642
 11
-68.8386
 21
-8.0123
  0
LINE
  8
0
 10
-68.8386
 20
-8.0123
 11
-66.0723
 21
-9.06242
  0
LINE
  8
0
 10
-66.0723
 20
-9.06242
 11
-65.9873
 21
-9.0937
  0
LINE
  8
0
 10
-65.9873
 20
-9.0937
 11
-61.6075
 21
-10.6259
  0
LINE
  8
0
 10
-61.6075
 20
-10.6259
 11
-60.4291
 21
-11.0367
  0
LINE
  8
0
 10
-60.4291
 20
-11.0367
 11
-56.2532
 21
-12.4912
  0
LINE
  8
0
 10
-56.2532
 20
-12.4912
 11
-56.2383
 21
-12.4961
  0
LINE
  8
0
 10
-56.2383
 20
-12.4961
 11
-55.2885
 21
-12.8076
  0
LINE
  8
0
 10
-55.2885
 20
-12.8076
 11
-54.5616
 21
-13.046
  0
LINE
  8
0
 10
-54.5616
 20
-13.046
 11
-50.9246
 21
-14.1749
  0
LINE
  8
0
 10
-50.9246
 20
-14.1749
 11
-46.1271
 21
-15.666
  0
LINE
  8
0
 10
-46.1271
 20
-15.666
 11
-46.0951
 21
-15.6755
  0
LINE
  8
0
 10
-46.0951
 20
-15.6755
 11
-43.6375
 21
-16.3856
  0
LINE
  8
0
 10
-43.6375
 20
-16.3856
 11
-38.5876
 21
-17.7969
  0
LINE
  8
0
 10
-38.5876
 20
-17.7969
 11
-37.7613
 21
-18.0217
  0
LINE
  8
0
 10
-37.7613
 20
-18.0217
 11
-34.535
 21
-18.8912
  0
LINE
  8
0
 10
-34.535
 20
-18.8912
 11
-33.5274
 21
-19.1532
  0
LINE
  8
0
 10
-33.5274
 20
-19.1532
 11
-31.7266
 21
-19.6079
  0
LINE
  8
0
 10
-31.7266
 20
-19.6079
 11
-27.2842
 21
-20.6891
  0
LINE
  8
0
 10
-27.2842
 20
-20.6891
 11
-26.4592
 21
-20.8859
  0
LINE
  8
0
 10
-26.4592
 20
-20.8859
 11
-21.9173
 21
-21.9341
  0
LINE
  8
0
 10
-21.9173
 20
-21.9341
 11
-21.2034
 21
-22.0925
  0
LINE
  8
0
 10
-21.2034
 20
-22.0925
 11
-18.7791
 21
-22.5963
  0
LINE
  8
0
 10
-18.7791
 20
-22.5963
 11
-14.1247
 21
-23.5986
  0
LINE
  8
0
 10
-14.1247
 20
-23.5986
 11
-12.0175
 21
-24.0164
  0
LINE
  8
0
 10
-12.0175
 20
-24.0164
 11
-2.48654
 21
-25.7478
  0
LINE
  8
0
 10
-2.48654
 20
-25.7478
 11
9.02704
 21
-27.4877
  0
LINE
  8
0
 10
9.02704
 20
-27.4877
 11
10.1946
 21
-27.6367
  0
LINE
  8
0
 10
10.1946
 20
-27.6367
 11
11.9232
 21
-27.8362
  0
LINE
  8
0
 10
11.9232
 20
-27.8362
 11
12.3065
 21
-27.8773
  0
LINE
  8
0
 10
12.3065
 20
-27.8773
 11
15.1297
 21
-28.1319
  0
LINE
  8
0
 10
15.1297
 20
-28.1319
 11
15.553
 21
-28.1635
  0
LINE
  8
0
 10
15.553
 20
-28.1635
 11
17.2299
 21
-28.273
  0
LINE
  8
0
 10
17.2299
 20
-28.273
 11
17.4353
 21
-28.2823
  0
LINE
  8
0
 10
17.4353
 20
-28.2823
 11
19.7631
 21
-28.3323
  0
LINE
  8
0
 10
19.7631
 20
-28.3323
 11
21.444
 21
-28.3502
  0
ENDSEC
  0
SECTION
  2
OBJECTS
  0
DICTIONARY
  0
ENDSEC
  0
EOF
