  0
SECTION
  2
BLOCKS
  0
ENDSEC
  0
SECTION
  2
ENTITIES
  0
LINE
  8
0
 10
-87.5599
 20
-0.117814
 11
-85.9983
 21
-0.828538
  0
LINE
  8
0
 10
-85.9983
 20
-0.828538
 11
-83.3204
 21
-2.06136
  0
LINE
  8
0
 10
-83.3204
 20
-2.06136
 11
-80.7881
 21
-3.11798
  0
LINE
  8
0
 10
-80.7881
 20
-3.11798
 11
-74.325
 21
-5.88088
  0
LINE
  8
0
 10
-74.325
 20
-5.88088
 11
-74.1725
 21
-5.94102
  0
LINE
  8
0
 10
-74.1725
 20
-5.94102
 11
-72.056
 21
-6.78643
  0
LINE
  8
0
 10
-72.056
 20
-6.78643
 11
-70.6022
 21
-7.34036
  0
LINE
  8
0
 10
-70.6022
 20
-7.34036
 11
-65.8598
 21
-9.14063
  0
LINE
  8
0
 10
-65.8598
 20
-9.14063
 11
-63.3751
 21
-10.0099
  0
LINE
  8
0
 10
-63.3751
 20
-10.0099
 11
-56.216
 21
-12.5035
  0
LINE
  8
0
 10
-56.216
 20
-12.5035
 11
-55.8079
 21
-12.6374
  0
LINE
  8
0
 10
-55.8079
 20
-12.6374
 11
-54.5616
 21
-13.046
  0
LINE
  8
0
 10
-54.5616
 20
-13.046
 11
-52.5719
 21
-13.6636
  0
LINE
  8
0
 10
-52.5719
 20
-13.6636
 11
-46.1752
 21
-15.6518
  0
LINE
  8
0
 10
-46.1752
 20
-15.6518
 11
-45.1791
 21
-15.9396
  0
LINE
  8
0
 10
-45.1791
 20
-15.9396
 11
-36.5219
 21
-18.359
  0
LINE
  8
0
 10
-36.5219
 20
-18.359
 11
-34.871
 21
-18.8039
  0
LINE
  8
0
 10
-34.871
 20
-18.8039
 11
-33.5274
 21
-19.1532
  0
LINE
  8
0
 10
-33.5274
 20
-19.1532
 11
-32.8374
 21
-19.3274
  0
LINE
  8
0
 10
-32.8374
 20
-19.3274
 11
-25.2216
 21
-21.181
  0
LINE
  8
0
 10
-25.2216
 20
-21.181
 11
-22.988
 21
-21.6965
  0
LINE
  8
0
 10
-22.988
 20
-21.6965
 11
-22.0975
 21
-21.8816
  0
LINE
  8
0
 10
-22.0975
 20
-21.8816
 11
-14.1217
 21
-23.5992
  0
LINE
  8
0
 10
-14.1217
 20
-23.5992
 11
-13.7312
 21
-23.6767
  0
LINE
  8
0
 10
-13.7312
 20
-23.6767
 11
-12.0176
 21
-24.0164
  0
LINE
  8
0
 10
-12.0176
 20
-24.0164
 11
-10.2783
 21
-24.3324
  0
LINE
  8
0
 10
-10.2783
 20
-24.3324
 11
-2.48593
 21
-25.7479
  0
LINE
  8
0
 10
-2.48593
 20
-25.7479
 11
-0.479824
 21
-26.0511
  0
LINE
  8
0
 10
-0.479824
 20
-26.0511
 11
9.02705
 21
-27.4877
  0
LINE
  8
0
 10
9.02705
 20
-27.4877
 11
10.5839
 21
-27.6863
  0
LINE
  8
0
 10
10.5839
 20
-27.6863
 11
11.3482
 21
-27.7746
  0
LINE
  8
0
 10
11.3482
 20
-27.7746
 11
16.188
 21
-28.211
  0
LINE
  8
0
 10
16.188
 20
-28.211
 11
16.9219
 21
-28.2589
  0
LINE
  8
0
 10
16.9219
 20
-28.2589
 11
20.9126
 21
-28.3445
  0
LINE
  8
0
 10
20.9126
 20
-28.3445
 11
21.444
 21
-28.3502
  0
LINE
  8
0
 10
21.444
 20
-28.3502
 11
21.8664
 21
-28.342
  0
LINE
  8
0
 10
21.8664
 20
-28.342
 11
22.0429
 21
-28.3377
  0
LINE
  8
0
 10
22.0429
 20
-28.3377
 11
25.0406
 21
-28.1727
  0
LINE
  8
0
 10
25.0406
 20
-28.1727
 11
25.7278
 21
-28.1228
  0
LINE
  8
0
 10
25.7278
 20
-28.1228
 11
26.0377
 21
-28.0944
  0
LINE
  8
0
 10
26.0377
 20
-28.0944
 11
26.353
 21
-28.0519
  0
LINE
  8
0
 10
26.353
 20
-28.0519
 11
28.7666
 21
-27.7498
  0
LINE
  8
0
 10
28.7666
 20
-27.7498
 11
28.9752
 21
-27.7141
  0
LINE
  8
0
 10
28.9752
 20
-27.7141
 11
30.1233
 21
-27.5169
  0
LINE
  8
0
 10
30.1233
 20
-27.5169
 11
30.8045
 21
-27.3557
  0
LINE
  8
0
 10
30.8045
 20
-27.3557
 11
34.2629
 21
-26.5361
  0
LINE
  8
0
 10
34.2629
 20
-26.5361
 11
34.6233
 21
-26.4235
  0
LINE
  8
0
 10
34.6233
 20
-26.4235
 11
36.5221
 21
-25.8313
  0
LINE
  8
0
 10
36.5221
 20
-25.8313
 11
36.8381
 21
-25.7172
  0
LINE
  8
0
 10
36.8381
 20
-25.7172
 11
38.3856
 21
-25.1602
  0
LINE
  8
0
 10
38.3856
 20
-25.1602
 11
39.0527
 21
-24.8708
  0
LINE
  8
0
 10
39.0527
 20
-24.8708
 11
41.5215
 21
-23.8406
  0
LINE
  8
0
 10
41.5215
 20
-23.8406
 11
41.7092
 21
-23.7467
  0
LINE
  8
0
 10
41.7092
 20
-23.7467
 11
43.694
 21
-22.7861
  0
LINE
  8
0
 10
43.694
 20
-22.7861
 11
44.0215
 21
-22.6083
  0
LINE
  8
0
 10
44.0215
 20
-22.6083
 11
45.3604
 21
-21.8886
  0
LINE
  8
0
 10
45.3604
 20
-21.8886
 11
45.9214
 21
-21.5386
  0
LINE
  8
0
 10
45.9214
 20
-21.5386
 11
49.043
 21
-19.6067
  0
LINE
  8
0
 10
49.043
 20
-19.6067
 11
49.2441
 21
-19.4653
  0
LINE
  8
0
 10
49.2441
 20
-19.4653
 11
50.1841
 21
-18.8039
  0
LINE
  8
0
 10
50.1841
 20
-18.8039
 11
50.5141
 21
-18.5508
  0
LINE
  8
0
 10
50.5141
 20
-18.5508
 11
52.4342
 21
-17.0597
  0
LINE
  8
0
 10
52.4342
 20
-17.0597
 11
52.9274
 21
-16.6209
  0
LINE
  8
0
 10
52.9274
 20
-16.6209
 11
54.8878
 21
-14.8563
  0
LINE
  8
0
 10
54.8878
 20
-14.8563
 11
54.9532
 21
-14.7914
  0
LINE
  8
0
 10
54.9532
 20
-14.7914
 11
55.2805
 21
-14.4668
  0
LINE
  8
0
 10
55.2805
 20
-14.4668
 11
55.4441
 21
-14.2958
  0
LINE
  8
0
 10
55.4441
 20
-14.2958
 11
57.1405
 21
-12.4281
  0
LINE
  8
0
 10
57.1405
 20
-12.4281
 11
57.509
 21
-11.9864
  0
LINE
  8
0
 10
57.509
 20
-11.9864
 11
57.6856
 21
-11.7353
  0
LINE
  8
0
 10
57.6856
 20
-11.7353
 11
59.1843
 21
-9.71173
  0
LINE
  8
0
 10
59.1843
 20
-9.71173
 11
59.3403
 21
-9.47063
  0
LINE
  8
0
 10
59.3403
 20
-9.47063
 11
59.4773
 21
-9.24876
  0
LINE
  8
0
 10
59.4773
 20
-9.24876
 11
59.8611
 21
-8.6215
  0
LINE
  8
0
 10
59.8611
 20
-8.6215
 11
59.9008
 21
-8.55124
  0
LINE
  8
0
 10
59.9008
 20
-8.55124
 11
60.1073
 21
-8.11872
  0
LINE
  8
0
 10
60.1073
 20
-8.11872
 11
61.1455
 21
-6.05483
  0
LINE
  8
0
 10
61.1455
 20
-6.05483
 11
61.1725
 21
-5.98548
  0
LINE
  8
0
 10
61.1725
 20
-5.98548
 11
61.3821
 21
-5.45977
  0
LINE
  8
0
 10
61.3821
 20
-5.45977
 11
61.5022
 21
-5.07214
  0
LINE
  8
0
 10
61.5022
 20
-5.07214
 11
61.9858
 21
-3.53574
  0
LINE
  8
0
 10
61.9858
 20
-3.53574
 11
62.0186
 21
-3.38277
  0
LINE
  8
0
 10
62.0186
 20
-3.38277
 11
62.192
 21
-2.58906
  0
LINE
  8
0
 10
62.192
 20
-2.58906
 11
62.2289
 21
-2.32606
  0
LINE
  8
0
 10
62.2289
 20
-2.32606
 11
62.3795
 21
-1.24362
  0
LINE
  8
0
 10
62.3795
 20
-1.24362
 11
62.3904
 21
-1.05493
  0
LINE
  8
0
 10
62.3904
 20
-1.05493
 11
62.4366
 21
-0.247171
  0
LINE
  8
0
 10
62.4366
 20
-0.247171
 11
62.4099
 21
0.197718
  0
LINE
  8
0
 10
62.4099
 20
0.197718
 11
62.2908
 21
2.09868
  0
LINE
  8
0
 10
62.2908
 20
2.09868
 11
62.2828
 21
2.15101
  0
LINE
  8
0
 10
62.2828
 20
2.15101
 11
62.1925
 21
2.68817
  0
LINE
  8
0
 10
62.1925
 20
2.68817
 11
62.1684
 21
2.81875
  0
LINE
  8
0
 10
62.1684
 20
2.81875
 11
62.1301
 21
3.01105
  0
LINE
  8
0
 10
62.1301
 20
3.01105
 11
62.0388
 21
3.35257
  0
LINE
  8
0
 10
62.0388
 20
3.35257
 11
61.5585
 21
5.07411
  0
LINE
  8
0
 10
61.5585
 20
5.07411
 11
61.3714
 21
5.53374
  0
LINE
  8
0
 10
61.3714
 20
5.53374
 11
60.6692
 21
7.21258
  0
LINE
  8
0
 10
60.6692
 20
7.21258
 11
60.6674
 21
7.21625
  0
LINE
  8
0
 10
60.6674
 20
7.21625
 11
60.5665
 21
7.42037
  0
LINE
  8
0
 10
60.5665
 20
7.42037
 11
60.5131
 21
7.52593
  0
LINE
  8
0
 10
60.5131
 20
7.52593
 11
60.1149
 21
8.2726
  0
LINE
  8
0
 10
60.1149
 20
8.2726
 11
59.8043
 21
8.77845
  0
LINE
  8
0
 10
59.8043
 20
8.77845
 11
58.4872
 21
10.8154
  0
LINE
  8
0
 10
58.4872
 20
10.8154
 11
58.3305
 21
11.0262
  0
LINE
  8
0
 10
58.3305
 20
11.0262
 11
57.8663
 21
11.6395
  0
LINE
  8
0
 10
57.8663
 20
11.6395
 11
57.6408
 21
11.9098
  0
LINE
  8
0
 10
57.6408
 20
11.9098
 11
56.5116
 21
13.2531
  0
LINE
  8
0
 10
56.5116
 20
13.2531
 11
56.2369
 21
13.5434
  0
LINE
  8
0
 10
56.2369
 20
13.5434
 11
55.2583
 21
14.5775
  0
LINE
  8
0
 10
55.2583
 20
14.5775
 11
54.9098
 21
14.9003
  0
LINE
  8
0
 10
54.9098
 20
14.9003
 11
53.1711
 21
16.5209
  0
LINE
  8
0
 10
53.1711
 20
16.5209
 11
52.6523
 21
16.9611
  0
LINE
  8
0
 10
52.6523
 20
16.9611
 11
52.4585
 21
17.1232
  0
LINE
  8
0
 10
52.4585
 20
17.1232
 11
49.9432
 21
19.0384
  0
LINE
  8
0
 10
49.9432
 20
19.0384
 11
49.3566
 21
19.4687
  0
LINE
  8
0
 10
49.3566
 20
19.4687
 11
49.0336
 21
19.6736
  0
LINE
  8
0
 10
49.0336
 20
19.6736
 11
46.7664
 21
21.1456
  0
LINE
  8
0
 10
46.7664
 20
21.1456
 11
46.2904
 21
21.4288
  0
LINE
  8
0
 10
46.2904
 20
21.4288
 11
45.9772
 21
21.6091
  0
LINE
  8
0
 10
45.9772
 20
21.6091
 11
43.3633
 21
23.0223
  0
LINE
  8
0
 10
43.3633
 20
23.0223
 11
43.0883
 21
23.1667
  0
LINE
  8
0
 10
43.0883
 20
23.1667
 11
42.4604
 21
23.4519
  0
LINE
  8
0
 10
42.4604
 20
23.4519
 11
39.4669
 21
24.8042
  0
LINE
  8
0
 10
39.4669
 20
24.8042
 11
39.4499
 21
24.8111
  0
LINE
  8
0
 10
39.4499
 20
24.8111
 11
39.0469
 21
24.973
  0
LINE
  8
0
 10
39.0469
 20
24.973
 11
38.4005
 21
25.2045
  0
LINE
  8
0
 10
38.4005
 20
25.2045
 11
34.901
 21
26.4176
  0
LINE
  8
0
 10
34.901
 20
26.4176
 11
34.3536
 21
26.5668
  0
LINE
  8
0
 10
34.3536
 20
26.5668
 11
32.0292
 21
27.1841
  0
LINE
  8
0
 10
32.0292
 20
27.1841
 11
31.927
 21
27.2071
  0
LINE
  8
0
 10
31.927
 20
27.2071
 11
30.7059
 21
27.4705
  0
LINE
  8
0
 10
30.7059
 20
27.4705
 11
30.2627
 21
27.5525
  0
LINE
  8
0
 10
30.2627
 20
27.5525
 11
26.9457
 21
28.0583
  0
LINE
  8
0
 10
26.9457
 20
28.0583
 11
26.3556
 21
28.1255
  0
LINE
  8
0
 10
26.3556
 20
28.1255
 11
25.3705
 21
28.2216
  0
LINE
  8
0
 10
25.3705
 20
28.2216
 11
24.975
 21
28.2537
  0
LINE
  8
0
 10
24.975
 20
28.2537
 11
24.8778
 21
28.2606
  0
LINE
  8
0
 10
24.8778
 20
28.2606
 11
22.7128
 21
28.375
  0
LINE
  8
0
 10
22.7128
 20
28.375
 11
21.9001
 21
28.3923
  0
LINE
  8
0
 10
21.9001
 20
28.3923
 11
18.254
 21
28.3719
  0
LINE
  8
0
 10
18.254
 20
28.3719
 11
17.976
 21
28.3629
  0
LINE
  8
0
 10
17.976
 20
28.3629
 11
17.6219
 21
28.3481
  0
LINE
  8
0
 10
17.6219
 20
28.3481
 11
17.0131
 21
28.3058
  0
LINE
  8
0
 10
17.0131
 20
28.3058
 11
13.619
 21
28.0636
  0
LINE
  8
0
 10
13.619
 20
28.0636
 11
12.8112
 21
27.9691
  0
LINE
  8
0
 10
12.8112
 20
27.9691
 11
8.95287
 21
27.5123
  0
LINE
  8
0
 10
8.95287
 20
27.5123
 11
4.7107
 21
26.8997
  0
LINE
  8
0
 10
4.7107
 20
26.8997
 11
2.75941
 21
26.5995
  0
LINE
  8
0
 10
2.75941
 20
26.5995
 11
-6.61031
 21
25.0202
  0
LINE
  8
0
 10
-6.61031
 20
25.0202
 11
-8.66635
 21
24.6351
  0
LINE
  8
0
 10
-8.66635
 20
24.6351
 11
-14.0866
 21
23.5815
  0
LINE
  8
0
 10
-14.0866
 20
23.5815
 11
-14.107
 21
23.5773
  0
LINE
  8
0
 10
-14.107
 20
23.5773
 11
-17.9784
 21
22.7621
  0
LINE
  8
0
 10
-17.9784
 20
22.7621
 11
-18.843
 21
22.58
  0
LINE
  8
0
 10
-18.843
 20
22.58
 11
-21.0116
 21
22.0733
  0
LINE
  8
0
 10
-21.0116
 20
22.0733
 11
-30.2327
 21
19.9175
  0
LINE
  8
0
 10
-30.2327
 20
19.9175
 11
-31.0846
 21
19.6988
  0
LINE
  8
0
 10
-31.0846
 20
19.6988
 11
-34.4492
 21
18.8353
  0
LINE
  8
0
 10
-34.4492
 20
18.8353
 11
-35.0435
 21
18.6784
  0
LINE
  8
0
 10
-35.0435
 20
18.6784
 11
-36.5119
 21
18.2764
  0
LINE
  8
0
 10
-36.5119
 20
18.2764
 11
-45.3484
 21
15.78
  0
LINE
  8
0
 10
-45.3484
 20
15.78
 11
-46.3447
 21
15.4892
  0
LINE
  8
0
 10
-46.3447
 20
15.4892
 11
-48.0336
 21
14.9627
  0
LINE
  8
0
 10
-48.0336
 20
14.9627
 11
-53.6543
 21
13.2067
  0
LINE
  8
0
 10
-53.6543
 20
13.2067
 11
-54.2736
 21
13.0027
  0
LINE
  8
0
 10
-54.2736
 20
13.0027
 11
-57.106
 21
12.0647
  0
LINE
  8
0
 10
-57.106
 20
12.0647
 11
-59.4746
 21
11.2288
  0
LINE
  8
0
 10
-59.4746
 20
11.2288
 11
-67.495
 21
8.36099
  0
LINE
  8
0
 10
-67.495
 20
8.36099
 11
-68.6829
 21
7.907
  0
LINE
  8
0
 10
-68.6829
 20
7.907
 11
-69.609
 21
7.55422
  0
LINE
  8
0
 10
-69.609
 20
7.55422
 11
-71.1488
 21
6.9571
  0
LINE
  8
0
 10
-71.1488
 20
6.9571
 11
-71.5334
 21
6.80502
  0
LINE
  8
0
 10
-71.5334
 20
6.80502
 11
-77.0109
 21
4.56552
  0
LINE
  8
0
 10
-77.0109
 20
4.56552
 11
-79.4702
 21
3.53157
  0
LINE
  8
0
 10
-79.4702
 20
3.53157
 11
-80.957
 21
2.85004
  0
LINE
  8
0
 10
-80.957
 20
2.85004
 11
-87.5599
 21
-0.117814
  0
ENDSEC
  0
SECTION
  2
OBJECTS
  0
DICTIONARY
  0
ENDSEC
  0
EOF
