  0
SECTION
  2
BLOCKS
  0
ENDSEC
  0
SECTION
  2
ENTITIES
  0
LINE
  8
0
 10
21.444
 20
-28.3502
 11
21.6904
 21
-28.3454
  0
LINE
  8
0
 10
21.6904
 20
-28.3454
 11
22.2488
 21
-28.3318
  0
LINE
  8
0
 10
22.2488
 20
-28.3318
 11
22.3312
 21
-28.3295
  0
LINE
  8
0
 10
22.3312
 20
-28.3295
 11
23.5802
 21
-28.2607
  0
LINE
  8
0
 10
23.5802
 20
-28.2607
 11
23.9975
 21
-28.2355
  0
LINE
  8
0
 10
23.9975
 20
-28.2355
 11
26.1775
 21
-28.0774
  0
LINE
  8
0
 10
26.1775
 20
-28.0774
 11
26.3583
 21
-28.0608
  0
LINE
  8
0
 10
26.3583
 20
-28.0608
 11
26.4865
 21
-28.0473
  0
LINE
  8
0
 10
26.4865
 20
-28.0473
 11
27.7606
 21
-27.8757
  0
LINE
  8
0
 10
27.7606
 20
-27.8757
 11
28.7666
 21
-27.7498
  0
LINE
  8
0
 10
28.7666
 20
-27.7498
 11
29.6098
 21
-27.6056
  0
LINE
  8
0
 10
29.6098
 20
-27.6056
 11
30.0882
 21
-27.5234
  0
LINE
  8
0
 10
30.0882
 20
-27.5234
 11
30.0982
 21
-27.5215
  0
LINE
  8
0
 10
30.0982
 20
-27.5215
 11
32.2586
 21
-27.0104
  0
LINE
  8
0
 10
32.2586
 20
-27.0104
 11
34.276
 21
-26.5323
  0
LINE
  8
0
 10
34.276
 20
-26.5323
 11
34.2812
 21
-26.5308
  0
LINE
  8
0
 10
34.2812
 20
-26.5308
 11
35.7049
 21
-26.0862
  0
LINE
  8
0
 10
35.7049
 20
-26.0862
 11
36.5221
 21
-25.8313
  0
LINE
  8
0
 10
36.5221
 20
-25.8313
 11
37.5197
 21
-25.4711
  0
LINE
  8
0
 10
37.5197
 20
-25.4711
 11
38.4197
 21
-25.1471
  0
LINE
  8
0
 10
38.4197
 20
-25.1471
 11
38.4334
 21
-25.1419
  0
LINE
  8
0
 10
38.4334
 20
-25.1419
 11
40.5546
 21
-24.2218
  0
LINE
  8
0
 10
40.5546
 20
-24.2218
 11
41.952
 21
-23.6386
  0
LINE
  8
0
 10
41.952
 20
-23.6386
 11
42.1243
 21
-23.5578
  0
LINE
  8
0
 10
42.1243
 20
-23.5578
 11
42.8671
 21
-23.1863
  0
LINE
  8
0
 10
42.8671
 20
-23.1863
 11
43.694
 21
-22.7861
  0
LINE
  8
0
 10
43.694
 20
-22.7861
 11
44.7053
 21
-22.2372
  0
LINE
  8
0
 10
44.7053
 20
-22.2372
 11
45.4863
 21
-21.8173
  0
LINE
  8
0
 10
45.4863
 20
-21.8173
 11
45.5367
 21
-21.7888
  0
LINE
  8
0
 10
45.5367
 20
-21.7888
 11
47.7225
 21
-20.4251
  0
LINE
  8
0
 10
47.7225
 20
-20.4251
 11
49.0231
 21
-19.6202
  0
LINE
  8
0
 10
49.0231
 20
-19.6202
 11
49.0288
 21
-19.6163
  0
LINE
  8
0
 10
49.0288
 20
-19.6163
 11
49.6358
 21
-19.1897
  0
LINE
  8
0
 10
49.6358
 20
-19.1897
 11
50.1841
 21
-18.8039
  0
LINE
  8
0
 10
50.1841
 20
-18.8039
 11
51.4384
 21
-17.8417
  0
LINE
  8
0
 10
51.4384
 20
-17.8417
 11
52.2384
 21
-17.2205
  0
LINE
  8
0
 10
52.2384
 20
-17.2205
 11
52.2944
 21
-17.1745
  0
LINE
  8
0
 10
52.2944
 20
-17.1745
 11
53.7553
 21
-15.8748
  0
LINE
  8
0
 10
53.7553
 20
-15.8748
 11
54.8989
 21
-14.8455
  0
LINE
  8
0
 10
54.8989
 20
-14.8455
 11
54.9033
 21
-14.8412
  0
LINE
  8
0
 10
54.9033
 20
-14.8412
 11
55.1441
 21
-14.602
  0
LINE
  8
0
 10
55.1441
 20
-14.602
 11
55.2805
 21
-14.4668
  0
LINE
  8
0
 10
55.2805
 20
-14.4668
 11
55.8819
 21
-13.8383
  0
LINE
  8
0
 10
55.8819
 20
-13.8383
 11
56.5886
 21
-13.0602
  0
LINE
  8
0
 10
56.5886
 20
-13.0602
 11
56.7463
 21
-12.8796
  0
LINE
  8
0
 10
56.7463
 20
-12.8796
 11
57.8036
 21
-11.6124
  0
LINE
  8
0
 10
57.8036
 20
-11.6124
 11
57.9214
 21
-11.4628
  0
LINE
  8
0
 10
57.9214
 20
-11.4628
 11
58.5599
 21
-10.5548
  0
LINE
  8
0
 10
58.5599
 20
-10.5548
 11
59.1843
 21
-9.71173
  0
LINE
  8
0
 10
59.1843
 20
-9.71173
 11
59.2753
 21
-9.57109
  0
LINE
  8
0
 10
59.2753
 20
-9.57109
 11
59.6622
 21
-8.94431
  0
LINE
  8
0
 10
59.6622
 20
-8.94431
 11
59.8861
 21
-8.57843
  0
LINE
  8
0
 10
59.8861
 20
-8.57843
 11
59.8961
 21
-8.5612
  0
LINE
  8
0
 10
59.8961
 20
-8.5612
 11
60.0368
 21
-8.31247
  0
LINE
  8
0
 10
60.0368
 20
-8.31247
 11
60.7021
 21
-6.91873
  0
LINE
  8
0
 10
60.7021
 20
-6.91873
 11
61.1846
 21
-5.95953
  0
LINE
  8
0
 10
61.1846
 20
-5.95953
 11
61.2003
 21
-5.92143
  0
LINE
  8
0
 10
61.2003
 20
-5.92143
 11
61.2948
 21
-5.67879
  0
LINE
  8
0
 10
61.2948
 20
-5.67879
 11
61.3821
 21
-5.45976
  0
LINE
  8
0
 10
61.3821
 20
-5.45976
 11
61.7158
 21
-4.38268
  0
LINE
  8
0
 10
61.7158
 20
-4.38268
 11
61.9979
 21
-3.48647
  0
LINE
  8
0
 10
61.9979
 20
-3.48647
 11
62.0028
 21
-3.46677
  0
LINE
  8
0
 10
62.0028
 20
-3.46677
 11
62.1167
 21
-2.93597
  0
LINE
  8
0
 10
62.1167
 20
-2.93597
 11
62.1889
 21
-2.60529
  0
LINE
  8
0
 10
62.1889
 20
-2.60529
 11
62.1898
 21
-2.60065
  0
LINE
  8
0
 10
62.1898
 20
-2.60065
 11
62.2916
 21
-1.87502
  0
LINE
  8
0
 10
62.2916
 20
-1.87502
 11
62.3795
 21
-1.24361
  0
LINE
  8
0
 10
62.3795
 20
-1.24361
 11
62.4172
 21
-0.591415
  0
LINE
  8
0
 10
62.4172
 20
-0.591415
 11
62.4364
 21
-0.254868
  0
LINE
  8
0
 10
62.4364
 20
-0.254868
 11
62.4365
 21
-0.252655
  0
LINE
  8
0
 10
62.4365
 20
-0.252655
 11
62.3628
 21
0.972122
  0
LINE
  8
0
 10
62.3628
 20
0.972122
 11
62.3439
 21
1.28188
  0
LINE
  8
0
 10
62.3439
 20
1.28188
 11
62.2943
 21
2.07387
  0
LINE
  8
0
 10
62.2943
 20
2.07387
 11
62.2933
 21
2.08096
  0
LINE
  8
0
 10
62.2933
 20
2.08096
 11
62.2715
 21
2.22522
  0
LINE
  8
0
 10
62.2715
 20
2.22522
 11
62.2669
 21
2.2549
  0
LINE
  8
0
 10
62.2669
 20
2.2549
 11
62.2293
 21
2.4787
  0
LINE
  8
0
 10
62.2293
 20
2.4787
 11
62.2188
 21
2.53854
  0
LINE
  8
0
 10
62.2188
 20
2.53854
 11
62.1525
 21
2.89888
  0
LINE
  8
0
 10
62.1525
 20
2.89888
 11
62.1301
 21
3.01105
  0
LINE
  8
0
 10
62.1301
 20
3.01105
 11
61.8137
 21
4.19426
  0
LINE
  8
0
 10
61.8137
 20
4.19426
 11
61.6136
 21
4.91151
  0
LINE
  8
0
 10
61.6136
 20
4.91151
 11
61.5978
 21
4.95798
  0
LINE
  8
0
 10
61.5978
 20
4.95798
 11
61.0788
 21
6.23329
  0
LINE
  8
0
 10
61.0788
 20
6.23329
 11
60.6692
 21
7.21257
  0
LINE
  8
0
 10
60.6692
 20
7.21257
 11
60.663
 21
7.22548
  0
LINE
  8
0
 10
60.663
 20
7.22548
 11
60.6054
 21
7.3419
  0
LINE
  8
0
 10
60.6054
 20
7.3419
 11
60.4559
 21
7.63724
  0
LINE
  8
0
 10
60.4559
 20
7.63724
 11
60.433
 21
7.68178
  0
LINE
  8
0
 10
60.433
 20
7.68178
 11
60.2671
 21
7.99286
  0
LINE
  8
0
 10
60.2671
 20
7.99286
 11
60.2236
 21
8.07278
  0
LINE
  8
0
 10
60.2236
 20
8.07278
 11
59.3512
 21
9.49374
  0
LINE
  8
0
 10
59.3512
 20
9.49374
 11
59.17
 21
9.77988
  0
LINE
  8
0
 10
59.17
 20
9.77988
 11
58.6212
 21
10.6285
  0
LINE
  8
0
 10
58.6212
 20
10.6285
 11
58.5829
 21
10.6819
  0
LINE
  8
0
 10
58.5829
 20
10.6819
 11
58.1371
 21
11.2818
  0
LINE
  8
0
 10
58.1371
 20
11.2818
 11
57.8663
 21
11.6395
  0
LINE
  8
0
 10
57.8663
 20
11.6395
 11
57.0544
 21
12.6125
  0
LINE
  8
0
 10
57.0544
 20
12.6125
 11
56.5839
 21
13.1722
  0
LINE
  8
0
 10
56.5839
 20
13.1722
 11
56.5633
 21
13.1953
  0
LINE
  8
0
 10
56.5633
 20
13.1953
 11
55.7704
 21
14.0331
  0
LINE
  8
0
 10
55.7704
 20
14.0331
 11
55.1996
 21
14.6362
  0
LINE
  8
0
 10
55.1996
 20
14.6362
 11
55.1761
 21
14.6597
  0
LINE
  8
0
 10
55.1761
 20
14.6597
 11
53.8955
 21
15.8457
  0
LINE
  8
0
 10
53.8955
 20
15.8457
 11
53.1711
 21
16.5209
  0
LINE
  8
0
 10
53.1711
 20
16.5209
 11
52.8685
 21
16.7776
  0
LINE
  8
0
 10
52.8685
 20
16.7776
 11
52.2945
 21
17.2576
  0
LINE
  8
0
 10
52.2945
 20
17.2576
 11
52.2289
 21
17.3114
  0
LINE
  8
0
 10
52.2289
 20
17.3114
 11
51.181
 21
18.1094
  0
LINE
  8
0
 10
51.181
 20
18.1094
 11
50.8273
 21
18.3748
  0
LINE
  8
0
 10
50.8273
 20
18.3748
 11
49.0613
 21
19.6701
  0
LINE
  8
0
 10
49.0613
 20
19.6701
 11
48.9432
 21
19.7506
  0
LINE
  8
0
 10
48.9432
 20
19.7506
 11
47.7117
 21
20.5318
  0
LINE
  8
0
 10
47.7117
 20
20.5318
 11
46.7664
 21
21.1456
  0
LINE
  8
0
 10
46.7664
 20
21.1456
 11
46.4887
 21
21.3108
  0
LINE
  8
0
 10
46.4887
 20
21.3108
 11
45.5312
 21
21.8618
  0
LINE
  8
0
 10
45.5312
 20
21.8618
 11
45.3528
 21
21.963
  0
LINE
  8
0
 10
45.3528
 20
21.963
 11
44.2638
 21
22.5518
  0
LINE
  8
0
 10
44.2638
 20
22.5518
 11
43.1826
 21
23.1196
  0
LINE
  8
0
 10
43.1826
 20
23.1196
 11
43.1556
 21
23.133
  0
LINE
  8
0
 10
43.1556
 20
23.133
 11
41.2131
 21
24.0154
  0
LINE
  8
0
 10
41.2131
 20
24.0154
 11
39.4669
 21
24.8042
  0
LINE
  8
0
 10
39.4669
 20
24.8042
 11
39.3991
 21
24.8317
  0
LINE
  8
0
 10
39.3991
 20
24.8317
 11
39.2312
 21
24.8991
  0
LINE
  8
0
 10
39.2312
 20
24.8991
 11
39.1786
 21
24.9202
  0
LINE
  8
0
 10
39.1786
 20
24.9202
 11
37.1546
 21
25.6452
  0
LINE
  8
0
 10
37.1546
 20
25.6452
 11
36.6563
 21
25.8215
  0
LINE
  8
0
 10
36.6563
 20
25.8215
 11
35.1983
 21
26.3269
  0
LINE
  8
0
 10
35.1983
 20
26.3269
 11
35.1134
 21
26.3528
  0
LINE
  8
0
 10
35.1134
 20
26.3528
 11
33.385
 21
26.824
  0
LINE
  8
0
 10
33.385
 20
26.824
 11
32.0292
 21
27.1841
  0
LINE
  8
0
 10
32.0292
 20
27.1841
 11
31.6169
 21
27.2771
  0
LINE
  8
0
 10
31.6169
 20
27.2771
 11
31.1081
 21
27.3868
  0
LINE
  8
0
 10
31.1081
 20
27.3868
 11
30.9932
 21
27.4107
  0
LINE
  8
0
 10
30.9932
 20
27.4107
 11
29.5879
 21
27.6707
  0
LINE
  8
0
 10
29.5879
 20
27.6707
 11
29.3179
 21
27.718
  0
LINE
  8
0
 10
29.3179
 20
27.718
 11
27.936
 21
27.9288
  0
LINE
  8
0
 10
27.936
 20
27.9288
 11
27.653
 21
27.9658
  0
LINE
  8
0
 10
27.653
 20
27.9658
 11
25.7803
 21
28.1789
  0
LINE
  8
0
 10
25.7803
 20
28.1789
 11
25.2057
 21
28.235
  0
LINE
  8
0
 10
25.2057
 20
28.235
 11
24.975
 21
28.2537
  0
LINE
  8
0
 10
24.975
 20
28.2537
 11
24.5823
 21
28.2816
  0
LINE
  8
0
 10
24.5823
 20
28.2816
 11
23.6802
 21
28.3293
  0
LINE
  8
0
 10
23.6802
 20
28.3293
 11
23.4038
 21
28.3423
  0
LINE
  8
0
 10
23.4038
 20
28.3423
 11
20.8305
 21
28.397
  0
LINE
  8
0
 10
20.8305
 20
28.397
 11
20.4027
 21
28.3989
  0
LINE
  8
0
 10
20.4027
 20
28.3989
 11
18.8836
 21
28.3904
  0
LINE
  8
0
 10
18.8836
 20
28.3904
 11
18.7037
 21
28.3851
  0
LINE
  8
0
 10
18.7037
 20
28.3851
 11
17.8285
 21
28.3567
  0
LINE
  8
0
 10
17.8285
 20
28.3567
 11
17.6219
 21
28.3481
  0
LINE
  8
0
 10
17.6219
 20
28.3481
 11
15.183
 21
28.1786
  0
LINE
  8
0
 10
15.183
 20
28.1786
 11
13.7689
 21
28.0777
  0
LINE
  8
0
 10
13.7689
 20
28.0777
 11
13.7261
 21
28.0737
  0
LINE
  8
0
 10
13.7261
 20
28.0737
 11
11.2035
 21
27.7788
  0
LINE
  8
0
 10
11.2035
 20
27.7788
 11
8.95287
 21
27.5123
  0
LINE
  8
0
 10
8.95287
 20
27.5123
 11
6.47835
 21
27.155
  0
LINE
  8
0
 10
6.47835
 20
27.155
 11
0.543762
 21
26.2417
  0
LINE
  8
0
 10
0.543762
 20
26.2417
 11
-0.342484
 21
26.0987
  0
LINE
  8
0
 10
-0.342484
 20
26.0987
 11
-4.24626
 21
25.4407
  0
LINE
  8
0
 10
-4.24626
 20
25.4407
 11
-4.92171
 21
25.3206
  0
LINE
  8
0
 10
-4.92171
 20
25.3206
 11
-10.9249
 21
24.1961
  0
LINE
  8
0
 10
-10.9249
 20
24.1961
 11
-14.0866
 21
23.5816
  0
LINE
  8
0
 10
-14.0866
 20
23.5816
 11
-14.1597
 21
23.5666
  0
LINE
  8
0
 10
-14.1597
 20
23.5666
 11
-18.7982
 21
22.5898
  0
LINE
  8
0
 10
-18.7982
 20
22.5898
 11
-18.811
 21
22.587
  0
LINE
  8
0
 10
-18.811
 20
22.587
 11
-24.8509
 21
21.1758
  0
LINE
  8
0
 10
-24.8509
 20
21.1758
 11
-26.3866
 21
20.8167
  0
LINE
  8
0
 10
-26.3866
 20
20.8167
 11
-30.2284
 21
19.9185
  0
LINE
  8
0
 10
-30.2284
 20
19.9185
 11
-34.4492
 21
18.8353
  0
LINE
  8
0
 10
-34.4492
 20
18.8353
 11
-34.7958
 21
18.7438
  0
LINE
  8
0
 10
-34.7958
 20
18.7438
 11
-38.6008
 21
17.7022
  0
LINE
  8
0
 10
-38.6008
 20
17.7022
 11
-39.4364
 21
17.4725
  0
LINE
  8
0
 10
-39.4364
 20
17.4725
 11
-43.118
 21
16.4324
  0
LINE
  8
0
 10
-43.118
 20
16.4324
 11
-46.1584
 21
15.5451
  0
LINE
  8
0
 10
-46.1584
 20
15.5451
 11
-46.2116
 21
15.5291
  0
LINE
  8
0
 10
-46.2116
 20
15.5291
 11
-50.3757
 21
14.231
  0
LINE
  8
0
 10
-50.3757
 20
14.231
 11
-53.6543
 21
13.2067
  0
LINE
  8
0
 10
-53.6543
 20
13.2067
 11
-55.4783
 21
12.6059
  0
LINE
  8
0
 10
-55.4783
 20
12.6059
 11
-56.6584
 21
12.2151
  0
LINE
  8
0
 10
-56.6584
 20
12.2151
 11
-56.7862
 21
12.1721
  0
LINE
  8
0
 10
-56.7862
 20
12.1721
 11
-62.3577
 21
10.2061
  0
LINE
  8
0
 10
-62.3577
 20
10.2061
 11
-63.5109
 21
9.79695
  0
LINE
  8
0
 10
-63.5109
 20
9.79695
 11
-66.8525
 21
8.6021
  0
LINE
  8
0
 10
-66.8525
 20
8.6021
 11
-67.0361
 21
8.5332
  0
LINE
  8
0
 10
-67.0361
 20
8.5332
 11
-69.7104
 21
7.51118
  0
LINE
  8
0
 10
-69.7104
 20
7.51118
 11
-70.2506
 21
7.3054
  0
LINE
  8
0
 10
-70.2506
 20
7.3054
 11
-71.1488
 21
6.95709
  0
LINE
  8
0
 10
-71.1488
 20
6.95709
 11
-72.1909
 21
6.54497
  0
LINE
  8
0
 10
-72.1909
 20
6.54497
 11
-74.4731
 21
5.61191
  0
LINE
  8
0
 10
-74.4731
 20
5.61191
 11
-75.1982
 21
5.31294
  0
LINE
  8
0
 10
-75.1982
 20
5.31294
 11
-80.5018
 21
3.08316
  0
LINE
  8
0
 10
-80.5018
 20
3.08316
 11
-80.9144
 21
2.90379
  0
LINE
  8
0
 10
-80.9144
 20
2.90379
 11
-84.8089
 21
1.11871
  0
LINE
  8
0
 10
-84.8089
 20
1.11871
 11
-87.5599
 21
-0.117783
  0
LINE
  8
0
 10
-87.5599
 20
-0.117783
 11
-84.3069
 21
-1.59836
  0
LINE
  8
0
 10
-84.3069
 20
-1.59836
 11
-82.7448
 21
-2.31749
  0
LINE
  8
0
 10
-82.7448
 20
-2.31749
 11
-82.5145
 21
-2.41995
  0
LINE
  8
0
 10
-82.5145
 20
-2.41995
 11
-76.7707
 21
-4.81664
  0
LINE
  8
0
 10
-76.7707
 20
-4.81664
 11
-73.6242
 21
-6.1617
  0
LINE
  8
0
 10
-73.6242
 20
-6.1617
 11
-73.3439
 21
-6.27402
  0
LINE
  8
0
 10
-73.3439
 20
-6.27402
 11
-72.9395
 21
-6.4335
  0
LINE
  8
0
 10
-72.9395
 20
-6.4335
 11
-72.056
 21
-6.78642
  0
LINE
  8
0
 10
-72.056
 20
-6.78642
 11
-68.1332
 21
-8.28108
  0
LINE
  8
0
 10
-68.1332
 20
-8.28108
 11
-66.1573
 21
-9.03114
  0
LINE
  8
0
 10
-66.1573
 20
-9.03114
 11
-66.0723
 21
-9.06242
  0
LINE
  8
0
 10
-66.0723
 20
-9.06242
 11
-60.4291
 21
-11.0367
  0
LINE
  8
0
 10
-60.4291
 20
-11.0367
 11
-59.2508
 21
-11.4474
  0
LINE
  8
0
 10
-59.2508
 20
-11.4474
 11
-56.2681
 21
-12.4863
  0
LINE
  8
0
 10
-56.2681
 20
-12.4863
 11
-56.2532
 21
-12.4912
  0
LINE
  8
0
 10
-56.2532
 20
-12.4912
 11
-55.2885
 21
-12.8076
  0
LINE
  8
0
 10
-55.2885
 20
-12.8076
 11
-54.5615
 21
-13.046
  0
LINE
  8
0
 10
-54.5615
 20
-13.046
 11
-49.8264
 21
-14.5158
  0
LINE
  8
0
 10
-49.8264
 20
-14.5158
 11
-46.0951
 21
-15.6755
  0
LINE
  8
0
 10
-46.0951
 20
-15.6755
 11
-46.0631
 21
-15.685
  0
LINE
  8
0
 10
-46.0631
 20
-15.685
 11
-43.0208
 21
-16.564
  0
LINE
  8
0
 10
-43.0208
 20
-16.564
 11
-39.4139
 21
-17.572
  0
LINE
  8
0
 10
-39.4139
 20
-17.572
 11
-38.5876
 21
-17.7969
  0
LINE
  8
0
 10
-38.5876
 20
-17.7969
 11
-34.3111
 21
-18.9494
  0
LINE
  8
0
 10
-34.3111
 20
-18.9494
 11
-33.5274
 21
-19.1532
  0
LINE
  8
0
 10
-33.5274
 20
-19.1532
 11
-31.2823
 21
-19.7201
  0
LINE
  8
0
 10
-31.2823
 20
-19.7201
 11
-28.1093
 21
-20.4923
  0
LINE
  8
0
 10
-28.1093
 20
-20.4923
 11
-27.2842
 21
-20.6891
  0
LINE
  8
0
 10
-27.2842
 20
-20.6891
 11
-21.2034
 21
-22.0925
  0
LINE
  8
0
 10
-21.2034
 20
-22.0925
 11
-20.4896
 21
-22.2509
  0
LINE
  8
0
 10
-20.4896
 20
-22.2509
 11
-17.4518
 21
-22.8822
  0
LINE
  8
0
 10
-17.4518
 20
-22.8822
 11
-14.1268
 21
-23.5982
  0
LINE
  8
0
 10
-14.1268
 20
-23.5982
 11
-12.0175
 21
-24.0164
  0
LINE
  8
0
 10
-12.0175
 20
-24.0164
 11
-2.48738
 21
-25.7477
  0
LINE
  8
0
 10
-2.48738
 20
-25.7477
 11
9.02704
 21
-27.4877
  0
LINE
  8
0
 10
9.02704
 20
-27.4877
 11
9.93517
 21
-27.6036
  0
LINE
  8
0
 10
9.93517
 20
-27.6036
 11
12.3065
 21
-27.8773
  0
LINE
  8
0
 10
12.3065
 20
-27.8773
 11
12.6899
 21
-27.9184
  0
LINE
  8
0
 10
12.6899
 20
-27.9184
 11
14.7063
 21
-28.1002
  0
LINE
  8
0
 10
14.7063
 20
-28.1002
 11
15.1297
 21
-28.1319
  0
LINE
  8
0
 10
15.1297
 20
-28.1319
 11
17.4353
 21
-28.2823
  0
LINE
  8
0
 10
17.4353
 20
-28.2823
 11
17.6407
 21
-28.2917
  0
LINE
  8
0
 10
17.6407
 20
-28.2917
 11
19.3033
 21
-28.3274
  0
LINE
  8
0
 10
19.3033
 20
-28.3274
 11
21.444
 21
-28.3502
  0
ENDSEC
  0
SECTION
  2
OBJECTS
  0
DICTIONARY
  0
ENDSEC
  0
EOF
