  0
SECTION
  2
BLOCKS
  0
ENDSEC
  0
SECTION
  2
ENTITIES
  0
LINE
  8
0
 10
21.444
 20
-28.3502
 11
21.8664
 21
-28.342
  0
LINE
  8
0
 10
21.8664
 20
-28.342
 11
22.0428
 21
-28.3377
  0
LINE
  8
0
 10
22.0428
 20
-28.3377
 11
22.084
 21
-28.3365
  0
LINE
  8
0
 10
22.084
 20
-28.3365
 11
24.832
 21
-28.1852
  0
LINE
  8
0
 10
24.832
 20
-28.1852
 11
25.0406
 21
-28.1726
  0
LINE
  8
0
 10
25.0406
 20
-28.1726
 11
25.7278
 21
-28.1228
  0
LINE
  8
0
 10
25.7278
 20
-28.1228
 11
26.0376
 21
-28.0943
  0
LINE
  8
0
 10
26.0376
 20
-28.0943
 11
26.1018
 21
-28.0876
  0
LINE
  8
0
 10
26.1018
 20
-28.0876
 11
26.5538
 21
-28.0267
  0
LINE
  8
0
 10
26.5538
 20
-28.0267
 11
28.7666
 21
-27.7498
  0
LINE
  8
0
 10
28.7666
 20
-27.7498
 11
29.0658
 21
-27.6986
  0
LINE
  8
0
 10
29.0658
 20
-27.6986
 11
30.1183
 21
-27.5178
  0
LINE
  8
0
 10
30.1183
 20
-27.5178
 11
30.1233
 21
-27.5168
  0
LINE
  8
0
 10
30.1233
 20
-27.5168
 11
30.8045
 21
-27.3557
  0
LINE
  8
0
 10
30.8045
 20
-27.3557
 11
34.2629
 21
-26.5361
  0
LINE
  8
0
 10
34.2629
 20
-26.5361
 11
34.2655
 21
-26.5353
  0
LINE
  8
0
 10
34.2655
 20
-26.5353
 11
34.7815
 21
-26.3742
  0
LINE
  8
0
 10
34.7815
 20
-26.3742
 11
36.5221
 21
-25.8313
  0
LINE
  8
0
 10
36.5221
 20
-25.8313
 11
36.8417
 21
-25.7159
  0
LINE
  8
0
 10
36.8417
 20
-25.7159
 11
38.3856
 21
-25.1602
  0
LINE
  8
0
 10
38.3856
 20
-25.1602
 11
38.3924
 21
-25.1576
  0
LINE
  8
0
 10
38.3924
 20
-25.1576
 11
39.0738
 21
-24.862
  0
LINE
  8
0
 10
39.0738
 20
-24.862
 11
41.5215
 21
-23.8406
  0
LINE
  8
0
 10
41.5215
 20
-23.8406
 11
41.6076
 21
-23.8002
  0
LINE
  8
0
 10
41.6076
 20
-23.8002
 11
41.8746
 21
-23.6666
  0
LINE
  8
0
 10
41.8746
 20
-23.6666
 11
43.694
 21
-22.7861
  0
LINE
  8
0
 10
43.694
 20
-22.7861
 11
44.0215
 21
-22.6083
  0
LINE
  8
0
 10
44.0215
 20
-22.6083
 11
45.3604
 21
-21.8886
  0
LINE
  8
0
 10
45.3604
 20
-21.8886
 11
45.3856
 21
-21.8743
  0
LINE
  8
0
 10
45.3856
 20
-21.8743
 11
46.1787
 21
-21.3795
  0
LINE
  8
0
 10
46.1787
 20
-21.3795
 11
49.0401
 21
-19.6086
  0
LINE
  8
0
 10
49.0401
 20
-19.6086
 11
49.043
 21
-19.6067
  0
LINE
  8
0
 10
49.043
 20
-19.6067
 11
49.2441
 21
-19.4653
  0
LINE
  8
0
 10
49.2441
 20
-19.4653
 11
50.1841
 21
-18.8039
  0
LINE
  8
0
 10
50.1841
 20
-18.8039
 11
50.6461
 21
-18.4495
  0
LINE
  8
0
 10
50.6461
 20
-18.4495
 11
52.4062
 21
-17.0827
  0
LINE
  8
0
 10
52.4062
 20
-17.0827
 11
52.4342
 21
-17.0597
  0
LINE
  8
0
 10
52.4342
 20
-17.0597
 11
52.9274
 21
-16.6209
  0
LINE
  8
0
 10
52.9274
 20
-16.6209
 11
54.8878
 21
-14.8563
  0
LINE
  8
0
 10
54.8878
 20
-14.8563
 11
54.9707
 21
-14.7741
  0
LINE
  8
0
 10
54.9707
 20
-14.7741
 11
55.2805
 21
-14.4668
  0
LINE
  8
0
 10
55.2805
 20
-14.4668
 11
55.5067
 21
-14.2304
  0
LINE
  8
0
 10
55.5067
 20
-14.2304
 11
57.0616
 21
-12.5184
  0
LINE
  8
0
 10
57.0616
 20
-12.5184
 11
57.1405
 21
-12.4281
  0
LINE
  8
0
 10
57.1405
 20
-12.4281
 11
57.509
 21
-11.9864
  0
LINE
  8
0
 10
57.509
 20
-11.9864
 11
57.5679
 21
-11.9116
  0
LINE
  8
0
 10
57.5679
 20
-11.9116
 11
57.8105
 21
-11.5667
  0
LINE
  8
0
 10
57.8105
 20
-11.5667
 11
59.1843
 21
-9.71173
  0
LINE
  8
0
 10
59.1843
 20
-9.71173
 11
59.3403
 21
-9.47063
  0
LINE
  8
0
 10
59.3403
 20
-9.47063
 11
59.4772
 21
-9.24875
  0
LINE
  8
0
 10
59.4772
 20
-9.24875
 11
59.8611
 21
-8.62149
  0
LINE
  8
0
 10
59.8611
 20
-8.62149
 11
59.8661
 21
-8.61288
  0
LINE
  8
0
 10
59.8661
 20
-8.61288
 11
59.9203
 21
-8.51712
  0
LINE
  8
0
 10
59.9203
 20
-8.51712
 11
60.1689
 21
-7.99625
  0
LINE
  8
0
 10
60.1689
 20
-7.99625
 11
61.1455
 21
-6.05482
  0
LINE
  8
0
 10
61.1455
 20
-6.05482
 11
61.1533
 21
-6.03577
  0
LINE
  8
0
 10
61.1533
 20
-6.03577
 11
61.19
 21
-5.94167
  0
LINE
  8
0
 10
61.19
 20
-5.94167
 11
61.3821
 21
-5.45976
  0
LINE
  8
0
 10
61.3821
 20
-5.45976
 11
61.5022
 21
-5.07213
  0
LINE
  8
0
 10
61.5022
 20
-5.07213
 11
61.9858
 21
-3.53574
  0
LINE
  8
0
 10
61.9858
 20
-3.53574
 11
61.9882
 21
-3.52588
  0
LINE
  8
0
 10
61.9882
 20
-3.52588
 11
62.0326
 21
-3.31894
  0
LINE
  8
0
 10
62.0326
 20
-3.31894
 11
62.1915
 21
-2.59137
  0
LINE
  8
0
 10
62.1915
 20
-2.59137
 11
62.192
 21
-2.58905
  0
LINE
  8
0
 10
62.192
 20
-2.58905
 11
62.2289
 21
-2.32605
  0
LINE
  8
0
 10
62.2289
 20
-2.32605
 11
62.3795
 21
-1.24361
  0
LINE
  8
0
 10
62.3795
 20
-1.24361
 11
62.3942
 21
-0.988708
  0
LINE
  8
0
 10
62.3942
 20
-0.988708
 11
62.4366
 21
-0.24826
  0
LINE
  8
0
 10
62.4366
 20
-0.24826
 11
62.4366
 21
-0.247162
  0
LINE
  8
0
 10
62.4366
 20
-0.247162
 11
62.4099
 21
0.197708
  0
LINE
  8
0
 10
62.4099
 20
0.197708
 11
62.4004
 21
0.352585
  0
LINE
  8
0
 10
62.4004
 20
0.352585
 11
62.2913
 21
2.09512
  0
LINE
  8
0
 10
62.2913
 20
2.09512
 11
62.2908
 21
2.09866
  0
LINE
  8
0
 10
62.2908
 20
2.09866
 11
62.2806
 21
2.16585
  0
LINE
  8
0
 10
62.2806
 20
2.16585
 11
62.1977
 21
2.65823
  0
LINE
  8
0
 10
62.1977
 20
2.65823
 11
62.1924
 21
2.68816
  0
LINE
  8
0
 10
62.1924
 20
2.68816
 11
62.1684
 21
2.81874
  0
LINE
  8
0
 10
62.1684
 20
2.81874
 11
62.1301
 21
3.01105
  0
LINE
  8
0
 10
62.1301
 20
3.01105
 11
62.0066
 21
3.47281
  0
LINE
  8
0
 10
62.0066
 20
3.47281
 11
61.5663
 21
5.05087
  0
LINE
  8
0
 10
61.5663
 20
5.05087
 11
61.5585
 21
5.0741
  0
LINE
  8
0
 10
61.5585
 20
5.0741
 11
61.3714
 21
5.53374
  0
LINE
  8
0
 10
61.3714
 20
5.53374
 11
60.6692
 21
7.21257
  0
LINE
  8
0
 10
60.6692
 20
7.21257
 11
60.6668
 21
7.21756
  0
LINE
  8
0
 10
60.6668
 20
7.21756
 11
60.5665
 21
7.42036
  0
LINE
  8
0
 10
60.5665
 20
7.42036
 11
60.5131
 21
7.52592
  0
LINE
  8
0
 10
60.5131
 20
7.52592
 11
60.5016
 21
7.54819
  0
LINE
  8
0
 10
60.5016
 20
7.54819
 11
60.1366
 21
8.23264
  0
LINE
  8
0
 10
60.1366
 20
8.23264
 11
60.1149
 21
8.2726
  0
LINE
  8
0
 10
60.1149
 20
8.2726
 11
59.8043
 21
8.77844
  0
LINE
  8
0
 10
59.8043
 20
8.77844
 11
59.7137
 21
8.92151
  0
LINE
  8
0
 10
59.7137
 20
8.92151
 11
58.5063
 21
10.7887
  0
LINE
  8
0
 10
58.5063
 20
10.7887
 11
58.4872
 21
10.8154
  0
LINE
  8
0
 10
58.4872
 20
10.8154
 11
58.3305
 21
11.0262
  0
LINE
  8
0
 10
58.3305
 20
11.0262
 11
57.8663
 21
11.6395
  0
LINE
  8
0
 10
57.8663
 20
11.6395
 11
57.557
 21
12.0101
  0
LINE
  8
0
 10
57.557
 20
12.0101
 11
56.5219
 21
13.2416
  0
LINE
  8
0
 10
56.5219
 20
13.2416
 11
56.5116
 21
13.2531
  0
LINE
  8
0
 10
56.5116
 20
13.2531
 11
56.2369
 21
13.5434
  0
LINE
  8
0
 10
56.2369
 20
13.5434
 11
55.2583
 21
14.5775
  0
LINE
  8
0
 10
55.2583
 20
14.5775
 11
55.2466
 21
14.5892
  0
LINE
  8
0
 10
55.2466
 20
14.5892
 11
54.7649
 21
15.0353
  0
LINE
  8
0
 10
54.7649
 20
15.0353
 11
53.1711
 21
16.5209
  0
LINE
  8
0
 10
53.1711
 20
16.5209
 11
52.6523
 21
16.961
  0
LINE
  8
0
 10
52.6523
 20
16.961
 11
52.4585
 21
17.1232
  0
LINE
  8
0
 10
52.4585
 20
17.1232
 11
52.4257
 21
17.1501
  0
LINE
  8
0
 10
52.4257
 20
17.1501
 11
50.12
 21
18.9057
  0
LINE
  8
0
 10
50.12
 20
18.9057
 11
49.9432
 21
19.0384
  0
LINE
  8
0
 10
49.9432
 20
19.0384
 11
49.3566
 21
19.4687
  0
LINE
  8
0
 10
49.3566
 20
19.4687
 11
49.2975
 21
19.5089
  0
LINE
  8
0
 10
49.2975
 20
19.5089
 11
48.8447
 21
19.7962
  0
LINE
  8
0
 10
48.8447
 20
19.7962
 11
46.7664
 21
21.1456
  0
LINE
  8
0
 10
46.7664
 20
21.1456
 11
46.2904
 21
21.4288
  0
LINE
  8
0
 10
46.2904
 20
21.4288
 11
45.9772
 21
21.6091
  0
LINE
  8
0
 10
45.9772
 20
21.6091
 11
45.888
 21
21.6596
  0
LINE
  8
0
 10
45.888
 20
21.6596
 11
43.4919
 21
22.9551
  0
LINE
  8
0
 10
43.4919
 20
22.9551
 11
43.1017
 21
23.16
  0
LINE
  8
0
 10
43.1017
 20
23.16
 11
43.0883
 21
23.1667
  0
LINE
  8
0
 10
43.0883
 20
23.1667
 11
42.4604
 21
23.4519
  0
LINE
  8
0
 10
42.4604
 20
23.4519
 11
39.4669
 21
24.8042
  0
LINE
  8
0
 10
39.4669
 20
24.8042
 11
39.4426
 21
24.814
  0
LINE
  8
0
 10
39.4426
 20
24.814
 11
39.0732
 21
24.9624
  0
LINE
  8
0
 10
39.0732
 20
24.9624
 11
39.0469
 21
24.9729
  0
LINE
  8
0
 10
39.0469
 20
24.9729
 11
38.4005
 21
25.2045
  0
LINE
  8
0
 10
38.4005
 20
25.2045
 11
38.1513
 21
25.2926
  0
LINE
  8
0
 10
38.1513
 20
25.2926
 11
34.9435
 21
26.4046
  0
LINE
  8
0
 10
34.9435
 20
26.4046
 11
34.901
 21
26.4176
  0
LINE
  8
0
 10
34.901
 20
26.4176
 11
34.3536
 21
26.5668
  0
LINE
  8
0
 10
34.3536
 20
26.5668
 11
32.0292
 21
27.1841
  0
LINE
  8
0
 10
32.0292
 20
27.1841
 11
31.8827
 21
27.2171
  0
LINE
  8
0
 10
31.8827
 20
27.2171
 11
30.7634
 21
27.4585
  0
LINE
  8
0
 10
30.7634
 20
27.4585
 11
30.7059
 21
27.4705
  0
LINE
  8
0
 10
30.7059
 20
27.4705
 11
30.2627
 21
27.5525
  0
LINE
  8
0
 10
30.2627
 20
27.5525
 11
30.1278
 21
27.5761
  0
LINE
  8
0
 10
30.1278
 20
27.5761
 11
27.0872
 21
28.0398
  0
LINE
  8
0
 10
27.0872
 20
28.0398
 11
26.9457
 21
28.0583
  0
LINE
  8
0
 10
26.9457
 20
28.0583
 11
26.3556
 21
28.1255
  0
LINE
  8
0
 10
26.3556
 20
28.1255
 11
25.3705
 21
28.2216
  0
LINE
  8
0
 10
25.3705
 20
28.2216
 11
24.975
 21
28.2537
  0
LINE
  8
0
 10
24.975
 20
28.2537
 11
24.8356
 21
28.2636
  0
LINE
  8
0
 10
24.8356
 20
28.2636
 11
22.851
 21
28.3685
  0
LINE
  8
0
 10
22.851
 20
28.3685
 11
22.7128
 21
28.375
  0
LINE
  8
0
 10
22.7128
 20
28.375
 11
21.9001
 21
28.3923
  0
LINE
  8
0
 10
21.9001
 20
28.3923
 11
21.6862
 21
28.3932
  0
LINE
  8
0
 10
21.6862
 20
28.3932
 11
18.3439
 21
28.3746
  0
LINE
  8
0
 10
18.3439
 20
28.3746
 11
18.254
 21
28.3719
  0
LINE
  8
0
 10
18.254
 20
28.3719
 11
17.976
 21
28.3629
  0
LINE
  8
0
 10
17.976
 20
28.3629
 11
17.6219
 21
28.3481
  0
LINE
  8
0
 10
17.6219
 20
28.3481
 11
16.7516
 21
28.2876
  0
LINE
  8
0
 10
16.7516
 20
28.2876
 11
13.6404
 21
28.0656
  0
LINE
  8
0
 10
13.6404
 20
28.0656
 11
13.619
 21
28.0636
  0
LINE
  8
0
 10
13.619
 20
28.0636
 11
12.8112
 21
27.9691
  0
LINE
  8
0
 10
12.8112
 20
27.9691
 11
8.95287
 21
27.5123
  0
LINE
  8
0
 10
8.95287
 20
27.5123
 11
4.71069
 21
26.8997
  0
LINE
  8
0
 10
4.71069
 20
26.8997
 11
2.7594
 21
26.5995
  0
LINE
  8
0
 10
2.7594
 20
26.5995
 11
2.31627
 21
26.5279
  0
LINE
  8
0
 10
2.31627
 20
26.5279
 11
-6.27258
 21
25.0803
  0
LINE
  8
0
 10
-6.27258
 20
25.0803
 11
-6.61031
 21
25.0202
  0
LINE
  8
0
 10
-6.61031
 20
25.0202
 11
-8.66634
 21
24.6351
  0
LINE
  8
0
 10
-8.66634
 20
24.6351
 11
-14.0866
 21
23.5815
  0
LINE
  8
0
 10
-14.0866
 20
23.5815
 11
-14.1146
 21
23.5758
  0
LINE
  8
0
 10
-14.1146
 20
23.5758
 11
-18.8366
 21
22.5814
  0
LINE
  8
0
 10
-18.8366
 20
22.5814
 11
-18.843
 21
22.58
  0
LINE
  8
0
 10
-18.843
 20
22.58
 11
-21.0116
 21
22.0733
  0
LINE
  8
0
 10
-21.0116
 20
22.0733
 11
-30.2321
 21
19.9176
  0
LINE
  8
0
 10
-30.2321
 20
19.9176
 11
-34.4492
 21
18.8353
  0
LINE
  8
0
 10
-34.4492
 20
18.8353
 11
-35.0435
 21
18.6784
  0
LINE
  8
0
 10
-35.0435
 20
18.6784
 11
-36.5119
 21
18.2764
  0
LINE
  8
0
 10
-36.5119
 20
18.2764
 11
-36.9297
 21
18.1616
  0
LINE
  8
0
 10
-36.9297
 20
18.1616
 11
-45.0298
 21
15.8732
  0
LINE
  8
0
 10
-45.0298
 20
15.8732
 11
-46.3181
 21
15.4972
  0
LINE
  8
0
 10
-46.3181
 20
15.4972
 11
-46.3447
 21
15.4892
  0
LINE
  8
0
 10
-46.3447
 20
15.4892
 11
-48.0336
 21
14.9627
  0
LINE
  8
0
 10
-48.0336
 20
14.9627
 11
-53.6543
 21
13.2067
  0
LINE
  8
0
 10
-53.6543
 20
13.2067
 11
-54.4457
 21
12.946
  0
LINE
  8
0
 10
-54.4457
 20
12.946
 11
-57.042
 21
12.0861
  0
LINE
  8
0
 10
-57.042
 20
12.0861
 11
-57.106
 21
12.0647
  0
LINE
  8
0
 10
-57.106
 20
12.0647
 11
-59.4746
 21
11.2288
  0
LINE
  8
0
 10
-59.4746
 20
11.2288
 11
-60.0512
 21
11.0242
  0
LINE
  8
0
 10
-60.0512
 20
11.0242
 11
-67.4032
 21
8.39543
  0
LINE
  8
0
 10
-67.4032
 20
8.39543
 11
-67.4949
 21
8.36098
  0
LINE
  8
0
 10
-67.4949
 20
8.36098
 11
-68.6829
 21
7.907
  0
LINE
  8
0
 10
-68.6829
 20
7.907
 11
-69.6089
 21
7.55421
  0
LINE
  8
0
 10
-69.6089
 20
7.55421
 11
-71.1488
 21
6.95709
  0
LINE
  8
0
 10
-71.1488
 20
6.95709
 11
-71.6273
 21
6.76787
  0
LINE
  8
0
 10
-71.6273
 20
6.76787
 11
-76.6483
 21
4.715
  0
LINE
  8
0
 10
-76.6483
 20
4.715
 11
-77.0109
 21
4.56551
  0
LINE
  8
0
 10
-77.0109
 20
4.56551
 11
-79.4702
 21
3.53157
  0
LINE
  8
0
 10
-79.4702
 20
3.53157
 11
-79.6765
 21
3.44188
  0
LINE
  8
0
 10
-79.6765
 20
3.44188
 11
-81.5073
 21
2.60269
  0
LINE
  8
0
 10
-81.5073
 20
2.60269
 11
-87.5599
 21
-0.117813
  0
LINE
  8
0
 10
-87.5599
 20
-0.117813
 11
-85.9983
 21
-0.828537
  0
LINE
  8
0
 10
-85.9983
 20
-0.828537
 11
-83.3204
 21
-2.06136
  0
LINE
  8
0
 10
-83.3204
 20
-2.06136
 11
-83.2053
 21
-2.11258
  0
LINE
  8
0
 10
-83.2053
 20
-2.11258
 11
-80.476
 21
-3.25139
  0
LINE
  8
0
 10
-80.476
 20
-3.25139
 11
-74.325
 21
-5.88087
  0
LINE
  8
0
 10
-74.325
 20
-5.88087
 11
-74.1848
 21
-5.93703
  0
LINE
  8
0
 10
-74.1848
 20
-5.93703
 11
-73.9961
 21
-6.01147
  0
LINE
  8
0
 10
-73.9961
 20
-6.01147
 11
-72.056
 21
-6.78642
  0
LINE
  8
0
 10
-72.056
 20
-6.78642
 11
-70.2495
 21
-7.47475
  0
LINE
  8
0
 10
-70.2495
 20
-7.47475
 11
-65.9023
 21
-9.12498
  0
LINE
  8
0
 10
-65.9023
 20
-9.12498
 11
-65.8598
 21
-9.14062
  0
LINE
  8
0
 10
-65.8598
 20
-9.14062
 11
-63.375
 21
-10.0099
  0
LINE
  8
0
 10
-63.375
 20
-10.0099
 11
-62.7859
 21
-10.2152
  0
LINE
  8
0
 10
-62.7859
 20
-10.2152
 11
-56.2235
 21
-12.501
  0
LINE
  8
0
 10
-56.2235
 20
-12.501
 11
-55.704
 21
-12.6714
  0
LINE
  8
0
 10
-55.704
 20
-12.6714
 11
-54.5616
 21
-13.046
  0
LINE
  8
0
 10
-54.5616
 20
-13.046
 11
-52.5719
 21
-13.6636
  0
LINE
  8
0
 10
-52.5719
 20
-13.6636
 11
-46.1752
 21
-15.6518
  0
LINE
  8
0
 10
-46.1752
 20
-15.6518
 11
-46.1591
 21
-15.6565
  0
LINE
  8
0
 10
-46.1591
 20
-15.6565
 11
-44.8707
 21
-16.0288
  0
LINE
  8
0
 10
-44.8707
 20
-16.0288
 11
-36.935
 21
-18.2465
  0
LINE
  8
0
 10
-36.935
 20
-18.2465
 11
-36.5219
 21
-18.3589
  0
LINE
  8
0
 10
-36.5219
 20
-18.3589
 11
-34.871
 21
-18.8039
  0
LINE
  8
0
 10
-34.871
 20
-18.8039
 11
-33.5274
 21
-19.1532
  0
LINE
  8
0
 10
-33.5274
 20
-19.1532
 11
-32.6153
 21
-19.3835
  0
LINE
  8
0
 10
-32.6153
 20
-19.3835
 11
-25.6341
 21
-21.0826
  0
LINE
  8
0
 10
-25.6341
 20
-21.0826
 11
-25.2216
 21
-21.181
  0
LINE
  8
0
 10
-25.2216
 20
-21.181
 11
-22.988
 21
-21.6965
  0
LINE
  8
0
 10
-22.988
 20
-21.6965
 11
-22.6311
 21
-21.7757
  0
LINE
  8
0
 10
-22.6311
 20
-21.7757
 11
-21.4342
 21
-22.0244
  0
LINE
  8
0
 10
-21.4342
 20
-22.0244
 11
-14.1217
 21
-23.5992
  0
LINE
  8
0
 10
-14.1217
 20
-23.5992
 11
-12.0176
 21
-24.0164
  0
LINE
  8
0
 10
-12.0176
 20
-24.0164
 11
-2.48592
 21
-25.7479
  0
LINE
  8
0
 10
-2.48592
 20
-25.7479
 11
9.02704
 21
-27.4877
  0
LINE
  8
0
 10
9.02704
 20
-27.4877
 11
10.5839
 21
-27.6863
  0
LINE
  8
0
 10
10.5839
 20
-27.6863
 11
11.3482
 21
-27.7746
  0
LINE
  8
0
 10
11.3482
 20
-27.7746
 11
11.5398
 21
-27.7951
  0
LINE
  8
0
 10
11.5398
 20
-27.7951
 11
15.9763
 21
-28.1952
  0
LINE
  8
0
 10
15.9763
 20
-28.1952
 11
16.188
 21
-28.211
  0
LINE
  8
0
 10
16.188
 20
-28.211
 11
16.9219
 21
-28.2589
  0
LINE
  8
0
 10
16.9219
 20
-28.2589
 11
17.0246
 21
-28.2636
  0
LINE
  8
0
 10
17.0246
 20
-28.2636
 11
20.6827
 21
-28.3421
  0
LINE
  8
0
 10
20.6827
 20
-28.3421
 11
21.444
 21
-28.3502
  0
ENDSEC
  0
SECTION
  2
OBJECTS
  0
DICTIONARY
  0
ENDSEC
  0
EOF
