  0
SECTION
  2
BLOCKS
  0
ENDSEC
  0
SECTION
  2
ENTITIES
  0
LINE
  8
0
 10
-87.5599
 20
-0.117814
 11
-85.66
 21
-0.982505
  0
LINE
  8
0
 10
-85.66
 20
-0.982505
 11
-83.2053
 21
-2.11259
  0
LINE
  8
0
 10
-83.2053
 20
-2.11259
 11
-80.1094
 21
-3.40439
  0
LINE
  8
0
 10
-80.1094
 20
-3.40439
 11
-74.1848
 21
-5.93704
  0
LINE
  8
0
 10
-74.1848
 20
-5.93704
 11
-73.9961
 21
-6.01148
  0
LINE
  8
0
 10
-73.9961
 20
-6.01148
 11
-72.056
 21
-6.78643
  0
LINE
  8
0
 10
-72.056
 20
-6.78643
 11
-70.2495
 21
-7.47475
  0
LINE
  8
0
 10
-70.2495
 20
-7.47475
 11
-65.9023
 21
-9.12499
  0
LINE
  8
0
 10
-65.9023
 20
-9.12499
 11
-62.7859
 21
-10.2153
  0
LINE
  8
0
 10
-62.7859
 20
-10.2153
 11
-56.2235
 21
-12.501
  0
LINE
  8
0
 10
-56.2235
 20
-12.501
 11
-55.704
 21
-12.6714
  0
LINE
  8
0
 10
-55.704
 20
-12.6714
 11
-54.5616
 21
-13.046
  0
LINE
  8
0
 10
-54.5616
 20
-13.046
 11
-52.0228
 21
-13.834
  0
LINE
  8
0
 10
-52.0228
 20
-13.834
 11
-46.1592
 21
-15.6565
  0
LINE
  8
0
 10
-46.1592
 20
-15.6565
 11
-44.8708
 21
-16.0288
  0
LINE
  8
0
 10
-44.8708
 20
-16.0288
 11
-36.9351
 21
-18.2465
  0
LINE
  8
0
 10
-36.9351
 20
-18.2465
 11
-34.759
 21
-18.833
  0
LINE
  8
0
 10
-34.759
 20
-18.833
 11
-33.5274
 21
-19.1532
  0
LINE
  8
0
 10
-33.5274
 20
-19.1532
 11
-32.6153
 21
-19.3835
  0
LINE
  8
0
 10
-32.6153
 20
-19.3835
 11
-25.6341
 21
-21.0826
  0
LINE
  8
0
 10
-25.6341
 20
-21.0826
 11
-22.6311
 21
-21.7757
  0
LINE
  8
0
 10
-22.6311
 20
-21.7757
 11
-21.4338
 21
-22.0245
  0
LINE
  8
0
 10
-21.4338
 20
-22.0245
 11
-14.1227
 21
-23.599
  0
LINE
  8
0
 10
-14.1227
 20
-23.599
 11
-13.5884
 21
-23.705
  0
LINE
  8
0
 10
-13.5884
 20
-23.705
 11
-12.0176
 21
-24.0164
  0
LINE
  8
0
 10
-12.0176
 20
-24.0164
 11
-9.62909
 21
-24.4503
  0
LINE
  8
0
 10
-9.62909
 20
-24.4503
 11
-2.48614
 21
-25.7479
  0
LINE
  8
0
 10
-2.48614
 20
-25.7479
 11
0.312456
 21
-26.1708
  0
LINE
  8
0
 10
0.312456
 20
-26.1708
 11
9.02705
 21
-27.4877
  0
LINE
  8
0
 10
9.02705
 20
-27.4877
 11
10.4541
 21
-27.6698
  0
LINE
  8
0
 10
10.4541
 20
-27.6698
 11
11.5398
 21
-27.7951
  0
LINE
  8
0
 10
11.5398
 20
-27.7951
 11
15.9764
 21
-28.1952
  0
LINE
  8
0
 10
15.9764
 20
-28.1952
 11
17.0246
 21
-28.2636
  0
LINE
  8
0
 10
17.0246
 20
-28.2636
 11
20.6827
 21
-28.3421
  0
LINE
  8
0
 10
20.6827
 20
-28.3421
 11
21.444
 21
-28.3502
  0
LINE
  8
0
 10
21.444
 20
-28.3502
 11
21.8312
 21
-28.3427
  0
LINE
  8
0
 10
21.8312
 20
-28.3427
 11
22.0841
 21
-28.3365
  0
LINE
  8
0
 10
22.0841
 20
-28.3365
 11
24.832
 21
-28.1852
  0
LINE
  8
0
 10
24.832
 20
-28.1852
 11
25.8178
 21
-28.1137
  0
LINE
  8
0
 10
25.8178
 20
-28.1137
 11
26.1018
 21
-28.0876
  0
LINE
  8
0
 10
26.1018
 20
-28.0876
 11
26.5541
 21
-28.0267
  0
LINE
  8
0
 10
26.5541
 20
-28.0267
 11
28.7666
 21
-27.7498
  0
LINE
  8
0
 10
28.7666
 20
-27.7498
 11
29.0659
 21
-27.6986
  0
LINE
  8
0
 10
29.0659
 20
-27.6986
 11
30.1183
 21
-27.5178
  0
LINE
  8
0
 10
30.1183
 20
-27.5178
 11
31.0953
 21
-27.2867
  0
LINE
  8
0
 10
31.0953
 20
-27.2867
 11
34.2655
 21
-26.5353
  0
LINE
  8
0
 10
34.2655
 20
-26.5353
 11
34.7815
 21
-26.3742
  0
LINE
  8
0
 10
34.7815
 20
-26.3742
 11
36.5221
 21
-25.8313
  0
LINE
  8
0
 10
36.5221
 20
-25.8313
 11
36.9739
 21
-25.6682
  0
LINE
  8
0
 10
36.9739
 20
-25.6682
 11
38.3924
 21
-25.1576
  0
LINE
  8
0
 10
38.3924
 20
-25.1576
 11
39.3446
 21
-24.7446
  0
LINE
  8
0
 10
39.3446
 20
-24.7446
 11
41.6076
 21
-23.8002
  0
LINE
  8
0
 10
41.6076
 20
-23.8002
 11
41.8746
 21
-23.6666
  0
LINE
  8
0
 10
41.8746
 20
-23.6666
 11
43.694
 21
-22.7861
  0
LINE
  8
0
 10
43.694
 20
-22.7861
 11
44.1583
 21
-22.5341
  0
LINE
  8
0
 10
44.1583
 20
-22.5341
 11
45.3856
 21
-21.8743
  0
LINE
  8
0
 10
45.3856
 20
-21.8743
 11
46.1787
 21
-21.3796
  0
LINE
  8
0
 10
46.1787
 20
-21.3796
 11
49.0401
 21
-19.6086
  0
LINE
  8
0
 10
49.0401
 20
-19.6086
 11
49.3224
 21
-19.4102
  0
LINE
  8
0
 10
49.3224
 20
-19.4102
 11
50.1841
 21
-18.8039
  0
LINE
  8
0
 10
50.1841
 20
-18.8039
 11
50.6461
 21
-18.4495
  0
LINE
  8
0
 10
50.6461
 20
-18.4495
 11
52.4063
 21
-17.0827
  0
LINE
  8
0
 10
52.4063
 20
-17.0827
 11
53.093
 21
-16.4717
  0
LINE
  8
0
 10
53.093
 20
-16.4717
 11
54.89
 21
-14.8541
  0
LINE
  8
0
 10
54.89
 20
-14.8541
 11
54.9805
 21
-14.7643
  0
LINE
  8
0
 10
54.9805
 20
-14.7643
 11
55.2805
 21
-14.4668
  0
LINE
  8
0
 10
55.2805
 20
-14.4668
 11
55.5067
 21
-14.2304
  0
LINE
  8
0
 10
55.5067
 20
-14.2304
 11
57.0616
 21
-12.5184
  0
LINE
  8
0
 10
57.0616
 20
-12.5184
 11
57.5679
 21
-11.9116
  0
LINE
  8
0
 10
57.5679
 20
-11.9116
 11
57.8105
 21
-11.5667
  0
LINE
  8
0
 10
57.8105
 20
-11.5667
 11
59.1843
 21
-9.71173
  0
LINE
  8
0
 10
59.1843
 20
-9.71173
 11
59.3273
 21
-9.49072
  0
LINE
  8
0
 10
59.3273
 20
-9.49072
 11
59.5143
 21
-9.18787
  0
LINE
  8
0
 10
59.5143
 20
-9.18787
 11
59.8661
 21
-8.61289
  0
LINE
  8
0
 10
59.8661
 20
-8.61289
 11
59.9203
 21
-8.51713
  0
LINE
  8
0
 10
59.9203
 20
-8.51713
 11
60.2016
 21
-7.92766
  0
LINE
  8
0
 10
60.2016
 20
-7.92766
 11
61.1533
 21
-6.03577
  0
LINE
  8
0
 10
61.1533
 20
-6.03577
 11
61.19
 21
-5.94167
  0
LINE
  8
0
 10
61.19
 20
-5.94167
 11
61.3821
 21
-5.45977
  0
LINE
  8
0
 10
61.3821
 20
-5.45977
 11
61.5449
 21
-4.93425
  0
LINE
  8
0
 10
61.5449
 20
-4.93425
 11
61.9882
 21
-3.52589
  0
LINE
  8
0
 10
61.9882
 20
-3.52589
 11
62.0326
 21
-3.31895
  0
LINE
  8
0
 10
62.0326
 20
-3.31895
 11
62.1915
 21
-2.59138
  0
LINE
  8
0
 10
62.1915
 20
-2.59138
 11
62.2414
 21
-2.23585
  0
LINE
  8
0
 10
62.2414
 20
-2.23585
 11
62.3795
 21
-1.24362
  0
LINE
  8
0
 10
62.3795
 20
-1.24362
 11
62.3942
 21
-0.988714
  0
LINE
  8
0
 10
62.3942
 20
-0.988714
 11
62.4366
 21
-0.248275
  0
LINE
  8
0
 10
62.4366
 20
-0.248275
 11
62.4004
 21
0.352596
  0
LINE
  8
0
 10
62.4004
 20
0.352596
 11
62.2913
 21
2.09513
  0
LINE
  8
0
 10
62.2913
 20
2.09513
 11
62.2806
 21
2.16585
  0
LINE
  8
0
 10
62.2806
 20
2.16585
 11
62.1977
 21
2.65825
  0
LINE
  8
0
 10
62.1977
 20
2.65825
 11
62.1652
 21
2.83478
  0
LINE
  8
0
 10
62.1652
 20
2.83478
 11
62.1301
 21
3.01105
  0
LINE
  8
0
 10
62.1301
 20
3.01105
 11
62.0066
 21
3.47281
  0
LINE
  8
0
 10
62.0066
 20
3.47281
 11
61.5663
 21
5.05088
  0
LINE
  8
0
 10
61.5663
 20
5.05088
 11
61.3129
 21
5.67365
  0
LINE
  8
0
 10
61.3129
 20
5.67365
 11
60.6692
 21
7.21258
  0
LINE
  8
0
 10
60.6692
 20
7.21258
 11
60.6668
 21
7.21757
  0
LINE
  8
0
 10
60.6668
 20
7.21757
 11
60.5743
 21
7.40468
  0
LINE
  8
0
 10
60.5743
 20
7.40468
 11
60.5016
 21
7.54819
  0
LINE
  8
0
 10
60.5016
 20
7.54819
 11
60.1366
 21
8.23264
  0
LINE
  8
0
 10
60.1366
 20
8.23264
 11
59.7137
 21
8.92151
  0
LINE
  8
0
 10
59.7137
 20
8.92151
 11
58.5063
 21
10.7887
  0
LINE
  8
0
 10
58.5063
 20
10.7887
 11
58.2918
 21
11.0773
  0
LINE
  8
0
 10
58.2918
 20
11.0773
 11
57.8663
 21
11.6395
  0
LINE
  8
0
 10
57.8663
 20
11.6395
 11
57.557
 21
12.0102
  0
LINE
  8
0
 10
57.557
 20
12.0102
 11
56.5219
 21
13.2416
  0
LINE
  8
0
 10
56.5219
 20
13.2416
 11
56.1436
 21
13.6413
  0
LINE
  8
0
 10
56.1436
 20
13.6413
 11
55.2466
 21
14.5892
  0
LINE
  8
0
 10
55.2466
 20
14.5892
 11
54.7649
 21
15.0353
  0
LINE
  8
0
 10
54.7649
 20
15.0353
 11
53.1711
 21
16.5209
  0
LINE
  8
0
 10
53.1711
 20
16.5209
 11
52.6956
 21
16.9244
  0
LINE
  8
0
 10
52.6956
 20
16.9244
 11
52.4257
 21
17.1501
  0
LINE
  8
0
 10
52.4257
 20
17.1501
 11
50.1201
 21
18.9057
  0
LINE
  8
0
 10
50.1201
 20
18.9057
 11
49.2976
 21
19.5089
  0
LINE
  8
0
 10
49.2976
 20
19.5089
 11
48.8447
 21
19.7962
  0
LINE
  8
0
 10
48.8447
 20
19.7962
 11
46.7664
 21
21.1456
  0
LINE
  8
0
 10
46.7664
 20
21.1456
 11
46.3301
 21
21.4052
  0
LINE
  8
0
 10
46.3301
 20
21.4052
 11
45.888
 21
21.6596
  0
LINE
  8
0
 10
45.888
 20
21.6596
 11
43.4919
 21
22.9551
  0
LINE
  8
0
 10
43.4919
 20
22.9551
 11
43.1017
 21
23.16
  0
LINE
  8
0
 10
43.1017
 20
23.16
 11
42.211
 21
23.5646
  0
LINE
  8
0
 10
42.211
 20
23.5646
 11
39.4669
 21
24.8042
  0
LINE
  8
0
 10
39.4669
 20
24.8042
 11
39.4426
 21
24.8141
  0
LINE
  8
0
 10
39.4426
 20
24.8141
 11
39.0732
 21
24.9624
  0
LINE
  8
0
 10
39.0732
 20
24.9624
 11
38.1513
 21
25.2926
  0
LINE
  8
0
 10
38.1513
 20
25.2926
 11
34.9435
 21
26.4046
  0
LINE
  8
0
 10
34.9435
 20
26.4046
 11
34.1599
 21
26.6183
  0
LINE
  8
0
 10
34.1599
 20
26.6183
 11
32.0292
 21
27.1841
  0
LINE
  8
0
 10
32.0292
 20
27.1841
 11
31.8827
 21
27.2171
  0
LINE
  8
0
 10
31.8827
 20
27.2171
 11
30.7634
 21
27.4585
  0
LINE
  8
0
 10
30.7634
 20
27.4585
 11
30.1278
 21
27.5761
  0
LINE
  8
0
 10
30.1278
 20
27.5761
 11
27.0872
 21
28.0398
  0
LINE
  8
0
 10
27.0872
 20
28.0398
 11
26.2406
 21
28.1362
  0
LINE
  8
0
 10
26.2406
 20
28.1362
 11
25.3376
 21
28.2242
  0
LINE
  8
0
 10
25.3376
 20
28.2242
 11
24.975
 21
28.2537
  0
LINE
  8
0
 10
24.975
 20
28.2537
 11
24.8356
 21
28.2636
  0
LINE
  8
0
 10
24.8356
 20
28.2636
 11
22.851
 21
28.3685
  0
LINE
  8
0
 10
22.851
 20
28.3685
 11
21.6862
 21
28.3932
  0
LINE
  8
0
 10
21.6862
 20
28.3932
 11
18.3439
 21
28.3746
  0
LINE
  8
0
 10
18.3439
 20
28.3746
 11
17.9465
 21
28.3617
  0
LINE
  8
0
 10
17.9465
 20
28.3617
 11
17.6219
 21
28.3481
  0
LINE
  8
0
 10
17.6219
 20
28.3481
 11
16.7516
 21
28.2876
  0
LINE
  8
0
 10
16.7516
 20
28.2876
 11
13.6404
 21
28.0656
  0
LINE
  8
0
 10
13.6404
 20
28.0656
 11
12.4897
 21
27.9311
  0
LINE
  8
0
 10
12.4897
 20
27.9311
 11
8.95287
 21
27.5123
  0
LINE
  8
0
 10
8.95287
 20
27.5123
 11
5.06423
 21
26.9508
  0
LINE
  8
0
 10
5.06423
 20
26.9508
 11
2.31628
 21
26.5279
  0
LINE
  8
0
 10
2.31628
 20
26.5279
 11
-6.27259
 21
25.0803
  0
LINE
  8
0
 10
-6.27259
 20
25.0803
 11
-9.11806
 21
24.5473
  0
LINE
  8
0
 10
-9.11806
 20
24.5473
 11
-14.0866
 21
23.5815
  0
LINE
  8
0
 10
-14.0866
 20
23.5815
 11
-14.1146
 21
23.5758
  0
LINE
  8
0
 10
-14.1146
 20
23.5758
 11
-17.6633
 21
22.8285
  0
LINE
  8
0
 10
-17.6633
 20
22.8285
 11
-18.8366
 21
22.5814
  0
LINE
  8
0
 10
-18.8366
 20
22.5814
 11
-21.7794
 21
21.8938
  0
LINE
  8
0
 10
-21.7794
 20
21.8938
 11
-30.2321
 21
19.9176
  0
LINE
  8
0
 10
-30.2321
 20
19.9176
 11
-31.365
 21
19.6269
  0
LINE
  8
0
 10
-31.365
 20
19.6269
 11
-34.4492
 21
18.8353
  0
LINE
  8
0
 10
-34.4492
 20
18.8353
 11
-34.994
 21
18.6915
  0
LINE
  8
0
 10
-34.994
 20
18.6915
 11
-36.9297
 21
18.1616
  0
LINE
  8
0
 10
-36.9297
 20
18.1616
 11
-45.0298
 21
15.8732
  0
LINE
  8
0
 10
-45.0298
 20
15.8732
 11
-46.3181
 21
15.4972
  0
LINE
  8
0
 10
-46.3181
 20
15.4972
 11
-48.502
 21
14.8164
  0
LINE
  8
0
 10
-48.502
 20
14.8164
 11
-53.6543
 21
13.2067
  0
LINE
  8
0
 10
-53.6543
 20
13.2067
 11
-54.4457
 21
12.946
  0
LINE
  8
0
 10
-54.4457
 20
12.946
 11
-57.042
 21
12.0861
  0
LINE
  8
0
 10
-57.042
 20
12.0861
 11
-60.0512
 21
11.0243
  0
LINE
  8
0
 10
-60.0512
 20
11.0243
 11
-67.4032
 21
8.39543
  0
LINE
  8
0
 10
-67.4032
 20
8.39543
 11
-68.8884
 21
7.82784
  0
LINE
  8
0
 10
-68.8884
 20
7.82784
 11
-69.7373
 21
7.50446
  0
LINE
  8
0
 10
-69.7373
 20
7.50446
 11
-71.1488
 21
6.9571
  0
LINE
  8
0
 10
-71.1488
 20
6.9571
 11
-71.6273
 21
6.76787
  0
LINE
  8
0
 10
-71.6273
 20
6.76787
 11
-76.6484
 21
4.71501
  0
LINE
  8
0
 10
-76.6484
 20
4.71501
 11
-79.6765
 21
3.44189
  0
LINE
  8
0
 10
-79.6765
 20
3.44189
 11
-81.5073
 21
2.6027
  0
LINE
  8
0
 10
-81.5073
 20
2.6027
 11
-87.5599
 21
-0.117814
  0
ENDSEC
  0
SECTION
  2
OBJECTS
  0
DICTIONARY
  0
ENDSEC
  0
EOF
