  0
SECTION
  2
BLOCKS
  0
ENDSEC
  0
SECTION
  2
ENTITIES
  0
LINE
  8
0
 10
21.8312
 20
-28.3427
 11
22.084
 21
-28.3365
  0
LINE
  8
0
 10
22.084
 20
-28.3365
 11
22.1252
 21
-28.3353
  0
LINE
  8
0
 10
22.1252
 20
-28.3353
 11
24.6234
 21
-28.1978
  0
LINE
  8
0
 10
24.6234
 20
-28.1978
 11
24.832
 21
-28.1852
  0
LINE
  8
0
 10
24.832
 20
-28.1852
 11
25.8177
 21
-28.1137
  0
LINE
  8
0
 10
25.8177
 20
-28.1137
 11
26.1018
 21
-28.0876
  0
LINE
  8
0
 10
26.1018
 20
-28.0876
 11
26.1659
 21
-28.0809
  0
LINE
  8
0
 10
26.1659
 20
-28.0809
 11
26.7551
 21
-28.0015
  0
LINE
  8
0
 10
26.7551
 20
-28.0015
 11
28.7666
 21
-27.7498
  0
LINE
  8
0
 10
28.7666
 20
-27.7498
 11
29.1565
 21
-27.6831
  0
LINE
  8
0
 10
29.1565
 20
-27.6831
 11
30.1133
 21
-27.5187
  0
LINE
  8
0
 10
30.1133
 20
-27.5187
 11
30.1183
 21
-27.5178
  0
LINE
  8
0
 10
30.1183
 20
-27.5178
 11
31.0953
 21
-27.2867
  0
LINE
  8
0
 10
31.0953
 20
-27.2867
 11
34.2655
 21
-26.5353
  0
LINE
  8
0
 10
34.2655
 20
-26.5353
 11
34.2681
 21
-26.5346
  0
LINE
  8
0
 10
34.2681
 20
-26.5346
 11
34.9154
 21
-26.3324
  0
LINE
  8
0
 10
34.9154
 20
-26.3324
 11
36.5221
 21
-25.8313
  0
LINE
  8
0
 10
36.5221
 20
-25.8313
 11
36.9767
 21
-25.6671
  0
LINE
  8
0
 10
36.9767
 20
-25.6671
 11
38.3924
 21
-25.1576
  0
LINE
  8
0
 10
38.3924
 20
-25.1576
 11
38.3992
 21
-25.155
  0
LINE
  8
0
 10
38.3992
 20
-25.155
 11
39.3658
 21
-24.7357
  0
LINE
  8
0
 10
39.3658
 20
-24.7357
 11
41.6076
 21
-23.8002
  0
LINE
  8
0
 10
41.6076
 20
-23.8002
 11
41.6937
 21
-23.7598
  0
LINE
  8
0
 10
41.6937
 20
-23.7598
 11
42.04
 21
-23.5866
  0
LINE
  8
0
 10
42.04
 20
-23.5866
 11
43.694
 21
-22.7861
  0
LINE
  8
0
 10
43.694
 20
-22.7861
 11
44.1583
 21
-22.5341
  0
LINE
  8
0
 10
44.1583
 20
-22.5341
 11
45.3856
 21
-21.8743
  0
LINE
  8
0
 10
45.3856
 20
-21.8743
 11
45.4108
 21
-21.8601
  0
LINE
  8
0
 10
45.4108
 20
-21.8601
 11
46.436
 21
-21.2205
  0
LINE
  8
0
 10
46.436
 20
-21.2205
 11
49.0373
 21
-19.6105
  0
LINE
  8
0
 10
49.0373
 20
-19.6105
 11
49.0401
 21
-19.6086
  0
LINE
  8
0
 10
49.0401
 20
-19.6086
 11
49.3224
 21
-19.4102
  0
LINE
  8
0
 10
49.3224
 20
-19.4102
 11
50.1841
 21
-18.8039
  0
LINE
  8
0
 10
50.1841
 20
-18.8039
 11
50.7782
 21
-18.3482
  0
LINE
  8
0
 10
50.7782
 20
-18.3482
 11
52.3783
 21
-17.1057
  0
LINE
  8
0
 10
52.3783
 20
-17.1057
 11
52.4062
 21
-17.0827
  0
LINE
  8
0
 10
52.4062
 20
-17.0827
 11
53.093
 21
-16.4717
  0
LINE
  8
0
 10
53.093
 20
-16.4717
 11
54.89
 21
-14.8541
  0
LINE
  8
0
 10
54.89
 20
-14.8541
 11
55.0077
 21
-14.7373
  0
LINE
  8
0
 10
55.0077
 20
-14.7373
 11
55.2805
 21
-14.4668
  0
LINE
  8
0
 10
55.2805
 20
-14.4668
 11
55.5692
 21
-14.1651
  0
LINE
  8
0
 10
55.5692
 20
-14.1651
 11
56.9828
 21
-12.6087
  0
LINE
  8
0
 10
56.9828
 20
-12.6087
 11
57.0616
 21
-12.5184
  0
LINE
  8
0
 10
57.0616
 20
-12.5184
 11
57.5679
 21
-11.9116
  0
LINE
  8
0
 10
57.5679
 20
-11.9116
 11
57.6269
 21
-11.8368
  0
LINE
  8
0
 10
57.6269
 20
-11.8368
 11
57.9353
 21
-11.398
  0
LINE
  8
0
 10
57.9353
 20
-11.398
 11
59.1843
 21
-9.71173
  0
LINE
  8
0
 10
59.1843
 20
-9.71173
 11
59.3273
 21
-9.49072
  0
LINE
  8
0
 10
59.3273
 20
-9.49072
 11
59.5143
 21
-9.18787
  0
LINE
  8
0
 10
59.5143
 20
-9.18787
 11
59.8661
 21
-8.61288
  0
LINE
  8
0
 10
59.8661
 20
-8.61288
 11
59.8711
 21
-8.60426
  0
LINE
  8
0
 10
59.8711
 20
-8.60426
 11
59.9397
 21
-8.48302
  0
LINE
  8
0
 10
59.9397
 20
-8.48302
 11
60.2632
 21
-7.80519
  0
LINE
  8
0
 10
60.2632
 20
-7.80519
 11
61.1533
 21
-6.03577
  0
LINE
  8
0
 10
61.1533
 20
-6.03577
 11
61.1612
 21
-6.01671
  0
LINE
  8
0
 10
61.1612
 20
-6.01671
 11
61.2075
 21
-5.89786
  0
LINE
  8
0
 10
61.2075
 20
-5.89786
 11
61.3821
 21
-5.45976
  0
LINE
  8
0
 10
61.3821
 20
-5.45976
 11
61.5457
 21
-4.9317
  0
LINE
  8
0
 10
61.5457
 20
-4.9317
 11
61.9882
 21
-3.52588
  0
LINE
  8
0
 10
61.9882
 20
-3.52588
 11
61.9906
 21
-3.51602
  0
LINE
  8
0
 10
61.9906
 20
-3.51602
 11
62.0466
 21
-3.25511
  0
LINE
  8
0
 10
62.0466
 20
-3.25511
 11
62.1911
 21
-2.59369
  0
LINE
  8
0
 10
62.1911
 20
-2.59369
 11
62.1915
 21
-2.59137
  0
LINE
  8
0
 10
62.1915
 20
-2.59137
 11
62.2414
 21
-2.23584
  0
LINE
  8
0
 10
62.2414
 20
-2.23584
 11
62.3795
 21
-1.24361
  0
LINE
  8
0
 10
62.3795
 20
-1.24361
 11
62.398
 21
-0.922501
  0
LINE
  8
0
 10
62.398
 20
-0.922501
 11
62.4366
 21
-0.249374
  0
LINE
  8
0
 10
62.4366
 20
-0.249374
 11
62.4366
 21
-0.24826
  0
LINE
  8
0
 10
62.4366
 20
-0.24826
 11
62.4004
 21
0.352585
  0
LINE
  8
0
 10
62.4004
 20
0.352585
 11
62.391
 21
0.507462
  0
LINE
  8
0
 10
62.391
 20
0.507462
 11
62.2918
 21
2.09158
  0
LINE
  8
0
 10
62.2918
 20
2.09158
 11
62.2806
 21
2.16585
  0
LINE
  8
0
 10
62.2806
 20
2.16585
 11
62.2783
 21
2.18069
  0
LINE
  8
0
 10
62.2783
 20
2.18069
 11
62.203
 21
2.62831
  0
LINE
  8
0
 10
62.203
 20
2.62831
 11
62.1977
 21
2.65823
  0
LINE
  8
0
 10
62.1977
 20
2.65823
 11
62.1652
 21
2.83478
  0
LINE
  8
0
 10
62.1652
 20
2.83478
 11
62.1301
 21
3.01105
  0
LINE
  8
0
 10
62.1301
 20
3.01105
 11
61.9744
 21
3.59305
  0
LINE
  8
0
 10
61.9744
 20
3.59305
 11
61.5742
 21
5.02765
  0
LINE
  8
0
 10
61.5742
 20
5.02765
 11
61.5663
 21
5.05087
  0
LINE
  8
0
 10
61.5663
 20
5.05087
 11
61.3129
 21
5.67365
  0
LINE
  8
0
 10
61.3129
 20
5.67365
 11
60.6692
 21
7.21257
  0
LINE
  8
0
 10
60.6692
 20
7.21257
 11
60.6662
 21
7.21889
  0
LINE
  8
0
 10
60.6662
 20
7.21889
 11
60.5743
 21
7.40466
  0
LINE
  8
0
 10
60.5743
 20
7.40466
 11
60.5016
 21
7.54819
  0
LINE
  8
0
 10
60.5016
 20
7.54819
 11
60.4902
 21
7.57045
  0
LINE
  8
0
 10
60.4902
 20
7.57045
 11
60.1584
 21
8.19267
  0
LINE
  8
0
 10
60.1584
 20
8.19267
 11
60.1366
 21
8.23264
  0
LINE
  8
0
 10
60.1366
 20
8.23264
 11
59.7137
 21
8.92151
  0
LINE
  8
0
 10
59.7137
 20
8.92151
 11
59.6231
 21
9.06456
  0
LINE
  8
0
 10
59.6231
 20
9.06456
 11
58.5255
 21
10.762
  0
LINE
  8
0
 10
58.5255
 20
10.762
 11
58.5063
 21
10.7887
  0
LINE
  8
0
 10
58.5063
 20
10.7887
 11
58.2918
 21
11.0773
  0
LINE
  8
0
 10
58.2918
 20
11.0773
 11
57.8663
 21
11.6395
  0
LINE
  8
0
 10
57.8663
 20
11.6395
 11
57.4732
 21
12.1105
  0
LINE
  8
0
 10
57.4732
 20
12.1105
 11
56.5323
 21
13.23
  0
LINE
  8
0
 10
56.5323
 20
13.23
 11
56.5219
 21
13.2416
  0
LINE
  8
0
 10
56.5219
 20
13.2416
 11
56.1436
 21
13.6413
  0
LINE
  8
0
 10
56.1436
 20
13.6413
 11
55.2466
 21
14.5892
  0
LINE
  8
0
 10
55.2466
 20
14.5892
 11
55.2348
 21
14.601
  0
LINE
  8
0
 10
55.2348
 20
14.601
 11
54.62
 21
15.1704
  0
LINE
  8
0
 10
54.62
 20
15.1704
 11
53.1711
 21
16.5209
  0
LINE
  8
0
 10
53.1711
 20
16.5209
 11
52.6956
 21
16.9244
  0
LINE
  8
0
 10
52.6956
 20
16.9244
 11
52.4257
 21
17.1501
  0
LINE
  8
0
 10
52.4257
 20
17.1501
 11
52.3929
 21
17.177
  0
LINE
  8
0
 10
52.3929
 20
17.177
 11
50.2969
 21
18.773
  0
LINE
  8
0
 10
50.2969
 20
18.773
 11
50.12
 21
18.9057
  0
LINE
  8
0
 10
50.12
 20
18.9057
 11
49.2975
 21
19.5089
  0
LINE
  8
0
 10
49.2975
 20
19.5089
 11
49.2385
 21
19.5492
  0
LINE
  8
0
 10
49.2385
 20
19.5492
 11
48.6557
 21
19.9189
  0
LINE
  8
0
 10
48.6557
 20
19.9189
 11
46.7664
 21
21.1456
  0
LINE
  8
0
 10
46.7664
 20
21.1456
 11
46.3301
 21
21.4052
  0
LINE
  8
0
 10
46.3301
 20
21.4052
 11
45.888
 21
21.6596
  0
LINE
  8
0
 10
45.888
 20
21.6596
 11
45.7988
 21
21.7102
  0
LINE
  8
0
 10
45.7988
 20
21.7102
 11
43.6205
 21
22.8878
  0
LINE
  8
0
 10
43.6205
 20
22.8878
 11
43.1152
 21
23.1532
  0
LINE
  8
0
 10
43.1152
 20
23.1532
 11
43.1017
 21
23.16
  0
LINE
  8
0
 10
43.1017
 20
23.16
 11
42.211
 21
23.5646
  0
LINE
  8
0
 10
42.211
 20
23.5646
 11
39.4669
 21
24.8042
  0
LINE
  8
0
 10
39.4669
 20
24.8042
 11
39.4354
 21
24.817
  0
LINE
  8
0
 10
39.4354
 20
24.817
 11
39.0995
 21
24.9519
  0
LINE
  8
0
 10
39.0995
 20
24.9519
 11
39.0732
 21
24.9624
  0
LINE
  8
0
 10
39.0732
 20
24.9624
 11
38.1513
 21
25.2926
  0
LINE
  8
0
 10
38.1513
 20
25.2926
 11
37.9022
 21
25.3808
  0
LINE
  8
0
 10
37.9022
 20
25.3808
 11
34.986
 21
26.3917
  0
LINE
  8
0
 10
34.986
 20
26.3917
 11
34.9435
 21
26.4046
  0
LINE
  8
0
 10
34.9435
 20
26.4046
 11
34.1599
 21
26.6183
  0
LINE
  8
0
 10
34.1599
 20
26.6183
 11
32.0292
 21
27.1841
  0
LINE
  8
0
 10
32.0292
 20
27.1841
 11
31.8384
 21
27.2271
  0
LINE
  8
0
 10
31.8384
 20
27.2271
 11
30.8208
 21
27.4465
  0
LINE
  8
0
 10
30.8208
 20
27.4465
 11
30.7634
 21
27.4585
  0
LINE
  8
0
 10
30.7634
 20
27.4585
 11
30.1278
 21
27.5761
  0
LINE
  8
0
 10
30.1278
 20
27.5761
 11
29.9928
 21
27.5998
  0
LINE
  8
0
 10
29.9928
 20
27.5998
 11
27.2287
 21
28.0213
  0
LINE
  8
0
 10
27.2287
 20
28.0213
 11
27.0872
 21
28.0398
  0
LINE
  8
0
 10
27.0872
 20
28.0398
 11
26.2406
 21
28.1362
  0
LINE
  8
0
 10
26.2406
 20
28.1362
 11
25.3376
 21
28.2242
  0
LINE
  8
0
 10
25.3376
 20
28.2242
 11
24.975
 21
28.2537
  0
LINE
  8
0
 10
24.975
 20
28.2537
 11
24.7934
 21
28.2666
  0
LINE
  8
0
 10
24.7934
 20
28.2666
 11
22.9892
 21
28.3619
  0
LINE
  8
0
 10
22.9892
 20
28.3619
 11
22.851
 21
28.3685
  0
LINE
  8
0
 10
22.851
 20
28.3685
 11
21.6862
 21
28.3932
  0
LINE
  8
0
 10
21.6862
 20
28.3932
 11
21.4722
 21
28.3942
  0
LINE
  8
0
 10
21.4722
 20
28.3942
 11
18.4339
 21
28.3772
  0
LINE
  8
0
 10
18.4339
 20
28.3772
 11
18.3439
 21
28.3746
  0
LINE
  8
0
 10
18.3439
 20
28.3746
 11
17.9465
 21
28.3617
  0
LINE
  8
0
 10
17.9465
 20
28.3617
 11
17.6219
 21
28.3481
  0
LINE
  8
0
 10
17.6219
 20
28.3481
 11
16.4902
 21
28.2695
  0
LINE
  8
0
 10
16.4902
 20
28.2695
 11
13.6618
 21
28.0676
  0
LINE
  8
0
 10
13.6618
 20
28.0676
 11
13.6404
 21
28.0656
  0
LINE
  8
0
 10
13.6404
 20
28.0656
 11
12.4897
 21
27.931
  0
LINE
  8
0
 10
12.4897
 20
27.931
 11
8.95287
 21
27.5123
  0
LINE
  8
0
 10
8.95287
 20
27.5123
 11
5.06422
 21
26.9508
  0
LINE
  8
0
 10
5.06422
 20
26.9508
 11
2.31627
 21
26.5279
  0
LINE
  8
0
 10
2.31627
 20
26.5279
 11
1.87314
 21
26.4564
  0
LINE
  8
0
 10
1.87314
 20
26.4564
 11
-5.93486
 21
25.1404
  0
LINE
  8
0
 10
-5.93486
 20
25.1404
 11
-6.27258
 21
25.0803
  0
LINE
  8
0
 10
-6.27258
 20
25.0803
 11
-9.11804
 21
24.5473
  0
LINE
  8
0
 10
-9.11804
 20
24.5473
 11
-14.0866
 21
23.5815
  0
LINE
  8
0
 10
-14.0866
 20
23.5815
 11
-14.1221
 21
23.5743
  0
LINE
  8
0
 10
-14.1221
 20
23.5743
 11
-18.8302
 21
22.5828
  0
LINE
  8
0
 10
-18.8302
 20
22.5828
 11
-18.8366
 21
22.5814
  0
LINE
  8
0
 10
-18.8366
 20
22.5814
 11
-21.7794
 21
21.8938
  0
LINE
  8
0
 10
-21.7794
 20
21.8938
 11
-30.2314
 21
19.9178
  0
LINE
  8
0
 10
-30.2314
 20
19.9178
 11
-34.4492
 21
18.8353
  0
LINE
  8
0
 10
-34.4492
 20
18.8353
 11
-34.9939
 21
18.6915
  0
LINE
  8
0
 10
-34.9939
 20
18.6915
 11
-36.9297
 21
18.1616
  0
LINE
  8
0
 10
-36.9297
 20
18.1616
 11
-37.3475
 21
18.0467
  0
LINE
  8
0
 10
-37.3475
 20
18.0467
 11
-44.7112
 21
15.9664
  0
LINE
  8
0
 10
-44.7112
 20
15.9664
 11
-46.2914
 21
15.5052
  0
LINE
  8
0
 10
-46.2914
 20
15.5052
 11
-46.3181
 21
15.4972
  0
LINE
  8
0
 10
-46.3181
 20
15.4972
 11
-48.502
 21
14.8164
  0
LINE
  8
0
 10
-48.502
 20
14.8164
 11
-53.6543
 21
13.2067
  0
LINE
  8
0
 10
-53.6543
 20
13.2067
 11
-54.6178
 21
12.8893
  0
LINE
  8
0
 10
-54.6178
 20
12.8893
 11
-56.9781
 21
12.1076
  0
LINE
  8
0
 10
-56.9781
 20
12.1076
 11
-57.042
 21
12.0861
  0
LINE
  8
0
 10
-57.042
 20
12.0861
 11
-60.0512
 21
11.0242
  0
LINE
  8
0
 10
-60.0512
 20
11.0242
 11
-60.6279
 21
10.8197
  0
LINE
  8
0
 10
-60.6279
 20
10.8197
 11
-67.3114
 21
8.42987
  0
LINE
  8
0
 10
-67.3114
 20
8.42987
 11
-67.4032
 21
8.39543
  0
LINE
  8
0
 10
-67.4032
 20
8.39543
 11
-68.8884
 21
7.82784
  0
LINE
  8
0
 10
-68.8884
 20
7.82784
 11
-69.7373
 21
7.50446
  0
LINE
  8
0
 10
-69.7373
 20
7.50446
 11
-71.1488
 21
6.95709
  0
LINE
  8
0
 10
-71.1488
 20
6.95709
 11
-71.7213
 21
6.73071
  0
LINE
  8
0
 10
-71.7213
 20
6.73071
 11
-76.2858
 21
4.86449
  0
LINE
  8
0
 10
-76.2858
 20
4.86449
 11
-76.6483
 21
4.715
  0
LINE
  8
0
 10
-76.6483
 20
4.715
 11
-79.6765
 21
3.44188
  0
LINE
  8
0
 10
-79.6765
 20
3.44188
 11
-79.8828
 21
3.3522
  0
LINE
  8
0
 10
-79.8828
 20
3.3522
 11
-82.0576
 21
2.35536
  0
LINE
  8
0
 10
-82.0576
 20
2.35536
 11
-87.5599
 21
-0.117813
  0
LINE
  8
0
 10
-87.5599
 20
-0.117813
 11
-85.66
 21
-0.982498
  0
LINE
  8
0
 10
-85.66
 20
-0.982498
 11
-83.2053
 21
-2.11258
  0
LINE
  8
0
 10
-83.2053
 20
-2.11258
 11
-83.0901
 21
-2.1638
  0
LINE
  8
0
 10
-83.0901
 20
-2.1638
 11
-79.7967
 21
-3.53806
  0
LINE
  8
0
 10
-79.7967
 20
-3.53806
 11
-74.1848
 21
-5.93703
  0
LINE
  8
0
 10
-74.1848
 20
-5.93703
 11
-74.0447
 21
-5.99319
  0
LINE
  8
0
 10
-74.0447
 20
-5.99319
 11
-73.8197
 21
-6.08192
  0
LINE
  8
0
 10
-73.8197
 20
-6.08192
 11
-72.056
 21
-6.78642
  0
LINE
  8
0
 10
-72.056
 20
-6.78642
 11
-69.8967
 21
-7.60913
  0
LINE
  8
0
 10
-69.8967
 20
-7.60913
 11
-65.9448
 21
-9.10934
  0
LINE
  8
0
 10
-65.9448
 20
-9.10934
 11
-65.9023
 21
-9.12498
  0
LINE
  8
0
 10
-65.9023
 20
-9.12498
 11
-62.7859
 21
-10.2152
  0
LINE
  8
0
 10
-62.7859
 20
-10.2152
 11
-62.1967
 21
-10.4206
  0
LINE
  8
0
 10
-62.1967
 20
-10.4206
 11
-56.2309
 21
-12.4986
  0
LINE
  8
0
 10
-56.2309
 20
-12.4986
 11
-55.704
 21
-12.6714
  0
LINE
  8
0
 10
-55.704
 20
-12.6714
 11
-54.5616
 21
-13.046
  0
LINE
  8
0
 10
-54.5616
 20
-13.046
 11
-52.0019
 21
-13.8405
  0
LINE
  8
0
 10
-52.0019
 20
-13.8405
 11
-46.1591
 21
-15.6565
  0
LINE
  8
0
 10
-46.1591
 20
-15.6565
 11
-46.1431
 21
-15.6613
  0
LINE
  8
0
 10
-46.1431
 20
-15.6613
 11
-44.5624
 21
-16.118
  0
LINE
  8
0
 10
-44.5624
 20
-16.118
 11
-37.3482
 21
-18.1341
  0
LINE
  8
0
 10
-37.3482
 20
-18.1341
 11
-36.935
 21
-18.2465
  0
LINE
  8
0
 10
-36.935
 20
-18.2465
 11
-34.759
 21
-18.833
  0
LINE
  8
0
 10
-34.759
 20
-18.833
 11
-33.5274
 21
-19.1532
  0
LINE
  8
0
 10
-33.5274
 20
-19.1532
 11
-32.3931
 21
-19.4396
  0
LINE
  8
0
 10
-32.3931
 20
-19.4396
 11
-26.0467
 21
-20.9842
  0
LINE
  8
0
 10
-26.0467
 20
-20.9842
 11
-25.6341
 21
-21.0826
  0
LINE
  8
0
 10
-25.6341
 20
-21.0826
 11
-22.6311
 21
-21.7757
  0
LINE
  8
0
 10
-22.6311
 20
-21.7757
 11
-22.2742
 21
-21.8549
  0
LINE
  8
0
 10
-22.2742
 20
-21.8549
 11
-20.7701
 21
-22.1674
  0
LINE
  8
0
 10
-20.7701
 20
-22.1674
 11
-14.1227
 21
-23.599
  0
LINE
  8
0
 10
-14.1227
 20
-23.599
 11
-12.0176
 21
-24.0164
  0
LINE
  8
0
 10
-12.0176
 20
-24.0164
 11
-8.97989
 21
-24.5682
  0
LINE
  8
0
 10
-8.97989
 20
-24.5682
 11
-2.48634
 21
-25.7478
  0
LINE
  8
0
 10
-2.48634
 20
-25.7478
 11
9.02704
 21
-27.4877
  0
LINE
  8
0
 10
9.02704
 20
-27.4877
 11
10.4541
 21
-27.6698
  0
LINE
  8
0
 10
10.4541
 20
-27.6698
 11
11.5398
 21
-27.7951
  0
LINE
  8
0
 10
11.5398
 20
-27.7951
 11
11.7315
 21
-27.8156
  0
LINE
  8
0
 10
11.7315
 20
-27.8156
 11
15.7647
 21
-28.1794
  0
LINE
  8
0
 10
15.7647
 20
-28.1794
 11
15.9763
 21
-28.1952
  0
LINE
  8
0
 10
15.9763
 20
-28.1952
 11
17.0246
 21
-28.2636
  0
LINE
  8
0
 10
17.0246
 20
-28.2636
 11
17.1273
 21
-28.2683
  0
LINE
  8
0
 10
17.1273
 20
-28.2683
 11
20.4528
 21
-28.3396
  0
LINE
  8
0
 10
20.4528
 20
-28.3396
 11
21.444
 21
-28.3502
  0
LINE
  8
0
 10
21.444
 20
-28.3502
 11
21.8312
 21
-28.3427
  0
ENDSEC
  0
SECTION
  2
OBJECTS
  0
DICTIONARY
  0
ENDSEC
  0
EOF
