  0
SECTION
  2
BLOCKS
  0
ENDSEC
  0
SECTION
  2
ENTITIES
  0
LINE
  8
0
 10
21.444
 20
-28.3502
 11
21.62
 21
-28.3468
  0
LINE
  8
0
 10
21.62
 20
-28.3468
 11
22.3312
 21
-28.3295
  0
LINE
  8
0
 10
22.3312
 20
-28.3295
 11
22.4136
 21
-28.3271
  0
LINE
  8
0
 10
22.4136
 20
-28.3271
 11
23.163
 21
-28.2859
  0
LINE
  8
0
 10
23.163
 20
-28.2859
 11
23.5802
 21
-28.2607
  0
LINE
  8
0
 10
23.5802
 20
-28.2607
 11
26.3574
 21
-28.0592
  0
LINE
  8
0
 10
26.3574
 20
-28.0592
 11
26.4865
 21
-28.0473
  0
LINE
  8
0
 10
26.4865
 20
-28.0473
 11
26.6148
 21
-28.0339
  0
LINE
  8
0
 10
26.6148
 20
-28.0339
 11
28.1633
 21
-27.8253
  0
LINE
  8
0
 10
28.1633
 20
-27.8253
 11
28.7666
 21
-27.7498
  0
LINE
  8
0
 10
28.7666
 20
-27.7498
 11
29.7912
 21
-27.5746
  0
LINE
  8
0
 10
29.7912
 20
-27.5746
 11
30.0782
 21
-27.5253
  0
LINE
  8
0
 10
30.0782
 20
-27.5253
 11
30.0882
 21
-27.5234
  0
LINE
  8
0
 10
30.0882
 20
-27.5234
 11
32.8402
 21
-26.8723
  0
LINE
  8
0
 10
32.8402
 20
-26.8723
 11
34.2812
 21
-26.5308
  0
LINE
  8
0
 10
34.2812
 20
-26.5308
 11
34.2864
 21
-26.5293
  0
LINE
  8
0
 10
34.2864
 20
-26.5293
 11
36.0363
 21
-25.9828
  0
LINE
  8
0
 10
36.0363
 20
-25.9828
 11
36.5221
 21
-25.8313
  0
LINE
  8
0
 10
36.5221
 20
-25.8313
 11
37.7887
 21
-25.374
  0
LINE
  8
0
 10
37.7887
 20
-25.374
 11
38.4334
 21
-25.1419
  0
LINE
  8
0
 10
38.4334
 20
-25.1419
 11
38.447
 21
-25.1367
  0
LINE
  8
0
 10
38.447
 20
-25.1367
 11
41.1383
 21
-23.9693
  0
LINE
  8
0
 10
41.1383
 20
-23.9693
 11
42.1243
 21
-23.5578
  0
LINE
  8
0
 10
42.1243
 20
-23.5578
 11
42.2965
 21
-23.4771
  0
LINE
  8
0
 10
42.2965
 20
-23.4771
 11
43.1974
 21
-23.0264
  0
LINE
  8
0
 10
43.1974
 20
-23.0264
 11
43.694
 21
-22.7861
  0
LINE
  8
0
 10
43.694
 20
-22.7861
 11
44.9789
 21
-22.0887
  0
LINE
  8
0
 10
44.9789
 20
-22.0887
 11
45.5367
 21
-21.7888
  0
LINE
  8
0
 10
45.5367
 20
-21.7888
 11
45.5871
 21
-21.7603
  0
LINE
  8
0
 10
45.5871
 20
-21.7603
 11
48.2371
 21
-20.107
  0
LINE
  8
0
 10
48.2371
 20
-20.107
 11
49.0174
 21
-19.6241
  0
LINE
  8
0
 10
49.0174
 20
-19.6241
 11
49.0231
 21
-19.6202
  0
LINE
  8
0
 10
49.0231
 20
-19.6202
 11
49.7924
 21
-19.0795
  0
LINE
  8
0
 10
49.7924
 20
-19.0795
 11
50.1841
 21
-18.8039
  0
LINE
  8
0
 10
50.1841
 20
-18.8039
 11
51.7025
 21
-17.6391
  0
LINE
  8
0
 10
51.7025
 20
-17.6391
 11
52.1825
 21
-17.2664
  0
LINE
  8
0
 10
52.1825
 20
-17.2664
 11
52.2384
 21
-17.2205
  0
LINE
  8
0
 10
52.2384
 20
-17.2205
 11
54.0865
 21
-15.5764
  0
LINE
  8
0
 10
54.0865
 20
-15.5764
 11
54.9033
 21
-14.8412
  0
LINE
  8
0
 10
54.9033
 20
-14.8412
 11
54.9077
 21
-14.8369
  0
LINE
  8
0
 10
54.9077
 20
-14.8369
 11
55.1987
 21
-14.5479
  0
LINE
  8
0
 10
55.1987
 20
-14.5479
 11
55.2805
 21
-14.4668
  0
LINE
  8
0
 10
55.2805
 20
-14.4668
 11
56.0069
 21
-13.7076
  0
LINE
  8
0
 10
56.0069
 20
-13.7076
 11
56.431
 21
-13.2408
  0
LINE
  8
0
 10
56.431
 20
-13.2408
 11
56.5886
 21
-13.0602
  0
LINE
  8
0
 10
56.5886
 20
-13.0602
 11
57.9214
 21
-11.4628
  0
LINE
  8
0
 10
57.9214
 20
-11.4628
 11
58.0393
 21
-11.3132
  0
LINE
  8
0
 10
58.0393
 20
-11.3132
 11
58.8097
 21
-10.2176
  0
LINE
  8
0
 10
58.8097
 20
-10.2176
 11
59.1843
 21
-9.71173
  0
LINE
  8
0
 10
59.1843
 20
-9.71173
 11
59.2493
 21
-9.61128
  0
LINE
  8
0
 10
59.2493
 20
-9.61128
 11
59.7362
 21
-8.82254
  0
LINE
  8
0
 10
59.7362
 20
-8.82254
 11
59.8961
 21
-8.5612
  0
LINE
  8
0
 10
59.8961
 20
-8.5612
 11
59.9062
 21
-8.54398
  0
LINE
  8
0
 10
59.9062
 20
-8.54398
 11
60.0757
 21
-8.24425
  0
LINE
  8
0
 10
60.0757
 20
-8.24425
 11
60.8908
 21
-6.53656
  0
LINE
  8
0
 10
60.8908
 20
-6.53656
 11
61.2003
 21
-5.92143
  0
LINE
  8
0
 10
61.2003
 20
-5.92143
 11
61.2159
 21
-5.88332
  0
LINE
  8
0
 10
61.2159
 20
-5.88332
 11
61.3297
 21
-5.59117
  0
LINE
  8
0
 10
61.3297
 20
-5.59117
 11
61.3821
 21
-5.45976
  0
LINE
  8
0
 10
61.3821
 20
-5.45976
 11
61.8013
 21
-4.10689
  0
LINE
  8
0
 10
61.8013
 20
-4.10689
 11
62.0028
 21
-3.46677
  0
LINE
  8
0
 10
62.0028
 20
-3.46677
 11
62.0076
 21
-3.44707
  0
LINE
  8
0
 10
62.0076
 20
-3.44707
 11
62.1448
 21
-2.80832
  0
LINE
  8
0
 10
62.1448
 20
-2.80832
 11
62.1881
 21
-2.60992
  0
LINE
  8
0
 10
62.1881
 20
-2.60992
 11
62.1889
 21
-2.60529
  0
LINE
  8
0
 10
62.1889
 20
-2.60529
 11
62.3167
 21
-1.6946
  0
LINE
  8
0
 10
62.3167
 20
-1.6946
 11
62.3795
 21
-1.24361
  0
LINE
  8
0
 10
62.3795
 20
-1.24361
 11
62.4248
 21
-0.458984
  0
LINE
  8
0
 10
62.4248
 20
-0.458984
 11
62.4364
 21
-0.25708
  0
LINE
  8
0
 10
62.4364
 20
-0.25708
 11
62.4364
 21
-0.254868
  0
LINE
  8
0
 10
62.4364
 20
-0.254868
 11
62.3439
 21
1.28188
  0
LINE
  8
0
 10
62.3439
 20
1.28188
 11
62.3251
 21
1.59163
  0
LINE
  8
0
 10
62.3251
 20
1.59163
 11
62.2954
 21
2.06679
  0
LINE
  8
0
 10
62.2954
 20
2.06679
 11
62.2943
 21
2.07387
  0
LINE
  8
0
 10
62.2943
 20
2.07387
 11
62.2669
 21
2.2549
  0
LINE
  8
0
 10
62.2669
 20
2.2549
 11
62.2624
 21
2.28459
  0
LINE
  8
0
 10
62.2624
 20
2.28459
 11
62.2398
 21
2.41885
  0
LINE
  8
0
 10
62.2398
 20
2.41885
 11
62.2293
 21
2.4787
  0
LINE
  8
0
 10
62.2293
 20
2.4787
 11
62.1461
 21
2.93092
  0
LINE
  8
0
 10
62.1461
 20
2.93092
 11
62.1301
 21
3.01105
  0
LINE
  8
0
 10
62.1301
 20
3.01105
 11
61.7493
 21
4.43474
  0
LINE
  8
0
 10
61.7493
 20
4.43474
 11
61.6293
 21
4.86507
  0
LINE
  8
0
 10
61.6293
 20
4.86507
 11
61.6136
 21
4.91151
  0
LINE
  8
0
 10
61.6136
 20
4.91151
 11
60.9618
 21
6.51311
  0
LINE
  8
0
 10
60.9618
 20
6.51311
 11
60.6692
 21
7.21257
  0
LINE
  8
0
 10
60.6692
 20
7.21257
 11
60.6617
 21
7.2281
  0
LINE
  8
0
 10
60.6617
 20
7.2281
 11
60.6209
 21
7.31052
  0
LINE
  8
0
 10
60.6209
 20
7.31052
 11
60.433
 21
7.68178
  0
LINE
  8
0
 10
60.433
 20
7.68178
 11
60.4101
 21
7.7263
  0
LINE
  8
0
 10
60.4101
 20
7.7263
 11
60.3106
 21
7.91295
  0
LINE
  8
0
 10
60.3106
 20
7.91295
 11
60.2671
 21
7.99286
  0
LINE
  8
0
 10
60.2671
 20
7.99286
 11
59.17
 21
9.77988
  0
LINE
  8
0
 10
59.17
 20
9.77988
 11
58.9887
 21
10.066
  0
LINE
  8
0
 10
58.9887
 20
10.066
 11
58.6595
 21
10.5751
  0
LINE
  8
0
 10
58.6595
 20
10.5751
 11
58.6212
 21
10.6285
  0
LINE
  8
0
 10
58.6212
 20
10.6285
 11
58.0597
 21
11.384
  0
LINE
  8
0
 10
58.0597
 20
11.384
 11
57.8663
 21
11.6395
  0
LINE
  8
0
 10
57.8663
 20
11.6395
 11
56.8869
 21
12.8133
  0
LINE
  8
0
 10
56.8869
 20
12.8133
 11
56.6046
 21
13.1491
  0
LINE
  8
0
 10
56.6046
 20
13.1491
 11
56.5839
 21
13.1722
  0
LINE
  8
0
 10
56.5839
 20
13.1722
 11
55.5837
 21
14.2289
  0
LINE
  8
0
 10
55.5837
 20
14.2289
 11
55.1761
 21
14.6597
  0
LINE
  8
0
 10
55.1761
 20
14.6597
 11
55.1525
 21
14.6832
  0
LINE
  8
0
 10
55.1525
 20
14.6832
 11
53.6057
 21
16.1158
  0
LINE
  8
0
 10
53.6057
 20
16.1158
 11
53.1711
 21
16.5209
  0
LINE
  8
0
 10
53.1711
 20
16.5209
 11
52.955
 21
16.7043
  0
LINE
  8
0
 10
52.955
 20
16.7043
 11
52.2289
 21
17.3114
  0
LINE
  8
0
 10
52.2289
 20
17.3114
 11
52.1633
 21
17.3652
  0
LINE
  8
0
 10
52.1633
 20
17.3652
 11
51.5346
 21
17.844
  0
LINE
  8
0
 10
51.5346
 20
17.844
 11
51.181
 21
18.1094
  0
LINE
  8
0
 10
51.181
 20
18.1094
 11
48.9432
 21
19.7506
  0
LINE
  8
0
 10
48.9432
 20
19.7506
 11
48.825
 21
19.8312
  0
LINE
  8
0
 10
48.825
 20
19.8312
 11
47.3331
 21
20.7776
  0
LINE
  8
0
 10
47.3331
 20
20.7776
 11
46.7664
 21
21.1456
  0
LINE
  8
0
 10
46.7664
 20
21.1456
 11
46.5681
 21
21.2636
  0
LINE
  8
0
 10
46.5681
 20
21.2636
 11
45.3528
 21
21.963
  0
LINE
  8
0
 10
45.3528
 20
21.963
 11
45.1744
 21
22.0641
  0
LINE
  8
0
 10
45.1744
 20
22.0641
 11
44.521
 21
22.4173
  0
LINE
  8
0
 10
44.521
 20
22.4173
 11
43.2095
 21
23.1061
  0
LINE
  8
0
 10
43.2095
 20
23.1061
 11
43.1826
 21
23.1196
  0
LINE
  8
0
 10
43.1826
 20
23.1196
 11
40.7141
 21
24.2408
  0
LINE
  8
0
 10
40.7141
 20
24.2408
 11
39.4669
 21
24.8042
  0
LINE
  8
0
 10
39.4669
 20
24.8042
 11
39.3846
 21
24.8376
  0
LINE
  8
0
 10
39.3846
 20
24.8376
 11
39.2839
 21
24.878
  0
LINE
  8
0
 10
39.2839
 20
24.878
 11
39.2312
 21
24.8991
  0
LINE
  8
0
 10
39.2312
 20
24.8991
 11
36.6563
 21
25.8215
  0
LINE
  8
0
 10
36.6563
 20
25.8215
 11
36.158
 21
25.9978
  0
LINE
  8
0
 10
36.158
 20
25.9978
 11
35.2832
 21
26.301
  0
LINE
  8
0
 10
35.2832
 20
26.301
 11
35.1983
 21
26.3269
  0
LINE
  8
0
 10
35.1983
 20
26.3269
 11
32.9976
 21
26.9269
  0
LINE
  8
0
 10
32.9976
 20
26.9269
 11
32.0292
 21
27.1841
  0
LINE
  8
0
 10
32.0292
 20
27.1841
 11
31.5283
 21
27.297
  0
LINE
  8
0
 10
31.5283
 20
27.297
 11
31.2231
 21
27.3629
  0
LINE
  8
0
 10
31.2231
 20
27.3629
 11
31.1081
 21
27.3868
  0
LINE
  8
0
 10
31.1081
 20
27.3868
 11
29.3179
 21
27.718
  0
LINE
  8
0
 10
29.3179
 20
27.718
 11
29.048
 21
27.7654
  0
LINE
  8
0
 10
29.048
 20
27.7654
 11
28.2189
 21
27.8918
  0
LINE
  8
0
 10
28.2189
 20
27.8918
 11
27.936
 21
27.9288
  0
LINE
  8
0
 10
27.936
 20
27.9288
 11
25.5502
 21
28.2003
  0
LINE
  8
0
 10
25.5502
 20
28.2003
 11
25.1398
 21
28.2403
  0
LINE
  8
0
 10
25.1398
 20
28.2403
 11
24.975
 21
28.2537
  0
LINE
  8
0
 10
24.975
 20
28.2537
 11
24.4978
 21
28.2876
  0
LINE
  8
0
 10
24.4978
 20
28.2876
 11
23.9566
 21
28.3162
  0
LINE
  8
0
 10
23.9566
 20
28.3162
 11
23.6802
 21
28.3293
  0
LINE
  8
0
 10
23.6802
 20
28.3293
 11
20.4027
 21
28.3989
  0
LINE
  8
0
 10
20.4027
 20
28.3989
 11
19.9749
 21
28.4008
  0
LINE
  8
0
 10
19.9749
 20
28.4008
 11
19.0635
 21
28.3957
  0
LINE
  8
0
 10
19.0635
 20
28.3957
 11
18.8836
 21
28.3904
  0
LINE
  8
0
 10
18.8836
 20
28.3904
 11
17.7694
 21
28.3543
  0
LINE
  8
0
 10
17.7694
 20
28.3543
 11
17.6219
 21
28.3481
  0
LINE
  8
0
 10
17.6219
 20
28.3481
 11
14.6601
 21
28.1423
  0
LINE
  8
0
 10
14.6601
 20
28.1423
 11
13.8117
 21
28.0817
  0
LINE
  8
0
 10
13.8117
 20
28.0817
 11
13.7689
 21
28.0777
  0
LINE
  8
0
 10
13.7689
 20
28.0777
 11
10.5604
 21
27.7026
  0
LINE
  8
0
 10
10.5604
 20
27.7026
 11
8.95287
 21
27.5123
  0
LINE
  8
0
 10
8.95287
 20
27.5123
 11
7.18541
 21
27.2571
  0
LINE
  8
0
 10
7.18541
 20
27.2571
 11
-0.342484
 21
26.0987
  0
LINE
  8
0
 10
-0.342484
 20
26.0987
 11
-1.22874
 21
25.9556
  0
LINE
  8
0
 10
-1.22874
 20
25.9556
 11
-3.57082
 21
25.5608
  0
LINE
  8
0
 10
-3.57082
 20
25.5608
 11
-4.24626
 21
25.4407
  0
LINE
  8
0
 10
-4.24626
 20
25.4407
 11
-11.8283
 21
24.0205
  0
LINE
  8
0
 10
-11.8283
 20
24.0205
 11
-14.0866
 21
23.5816
  0
LINE
  8
0
 10
-14.0866
 20
23.5816
 11
-14.1748
 21
23.5636
  0
LINE
  8
0
 10
-14.1748
 20
23.5636
 11
-18.7855
 21
22.5926
  0
LINE
  8
0
 10
-18.7855
 20
22.5926
 11
-18.7982
 21
22.5898
  0
LINE
  8
0
 10
-18.7982
 20
22.5898
 11
-26.3866
 21
20.8167
  0
LINE
  8
0
 10
-26.3866
 20
20.8167
 11
-30.2284
 21
19.9185
  0
LINE
  8
0
 10
-30.2284
 20
19.9185
 11
-34.4492
 21
18.8353
  0
LINE
  8
0
 10
-34.4492
 20
18.8353
 11
-34.6968
 21
18.7699
  0
LINE
  8
0
 10
-34.6968
 20
18.7699
 11
-39.4364
 21
17.4725
  0
LINE
  8
0
 10
-39.4364
 20
17.4725
 11
-40.272
 21
17.2428
  0
LINE
  8
0
 10
-40.272
 20
17.2428
 11
-42.4808
 21
16.6188
  0
LINE
  8
0
 10
-42.4808
 20
16.6188
 11
-46.1051
 21
15.5611
  0
LINE
  8
0
 10
-46.1051
 20
15.5611
 11
-46.1584
 21
15.5451
  0
LINE
  8
0
 10
-46.1584
 20
15.5451
 11
-51.3125
 21
13.9383
  0
LINE
  8
0
 10
-51.3125
 20
13.9383
 11
-53.6543
 21
13.2067
  0
LINE
  8
0
 10
-53.6543
 20
13.2067
 11
-55.8225
 21
12.4925
  0
LINE
  8
0
 10
-55.8225
 20
12.4925
 11
-56.5305
 21
12.258
  0
LINE
  8
0
 10
-56.5305
 20
12.258
 11
-56.6584
 21
12.2151
  0
LINE
  8
0
 10
-56.6584
 20
12.2151
 11
-63.5109
 21
9.79695
  0
LINE
  8
0
 10
-63.5109
 20
9.79695
 11
-64.6642
 21
9.38785
  0
LINE
  8
0
 10
-64.6642
 20
9.38785
 11
-66.669
 21
8.67099
  0
LINE
  8
0
 10
-66.669
 20
8.67099
 11
-66.8525
 21
8.6021
  0
LINE
  8
0
 10
-66.8525
 20
8.6021
 11
-70.1214
 21
7.35286
  0
LINE
  8
0
 10
-70.1214
 20
7.35286
 11
-70.5072
 21
7.20587
  0
LINE
  8
0
 10
-70.5072
 20
7.20587
 11
-71.1488
 21
6.95709
  0
LINE
  8
0
 10
-71.1488
 20
6.95709
 11
-72.3788
 21
6.47067
  0
LINE
  8
0
 10
-72.3788
 20
6.47067
 11
-73.748
 21
5.91089
  0
LINE
  8
0
 10
-73.748
 20
5.91089
 11
-74.4731
 21
5.61191
  0
LINE
  8
0
 10
-74.4731
 20
5.61191
 11
-80.9144
 21
2.90379
  0
LINE
  8
0
 10
-80.9144
 20
2.90379
 11
-81.3271
 21
2.72443
  0
LINE
  8
0
 10
-81.3271
 20
2.72443
 11
-85.9094
 21
0.624054
  0
LINE
  8
0
 10
-85.9094
 20
0.624054
 11
-87.5599
 21
-0.117783
  0
LINE
  8
0
 10
-87.5599
 20
-0.117783
 11
-83.6303
 21
-1.9063
  0
LINE
  8
0
 10
-83.6303
 20
-1.9063
 11
-82.5145
 21
-2.41995
  0
LINE
  8
0
 10
-82.5145
 20
-2.41995
 11
-82.2843
 21
-2.5224
  0
LINE
  8
0
 10
-82.2843
 20
-2.5224
 11
-75.4129
 21
-5.38953
  0
LINE
  8
0
 10
-75.4129
 20
-5.38953
 11
-73.3439
 21
-6.27402
  0
LINE
  8
0
 10
-73.3439
 20
-6.27402
 11
-73.0636
 21
-6.38635
  0
LINE
  8
0
 10
-73.0636
 20
-6.38635
 11
-72.585
 21
-6.5751
  0
LINE
  8
0
 10
-72.585
 20
-6.5751
 11
-72.056
 21
-6.78642
  0
LINE
  8
0
 10
-72.056
 20
-6.78642
 11
-67.4277
 21
-8.54987
  0
LINE
  8
0
 10
-67.4277
 20
-8.54987
 11
-66.2423
 21
-8.99986
  0
LINE
  8
0
 10
-66.2423
 20
-8.99986
 11
-66.1573
 21
-9.03114
  0
LINE
  8
0
 10
-66.1573
 20
-9.03114
 11
-59.2508
 21
-11.4474
  0
LINE
  8
0
 10
-59.2508
 20
-11.4474
 11
-58.0724
 21
-11.8581
  0
LINE
  8
0
 10
-58.0724
 20
-11.8581
 11
-56.2829
 21
-12.4814
  0
LINE
  8
0
 10
-56.2829
 20
-12.4814
 11
-56.2681
 21
-12.4863
  0
LINE
  8
0
 10
-56.2681
 20
-12.4863
 11
-55.0808
 21
-12.8757
  0
LINE
  8
0
 10
-55.0808
 20
-12.8757
 11
-54.5615
 21
-13.046
  0
LINE
  8
0
 10
-54.5615
 20
-13.046
 11
-48.7282
 21
-14.8567
  0
LINE
  8
0
 10
-48.7282
 20
-14.8567
 11
-46.0631
 21
-15.685
  0
LINE
  8
0
 10
-46.0631
 20
-15.685
 11
-46.0311
 21
-15.6945
  0
LINE
  8
0
 10
-46.0311
 20
-15.6945
 11
-42.4042
 21
-16.7424
  0
LINE
  8
0
 10
-42.4042
 20
-16.7424
 11
-40.2402
 21
-17.3472
  0
LINE
  8
0
 10
-40.2402
 20
-17.3472
 11
-39.4139
 21
-17.572
  0
LINE
  8
0
 10
-39.4139
 20
-17.572
 11
-34.0872
 21
-19.0077
  0
LINE
  8
0
 10
-34.0872
 20
-19.0077
 11
-33.5274
 21
-19.1532
  0
LINE
  8
0
 10
-33.5274
 20
-19.1532
 11
-30.838
 21
-19.8322
  0
LINE
  8
0
 10
-30.838
 20
-19.8322
 11
-28.9343
 21
-20.2956
  0
LINE
  8
0
 10
-28.9343
 20
-20.2956
 11
-28.1093
 21
-20.4923
  0
LINE
  8
0
 10
-28.1093
 20
-20.4923
 11
-20.4896
 21
-22.2509
  0
LINE
  8
0
 10
-20.4896
 20
-22.2509
 11
-19.7758
 21
-22.4093
  0
LINE
  8
0
 10
-19.7758
 20
-22.4093
 11
-16.1244
 21
-23.168
  0
LINE
  8
0
 10
-16.1244
 20
-23.168
 11
-14.1308
 21
-23.5974
  0
LINE
  8
0
 10
-14.1308
 20
-23.5974
 11
-12.0175
 21
-24.0164
  0
LINE
  8
0
 10
-12.0175
 20
-24.0164
 11
-2.48738
 21
-25.7477
  0
LINE
  8
0
 10
-2.48738
 20
-25.7477
 11
9.02704
 21
-27.4877
  0
LINE
  8
0
 10
9.02704
 20
-27.4877
 11
9.67567
 21
-27.5704
  0
LINE
  8
0
 10
9.67567
 20
-27.5704
 11
12.6899
 21
-27.9184
  0
LINE
  8
0
 10
12.6899
 20
-27.9184
 11
13.0732
 21
-27.9595
  0
LINE
  8
0
 10
13.0732
 20
-27.9595
 11
14.283
 21
-28.0686
  0
LINE
  8
0
 10
14.283
 20
-28.0686
 11
14.7063
 21
-28.1002
  0
LINE
  8
0
 10
14.7063
 20
-28.1002
 11
17.6407
 21
-28.2917
  0
LINE
  8
0
 10
17.6407
 20
-28.2917
 11
17.846
 21
-28.3011
  0
LINE
  8
0
 10
17.846
 20
-28.3011
 11
18.8435
 21
-28.3224
  0
LINE
  8
0
 10
18.8435
 20
-28.3224
 11
21.444
 21
-28.3502
  0
ENDSEC
  0
SECTION
  2
OBJECTS
  0
DICTIONARY
  0
ENDSEC
  0
EOF
