  0
SECTION
  2
BLOCKS
  0
ENDSEC
  0
SECTION
  2
ENTITIES
  0
LINE
  8
0
 10
-87.5599
 20
-0.117814
 11
-85.3217
 21
-1.13647
  0
LINE
  8
0
 10
-85.3217
 20
-1.13647
 11
-83.0902
 21
-2.16382
  0
LINE
  8
0
 10
-83.0902
 20
-2.16382
 11
-79.4306
 21
-3.69081
  0
LINE
  8
0
 10
-79.4306
 20
-3.69081
 11
-74.0447
 21
-5.99321
  0
LINE
  8
0
 10
-74.0447
 20
-5.99321
 11
-73.8197
 21
-6.08193
  0
LINE
  8
0
 10
-73.8197
 20
-6.08193
 11
-72.056
 21
-6.78643
  0
LINE
  8
0
 10
-72.056
 20
-6.78643
 11
-69.8967
 21
-7.60914
  0
LINE
  8
0
 10
-69.8967
 20
-7.60914
 11
-65.9448
 21
-9.10935
  0
LINE
  8
0
 10
-65.9448
 20
-9.10935
 11
-62.1967
 21
-10.4206
  0
LINE
  8
0
 10
-62.1967
 20
-10.4206
 11
-56.2309
 21
-12.4986
  0
LINE
  8
0
 10
-56.2309
 20
-12.4986
 11
-55.6001
 21
-12.7055
  0
LINE
  8
0
 10
-55.6001
 20
-12.7055
 11
-54.5616
 21
-13.046
  0
LINE
  8
0
 10
-54.5616
 20
-13.046
 11
-51.4737
 21
-14.0045
  0
LINE
  8
0
 10
-51.4737
 20
-14.0045
 11
-46.1431
 21
-15.6613
  0
LINE
  8
0
 10
-46.1431
 20
-15.6613
 11
-44.5624
 21
-16.118
  0
LINE
  8
0
 10
-44.5624
 20
-16.118
 11
-37.3482
 21
-18.1341
  0
LINE
  8
0
 10
-37.3482
 20
-18.1341
 11
-34.647
 21
-18.8621
  0
LINE
  8
0
 10
-34.647
 20
-18.8621
 11
-33.5274
 21
-19.1532
  0
LINE
  8
0
 10
-33.5274
 20
-19.1532
 11
-32.3931
 21
-19.4396
  0
LINE
  8
0
 10
-32.3931
 20
-19.4396
 11
-26.0467
 21
-20.9842
  0
LINE
  8
0
 10
-26.0467
 20
-20.9842
 11
-22.2742
 21
-21.8549
  0
LINE
  8
0
 10
-22.2742
 20
-21.8549
 11
-20.7701
 21
-22.1674
  0
LINE
  8
0
 10
-20.7701
 20
-22.1674
 11
-14.1237
 21
-23.5988
  0
LINE
  8
0
 10
-14.1237
 20
-23.5988
 11
-13.4455
 21
-23.7333
  0
LINE
  8
0
 10
-13.4455
 20
-23.7333
 11
-12.0176
 21
-24.0164
  0
LINE
  8
0
 10
-12.0176
 20
-24.0164
 11
-8.9799
 21
-24.5682
  0
LINE
  8
0
 10
-8.9799
 20
-24.5682
 11
-2.48634
 21
-25.7478
  0
LINE
  8
0
 10
-2.48634
 20
-25.7478
 11
1.10473
 21
-26.2905
  0
LINE
  8
0
 10
1.10473
 20
-26.2905
 11
9.02705
 21
-27.4877
  0
LINE
  8
0
 10
9.02705
 20
-27.4877
 11
10.3244
 21
-27.6532
  0
LINE
  8
0
 10
10.3244
 20
-27.6532
 11
11.7315
 21
-27.8156
  0
LINE
  8
0
 10
11.7315
 20
-27.8156
 11
15.7647
 21
-28.1794
  0
LINE
  8
0
 10
15.7647
 20
-28.1794
 11
17.1273
 21
-28.2683
  0
LINE
  8
0
 10
17.1273
 20
-28.2683
 11
20.4528
 21
-28.3396
  0
LINE
  8
0
 10
20.4528
 20
-28.3396
 11
21.444
 21
-28.3502
  0
LINE
  8
0
 10
21.444
 20
-28.3502
 11
21.796
 21
-28.3434
  0
LINE
  8
0
 10
21.796
 20
-28.3434
 11
22.1253
 21
-28.3353
  0
LINE
  8
0
 10
22.1253
 20
-28.3353
 11
24.6234
 21
-28.1978
  0
LINE
  8
0
 10
24.6234
 20
-28.1978
 11
25.9077
 21
-28.1046
  0
LINE
  8
0
 10
25.9077
 20
-28.1046
 11
26.1659
 21
-28.0809
  0
LINE
  8
0
 10
26.1659
 20
-28.0809
 11
26.7553
 21
-28.0015
  0
LINE
  8
0
 10
26.7553
 20
-28.0015
 11
28.7666
 21
-27.7498
  0
LINE
  8
0
 10
28.7666
 20
-27.7498
 11
29.1565
 21
-27.6831
  0
LINE
  8
0
 10
29.1565
 20
-27.6831
 11
30.1133
 21
-27.5187
  0
LINE
  8
0
 10
30.1133
 20
-27.5187
 11
31.3861
 21
-27.2176
  0
LINE
  8
0
 10
31.3861
 20
-27.2176
 11
34.2681
 21
-26.5346
  0
LINE
  8
0
 10
34.2681
 20
-26.5346
 11
34.9398
 21
-26.3248
  0
LINE
  8
0
 10
34.9398
 20
-26.3248
 11
36.5221
 21
-25.8313
  0
LINE
  8
0
 10
36.5221
 20
-25.8313
 11
37.1097
 21
-25.6191
  0
LINE
  8
0
 10
37.1097
 20
-25.6191
 11
38.3992
 21
-25.155
  0
LINE
  8
0
 10
38.3992
 20
-25.155
 11
39.6364
 21
-24.6183
  0
LINE
  8
0
 10
39.6364
 20
-24.6183
 11
41.6937
 21
-23.7598
  0
LINE
  8
0
 10
41.6937
 20
-23.7598
 11
42.04
 21
-23.5866
  0
LINE
  8
0
 10
42.04
 20
-23.5866
 11
43.694
 21
-22.7861
  0
LINE
  8
0
 10
43.694
 20
-22.7861
 11
44.2951
 21
-22.4599
  0
LINE
  8
0
 10
44.2951
 20
-22.4599
 11
45.4108
 21
-21.8601
  0
LINE
  8
0
 10
45.4108
 20
-21.8601
 11
46.436
 21
-21.2205
  0
LINE
  8
0
 10
46.436
 20
-21.2205
 11
49.0373
 21
-19.6106
  0
LINE
  8
0
 10
49.0373
 20
-19.6106
 11
49.4008
 21
-19.3551
  0
LINE
  8
0
 10
49.4008
 20
-19.3551
 11
50.1841
 21
-18.8039
  0
LINE
  8
0
 10
50.1841
 20
-18.8039
 11
50.7782
 21
-18.3482
  0
LINE
  8
0
 10
50.7782
 20
-18.3482
 11
52.3783
 21
-17.1057
  0
LINE
  8
0
 10
52.3783
 20
-17.1057
 11
53.2586
 21
-16.3225
  0
LINE
  8
0
 10
53.2586
 20
-16.3225
 11
54.8923
 21
-14.852
  0
LINE
  8
0
 10
54.8923
 20
-14.852
 11
55.0077
 21
-14.7373
  0
LINE
  8
0
 10
55.0077
 20
-14.7373
 11
55.2805
 21
-14.4668
  0
LINE
  8
0
 10
55.2805
 20
-14.4668
 11
55.5692
 21
-14.1651
  0
LINE
  8
0
 10
55.5692
 20
-14.1651
 11
56.9828
 21
-12.6087
  0
LINE
  8
0
 10
56.9828
 20
-12.6087
 11
57.6269
 21
-11.8368
  0
LINE
  8
0
 10
57.6269
 20
-11.8368
 11
57.9354
 21
-11.398
  0
LINE
  8
0
 10
57.9354
 20
-11.398
 11
59.1843
 21
-9.71173
  0
LINE
  8
0
 10
59.1843
 20
-9.71173
 11
59.3143
 21
-9.51082
  0
LINE
  8
0
 10
59.3143
 20
-9.51082
 11
59.5513
 21
-9.12698
  0
LINE
  8
0
 10
59.5513
 20
-9.12698
 11
59.8711
 21
-8.60427
  0
LINE
  8
0
 10
59.8711
 20
-8.60427
 11
59.9397
 21
-8.48302
  0
LINE
  8
0
 10
59.9397
 20
-8.48302
 11
60.296
 21
-7.73661
  0
LINE
  8
0
 10
60.296
 20
-7.73661
 11
61.1612
 21
-6.01672
  0
LINE
  8
0
 10
61.1612
 20
-6.01672
 11
61.2075
 21
-5.89786
  0
LINE
  8
0
 10
61.2075
 20
-5.89786
 11
61.3821
 21
-5.45977
  0
LINE
  8
0
 10
61.3821
 20
-5.45977
 11
61.5877
 21
-4.79635
  0
LINE
  8
0
 10
61.5877
 20
-4.79635
 11
61.9906
 21
-3.51603
  0
LINE
  8
0
 10
61.9906
 20
-3.51603
 11
62.0467
 21
-3.25512
  0
LINE
  8
0
 10
62.0467
 20
-3.25512
 11
62.1911
 21
-2.5937
  0
LINE
  8
0
 10
62.1911
 20
-2.5937
 11
62.254
 21
-2.14565
  0
LINE
  8
0
 10
62.254
 20
-2.14565
 11
62.3795
 21
-1.24362
  0
LINE
  8
0
 10
62.3795
 20
-1.24362
 11
62.3981
 21
-0.922502
  0
LINE
  8
0
 10
62.3981
 20
-0.922502
 11
62.4366
 21
-0.24938
  0
LINE
  8
0
 10
62.4366
 20
-0.24938
 11
62.391
 21
0.507475
  0
LINE
  8
0
 10
62.391
 20
0.507475
 11
62.2918
 21
2.09159
  0
LINE
  8
0
 10
62.2918
 20
2.09159
 11
62.2783
 21
2.1807
  0
LINE
  8
0
 10
62.2783
 20
2.1807
 11
62.203
 21
2.62832
  0
LINE
  8
0
 10
62.203
 20
2.62832
 11
62.162
 21
2.85081
  0
LINE
  8
0
 10
62.162
 20
2.85081
 11
62.1301
 21
3.01105
  0
LINE
  8
0
 10
62.1301
 20
3.01105
 11
61.9745
 21
3.59305
  0
LINE
  8
0
 10
61.9745
 20
3.59305
 11
61.5742
 21
5.02766
  0
LINE
  8
0
 10
61.5742
 20
5.02766
 11
61.2544
 21
5.81356
  0
LINE
  8
0
 10
61.2544
 20
5.81356
 11
60.6692
 21
7.21258
  0
LINE
  8
0
 10
60.6692
 20
7.21258
 11
60.6662
 21
7.21889
  0
LINE
  8
0
 10
60.6662
 20
7.21889
 11
60.5821
 21
7.38898
  0
LINE
  8
0
 10
60.5821
 20
7.38898
 11
60.4902
 21
7.57046
  0
LINE
  8
0
 10
60.4902
 20
7.57046
 11
60.1584
 21
8.19268
  0
LINE
  8
0
 10
60.1584
 20
8.19268
 11
59.6231
 21
9.06457
  0
LINE
  8
0
 10
59.6231
 20
9.06457
 11
58.5255
 21
10.762
  0
LINE
  8
0
 10
58.5255
 20
10.762
 11
58.2531
 21
11.1284
  0
LINE
  8
0
 10
58.2531
 20
11.1284
 11
57.8663
 21
11.6395
  0
LINE
  8
0
 10
57.8663
 20
11.6395
 11
57.4732
 21
12.1105
  0
LINE
  8
0
 10
57.4732
 20
12.1105
 11
56.5323
 21
13.23
  0
LINE
  8
0
 10
56.5323
 20
13.23
 11
56.0503
 21
13.7393
  0
LINE
  8
0
 10
56.0503
 20
13.7393
 11
55.2348
 21
14.601
  0
LINE
  8
0
 10
55.2348
 20
14.601
 11
54.62
 21
15.1704
  0
LINE
  8
0
 10
54.62
 20
15.1704
 11
53.1711
 21
16.5209
  0
LINE
  8
0
 10
53.1711
 20
16.5209
 11
52.7388
 21
16.8877
  0
LINE
  8
0
 10
52.7388
 20
16.8877
 11
52.3929
 21
17.177
  0
LINE
  8
0
 10
52.3929
 20
17.177
 11
50.2969
 21
18.773
  0
LINE
  8
0
 10
50.2969
 20
18.773
 11
49.2385
 21
19.5492
  0
LINE
  8
0
 10
49.2385
 20
19.5492
 11
48.6557
 21
19.9189
  0
LINE
  8
0
 10
48.6557
 20
19.9189
 11
46.7664
 21
21.1456
  0
LINE
  8
0
 10
46.7664
 20
21.1456
 11
46.3697
 21
21.3816
  0
LINE
  8
0
 10
46.3697
 20
21.3816
 11
45.7988
 21
21.7102
  0
LINE
  8
0
 10
45.7988
 20
21.7102
 11
43.6205
 21
22.8879
  0
LINE
  8
0
 10
43.6205
 20
22.8879
 11
43.1152
 21
23.1532
  0
LINE
  8
0
 10
43.1152
 20
23.1532
 11
41.9615
 21
23.6773
  0
LINE
  8
0
 10
41.9615
 20
23.6773
 11
39.4669
 21
24.8042
  0
LINE
  8
0
 10
39.4669
 20
24.8042
 11
39.4354
 21
24.817
  0
LINE
  8
0
 10
39.4354
 20
24.817
 11
39.0996
 21
24.9519
  0
LINE
  8
0
 10
39.0996
 20
24.9519
 11
37.9022
 21
25.3808
  0
LINE
  8
0
 10
37.9022
 20
25.3808
 11
34.986
 21
26.3917
  0
LINE
  8
0
 10
34.986
 20
26.3917
 11
33.9661
 21
26.6697
  0
LINE
  8
0
 10
33.9661
 20
26.6697
 11
32.0292
 21
27.1841
  0
LINE
  8
0
 10
32.0292
 20
27.1841
 11
31.8384
 21
27.2271
  0
LINE
  8
0
 10
31.8384
 20
27.2271
 11
30.8209
 21
27.4466
  0
LINE
  8
0
 10
30.8209
 20
27.4466
 11
29.9928
 21
27.5998
  0
LINE
  8
0
 10
29.9928
 20
27.5998
 11
27.2287
 21
28.0213
  0
LINE
  8
0
 10
27.2287
 20
28.0213
 11
26.1255
 21
28.1469
  0
LINE
  8
0
 10
26.1255
 20
28.1469
 11
25.3046
 21
28.2269
  0
LINE
  8
0
 10
25.3046
 20
28.2269
 11
24.975
 21
28.2537
  0
LINE
  8
0
 10
24.975
 20
28.2537
 11
24.7934
 21
28.2666
  0
LINE
  8
0
 10
24.7934
 20
28.2666
 11
22.9892
 21
28.3619
  0
LINE
  8
0
 10
22.9892
 20
28.3619
 11
21.4722
 21
28.3942
  0
LINE
  8
0
 10
21.4722
 20
28.3942
 11
18.4339
 21
28.3772
  0
LINE
  8
0
 10
18.4339
 20
28.3772
 11
17.917
 21
28.3605
  0
LINE
  8
0
 10
17.917
 20
28.3605
 11
17.6219
 21
28.3481
  0
LINE
  8
0
 10
17.6219
 20
28.3481
 11
16.4902
 21
28.2695
  0
LINE
  8
0
 10
16.4902
 20
28.2695
 11
13.6618
 21
28.0676
  0
LINE
  8
0
 10
13.6618
 20
28.0676
 11
12.1682
 21
27.893
  0
LINE
  8
0
 10
12.1682
 20
27.893
 11
8.95287
 21
27.5123
  0
LINE
  8
0
 10
8.95287
 20
27.5123
 11
5.41776
 21
27.0018
  0
LINE
  8
0
 10
5.41776
 20
27.0018
 11
1.87315
 21
26.4564
  0
LINE
  8
0
 10
1.87315
 20
26.4564
 11
-5.93487
 21
25.1404
  0
LINE
  8
0
 10
-5.93487
 20
25.1404
 11
-9.56977
 21
24.4595
  0
LINE
  8
0
 10
-9.56977
 20
24.4595
 11
-14.0866
 21
23.5815
  0
LINE
  8
0
 10
-14.0866
 20
23.5815
 11
-14.1221
 21
23.5743
  0
LINE
  8
0
 10
-14.1221
 20
23.5743
 11
-17.3482
 21
22.8949
  0
LINE
  8
0
 10
-17.3482
 20
22.8949
 11
-18.8302
 21
22.5828
  0
LINE
  8
0
 10
-18.8302
 20
22.5828
 11
-22.5473
 21
21.7143
  0
LINE
  8
0
 10
-22.5473
 20
21.7143
 11
-30.2315
 21
19.9178
  0
LINE
  8
0
 10
-30.2315
 20
19.9178
 11
-31.6454
 21
19.5549
  0
LINE
  8
0
 10
-31.6454
 20
19.5549
 11
-34.4492
 21
18.8353
  0
LINE
  8
0
 10
-34.4492
 20
18.8353
 11
-34.9444
 21
18.7045
  0
LINE
  8
0
 10
-34.9444
 20
18.7045
 11
-37.3475
 21
18.0468
  0
LINE
  8
0
 10
-37.3475
 20
18.0468
 11
-44.7112
 21
15.9664
  0
LINE
  8
0
 10
-44.7112
 20
15.9664
 11
-46.2915
 21
15.5052
  0
LINE
  8
0
 10
-46.2915
 20
15.5052
 11
-48.9704
 21
14.67
  0
LINE
  8
0
 10
-48.9704
 20
14.67
 11
-53.6543
 21
13.2067
  0
LINE
  8
0
 10
-53.6543
 20
13.2067
 11
-54.6178
 21
12.8893
  0
LINE
  8
0
 10
-54.6178
 20
12.8893
 11
-56.9781
 21
12.1076
  0
LINE
  8
0
 10
-56.9781
 20
12.1076
 11
-60.6279
 21
10.8197
  0
LINE
  8
0
 10
-60.6279
 20
10.8197
 11
-67.3114
 21
8.42988
  0
LINE
  8
0
 10
-67.3114
 20
8.42988
 11
-69.0939
 21
7.74868
  0
LINE
  8
0
 10
-69.0939
 20
7.74868
 11
-69.8656
 21
7.4547
  0
LINE
  8
0
 10
-69.8656
 20
7.4547
 11
-71.1488
 21
6.9571
  0
LINE
  8
0
 10
-71.1488
 20
6.9571
 11
-71.7213
 21
6.73072
  0
LINE
  8
0
 10
-71.7213
 20
6.73072
 11
-76.2858
 21
4.86449
  0
LINE
  8
0
 10
-76.2858
 20
4.86449
 11
-79.8828
 21
3.35221
  0
LINE
  8
0
 10
-79.8828
 20
3.35221
 11
-82.0576
 21
2.35537
  0
LINE
  8
0
 10
-82.0576
 20
2.35537
 11
-87.5599
 21
-0.117814
  0
ENDSEC
  0
SECTION
  2
OBJECTS
  0
DICTIONARY
  0
ENDSEC
  0
EOF
