  0
SECTION
  2
BLOCKS
  0
ENDSEC
  0
SECTION
  2
ENTITIES
  0
LINE
  8
0
 10
21.5496
 20
-28.3481
 11
22.4136
 21
-28.3271
  0
LINE
  8
0
 10
22.4136
 20
-28.3271
 11
22.496
 21
-28.3248
  0
LINE
  8
0
 10
22.496
 20
-28.3248
 11
22.7457
 21
-28.311
  0
LINE
  8
0
 10
22.7457
 20
-28.311
 11
23.163
 21
-28.2859
  0
LINE
  8
0
 10
23.163
 20
-28.2859
 11
26.5373
 21
-28.041
  0
LINE
  8
0
 10
26.5373
 20
-28.041
 11
26.6148
 21
-28.0339
  0
LINE
  8
0
 10
26.6148
 20
-28.0339
 11
26.743
 21
-28.0205
  0
LINE
  8
0
 10
26.743
 20
-28.0205
 11
28.5656
 21
-27.7749
  0
LINE
  8
0
 10
28.5656
 20
-27.7749
 11
28.7666
 21
-27.7498
  0
LINE
  8
0
 10
28.7666
 20
-27.7498
 11
29.9725
 21
-27.5436
  0
LINE
  8
0
 10
29.9725
 20
-27.5436
 11
30.0681
 21
-27.5272
  0
LINE
  8
0
 10
30.0681
 20
-27.5272
 11
30.0782
 21
-27.5253
  0
LINE
  8
0
 10
30.0782
 20
-27.5253
 11
33.4219
 21
-26.7342
  0
LINE
  8
0
 10
33.4219
 20
-26.7342
 11
34.2864
 21
-26.5293
  0
LINE
  8
0
 10
34.2864
 20
-26.5293
 11
34.2916
 21
-26.5278
  0
LINE
  8
0
 10
34.2916
 20
-26.5278
 11
36.3462
 21
-25.8862
  0
LINE
  8
0
 10
36.3462
 20
-25.8862
 11
36.5221
 21
-25.8313
  0
LINE
  8
0
 10
36.5221
 20
-25.8313
 11
38.0627
 21
-25.275
  0
LINE
  8
0
 10
38.0627
 20
-25.275
 11
38.447
 21
-25.1367
  0
LINE
  8
0
 10
38.447
 20
-25.1367
 11
38.4607
 21
-25.1315
  0
LINE
  8
0
 10
38.4607
 20
-25.1315
 11
41.7228
 21
-23.7164
  0
LINE
  8
0
 10
41.7228
 20
-23.7164
 11
42.2965
 21
-23.4771
  0
LINE
  8
0
 10
42.2965
 20
-23.4771
 11
42.4687
 21
-23.3963
  0
LINE
  8
0
 10
42.4687
 20
-23.3963
 11
43.5287
 21
-22.8661
  0
LINE
  8
0
 10
43.5287
 20
-22.8661
 11
43.694
 21
-22.7861
  0
LINE
  8
0
 10
43.694
 20
-22.7861
 11
45.2524
 21
-21.9402
  0
LINE
  8
0
 10
45.2524
 20
-21.9402
 11
45.5871
 21
-21.7603
  0
LINE
  8
0
 10
45.5871
 20
-21.7603
 11
45.6374
 21
-21.7318
  0
LINE
  8
0
 10
45.6374
 20
-21.7318
 11
48.7517
 21
-19.7889
  0
LINE
  8
0
 10
48.7517
 20
-19.7889
 11
49.0117
 21
-19.628
  0
LINE
  8
0
 10
49.0117
 20
-19.628
 11
49.0174
 21
-19.6241
  0
LINE
  8
0
 10
49.0174
 20
-19.6241
 11
49.9491
 21
-18.9692
  0
LINE
  8
0
 10
49.9491
 20
-18.9692
 11
50.1841
 21
-18.8039
  0
LINE
  8
0
 10
50.1841
 20
-18.8039
 11
51.9666
 21
-17.4365
  0
LINE
  8
0
 10
51.9666
 20
-17.4365
 11
52.1265
 21
-17.3123
  0
LINE
  8
0
 10
52.1265
 20
-17.3123
 11
52.1825
 21
-17.2664
  0
LINE
  8
0
 10
52.1825
 20
-17.2664
 11
54.4176
 21
-15.278
  0
LINE
  8
0
 10
54.4176
 20
-15.278
 11
54.9077
 21
-14.8369
  0
LINE
  8
0
 10
54.9077
 20
-14.8369
 11
54.9121
 21
-14.8326
  0
LINE
  8
0
 10
54.9121
 20
-14.8326
 11
55.2532
 21
-14.4938
  0
LINE
  8
0
 10
55.2532
 20
-14.4938
 11
55.2805
 21
-14.4668
  0
LINE
  8
0
 10
55.2805
 20
-14.4668
 11
56.132
 21
-13.5769
  0
LINE
  8
0
 10
56.132
 20
-13.5769
 11
56.2733
 21
-13.4214
  0
LINE
  8
0
 10
56.2733
 20
-13.4214
 11
56.431
 21
-13.2408
  0
LINE
  8
0
 10
56.431
 20
-13.2408
 11
58.0393
 21
-11.3132
  0
LINE
  8
0
 10
58.0393
 20
-11.3132
 11
58.1571
 21
-11.1635
  0
LINE
  8
0
 10
58.1571
 20
-11.1635
 11
59.0593
 21
-9.88055
  0
LINE
  8
0
 10
59.0593
 20
-9.88055
 11
59.1843
 21
-9.71173
  0
LINE
  8
0
 10
59.1843
 20
-9.71173
 11
59.2233
 21
-9.65146
  0
LINE
  8
0
 10
59.2233
 20
-9.65146
 11
59.8102
 21
-8.70076
  0
LINE
  8
0
 10
59.8102
 20
-8.70076
 11
59.9062
 21
-8.54398
  0
LINE
  8
0
 10
59.9062
 20
-8.54398
 11
59.9162
 21
-8.52675
  0
LINE
  8
0
 10
59.9162
 20
-8.52675
 11
60.1146
 21
-8.17603
  0
LINE
  8
0
 10
60.1146
 20
-8.17603
 11
61.0798
 21
-6.1539
  0
LINE
  8
0
 10
61.0798
 20
-6.1539
 11
61.2159
 21
-5.88332
  0
LINE
  8
0
 10
61.2159
 20
-5.88332
 11
61.2316
 21
-5.8452
  0
LINE
  8
0
 10
61.2316
 20
-5.8452
 11
61.3646
 21
-5.50354
  0
LINE
  8
0
 10
61.3646
 20
-5.50354
 11
61.3821
 21
-5.45976
  0
LINE
  8
0
 10
61.3821
 20
-5.45976
 11
61.8877
 21
-3.82816
  0
LINE
  8
0
 10
61.8877
 20
-3.82816
 11
62.0076
 21
-3.44707
  0
LINE
  8
0
 10
62.0076
 20
-3.44707
 11
62.0125
 21
-3.42735
  0
LINE
  8
0
 10
62.0125
 20
-3.42735
 11
62.1728
 21
-2.68066
  0
LINE
  8
0
 10
62.1728
 20
-2.68066
 11
62.1872
 21
-2.61455
  0
LINE
  8
0
 10
62.1872
 20
-2.61455
 11
62.1881
 21
-2.60992
  0
LINE
  8
0
 10
62.1881
 20
-2.60992
 11
62.3418
 21
-1.51418
  0
LINE
  8
0
 10
62.3418
 20
-1.51418
 11
62.3795
 21
-1.24361
  0
LINE
  8
0
 10
62.3795
 20
-1.24361
 11
62.4325
 21
-0.326553
  0
LINE
  8
0
 10
62.4325
 20
-0.326553
 11
62.4363
 21
-0.259277
  0
LINE
  8
0
 10
62.4363
 20
-0.259277
 11
62.4364
 21
-0.25708
  0
LINE
  8
0
 10
62.4364
 20
-0.25708
 11
62.3251
 21
1.59163
  0
LINE
  8
0
 10
62.3251
 20
1.59163
 11
62.3063
 21
1.90138
  0
LINE
  8
0
 10
62.3063
 20
1.90138
 11
62.2964
 21
2.05971
  0
LINE
  8
0
 10
62.2964
 20
2.05971
 11
62.2954
 21
2.06679
  0
LINE
  8
0
 10
62.2954
 20
2.06679
 11
62.2624
 21
2.28459
  0
LINE
  8
0
 10
62.2624
 20
2.28459
 11
62.2579
 21
2.31429
  0
LINE
  8
0
 10
62.2579
 20
2.31429
 11
62.2503
 21
2.35902
  0
LINE
  8
0
 10
62.2503
 20
2.35902
 11
62.2398
 21
2.41885
  0
LINE
  8
0
 10
62.2398
 20
2.41885
 11
62.1397
 21
2.96298
  0
LINE
  8
0
 10
62.1397
 20
2.96298
 11
62.1301
 21
3.01105
  0
LINE
  8
0
 10
62.1301
 20
3.01105
 11
61.685
 21
4.67523
  0
LINE
  8
0
 10
61.685
 20
4.67523
 11
61.645
 21
4.81862
  0
LINE
  8
0
 10
61.645
 20
4.81862
 11
61.6293
 21
4.86507
  0
LINE
  8
0
 10
61.6293
 20
4.86507
 11
60.8447
 21
6.79292
  0
LINE
  8
0
 10
60.8447
 20
6.79292
 11
60.6692
 21
7.21257
  0
LINE
  8
0
 10
60.6692
 20
7.21257
 11
60.6604
 21
7.23074
  0
LINE
  8
0
 10
60.6604
 20
7.23074
 11
60.6365
 21
7.27913
  0
LINE
  8
0
 10
60.6365
 20
7.27913
 11
60.4101
 21
7.7263
  0
LINE
  8
0
 10
60.4101
 20
7.7263
 11
60.3872
 21
7.77083
  0
LINE
  8
0
 10
60.3872
 20
7.77083
 11
60.3541
 21
7.83302
  0
LINE
  8
0
 10
60.3541
 20
7.83302
 11
60.3106
 21
7.91295
  0
LINE
  8
0
 10
60.3106
 20
7.91295
 11
58.9887
 21
10.066
  0
LINE
  8
0
 10
58.9887
 20
10.066
 11
58.8075
 21
10.3521
  0
LINE
  8
0
 10
58.8075
 20
10.3521
 11
58.6978
 21
10.5218
  0
LINE
  8
0
 10
58.6978
 20
10.5218
 11
58.6595
 21
10.5751
  0
LINE
  8
0
 10
58.6595
 20
10.5751
 11
57.9823
 21
11.4862
  0
LINE
  8
0
 10
57.9823
 20
11.4862
 11
57.8663
 21
11.6395
  0
LINE
  8
0
 10
57.8663
 20
11.6395
 11
56.7193
 21
13.0141
  0
LINE
  8
0
 10
56.7193
 20
13.0141
 11
56.6253
 21
13.1259
  0
LINE
  8
0
 10
56.6253
 20
13.1259
 11
56.6046
 21
13.1491
  0
LINE
  8
0
 10
56.6046
 20
13.1491
 11
55.3971
 21
14.4248
  0
LINE
  8
0
 10
55.3971
 20
14.4248
 11
55.1525
 21
14.6832
  0
LINE
  8
0
 10
55.1525
 20
14.6832
 11
55.129
 21
14.7067
  0
LINE
  8
0
 10
55.129
 20
14.7067
 11
53.3159
 21
16.3859
  0
LINE
  8
0
 10
53.3159
 20
16.3859
 11
53.1711
 21
16.5209
  0
LINE
  8
0
 10
53.1711
 20
16.5209
 11
53.0414
 21
16.6309
  0
LINE
  8
0
 10
53.0414
 20
16.6309
 11
52.1633
 21
17.3652
  0
LINE
  8
0
 10
52.1633
 20
17.3652
 11
52.0978
 21
17.419
  0
LINE
  8
0
 10
52.0978
 20
17.419
 11
51.8883
 21
17.5785
  0
LINE
  8
0
 10
51.8883
 20
17.5785
 11
51.5346
 21
17.844
  0
LINE
  8
0
 10
51.5346
 20
17.844
 11
48.825
 21
19.8312
  0
LINE
  8
0
 10
48.825
 20
19.8312
 11
48.7069
 21
19.9117
  0
LINE
  8
0
 10
48.7069
 20
19.9117
 11
46.9552
 21
21.023
  0
LINE
  8
0
 10
46.9552
 20
21.023
 11
46.7664
 21
21.1456
  0
LINE
  8
0
 10
46.7664
 20
21.1456
 11
46.6474
 21
21.2164
  0
LINE
  8
0
 10
46.6474
 20
21.2164
 11
45.1744
 21
22.0641
  0
LINE
  8
0
 10
45.1744
 20
22.0641
 11
44.996
 21
22.1652
  0
LINE
  8
0
 10
44.996
 20
22.1652
 11
44.7783
 21
22.2829
  0
LINE
  8
0
 10
44.7783
 20
22.2829
 11
43.2364
 21
23.0926
  0
LINE
  8
0
 10
43.2364
 20
23.0926
 11
43.2095
 21
23.1061
  0
LINE
  8
0
 10
43.2095
 20
23.1061
 11
40.2152
 21
24.4662
  0
LINE
  8
0
 10
40.2152
 20
24.4662
 11
39.4669
 21
24.8042
  0
LINE
  8
0
 10
39.4669
 20
24.8042
 11
39.3701
 21
24.8435
  0
LINE
  8
0
 10
39.3701
 20
24.8435
 11
39.3366
 21
24.8569
  0
LINE
  8
0
 10
39.3366
 20
24.8569
 11
39.2839
 21
24.878
  0
LINE
  8
0
 10
39.2839
 20
24.878
 11
36.158
 21
25.9978
  0
LINE
  8
0
 10
36.158
 20
25.9978
 11
35.6596
 21
26.1741
  0
LINE
  8
0
 10
35.6596
 20
26.1741
 11
35.3681
 21
26.2751
  0
LINE
  8
0
 10
35.3681
 20
26.2751
 11
35.2832
 21
26.301
  0
LINE
  8
0
 10
35.2832
 20
26.301
 11
32.6102
 21
27.0298
  0
LINE
  8
0
 10
32.6102
 20
27.0298
 11
32.0292
 21
27.1841
  0
LINE
  8
0
 10
32.0292
 20
27.1841
 11
31.4397
 21
27.317
  0
LINE
  8
0
 10
31.4397
 20
27.317
 11
31.338
 21
27.3389
  0
LINE
  8
0
 10
31.338
 20
27.3389
 11
31.2231
 21
27.3629
  0
LINE
  8
0
 10
31.2231
 20
27.3629
 11
29.048
 21
27.7654
  0
LINE
  8
0
 10
29.048
 20
27.7654
 11
28.7781
 21
27.8127
  0
LINE
  8
0
 10
28.7781
 20
27.8127
 11
28.5018
 21
27.8548
  0
LINE
  8
0
 10
28.5018
 20
27.8548
 11
28.2189
 21
27.8918
  0
LINE
  8
0
 10
28.2189
 20
27.8918
 11
25.3201
 21
28.2216
  0
LINE
  8
0
 10
25.3201
 20
28.2216
 11
25.0739
 21
28.2457
  0
LINE
  8
0
 10
25.0739
 20
28.2457
 11
24.975
 21
28.2537
  0
LINE
  8
0
 10
24.975
 20
28.2537
 11
24.4134
 21
28.2936
  0
LINE
  8
0
 10
24.4134
 20
28.2936
 11
24.2331
 21
28.3031
  0
LINE
  8
0
 10
24.2331
 20
28.3031
 11
23.9566
 21
28.3162
  0
LINE
  8
0
 10
23.9566
 20
28.3162
 11
19.9749
 21
28.4008
  0
LINE
  8
0
 10
19.9749
 20
28.4008
 11
19.5471
 21
28.4026
  0
LINE
  8
0
 10
19.5471
 20
28.4026
 11
19.2434
 21
28.401
  0
LINE
  8
0
 10
19.2434
 20
28.401
 11
19.0635
 21
28.3957
  0
LINE
  8
0
 10
19.0635
 20
28.3957
 11
17.7104
 21
28.3518
  0
LINE
  8
0
 10
17.7104
 20
28.3518
 11
17.6219
 21
28.3481
  0
LINE
  8
0
 10
17.6219
 20
28.3481
 11
14.1372
 21
28.1059
  0
LINE
  8
0
 10
14.1372
 20
28.1059
 11
13.8545
 21
28.0858
  0
LINE
  8
0
 10
13.8545
 20
28.0858
 11
13.8117
 21
28.0817
  0
LINE
  8
0
 10
13.8117
 20
28.0817
 11
9.91731
 21
27.6265
  0
LINE
  8
0
 10
9.91731
 20
27.6265
 11
8.95287
 21
27.5123
  0
LINE
  8
0
 10
8.95287
 20
27.5123
 11
7.89247
 21
27.3592
  0
LINE
  8
0
 10
7.89247
 20
27.3592
 11
-1.22874
 21
25.9556
  0
LINE
  8
0
 10
-1.22874
 20
25.9556
 11
-2.11501
 21
25.8125
  0
LINE
  8
0
 10
-2.11501
 20
25.8125
 11
-2.89539
 21
25.681
  0
LINE
  8
0
 10
-2.89539
 20
25.681
 11
-3.57082
 21
25.5608
  0
LINE
  8
0
 10
-3.57082
 20
25.5608
 11
-12.7317
 21
23.8449
  0
LINE
  8
0
 10
-12.7317
 20
23.8449
 11
-14.0866
 21
23.5816
  0
LINE
  8
0
 10
-14.0866
 20
23.5816
 11
-14.1899
 21
23.5605
  0
LINE
  8
0
 10
-14.1899
 20
23.5605
 11
-18.7727
 21
22.5954
  0
LINE
  8
0
 10
-18.7727
 20
22.5954
 11
-18.7855
 21
22.5926
  0
LINE
  8
0
 10
-18.7855
 20
22.5926
 11
-27.9223
 21
20.4577
  0
LINE
  8
0
 10
-27.9223
 20
20.4577
 11
-30.226
 21
19.9191
  0
LINE
  8
0
 10
-30.226
 20
19.9191
 11
-34.4492
 21
18.8353
  0
LINE
  8
0
 10
-34.4492
 20
18.8353
 11
-34.5977
 21
18.7961
  0
LINE
  8
0
 10
-34.5977
 20
18.7961
 11
-40.272
 21
17.2428
  0
LINE
  8
0
 10
-40.272
 20
17.2428
 11
-41.1076
 21
17.0132
  0
LINE
  8
0
 10
-41.1076
 20
17.0132
 11
-41.8435
 21
16.8052
  0
LINE
  8
0
 10
-41.8435
 20
16.8052
 11
-46.0519
 21
15.577
  0
LINE
  8
0
 10
-46.0519
 20
15.577
 11
-46.1051
 21
15.5611
  0
LINE
  8
0
 10
-46.1051
 20
15.5611
 11
-52.2493
 21
13.6456
  0
LINE
  8
0
 10
-52.2493
 20
13.6456
 11
-53.6543
 21
13.2067
  0
LINE
  8
0
 10
-53.6543
 20
13.2067
 11
-56.1667
 21
12.3792
  0
LINE
  8
0
 10
-56.1667
 20
12.3792
 11
-56.4026
 21
12.301
  0
LINE
  8
0
 10
-56.4026
 20
12.301
 11
-56.5305
 21
12.258
  0
LINE
  8
0
 10
-56.5305
 20
12.258
 11
-64.6642
 21
9.38785
  0
LINE
  8
0
 10
-64.6642
 20
9.38785
 11
-65.8174
 21
8.97874
  0
LINE
  8
0
 10
-65.8174
 20
8.97874
 11
-66.4854
 21
8.73988
  0
LINE
  8
0
 10
-66.4854
 20
8.73988
 11
-66.669
 21
8.67099
  0
LINE
  8
0
 10
-66.669
 20
8.67099
 11
-70.5324
 21
7.19453
  0
LINE
  8
0
 10
-70.5324
 20
7.19453
 11
-70.7639
 21
7.10635
  0
LINE
  8
0
 10
-70.7639
 20
7.10635
 11
-71.1488
 21
6.95709
  0
LINE
  8
0
 10
-71.1488
 20
6.95709
 11
-72.5667
 21
6.39638
  0
LINE
  8
0
 10
-72.5667
 20
6.39638
 11
-73.0229
 21
6.20985
  0
LINE
  8
0
 10
-73.0229
 20
6.20985
 11
-73.748
 21
5.91089
  0
LINE
  8
0
 10
-73.748
 20
5.91089
 11
-81.3271
 21
2.72443
  0
LINE
  8
0
 10
-81.3271
 20
2.72443
 11
-81.7397
 21
2.54506
  0
LINE
  8
0
 10
-81.7397
 20
2.54506
 11
-87.01
 21
0.129395
  0
LINE
  8
0
 10
-87.01
 20
0.129395
 11
-87.5599
 21
-0.117783
  0
LINE
  8
0
 10
-87.5599
 20
-0.117783
 11
-82.9537
 21
-2.21423
  0
LINE
  8
0
 10
-82.9537
 20
-2.21423
 11
-82.2843
 21
-2.5224
  0
LINE
  8
0
 10
-82.2843
 20
-2.5224
 11
-82.054
 21
-2.62486
  0
LINE
  8
0
 10
-82.054
 20
-2.62486
 11
-74.0544
 21
-5.96277
  0
LINE
  8
0
 10
-74.0544
 20
-5.96277
 11
-73.0636
 21
-6.38635
  0
LINE
  8
0
 10
-73.0636
 20
-6.38635
 11
-72.7833
 21
-6.49869
  0
LINE
  8
0
 10
-72.7833
 20
-6.49869
 11
-72.2343
 21
-6.71521
  0
LINE
  8
0
 10
-72.2343
 20
-6.71521
 11
-72.056
 21
-6.78642
  0
LINE
  8
0
 10
-72.056
 20
-6.78642
 11
-66.7223
 21
-8.81865
  0
LINE
  8
0
 10
-66.7223
 20
-8.81865
 11
-66.3273
 21
-8.96858
  0
LINE
  8
0
 10
-66.3273
 20
-8.96858
 11
-66.2423
 21
-8.99986
  0
LINE
  8
0
 10
-66.2423
 20
-8.99986
 11
-58.0724
 21
-11.8581
  0
LINE
  8
0
 10
-58.0724
 20
-11.8581
 11
-56.894
 21
-12.2688
  0
LINE
  8
0
 10
-56.894
 20
-12.2688
 11
-56.2978
 21
-12.4765
  0
LINE
  8
0
 10
-56.2978
 20
-12.4765
 11
-56.2829
 21
-12.4814
  0
LINE
  8
0
 10
-56.2829
 20
-12.4814
 11
-54.873
 21
-12.9438
  0
LINE
  8
0
 10
-54.873
 20
-12.9438
 11
-54.5615
 21
-13.046
  0
LINE
  8
0
 10
-54.5615
 20
-13.046
 11
-47.6301
 21
-15.1976
  0
LINE
  8
0
 10
-47.6301
 20
-15.1976
 11
-46.0311
 21
-15.6945
  0
LINE
  8
0
 10
-46.0311
 20
-15.6945
 11
-45.9991
 21
-15.704
  0
LINE
  8
0
 10
-45.9991
 20
-15.704
 11
-41.7875
 21
-16.9208
  0
LINE
  8
0
 10
-41.7875
 20
-16.9208
 11
-41.0665
 21
-17.1223
  0
LINE
  8
0
 10
-41.0665
 20
-17.1223
 11
-40.2402
 21
-17.3472
  0
LINE
  8
0
 10
-40.2402
 20
-17.3472
 11
-33.8632
 21
-19.0659
  0
LINE
  8
0
 10
-33.8632
 20
-19.0659
 11
-33.5274
 21
-19.1532
  0
LINE
  8
0
 10
-33.5274
 20
-19.1532
 11
-30.3936
 21
-19.9444
  0
LINE
  8
0
 10
-30.3936
 20
-19.9444
 11
-29.7593
 21
-20.0988
  0
LINE
  8
0
 10
-29.7593
 20
-20.0988
 11
-28.9343
 21
-20.2956
  0
LINE
  8
0
 10
-28.9343
 20
-20.2956
 11
-19.7758
 21
-22.4093
  0
LINE
  8
0
 10
-19.7758
 20
-22.4093
 11
-19.062
 21
-22.5677
  0
LINE
  8
0
 10
-19.062
 20
-22.5677
 11
-14.7971
 21
-23.4539
  0
LINE
  8
0
 10
-14.7971
 20
-23.4539
 11
-14.1308
 21
-23.5974
  0
LINE
  8
0
 10
-14.1308
 20
-23.5974
 11
-12.0175
 21
-24.0164
  0
LINE
  8
0
 10
-12.0175
 20
-24.0164
 11
-2.48822
 21
-25.7475
  0
LINE
  8
0
 10
-2.48822
 20
-25.7475
 11
9.02704
 21
-27.4877
  0
LINE
  8
0
 10
9.02704
 20
-27.4877
 11
9.4162
 21
-27.5373
  0
LINE
  8
0
 10
9.4162
 20
-27.5373
 11
13.0732
 21
-27.9595
  0
LINE
  8
0
 10
13.0732
 20
-27.9595
 11
13.4565
 21
-28.0006
  0
LINE
  8
0
 10
13.4565
 20
-28.0006
 11
13.8596
 21
-28.0369
  0
LINE
  8
0
 10
13.8596
 20
-28.0369
 11
14.283
 21
-28.0686
  0
LINE
  8
0
 10
14.283
 20
-28.0686
 11
17.846
 21
-28.3011
  0
LINE
  8
0
 10
17.846
 20
-28.3011
 11
18.0514
 21
-28.3104
  0
LINE
  8
0
 10
18.0514
 20
-28.3104
 11
18.3837
 21
-28.3176
  0
LINE
  8
0
 10
18.3837
 20
-28.3176
 11
21.444
 21
-28.3502
  0
LINE
  8
0
 10
21.444
 20
-28.3502
 11
21.5496
 21
-28.3481
  0
ENDSEC
  0
SECTION
  2
OBJECTS
  0
DICTIONARY
  0
ENDSEC
  0
EOF
