  0
SECTION
  2
BLOCKS
  0
ENDSEC
  0
SECTION
  2
ENTITIES
  0
LINE
  8
0
 10
21.444
 20
-28.3502
 11
21.796
 21
-28.3433
  0
LINE
  8
0
 10
21.796
 20
-28.3433
 11
22.1252
 21
-28.3353
  0
LINE
  8
0
 10
22.1252
 20
-28.3353
 11
22.1664
 21
-28.3342
  0
LINE
  8
0
 10
22.1664
 20
-28.3342
 11
24.4147
 21
-28.2104
  0
LINE
  8
0
 10
24.4147
 20
-28.2104
 11
24.6234
 21
-28.1978
  0
LINE
  8
0
 10
24.6234
 20
-28.1978
 11
25.9077
 21
-28.1046
  0
LINE
  8
0
 10
25.9077
 20
-28.1046
 11
26.1659
 21
-28.0809
  0
LINE
  8
0
 10
26.1659
 20
-28.0809
 11
26.23
 21
-28.0742
  0
LINE
  8
0
 10
26.23
 20
-28.0742
 11
26.9564
 21
-27.9763
  0
LINE
  8
0
 10
26.9564
 20
-27.9763
 11
28.7666
 21
-27.7498
  0
LINE
  8
0
 10
28.7666
 20
-27.7498
 11
29.2472
 21
-27.6676
  0
LINE
  8
0
 10
29.2472
 20
-27.6676
 11
30.1083
 21
-27.5197
  0
LINE
  8
0
 10
30.1083
 20
-27.5197
 11
30.1133
 21
-27.5187
  0
LINE
  8
0
 10
30.1133
 20
-27.5187
 11
31.3861
 21
-27.2176
  0
LINE
  8
0
 10
31.3861
 20
-27.2176
 11
34.2681
 21
-26.5346
  0
LINE
  8
0
 10
34.2681
 20
-26.5346
 11
34.2707
 21
-26.5338
  0
LINE
  8
0
 10
34.2707
 20
-26.5338
 11
35.098
 21
-26.2755
  0
LINE
  8
0
 10
35.098
 20
-26.2755
 11
36.5221
 21
-25.8313
  0
LINE
  8
0
 10
36.5221
 20
-25.8313
 11
37.1097
 21
-25.6191
  0
LINE
  8
0
 10
37.1097
 20
-25.6191
 11
38.3992
 21
-25.155
  0
LINE
  8
0
 10
38.3992
 20
-25.155
 11
38.4061
 21
-25.1524
  0
LINE
  8
0
 10
38.4061
 20
-25.1524
 11
39.6577
 21
-24.6094
  0
LINE
  8
0
 10
39.6577
 20
-24.6094
 11
41.6937
 21
-23.7598
  0
LINE
  8
0
 10
41.6937
 20
-23.7598
 11
41.7798
 21
-23.7194
  0
LINE
  8
0
 10
41.7798
 20
-23.7194
 11
42.2052
 21
-23.5066
  0
LINE
  8
0
 10
42.2052
 20
-23.5066
 11
43.694
 21
-22.7861
  0
LINE
  8
0
 10
43.694
 20
-22.7861
 11
44.295
 21
-22.4599
  0
LINE
  8
0
 10
44.295
 20
-22.4599
 11
45.4108
 21
-21.8601
  0
LINE
  8
0
 10
45.4108
 20
-21.8601
 11
45.436
 21
-21.8458
  0
LINE
  8
0
 10
45.436
 20
-21.8458
 11
46.6933
 21
-21.0614
  0
LINE
  8
0
 10
46.6933
 20
-21.0614
 11
49.0344
 21
-19.6125
  0
LINE
  8
0
 10
49.0344
 20
-19.6125
 11
49.0373
 21
-19.6105
  0
LINE
  8
0
 10
49.0373
 20
-19.6105
 11
49.4008
 21
-19.3551
  0
LINE
  8
0
 10
49.4008
 20
-19.3551
 11
50.1841
 21
-18.8039
  0
LINE
  8
0
 10
50.1841
 20
-18.8039
 11
50.9102
 21
-18.2469
  0
LINE
  8
0
 10
50.9102
 20
-18.2469
 11
52.3503
 21
-17.1286
  0
LINE
  8
0
 10
52.3503
 20
-17.1286
 11
52.3783
 21
-17.1057
  0
LINE
  8
0
 10
52.3783
 20
-17.1057
 11
53.2586
 21
-16.3225
  0
LINE
  8
0
 10
53.2586
 20
-16.3225
 11
54.8922
 21
-14.852
  0
LINE
  8
0
 10
54.8922
 20
-14.852
 11
54.8945
 21
-14.8498
  0
LINE
  8
0
 10
54.8945
 20
-14.8498
 11
55.035
 21
-14.7102
  0
LINE
  8
0
 10
55.035
 20
-14.7102
 11
55.2805
 21
-14.4668
  0
LINE
  8
0
 10
55.2805
 20
-14.4668
 11
55.6317
 21
-14.0997
  0
LINE
  8
0
 10
55.6317
 20
-14.0997
 11
56.904
 21
-12.699
  0
LINE
  8
0
 10
56.904
 20
-12.699
 11
56.9828
 21
-12.6087
  0
LINE
  8
0
 10
56.9828
 20
-12.6087
 11
57.6269
 21
-11.8368
  0
LINE
  8
0
 10
57.6269
 20
-11.8368
 11
57.6858
 21
-11.762
  0
LINE
  8
0
 10
57.6858
 20
-11.762
 11
58.0603
 21
-11.2294
  0
LINE
  8
0
 10
58.0603
 20
-11.2294
 11
59.1843
 21
-9.71173
  0
LINE
  8
0
 10
59.1843
 20
-9.71173
 11
59.3143
 21
-9.51082
  0
LINE
  8
0
 10
59.3143
 20
-9.51082
 11
59.5513
 21
-9.12698
  0
LINE
  8
0
 10
59.5513
 20
-9.12698
 11
59.8711
 21
-8.60426
  0
LINE
  8
0
 10
59.8711
 20
-8.60426
 11
59.8761
 21
-8.59566
  0
LINE
  8
0
 10
59.8761
 20
-8.59566
 11
59.9591
 21
-8.4489
  0
LINE
  8
0
 10
59.9591
 20
-8.4489
 11
60.3576
 21
-7.61414
  0
LINE
  8
0
 10
60.3576
 20
-7.61414
 11
61.1612
 21
-6.01671
  0
LINE
  8
0
 10
61.1612
 20
-6.01671
 11
61.169
 21
-5.99765
  0
LINE
  8
0
 10
61.169
 20
-5.99765
 11
61.2244
 21
-5.85545
  0
LINE
  8
0
 10
61.2244
 20
-5.85545
 11
61.3821
 21
-5.45976
  0
LINE
  8
0
 10
61.3821
 20
-5.45976
 11
61.5877
 21
-4.79634
  0
LINE
  8
0
 10
61.5877
 20
-4.79634
 11
61.9906
 21
-3.51602
  0
LINE
  8
0
 10
61.9906
 20
-3.51602
 11
61.9931
 21
-3.50618
  0
LINE
  8
0
 10
61.9931
 20
-3.50618
 11
62.0607
 21
-3.19128
  0
LINE
  8
0
 10
62.0607
 20
-3.19128
 11
62.1907
 21
-2.59601
  0
LINE
  8
0
 10
62.1907
 20
-2.59601
 11
62.1911
 21
-2.59369
  0
LINE
  8
0
 10
62.1911
 20
-2.59369
 11
62.254
 21
-2.14565
  0
LINE
  8
0
 10
62.254
 20
-2.14565
 11
62.3795
 21
-1.24361
  0
LINE
  8
0
 10
62.3795
 20
-1.24361
 11
62.4019
 21
-0.856277
  0
LINE
  8
0
 10
62.4019
 20
-0.856277
 11
62.4365
 21
-0.250473
  0
LINE
  8
0
 10
62.4365
 20
-0.250473
 11
62.4366
 21
-0.249374
  0
LINE
  8
0
 10
62.4366
 20
-0.249374
 11
62.391
 21
0.507462
  0
LINE
  8
0
 10
62.391
 20
0.507462
 11
62.3816
 21
0.662354
  0
LINE
  8
0
 10
62.3816
 20
0.662354
 11
62.2923
 21
2.08804
  0
LINE
  8
0
 10
62.2923
 20
2.08804
 11
62.2918
 21
2.09158
  0
LINE
  8
0
 10
62.2918
 20
2.09158
 11
62.2783
 21
2.18069
  0
LINE
  8
0
 10
62.2783
 20
2.18069
 11
62.276
 21
2.19553
  0
LINE
  8
0
 10
62.276
 20
2.19553
 11
62.2082
 21
2.59839
  0
LINE
  8
0
 10
62.2082
 20
2.59839
 11
62.203
 21
2.62831
  0
LINE
  8
0
 10
62.203
 20
2.62831
 11
62.162
 21
2.8508
  0
LINE
  8
0
 10
62.162
 20
2.8508
 11
62.1301
 21
3.01105
  0
LINE
  8
0
 10
62.1301
 20
3.01105
 11
61.9423
 21
3.71329
  0
LINE
  8
0
 10
61.9423
 20
3.71329
 11
61.5821
 21
5.00443
  0
LINE
  8
0
 10
61.5821
 20
5.00443
 11
61.5742
 21
5.02765
  0
LINE
  8
0
 10
61.5742
 20
5.02765
 11
61.2544
 21
5.81355
  0
LINE
  8
0
 10
61.2544
 20
5.81355
 11
60.6692
 21
7.21257
  0
LINE
  8
0
 10
60.6692
 20
7.21257
 11
60.6655
 21
7.2202
  0
LINE
  8
0
 10
60.6655
 20
7.2202
 11
60.5821
 21
7.38898
  0
LINE
  8
0
 10
60.5821
 20
7.38898
 11
60.4902
 21
7.57045
  0
LINE
  8
0
 10
60.4902
 20
7.57045
 11
60.4788
 21
7.59271
  0
LINE
  8
0
 10
60.4788
 20
7.59271
 11
60.1801
 21
8.15271
  0
LINE
  8
0
 10
60.1801
 20
8.15271
 11
60.1584
 21
8.19267
  0
LINE
  8
0
 10
60.1584
 20
8.19267
 11
59.6231
 21
9.06456
  0
LINE
  8
0
 10
59.6231
 20
9.06456
 11
59.5325
 21
9.20763
  0
LINE
  8
0
 10
59.5325
 20
9.20763
 11
58.5446
 21
10.7353
  0
LINE
  8
0
 10
58.5446
 20
10.7353
 11
58.5255
 21
10.762
  0
LINE
  8
0
 10
58.5255
 20
10.762
 11
58.2531
 21
11.1284
  0
LINE
  8
0
 10
58.2531
 20
11.1284
 11
57.8663
 21
11.6395
  0
LINE
  8
0
 10
57.8663
 20
11.6395
 11
57.3895
 21
12.2109
  0
LINE
  8
0
 10
57.3895
 20
12.2109
 11
56.5426
 21
13.2184
  0
LINE
  8
0
 10
56.5426
 20
13.2184
 11
56.5323
 21
13.23
  0
LINE
  8
0
 10
56.5323
 20
13.23
 11
56.0502
 21
13.7393
  0
LINE
  8
0
 10
56.0502
 20
13.7393
 11
55.2348
 21
14.601
  0
LINE
  8
0
 10
55.2348
 20
14.601
 11
55.2231
 21
14.6127
  0
LINE
  8
0
 10
55.2231
 20
14.6127
 11
54.4751
 21
15.3054
  0
LINE
  8
0
 10
54.4751
 20
15.3054
 11
53.1711
 21
16.5209
  0
LINE
  8
0
 10
53.1711
 20
16.5209
 11
52.7388
 21
16.8877
  0
LINE
  8
0
 10
52.7388
 20
16.8877
 11
52.3929
 21
17.177
  0
LINE
  8
0
 10
52.3929
 20
17.177
 11
52.3601
 21
17.2039
  0
LINE
  8
0
 10
52.3601
 20
17.2039
 11
50.4737
 21
18.6403
  0
LINE
  8
0
 10
50.4737
 20
18.6403
 11
50.2969
 21
18.773
  0
LINE
  8
0
 10
50.2969
 20
18.773
 11
49.2385
 21
19.5492
  0
LINE
  8
0
 10
49.2385
 20
19.5492
 11
49.1794
 21
19.5895
  0
LINE
  8
0
 10
49.1794
 20
19.5895
 11
48.4668
 21
20.0416
  0
LINE
  8
0
 10
48.4668
 20
20.0416
 11
46.7664
 21
21.1456
  0
LINE
  8
0
 10
46.7664
 20
21.1456
 11
46.3697
 21
21.3816
  0
LINE
  8
0
 10
46.3697
 20
21.3816
 11
45.7988
 21
21.7102
  0
LINE
  8
0
 10
45.7988
 20
21.7102
 11
45.7096
 21
21.7607
  0
LINE
  8
0
 10
45.7096
 20
21.7607
 11
43.7492
 21
22.8206
  0
LINE
  8
0
 10
43.7492
 20
22.8206
 11
43.1287
 21
23.1465
  0
LINE
  8
0
 10
43.1287
 20
23.1465
 11
43.1152
 21
23.1532
  0
LINE
  8
0
 10
43.1152
 20
23.1532
 11
41.9615
 21
23.6773
  0
LINE
  8
0
 10
41.9615
 20
23.6773
 11
39.4669
 21
24.8042
  0
LINE
  8
0
 10
39.4669
 20
24.8042
 11
39.4281
 21
24.8199
  0
LINE
  8
0
 10
39.4281
 20
24.8199
 11
39.1259
 21
24.9413
  0
LINE
  8
0
 10
39.1259
 20
24.9413
 11
39.0995
 21
24.9519
  0
LINE
  8
0
 10
39.0995
 20
24.9519
 11
37.9022
 21
25.3808
  0
LINE
  8
0
 10
37.9022
 20
25.3808
 11
37.653
 21
25.4689
  0
LINE
  8
0
 10
37.653
 20
25.4689
 11
35.0284
 21
26.3787
  0
LINE
  8
0
 10
35.0284
 20
26.3787
 11
34.986
 21
26.3917
  0
LINE
  8
0
 10
34.986
 20
26.3917
 11
33.9661
 21
26.6697
  0
LINE
  8
0
 10
33.9661
 20
26.6697
 11
32.0292
 21
27.1841
  0
LINE
  8
0
 10
32.0292
 20
27.1841
 11
31.7941
 21
27.2371
  0
LINE
  8
0
 10
31.7941
 20
27.2371
 11
30.8783
 21
27.4346
  0
LINE
  8
0
 10
30.8783
 20
27.4346
 11
30.8208
 21
27.4465
  0
LINE
  8
0
 10
30.8208
 20
27.4465
 11
29.9928
 21
27.5998
  0
LINE
  8
0
 10
29.9928
 20
27.5998
 11
29.8578
 21
27.6234
  0
LINE
  8
0
 10
29.8578
 20
27.6234
 11
27.3701
 21
28.0028
  0
LINE
  8
0
 10
27.3701
 20
28.0028
 11
27.2287
 21
28.0213
  0
LINE
  8
0
 10
27.2287
 20
28.0213
 11
26.1255
 21
28.1469
  0
LINE
  8
0
 10
26.1255
 20
28.1469
 11
25.3046
 21
28.2269
  0
LINE
  8
0
 10
25.3046
 20
28.2269
 11
24.975
 21
28.2537
  0
LINE
  8
0
 10
24.975
 20
28.2537
 11
24.7511
 21
28.2696
  0
LINE
  8
0
 10
24.7511
 20
28.2696
 11
23.1274
 21
28.3554
  0
LINE
  8
0
 10
23.1274
 20
28.3554
 11
22.9892
 21
28.3619
  0
LINE
  8
0
 10
22.9892
 20
28.3619
 11
21.4722
 21
28.3942
  0
LINE
  8
0
 10
21.4722
 20
28.3942
 11
21.2583
 21
28.3951
  0
LINE
  8
0
 10
21.2583
 20
28.3951
 11
18.5238
 21
28.3799
  0
LINE
  8
0
 10
18.5238
 20
28.3799
 11
18.4339
 21
28.3772
  0
LINE
  8
0
 10
18.4339
 20
28.3772
 11
17.917
 21
28.3604
  0
LINE
  8
0
 10
17.917
 20
28.3604
 11
17.6219
 21
28.3481
  0
LINE
  8
0
 10
17.6219
 20
28.3481
 11
16.2287
 21
28.2513
  0
LINE
  8
0
 10
16.2287
 20
28.2513
 11
13.6832
 21
28.0696
  0
LINE
  8
0
 10
13.6832
 20
28.0696
 11
13.6618
 21
28.0676
  0
LINE
  8
0
 10
13.6618
 20
28.0676
 11
12.1682
 21
27.893
  0
LINE
  8
0
 10
12.1682
 20
27.893
 11
8.95287
 21
27.5123
  0
LINE
  8
0
 10
8.95287
 20
27.5123
 11
5.41776
 21
27.0018
  0
LINE
  8
0
 10
5.41776
 20
27.0018
 11
1.87314
 21
26.4564
  0
LINE
  8
0
 10
1.87314
 20
26.4564
 11
1.43002
 21
26.3848
  0
LINE
  8
0
 10
1.43002
 20
26.3848
 11
-5.59714
 21
25.2004
  0
LINE
  8
0
 10
-5.59714
 20
25.2004
 11
-5.93486
 21
25.1404
  0
LINE
  8
0
 10
-5.93486
 20
25.1404
 11
-9.56976
 21
24.4595
  0
LINE
  8
0
 10
-9.56976
 20
24.4595
 11
-14.0866
 21
23.5815
  0
LINE
  8
0
 10
-14.0866
 20
23.5815
 11
-14.1296
 21
23.5728
  0
LINE
  8
0
 10
-14.1296
 20
23.5728
 11
-18.8238
 21
22.5842
  0
LINE
  8
0
 10
-18.8238
 20
22.5842
 11
-18.8302
 21
22.5828
  0
LINE
  8
0
 10
-18.8302
 20
22.5828
 11
-22.5473
 21
21.7143
  0
LINE
  8
0
 10
-22.5473
 20
21.7143
 11
-30.2314
 21
19.9178
  0
LINE
  8
0
 10
-30.2314
 20
19.9178
 11
-34.4492
 21
18.8353
  0
LINE
  8
0
 10
-34.4492
 20
18.8353
 11
-34.9444
 21
18.7045
  0
LINE
  8
0
 10
-34.9444
 20
18.7045
 11
-37.3475
 21
18.0467
  0
LINE
  8
0
 10
-37.3475
 20
18.0467
 11
-37.7653
 21
17.9319
  0
LINE
  8
0
 10
-37.7653
 20
17.9319
 11
-44.3926
 21
16.0596
  0
LINE
  8
0
 10
-44.3926
 20
16.0596
 11
-46.2648
 21
15.5132
  0
LINE
  8
0
 10
-46.2648
 20
15.5132
 11
-46.2914
 21
15.5052
  0
LINE
  8
0
 10
-46.2914
 20
15.5052
 11
-48.9704
 21
14.67
  0
LINE
  8
0
 10
-48.9704
 20
14.67
 11
-53.6543
 21
13.2067
  0
LINE
  8
0
 10
-53.6543
 20
13.2067
 11
-54.7899
 21
12.8326
  0
LINE
  8
0
 10
-54.7899
 20
12.8326
 11
-56.9141
 21
12.1291
  0
LINE
  8
0
 10
-56.9141
 20
12.1291
 11
-56.9781
 21
12.1076
  0
LINE
  8
0
 10
-56.9781
 20
12.1076
 11
-60.6279
 21
10.8197
  0
LINE
  8
0
 10
-60.6279
 20
10.8197
 11
-61.2045
 21
10.6151
  0
LINE
  8
0
 10
-61.2045
 20
10.6151
 11
-67.2196
 21
8.46432
  0
LINE
  8
0
 10
-67.2196
 20
8.46432
 11
-67.3114
 21
8.42987
  0
LINE
  8
0
 10
-67.3114
 20
8.42987
 11
-69.0939
 21
7.74867
  0
LINE
  8
0
 10
-69.0939
 20
7.74867
 11
-69.8656
 21
7.45468
  0
LINE
  8
0
 10
-69.8656
 20
7.45468
 11
-71.1488
 21
6.95709
  0
LINE
  8
0
 10
-71.1488
 20
6.95709
 11
-71.8152
 21
6.69357
  0
LINE
  8
0
 10
-71.8152
 20
6.69357
 11
-75.9233
 21
5.01398
  0
LINE
  8
0
 10
-75.9233
 20
5.01398
 11
-76.2858
 21
4.86449
  0
LINE
  8
0
 10
-76.2858
 20
4.86449
 11
-79.8828
 21
3.3522
  0
LINE
  8
0
 10
-79.8828
 20
3.3522
 11
-80.0891
 21
3.26251
  0
LINE
  8
0
 10
-80.0891
 20
3.26251
 11
-82.6078
 21
2.10803
  0
LINE
  8
0
 10
-82.6078
 20
2.10803
 11
-87.5599
 21
-0.117813
  0
LINE
  8
0
 10
-87.5599
 20
-0.117813
 11
-85.3208
 21
-1.1369
  0
LINE
  8
0
 10
-85.3208
 20
-1.1369
 11
-83.0901
 21
-2.1638
  0
LINE
  8
0
 10
-83.0901
 20
-2.1638
 11
-82.975
 21
-2.21504
  0
LINE
  8
0
 10
-82.975
 20
-2.21504
 11
-79.1191
 21
-3.82396
  0
LINE
  8
0
 10
-79.1191
 20
-3.82396
 11
-74.0447
 21
-5.99319
  0
LINE
  8
0
 10
-74.0447
 20
-5.99319
 11
-73.9045
 21
-6.04936
  0
LINE
  8
0
 10
-73.9045
 20
-6.04936
 11
-73.6448
 21
-6.15179
  0
LINE
  8
0
 10
-73.6448
 20
-6.15179
 11
-72.056
 21
-6.78642
  0
LINE
  8
0
 10
-72.056
 20
-6.78642
 11
-69.544
 21
-7.74352
  0
LINE
  8
0
 10
-69.544
 20
-7.74352
 11
-65.9873
 21
-9.0937
  0
LINE
  8
0
 10
-65.9873
 20
-9.0937
 11
-65.9448
 21
-9.10934
  0
LINE
  8
0
 10
-65.9448
 20
-9.10934
 11
-62.1967
 21
-10.4206
  0
LINE
  8
0
 10
-62.1967
 20
-10.4206
 11
-61.6075
 21
-10.6259
  0
LINE
  8
0
 10
-61.6075
 20
-10.6259
 11
-56.2383
 21
-12.4961
  0
LINE
  8
0
 10
-56.2383
 20
-12.4961
 11
-55.4963
 21
-12.7395
  0
LINE
  8
0
 10
-55.4963
 20
-12.7395
 11
-54.5616
 21
-13.046
  0
LINE
  8
0
 10
-54.5616
 20
-13.046
 11
-51.4737
 21
-14.0045
  0
LINE
  8
0
 10
-51.4737
 20
-14.0045
 11
-46.1431
 21
-15.6613
  0
LINE
  8
0
 10
-46.1431
 20
-15.6613
 11
-46.1271
 21
-15.666
  0
LINE
  8
0
 10
-46.1271
 20
-15.666
 11
-44.2541
 21
-16.2072
  0
LINE
  8
0
 10
-44.2541
 20
-16.2072
 11
-37.7613
 21
-18.0217
  0
LINE
  8
0
 10
-37.7613
 20
-18.0217
 11
-37.3482
 21
-18.1341
  0
LINE
  8
0
 10
-37.3482
 20
-18.1341
 11
-34.647
 21
-18.8621
  0
LINE
  8
0
 10
-34.647
 20
-18.8621
 11
-33.5274
 21
-19.1532
  0
LINE
  8
0
 10
-33.5274
 20
-19.1532
 11
-32.1709
 21
-19.4957
  0
LINE
  8
0
 10
-32.1709
 20
-19.4957
 11
-26.4592
 21
-20.8859
  0
LINE
  8
0
 10
-26.4592
 20
-20.8859
 11
-26.0467
 21
-20.9842
  0
LINE
  8
0
 10
-26.0467
 20
-20.9842
 11
-22.2742
 21
-21.8549
  0
LINE
  8
0
 10
-22.2742
 20
-21.8549
 11
-21.9173
 21
-21.9341
  0
LINE
  8
0
 10
-21.9173
 20
-21.9341
 11
-20.1064
 21
-22.3104
  0
LINE
  8
0
 10
-20.1064
 20
-22.3104
 11
-14.1237
 21
-23.5988
  0
LINE
  8
0
 10
-14.1237
 20
-23.5988
 11
-12.0176
 21
-24.0164
  0
LINE
  8
0
 10
-12.0176
 20
-24.0164
 11
-2.48634
 21
-25.7478
  0
LINE
  8
0
 10
-2.48634
 20
-25.7478
 11
9.02704
 21
-27.4877
  0
LINE
  8
0
 10
9.02704
 20
-27.4877
 11
10.3244
 21
-27.6532
  0
LINE
  8
0
 10
10.3244
 20
-27.6532
 11
11.7315
 21
-27.8156
  0
LINE
  8
0
 10
11.7315
 20
-27.8156
 11
11.9232
 21
-27.8362
  0
LINE
  8
0
 10
11.9232
 20
-27.8362
 11
15.553
 21
-28.1635
  0
LINE
  8
0
 10
15.553
 20
-28.1635
 11
15.7647
 21
-28.1794
  0
LINE
  8
0
 10
15.7647
 20
-28.1794
 11
17.1273
 21
-28.2683
  0
LINE
  8
0
 10
17.1273
 20
-28.2683
 11
17.2299
 21
-28.273
  0
LINE
  8
0
 10
17.2299
 20
-28.273
 11
20.2229
 21
-28.3372
  0
LINE
  8
0
 10
20.2229
 20
-28.3372
 11
21.444
 21
-28.3502
  0
ENDSEC
  0
SECTION
  2
OBJECTS
  0
DICTIONARY
  0
ENDSEC
  0
EOF
