  0
SECTION
  2
BLOCKS
  0
ENDSEC
  0
SECTION
  2
ENTITIES
  0
LINE
  8
0
 10
-87.5599
 20
-0.117787
 11
-82.2771
 21
-2.52218
  0
LINE
  8
0
 10
-82.2771
 20
-2.52218
 11
-82.0541
 21
-2.62486
  0
LINE
  8
0
 10
-82.0541
 20
-2.62486
 11
-73.3216
 21
-6.26857
  0
LINE
  8
0
 10
-73.3216
 20
-6.26857
 11
-72.7833
 21
-6.49869
  0
LINE
  8
0
 10
-72.7833
 20
-6.49869
 11
-72.2323
 21
-6.71602
  0
LINE
  8
0
 10
-72.2323
 20
-6.71602
 11
-72.056
 21
-6.78643
  0
LINE
  8
0
 10
-72.056
 20
-6.78643
 11
-66.7223
 21
-8.81865
  0
LINE
  8
0
 10
-66.7223
 20
-8.81865
 11
-66.3273
 21
-8.96859
  0
LINE
  8
0
 10
-66.3273
 20
-8.96859
 11
-56.894
 21
-12.2688
  0
LINE
  8
0
 10
-56.894
 20
-12.2688
 11
-56.2978
 21
-12.4765
  0
LINE
  8
0
 10
-56.2978
 20
-12.4765
 11
-54.6653
 21
-13.012
  0
LINE
  8
0
 10
-54.6653
 20
-13.012
 11
-54.5615
 21
-13.046
  0
LINE
  8
0
 10
-54.5615
 20
-13.046
 11
-46.5319
 21
-15.5385
  0
LINE
  8
0
 10
-46.5319
 20
-15.5385
 11
-45.9991
 21
-15.7041
  0
LINE
  8
0
 10
-45.9991
 20
-15.7041
 11
-41.7875
 21
-16.9208
  0
LINE
  8
0
 10
-41.7875
 20
-16.9208
 11
-41.0665
 21
-17.1224
  0
LINE
  8
0
 10
-41.0665
 20
-17.1224
 11
-33.6393
 21
-19.1241
  0
LINE
  8
0
 10
-33.6393
 20
-19.1241
 11
-33.5274
 21
-19.1532
  0
LINE
  8
0
 10
-33.5274
 20
-19.1532
 11
-30.3936
 21
-19.9444
  0
LINE
  8
0
 10
-30.3936
 20
-19.9444
 11
-29.7593
 21
-20.0988
  0
LINE
  8
0
 10
-29.7593
 20
-20.0988
 11
-19.062
 21
-22.5677
  0
LINE
  8
0
 10
-19.062
 20
-22.5677
 11
-14.7971
 21
-23.4539
  0
LINE
  8
0
 10
-14.7971
 20
-23.4539
 11
-14.1328
 21
-23.597
  0
LINE
  8
0
 10
-14.1328
 20
-23.597
 11
-12.1602
 21
-23.9881
  0
LINE
  8
0
 10
-12.1602
 20
-23.9881
 11
-12.0175
 21
-24.0164
  0
LINE
  8
0
 10
-12.0175
 20
-24.0164
 11
-3.13723
 21
-25.6296
  0
LINE
  8
0
 10
-3.13723
 20
-25.6296
 11
-2.48822
 21
-25.7475
  0
LINE
  8
0
 10
-2.48822
 20
-25.7475
 11
8.23525
 21
-27.368
  0
LINE
  8
0
 10
8.23525
 20
-27.368
 11
9.02705
 21
-27.4877
  0
LINE
  8
0
 10
9.02705
 20
-27.4877
 11
9.15671
 21
-27.5042
  0
LINE
  8
0
 10
9.15671
 20
-27.5042
 11
13.4565
 21
-28.0006
  0
LINE
  8
0
 10
13.4565
 20
-28.0006
 11
13.8596
 21
-28.0369
  0
LINE
  8
0
 10
13.8596
 20
-28.0369
 11
18.0514
 21
-28.3104
  0
LINE
  8
0
 10
18.0514
 20
-28.3104
 11
18.3838
 21
-28.3176
  0
LINE
  8
0
 10
18.3838
 20
-28.3176
 11
21.444
 21
-28.3502
  0
LINE
  8
0
 10
21.444
 20
-28.3502
 11
21.4792
 21
-28.3495
  0
LINE
  8
0
 10
21.4792
 20
-28.3495
 11
22.496
 21
-28.3248
  0
LINE
  8
0
 10
22.496
 20
-28.3248
 11
22.7457
 21
-28.311
  0
LINE
  8
0
 10
22.7457
 20
-28.311
 11
26.7172
 21
-28.0229
  0
LINE
  8
0
 10
26.7172
 20
-28.0229
 11
26.743
 21
-28.0205
  0
LINE
  8
0
 10
26.743
 20
-28.0205
 11
28.5656
 21
-27.775
  0
LINE
  8
0
 10
28.5656
 20
-27.775
 11
28.7666
 21
-27.7498
  0
LINE
  8
0
 10
28.7666
 20
-27.7498
 11
29.9725
 21
-27.5436
  0
LINE
  8
0
 10
29.9725
 20
-27.5436
 11
30.0681
 21
-27.5272
  0
LINE
  8
0
 10
30.0681
 20
-27.5272
 11
34.0035
 21
-26.5961
  0
LINE
  8
0
 10
34.0035
 20
-26.5961
 11
34.2916
 21
-26.5278
  0
LINE
  8
0
 10
34.2916
 20
-26.5278
 11
36.364
 21
-25.8806
  0
LINE
  8
0
 10
36.364
 20
-25.8806
 11
36.5221
 21
-25.8313
  0
LINE
  8
0
 10
36.5221
 20
-25.8313
 11
38.3318
 21
-25.1779
  0
LINE
  8
0
 10
38.3318
 20
-25.1779
 11
38.4607
 21
-25.1315
  0
LINE
  8
0
 10
38.4607
 20
-25.1315
 11
42.2631
 21
-23.4821
  0
LINE
  8
0
 10
42.2631
 20
-23.4821
 11
42.4687
 21
-23.3963
  0
LINE
  8
0
 10
42.4687
 20
-23.3963
 11
43.5287
 21
-22.8661
  0
LINE
  8
0
 10
43.5287
 20
-22.8661
 11
43.694
 21
-22.7861
  0
LINE
  8
0
 10
43.694
 20
-22.7861
 11
45.5259
 21
-21.7918
  0
LINE
  8
0
 10
45.5259
 20
-21.7918
 11
45.6374
 21
-21.7318
  0
LINE
  8
0
 10
45.6374
 20
-21.7318
 11
48.7517
 21
-19.7889
  0
LINE
  8
0
 10
48.7517
 20
-19.7889
 11
49.0117
 21
-19.628
  0
LINE
  8
0
 10
49.0117
 20
-19.628
 11
50.1058
 21
-18.859
  0
LINE
  8
0
 10
50.1058
 20
-18.859
 11
50.1841
 21
-18.8039
  0
LINE
  8
0
 10
50.1841
 20
-18.8039
 11
51.9666
 21
-17.4365
  0
LINE
  8
0
 10
51.9666
 20
-17.4365
 11
52.1266
 21
-17.3123
  0
LINE
  8
0
 10
52.1266
 20
-17.3123
 11
54.7488
 21
-14.9795
  0
LINE
  8
0
 10
54.7488
 20
-14.9795
 11
54.9121
 21
-14.8326
  0
LINE
  8
0
 10
54.9121
 20
-14.8326
 11
55.2532
 21
-14.4938
  0
LINE
  8
0
 10
55.2532
 20
-14.4938
 11
55.2805
 21
-14.4668
  0
LINE
  8
0
 10
55.2805
 20
-14.4668
 11
56.132
 21
-13.5769
  0
LINE
  8
0
 10
56.132
 20
-13.5769
 11
56.2733
 21
-13.4214
  0
LINE
  8
0
 10
56.2733
 20
-13.4214
 11
58.1571
 21
-11.1636
  0
LINE
  8
0
 10
58.1571
 20
-11.1636
 11
59.0595
 21
-9.88028
  0
LINE
  8
0
 10
59.0595
 20
-9.88028
 11
59.1843
 21
-9.71174
  0
LINE
  8
0
 10
59.1843
 20
-9.71174
 11
59.1973
 21
-9.69166
  0
LINE
  8
0
 10
59.1973
 20
-9.69166
 11
59.8842
 21
-8.57899
  0
LINE
  8
0
 10
59.8842
 20
-8.57899
 11
59.9162
 21
-8.52675
  0
LINE
  8
0
 10
59.9162
 20
-8.52675
 11
60.1146
 21
-8.17604
  0
LINE
  8
0
 10
60.1146
 20
-8.17604
 11
61.1451
 21
-6.0171
  0
LINE
  8
0
 10
61.1451
 20
-6.0171
 11
61.2316
 21
-5.8452
  0
LINE
  8
0
 10
61.2316
 20
-5.8452
 11
61.3646
 21
-5.50355
  0
LINE
  8
0
 10
61.3646
 20
-5.50355
 11
61.3821
 21
-5.45977
  0
LINE
  8
0
 10
61.3821
 20
-5.45977
 11
61.9722
 21
-3.55533
  0
LINE
  8
0
 10
61.9722
 20
-3.55533
 11
62.0125
 21
-3.42737
  0
LINE
  8
0
 10
62.0125
 20
-3.42737
 11
62.1728
 21
-2.68067
  0
LINE
  8
0
 10
62.1728
 20
-2.68067
 11
62.1872
 21
-2.61456
  0
LINE
  8
0
 10
62.1872
 20
-2.61456
 11
62.367
 21
-1.33377
  0
LINE
  8
0
 10
62.367
 20
-1.33377
 11
62.3795
 21
-1.24362
  0
LINE
  8
0
 10
62.3795
 20
-1.24362
 11
62.4325
 21
-0.326568
  0
LINE
  8
0
 10
62.4325
 20
-0.326568
 11
62.4363
 21
-0.259291
  0
LINE
  8
0
 10
62.4363
 20
-0.259291
 11
62.3063
 21
1.90139
  0
LINE
  8
0
 10
62.3063
 20
1.90139
 11
62.2964
 21
2.05971
  0
LINE
  8
0
 10
62.2964
 20
2.05971
 11
62.2579
 21
2.31429
  0
LINE
  8
0
 10
62.2579
 20
2.31429
 11
62.2503
 21
2.35902
  0
LINE
  8
0
 10
62.2503
 20
2.35902
 11
62.1333
 21
2.99503
  0
LINE
  8
0
 10
62.1333
 20
2.99503
 11
62.1301
 21
3.01105
  0
LINE
  8
0
 10
62.1301
 20
3.01105
 11
61.685
 21
4.67524
  0
LINE
  8
0
 10
61.685
 20
4.67524
 11
61.645
 21
4.81862
  0
LINE
  8
0
 10
61.645
 20
4.81862
 11
60.7277
 21
7.07275
  0
LINE
  8
0
 10
60.7277
 20
7.07275
 11
60.6692
 21
7.21258
  0
LINE
  8
0
 10
60.6692
 20
7.21258
 11
60.6604
 21
7.23075
  0
LINE
  8
0
 10
60.6604
 20
7.23075
 11
60.652
 21
7.24775
  0
LINE
  8
0
 10
60.652
 20
7.24775
 11
60.3872
 21
7.77084
  0
LINE
  8
0
 10
60.3872
 20
7.77084
 11
60.3541
 21
7.83303
  0
LINE
  8
0
 10
60.3541
 20
7.83303
 11
58.8075
 21
10.3521
  0
LINE
  8
0
 10
58.8075
 20
10.3521
 11
58.6978
 21
10.5218
  0
LINE
  8
0
 10
58.6978
 20
10.5218
 11
57.905
 21
11.5884
  0
LINE
  8
0
 10
57.905
 20
11.5884
 11
57.8663
 21
11.6395
  0
LINE
  8
0
 10
57.8663
 20
11.6395
 11
56.7193
 21
13.0141
  0
LINE
  8
0
 10
56.7193
 20
13.0141
 11
56.6253
 21
13.126
  0
LINE
  8
0
 10
56.6253
 20
13.126
 11
55.2105
 21
14.6206
  0
LINE
  8
0
 10
55.2105
 20
14.6206
 11
55.129
 21
14.7068
  0
LINE
  8
0
 10
55.129
 20
14.7068
 11
53.3159
 21
16.3859
  0
LINE
  8
0
 10
53.3159
 20
16.3859
 11
53.1711
 21
16.5209
  0
LINE
  8
0
 10
53.1711
 20
16.5209
 11
53.1279
 21
16.5576
  0
LINE
  8
0
 10
53.1279
 20
16.5576
 11
52.0978
 21
17.419
  0
LINE
  8
0
 10
52.0978
 20
17.419
 11
51.8883
 21
17.5785
  0
LINE
  8
0
 10
51.8883
 20
17.5785
 11
48.7069
 21
19.9117
  0
LINE
  8
0
 10
48.7069
 20
19.9117
 11
46.9552
 21
21.023
  0
LINE
  8
0
 10
46.9552
 20
21.023
 11
46.7664
 21
21.1456
  0
LINE
  8
0
 10
46.7664
 20
21.1456
 11
46.7268
 21
21.1692
  0
LINE
  8
0
 10
46.7268
 20
21.1692
 11
44.996
 21
22.1652
  0
LINE
  8
0
 10
44.996
 20
22.1652
 11
44.7783
 21
22.2829
  0
LINE
  8
0
 10
44.7783
 20
22.2829
 11
43.2364
 21
23.0926
  0
LINE
  8
0
 10
43.2364
 20
23.0926
 11
39.7162
 21
24.6916
  0
LINE
  8
0
 10
39.7162
 20
24.6916
 11
39.4669
 21
24.8042
  0
LINE
  8
0
 10
39.4669
 20
24.8042
 11
39.3701
 21
24.8435
  0
LINE
  8
0
 10
39.3701
 20
24.8435
 11
39.3366
 21
24.8569
  0
LINE
  8
0
 10
39.3366
 20
24.8569
 11
35.6596
 21
26.1741
  0
LINE
  8
0
 10
35.6596
 20
26.1741
 11
35.3682
 21
26.2751
  0
LINE
  8
0
 10
35.3682
 20
26.2751
 11
32.2228
 21
27.1327
  0
LINE
  8
0
 10
32.2228
 20
27.1327
 11
32.0292
 21
27.1841
  0
LINE
  8
0
 10
32.0292
 20
27.1841
 11
31.4397
 21
27.317
  0
LINE
  8
0
 10
31.4397
 20
27.317
 11
31.338
 21
27.3389
  0
LINE
  8
0
 10
31.338
 20
27.3389
 11
28.7781
 21
27.8127
  0
LINE
  8
0
 10
28.7781
 20
27.8127
 11
28.5018
 21
27.8548
  0
LINE
  8
0
 10
28.5018
 20
27.8548
 11
25.09
 21
28.243
  0
LINE
  8
0
 10
25.09
 20
28.243
 11
25.0079
 21
28.251
  0
LINE
  8
0
 10
25.0079
 20
28.251
 11
24.975
 21
28.2537
  0
LINE
  8
0
 10
24.975
 20
28.2537
 11
24.4134
 21
28.2936
  0
LINE
  8
0
 10
24.4134
 20
28.2936
 11
24.2331
 21
28.3031
  0
LINE
  8
0
 10
24.2331
 20
28.3031
 11
19.5471
 21
28.4027
  0
LINE
  8
0
 10
19.5471
 20
28.4027
 11
19.2434
 21
28.401
  0
LINE
  8
0
 10
19.2434
 20
28.401
 11
17.6514
 21
28.3493
  0
LINE
  8
0
 10
17.6514
 20
28.3493
 11
17.6219
 21
28.3481
  0
LINE
  8
0
 10
17.6219
 20
28.3481
 11
14.1372
 21
28.106
  0
LINE
  8
0
 10
14.1372
 20
28.106
 11
13.8545
 21
28.0858
  0
LINE
  8
0
 10
13.8545
 20
28.0858
 11
9.27422
 21
27.5503
  0
LINE
  8
0
 10
9.27422
 20
27.5503
 11
8.95287
 21
27.5123
  0
LINE
  8
0
 10
8.95287
 20
27.5123
 11
8.59955
 21
27.4613
  0
LINE
  8
0
 10
8.59955
 20
27.4613
 11
-2.11501
 21
25.8125
  0
LINE
  8
0
 10
-2.11501
 20
25.8125
 11
-2.89539
 21
25.681
  0
LINE
  8
0
 10
-2.89539
 20
25.681
 11
-13.6352
 21
23.6693
  0
LINE
  8
0
 10
-13.6352
 20
23.6693
 11
-14.0866
 21
23.5816
  0
LINE
  8
0
 10
-14.0866
 20
23.5816
 11
-14.1899
 21
23.5605
  0
LINE
  8
0
 10
-14.1899
 20
23.5605
 11
-14.5123
 21
23.4926
  0
LINE
  8
0
 10
-14.5123
 20
23.4926
 11
-18.7727
 21
22.5954
  0
LINE
  8
0
 10
-18.7727
 20
22.5954
 11
-29.458
 21
20.0987
  0
LINE
  8
0
 10
-29.458
 20
20.0987
 11
-30.226
 21
19.9191
  0
LINE
  8
0
 10
-30.226
 20
19.9191
 11
-34.169
 21
18.9072
  0
LINE
  8
0
 10
-34.169
 20
18.9072
 11
-34.4492
 21
18.8353
  0
LINE
  8
0
 10
-34.4492
 20
18.8353
 11
-34.4987
 21
18.8222
  0
LINE
  8
0
 10
-34.4987
 20
18.8222
 11
-41.1076
 21
17.0132
  0
LINE
  8
0
 10
-41.1076
 20
17.0132
 11
-41.8435
 21
16.8052
  0
LINE
  8
0
 10
-41.8435
 20
16.8052
 11
-46.0519
 21
15.577
  0
LINE
  8
0
 10
-46.0519
 20
15.577
 11
-53.1862
 21
13.353
  0
LINE
  8
0
 10
-53.1862
 20
13.353
 11
-53.6543
 21
13.2067
  0
LINE
  8
0
 10
-53.6543
 20
13.2067
 11
-56.1667
 21
12.3792
  0
LINE
  8
0
 10
-56.1667
 20
12.3792
 11
-56.4026
 21
12.301
  0
LINE
  8
0
 10
-56.4026
 20
12.301
 11
-65.8174
 21
8.97875
  0
LINE
  8
0
 10
-65.8174
 20
8.97875
 11
-66.4854
 21
8.73989
  0
LINE
  8
0
 10
-66.4854
 20
8.73989
 11
-70.9434
 21
7.03621
  0
LINE
  8
0
 10
-70.9434
 20
7.03621
 11
-71.0206
 21
7.00683
  0
LINE
  8
0
 10
-71.0206
 20
7.00683
 11
-71.1488
 21
6.9571
  0
LINE
  8
0
 10
-71.1488
 20
6.9571
 11
-72.5667
 21
6.39639
  0
LINE
  8
0
 10
-72.5667
 20
6.39639
 11
-73.0229
 21
6.20986
  0
LINE
  8
0
 10
-73.0229
 20
6.20986
 11
-81.7397
 21
2.54507
  0
LINE
  8
0
 10
-81.7397
 20
2.54507
 11
-87.01
 21
0.129396
  0
LINE
  8
0
 10
-87.01
 20
0.129396
 11
-87.5599
 21
-0.117787
  0
ENDSEC
  0
SECTION
  2
OBJECTS
  0
DICTIONARY
  0
ENDSEC
  0
EOF
