  0
SECTION
  2
BLOCKS
  0
ENDSEC
  0
SECTION
  2
ENTITIES
  0
LINE
  8
0
 10
21.444
 20
-28.3502
 11
21.7608
 21
-28.344
  0
LINE
  8
0
 10
21.7608
 20
-28.344
 11
22.1664
 21
-28.3342
  0
LINE
  8
0
 10
22.1664
 20
-28.3342
 11
22.2076
 21
-28.333
  0
LINE
  8
0
 10
22.2076
 20
-28.333
 11
24.2061
 21
-28.223
  0
LINE
  8
0
 10
24.2061
 20
-28.223
 11
24.4147
 21
-28.2104
  0
LINE
  8
0
 10
24.4147
 20
-28.2104
 11
25.9976
 21
-28.0955
  0
LINE
  8
0
 10
25.9976
 20
-28.0955
 11
26.23
 21
-28.0742
  0
LINE
  8
0
 10
26.23
 20
-28.0742
 11
26.2941
 21
-28.0675
  0
LINE
  8
0
 10
26.2941
 20
-28.0675
 11
27.1573
 21
-27.9512
  0
LINE
  8
0
 10
27.1573
 20
-27.9512
 11
28.7666
 21
-27.7498
  0
LINE
  8
0
 10
28.7666
 20
-27.7498
 11
29.3378
 21
-27.6521
  0
LINE
  8
0
 10
29.3378
 20
-27.6521
 11
30.1033
 21
-27.5206
  0
LINE
  8
0
 10
30.1033
 20
-27.5206
 11
30.1083
 21
-27.5197
  0
LINE
  8
0
 10
30.1083
 20
-27.5197
 11
31.6769
 21
-27.1485
  0
LINE
  8
0
 10
31.6769
 20
-27.1485
 11
34.2707
 21
-26.5338
  0
LINE
  8
0
 10
34.2707
 20
-26.5338
 11
34.2733
 21
-26.5331
  0
LINE
  8
0
 10
34.2733
 20
-26.5331
 11
35.243
 21
-26.2302
  0
LINE
  8
0
 10
35.243
 20
-26.2302
 11
36.5221
 21
-25.8313
  0
LINE
  8
0
 10
36.5221
 20
-25.8313
 11
37.2455
 21
-25.5701
  0
LINE
  8
0
 10
37.2455
 20
-25.5701
 11
38.4061
 21
-25.1524
  0
LINE
  8
0
 10
38.4061
 20
-25.1524
 11
38.4129
 21
-25.1497
  0
LINE
  8
0
 10
38.4129
 20
-25.1497
 11
39.9496
 21
-24.4832
  0
LINE
  8
0
 10
39.9496
 20
-24.4832
 11
41.7798
 21
-23.7194
  0
LINE
  8
0
 10
41.7798
 20
-23.7194
 11
41.8659
 21
-23.679
  0
LINE
  8
0
 10
41.8659
 20
-23.679
 11
42.3708
 21
-23.4265
  0
LINE
  8
0
 10
42.3708
 20
-23.4265
 11
43.694
 21
-22.7861
  0
LINE
  8
0
 10
43.694
 20
-22.7861
 11
44.4341
 21
-22.3844
  0
LINE
  8
0
 10
44.4341
 20
-22.3844
 11
45.436
 21
-21.8458
  0
LINE
  8
0
 10
45.436
 20
-21.8458
 11
45.4612
 21
-21.8316
  0
LINE
  8
0
 10
45.4612
 20
-21.8316
 11
46.9506
 21
-20.9023
  0
LINE
  8
0
 10
46.9506
 20
-20.9023
 11
49.0316
 21
-19.6144
  0
LINE
  8
0
 10
49.0316
 20
-19.6144
 11
49.0344
 21
-19.6125
  0
LINE
  8
0
 10
49.0344
 20
-19.6125
 11
49.4791
 21
-19.3
  0
LINE
  8
0
 10
49.4791
 20
-19.3
 11
50.1841
 21
-18.8039
  0
LINE
  8
0
 10
50.1841
 20
-18.8039
 11
51.0423
 21
-18.1456
  0
LINE
  8
0
 10
51.0423
 20
-18.1456
 11
52.3223
 21
-17.1516
  0
LINE
  8
0
 10
52.3223
 20
-17.1516
 11
52.3503
 21
-17.1286
  0
LINE
  8
0
 10
52.3503
 20
-17.1286
 11
53.4242
 21
-16.1733
  0
LINE
  8
0
 10
53.4242
 20
-16.1733
 11
54.8945
 21
-14.8498
  0
LINE
  8
0
 10
54.8945
 20
-14.8498
 11
55.0522
 21
-14.6932
  0
LINE
  8
0
 10
55.0522
 20
-14.6932
 11
55.2805
 21
-14.4668
  0
LINE
  8
0
 10
55.2805
 20
-14.4668
 11
55.6943
 21
-14.0344
  0
LINE
  8
0
 10
55.6943
 20
-14.0344
 11
56.8251
 21
-12.7893
  0
LINE
  8
0
 10
56.8251
 20
-12.7893
 11
56.904
 21
-12.699
  0
LINE
  8
0
 10
56.904
 20
-12.699
 11
57.6858
 21
-11.762
  0
LINE
  8
0
 10
57.6858
 20
-11.762
 11
57.7447
 21
-11.6872
  0
LINE
  8
0
 10
57.7447
 20
-11.6872
 11
58.1852
 21
-11.0608
  0
LINE
  8
0
 10
58.1852
 20
-11.0608
 11
59.1843
 21
-9.71173
  0
LINE
  8
0
 10
59.1843
 20
-9.71173
 11
59.3013
 21
-9.5309
  0
LINE
  8
0
 10
59.3013
 20
-9.5309
 11
59.5882
 21
-9.06609
  0
LINE
  8
0
 10
59.5882
 20
-9.06609
 11
59.8761
 21
-8.59566
  0
LINE
  8
0
 10
59.8761
 20
-8.59566
 11
59.8811
 21
-8.58704
  0
LINE
  8
0
 10
59.8811
 20
-8.58704
 11
59.9786
 21
-8.41479
  0
LINE
  8
0
 10
59.9786
 20
-8.41479
 11
60.4519
 21
-7.4231
  0
LINE
  8
0
 10
60.4519
 20
-7.4231
 11
61.169
 21
-5.99765
  0
LINE
  8
0
 10
61.169
 20
-5.99765
 11
61.1768
 21
-5.97859
  0
LINE
  8
0
 10
61.1768
 20
-5.97859
 11
61.2424
 21
-5.81023
  0
LINE
  8
0
 10
61.2424
 20
-5.81023
 11
61.3821
 21
-5.45976
  0
LINE
  8
0
 10
61.3821
 20
-5.45976
 11
61.6304
 21
-4.65846
  0
LINE
  8
0
 10
61.6304
 20
-4.65846
 11
61.9931
 21
-3.50618
  0
LINE
  8
0
 10
61.9931
 20
-3.50618
 11
61.9955
 21
-3.49632
  0
LINE
  8
0
 10
61.9955
 20
-3.49632
 11
62.0747
 21
-3.12746
  0
LINE
  8
0
 10
62.0747
 20
-3.12746
 11
62.1902
 21
-2.59833
  0
LINE
  8
0
 10
62.1902
 20
-2.59833
 11
62.1907
 21
-2.59601
  0
LINE
  8
0
 10
62.1907
 20
-2.59601
 11
62.2665
 21
-2.05544
  0
LINE
  8
0
 10
62.2665
 20
-2.05544
 11
62.3795
 21
-1.24361
  0
LINE
  8
0
 10
62.3795
 20
-1.24361
 11
62.4057
 21
-0.79007
  0
LINE
  8
0
 10
62.4057
 20
-0.79007
 11
62.4365
 21
-0.251587
  0
LINE
  8
0
 10
62.4365
 20
-0.251587
 11
62.4365
 21
-0.250473
  0
LINE
  8
0
 10
62.4365
 20
-0.250473
 11
62.3816
 21
0.662354
  0
LINE
  8
0
 10
62.3816
 20
0.662354
 11
62.3722
 21
0.81723
  0
LINE
  8
0
 10
62.3722
 20
0.81723
 11
62.2928
 21
2.0845
  0
LINE
  8
0
 10
62.2928
 20
2.0845
 11
62.2738
 21
2.21037
  0
LINE
  8
0
 10
62.2738
 20
2.21037
 11
62.2135
 21
2.56847
  0
LINE
  8
0
 10
62.2135
 20
2.56847
 11
62.2082
 21
2.59839
  0
LINE
  8
0
 10
62.2082
 20
2.59839
 11
62.1588
 21
2.86682
  0
LINE
  8
0
 10
62.1588
 20
2.86682
 11
62.1301
 21
3.01105
  0
LINE
  8
0
 10
62.1301
 20
3.01105
 11
61.9101
 21
3.83353
  0
LINE
  8
0
 10
61.9101
 20
3.83353
 11
61.59
 21
4.9812
  0
LINE
  8
0
 10
61.59
 20
4.9812
 11
61.5821
 21
5.00443
  0
LINE
  8
0
 10
61.5821
 20
5.00443
 11
61.1958
 21
5.95346
  0
LINE
  8
0
 10
61.1958
 20
5.95346
 11
60.6692
 21
7.21257
  0
LINE
  8
0
 10
60.6692
 20
7.21257
 11
60.6649
 21
7.22151
  0
LINE
  8
0
 10
60.6649
 20
7.22151
 11
60.5898
 21
7.37329
  0
LINE
  8
0
 10
60.5898
 20
7.37329
 11
60.4788
 21
7.59271
  0
LINE
  8
0
 10
60.4788
 20
7.59271
 11
60.4673
 21
7.61497
  0
LINE
  8
0
 10
60.4673
 20
7.61497
 11
60.2019
 21
8.11275
  0
LINE
  8
0
 10
60.2019
 20
8.11275
 11
60.1801
 21
8.15271
  0
LINE
  8
0
 10
60.1801
 20
8.15271
 11
59.5325
 21
9.20763
  0
LINE
  8
0
 10
59.5325
 20
9.20763
 11
59.4418
 21
9.35069
  0
LINE
  8
0
 10
59.4418
 20
9.35069
 11
58.5638
 21
10.7086
  0
LINE
  8
0
 10
58.5638
 20
10.7086
 11
58.5446
 21
10.7353
  0
LINE
  8
0
 10
58.5446
 20
10.7353
 11
58.2144
 21
11.1795
  0
LINE
  8
0
 10
58.2144
 20
11.1795
 11
57.8663
 21
11.6395
  0
LINE
  8
0
 10
57.8663
 20
11.6395
 11
57.3057
 21
12.3113
  0
LINE
  8
0
 10
57.3057
 20
12.3113
 11
56.5529
 21
13.2069
  0
LINE
  8
0
 10
56.5529
 20
13.2069
 11
56.5426
 21
13.2184
  0
LINE
  8
0
 10
56.5426
 20
13.2184
 11
55.957
 21
13.8372
  0
LINE
  8
0
 10
55.957
 20
13.8372
 11
55.2231
 21
14.6127
  0
LINE
  8
0
 10
55.2231
 20
14.6127
 11
55.2113
 21
14.6245
  0
LINE
  8
0
 10
55.2113
 20
14.6245
 11
54.3302
 21
15.4405
  0
LINE
  8
0
 10
54.3302
 20
15.4405
 11
53.1711
 21
16.5209
  0
LINE
  8
0
 10
53.1711
 20
16.5209
 11
52.782
 21
16.851
  0
LINE
  8
0
 10
52.782
 20
16.851
 11
52.3601
 21
17.2039
  0
LINE
  8
0
 10
52.3601
 20
17.2039
 11
52.3273
 21
17.2308
  0
LINE
  8
0
 10
52.3273
 20
17.2308
 11
50.6505
 21
18.5076
  0
LINE
  8
0
 10
50.6505
 20
18.5076
 11
50.4737
 21
18.6403
  0
LINE
  8
0
 10
50.4737
 20
18.6403
 11
49.1794
 21
19.5895
  0
LINE
  8
0
 10
49.1794
 20
19.5895
 11
49.1204
 21
19.6298
  0
LINE
  8
0
 10
49.1204
 20
19.6298
 11
48.2778
 21
20.1643
  0
LINE
  8
0
 10
48.2778
 20
20.1643
 11
46.7664
 21
21.1456
  0
LINE
  8
0
 10
46.7664
 20
21.1456
 11
46.4094
 21
21.358
  0
LINE
  8
0
 10
46.4094
 20
21.358
 11
45.7096
 21
21.7607
  0
LINE
  8
0
 10
45.7096
 20
21.7607
 11
45.6204
 21
21.8113
  0
LINE
  8
0
 10
45.6204
 20
21.8113
 11
43.8778
 21
22.7534
  0
LINE
  8
0
 10
43.8778
 20
22.7534
 11
43.1421
 21
23.1398
  0
LINE
  8
0
 10
43.1421
 20
23.1398
 11
43.1287
 21
23.1465
  0
LINE
  8
0
 10
43.1287
 20
23.1465
 11
41.712
 21
23.79
  0
LINE
  8
0
 10
41.712
 20
23.79
 11
39.4669
 21
24.8042
  0
LINE
  8
0
 10
39.4669
 20
24.8042
 11
39.4209
 21
24.8229
  0
LINE
  8
0
 10
39.4209
 20
24.8229
 11
39.1259
 21
24.9413
  0
LINE
  8
0
 10
39.1259
 20
24.9413
 11
37.653
 21
25.4689
  0
LINE
  8
0
 10
37.653
 20
25.4689
 11
37.4038
 21
25.5571
  0
LINE
  8
0
 10
37.4038
 20
25.5571
 11
35.0709
 21
26.3658
  0
LINE
  8
0
 10
35.0709
 20
26.3658
 11
35.0284
 21
26.3787
  0
LINE
  8
0
 10
35.0284
 20
26.3787
 11
33.7724
 21
26.7212
  0
LINE
  8
0
 10
33.7724
 20
26.7212
 11
32.0292
 21
27.1841
  0
LINE
  8
0
 10
32.0292
 20
27.1841
 11
31.7498
 21
27.2471
  0
LINE
  8
0
 10
31.7498
 20
27.2471
 11
30.9358
 21
27.4226
  0
LINE
  8
0
 10
30.9358
 20
27.4226
 11
30.8783
 21
27.4346
  0
LINE
  8
0
 10
30.8783
 20
27.4346
 11
29.8578
 21
27.6234
  0
LINE
  8
0
 10
29.8578
 20
27.6234
 11
29.7229
 21
27.6471
  0
LINE
  8
0
 10
29.7229
 20
27.6471
 11
27.5116
 21
27.9843
  0
LINE
  8
0
 10
27.5116
 20
27.9843
 11
27.3701
 21
28.0028
  0
LINE
  8
0
 10
27.3701
 20
28.0028
 11
26.0104
 21
28.1575
  0
LINE
  8
0
 10
26.0104
 20
28.1575
 11
25.2716
 21
28.2296
  0
LINE
  8
0
 10
25.2716
 20
28.2296
 11
24.975
 21
28.2537
  0
LINE
  8
0
 10
24.975
 20
28.2537
 11
24.7089
 21
28.2726
  0
LINE
  8
0
 10
24.7089
 20
28.2726
 11
23.2656
 21
28.3489
  0
LINE
  8
0
 10
23.2656
 20
28.3489
 11
23.1274
 21
28.3554
  0
LINE
  8
0
 10
23.1274
 20
28.3554
 11
21.2583
 21
28.3951
  0
LINE
  8
0
 10
21.2583
 20
28.3951
 11
21.0444
 21
28.396
  0
LINE
  8
0
 10
21.0444
 20
28.396
 11
18.6138
 21
28.3825
  0
LINE
  8
0
 10
18.6138
 20
28.3825
 11
18.5238
 21
28.3799
  0
LINE
  8
0
 10
18.5238
 20
28.3799
 11
17.8875
 21
28.3592
  0
LINE
  8
0
 10
17.8875
 20
28.3592
 11
17.6219
 21
28.3481
  0
LINE
  8
0
 10
17.6219
 20
28.3481
 11
15.9673
 21
28.2331
  0
LINE
  8
0
 10
15.9673
 20
28.2331
 11
13.7047
 21
28.0716
  0
LINE
  8
0
 10
13.7047
 20
28.0716
 11
13.6832
 21
28.0696
  0
LINE
  8
0
 10
13.6832
 20
28.0696
 11
11.8466
 21
27.8549
  0
LINE
  8
0
 10
11.8466
 20
27.8549
 11
8.95287
 21
27.5123
  0
LINE
  8
0
 10
8.95287
 20
27.5123
 11
5.77129
 21
27.0529
  0
LINE
  8
0
 10
5.77129
 20
27.0529
 11
1.43002
 21
26.3848
  0
LINE
  8
0
 10
1.43002
 20
26.3848
 11
0.986893
 21
26.3133
  0
LINE
  8
0
 10
0.986893
 20
26.3133
 11
-5.25943
 21
25.2605
  0
LINE
  8
0
 10
-5.25943
 20
25.2605
 11
-5.59714
 21
25.2004
  0
LINE
  8
0
 10
-5.59714
 20
25.2004
 11
-10.0215
 21
24.3717
  0
LINE
  8
0
 10
-10.0215
 20
24.3717
 11
-14.0866
 21
23.5815
  0
LINE
  8
0
 10
-14.0866
 20
23.5815
 11
-14.1371
 21
23.5712
  0
LINE
  8
0
 10
-14.1371
 20
23.5712
 11
-18.8174
 21
22.5856
  0
LINE
  8
0
 10
-18.8174
 20
22.5856
 11
-18.8238
 21
22.5842
  0
LINE
  8
0
 10
-18.8238
 20
22.5842
 11
-23.3151
 21
21.5348
  0
LINE
  8
0
 10
-23.3151
 20
21.5348
 11
-30.2308
 21
19.9179
  0
LINE
  8
0
 10
-30.2308
 20
19.9179
 11
-34.4492
 21
18.8353
  0
LINE
  8
0
 10
-34.4492
 20
18.8353
 11
-34.8949
 21
18.7176
  0
LINE
  8
0
 10
-34.8949
 20
18.7176
 11
-37.7653
 21
17.9319
  0
LINE
  8
0
 10
-37.7653
 20
17.9319
 11
-38.183
 21
17.8171
  0
LINE
  8
0
 10
-38.183
 20
17.8171
 11
-44.0739
 21
16.1528
  0
LINE
  8
0
 10
-44.0739
 20
16.1528
 11
-46.2382
 21
15.5211
  0
LINE
  8
0
 10
-46.2382
 20
15.5211
 11
-46.2648
 21
15.5132
  0
LINE
  8
0
 10
-46.2648
 20
15.5132
 11
-49.4388
 21
14.5237
  0
LINE
  8
0
 10
-49.4388
 20
14.5237
 11
-53.6543
 21
13.2067
  0
LINE
  8
0
 10
-53.6543
 20
13.2067
 11
-54.962
 21
12.776
  0
LINE
  8
0
 10
-54.962
 20
12.776
 11
-56.8502
 21
12.1506
  0
LINE
  8
0
 10
-56.8502
 20
12.1506
 11
-56.9141
 21
12.1291
  0
LINE
  8
0
 10
-56.9141
 20
12.1291
 11
-61.2045
 21
10.6151
  0
LINE
  8
0
 10
-61.2045
 20
10.6151
 11
-61.7811
 21
10.4106
  0
LINE
  8
0
 10
-61.7811
 20
10.4106
 11
-67.1279
 21
8.49876
  0
LINE
  8
0
 10
-67.1279
 20
8.49876
 11
-67.2196
 21
8.46432
  0
LINE
  8
0
 10
-67.2196
 20
8.46432
 11
-69.2994
 21
7.66951
  0
LINE
  8
0
 10
-69.2994
 20
7.66951
 11
-69.9939
 21
7.40492
  0
LINE
  8
0
 10
-69.9939
 20
7.40492
 11
-71.1488
 21
6.95709
  0
LINE
  8
0
 10
-71.1488
 20
6.95709
 11
-71.9091
 21
6.65642
  0
LINE
  8
0
 10
-71.9091
 20
6.65642
 11
-75.5607
 21
5.16345
  0
LINE
  8
0
 10
-75.5607
 20
5.16345
 11
-75.9233
 21
5.01398
  0
LINE
  8
0
 10
-75.9233
 20
5.01398
 11
-80.0891
 21
3.26251
  0
LINE
  8
0
 10
-80.0891
 20
3.26251
 11
-80.2954
 21
3.17284
  0
LINE
  8
0
 10
-80.2954
 20
3.17284
 11
-83.1581
 21
1.8607
  0
LINE
  8
0
 10
-83.1581
 20
1.8607
 11
-87.5599
 21
-0.117813
  0
LINE
  8
0
 10
-87.5599
 20
-0.117813
 11
-84.9834
 21
-1.29044
  0
LINE
  8
0
 10
-84.9834
 20
-1.29044
 11
-82.975
 21
-2.21504
  0
LINE
  8
0
 10
-82.975
 20
-2.21504
 11
-82.8599
 21
-2.26627
  0
LINE
  8
0
 10
-82.8599
 20
-2.26627
 11
-78.4396
 21
-4.11069
  0
LINE
  8
0
 10
-78.4396
 20
-4.11069
 11
-73.9045
 21
-6.04936
  0
LINE
  8
0
 10
-73.9045
 20
-6.04936
 11
-73.7644
 21
-6.10553
  0
LINE
  8
0
 10
-73.7644
 20
-6.10553
 11
-73.467
 21
-6.22282
  0
LINE
  8
0
 10
-73.467
 20
-6.22282
 11
-72.056
 21
-6.78642
  0
LINE
  8
0
 10
-72.056
 20
-6.78642
 11
-69.1913
 21
-7.87791
  0
LINE
  8
0
 10
-69.1913
 20
-7.87791
 11
-66.0298
 21
-9.07806
  0
LINE
  8
0
 10
-66.0298
 20
-9.07806
 11
-65.9873
 21
-9.0937
  0
LINE
  8
0
 10
-65.9873
 20
-9.0937
 11
-61.6075
 21
-10.6259
  0
LINE
  8
0
 10
-61.6075
 20
-10.6259
 11
-61.0183
 21
-10.8313
  0
LINE
  8
0
 10
-61.0183
 20
-10.8313
 11
-56.2458
 21
-12.4937
  0
LINE
  8
0
 10
-56.2458
 20
-12.4937
 11
-55.3924
 21
-12.7736
  0
LINE
  8
0
 10
-55.3924
 20
-12.7736
 11
-54.5616
 21
-13.046
  0
LINE
  8
0
 10
-54.5616
 20
-13.046
 11
-50.9246
 21
-14.1749
  0
LINE
  8
0
 10
-50.9246
 20
-14.1749
 11
-46.1271
 21
-15.666
  0
LINE
  8
0
 10
-46.1271
 20
-15.666
 11
-46.1111
 21
-15.6708
  0
LINE
  8
0
 10
-46.1111
 20
-15.6708
 11
-43.9458
 21
-16.2964
  0
LINE
  8
0
 10
-43.9458
 20
-16.2964
 11
-38.1745
 21
-17.9093
  0
LINE
  8
0
 10
-38.1745
 20
-17.9093
 11
-37.7613
 21
-18.0217
  0
LINE
  8
0
 10
-37.7613
 20
-18.0217
 11
-34.535
 21
-18.8912
  0
LINE
  8
0
 10
-34.535
 20
-18.8912
 11
-33.5274
 21
-19.1532
  0
LINE
  8
0
 10
-33.5274
 20
-19.1532
 11
-31.9488
 21
-19.5518
  0
LINE
  8
0
 10
-31.9488
 20
-19.5518
 11
-26.8717
 21
-20.7875
  0
LINE
  8
0
 10
-26.8717
 20
-20.7875
 11
-26.4592
 21
-20.8859
  0
LINE
  8
0
 10
-26.4592
 20
-20.8859
 11
-21.9173
 21
-21.9341
  0
LINE
  8
0
 10
-21.9173
 20
-21.9341
 11
-21.5603
 21
-22.0133
  0
LINE
  8
0
 10
-21.5603
 20
-22.0133
 11
-19.4428
 21
-22.4533
  0
LINE
  8
0
 10
-19.4428
 20
-22.4533
 11
-14.1247
 21
-23.5986
  0
LINE
  8
0
 10
-14.1247
 20
-23.5986
 11
-12.0175
 21
-24.0164
  0
LINE
  8
0
 10
-12.0175
 20
-24.0164
 11
-2.48676
 21
-25.7478
  0
LINE
  8
0
 10
-2.48676
 20
-25.7478
 11
9.02704
 21
-27.4877
  0
LINE
  8
0
 10
9.02704
 20
-27.4877
 11
10.1946
 21
-27.6367
  0
LINE
  8
0
 10
10.1946
 20
-27.6367
 11
11.9232
 21
-27.8362
  0
LINE
  8
0
 10
11.9232
 20
-27.8362
 11
12.1149
 21
-27.8567
  0
LINE
  8
0
 10
12.1149
 20
-27.8567
 11
15.3413
 21
-28.1477
  0
LINE
  8
0
 10
15.3413
 20
-28.1477
 11
15.553
 21
-28.1635
  0
LINE
  8
0
 10
15.553
 20
-28.1635
 11
17.2299
 21
-28.273
  0
LINE
  8
0
 10
17.2299
 20
-28.273
 11
17.3326
 21
-28.2776
  0
LINE
  8
0
 10
17.3326
 20
-28.2776
 11
19.993
 21
-28.3347
  0
LINE
  8
0
 10
19.993
 20
-28.3347
 11
21.444
 21
-28.3502
  0
ENDSEC
  0
SECTION
  2
OBJECTS
  0
DICTIONARY
  0
ENDSEC
  0
EOF
