  0
SECTION
  2
BLOCKS
  0
ENDSEC
  0
SECTION
  2
ENTITIES
  0
LINE
  8
0
 10
-87.5599
 20
-0.117814
 11
-84.6451
 21
-1.44441
  0
LINE
  8
0
 10
-84.6451
 20
-1.44441
 11
-82.8599
 21
-2.26627
  0
LINE
  8
0
 10
-82.8599
 20
-2.26627
 11
-78.073
 21
-4.26365
  0
LINE
  8
0
 10
-78.073
 20
-4.26365
 11
-73.7644
 21
-6.10554
  0
LINE
  8
0
 10
-73.7644
 20
-6.10554
 11
-73.467
 21
-6.22284
  0
LINE
  8
0
 10
-73.467
 20
-6.22284
 11
-72.056
 21
-6.78643
  0
LINE
  8
0
 10
-72.056
 20
-6.78643
 11
-69.1913
 21
-7.87792
  0
LINE
  8
0
 10
-69.1913
 20
-7.87792
 11
-66.0298
 21
-9.07807
  0
LINE
  8
0
 10
-66.0298
 20
-9.07807
 11
-61.0183
 21
-10.8313
  0
LINE
  8
0
 10
-61.0183
 20
-10.8313
 11
-56.2458
 21
-12.4937
  0
LINE
  8
0
 10
-56.2458
 20
-12.4937
 11
-55.3924
 21
-12.7736
  0
LINE
  8
0
 10
-55.3924
 20
-12.7736
 11
-54.5616
 21
-13.046
  0
LINE
  8
0
 10
-54.5616
 20
-13.046
 11
-50.3755
 21
-14.3454
  0
LINE
  8
0
 10
-50.3755
 20
-14.3454
 11
-46.1111
 21
-15.6708
  0
LINE
  8
0
 10
-46.1111
 20
-15.6708
 11
-43.9458
 21
-16.2964
  0
LINE
  8
0
 10
-43.9458
 20
-16.2964
 11
-38.1745
 21
-17.9093
  0
LINE
  8
0
 10
-38.1745
 20
-17.9093
 11
-34.4231
 21
-18.9203
  0
LINE
  8
0
 10
-34.4231
 20
-18.9203
 11
-33.5274
 21
-19.1532
  0
LINE
  8
0
 10
-33.5274
 20
-19.1532
 11
-31.9488
 21
-19.5518
  0
LINE
  8
0
 10
-31.9488
 20
-19.5518
 11
-26.8717
 21
-20.7875
  0
LINE
  8
0
 10
-26.8717
 20
-20.7875
 11
-21.5604
 21
-22.0133
  0
LINE
  8
0
 10
-21.5604
 20
-22.0133
 11
-19.4428
 21
-22.4533
  0
LINE
  8
0
 10
-19.4428
 20
-22.4533
 11
-14.1258
 21
-23.5984
  0
LINE
  8
0
 10
-14.1258
 20
-23.5984
 11
-13.1599
 21
-23.7899
  0
LINE
  8
0
 10
-13.1599
 20
-23.7899
 11
-12.0176
 21
-24.0164
  0
LINE
  8
0
 10
-12.0176
 20
-24.0164
 11
-7.68153
 21
-24.8041
  0
LINE
  8
0
 10
-7.68153
 20
-24.8041
 11
-2.48676
 21
-25.7478
  0
LINE
  8
0
 10
-2.48676
 20
-25.7478
 11
2.68929
 21
-26.53
  0
LINE
  8
0
 10
2.68929
 20
-26.53
 11
9.02705
 21
-27.4877
  0
LINE
  8
0
 10
9.02705
 20
-27.4877
 11
10.0649
 21
-27.6201
  0
LINE
  8
0
 10
10.0649
 20
-27.6201
 11
12.1149
 21
-27.8567
  0
LINE
  8
0
 10
12.1149
 20
-27.8567
 11
15.3413
 21
-28.1477
  0
LINE
  8
0
 10
15.3413
 20
-28.1477
 11
17.3326
 21
-28.2777
  0
LINE
  8
0
 10
17.3326
 20
-28.2777
 11
19.993
 21
-28.3347
  0
LINE
  8
0
 10
19.993
 20
-28.3347
 11
21.444
 21
-28.3502
  0
LINE
  8
0
 10
21.444
 20
-28.3502
 11
21.7256
 21
-28.3447
  0
LINE
  8
0
 10
21.7256
 20
-28.3447
 11
22.2076
 21
-28.333
  0
LINE
  8
0
 10
22.2076
 20
-28.333
 11
24.2061
 21
-28.223
  0
LINE
  8
0
 10
24.2061
 20
-28.223
 11
26.0876
 21
-28.0865
  0
LINE
  8
0
 10
26.0876
 20
-28.0865
 11
26.2941
 21
-28.0675
  0
LINE
  8
0
 10
26.2941
 20
-28.0675
 11
27.1575
 21
-27.9512
  0
LINE
  8
0
 10
27.1575
 20
-27.9512
 11
28.7666
 21
-27.7498
  0
LINE
  8
0
 10
28.7666
 20
-27.7498
 11
29.3378
 21
-27.6521
  0
LINE
  8
0
 10
29.3378
 20
-27.6521
 11
30.1033
 21
-27.5206
  0
LINE
  8
0
 10
30.1033
 20
-27.5206
 11
31.9678
 21
-27.0795
  0
LINE
  8
0
 10
31.9678
 20
-27.0795
 11
34.2734
 21
-26.5331
  0
LINE
  8
0
 10
34.2734
 20
-26.5331
 11
35.2562
 21
-26.2261
  0
LINE
  8
0
 10
35.2562
 20
-26.2261
 11
36.5221
 21
-25.8313
  0
LINE
  8
0
 10
36.5221
 20
-25.8313
 11
37.3813
 21
-25.5211
  0
LINE
  8
0
 10
37.3813
 20
-25.5211
 11
38.4129
 21
-25.1498
  0
LINE
  8
0
 10
38.4129
 20
-25.1498
 11
40.2201
 21
-24.3658
  0
LINE
  8
0
 10
40.2201
 20
-24.3658
 11
41.8659
 21
-23.679
  0
LINE
  8
0
 10
41.8659
 20
-23.679
 11
42.3708
 21
-23.4265
  0
LINE
  8
0
 10
42.3708
 20
-23.4265
 11
43.694
 21
-22.7861
  0
LINE
  8
0
 10
43.694
 20
-22.7861
 11
44.5686
 21
-22.3114
  0
LINE
  8
0
 10
44.5686
 20
-22.3114
 11
45.4612
 21
-21.8316
  0
LINE
  8
0
 10
45.4612
 20
-21.8316
 11
46.9506
 21
-20.9023
  0
LINE
  8
0
 10
46.9506
 20
-20.9023
 11
49.0316
 21
-19.6144
  0
LINE
  8
0
 10
49.0316
 20
-19.6144
 11
49.5574
 21
-19.2448
  0
LINE
  8
0
 10
49.5574
 20
-19.2448
 11
50.1841
 21
-18.8039
  0
LINE
  8
0
 10
50.1841
 20
-18.8039
 11
51.0423
 21
-18.1456
  0
LINE
  8
0
 10
51.0423
 20
-18.1456
 11
52.3223
 21
-17.1516
  0
LINE
  8
0
 10
52.3223
 20
-17.1516
 11
53.5898
 21
-16.0241
  0
LINE
  8
0
 10
53.5898
 20
-16.0241
 11
54.8967
 21
-14.8477
  0
LINE
  8
0
 10
54.8967
 20
-14.8477
 11
55.0623
 21
-14.6832
  0
LINE
  8
0
 10
55.0623
 20
-14.6832
 11
55.2805
 21
-14.4668
  0
LINE
  8
0
 10
55.2805
 20
-14.4668
 11
55.6943
 21
-14.0344
  0
LINE
  8
0
 10
55.6943
 20
-14.0344
 11
56.8251
 21
-12.7893
  0
LINE
  8
0
 10
56.8251
 20
-12.7893
 11
57.7447
 21
-11.6872
  0
LINE
  8
0
 10
57.7447
 20
-11.6872
 11
58.1852
 21
-11.0608
  0
LINE
  8
0
 10
58.1852
 20
-11.0608
 11
59.1843
 21
-9.71173
  0
LINE
  8
0
 10
59.1843
 20
-9.71173
 11
59.2883
 21
-9.551
  0
LINE
  8
0
 10
59.2883
 20
-9.551
 11
59.6252
 21
-9.00521
  0
LINE
  8
0
 10
59.6252
 20
-9.00521
 11
59.8811
 21
-8.58705
  0
LINE
  8
0
 10
59.8811
 20
-8.58705
 11
59.9786
 21
-8.4148
  0
LINE
  8
0
 10
59.9786
 20
-8.4148
 11
60.4847
 21
-7.35449
  0
LINE
  8
0
 10
60.4847
 20
-7.35449
 11
61.1768
 21
-5.9786
  0
LINE
  8
0
 10
61.1768
 20
-5.9786
 11
61.2424
 21
-5.81024
  0
LINE
  8
0
 10
61.2424
 20
-5.81024
 11
61.3821
 21
-5.45977
  0
LINE
  8
0
 10
61.3821
 20
-5.45977
 11
61.6731
 21
-4.52057
  0
LINE
  8
0
 10
61.6731
 20
-4.52057
 11
61.9955
 21
-3.49633
  0
LINE
  8
0
 10
61.9955
 20
-3.49633
 11
62.0747
 21
-3.12746
  0
LINE
  8
0
 10
62.0747
 20
-3.12746
 11
62.1902
 21
-2.59833
  0
LINE
  8
0
 10
62.1902
 20
-2.59833
 11
62.2791
 21
-1.96523
  0
LINE
  8
0
 10
62.2791
 20
-1.96523
 11
62.3795
 21
-1.24362
  0
LINE
  8
0
 10
62.3795
 20
-1.24362
 11
62.4057
 21
-0.790078
  0
LINE
  8
0
 10
62.4057
 20
-0.790078
 11
62.4365
 21
-0.251588
  0
LINE
  8
0
 10
62.4365
 20
-0.251588
 11
62.3722
 21
0.817233
  0
LINE
  8
0
 10
62.3722
 20
0.817233
 11
62.2928
 21
2.08451
  0
LINE
  8
0
 10
62.2928
 20
2.08451
 11
62.2738
 21
2.21038
  0
LINE
  8
0
 10
62.2738
 20
2.21038
 11
62.2135
 21
2.56848
  0
LINE
  8
0
 10
62.2135
 20
2.56848
 11
62.1556
 21
2.88286
  0
LINE
  8
0
 10
62.1556
 20
2.88286
 11
62.1301
 21
3.01105
  0
LINE
  8
0
 10
62.1301
 20
3.01105
 11
61.9101
 21
3.83354
  0
LINE
  8
0
 10
61.9101
 20
3.83354
 11
61.5899
 21
4.9812
  0
LINE
  8
0
 10
61.5899
 20
4.9812
 11
61.1373
 21
6.09338
  0
LINE
  8
0
 10
61.1373
 20
6.09338
 11
60.6692
 21
7.21258
  0
LINE
  8
0
 10
60.6692
 20
7.21258
 11
60.6649
 21
7.22152
  0
LINE
  8
0
 10
60.6649
 20
7.22152
 11
60.5976
 21
7.3576
  0
LINE
  8
0
 10
60.5976
 20
7.3576
 11
60.4673
 21
7.61499
  0
LINE
  8
0
 10
60.4673
 20
7.61499
 11
60.2019
 21
8.11276
  0
LINE
  8
0
 10
60.2019
 20
8.11276
 11
59.4418
 21
9.35069
  0
LINE
  8
0
 10
59.4418
 20
9.35069
 11
58.5638
 21
10.7086
  0
LINE
  8
0
 10
58.5638
 20
10.7086
 11
58.1757
 21
11.2306
  0
LINE
  8
0
 10
58.1757
 20
11.2306
 11
57.8663
 21
11.6395
  0
LINE
  8
0
 10
57.8663
 20
11.6395
 11
57.3057
 21
12.3113
  0
LINE
  8
0
 10
57.3057
 20
12.3113
 11
56.5529
 21
13.2069
  0
LINE
  8
0
 10
56.5529
 20
13.2069
 11
55.8637
 21
13.9351
  0
LINE
  8
0
 10
55.8637
 20
13.9351
 11
55.2113
 21
14.6245
  0
LINE
  8
0
 10
55.2113
 20
14.6245
 11
54.3302
 21
15.4405
  0
LINE
  8
0
 10
54.3302
 20
15.4405
 11
53.1711
 21
16.5209
  0
LINE
  8
0
 10
53.1711
 20
16.5209
 11
52.8253
 21
16.8143
  0
LINE
  8
0
 10
52.8253
 20
16.8143
 11
52.3273
 21
17.2308
  0
LINE
  8
0
 10
52.3273
 20
17.2308
 11
50.6505
 21
18.5076
  0
LINE
  8
0
 10
50.6505
 20
18.5076
 11
49.1204
 21
19.6298
  0
LINE
  8
0
 10
49.1204
 20
19.6298
 11
48.2778
 21
20.1643
  0
LINE
  8
0
 10
48.2778
 20
20.1643
 11
46.7664
 21
21.1456
  0
LINE
  8
0
 10
46.7664
 20
21.1456
 11
46.4491
 21
21.3344
  0
LINE
  8
0
 10
46.4491
 20
21.3344
 11
45.6204
 21
21.8113
  0
LINE
  8
0
 10
45.6204
 20
21.8113
 11
43.8778
 21
22.7534
  0
LINE
  8
0
 10
43.8778
 20
22.7534
 11
43.1421
 21
23.1398
  0
LINE
  8
0
 10
43.1421
 20
23.1398
 11
41.4625
 21
23.9027
  0
LINE
  8
0
 10
41.4625
 20
23.9027
 11
39.4669
 21
24.8042
  0
LINE
  8
0
 10
39.4669
 20
24.8042
 11
39.4209
 21
24.8229
  0
LINE
  8
0
 10
39.4209
 20
24.8229
 11
39.1522
 21
24.9308
  0
LINE
  8
0
 10
39.1522
 20
24.9308
 11
37.4038
 21
25.5571
  0
LINE
  8
0
 10
37.4038
 20
25.5571
 11
35.0709
 21
26.3658
  0
LINE
  8
0
 10
35.0709
 20
26.3658
 11
33.5787
 21
26.7726
  0
LINE
  8
0
 10
33.5787
 20
26.7726
 11
32.0292
 21
27.1841
  0
LINE
  8
0
 10
32.0292
 20
27.1841
 11
31.7498
 21
27.2471
  0
LINE
  8
0
 10
31.7498
 20
27.2471
 11
30.9358
 21
27.4226
  0
LINE
  8
0
 10
30.9358
 20
27.4226
 11
29.7229
 21
27.6471
  0
LINE
  8
0
 10
29.7229
 20
27.6471
 11
27.5116
 21
27.9843
  0
LINE
  8
0
 10
27.5116
 20
27.9843
 11
25.8954
 21
28.1682
  0
LINE
  8
0
 10
25.8954
 20
28.1682
 11
25.2387
 21
28.2323
  0
LINE
  8
0
 10
25.2387
 20
28.2323
 11
24.975
 21
28.2537
  0
LINE
  8
0
 10
24.975
 20
28.2537
 11
24.7089
 21
28.2726
  0
LINE
  8
0
 10
24.7089
 20
28.2726
 11
23.2656
 21
28.3489
  0
LINE
  8
0
 10
23.2656
 20
28.3489
 11
21.0444
 21
28.3961
  0
LINE
  8
0
 10
21.0444
 20
28.3961
 11
18.6138
 21
28.3825
  0
LINE
  8
0
 10
18.6138
 20
28.3825
 11
17.858
 21
28.358
  0
LINE
  8
0
 10
17.858
 20
28.358
 11
17.6219
 21
28.3481
  0
LINE
  8
0
 10
17.6219
 20
28.3481
 11
15.9673
 21
28.2331
  0
LINE
  8
0
 10
15.9673
 20
28.2331
 11
13.7047
 21
28.0716
  0
LINE
  8
0
 10
13.7047
 20
28.0716
 11
11.5251
 21
27.8168
  0
LINE
  8
0
 10
11.5251
 20
27.8168
 11
8.95287
 21
27.5123
  0
LINE
  8
0
 10
8.95287
 20
27.5123
 11
6.12483
 21
27.1039
  0
LINE
  8
0
 10
6.12483
 20
27.1039
 11
0.986895
 21
26.3133
  0
LINE
  8
0
 10
0.986895
 20
26.3133
 11
-5.25943
 21
25.2605
  0
LINE
  8
0
 10
-5.25943
 20
25.2605
 11
-10.4732
 21
24.2839
  0
LINE
  8
0
 10
-10.4732
 20
24.2839
 11
-14.0866
 21
23.5815
  0
LINE
  8
0
 10
-14.0866
 20
23.5815
 11
-14.1372
 21
23.5712
  0
LINE
  8
0
 10
-14.1372
 20
23.5712
 11
-16.718
 21
23.0278
  0
LINE
  8
0
 10
-16.718
 20
23.0278
 11
-18.8174
 21
22.5856
  0
LINE
  8
0
 10
-18.8174
 20
22.5856
 11
-24.083
 21
21.3553
  0
LINE
  8
0
 10
-24.083
 20
21.3553
 11
-30.2302
 21
19.9181
  0
LINE
  8
0
 10
-30.2302
 20
19.9181
 11
-32.2062
 21
19.411
  0
LINE
  8
0
 10
-32.2062
 20
19.411
 11
-34.4492
 21
18.8353
  0
LINE
  8
0
 10
-34.4492
 20
18.8353
 11
-34.8454
 21
18.7307
  0
LINE
  8
0
 10
-34.8454
 20
18.7307
 11
-38.183
 21
17.8171
  0
LINE
  8
0
 10
-38.183
 20
17.8171
 11
-44.0739
 21
16.1528
  0
LINE
  8
0
 10
-44.0739
 20
16.1528
 11
-46.2382
 21
15.5212
  0
LINE
  8
0
 10
-46.2382
 20
15.5212
 11
-49.9072
 21
14.3774
  0
LINE
  8
0
 10
-49.9072
 20
14.3774
 11
-53.6543
 21
13.2067
  0
LINE
  8
0
 10
-53.6543
 20
13.2067
 11
-54.962
 21
12.776
  0
LINE
  8
0
 10
-54.962
 20
12.776
 11
-56.8502
 21
12.1506
  0
LINE
  8
0
 10
-56.8502
 20
12.1506
 11
-61.7811
 21
10.4106
  0
LINE
  8
0
 10
-61.7811
 20
10.4106
 11
-67.1279
 21
8.49877
  0
LINE
  8
0
 10
-67.1279
 20
8.49877
 11
-69.5049
 21
7.59035
  0
LINE
  8
0
 10
-69.5049
 20
7.59035
 11
-70.1223
 21
7.35517
  0
LINE
  8
0
 10
-70.1223
 20
7.35517
 11
-71.1488
 21
6.9571
  0
LINE
  8
0
 10
-71.1488
 20
6.9571
 11
-71.9091
 21
6.65643
  0
LINE
  8
0
 10
-71.9091
 20
6.65643
 11
-75.5607
 21
5.16346
  0
LINE
  8
0
 10
-75.5607
 20
5.16346
 11
-80.2954
 21
3.17284
  0
LINE
  8
0
 10
-80.2954
 20
3.17284
 11
-83.1581
 21
1.8607
  0
LINE
  8
0
 10
-83.1581
 20
1.8607
 11
-87.5599
 21
-0.117814
  0
ENDSEC
  0
SECTION
  2
OBJECTS
  0
DICTIONARY
  0
ENDSEC
  0
EOF
