  0
SECTION
  2
BLOCKS
  0
ENDSEC
  0
SECTION
  2
ENTITIES
  0
LINE
  8
0
 10
21.444
 20
-28.3502
 11
21.7256
 21
-28.3447
  0
LINE
  8
0
 10
21.7256
 20
-28.3447
 11
22.2076
 21
-28.333
  0
LINE
  8
0
 10
22.2076
 20
-28.333
 11
22.2488
 21
-28.3318
  0
LINE
  8
0
 10
22.2488
 20
-28.3318
 11
23.9975
 21
-28.2355
  0
LINE
  8
0
 10
23.9975
 20
-28.2355
 11
24.2061
 21
-28.223
  0
LINE
  8
0
 10
24.2061
 20
-28.223
 11
26.0876
 21
-28.0865
  0
LINE
  8
0
 10
26.0876
 20
-28.0865
 11
26.2941
 21
-28.0675
  0
LINE
  8
0
 10
26.2941
 20
-28.0675
 11
26.3583
 21
-28.0608
  0
LINE
  8
0
 10
26.3583
 20
-28.0608
 11
27.3587
 21
-27.926
  0
LINE
  8
0
 10
27.3587
 20
-27.926
 11
28.7666
 21
-27.7498
  0
LINE
  8
0
 10
28.7666
 20
-27.7498
 11
29.4285
 21
-27.6366
  0
LINE
  8
0
 10
29.4285
 20
-27.6366
 11
30.0982
 21
-27.5215
  0
LINE
  8
0
 10
30.0982
 20
-27.5215
 11
30.1033
 21
-27.5206
  0
LINE
  8
0
 10
30.1033
 20
-27.5206
 11
31.9678
 21
-27.0795
  0
LINE
  8
0
 10
31.9678
 20
-27.0795
 11
34.2733
 21
-26.5331
  0
LINE
  8
0
 10
34.2733
 20
-26.5331
 11
34.276
 21
-26.5323
  0
LINE
  8
0
 10
34.276
 20
-26.5323
 11
35.4145
 21
-26.1768
  0
LINE
  8
0
 10
35.4145
 20
-26.1768
 11
36.5221
 21
-25.8313
  0
LINE
  8
0
 10
36.5221
 20
-25.8313
 11
37.3813
 21
-25.5211
  0
LINE
  8
0
 10
37.3813
 20
-25.5211
 11
38.4129
 21
-25.1497
  0
LINE
  8
0
 10
38.4129
 20
-25.1497
 11
38.4197
 21
-25.1471
  0
LINE
  8
0
 10
38.4197
 20
-25.1471
 11
40.2422
 21
-24.3566
  0
LINE
  8
0
 10
40.2422
 20
-24.3566
 11
41.8659
 21
-23.679
  0
LINE
  8
0
 10
41.8659
 20
-23.679
 11
41.952
 21
-23.6386
  0
LINE
  8
0
 10
41.952
 20
-23.6386
 11
42.5362
 21
-23.3464
  0
LINE
  8
0
 10
42.5362
 20
-23.3464
 11
43.694
 21
-22.7861
  0
LINE
  8
0
 10
43.694
 20
-22.7861
 11
44.5686
 21
-22.3114
  0
LINE
  8
0
 10
44.5686
 20
-22.3114
 11
45.4612
 21
-21.8316
  0
LINE
  8
0
 10
45.4612
 20
-21.8316
 11
45.4863
 21
-21.8173
  0
LINE
  8
0
 10
45.4863
 20
-21.8173
 11
47.2079
 21
-20.7433
  0
LINE
  8
0
 10
47.2079
 20
-20.7433
 11
49.0288
 21
-19.6163
  0
LINE
  8
0
 10
49.0288
 20
-19.6163
 11
49.0316
 21
-19.6144
  0
LINE
  8
0
 10
49.0316
 20
-19.6144
 11
49.5574
 21
-19.2448
  0
LINE
  8
0
 10
49.5574
 20
-19.2448
 11
50.1841
 21
-18.8039
  0
LINE
  8
0
 10
50.1841
 20
-18.8039
 11
51.1743
 21
-18.0443
  0
LINE
  8
0
 10
51.1743
 20
-18.0443
 11
52.2944
 21
-17.1745
  0
LINE
  8
0
 10
52.2944
 20
-17.1745
 11
52.3223
 21
-17.1516
  0
LINE
  8
0
 10
52.3223
 20
-17.1516
 11
53.5898
 21
-16.0241
  0
LINE
  8
0
 10
53.5898
 20
-16.0241
 11
54.8967
 21
-14.8476
  0
LINE
  8
0
 10
54.8967
 20
-14.8476
 11
54.8989
 21
-14.8455
  0
LINE
  8
0
 10
54.8989
 20
-14.8455
 11
55.0896
 21
-14.6561
  0
LINE
  8
0
 10
55.0896
 20
-14.6561
 11
55.2805
 21
-14.4668
  0
LINE
  8
0
 10
55.2805
 20
-14.4668
 11
55.7568
 21
-13.969
  0
LINE
  8
0
 10
55.7568
 20
-13.969
 11
56.7463
 21
-12.8796
  0
LINE
  8
0
 10
56.7463
 20
-12.8796
 11
56.8251
 21
-12.7893
  0
LINE
  8
0
 10
56.8251
 20
-12.7893
 11
57.7447
 21
-11.6872
  0
LINE
  8
0
 10
57.7447
 20
-11.6872
 11
57.8036
 21
-11.6124
  0
LINE
  8
0
 10
57.8036
 20
-11.6124
 11
58.3101
 21
-10.8921
  0
LINE
  8
0
 10
58.3101
 20
-10.8921
 11
59.1843
 21
-9.71173
  0
LINE
  8
0
 10
59.1843
 20
-9.71173
 11
59.2883
 21
-9.55099
  0
LINE
  8
0
 10
59.2883
 20
-9.55099
 11
59.6252
 21
-9.0052
  0
LINE
  8
0
 10
59.6252
 20
-9.0052
 11
59.8811
 21
-8.58704
  0
LINE
  8
0
 10
59.8811
 20
-8.58704
 11
59.8861
 21
-8.57843
  0
LINE
  8
0
 10
59.8861
 20
-8.57843
 11
59.998
 21
-8.38069
  0
LINE
  8
0
 10
59.998
 20
-8.38069
 11
60.5463
 21
-7.23201
  0
LINE
  8
0
 10
60.5463
 20
-7.23201
 11
61.1768
 21
-5.97859
  0
LINE
  8
0
 10
61.1768
 20
-5.97859
 11
61.1846
 21
-5.95953
  0
LINE
  8
0
 10
61.1846
 20
-5.95953
 11
61.2598
 21
-5.76642
  0
LINE
  8
0
 10
61.2598
 20
-5.76642
 11
61.3821
 21
-5.45976
  0
LINE
  8
0
 10
61.3821
 20
-5.45976
 11
61.6731
 21
-4.52057
  0
LINE
  8
0
 10
61.6731
 20
-4.52057
 11
61.9955
 21
-3.49632
  0
LINE
  8
0
 10
61.9955
 20
-3.49632
 11
61.9979
 21
-3.48647
  0
LINE
  8
0
 10
61.9979
 20
-3.48647
 11
62.0887
 21
-3.06363
  0
LINE
  8
0
 10
62.0887
 20
-3.06363
 11
62.1898
 21
-2.60065
  0
LINE
  8
0
 10
62.1898
 20
-2.60065
 11
62.1902
 21
-2.59833
  0
LINE
  8
0
 10
62.1902
 20
-2.59833
 11
62.2791
 21
-1.96523
  0
LINE
  8
0
 10
62.2791
 20
-1.96523
 11
62.3795
 21
-1.24361
  0
LINE
  8
0
 10
62.3795
 20
-1.24361
 11
62.4095
 21
-0.723862
  0
LINE
  8
0
 10
62.4095
 20
-0.723862
 11
62.4365
 21
-0.252686
  0
LINE
  8
0
 10
62.4365
 20
-0.252686
 11
62.4365
 21
-0.251587
  0
LINE
  8
0
 10
62.4365
 20
-0.251587
 11
62.3722
 21
0.81723
  0
LINE
  8
0
 10
62.3722
 20
0.81723
 11
62.3628
 21
0.972107
  0
LINE
  8
0
 10
62.3628
 20
0.972107
 11
62.2933
 21
2.08096
  0
LINE
  8
0
 10
62.2933
 20
2.08096
 11
62.2928
 21
2.0845
  0
LINE
  8
0
 10
62.2928
 20
2.0845
 11
62.2738
 21
2.21037
  0
LINE
  8
0
 10
62.2738
 20
2.21037
 11
62.2715
 21
2.22522
  0
LINE
  8
0
 10
62.2715
 20
2.22522
 11
62.2188
 21
2.53854
  0
LINE
  8
0
 10
62.2188
 20
2.53854
 11
62.2135
 21
2.56847
  0
LINE
  8
0
 10
62.2135
 20
2.56847
 11
62.1556
 21
2.88284
  0
LINE
  8
0
 10
62.1556
 20
2.88284
 11
62.1301
 21
3.01105
  0
LINE
  8
0
 10
62.1301
 20
3.01105
 11
61.878
 21
3.95378
  0
LINE
  8
0
 10
61.878
 20
3.95378
 11
61.5978
 21
4.95798
  0
LINE
  8
0
 10
61.5978
 20
4.95798
 11
61.59
 21
4.9812
  0
LINE
  8
0
 10
61.59
 20
4.9812
 11
61.1373
 21
6.09337
  0
LINE
  8
0
 10
61.1373
 20
6.09337
 11
60.6692
 21
7.21257
  0
LINE
  8
0
 10
60.6692
 20
7.21257
 11
60.6642
 21
7.22284
  0
LINE
  8
0
 10
60.6642
 20
7.22284
 11
60.5976
 21
7.35759
  0
LINE
  8
0
 10
60.5976
 20
7.35759
 11
60.4673
 21
7.61497
  0
LINE
  8
0
 10
60.4673
 20
7.61497
 11
60.4559
 21
7.63724
  0
LINE
  8
0
 10
60.4559
 20
7.63724
 11
60.2236
 21
8.07278
  0
LINE
  8
0
 10
60.2236
 20
8.07278
 11
60.2019
 21
8.11275
  0
LINE
  8
0
 10
60.2019
 20
8.11275
 11
59.4418
 21
9.35069
  0
LINE
  8
0
 10
59.4418
 20
9.35069
 11
59.3512
 21
9.49374
  0
LINE
  8
0
 10
59.3512
 20
9.49374
 11
58.5829
 21
10.6819
  0
LINE
  8
0
 10
58.5829
 20
10.6819
 11
58.5638
 21
10.7086
  0
LINE
  8
0
 10
58.5638
 20
10.7086
 11
58.1757
 21
11.2306
  0
LINE
  8
0
 10
58.1757
 20
11.2306
 11
57.8663
 21
11.6395
  0
LINE
  8
0
 10
57.8663
 20
11.6395
 11
57.2219
 21
12.4117
  0
LINE
  8
0
 10
57.2219
 20
12.4117
 11
56.5633
 21
13.1953
  0
LINE
  8
0
 10
56.5633
 20
13.1953
 11
56.5529
 21
13.2069
  0
LINE
  8
0
 10
56.5529
 20
13.2069
 11
55.8636
 21
13.9351
  0
LINE
  8
0
 10
55.8636
 20
13.9351
 11
55.2113
 21
14.6245
  0
LINE
  8
0
 10
55.2113
 20
14.6245
 11
55.1996
 21
14.6362
  0
LINE
  8
0
 10
55.1996
 20
14.6362
 11
54.1853
 21
15.5756
  0
LINE
  8
0
 10
54.1853
 20
15.5756
 11
53.1711
 21
16.5209
  0
LINE
  8
0
 10
53.1711
 20
16.5209
 11
52.8253
 21
16.8143
  0
LINE
  8
0
 10
52.8253
 20
16.8143
 11
52.3273
 21
17.2308
  0
LINE
  8
0
 10
52.3273
 20
17.2308
 11
52.2945
 21
17.2576
  0
LINE
  8
0
 10
52.2945
 20
17.2576
 11
50.8273
 21
18.3748
  0
LINE
  8
0
 10
50.8273
 20
18.3748
 11
50.6505
 21
18.5076
  0
LINE
  8
0
 10
50.6505
 20
18.5076
 11
49.1204
 21
19.6298
  0
LINE
  8
0
 10
49.1204
 20
19.6298
 11
49.0613
 21
19.6701
  0
LINE
  8
0
 10
49.0613
 20
19.6701
 11
48.0889
 21
20.2869
  0
LINE
  8
0
 10
48.0889
 20
20.2869
 11
46.7664
 21
21.1456
  0
LINE
  8
0
 10
46.7664
 20
21.1456
 11
46.4491
 21
21.3344
  0
LINE
  8
0
 10
46.4491
 20
21.3344
 11
45.6204
 21
21.8113
  0
LINE
  8
0
 10
45.6204
 20
21.8113
 11
45.5312
 21
21.8618
  0
LINE
  8
0
 10
45.5312
 20
21.8618
 11
44.0065
 21
22.6862
  0
LINE
  8
0
 10
44.0065
 20
22.6862
 11
43.1556
 21
23.133
  0
LINE
  8
0
 10
43.1556
 20
23.133
 11
43.1421
 21
23.1398
  0
LINE
  8
0
 10
43.1421
 20
23.1398
 11
41.4625
 21
23.9027
  0
LINE
  8
0
 10
41.4625
 20
23.9027
 11
39.4669
 21
24.8042
  0
LINE
  8
0
 10
39.4669
 20
24.8042
 11
39.4136
 21
24.8258
  0
LINE
  8
0
 10
39.4136
 20
24.8258
 11
39.1786
 21
24.9202
  0
LINE
  8
0
 10
39.1786
 20
24.9202
 11
39.1522
 21
24.9308
  0
LINE
  8
0
 10
39.1522
 20
24.9308
 11
37.4038
 21
25.5571
  0
LINE
  8
0
 10
37.4038
 20
25.5571
 11
37.1546
 21
25.6452
  0
LINE
  8
0
 10
37.1546
 20
25.6452
 11
35.1134
 21
26.3528
  0
LINE
  8
0
 10
35.1134
 20
26.3528
 11
35.0709
 21
26.3658
  0
LINE
  8
0
 10
35.0709
 20
26.3658
 11
33.5787
 21
26.7726
  0
LINE
  8
0
 10
33.5787
 20
26.7726
 11
32.0292
 21
27.1841
  0
LINE
  8
0
 10
32.0292
 20
27.1841
 11
31.7055
 21
27.2571
  0
LINE
  8
0
 10
31.7055
 20
27.2571
 11
30.9932
 21
27.4107
  0
LINE
  8
0
 10
30.9932
 20
27.4107
 11
30.9358
 21
27.4226
  0
LINE
  8
0
 10
30.9358
 20
27.4226
 11
29.7229
 21
27.6471
  0
LINE
  8
0
 10
29.7229
 20
27.6471
 11
29.5879
 21
27.6707
  0
LINE
  8
0
 10
29.5879
 20
27.6707
 11
27.653
 21
27.9658
  0
LINE
  8
0
 10
27.653
 20
27.9658
 11
27.5116
 21
27.9843
  0
LINE
  8
0
 10
27.5116
 20
27.9843
 11
25.8954
 21
28.1682
  0
LINE
  8
0
 10
25.8954
 20
28.1682
 11
25.2387
 21
28.2323
  0
LINE
  8
0
 10
25.2387
 20
28.2323
 11
24.975
 21
28.2537
  0
LINE
  8
0
 10
24.975
 20
28.2537
 11
24.6667
 21
28.2756
  0
LINE
  8
0
 10
24.6667
 20
28.2756
 11
23.4038
 21
28.3423
  0
LINE
  8
0
 10
23.4038
 20
28.3423
 11
23.2656
 21
28.3489
  0
LINE
  8
0
 10
23.2656
 20
28.3489
 11
21.0444
 21
28.396
  0
LINE
  8
0
 10
21.0444
 20
28.396
 11
20.8305
 21
28.397
  0
LINE
  8
0
 10
20.8305
 20
28.397
 11
18.7037
 21
28.3851
  0
LINE
  8
0
 10
18.7037
 20
28.3851
 11
18.6138
 21
28.3825
  0
LINE
  8
0
 10
18.6138
 20
28.3825
 11
17.858
 21
28.358
  0
LINE
  8
0
 10
17.858
 20
28.358
 11
17.6219
 21
28.3481
  0
LINE
  8
0
 10
17.6219
 20
28.3481
 11
15.7058
 21
28.215
  0
LINE
  8
0
 10
15.7058
 20
28.215
 11
13.7261
 21
28.0737
  0
LINE
  8
0
 10
13.7261
 20
28.0737
 11
13.7047
 21
28.0716
  0
LINE
  8
0
 10
13.7047
 20
28.0716
 11
11.5251
 21
27.8168
  0
LINE
  8
0
 10
11.5251
 20
27.8168
 11
8.95287
 21
27.5123
  0
LINE
  8
0
 10
8.95287
 20
27.5123
 11
6.12482
 21
27.1039
  0
LINE
  8
0
 10
6.12482
 20
27.1039
 11
0.986893
 21
26.3133
  0
LINE
  8
0
 10
0.986893
 20
26.3133
 11
0.543762
 21
26.2417
  0
LINE
  8
0
 10
0.543762
 20
26.2417
 11
-4.92171
 21
25.3206
  0
LINE
  8
0
 10
-4.92171
 20
25.3206
 11
-5.25943
 21
25.2605
  0
LINE
  8
0
 10
-5.25943
 20
25.2605
 11
-10.4732
 21
24.2839
  0
LINE
  8
0
 10
-10.4732
 20
24.2839
 11
-14.0866
 21
23.5815
  0
LINE
  8
0
 10
-14.0866
 20
23.5815
 11
-14.1447
 21
23.5697
  0
LINE
  8
0
 10
-14.1447
 20
23.5697
 11
-18.811
 21
22.587
  0
LINE
  8
0
 10
-18.811
 20
22.587
 11
-18.8174
 21
22.5856
  0
LINE
  8
0
 10
-18.8174
 20
22.5856
 11
-24.083
 21
21.3553
  0
LINE
  8
0
 10
-24.083
 20
21.3553
 11
-30.2302
 21
19.9181
  0
LINE
  8
0
 10
-30.2302
 20
19.9181
 11
-34.4492
 21
18.8353
  0
LINE
  8
0
 10
-34.4492
 20
18.8353
 11
-34.8454
 21
18.7307
  0
LINE
  8
0
 10
-34.8454
 20
18.7307
 11
-38.183
 21
17.8171
  0
LINE
  8
0
 10
-38.183
 20
17.8171
 11
-38.6008
 21
17.7022
  0
LINE
  8
0
 10
-38.6008
 20
17.7022
 11
-43.7553
 21
16.246
  0
LINE
  8
0
 10
-43.7553
 20
16.246
 11
-46.2116
 21
15.5291
  0
LINE
  8
0
 10
-46.2116
 20
15.5291
 11
-46.2382
 21
15.5211
  0
LINE
  8
0
 10
-46.2382
 20
15.5211
 11
-49.9072
 21
14.3773
  0
LINE
  8
0
 10
-49.9072
 20
14.3773
 11
-53.6543
 21
13.2067
  0
LINE
  8
0
 10
-53.6543
 20
13.2067
 11
-55.1341
 21
12.7193
  0
LINE
  8
0
 10
-55.1341
 20
12.7193
 11
-56.7862
 21
12.1721
  0
LINE
  8
0
 10
-56.7862
 20
12.1721
 11
-56.8502
 21
12.1506
  0
LINE
  8
0
 10
-56.8502
 20
12.1506
 11
-61.7811
 21
10.4106
  0
LINE
  8
0
 10
-61.7811
 20
10.4106
 11
-62.3577
 21
10.2061
  0
LINE
  8
0
 10
-62.3577
 20
10.2061
 11
-67.0361
 21
8.5332
  0
LINE
  8
0
 10
-67.0361
 20
8.5332
 11
-67.1279
 21
8.49876
  0
LINE
  8
0
 10
-67.1279
 20
8.49876
 11
-69.5049
 21
7.59035
  0
LINE
  8
0
 10
-69.5049
 20
7.59035
 11
-70.1223
 21
7.35516
  0
LINE
  8
0
 10
-70.1223
 20
7.35516
 11
-71.1488
 21
6.95709
  0
LINE
  8
0
 10
-71.1488
 20
6.95709
 11
-72.0031
 21
6.61926
  0
LINE
  8
0
 10
-72.0031
 20
6.61926
 11
-75.1982
 21
5.31294
  0
LINE
  8
0
 10
-75.1982
 20
5.31294
 11
-75.5607
 21
5.16345
  0
LINE
  8
0
 10
-75.5607
 20
5.16345
 11
-80.2954
 21
3.17284
  0
LINE
  8
0
 10
-80.2954
 20
3.17284
 11
-80.5018
 21
3.08316
  0
LINE
  8
0
 10
-80.5018
 20
3.08316
 11
-83.7076
 21
1.61369
  0
LINE
  8
0
 10
-83.7076
 20
1.61369
 11
-87.5599
 21
-0.117813
  0
LINE
  8
0
 10
-87.5599
 20
-0.117813
 11
-84.643
 21
-1.44537
  0
LINE
  8
0
 10
-84.643
 20
-1.44537
 11
-82.8599
 21
-2.26627
  0
LINE
  8
0
 10
-82.8599
 20
-2.26627
 11
-82.7448
 21
-2.31749
  0
LINE
  8
0
 10
-82.7448
 20
-2.31749
 11
-77.7603
 21
-4.39732
  0
LINE
  8
0
 10
-77.7603
 20
-4.39732
 11
-73.7644
 21
-6.10553
  0
LINE
  8
0
 10
-73.7644
 20
-6.10553
 11
-73.6242
 21
-6.1617
  0
LINE
  8
0
 10
-73.6242
 20
-6.1617
 11
-73.2906
 21
-6.29329
  0
LINE
  8
0
 10
-73.2906
 20
-6.29329
 11
-72.056
 21
-6.78642
  0
LINE
  8
0
 10
-72.056
 20
-6.78642
 11
-68.8386
 21
-8.0123
  0
LINE
  8
0
 10
-68.8386
 20
-8.0123
 11
-66.0723
 21
-9.06242
  0
LINE
  8
0
 10
-66.0723
 20
-9.06242
 11
-66.0298
 21
-9.07806
  0
LINE
  8
0
 10
-66.0298
 20
-9.07806
 11
-61.0183
 21
-10.8313
  0
LINE
  8
0
 10
-61.0183
 20
-10.8313
 11
-60.4291
 21
-11.0367
  0
LINE
  8
0
 10
-60.4291
 20
-11.0367
 11
-56.2532
 21
-12.4912
  0
LINE
  8
0
 10
-56.2532
 20
-12.4912
 11
-55.2885
 21
-12.8076
  0
LINE
  8
0
 10
-55.2885
 20
-12.8076
 11
-54.5615
 21
-13.046
  0
LINE
  8
0
 10
-54.5615
 20
-13.046
 11
-50.3755
 21
-14.3454
  0
LINE
  8
0
 10
-50.3755
 20
-14.3454
 11
-46.1111
 21
-15.6708
  0
LINE
  8
0
 10
-46.1111
 20
-15.6708
 11
-46.0951
 21
-15.6755
  0
LINE
  8
0
 10
-46.0951
 20
-15.6755
 11
-43.6375
 21
-16.3856
  0
LINE
  8
0
 10
-43.6375
 20
-16.3856
 11
-38.5876
 21
-17.7969
  0
LINE
  8
0
 10
-38.5876
 20
-17.7969
 11
-38.1745
 21
-17.9093
  0
LINE
  8
0
 10
-38.1745
 20
-17.9093
 11
-34.4231
 21
-18.9203
  0
LINE
  8
0
 10
-34.4231
 20
-18.9203
 11
-33.5274
 21
-19.1532
  0
LINE
  8
0
 10
-33.5274
 20
-19.1532
 11
-31.7266
 21
-19.6079
  0
LINE
  8
0
 10
-31.7266
 20
-19.6079
 11
-27.2842
 21
-20.6891
  0
LINE
  8
0
 10
-27.2842
 20
-20.6891
 11
-26.8717
 21
-20.7875
  0
LINE
  8
0
 10
-26.8717
 20
-20.7875
 11
-21.5603
 21
-22.0133
  0
LINE
  8
0
 10
-21.5603
 20
-22.0133
 11
-21.2034
 21
-22.0925
  0
LINE
  8
0
 10
-21.2034
 20
-22.0925
 11
-18.7791
 21
-22.5963
  0
LINE
  8
0
 10
-18.7791
 20
-22.5963
 11
-14.1257
 21
-23.5984
  0
LINE
  8
0
 10
-14.1257
 20
-23.5984
 11
-12.0175
 21
-24.0164
  0
LINE
  8
0
 10
-12.0175
 20
-24.0164
 11
-2.48676
 21
-25.7478
  0
LINE
  8
0
 10
-2.48676
 20
-25.7478
 11
9.02704
 21
-27.4877
  0
LINE
  8
0
 10
9.02704
 20
-27.4877
 11
10.0649
 21
-27.6201
  0
LINE
  8
0
 10
10.0649
 20
-27.6201
 11
12.1149
 21
-27.8567
  0
LINE
  8
0
 10
12.1149
 20
-27.8567
 11
12.3065
 21
-27.8773
  0
LINE
  8
0
 10
12.3065
 20
-27.8773
 11
15.1297
 21
-28.1319
  0
LINE
  8
0
 10
15.1297
 20
-28.1319
 11
15.3413
 21
-28.1477
  0
LINE
  8
0
 10
15.3413
 20
-28.1477
 11
17.3326
 21
-28.2776
  0
LINE
  8
0
 10
17.3326
 20
-28.2776
 11
17.4353
 21
-28.2823
  0
LINE
  8
0
 10
17.4353
 20
-28.2823
 11
19.7631
 21
-28.3323
  0
LINE
  8
0
 10
19.7631
 20
-28.3323
 11
21.444
 21
-28.3502
  0
ENDSEC
  0
SECTION
  2
OBJECTS
  0
DICTIONARY
  0
ENDSEC
  0
EOF
