  0
SECTION
  2
BLOCKS
  0
ENDSEC
  0
SECTION
  2
ENTITIES
  0
LINE
  8
0
 10
21.8312
 20
-28.3427
 11
22.084
 21
-28.3365
  0
LINE
  8
0
 10
22.084
 20
-28.3365
 11
22.1664
 21
-28.3342
  0
LINE
  8
0
 10
22.1664
 20
-28.3342
 11
24.4147
 21
-28.2104
  0
LINE
  8
0
 10
24.4147
 20
-28.2104
 11
24.832
 21
-28.1852
  0
LINE
  8
0
 10
24.832
 20
-28.1852
 11
25.8177
 21
-28.1137
  0
LINE
  8
0
 10
25.8177
 20
-28.1137
 11
26.1018
 21
-28.0876
  0
LINE
  8
0
 10
26.1018
 20
-28.0876
 11
26.23
 21
-28.0742
  0
LINE
  8
0
 10
26.23
 20
-28.0742
 11
26.9564
 21
-27.9763
  0
LINE
  8
0
 10
26.9564
 20
-27.9763
 11
28.7666
 21
-27.7498
  0
LINE
  8
0
 10
28.7666
 20
-27.7498
 11
29.2472
 21
-27.6676
  0
LINE
  8
0
 10
29.2472
 20
-27.6676
 11
30.1083
 21
-27.5197
  0
LINE
  8
0
 10
30.1083
 20
-27.5197
 11
30.1183
 21
-27.5178
  0
LINE
  8
0
 10
30.1183
 20
-27.5178
 11
31.0953
 21
-27.2867
  0
LINE
  8
0
 10
31.0953
 20
-27.2867
 11
34.2655
 21
-26.5353
  0
LINE
  8
0
 10
34.2655
 20
-26.5353
 11
34.2707
 21
-26.5338
  0
LINE
  8
0
 10
34.2707
 20
-26.5338
 11
35.098
 21
-26.2755
  0
LINE
  8
0
 10
35.098
 20
-26.2755
 11
36.5221
 21
-25.8313
  0
LINE
  8
0
 10
36.5221
 20
-25.8313
 11
36.9785
 21
-25.6665
  0
LINE
  8
0
 10
36.9785
 20
-25.6665
 11
38.3924
 21
-25.1576
  0
LINE
  8
0
 10
38.3924
 20
-25.1576
 11
38.4061
 21
-25.1524
  0
LINE
  8
0
 10
38.4061
 20
-25.1524
 11
39.3871
 21
-24.7268
  0
LINE
  8
0
 10
39.3871
 20
-24.7268
 11
41.6076
 21
-23.8002
  0
LINE
  8
0
 10
41.6076
 20
-23.8002
 11
41.7798
 21
-23.7194
  0
LINE
  8
0
 10
41.7798
 20
-23.7194
 11
42.2054
 21
-23.5065
  0
LINE
  8
0
 10
42.2054
 20
-23.5065
 11
43.694
 21
-22.7861
  0
LINE
  8
0
 10
43.694
 20
-22.7861
 11
44.1583
 21
-22.5341
  0
LINE
  8
0
 10
44.1583
 20
-22.5341
 11
45.3856
 21
-21.8743
  0
LINE
  8
0
 10
45.3856
 20
-21.8743
 11
45.436
 21
-21.8458
  0
LINE
  8
0
 10
45.436
 20
-21.8458
 11
46.6933
 21
-21.0614
  0
LINE
  8
0
 10
46.6933
 20
-21.0614
 11
49.0344
 21
-19.6125
  0
LINE
  8
0
 10
49.0344
 20
-19.6125
 11
49.0401
 21
-19.6086
  0
LINE
  8
0
 10
49.0401
 20
-19.6086
 11
49.3224
 21
-19.4102
  0
LINE
  8
0
 10
49.3224
 20
-19.4102
 11
50.1841
 21
-18.8039
  0
LINE
  8
0
 10
50.1841
 20
-18.8039
 11
50.9102
 21
-18.2469
  0
LINE
  8
0
 10
50.9102
 20
-18.2469
 11
52.3503
 21
-17.1286
  0
LINE
  8
0
 10
52.3503
 20
-17.1286
 11
52.4062
 21
-17.0827
  0
LINE
  8
0
 10
52.4062
 20
-17.0827
 11
53.093
 21
-16.4717
  0
LINE
  8
0
 10
53.093
 20
-16.4717
 11
54.89
 21
-14.8541
  0
LINE
  8
0
 10
54.89
 20
-14.8541
 11
54.8945
 21
-14.8498
  0
LINE
  8
0
 10
54.8945
 20
-14.8498
 11
55.035
 21
-14.7102
  0
LINE
  8
0
 10
55.035
 20
-14.7102
 11
55.2805
 21
-14.4668
  0
LINE
  8
0
 10
55.2805
 20
-14.4668
 11
55.6317
 21
-14.0997
  0
LINE
  8
0
 10
55.6317
 20
-14.0997
 11
56.904
 21
-12.699
  0
LINE
  8
0
 10
56.904
 20
-12.699
 11
57.0616
 21
-12.5184
  0
LINE
  8
0
 10
57.0616
 20
-12.5184
 11
57.5679
 21
-11.9116
  0
LINE
  8
0
 10
57.5679
 20
-11.9116
 11
57.6858
 21
-11.762
  0
LINE
  8
0
 10
57.6858
 20
-11.762
 11
58.0603
 21
-11.2294
  0
LINE
  8
0
 10
58.0603
 20
-11.2294
 11
59.1843
 21
-9.71173
  0
LINE
  8
0
 10
59.1843
 20
-9.71173
 11
59.3273
 21
-9.49072
  0
LINE
  8
0
 10
59.3273
 20
-9.49072
 11
59.5143
 21
-9.18787
  0
LINE
  8
0
 10
59.5143
 20
-9.18787
 11
59.8661
 21
-8.61288
  0
LINE
  8
0
 10
59.8661
 20
-8.61288
 11
59.8761
 21
-8.59566
  0
LINE
  8
0
 10
59.8761
 20
-8.59566
 11
59.9591
 21
-8.4489
  0
LINE
  8
0
 10
59.9591
 20
-8.4489
 11
60.3249
 21
-7.68269
  0
LINE
  8
0
 10
60.3249
 20
-7.68269
 11
61.1533
 21
-6.03577
  0
LINE
  8
0
 10
61.1533
 20
-6.03577
 11
61.169
 21
-5.99765
  0
LINE
  8
0
 10
61.169
 20
-5.99765
 11
61.2249
 21
-5.85403
  0
LINE
  8
0
 10
61.2249
 20
-5.85403
 11
61.3821
 21
-5.45976
  0
LINE
  8
0
 10
61.3821
 20
-5.45976
 11
61.5458
 21
-4.93144
  0
LINE
  8
0
 10
61.5458
 20
-4.93144
 11
61.9882
 21
-3.52588
  0
LINE
  8
0
 10
61.9882
 20
-3.52588
 11
61.9931
 21
-3.50618
  0
LINE
  8
0
 10
61.9931
 20
-3.50618
 11
62.0607
 21
-3.19128
  0
LINE
  8
0
 10
62.0607
 20
-3.19128
 11
62.1907
 21
-2.59601
  0
LINE
  8
0
 10
62.1907
 20
-2.59601
 11
62.1915
 21
-2.59137
  0
LINE
  8
0
 10
62.1915
 20
-2.59137
 11
62.2414
 21
-2.23584
  0
LINE
  8
0
 10
62.2414
 20
-2.23584
 11
62.3795
 21
-1.24361
  0
LINE
  8
0
 10
62.3795
 20
-1.24361
 11
62.4019
 21
-0.856262
  0
LINE
  8
0
 10
62.4019
 20
-0.856262
 11
62.4365
 21
-0.250443
  0
LINE
  8
0
 10
62.4365
 20
-0.250443
 11
62.4366
 21
-0.24823
  0
LINE
  8
0
 10
62.4366
 20
-0.24823
 11
62.4004
 21
0.352615
  0
LINE
  8
0
 10
62.4004
 20
0.352615
 11
62.3816
 21
0.662369
  0
LINE
  8
0
 10
62.3816
 20
0.662369
 11
62.2923
 21
2.08804
  0
LINE
  8
0
 10
62.2923
 20
2.08804
 11
62.2913
 21
2.09512
  0
LINE
  8
0
 10
62.2913
 20
2.09512
 11
62.2806
 21
2.16585
  0
LINE
  8
0
 10
62.2806
 20
2.16585
 11
62.276
 21
2.19553
  0
LINE
  8
0
 10
62.276
 20
2.19553
 11
62.2082
 21
2.59839
  0
LINE
  8
0
 10
62.2082
 20
2.59839
 11
62.1977
 21
2.65823
  0
LINE
  8
0
 10
62.1977
 20
2.65823
 11
62.1652
 21
2.83478
  0
LINE
  8
0
 10
62.1652
 20
2.83478
 11
62.1301
 21
3.01105
  0
LINE
  8
0
 10
62.1301
 20
3.01105
 11
61.9423
 21
3.71329
  0
LINE
  8
0
 10
61.9423
 20
3.71329
 11
61.5821
 21
5.00443
  0
LINE
  8
0
 10
61.5821
 20
5.00443
 11
61.5663
 21
5.05087
  0
LINE
  8
0
 10
61.5663
 20
5.05087
 11
61.3129
 21
5.67365
  0
LINE
  8
0
 10
61.3129
 20
5.67365
 11
60.6692
 21
7.21257
  0
LINE
  8
0
 10
60.6692
 20
7.21257
 11
60.6655
 21
7.2202
  0
LINE
  8
0
 10
60.6655
 20
7.2202
 11
60.5743
 21
7.40466
  0
LINE
  8
0
 10
60.5743
 20
7.40466
 11
60.5016
 21
7.54819
  0
LINE
  8
0
 10
60.5016
 20
7.54819
 11
60.4788
 21
7.59271
  0
LINE
  8
0
 10
60.4788
 20
7.59271
 11
60.1801
 21
8.15271
  0
LINE
  8
0
 10
60.1801
 20
8.15271
 11
60.1366
 21
8.23264
  0
LINE
  8
0
 10
60.1366
 20
8.23264
 11
59.7137
 21
8.92151
  0
LINE
  8
0
 10
59.7137
 20
8.92151
 11
59.5325
 21
9.20763
  0
LINE
  8
0
 10
59.5325
 20
9.20763
 11
58.5446
 21
10.7353
  0
LINE
  8
0
 10
58.5446
 20
10.7353
 11
58.5063
 21
10.7887
  0
LINE
  8
0
 10
58.5063
 20
10.7887
 11
58.2918
 21
11.0773
  0
LINE
  8
0
 10
58.2918
 20
11.0773
 11
57.8663
 21
11.6395
  0
LINE
  8
0
 10
57.8663
 20
11.6395
 11
57.3895
 21
12.2109
  0
LINE
  8
0
 10
57.3895
 20
12.2109
 11
56.5426
 21
13.2184
  0
LINE
  8
0
 10
56.5426
 20
13.2184
 11
56.5219
 21
13.2416
  0
LINE
  8
0
 10
56.5219
 20
13.2416
 11
56.1436
 21
13.6413
  0
LINE
  8
0
 10
56.1436
 20
13.6413
 11
55.2466
 21
14.5892
  0
LINE
  8
0
 10
55.2466
 20
14.5892
 11
55.2231
 21
14.6127
  0
LINE
  8
0
 10
55.2231
 20
14.6127
 11
54.4763
 21
15.3043
  0
LINE
  8
0
 10
54.4763
 20
15.3043
 11
53.1711
 21
16.5209
  0
LINE
  8
0
 10
53.1711
 20
16.5209
 11
52.6956
 21
16.9244
  0
LINE
  8
0
 10
52.6956
 20
16.9244
 11
52.4257
 21
17.1501
  0
LINE
  8
0
 10
52.4257
 20
17.1501
 11
52.3601
 21
17.2039
  0
LINE
  8
0
 10
52.3601
 20
17.2039
 11
50.4737
 21
18.6403
  0
LINE
  8
0
 10
50.4737
 20
18.6403
 11
50.12
 21
18.9057
  0
LINE
  8
0
 10
50.12
 20
18.9057
 11
49.2975
 21
19.5089
  0
LINE
  8
0
 10
49.2975
 20
19.5089
 11
49.1794
 21
19.5895
  0
LINE
  8
0
 10
49.1794
 20
19.5895
 11
48.4668
 21
20.0416
  0
LINE
  8
0
 10
48.4668
 20
20.0416
 11
46.7664
 21
21.1456
  0
LINE
  8
0
 10
46.7664
 20
21.1456
 11
46.3301
 21
21.4052
  0
LINE
  8
0
 10
46.3301
 20
21.4052
 11
45.888
 21
21.6596
  0
LINE
  8
0
 10
45.888
 20
21.6596
 11
45.7096
 21
21.7607
  0
LINE
  8
0
 10
45.7096
 20
21.7607
 11
43.7492
 21
22.8206
  0
LINE
  8
0
 10
43.7492
 20
22.8206
 11
43.1287
 21
23.1465
  0
LINE
  8
0
 10
43.1287
 20
23.1465
 11
43.1017
 21
23.16
  0
LINE
  8
0
 10
43.1017
 20
23.16
 11
42.211
 21
23.5646
  0
LINE
  8
0
 10
42.211
 20
23.5646
 11
39.4669
 21
24.8042
  0
LINE
  8
0
 10
39.4669
 20
24.8042
 11
39.4281
 21
24.8199
  0
LINE
  8
0
 10
39.4281
 20
24.8199
 11
39.1259
 21
24.9413
  0
LINE
  8
0
 10
39.1259
 20
24.9413
 11
39.0732
 21
24.9624
  0
LINE
  8
0
 10
39.0732
 20
24.9624
 11
38.1513
 21
25.2926
  0
LINE
  8
0
 10
38.1513
 20
25.2926
 11
37.653
 21
25.4689
  0
LINE
  8
0
 10
37.653
 20
25.4689
 11
35.0284
 21
26.3787
  0
LINE
  8
0
 10
35.0284
 20
26.3787
 11
34.9435
 21
26.4046
  0
LINE
  8
0
 10
34.9435
 20
26.4046
 11
34.1599
 21
26.6183
  0
LINE
  8
0
 10
34.1599
 20
26.6183
 11
32.0292
 21
27.1841
  0
LINE
  8
0
 10
32.0292
 20
27.1841
 11
31.7941
 21
27.2371
  0
LINE
  8
0
 10
31.7941
 20
27.2371
 11
30.8783
 21
27.4346
  0
LINE
  8
0
 10
30.8783
 20
27.4346
 11
30.7634
 21
27.4585
  0
LINE
  8
0
 10
30.7634
 20
27.4585
 11
30.1278
 21
27.5761
  0
LINE
  8
0
 10
30.1278
 20
27.5761
 11
29.8578
 21
27.6234
  0
LINE
  8
0
 10
29.8578
 20
27.6234
 11
27.3701
 21
28.0028
  0
LINE
  8
0
 10
27.3701
 20
28.0028
 11
27.0872
 21
28.0398
  0
LINE
  8
0
 10
27.0872
 20
28.0398
 11
26.2406
 21
28.1362
  0
LINE
  8
0
 10
26.2406
 20
28.1362
 11
25.3376
 21
28.2242
  0
LINE
  8
0
 10
25.3376
 20
28.2242
 11
24.975
 21
28.2537
  0
LINE
  8
0
 10
24.975
 20
28.2537
 11
24.7511
 21
28.2696
  0
LINE
  8
0
 10
24.7511
 20
28.2696
 11
23.1274
 21
28.3554
  0
LINE
  8
0
 10
23.1274
 20
28.3554
 11
22.851
 21
28.3685
  0
LINE
  8
0
 10
22.851
 20
28.3685
 11
21.6862
 21
28.3932
  0
LINE
  8
0
 10
21.6862
 20
28.3932
 11
21.2583
 21
28.3951
  0
LINE
  8
0
 10
21.2583
 20
28.3951
 11
18.5238
 21
28.3799
  0
LINE
  8
0
 10
18.5238
 20
28.3799
 11
18.3439
 21
28.3746
  0
LINE
  8
0
 10
18.3439
 20
28.3746
 11
17.9465
 21
28.3617
  0
LINE
  8
0
 10
17.9465
 20
28.3617
 11
17.6219
 21
28.3481
  0
LINE
  8
0
 10
17.6219
 20
28.3481
 11
16.2287
 21
28.2513
  0
LINE
  8
0
 10
16.2287
 20
28.2513
 11
13.6832
 21
28.0696
  0
LINE
  8
0
 10
13.6832
 20
28.0696
 11
13.6404
 21
28.0656
  0
LINE
  8
0
 10
13.6404
 20
28.0656
 11
12.4897
 21
27.931
  0
LINE
  8
0
 10
12.4897
 20
27.931
 11
8.95287
 21
27.5123
  0
LINE
  8
0
 10
8.95287
 20
27.5123
 11
5.06422
 21
26.9508
  0
LINE
  8
0
 10
5.06422
 20
26.9508
 11
2.31627
 21
26.5279
  0
LINE
  8
0
 10
2.31627
 20
26.5279
 11
1.43002
 21
26.3848
  0
LINE
  8
0
 10
1.43002
 20
26.3848
 11
-5.59714
 21
25.2004
  0
LINE
  8
0
 10
-5.59714
 20
25.2004
 11
-6.27258
 21
25.0803
  0
LINE
  8
0
 10
-6.27258
 20
25.0803
 11
-9.11804
 21
24.5473
  0
LINE
  8
0
 10
-9.11804
 20
24.5473
 11
-14.0866
 21
23.5815
  0
LINE
  8
0
 10
-14.0866
 20
23.5815
 11
-14.1296
 21
23.5728
  0
LINE
  8
0
 10
-14.1296
 20
23.5728
 11
-18.8238
 21
22.5842
  0
LINE
  8
0
 10
-18.8238
 20
22.5842
 11
-18.8366
 21
22.5814
  0
LINE
  8
0
 10
-18.8366
 20
22.5814
 11
-21.7794
 21
21.8938
  0
LINE
  8
0
 10
-21.7794
 20
21.8938
 11
-30.2308
 21
19.9179
  0
LINE
  8
0
 10
-30.2308
 20
19.9179
 11
-34.4492
 21
18.8353
  0
LINE
  8
0
 10
-34.4492
 20
18.8353
 11
-34.9939
 21
18.6915
  0
LINE
  8
0
 10
-34.9939
 20
18.6915
 11
-36.9297
 21
18.1616
  0
LINE
  8
0
 10
-36.9297
 20
18.1616
 11
-37.7653
 21
17.9319
  0
LINE
  8
0
 10
-37.7653
 20
17.9319
 11
-44.3926
 21
16.0596
  0
LINE
  8
0
 10
-44.3926
 20
16.0596
 11
-46.2648
 21
15.5132
  0
LINE
  8
0
 10
-46.2648
 20
15.5132
 11
-46.3181
 21
15.4972
  0
LINE
  8
0
 10
-46.3181
 20
15.4972
 11
-48.502
 21
14.8164
  0
LINE
  8
0
 10
-48.502
 20
14.8164
 11
-53.6543
 21
13.2067
  0
LINE
  8
0
 10
-53.6543
 20
13.2067
 11
-54.7899
 21
12.8326
  0
LINE
  8
0
 10
-54.7899
 20
12.8326
 11
-56.9141
 21
12.1291
  0
LINE
  8
0
 10
-56.9141
 20
12.1291
 11
-57.042
 21
12.0861
  0
LINE
  8
0
 10
-57.042
 20
12.0861
 11
-60.0512
 21
11.0242
  0
LINE
  8
0
 10
-60.0512
 20
11.0242
 11
-61.2045
 21
10.6151
  0
LINE
  8
0
 10
-61.2045
 20
10.6151
 11
-67.2196
 21
8.46432
  0
LINE
  8
0
 10
-67.2196
 20
8.46432
 11
-67.4032
 21
8.39543
  0
LINE
  8
0
 10
-67.4032
 20
8.39543
 11
-68.8884
 21
7.82784
  0
LINE
  8
0
 10
-68.8884
 20
7.82784
 11
-69.7373
 21
7.50446
  0
LINE
  8
0
 10
-69.7373
 20
7.50446
 11
-71.1488
 21
6.95709
  0
LINE
  8
0
 10
-71.1488
 20
6.95709
 11
-71.8152
 21
6.69357
  0
LINE
  8
0
 10
-71.8152
 20
6.69357
 11
-75.9233
 21
5.01398
  0
LINE
  8
0
 10
-75.9233
 20
5.01398
 11
-76.6483
 21
4.715
  0
LINE
  8
0
 10
-76.6483
 20
4.715
 11
-79.6765
 21
3.44188
  0
LINE
  8
0
 10
-79.6765
 20
3.44188
 11
-80.0891
 21
3.26251
  0
LINE
  8
0
 10
-80.0891
 20
3.26251
 11
-82.6078
 21
2.10805
  0
LINE
  8
0
 10
-82.6078
 20
2.10805
 11
-87.5599
 21
-0.117767
  0
LINE
  8
0
 10
-87.5599
 20
-0.117767
 11
-85.66
 21
-0.982483
  0
LINE
  8
0
 10
-85.66
 20
-0.982483
 11
-83.2053
 21
-2.11258
  0
LINE
  8
0
 10
-83.2053
 20
-2.11258
 11
-82.975
 21
-2.21504
  0
LINE
  8
0
 10
-82.975
 20
-2.21504
 11
-79.485
 21
-3.67128
  0
LINE
  8
0
 10
-79.485
 20
-3.67128
 11
-74.1848
 21
-5.93703
  0
LINE
  8
0
 10
-74.1848
 20
-5.93703
 11
-73.9045
 21
-6.04936
  0
LINE
  8
0
 10
-73.9045
 20
-6.04936
 11
-73.645
 21
-6.15172
  0
LINE
  8
0
 10
-73.645
 20
-6.15172
 11
-72.056
 21
-6.78642
  0
LINE
  8
0
 10
-72.056
 20
-6.78642
 11
-69.544
 21
-7.74352
  0
LINE
  8
0
 10
-69.544
 20
-7.74352
 11
-65.9873
 21
-9.0937
  0
LINE
  8
0
 10
-65.9873
 20
-9.0937
 11
-65.9023
 21
-9.12498
  0
LINE
  8
0
 10
-65.9023
 20
-9.12498
 11
-62.7859
 21
-10.2152
  0
LINE
  8
0
 10
-62.7859
 20
-10.2152
 11
-61.6075
 21
-10.6259
  0
LINE
  8
0
 10
-61.6075
 20
-10.6259
 11
-56.2383
 21
-12.4961
  0
LINE
  8
0
 10
-56.2383
 20
-12.4961
 11
-56.2235
 21
-12.501
  0
LINE
  8
0
 10
-56.2235
 20
-12.501
 11
-55.704
 21
-12.6714
  0
LINE
  8
0
 10
-55.704
 20
-12.6714
 11
-54.5616
 21
-13.046
  0
LINE
  8
0
 10
-54.5616
 20
-13.046
 11
-52.0138
 21
-13.8368
  0
LINE
  8
0
 10
-52.0138
 20
-13.8368
 11
-46.1591
 21
-15.6565
  0
LINE
  8
0
 10
-46.1591
 20
-15.6565
 11
-46.1271
 21
-15.666
  0
LINE
  8
0
 10
-46.1271
 20
-15.666
 11
-44.2541
 21
-16.2072
  0
LINE
  8
0
 10
-44.2541
 20
-16.2072
 11
-37.7613
 21
-18.0217
  0
LINE
  8
0
 10
-37.7613
 20
-18.0217
 11
-36.935
 21
-18.2465
  0
LINE
  8
0
 10
-36.935
 20
-18.2465
 11
-34.759
 21
-18.833
  0
LINE
  8
0
 10
-34.759
 20
-18.833
 11
-33.5274
 21
-19.1532
  0
LINE
  8
0
 10
-33.5274
 20
-19.1532
 11
-32.1709
 21
-19.4957
  0
LINE
  8
0
 10
-32.1709
 20
-19.4957
 11
-26.4592
 21
-20.8859
  0
LINE
  8
0
 10
-26.4592
 20
-20.8859
 11
-25.6341
 21
-21.0826
  0
LINE
  8
0
 10
-25.6341
 20
-21.0826
 11
-22.6311
 21
-21.7757
  0
LINE
  8
0
 10
-22.6311
 20
-21.7757
 11
-21.9173
 21
-21.9341
  0
LINE
  8
0
 10
-21.9173
 20
-21.9341
 11
-20.1064
 21
-22.3104
  0
LINE
  8
0
 10
-20.1064
 20
-22.3104
 11
-14.1247
 21
-23.5986
  0
LINE
  8
0
 10
-14.1247
 20
-23.5986
 11
-12.0176
 21
-24.0164
  0
LINE
  8
0
 10
-12.0176
 20
-24.0164
 11
-2.48654
 21
-25.7478
  0
LINE
  8
0
 10
-2.48654
 20
-25.7478
 11
9.02704
 21
-27.4877
  0
LINE
  8
0
 10
9.02704
 20
-27.4877
 11
10.4541
 21
-27.6698
  0
LINE
  8
0
 10
10.4541
 20
-27.6698
 11
11.5398
 21
-27.7951
  0
LINE
  8
0
 10
11.5398
 20
-27.7951
 11
11.9232
 21
-27.8362
  0
LINE
  8
0
 10
11.9232
 20
-27.8362
 11
15.553
 21
-28.1635
  0
LINE
  8
0
 10
15.553
 20
-28.1635
 11
15.9763
 21
-28.1952
  0
LINE
  8
0
 10
15.9763
 20
-28.1952
 11
17.0246
 21
-28.2636
  0
LINE
  8
0
 10
17.0246
 20
-28.2636
 11
17.2299
 21
-28.273
  0
LINE
  8
0
 10
17.2299
 20
-28.273
 11
20.2229
 21
-28.3372
  0
LINE
  8
0
 10
20.2229
 20
-28.3372
 11
21.444
 21
-28.3502
  0
LINE
  8
0
 10
21.444
 20
-28.3502
 11
21.8312
 21
-28.3427
  0
ENDSEC
  0
SECTION
  2
OBJECTS
  0
DICTIONARY
  0
ENDSEC
  0
EOF
