  0
SECTION
  2
BLOCKS
  0
ENDSEC
  0
SECTION
  2
ENTITIES
  0
LINE
  8
0
 10
-87.5599
 20
-0.117782
 11
-84.3069
 21
-1.59836
  0
LINE
  8
0
 10
-84.3069
 20
-1.59836
 11
-82.7448
 21
-2.3175
  0
LINE
  8
0
 10
-82.7448
 20
-2.3175
 11
-77.3942
 21
-4.55007
  0
LINE
  8
0
 10
-77.3942
 20
-4.55007
 11
-73.6242
 21
-6.1617
  0
LINE
  8
0
 10
-73.6242
 20
-6.1617
 11
-73.2906
 21
-6.29329
  0
LINE
  8
0
 10
-73.2906
 20
-6.29329
 11
-72.056
 21
-6.78643
  0
LINE
  8
0
 10
-72.056
 20
-6.78643
 11
-68.8386
 21
-8.01231
  0
LINE
  8
0
 10
-68.8386
 20
-8.01231
 11
-66.0723
 21
-9.06243
  0
LINE
  8
0
 10
-66.0723
 20
-9.06243
 11
-60.4291
 21
-11.0367
  0
LINE
  8
0
 10
-60.4291
 20
-11.0367
 11
-56.2532
 21
-12.4912
  0
LINE
  8
0
 10
-56.2532
 20
-12.4912
 11
-55.2885
 21
-12.8076
  0
LINE
  8
0
 10
-55.2885
 20
-12.8076
 11
-54.5615
 21
-13.046
  0
LINE
  8
0
 10
-54.5615
 20
-13.046
 11
-49.8264
 21
-14.5158
  0
LINE
  8
0
 10
-49.8264
 20
-14.5158
 11
-46.0951
 21
-15.6755
  0
LINE
  8
0
 10
-46.0951
 20
-15.6755
 11
-43.6375
 21
-16.3856
  0
LINE
  8
0
 10
-43.6375
 20
-16.3856
 11
-38.5876
 21
-17.7969
  0
LINE
  8
0
 10
-38.5876
 20
-17.7969
 11
-34.3111
 21
-18.9495
  0
LINE
  8
0
 10
-34.3111
 20
-18.9495
 11
-33.5274
 21
-19.1532
  0
LINE
  8
0
 10
-33.5274
 20
-19.1532
 11
-31.7266
 21
-19.6079
  0
LINE
  8
0
 10
-31.7266
 20
-19.6079
 11
-27.2842
 21
-20.6891
  0
LINE
  8
0
 10
-27.2842
 20
-20.6891
 11
-21.2035
 21
-22.0925
  0
LINE
  8
0
 10
-21.2035
 20
-22.0925
 11
-18.7791
 21
-22.5963
  0
LINE
  8
0
 10
-18.7791
 20
-22.5963
 11
-14.1268
 21
-23.5982
  0
LINE
  8
0
 10
-14.1268
 20
-23.5982
 11
-13.0171
 21
-23.8182
  0
LINE
  8
0
 10
-13.0171
 20
-23.8182
 11
-12.0175
 21
-24.0164
  0
LINE
  8
0
 10
-12.0175
 20
-24.0164
 11
-7.03234
 21
-24.922
  0
LINE
  8
0
 10
-7.03234
 20
-24.922
 11
-2.48697
 21
-25.7477
  0
LINE
  8
0
 10
-2.48697
 20
-25.7477
 11
3.48157
 21
-26.6497
  0
LINE
  8
0
 10
3.48157
 20
-26.6497
 11
9.02705
 21
-27.4877
  0
LINE
  8
0
 10
9.02705
 20
-27.4877
 11
9.93517
 21
-27.6036
  0
LINE
  8
0
 10
9.93517
 20
-27.6036
 11
12.3065
 21
-27.8773
  0
LINE
  8
0
 10
12.3065
 20
-27.8773
 11
15.1297
 21
-28.1319
  0
LINE
  8
0
 10
15.1297
 20
-28.1319
 11
17.4353
 21
-28.2823
  0
LINE
  8
0
 10
17.4353
 20
-28.2823
 11
19.7631
 21
-28.3323
  0
LINE
  8
0
 10
19.7631
 20
-28.3323
 11
21.444
 21
-28.3502
  0
LINE
  8
0
 10
21.444
 20
-28.3502
 11
21.6904
 21
-28.3454
  0
LINE
  8
0
 10
21.6904
 20
-28.3454
 11
22.2488
 21
-28.3318
  0
LINE
  8
0
 10
22.2488
 20
-28.3318
 11
23.9975
 21
-28.2355
  0
LINE
  8
0
 10
23.9975
 20
-28.2355
 11
26.1775
 21
-28.0774
  0
LINE
  8
0
 10
26.1775
 20
-28.0774
 11
26.3583
 21
-28.0608
  0
LINE
  8
0
 10
26.3583
 20
-28.0608
 11
27.3587
 21
-27.926
  0
LINE
  8
0
 10
27.3587
 20
-27.926
 11
28.7666
 21
-27.7498
  0
LINE
  8
0
 10
28.7666
 20
-27.7498
 11
29.4285
 21
-27.6366
  0
LINE
  8
0
 10
29.4285
 20
-27.6366
 11
30.0982
 21
-27.5215
  0
LINE
  8
0
 10
30.0982
 20
-27.5215
 11
32.2586
 21
-27.0104
  0
LINE
  8
0
 10
32.2586
 20
-27.0104
 11
34.276
 21
-26.5323
  0
LINE
  8
0
 10
34.276
 20
-26.5323
 11
35.4145
 21
-26.1768
  0
LINE
  8
0
 10
35.4145
 20
-26.1768
 11
36.5221
 21
-25.8313
  0
LINE
  8
0
 10
36.5221
 20
-25.8313
 11
37.5171
 21
-25.4721
  0
LINE
  8
0
 10
37.5171
 20
-25.4721
 11
38.4197
 21
-25.1472
  0
LINE
  8
0
 10
38.4197
 20
-25.1472
 11
40.512
 21
-24.2396
  0
LINE
  8
0
 10
40.512
 20
-24.2396
 11
41.952
 21
-23.6386
  0
LINE
  8
0
 10
41.952
 20
-23.6386
 11
42.5362
 21
-23.3464
  0
LINE
  8
0
 10
42.5362
 20
-23.3464
 11
43.694
 21
-22.7861
  0
LINE
  8
0
 10
43.694
 20
-22.7861
 11
44.7053
 21
-22.2372
  0
LINE
  8
0
 10
44.7053
 20
-22.2372
 11
45.4864
 21
-21.8173
  0
LINE
  8
0
 10
45.4864
 20
-21.8173
 11
47.2079
 21
-20.7433
  0
LINE
  8
0
 10
47.2079
 20
-20.7433
 11
49.0288
 21
-19.6164
  0
LINE
  8
0
 10
49.0288
 20
-19.6164
 11
49.6358
 21
-19.1897
  0
LINE
  8
0
 10
49.6358
 20
-19.1897
 11
50.1841
 21
-18.8039
  0
LINE
  8
0
 10
50.1841
 20
-18.8039
 11
51.1743
 21
-18.0443
  0
LINE
  8
0
 10
51.1743
 20
-18.0443
 11
52.2944
 21
-17.1746
  0
LINE
  8
0
 10
52.2944
 20
-17.1746
 11
53.7553
 21
-15.8748
  0
LINE
  8
0
 10
53.7553
 20
-15.8748
 11
54.8989
 21
-14.8455
  0
LINE
  8
0
 10
54.8989
 20
-14.8455
 11
55.0896
 21
-14.6561
  0
LINE
  8
0
 10
55.0896
 20
-14.6561
 11
55.2805
 21
-14.4668
  0
LINE
  8
0
 10
55.2805
 20
-14.4668
 11
55.7568
 21
-13.969
  0
LINE
  8
0
 10
55.7568
 20
-13.969
 11
56.7463
 21
-12.8796
  0
LINE
  8
0
 10
56.7463
 20
-12.8796
 11
57.8036
 21
-11.6124
  0
LINE
  8
0
 10
57.8036
 20
-11.6124
 11
58.3101
 21
-10.8921
  0
LINE
  8
0
 10
58.3101
 20
-10.8921
 11
59.1843
 21
-9.71173
  0
LINE
  8
0
 10
59.1843
 20
-9.71173
 11
59.2753
 21
-9.5711
  0
LINE
  8
0
 10
59.2753
 20
-9.5711
 11
59.6622
 21
-8.94432
  0
LINE
  8
0
 10
59.6622
 20
-8.94432
 11
59.8861
 21
-8.57843
  0
LINE
  8
0
 10
59.8861
 20
-8.57843
 11
59.998
 21
-8.38069
  0
LINE
  8
0
 10
59.998
 20
-8.38069
 11
60.579
 21
-7.16344
  0
LINE
  8
0
 10
60.579
 20
-7.16344
 11
61.1846
 21
-5.95955
  0
LINE
  8
0
 10
61.1846
 20
-5.95955
 11
61.2599
 21
-5.76642
  0
LINE
  8
0
 10
61.2599
 20
-5.76642
 11
61.3821
 21
-5.45977
  0
LINE
  8
0
 10
61.3821
 20
-5.45977
 11
61.7158
 21
-4.38268
  0
LINE
  8
0
 10
61.7158
 20
-4.38268
 11
61.9979
 21
-3.48648
  0
LINE
  8
0
 10
61.9979
 20
-3.48648
 11
62.0887
 21
-3.06363
  0
LINE
  8
0
 10
62.0887
 20
-3.06363
 11
62.1898
 21
-2.60065
  0
LINE
  8
0
 10
62.1898
 20
-2.60065
 11
62.2916
 21
-1.87502
  0
LINE
  8
0
 10
62.2916
 20
-1.87502
 11
62.3795
 21
-1.24362
  0
LINE
  8
0
 10
62.3795
 20
-1.24362
 11
62.4095
 21
-0.723848
  0
LINE
  8
0
 10
62.4095
 20
-0.723848
 11
62.4365
 21
-0.25266
  0
LINE
  8
0
 10
62.4365
 20
-0.25266
 11
62.3628
 21
0.972127
  0
LINE
  8
0
 10
62.3628
 20
0.972127
 11
62.2933
 21
2.08096
  0
LINE
  8
0
 10
62.2933
 20
2.08096
 11
62.2715
 21
2.22523
  0
LINE
  8
0
 10
62.2715
 20
2.22523
 11
62.2188
 21
2.53856
  0
LINE
  8
0
 10
62.2188
 20
2.53856
 11
62.1525
 21
2.89888
  0
LINE
  8
0
 10
62.1525
 20
2.89888
 11
62.1301
 21
3.01105
  0
LINE
  8
0
 10
62.1301
 20
3.01105
 11
61.878
 21
3.95378
  0
LINE
  8
0
 10
61.878
 20
3.95378
 11
61.5978
 21
4.95798
  0
LINE
  8
0
 10
61.5978
 20
4.95798
 11
61.0788
 21
6.23329
  0
LINE
  8
0
 10
61.0788
 20
6.23329
 11
60.6692
 21
7.21258
  0
LINE
  8
0
 10
60.6692
 20
7.21258
 11
60.6642
 21
7.22284
  0
LINE
  8
0
 10
60.6642
 20
7.22284
 11
60.6054
 21
7.34191
  0
LINE
  8
0
 10
60.6054
 20
7.34191
 11
60.4559
 21
7.63725
  0
LINE
  8
0
 10
60.4559
 20
7.63725
 11
60.2236
 21
8.0728
  0
LINE
  8
0
 10
60.2236
 20
8.0728
 11
59.3512
 21
9.49375
  0
LINE
  8
0
 10
59.3512
 20
9.49375
 11
58.5829
 21
10.6819
  0
LINE
  8
0
 10
58.5829
 20
10.6819
 11
58.1371
 21
11.2818
  0
LINE
  8
0
 10
58.1371
 20
11.2818
 11
57.8663
 21
11.6395
  0
LINE
  8
0
 10
57.8663
 20
11.6395
 11
57.2219
 21
12.4117
  0
LINE
  8
0
 10
57.2219
 20
12.4117
 11
56.5633
 21
13.1953
  0
LINE
  8
0
 10
56.5633
 20
13.1953
 11
55.7704
 21
14.0331
  0
LINE
  8
0
 10
55.7704
 20
14.0331
 11
55.1996
 21
14.6362
  0
LINE
  8
0
 10
55.1996
 20
14.6362
 11
54.1853
 21
15.5756
  0
LINE
  8
0
 10
54.1853
 20
15.5756
 11
53.1711
 21
16.5209
  0
LINE
  8
0
 10
53.1711
 20
16.5209
 11
52.8685
 21
16.7776
  0
LINE
  8
0
 10
52.8685
 20
16.7776
 11
52.2945
 21
17.2577
  0
LINE
  8
0
 10
52.2945
 20
17.2577
 11
50.8273
 21
18.3749
  0
LINE
  8
0
 10
50.8273
 20
18.3749
 11
49.0613
 21
19.6701
  0
LINE
  8
0
 10
49.0613
 20
19.6701
 11
48.0889
 21
20.2869
  0
LINE
  8
0
 10
48.0889
 20
20.2869
 11
46.7664
 21
21.1456
  0
LINE
  8
0
 10
46.7664
 20
21.1456
 11
46.4887
 21
21.3108
  0
LINE
  8
0
 10
46.4887
 20
21.3108
 11
45.5312
 21
21.8618
  0
LINE
  8
0
 10
45.5312
 20
21.8618
 11
44.0065
 21
22.6862
  0
LINE
  8
0
 10
44.0065
 20
22.6862
 11
43.1556
 21
23.133
  0
LINE
  8
0
 10
43.1556
 20
23.133
 11
41.2131
 21
24.0154
  0
LINE
  8
0
 10
41.2131
 20
24.0154
 11
39.4669
 21
24.8042
  0
LINE
  8
0
 10
39.4669
 20
24.8042
 11
39.4136
 21
24.8258
  0
LINE
  8
0
 10
39.4136
 20
24.8258
 11
39.1786
 21
24.9202
  0
LINE
  8
0
 10
39.1786
 20
24.9202
 11
37.1547
 21
25.6452
  0
LINE
  8
0
 10
37.1547
 20
25.6452
 11
35.1134
 21
26.3528
  0
LINE
  8
0
 10
35.1134
 20
26.3528
 11
33.385
 21
26.824
  0
LINE
  8
0
 10
33.385
 20
26.824
 11
32.0292
 21
27.1841
  0
LINE
  8
0
 10
32.0292
 20
27.1841
 11
31.7055
 21
27.2571
  0
LINE
  8
0
 10
31.7055
 20
27.2571
 11
30.9932
 21
27.4107
  0
LINE
  8
0
 10
30.9932
 20
27.4107
 11
29.5879
 21
27.6707
  0
LINE
  8
0
 10
29.5879
 20
27.6707
 11
27.653
 21
27.9658
  0
LINE
  8
0
 10
27.653
 20
27.9658
 11
25.7803
 21
28.1789
  0
LINE
  8
0
 10
25.7803
 20
28.1789
 11
25.2057
 21
28.235
  0
LINE
  8
0
 10
25.2057
 20
28.235
 11
24.975
 21
28.2537
  0
LINE
  8
0
 10
24.975
 20
28.2537
 11
24.6667
 21
28.2756
  0
LINE
  8
0
 10
24.6667
 20
28.2756
 11
23.4038
 21
28.3423
  0
LINE
  8
0
 10
23.4038
 20
28.3423
 11
20.8305
 21
28.397
  0
LINE
  8
0
 10
20.8305
 20
28.397
 11
18.7037
 21
28.3851
  0
LINE
  8
0
 10
18.7037
 20
28.3851
 11
17.8285
 21
28.3567
  0
LINE
  8
0
 10
17.8285
 20
28.3567
 11
17.6219
 21
28.3481
  0
LINE
  8
0
 10
17.6219
 20
28.3481
 11
15.7059
 21
28.215
  0
LINE
  8
0
 10
15.7059
 20
28.215
 11
13.7261
 21
28.0737
  0
LINE
  8
0
 10
13.7261
 20
28.0737
 11
11.2035
 21
27.7788
  0
LINE
  8
0
 10
11.2035
 20
27.7788
 11
8.95287
 21
27.5123
  0
LINE
  8
0
 10
8.95287
 20
27.5123
 11
6.47836
 21
27.155
  0
LINE
  8
0
 10
6.47836
 20
27.155
 11
0.543766
 21
26.2418
  0
LINE
  8
0
 10
0.543766
 20
26.2418
 11
-4.92171
 21
25.3206
  0
LINE
  8
0
 10
-4.92171
 20
25.3206
 11
-10.9249
 21
24.1961
  0
LINE
  8
0
 10
-10.9249
 20
24.1961
 11
-14.0866
 21
23.5816
  0
LINE
  8
0
 10
-14.0866
 20
23.5816
 11
-14.1447
 21
23.5697
  0
LINE
  8
0
 10
-14.1447
 20
23.5697
 11
-16.4029
 21
23.0942
  0
LINE
  8
0
 10
-16.4029
 20
23.0942
 11
-18.811
 21
22.587
  0
LINE
  8
0
 10
-18.811
 20
22.587
 11
-24.8509
 21
21.1758
  0
LINE
  8
0
 10
-24.8509
 20
21.1758
 11
-30.2296
 21
19.9182
  0
LINE
  8
0
 10
-30.2296
 20
19.9182
 11
-32.4866
 21
19.339
  0
LINE
  8
0
 10
-32.4866
 20
19.339
 11
-34.4492
 21
18.8353
  0
LINE
  8
0
 10
-34.4492
 20
18.8353
 11
-34.7958
 21
18.7438
  0
LINE
  8
0
 10
-34.7958
 20
18.7438
 11
-38.6008
 21
17.7022
  0
LINE
  8
0
 10
-38.6008
 20
17.7022
 11
-43.7553
 21
16.246
  0
LINE
  8
0
 10
-43.7553
 20
16.246
 11
-46.2116
 21
15.5291
  0
LINE
  8
0
 10
-46.2116
 20
15.5291
 11
-50.3757
 21
14.231
  0
LINE
  8
0
 10
-50.3757
 20
14.231
 11
-53.6543
 21
13.2067
  0
LINE
  8
0
 10
-53.6543
 20
13.2067
 11
-55.1341
 21
12.7193
  0
LINE
  8
0
 10
-55.1341
 20
12.7193
 11
-56.7863
 21
12.1721
  0
LINE
  8
0
 10
-56.7863
 20
12.1721
 11
-62.3577
 21
10.2061
  0
LINE
  8
0
 10
-62.3577
 20
10.2061
 11
-67.0361
 21
8.53322
  0
LINE
  8
0
 10
-67.0361
 20
8.53322
 11
-69.7104
 21
7.51119
  0
LINE
  8
0
 10
-69.7104
 20
7.51119
 11
-70.2506
 21
7.30541
  0
LINE
  8
0
 10
-70.2506
 20
7.30541
 11
-71.1488
 21
6.9571
  0
LINE
  8
0
 10
-71.1488
 20
6.9571
 11
-72.0031
 21
6.61928
  0
LINE
  8
0
 10
-72.0031
 20
6.61928
 11
-75.1982
 21
5.31295
  0
LINE
  8
0
 10
-75.1982
 20
5.31295
 11
-80.5018
 21
3.08316
  0
LINE
  8
0
 10
-80.5018
 20
3.08316
 11
-83.7084
 21
1.61339
  0
LINE
  8
0
 10
-83.7084
 20
1.61339
 11
-87.5599
 21
-0.117782
  0
ENDSEC
  0
SECTION
  2
OBJECTS
  0
DICTIONARY
  0
ENDSEC
  0
EOF
