  0
SECTION
  2
BLOCKS
  0
ENDSEC
  0
SECTION
  2
ENTITIES
  0
LINE
  8
0
 10
21.4792
 20
-28.3495
 11
22.496
 21
-28.3248
  0
LINE
  8
0
 10
22.496
 20
-28.3248
 11
22.5372
 21
-28.3236
  0
LINE
  8
0
 10
22.5372
 20
-28.3236
 11
22.7457
 21
-28.311
  0
LINE
  8
0
 10
22.7457
 20
-28.311
 11
26.7172
 21
-28.0229
  0
LINE
  8
0
 10
26.7172
 20
-28.0229
 11
26.743
 21
-28.0205
  0
LINE
  8
0
 10
26.743
 20
-28.0205
 11
26.8071
 21
-28.0138
  0
LINE
  8
0
 10
26.8071
 20
-28.0138
 11
28.7666
 21
-27.7498
  0
LINE
  8
0
 10
28.7666
 20
-27.7498
 11
30.0631
 21
-27.5281
  0
LINE
  8
0
 10
30.0631
 20
-27.5281
 11
30.0681
 21
-27.5272
  0
LINE
  8
0
 10
30.0681
 20
-27.5272
 11
34.0035
 21
-26.5961
  0
LINE
  8
0
 10
34.0035
 20
-26.5961
 11
34.2916
 21
-26.5278
  0
LINE
  8
0
 10
34.2916
 20
-26.5278
 11
34.2942
 21
-26.5271
  0
LINE
  8
0
 10
34.2942
 20
-26.5271
 11
36.5221
 21
-25.8313
  0
LINE
  8
0
 10
36.5221
 20
-25.8313
 11
38.3353
 21
-25.1766
  0
LINE
  8
0
 10
38.3353
 20
-25.1766
 11
38.4607
 21
-25.1315
  0
LINE
  8
0
 10
38.4607
 20
-25.1315
 11
38.4675
 21
-25.1289
  0
LINE
  8
0
 10
38.4675
 20
-25.1289
 11
42.2846
 21
-23.4731
  0
LINE
  8
0
 10
42.2846
 20
-23.4731
 11
42.4687
 21
-23.3963
  0
LINE
  8
0
 10
42.4687
 20
-23.3963
 11
42.5548
 21
-23.3559
  0
LINE
  8
0
 10
42.5548
 20
-23.3559
 11
43.694
 21
-22.7861
  0
LINE
  8
0
 10
43.694
 20
-22.7861
 11
45.5259
 21
-21.7918
  0
LINE
  8
0
 10
45.5259
 20
-21.7918
 11
45.6374
 21
-21.7318
  0
LINE
  8
0
 10
45.6374
 20
-21.7318
 11
45.6626
 21
-21.7176
  0
LINE
  8
0
 10
45.6626
 20
-21.7176
 11
49.0089
 21
-19.6299
  0
LINE
  8
0
 10
49.0089
 20
-19.6299
 11
49.0117
 21
-19.628
  0
LINE
  8
0
 10
49.0117
 20
-19.628
 11
50.1058
 21
-18.859
  0
LINE
  8
0
 10
50.1058
 20
-18.859
 11
50.1841
 21
-18.8039
  0
LINE
  8
0
 10
50.1841
 20
-18.8039
 11
52.0986
 21
-17.3353
  0
LINE
  8
0
 10
52.0986
 20
-17.3353
 11
52.1265
 21
-17.3123
  0
LINE
  8
0
 10
52.1265
 20
-17.3123
 11
54.7488
 21
-14.9795
  0
LINE
  8
0
 10
54.7488
 20
-14.9795
 11
54.9121
 21
-14.8326
  0
LINE
  8
0
 10
54.9121
 20
-14.8326
 11
55.2805
 21
-14.4668
  0
LINE
  8
0
 10
55.2805
 20
-14.4668
 11
56.1945
 21
-13.5116
  0
LINE
  8
0
 10
56.1945
 20
-13.5116
 11
56.2733
 21
-13.4214
  0
LINE
  8
0
 10
56.2733
 20
-13.4214
 11
58.1571
 21
-11.1635
  0
LINE
  8
0
 10
58.1571
 20
-11.1635
 11
58.216
 21
-11.0888
  0
LINE
  8
0
 10
58.216
 20
-11.0888
 11
59.1843
 21
-9.71173
  0
LINE
  8
0
 10
59.1843
 20
-9.71173
 11
59.1973
 21
-9.69165
  0
LINE
  8
0
 10
59.1973
 20
-9.69165
 11
59.8842
 21
-8.57898
  0
LINE
  8
0
 10
59.8842
 20
-8.57898
 11
59.9162
 21
-8.52675
  0
LINE
  8
0
 10
59.9162
 20
-8.52675
 11
59.9212
 21
-8.51813
  0
LINE
  8
0
 10
59.9212
 20
-8.51813
 11
60.134
 21
-8.14194
  0
LINE
  8
0
 10
60.134
 20
-8.14194
 11
61.2068
 21
-5.89442
  0
LINE
  8
0
 10
61.2068
 20
-5.89442
 11
61.2316
 21
-5.8452
  0
LINE
  8
0
 10
61.2316
 20
-5.8452
 11
61.2394
 21
-5.82616
  0
LINE
  8
0
 10
61.2394
 20
-5.82616
 11
61.3821
 21
-5.45976
  0
LINE
  8
0
 10
61.3821
 20
-5.45976
 11
61.9722
 21
-3.55533
  0
LINE
  8
0
 10
61.9722
 20
-3.55533
 11
62.0125
 21
-3.42735
  0
LINE
  8
0
 10
62.0125
 20
-3.42735
 11
62.0149
 21
-3.41751
  0
LINE
  8
0
 10
62.0149
 20
-3.41751
 11
62.1868
 21
-2.61687
  0
LINE
  8
0
 10
62.1868
 20
-2.61687
 11
62.1872
 21
-2.61455
  0
LINE
  8
0
 10
62.1872
 20
-2.61455
 11
62.3669
 21
-1.33377
  0
LINE
  8
0
 10
62.3669
 20
-1.33377
 11
62.3795
 21
-1.24361
  0
LINE
  8
0
 10
62.3795
 20
-1.24361
 11
62.4363
 21
-0.260376
  0
LINE
  8
0
 10
62.4363
 20
-0.260376
 11
62.4363
 21
-0.259277
  0
LINE
  8
0
 10
62.4363
 20
-0.259277
 11
62.3063
 21
1.90138
  0
LINE
  8
0
 10
62.3063
 20
1.90138
 11
62.2969
 21
2.05617
  0
LINE
  8
0
 10
62.2969
 20
2.05617
 11
62.2964
 21
2.05971
  0
LINE
  8
0
 10
62.2964
 20
2.05971
 11
62.2556
 21
2.32912
  0
LINE
  8
0
 10
62.2556
 20
2.32912
 11
62.2503
 21
2.35902
  0
LINE
  8
0
 10
62.2503
 20
2.35902
 11
62.1333
 21
2.99503
  0
LINE
  8
0
 10
62.1333
 20
2.99503
 11
62.1301
 21
3.01105
  0
LINE
  8
0
 10
62.1301
 20
3.01105
 11
61.6529
 21
4.79539
  0
LINE
  8
0
 10
61.6529
 20
4.79539
 11
61.645
 21
4.81862
  0
LINE
  8
0
 10
61.645
 20
4.81862
 11
60.7277
 21
7.07275
  0
LINE
  8
0
 10
60.7277
 20
7.07275
 11
60.6692
 21
7.21257
  0
LINE
  8
0
 10
60.6692
 20
7.21257
 11
60.6598
 21
7.23206
  0
LINE
  8
0
 10
60.6598
 20
7.23206
 11
60.652
 21
7.24774
  0
LINE
  8
0
 10
60.652
 20
7.24774
 11
60.3872
 21
7.77083
  0
LINE
  8
0
 10
60.3872
 20
7.77083
 11
60.3758
 21
7.79308
  0
LINE
  8
0
 10
60.3758
 20
7.79308
 11
60.3541
 21
7.83302
  0
LINE
  8
0
 10
60.3541
 20
7.83302
 11
58.8075
 21
10.3521
  0
LINE
  8
0
 10
58.8075
 20
10.3521
 11
58.7169
 21
10.4951
  0
LINE
  8
0
 10
58.7169
 20
10.4951
 11
58.6978
 21
10.5218
  0
LINE
  8
0
 10
58.6978
 20
10.5218
 11
57.905
 21
11.5884
  0
LINE
  8
0
 10
57.905
 20
11.5884
 11
57.8663
 21
11.6395
  0
LINE
  8
0
 10
57.8663
 20
11.6395
 11
56.6356
 21
13.1144
  0
LINE
  8
0
 10
56.6356
 20
13.1144
 11
56.6253
 21
13.1259
  0
LINE
  8
0
 10
56.6253
 20
13.1259
 11
55.129
 21
14.7067
  0
LINE
  8
0
 10
55.129
 20
14.7067
 11
55.1173
 21
14.7185
  0
LINE
  8
0
 10
55.1173
 20
14.7185
 11
53.1711
 21
16.5209
  0
LINE
  8
0
 10
53.1711
 20
16.5209
 11
53.1279
 21
16.5576
  0
LINE
  8
0
 10
53.1279
 20
16.5576
 11
52.0978
 21
17.419
  0
LINE
  8
0
 10
52.0978
 20
17.419
 11
52.065
 21
17.4459
  0
LINE
  8
0
 10
52.065
 20
17.4459
 11
51.8883
 21
17.5785
  0
LINE
  8
0
 10
51.8883
 20
17.5785
 11
48.7069
 21
19.9117
  0
LINE
  8
0
 10
48.7069
 20
19.9117
 11
48.6479
 21
19.952
  0
LINE
  8
0
 10
48.6479
 20
19.952
 11
46.7664
 21
21.1456
  0
LINE
  8
0
 10
46.7664
 20
21.1456
 11
46.7267
 21
21.1692
  0
LINE
  8
0
 10
46.7267
 20
21.1692
 11
44.996
 21
22.1652
  0
LINE
  8
0
 10
44.996
 20
22.1652
 11
44.9069
 21
22.2157
  0
LINE
  8
0
 10
44.9069
 20
22.2157
 11
43.2499
 21
23.0859
  0
LINE
  8
0
 10
43.2499
 20
23.0859
 11
43.2364
 21
23.0926
  0
LINE
  8
0
 10
43.2364
 20
23.0926
 11
39.7162
 21
24.6916
  0
LINE
  8
0
 10
39.7162
 20
24.6916
 11
39.4669
 21
24.8042
  0
LINE
  8
0
 10
39.4669
 20
24.8042
 11
39.3629
 21
24.8464
  0
LINE
  8
0
 10
39.3629
 20
24.8464
 11
39.3366
 21
24.8569
  0
LINE
  8
0
 10
39.3366
 20
24.8569
 11
35.6596
 21
26.1741
  0
LINE
  8
0
 10
35.6596
 20
26.1741
 11
35.4106
 21
26.2622
  0
LINE
  8
0
 10
35.4106
 20
26.2622
 11
35.3681
 21
26.2751
  0
LINE
  8
0
 10
35.3681
 20
26.2751
 11
32.2228
 21
27.1327
  0
LINE
  8
0
 10
32.2228
 20
27.1327
 11
32.0292
 21
27.1841
  0
LINE
  8
0
 10
32.0292
 20
27.1841
 11
31.3954
 21
27.327
  0
LINE
  8
0
 10
31.3954
 20
27.327
 11
31.338
 21
27.3389
  0
LINE
  8
0
 10
31.338
 20
27.3389
 11
28.7781
 21
27.8127
  0
LINE
  8
0
 10
28.7781
 20
27.8127
 11
28.6432
 21
27.8363
  0
LINE
  8
0
 10
28.6432
 20
27.8363
 11
28.5018
 21
27.8548
  0
LINE
  8
0
 10
28.5018
 20
27.8548
 11
25.09
 21
28.243
  0
LINE
  8
0
 10
25.09
 20
28.243
 11
25.0079
 21
28.251
  0
LINE
  8
0
 10
25.0079
 20
28.251
 11
24.975
 21
28.2537
  0
LINE
  8
0
 10
24.975
 20
28.2537
 11
24.3712
 21
28.2966
  0
LINE
  8
0
 10
24.3712
 20
28.2966
 11
24.2331
 21
28.3031
  0
LINE
  8
0
 10
24.2331
 20
28.3031
 11
19.5471
 21
28.4026
  0
LINE
  8
0
 10
19.5471
 20
28.4026
 11
19.3333
 21
28.4036
  0
LINE
  8
0
 10
19.3333
 20
28.4036
 11
19.2434
 21
28.401
  0
LINE
  8
0
 10
19.2434
 20
28.401
 11
17.6514
 21
28.3493
  0
LINE
  8
0
 10
17.6514
 20
28.3493
 11
17.6219
 21
28.3481
  0
LINE
  8
0
 10
17.6219
 20
28.3481
 11
13.8759
 21
28.0878
  0
LINE
  8
0
 10
13.8759
 20
28.0878
 11
13.8545
 21
28.0858
  0
LINE
  8
0
 10
13.8545
 20
28.0858
 11
9.27422
 21
27.5503
  0
LINE
  8
0
 10
9.27422
 20
27.5503
 11
8.95287
 21
27.5123
  0
LINE
  8
0
 10
8.95287
 20
27.5123
 11
8.59955
 21
27.4613
  0
LINE
  8
0
 10
8.59955
 20
27.4613
 11
-2.11501
 21
25.8125
  0
LINE
  8
0
 10
-2.11501
 20
25.8125
 11
-2.55786
 21
25.741
  0
LINE
  8
0
 10
-2.55786
 20
25.741
 11
-2.89539
 21
25.681
  0
LINE
  8
0
 10
-2.89539
 20
25.681
 11
-13.6351
 21
23.6693
  0
LINE
  8
0
 10
-13.6351
 20
23.6693
 11
-14.0866
 21
23.5816
  0
LINE
  8
0
 10
-14.0866
 20
23.5816
 11
-14.1974
 21
23.559
  0
LINE
  8
0
 10
-14.1974
 20
23.559
 11
-18.7663
 21
22.5968
  0
LINE
  8
0
 10
-18.7663
 20
22.5968
 11
-18.7727
 21
22.5954
  0
LINE
  8
0
 10
-18.7727
 20
22.5954
 11
-29.458
 21
20.0987
  0
LINE
  8
0
 10
-29.458
 20
20.0987
 11
-30.226
 21
19.9191
  0
LINE
  8
0
 10
-30.226
 20
19.9191
 11
-34.4492
 21
18.8353
  0
LINE
  8
0
 10
-34.4492
 20
18.8353
 11
-34.4987
 21
18.8222
  0
LINE
  8
0
 10
-34.4987
 20
18.8222
 11
-41.1076
 21
17.0132
  0
LINE
  8
0
 10
-41.1076
 20
17.0132
 11
-41.5251
 21
16.8984
  0
LINE
  8
0
 10
-41.5251
 20
16.8984
 11
-46.0253
 21
15.585
  0
LINE
  8
0
 10
-46.0253
 20
15.585
 11
-46.0519
 21
15.577
  0
LINE
  8
0
 10
-46.0519
 20
15.577
 11
-53.1862
 21
13.353
  0
LINE
  8
0
 10
-53.1862
 20
13.353
 11
-53.6543
 21
13.2067
  0
LINE
  8
0
 10
-53.6543
 20
13.2067
 11
-56.3387
 21
12.3225
  0
LINE
  8
0
 10
-56.3387
 20
12.3225
 11
-56.4026
 21
12.301
  0
LINE
  8
0
 10
-56.4026
 20
12.301
 11
-65.8174
 21
8.97874
  0
LINE
  8
0
 10
-65.8174
 20
8.97874
 11
-66.3937
 21
8.77431
  0
LINE
  8
0
 10
-66.3937
 20
8.77431
 11
-66.4854
 21
8.73988
  0
LINE
  8
0
 10
-66.4854
 20
8.73988
 11
-70.9434
 21
7.03621
  0
LINE
  8
0
 10
-70.9434
 20
7.03621
 11
-71.0206
 21
7.00682
  0
LINE
  8
0
 10
-71.0206
 20
7.00682
 11
-71.1488
 21
6.95709
  0
LINE
  8
0
 10
-71.1488
 20
6.95709
 11
-72.6606
 21
6.35925
  0
LINE
  8
0
 10
-72.6606
 20
6.35925
 11
-73.0229
 21
6.20985
  0
LINE
  8
0
 10
-73.0229
 20
6.20985
 11
-81.7397
 21
2.54506
  0
LINE
  8
0
 10
-81.7397
 20
2.54506
 11
-81.9459
 21
2.45543
  0
LINE
  8
0
 10
-81.9459
 20
2.45543
 11
-87.5599
 21
-0.117767
  0
LINE
  8
0
 10
-87.5599
 20
-0.117767
 11
-82.2757
 21
-2.52281
  0
LINE
  8
0
 10
-82.2757
 20
-2.52281
 11
-82.054
 21
-2.62486
  0
LINE
  8
0
 10
-82.054
 20
-2.62486
 11
-81.939
 21
-2.67606
  0
LINE
  8
0
 10
-81.939
 20
-2.67606
 11
-73.01
 21
-6.40176
  0
LINE
  8
0
 10
-73.01
 20
-6.40176
 11
-72.7833
 21
-6.49869
  0
LINE
  8
0
 10
-72.7833
 20
-6.49869
 11
-72.6432
 21
-6.55481
  0
LINE
  8
0
 10
-72.6432
 20
-6.55481
 11
-72.056
 21
-6.78642
  0
LINE
  8
0
 10
-72.056
 20
-6.78642
 11
-66.3698
 21
-8.95296
  0
LINE
  8
0
 10
-66.3698
 20
-8.95296
 11
-66.3273
 21
-8.96858
  0
LINE
  8
0
 10
-66.3273
 20
-8.96858
 11
-56.894
 21
-12.2688
  0
LINE
  8
0
 10
-56.894
 20
-12.2688
 11
-56.3052
 21
-12.474
  0
LINE
  8
0
 10
-56.3052
 20
-12.474
 11
-56.2978
 21
-12.4765
  0
LINE
  8
0
 10
-56.2978
 20
-12.4765
 11
-54.6653
 21
-13.012
  0
LINE
  8
0
 10
-54.6653
 20
-13.012
 11
-54.5615
 21
-13.046
  0
LINE
  8
0
 10
-54.5615
 20
-13.046
 11
-46.5319
 21
-15.5385
  0
LINE
  8
0
 10
-46.5319
 20
-15.5385
 11
-45.9991
 21
-15.704
  0
LINE
  8
0
 10
-45.9991
 20
-15.704
 11
-45.9831
 21
-15.7088
  0
LINE
  8
0
 10
-45.9831
 20
-15.7088
 11
-41.4794
 21
-17.01
  0
LINE
  8
0
 10
-41.4794
 20
-17.01
 11
-41.0665
 21
-17.1223
  0
LINE
  8
0
 10
-41.0665
 20
-17.1223
 11
-33.6393
 21
-19.1241
  0
LINE
  8
0
 10
-33.6393
 20
-19.1241
 11
-33.5274
 21
-19.1532
  0
LINE
  8
0
 10
-33.5274
 20
-19.1532
 11
-30.1716
 21
-20.0005
  0
LINE
  8
0
 10
-30.1716
 20
-20.0005
 11
-29.7593
 21
-20.0988
  0
LINE
  8
0
 10
-29.7593
 20
-20.0988
 11
-19.062
 21
-22.5677
  0
LINE
  8
0
 10
-19.062
 20
-22.5677
 11
-18.7053
 21
-22.6469
  0
LINE
  8
0
 10
-18.7053
 20
-22.6469
 11
-14.1328
 21
-23.597
  0
LINE
  8
0
 10
-14.1328
 20
-23.597
 11
-12.0175
 21
-24.0164
  0
LINE
  8
0
 10
-12.0175
 20
-24.0164
 11
-2.48822
 21
-25.7475
  0
LINE
  8
0
 10
-2.48822
 20
-25.7475
 11
9.02704
 21
-27.4877
  0
LINE
  8
0
 10
9.02704
 20
-27.4877
 11
9.15671
 21
-27.5042
  0
LINE
  8
0
 10
9.15671
 20
-27.5042
 11
13.4565
 21
-28.0006
  0
LINE
  8
0
 10
13.4565
 20
-28.0006
 11
13.6481
 21
-28.0211
  0
LINE
  8
0
 10
13.6481
 20
-28.0211
 11
13.8596
 21
-28.0369
  0
LINE
  8
0
 10
13.8596
 20
-28.0369
 11
18.0514
 21
-28.3104
  0
LINE
  8
0
 10
18.0514
 20
-28.3104
 11
18.154
 21
-28.3151
  0
LINE
  8
0
 10
18.154
 20
-28.3151
 11
21.444
 21
-28.3502
  0
LINE
  8
0
 10
21.444
 20
-28.3502
 11
21.4792
 21
-28.3495
  0
ENDSEC
  0
SECTION
  2
OBJECTS
  0
DICTIONARY
  0
ENDSEC
  0
EOF
